<?xml version="1.0" encoding="UTF-8" standalone="no"?>
<!DOCTYPE svg PUBLIC "-//W3C//DTD SVG 1.1//EN" "http://www.w3.org/Graphics/SVG/1.1/DTD/svg11.dtd">
<svg width="100%" height="100%" viewBox="0 0 3130 573" version="1.1" xmlns="http://www.w3.org/2000/svg" xmlns:xlink="http://www.w3.org/1999/xlink" xml:space="preserve" xmlns:serif="http://www.serif.com/" style="fill-rule:evenodd;clip-rule:evenodd;stroke-linejoin:round;stroke-miterlimit:2;">
    <g transform="matrix(5.17278,0,0,5.17278,-488.497,-1300.44)">
        <path d="M489.586,297.518C488.186,299.08 485.647,300.839 481.386,300.839C474.845,300.839 469.899,296.25 469.899,289.254C469.899,282.258 474.944,277.67 481.386,277.67C485.581,277.67 488.122,279.428 489.358,280.631L488.022,283.169C487.145,282.063 484.641,280.436 481.514,280.436C476.668,280.436 473.154,283.917 473.154,289.189C473.154,294.46 476.699,297.941 481.514,297.941C484.477,297.941 486.754,296.804 488.218,295.208L489.586,297.518Z" style="fill:rgb(254,253,235);fill-rule:nonzero;"/>
    </g>
    <g transform="matrix(5.17278,0,0,5.17278,-488.497,-1300.44)">
        <path d="M499.313,287.237C496.19,287.237 494.27,289.644 494.27,292.67C494.27,295.729 496.19,298.138 499.313,298.138C502.404,298.138 504.322,295.729 504.322,292.67C504.322,289.644 502.404,287.237 499.313,287.237ZM499.313,300.805C494.69,300.805 491.113,297.583 491.113,292.768C491.113,287.984 494.69,284.698 499.313,284.698C503.901,284.698 507.477,287.984 507.477,292.768C507.477,297.583 503.901,300.805 499.313,300.805Z" style="fill:rgb(254,253,235);fill-rule:nonzero;"/>
    </g>
    <g transform="matrix(5.17278,0,0,5.17278,-488.497,-1300.44)">
        <path d="M524.169,300.447L521.044,300.447L521.044,291.825C521.044,289.221 520.591,287.269 517.826,287.269C514.931,287.269 513.854,289.709 513.854,292.67L513.854,300.447L510.731,300.447L510.731,284.991L513.854,284.991L513.822,287.431L513.919,287.431C514.732,285.903 516.393,284.698 518.641,284.698C523.031,284.698 524.169,287.594 524.169,291.304L524.169,300.447Z" style="fill:rgb(254,253,235);fill-rule:nonzero;"/>
    </g>
    <g transform="matrix(5.17278,0,0,5.17278,-488.497,-1300.44)">
        <path d="M537.153,299.438C536.077,300.316 534.649,300.805 532.858,300.805C530.254,300.805 528.139,299.731 526.836,298.04L528.332,296.217C529.506,297.649 531.456,298.429 532.891,298.429C534.322,298.429 535.85,297.909 535.85,296.217C535.85,294.525 533.41,294.004 532.368,293.647C531.327,293.289 530.968,293.223 530.254,292.832C529.277,292.345 527.813,291.336 527.813,289.124C527.813,286.261 530.286,284.698 533.018,284.698C535.752,284.698 537.313,285.675 538.29,286.715L536.99,288.636C536.077,287.692 534.581,286.977 533.086,286.977C531.586,286.977 530.613,287.626 530.613,288.896C530.613,290.165 532.108,290.717 533.638,291.206C534.483,291.499 535.067,291.693 535.718,291.954C536.34,292.214 537.054,292.605 537.509,293.062C538.095,293.614 538.745,294.525 538.745,295.924C538.745,297.421 538.161,298.593 537.153,299.438Z" style="fill:rgb(254,253,235);fill-rule:nonzero;"/>
    </g>
    <g transform="matrix(5.17278,0,0,5.17278,-488.497,-1300.44)">
        <path d="M552.963,291.369C552.932,289.644 551.629,286.943 548.504,286.943C545.417,286.943 544.047,289.514 543.951,291.369L552.963,291.369ZM555.826,293.451L543.918,293.451C544.081,296.51 546.031,298.365 548.896,298.365C551.791,298.365 553.647,296.804 554.004,296.575L555.305,298.365C555.113,298.526 553.127,300.805 548.504,300.805C543.918,300.805 540.759,297.616 540.759,292.703C540.759,287.822 544.309,284.698 548.604,284.698C552.899,284.698 555.925,287.756 555.925,292.084C555.925,292.67 555.826,293.451 555.826,293.451Z" style="fill:rgb(254,253,235);fill-rule:nonzero;"/>
    </g>
    <g transform="matrix(5.17278,0,0,5.17278,-488.497,-1300.44)">
        <path d="M562.27,300.447L559.145,300.447L559.145,284.991L562.27,284.991L562.27,300.447ZM560.708,281.834C559.504,281.834 558.658,281.021 558.658,279.915C558.658,278.809 559.504,277.995 560.708,277.995C561.877,277.995 562.725,278.809 562.725,279.915C562.725,281.021 561.877,281.834 560.708,281.834Z" style="fill:rgb(254,253,235);fill-rule:nonzero;"/>
    </g>
    <g transform="matrix(5.17278,0,0,5.17278,-488.497,-1300.44)">
        <rect x="566.854" y="277.995" width="3.091" height="22.452" style="fill:rgb(254,253,235);"/>
    </g>
    <g transform="matrix(5.17278,0,0,5.17278,-488.497,-1300.44)">
        <path d="M587.94,287.237C584.846,287.237 583.024,289.579 583.024,292.67C583.024,295.762 584.846,298.138 587.94,298.138C591.029,298.138 592.85,295.762 592.85,292.67C592.85,289.579 591.029,287.237 587.94,287.237ZM595.845,300.447L592.85,300.447L592.85,297.973L592.786,297.973C591.516,299.861 589.598,300.805 587.35,300.805C582.764,300.805 579.836,297.291 579.836,292.703C579.836,288.148 582.764,284.698 587.286,284.698C589.791,284.698 591.613,285.805 592.69,287.399L592.752,287.399L592.752,277.995L595.845,277.995L595.845,300.447Z" style="fill:rgb(254,253,235);fill-rule:nonzero;"/>
    </g>
    <g transform="matrix(5.17278,0,0,5.17278,-488.497,-1300.44)">
        <path d="M611.463,291.369C611.431,289.644 610.127,286.943 607.004,286.943C603.913,286.943 602.547,289.514 602.447,291.369L611.463,291.369ZM614.322,293.451L602.414,293.451C602.577,296.51 604.531,298.365 607.395,298.365C610.29,298.365 612.145,296.804 612.504,296.575L613.804,298.365C613.608,298.526 611.622,300.805 607.004,300.805C602.414,300.805 599.259,297.616 599.259,292.703C599.259,287.822 602.805,284.698 607.1,284.698C611.396,284.698 614.422,287.756 614.422,292.084C614.422,292.67 614.322,293.451 614.322,293.451Z" style="fill:rgb(254,253,235);fill-rule:nonzero;"/>
    </g>
    <g transform="matrix(5.17278,0,0,5.17278,-488.497,-1300.44)">
        <path d="M626.329,299.438C625.256,300.316 623.822,300.805 622.034,300.805C619.432,300.805 617.315,299.731 616.016,298.04L617.511,296.217C618.682,297.649 620.636,298.429 622.067,298.429C623.5,298.429 625.027,297.909 625.027,296.217C625.027,294.525 622.586,294.004 621.545,293.647C620.504,293.289 620.146,293.223 619.432,292.832C618.454,292.345 616.99,291.336 616.99,289.124C616.99,286.261 619.463,284.698 622.195,284.698C624.932,284.698 626.492,285.675 627.468,286.715L626.168,288.636C625.256,287.692 623.757,286.977 622.261,286.977C620.766,286.977 619.788,287.626 619.788,288.896C619.788,290.165 621.284,290.717 622.815,291.206C623.659,291.499 624.249,291.693 624.896,291.954C625.516,292.214 626.231,292.605 626.687,293.062C627.272,293.614 627.923,294.525 627.923,295.924C627.923,297.421 627.336,298.593 626.329,299.438Z" style="fill:rgb(254,253,235);fill-rule:nonzero;"/>
    </g>
    <g transform="matrix(5.17278,0,0,5.17278,-488.497,-1300.44)">
        <path d="M646.37,293.028L642.759,293.255C640.254,293.387 639.245,294.46 639.245,295.924C639.245,297.388 640.382,298.593 642.432,298.593C644.45,298.593 645.786,297.227 646.37,296.347L646.37,293.028ZM649.459,300.447L646.436,300.447L646.4,298.495C645.786,299.146 644.32,300.805 641.49,300.805C638.625,300.805 636.15,299.015 636.15,296.022C636.15,292.996 638.625,291.466 642.204,291.304L646.336,291.14L646.336,290.523C646.336,288.18 644.745,287.008 642.498,287.008C640.254,287.008 638.365,288.018 637.844,288.342L636.9,286.261C638.041,285.609 640.123,284.698 642.691,284.698C645.264,284.698 646.759,285.414 647.802,286.455C648.843,287.529 649.459,288.83 649.459,291.466L649.459,300.447Z" style="fill:rgb(254,253,235);fill-rule:nonzero;"/>
    </g>
    <g transform="matrix(5.17278,0,0,5.17278,-488.497,-1300.44)">
        <path d="M661.889,287.855L661.759,287.855C661.464,287.725 660.913,287.529 660.068,287.529C658.7,287.529 657.853,288.407 657.527,288.83C657.236,289.254 656.584,290.457 656.584,292.735L656.584,300.447L653.459,300.447L653.459,284.991L656.584,284.991L656.555,287.366L656.65,287.366C657.396,285.609 658.8,284.698 660.455,284.698C661.5,284.698 662.084,284.958 662.084,284.958L661.889,287.855Z" style="fill:rgb(254,253,235);fill-rule:nonzero;"/>
    </g>
    <g transform="matrix(5.17278,0,0,5.17278,-488.497,-1300.44)">
        <path d="M671.877,300.284C671.877,300.284 670.673,300.805 669.045,300.805C667.418,300.805 666.409,300.188 665.759,299.21C665.109,298.234 664.978,297.031 664.978,294.59L664.978,287.529L662.702,287.529L662.702,285.024L664.978,285.024L664.978,280.404L668.103,280.404L668.103,285.024L671.813,285.024L671.813,287.529L668.103,287.529L668.103,294.525C668.103,295.826 668.134,296.705 668.495,297.356C668.786,297.843 669.209,298.138 670.088,298.138C671,298.138 671.682,297.779 671.682,297.779L671.877,300.284Z" style="fill:rgb(254,253,235);fill-rule:nonzero;"/>
    </g>
    <g transform="matrix(5.17278,0,0,5.17278,-488.497,-1300.44)">
        <path d="M683.298,299.438C682.221,300.316 680.791,300.805 679.002,300.805C676.397,300.805 674.284,299.731 672.981,298.04L674.478,296.217C675.652,297.649 677.601,298.429 679.036,298.429C680.466,298.429 681.993,297.909 681.993,296.217C681.993,294.525 679.551,294.004 678.512,293.647C677.471,293.289 677.113,293.223 676.397,292.832C675.423,292.345 673.959,291.336 673.959,289.124C673.959,286.261 676.432,284.698 679.164,284.698C681.896,284.698 683.459,285.675 684.437,286.715L683.132,288.636C682.221,287.692 680.725,286.977 679.229,286.977C677.731,286.977 676.755,287.626 676.755,288.896C676.755,290.165 678.254,290.717 679.777,291.206C680.627,291.499 681.214,291.693 681.863,291.954C682.481,292.214 683.199,292.605 683.654,293.062C684.24,293.614 684.891,294.525 684.891,295.924C684.891,297.421 684.305,298.593 683.298,299.438Z" style="fill:rgb(254,253,235);fill-rule:nonzero;"/>
    </g>
    <g transform="matrix(5.17278,0,0,5.17278,-488.497,-1300.44)">
        <path d="M477.904,323.839C474.813,323.839 472.99,326.182 472.99,329.273C472.99,332.364 474.813,334.741 477.904,334.741C480.995,334.741 482.817,332.364 482.817,329.273C482.817,326.182 480.995,323.839 477.904,323.839ZM485.809,337.05L482.817,337.05L482.817,334.575L482.752,334.575C481.481,336.464 479.563,337.409 477.317,337.409C472.729,337.409 469.802,333.894 469.802,329.305C469.802,324.75 472.729,321.301 477.252,321.301C479.759,321.301 481.581,322.407 482.654,324L482.72,324L482.72,314.601L485.809,314.601L485.809,337.05Z" style="fill:rgb(254,253,235);fill-rule:nonzero;"/>
    </g>
    <g transform="matrix(5.17278,0,0,5.17278,-488.497,-1300.44)">
        <path d="M503.413,337.05L500.386,337.05L500.354,334.837C499.505,336.334 497.752,337.409 495.57,337.409C493.358,337.409 492.086,336.659 491.272,335.618C490.493,334.575 490.136,333.05 490.136,330.834L490.136,321.563L493.227,321.563L493.227,330.705C493.227,332.82 493.684,334.805 496.447,334.805C499.182,334.805 500.286,332.462 500.286,329.857L500.286,321.563L503.413,321.563L503.413,337.05Z" style="fill:rgb(254,253,235);fill-rule:nonzero;"/>
    </g>
    <g transform="matrix(5.17278,0,0,5.17278,-488.497,-1300.44)">
        <path d="M532.922,334.121C531.522,335.682 528.983,337.441 524.723,337.441C518.182,337.441 513.234,332.853 513.234,325.857C513.234,318.861 518.279,314.273 524.723,314.273C528.922,314.273 531.456,316.028 532.694,317.232L531.358,319.773C530.481,318.664 527.975,317.039 524.854,317.039C520.002,317.039 516.487,320.521 516.487,325.791C516.487,331.063 520.036,334.546 524.854,334.546C527.813,334.546 530.091,333.404 531.554,331.812L532.922,334.121Z" style="fill:rgb(254,253,235);fill-rule:nonzero;"/>
    </g>
    <g transform="matrix(5.17278,0,0,5.17278,-488.497,-1300.44)">
        <path d="M544.731,329.63L541.118,329.857C538.613,329.989 537.604,331.063 537.604,332.527C537.604,333.991 538.743,335.195 540.793,335.195C542.809,335.195 544.146,333.829 544.731,332.95L544.731,329.63ZM547.822,337.05L544.797,337.05L544.764,335.098C544.146,335.75 542.682,337.409 539.85,337.409C536.99,337.409 534.514,335.618 534.514,332.623C534.514,329.598 536.99,328.068 540.565,327.907L544.697,327.743L544.697,327.125C544.697,324.782 543.104,323.611 540.858,323.611C538.613,323.611 536.725,324.621 536.206,324.945L535.264,322.861C536.399,322.214 538.485,321.301 541.054,321.301C543.627,321.301 545.122,322.019 546.163,323.06C547.204,324.132 547.822,325.433 547.822,328.068L547.822,337.05Z" style="fill:rgb(254,253,235);fill-rule:nonzero;"/>
    </g>
    <g transform="matrix(5.17278,0,0,5.17278,-488.497,-1300.44)">
        <path d="M565.261,337.05L562.136,337.05L562.136,328.428C562.136,325.823 561.682,323.871 558.918,323.871C556.021,323.871 554.945,326.313 554.945,329.273L554.945,337.05L551.822,337.05L551.822,321.594L554.945,321.594L554.913,324.034L555.011,324.034C555.822,322.505 557.483,321.301 559.731,321.301C564.122,321.301 565.261,324.196 565.261,327.907L565.261,337.05Z" style="fill:rgb(254,253,235);fill-rule:nonzero;"/>
    </g>
    <g transform="matrix(5.17278,0,0,5.17278,-488.497,-1300.44)">
        <path d="M578.336,329.63L574.727,329.857C572.223,329.989 571.213,331.063 571.213,332.527C571.213,333.991 572.352,335.195 574.4,335.195C576.418,335.195 577.752,333.829 578.336,332.95L578.336,329.63ZM581.432,337.05L578.404,337.05L578.372,335.098C577.752,335.75 576.29,337.409 573.459,337.409C570.596,337.409 568.122,335.618 568.122,332.623C568.122,329.598 570.596,328.068 574.173,327.907L578.307,327.743L578.307,327.125C578.307,324.782 576.713,323.611 574.468,323.611C572.223,323.611 570.334,324.621 569.813,324.945L568.868,322.861C570.009,322.214 572.091,321.301 574.663,321.301C577.233,321.301 578.729,322.019 579.771,323.06C580.81,324.132 581.432,325.433 581.432,328.068L581.432,337.05Z" style="fill:rgb(254,253,235);fill-rule:nonzero;"/>
    </g>
    <g transform="matrix(5.17278,0,0,5.17278,-488.497,-1300.44)">
        <path d="M592.491,323.839C589.399,323.839 587.579,326.182 587.579,329.273C587.579,332.364 589.399,334.741 592.491,334.741C595.582,334.741 597.404,332.364 597.404,329.273C597.404,326.182 595.582,323.839 592.491,323.839ZM600.399,337.05L597.404,337.05L597.404,334.575L597.341,334.575C596.07,336.464 594.149,337.409 591.904,337.409C587.316,337.409 584.389,333.894 584.389,329.305C584.389,324.75 587.316,321.301 591.841,321.301C594.348,321.301 596.168,322.407 597.243,324L597.305,324L597.305,314.601L600.399,314.601L600.399,337.05Z" style="fill:rgb(254,253,235);fill-rule:nonzero;"/>
    </g>
    <g transform="matrix(5.17278,0,0,5.17278,-488.497,-1300.44)">
        <path d="M613.771,329.63L610.159,329.857C607.65,329.989 606.641,331.063 606.641,332.527C606.641,333.991 607.781,335.195 609.834,335.195C611.85,335.195 613.186,333.829 613.771,332.95L613.771,329.63ZM616.861,337.05L613.834,337.05L613.802,335.098C613.186,335.75 611.72,337.409 608.887,337.409C606.027,337.409 603.555,335.618 603.555,332.623C603.555,329.598 606.027,328.068 609.604,327.907L613.736,327.743L613.736,327.125C613.736,324.782 612.141,323.611 609.896,323.611C607.65,323.611 605.766,324.621 605.245,324.945L604.3,322.861C605.44,322.214 607.522,321.301 610.093,321.301C612.663,321.301 614.159,322.019 615.2,323.06C616.243,324.132 616.861,325.433 616.861,328.068L616.861,337.05Z" style="fill:rgb(254,253,235);fill-rule:nonzero;"/>
    </g>
    <g transform="matrix(5.17278,0,0,5.17278,-488.497,-1300.44)">
        <path d="M247.299,297.518C245.903,299.08 243.362,300.839 239.101,300.839C232.562,300.839 227.615,296.25 227.615,289.254C227.615,282.258 232.658,277.67 239.101,277.67C243.299,277.67 245.835,279.428 247.071,280.631L245.739,283.169C244.862,282.063 242.355,280.436 239.23,280.436C234.383,280.436 230.869,283.917 230.869,289.189C230.869,294.46 234.415,297.941 239.23,297.941C242.194,297.941 244.471,296.804 245.935,295.208L247.299,297.518Z" style="fill:rgb(254,253,235);fill-rule:nonzero;"/>
    </g>
    <g transform="matrix(5.17278,0,0,5.17278,-488.497,-1300.44)">
        <path d="M259.109,293.028L255.499,293.255C252.994,293.387 251.985,294.46 251.985,295.924C251.985,297.388 253.124,298.593 255.174,298.593C257.189,298.593 258.526,297.227 259.109,296.347L259.109,293.028ZM262.203,300.447L259.176,300.447L259.142,298.495C258.526,299.146 257.06,300.805 254.23,300.805C251.367,300.805 248.894,299.015 248.894,296.022C248.894,292.996 251.367,291.466 254.944,291.304L259.078,291.14L259.078,290.523C259.078,288.18 257.484,287.008 255.239,287.008C252.994,287.008 251.105,288.018 250.585,288.342L249.642,286.261C250.781,285.609 252.862,284.698 255.435,284.698C258.002,284.698 259.501,285.414 260.542,286.455C261.584,287.529 262.203,288.83 262.203,291.466L262.203,300.447Z" style="fill:rgb(254,253,235);fill-rule:nonzero;"/>
    </g>
    <g transform="matrix(5.17278,0,0,5.17278,-488.497,-1300.44)">
        <path d="M279.64,300.447L276.517,300.447L276.517,291.825C276.517,289.221 276.062,287.269 273.294,287.269C270.399,287.269 269.326,289.709 269.326,292.67L269.326,300.447L266.203,300.447L266.203,284.991L269.326,284.991L269.294,287.431L269.39,287.431C270.204,285.903 271.862,284.698 274.108,284.698C278.501,284.698 279.64,287.594 279.64,291.304L279.64,300.447Z" style="fill:rgb(254,253,235);fill-rule:nonzero;"/>
    </g>
    <g transform="matrix(5.17278,0,0,5.17278,-488.497,-1300.44)">
        <path d="M292.719,293.028L289.108,293.255C286.601,293.387 285.594,294.46 285.594,295.924C285.594,297.388 286.731,298.593 288.781,298.593C290.799,298.593 292.133,297.227 292.719,296.347L292.719,293.028ZM295.81,300.447L292.785,300.447L292.751,298.495C292.133,299.146 290.669,300.805 287.839,300.805C284.976,300.805 282.501,299.015 282.501,296.022C282.501,292.996 284.976,291.466 288.553,291.304L292.685,291.14L292.685,290.523C292.685,288.18 291.092,287.008 288.849,287.008C286.601,287.008 284.715,288.018 284.194,288.342L283.249,286.261C284.39,285.609 286.472,284.698 289.042,284.698C291.612,284.698 293.108,285.414 294.149,286.455C295.192,287.529 295.81,288.83 295.81,291.466L295.81,300.447Z" style="fill:rgb(254,253,235);fill-rule:nonzero;"/>
    </g>
    <g transform="matrix(5.17278,0,0,5.17278,-488.497,-1300.44)">
        <path d="M306.872,287.237C303.781,287.237 301.958,289.579 301.958,292.67C301.958,295.762 303.781,298.138 306.872,298.138C309.962,298.138 311.785,295.762 311.785,292.67C311.785,289.579 309.962,287.237 306.872,287.237ZM314.776,300.447L311.785,300.447L311.785,297.973L311.721,297.973C310.449,299.861 308.531,300.805 306.285,300.805C301.699,300.805 298.77,297.291 298.77,292.703C298.77,288.148 301.699,284.698 306.221,284.698C308.726,284.698 310.549,285.805 311.622,287.399L311.686,287.399L311.686,277.995L314.776,277.995L314.776,300.447Z" style="fill:rgb(254,253,235);fill-rule:nonzero;"/>
    </g>
    <g transform="matrix(5.17278,0,0,5.17278,-488.497,-1300.44)">
        <path d="M328.149,293.028L324.538,293.255C322.031,293.387 321.024,294.46 321.024,295.924C321.024,297.388 322.163,298.593 324.212,298.593C326.23,298.593 327.563,297.227 328.149,296.347L328.149,293.028ZM331.24,300.447L328.213,300.447L328.181,298.495C327.563,299.146 326.099,300.805 323.267,300.805C320.404,300.805 317.931,299.015 317.931,296.022C317.931,292.996 320.404,291.466 323.985,291.304L328.117,291.14L328.117,290.523C328.117,288.18 326.521,287.008 324.276,287.008C322.031,287.008 320.145,288.018 319.624,288.342L318.681,286.261C319.819,285.609 321.903,284.698 324.472,284.698C327.044,284.698 328.54,285.414 329.581,286.455C330.622,287.529 331.24,288.83 331.24,291.466L331.24,300.447Z" style="fill:rgb(254,253,235);fill-rule:nonzero;"/>
    </g>
    <g transform="matrix(5.17278,0,0,5.17278,-488.497,-1300.44)">
        <path d="M360.458,297.518C359.058,299.08 356.521,300.839 352.258,300.839C345.717,300.839 340.771,296.25 340.771,289.254C340.771,282.258 345.815,277.67 352.258,277.67C356.454,277.67 358.994,279.428 360.23,280.631L358.896,283.169C358.017,282.063 355.512,280.436 352.39,280.436C347.54,280.436 344.026,283.917 344.026,289.189C344.026,294.46 347.572,297.941 352.39,297.941C355.349,297.941 357.626,296.804 359.09,295.208L360.458,297.518Z" style="fill:rgb(254,253,235);fill-rule:nonzero;"/>
    </g>
    <g transform="matrix(5.17278,0,0,5.17278,-488.497,-1300.44)">
        <path d="M370.185,287.237C367.061,287.237 365.14,289.644 365.14,292.67C365.14,295.729 367.061,298.138 370.185,298.138C373.276,298.138 375.194,295.729 375.194,292.67C375.194,289.644 373.276,287.237 370.185,287.237ZM370.185,300.805C365.564,300.805 361.985,297.583 361.985,292.768C361.985,287.984 365.564,284.698 370.185,284.698C374.771,284.698 378.353,287.984 378.353,292.768C378.353,297.583 374.771,300.805 370.185,300.805Z" style="fill:rgb(254,253,235);fill-rule:nonzero;"/>
    </g>
    <g transform="matrix(5.17278,0,0,5.17278,-488.497,-1300.44)">
        <path d="M394.749,300.447L391.724,300.447L391.69,298.234C390.844,299.731 389.087,300.805 386.908,300.805C384.694,300.805 383.426,300.057 382.612,299.015C381.831,297.973 381.476,296.444 381.476,294.232L381.476,284.958L384.565,284.958L384.565,294.103C384.565,296.217 385.02,298.2 387.785,298.2C390.52,298.2 391.626,295.859 391.626,293.255L391.626,284.958L394.749,284.958L394.749,300.447Z" style="fill:rgb(254,253,235);fill-rule:nonzero;"/>
    </g>
    <g transform="matrix(5.17278,0,0,5.17278,-488.497,-1300.44)">
        <path d="M412.48,300.447L409.357,300.447L409.357,291.825C409.357,289.221 408.903,287.269 406.136,287.269C403.242,287.269 402.167,289.709 402.167,292.67L402.167,300.447L399.042,300.447L399.042,284.991L402.167,284.991L402.135,287.431L402.232,287.431C403.044,285.903 404.705,284.698 406.953,284.698C411.344,284.698 412.48,287.594 412.48,291.304L412.48,300.447Z" style="fill:rgb(254,253,235);fill-rule:nonzero;"/>
    </g>
    <g transform="matrix(5.17278,0,0,5.17278,-488.497,-1300.44)">
        <path d="M429.594,298.462C429.14,298.918 427.544,300.805 423.412,300.805C419.247,300.805 415.604,297.682 415.604,292.735C415.604,287.756 419.408,284.698 423.51,284.698C427.644,284.698 429.335,286.715 429.496,286.912L428.39,289.189C427.871,288.667 426.503,287.302 423.77,287.302C421.037,287.302 418.76,289.383 418.76,292.639C418.76,295.891 420.809,298.138 423.801,298.138C426.826,298.138 428.489,296.185 428.489,296.185L429.594,298.462Z" style="fill:rgb(254,253,235);fill-rule:nonzero;"/>
    </g>
    <g transform="matrix(5.17278,0,0,5.17278,-488.497,-1300.44)">
        <path d="M435.352,300.447L432.227,300.447L432.227,284.991L435.352,284.991L435.352,300.447ZM433.79,281.834C432.586,281.834 431.74,281.021 431.74,279.915C431.74,278.809 432.586,277.995 433.79,277.995C434.963,277.995 435.806,278.809 435.806,279.915C435.806,281.021 434.963,281.834 433.79,281.834Z" style="fill:rgb(254,253,235);fill-rule:nonzero;"/>
    </g>
    <g transform="matrix(5.17278,0,0,5.17278,-488.497,-1300.44)">
        <rect x="439.939" y="277.995" width="3.091" height="22.452" style="fill:rgb(254,253,235);"/>
    </g>
    <g transform="matrix(5.17278,0,0,5.17278,-488.497,-1300.44)">
        <path d="M236.367,316.907C236.367,316.907 235.49,316.616 234.61,316.616C232.562,316.616 232.235,318.144 232.235,319.9L232.235,321.625L235.912,321.625L235.912,324.132L232.235,324.132L232.235,337.05L229.145,337.05L229.145,324.132L226.931,324.132L226.931,321.625L229.145,321.625L229.145,320.064C229.145,318.048 229.535,316.746 230.185,315.933C230.869,315.087 232.105,314.239 233.895,314.239C235.685,314.239 236.563,314.601 236.563,314.601L236.367,316.907Z" style="fill:rgb(254,253,235);fill-rule:nonzero;"/>
    </g>
    <g transform="matrix(5.17278,0,0,5.17278,-488.497,-1300.44)">
        <path d="M244.567,323.839C241.444,323.839 239.521,326.246 239.521,329.273C239.521,332.332 241.444,334.741 244.567,334.741C247.658,334.741 249.578,332.332 249.578,329.273C249.578,326.246 247.658,323.839 244.567,323.839ZM244.567,337.409C239.944,337.409 236.367,334.187 236.367,329.371C236.367,324.587 239.944,321.301 244.567,321.301C249.153,321.301 252.735,324.587 252.735,329.371C252.735,334.187 249.153,337.409 244.567,337.409Z" style="fill:rgb(254,253,235);fill-rule:nonzero;"/>
    </g>
    <g transform="matrix(5.17278,0,0,5.17278,-488.497,-1300.44)">
        <path d="M264.413,324.457L264.285,324.457C263.99,324.327 263.438,324.132 262.59,324.132C261.226,324.132 260.377,325.01 260.053,325.433C259.76,325.857 259.109,327.06 259.109,329.339L259.109,337.05L255.985,337.05L255.985,321.594L259.109,321.594L259.075,323.969L259.176,323.969C259.922,322.214 261.321,321.301 262.982,321.301C264.023,321.301 264.608,321.563 264.608,321.563L264.413,324.457Z" style="fill:rgb(254,253,235);fill-rule:nonzero;"/>
    </g>
    <g transform="matrix(5.17278,0,0,5.17278,-488.497,-1300.44)">
        <path d="M280.876,336.887C280.876,336.887 279.671,337.409 278.044,337.409C276.417,337.409 275.41,336.789 274.758,335.812C274.108,334.837 273.979,333.634 273.979,331.191L273.979,324.132L271.701,324.132L271.701,321.625L273.979,321.625L273.979,317.005L277.103,317.005L277.103,321.625L280.812,321.625L280.812,324.132L277.103,324.132L277.103,331.128C277.103,332.428 277.135,333.309 277.492,333.959C277.785,334.445 278.208,334.741 279.087,334.741C279.999,334.741 280.681,334.382 280.681,334.382L280.876,336.887Z" style="fill:rgb(254,253,235);fill-rule:nonzero;"/>
    </g>
    <g transform="matrix(5.17278,0,0,5.17278,-488.497,-1300.44)">
        <path d="M297.08,337.05L293.958,337.05L293.958,328.296C293.958,326.086 293.599,323.871 290.767,323.871C287.935,323.871 286.733,326.313 286.733,329.402L286.733,337.05L283.64,337.05L283.64,314.601L286.733,314.601L286.733,324.034L286.799,324.034C287.612,322.505 289.303,321.301 291.549,321.301C296.005,321.301 297.08,324.164 297.08,327.841L297.08,337.05Z" style="fill:rgb(254,253,235);fill-rule:nonzero;"/>
    </g>
    <g transform="matrix(5.17278,0,0,5.17278,-488.497,-1300.44)">
        <path d="M312.467,327.971C312.435,326.246 311.135,323.546 308.01,323.546C304.919,323.546 303.553,326.116 303.456,327.971L312.467,327.971ZM315.331,330.055L303.422,330.055C303.585,333.111 305.54,334.968 308.401,334.968C311.298,334.968 313.153,333.404 313.51,333.178L314.812,334.968C314.617,335.13 312.63,337.409 308.01,337.409C303.422,337.409 300.267,334.219 300.267,329.305C300.267,324.423 303.813,321.301 308.108,321.301C312.403,321.301 315.43,324.359 315.43,328.687C315.43,329.273 315.331,330.055 315.331,330.055Z" style="fill:rgb(254,253,235);fill-rule:nonzero;"/>
    </g>
    <g transform="matrix(5.17278,0,0,5.17278,-488.497,-1300.44)">
        <path d="M337.26,328.559L333.324,318.469L329.385,328.559L337.26,328.559ZM343.962,337.05L340.449,337.05L338.14,331.191L328.508,331.191L326.199,337.05L322.878,337.05L332.021,314.532L334.787,314.532L343.962,337.05Z" style="fill:rgb(254,253,235);fill-rule:nonzero;"/>
    </g>
    <g transform="matrix(5.17278,0,0,5.17278,-488.497,-1300.44)">
        <path d="M354.567,324.457L354.439,324.457C354.145,324.327 353.592,324.132 352.747,324.132C351.38,324.132 350.533,325.01 350.208,325.433C349.915,325.857 349.265,327.06 349.265,329.339L349.265,337.05L346.14,337.05L346.14,321.594L349.265,321.594L349.231,323.969L349.331,323.969C350.078,322.214 351.476,321.301 353.137,321.301C354.178,321.301 354.765,321.563 354.765,321.563L354.567,324.457Z" style="fill:rgb(254,253,235);fill-rule:nonzero;"/>
    </g>
    <g transform="matrix(5.17278,0,0,5.17278,-488.497,-1300.44)">
        <path d="M364.558,336.887C364.558,336.887 363.353,337.409 361.726,337.409C360.099,337.409 359.09,336.789 358.439,335.812C357.79,334.837 357.658,333.634 357.658,331.191L357.658,324.132L355.381,324.132L355.381,321.625L357.658,321.625L357.658,317.005L360.783,317.005L360.783,321.625L364.492,321.625L364.492,324.132L360.783,324.132L360.783,331.128C360.783,332.428 360.814,333.309 361.172,333.959C361.467,334.445 361.89,334.741 362.767,334.741C363.678,334.741 364.362,334.382 364.362,334.382L364.558,336.887Z" style="fill:rgb(254,253,235);fill-rule:nonzero;"/>
    </g>
    <g transform="matrix(5.17278,0,0,5.17278,-488.497,-1300.44)">
        <path d="M375.976,336.041C374.903,336.918 373.472,337.409 371.683,337.409C369.078,337.409 366.962,336.334 365.663,334.642L367.158,332.82C368.331,334.25 370.283,335.032 371.715,335.032C373.146,335.032 374.676,334.514 374.676,332.82C374.676,331.128 372.235,330.607 371.194,330.25C370.153,329.891 369.794,329.825 369.078,329.437C368.104,328.946 366.64,327.937 366.64,325.728C366.64,322.861 369.112,321.301 371.844,321.301C374.578,321.301 376.14,322.277 377.117,323.318L375.814,325.236C374.903,324.296 373.406,323.578 371.91,323.578C370.413,323.578 369.438,324.228 369.438,325.5C369.438,326.769 370.933,327.322 372.462,327.81C373.308,328.103 373.894,328.296 374.544,328.559C375.163,328.818 375.88,329.209 376.335,329.664C376.921,330.216 377.571,331.128 377.571,332.527C377.571,334.023 376.985,335.195 375.976,336.041Z" style="fill:rgb(254,253,235);fill-rule:nonzero;"/>
    </g>
    <g transform="matrix(5.17278,0,0,5.17278,-488.497,-1300.44)">
        <path d="M201.964,337.913C196.921,333.034 182.442,328.799 167.562,327.907C166.497,328.725 165.749,329.564 165.332,330.459C177.867,331.032 189.918,334.605 194.371,338.594C198.407,341.786 197.794,346.173 193.118,349.194C186.291,353.964 172.19,356.162 156.889,356.108C141.582,356.162 127.479,353.964 120.649,349.194C115.976,346.173 115.365,341.786 119.399,338.594C123.852,334.605 135.899,331.032 148.44,330.459C148.023,329.564 147.265,328.725 146.2,327.907C131.338,328.799 116.851,333.034 111.806,337.913C104.974,344.065 110.418,351.129 125.342,355.488C133.681,358.022 145.335,359.38 156.889,359.406C168.435,359.38 180.097,358.022 188.422,355.488C203.344,351.129 208.794,344.065 201.964,337.913Z" style="fill:rgb(254,253,235);fill-rule:nonzero;"/>
    </g>
    <g transform="matrix(5.17278,0,0,5.17278,-488.497,-1300.44)">
        <path d="M181.561,293.176C176.811,292.834 174.214,290.688 170.876,288.174C175.01,285.09 177.684,282.825 181.453,283.043C187.028,283.367 188.563,286.305 188.474,288.44C188.364,290.592 185.405,293.444 181.561,293.176ZM177.775,305.73C174.716,305.581 173.239,304.344 169.309,301.41C170.229,300.632 171.103,300.076 172.21,299.57C180.113,296.014 183.901,300.02 184.005,301.749C184.153,303.94 181.784,305.924 177.775,305.73ZM165.025,298.123C163.823,297.232 162.644,296.348 161.36,295.361C162.843,294.218 164.544,292.944 166.307,291.612C166.369,291.648 166.385,291.648 166.437,291.708C167.733,292.767 168.961,293.7 170.2,294.539C168.096,295.512 166.479,296.732 165.025,298.123ZM157.013,313.148L156.903,313.637L156.789,313.148C155.834,309.043 154.556,305.443 152.833,302.774C154.267,301.696 155.563,300.697 156.903,299.7C158.247,300.697 159.541,301.696 160.977,302.774C159.254,305.443 157.966,309.043 157.013,313.148ZM148.781,298.123C147.325,296.732 145.714,295.512 143.596,294.539C144.849,293.7 146.077,292.767 147.369,291.708C147.421,291.648 147.437,291.648 147.493,291.612C149.253,292.944 150.962,294.218 152.446,295.361C151.17,296.348 149.978,297.232 148.781,298.123ZM136.034,305.73C132.018,305.924 129.655,303.94 129.789,301.749C129.901,300.02 133.701,296.014 141.598,299.57C142.705,300.076 143.57,300.632 144.494,301.41C140.577,304.344 139.082,305.581 136.034,305.73ZM125.334,288.44C125.248,286.305 126.773,283.367 132.357,283.043C136.122,282.825 138.794,285.09 142.928,288.174C139.588,290.688 136.998,292.834 132.246,293.176C128.397,293.444 125.439,290.592 125.334,288.44ZM136.904,271.042C139.482,271.155 141.762,273.002 143.616,274.453C140.856,276.667 139.161,277.814 136.88,278.053C134.581,278.308 132.096,276.816 131.701,274.84C131.372,273.233 132.939,270.823 136.904,271.042ZM148.135,277.887C149.65,279.019 151.038,280.11 152.346,281.078C150.406,282.565 148.761,283.788 147.395,284.819C146.558,284.205 145.67,283.557 145.114,283.127C144.346,282.534 143.823,282.11 143.164,281.62C143.704,281.274 144.13,280.898 144.649,280.504C145.624,279.79 146.851,278.842 148.135,277.887ZM156.695,284.669L156.903,284.513L157.112,284.669C158.624,285.851 160.191,286.959 161.88,288.28C160.873,289.009 160.065,289.625 159.358,290.172C158.636,290.688 157.85,291.3 157.026,291.914L156.903,292.01L156.781,291.914C155.966,291.3 155.166,290.688 154.46,290.172C153.738,289.625 152.929,289.009 151.932,288.28C153.61,286.959 155.19,285.851 156.695,284.669ZM151.242,260.537C151.242,260.537 152.681,258.985 156.885,258.954C161.089,258.985 162.528,260.537 162.528,260.537C162.528,260.537 161.441,261.13 159.884,262.215C157.93,263.568 156.937,264.366 156.885,264.423C156.833,264.366 155.844,263.568 153.886,262.215C152.326,261.13 151.242,260.537 151.242,260.537ZM161.064,274.386C159.759,275.354 158.594,276.313 156.949,277.54L156.903,277.563L156.861,277.54C155.214,276.313 154.045,275.354 152.741,274.386C153.786,273.573 155.039,272.622 156.765,271.313L156.903,271.208L157.041,271.313C158.775,272.622 160.016,273.573 161.064,274.386ZM165.663,277.887C166.967,278.842 168.184,279.79 169.151,280.504C169.669,280.898 170.11,281.274 170.648,281.62C169.982,282.11 169.464,282.534 168.694,283.127C168.14,283.557 167.252,284.205 166.417,284.819C165.049,283.788 163.4,282.565 161.467,281.078C162.771,280.11 164.144,279.019 165.663,277.887ZM176.906,271.042C180.86,270.823 182.434,273.233 182.103,274.84C181.718,276.816 179.219,278.308 176.92,278.053C174.648,277.814 172.948,276.667 170.178,274.453C172.044,273.002 174.326,271.155 176.906,271.042ZM194,287.322C193.725,283.217 190.41,280.022 186.436,278.564C188.065,276.278 188.296,273.765 187.136,270.956C185.277,266.522 180.117,265.111 177.065,265.322C172.718,265.63 170.138,267.433 165.56,270.946C164.5,270.124 162.345,268.522 161.399,267.793L161.397,267.793C161.397,267.793 164.519,265.229 167.803,263.488C170.943,261.819 173.027,261.616 173.027,261.616C173.027,261.616 167.543,254.114 156.907,254.045L156.863,254.045C146.229,254.114 140.743,261.616 140.743,261.616C140.743,261.616 142.83,261.819 145.969,263.488C149.253,265.229 152.374,267.793 152.374,267.793C151.425,268.522 149.271,270.124 148.21,270.946C143.632,267.433 141.052,265.63 136.707,265.322C133.653,265.111 128.493,266.522 126.63,270.956C125.474,273.765 125.705,276.278 127.332,278.564C123.366,280.022 120.045,283.217 119.77,287.322C119.489,291.424 121.904,295.227 126.169,297.071C124.979,298.608 124.4,300.351 124.4,301.846C124.4,305.82 127.958,311.266 135.58,311.047C141.253,310.896 143.522,309.132 147.973,305.682C148.23,306.075 151.714,311.555 151.714,321.109C151.714,321.109 152.191,328.378 148.575,346.189L148.585,346.189C148.585,347.141 152.303,347.906 156.889,347.906C161.467,347.906 165.185,347.141 165.185,346.189L165.201,346.189C161.575,328.378 162.058,321.109 162.058,321.109C162.058,311.555 165.545,306.075 165.799,305.682C170.251,309.132 172.513,310.896 178.187,311.047C185.818,311.266 189.375,305.82 189.375,301.846C189.375,300.351 188.791,298.608 187.603,297.071C191.87,295.227 194.287,291.424 194,287.322Z" style="fill:rgb(254,253,235);fill-rule:nonzero;"/>
    </g>
</svg>
