<?xml version="1.0" encoding="UTF-8" standalone="no"?>
<!DOCTYPE svg PUBLIC "-//W3C//DTD SVG 1.1//EN" "http://www.w3.org/Graphics/SVG/1.1/DTD/svg11.dtd">
<svg width="100%" height="100%" viewBox="0 0 1500 525" version="1.1" xmlns="http://www.w3.org/2000/svg" xmlns:xlink="http://www.w3.org/1999/xlink" xml:space="preserve" xmlns:serif="http://www.serif.com/" style="fill-rule:evenodd;clip-rule:evenodd;stroke-miterlimit:2;">
    <g transform="matrix(4.16667,0,0,4.16667,0,0)">
        <path d="M186.502,47.595C185.74,47.982 184.622,48.179 183.617,48.179C180.71,48.179 179.598,46.352 179.598,44.242C179.598,42.565 180.29,41.067 181.387,40.125C182.38,39.252 183.733,38.761 185.072,38.761C186.318,38.761 187.289,39.029 187.78,39.339L188.267,38.181C187.924,37.904 186.859,37.513 185.325,37.513C183.415,37.513 181.837,38.102 180.574,39.108C178.977,40.334 178.025,42.255 178.025,44.391C178.025,47.682 180.188,49.426 183.258,49.426C184.77,49.426 185.982,49.11 186.731,48.779L186.502,47.595ZM191.901,49.426C194.741,49.426 196.812,47.146 196.812,44.442C196.812,42.481 195.557,40.763 193.142,40.763C190.383,40.763 188.253,42.946 188.253,45.84C188.253,47.829 189.634,49.426 191.884,49.426L191.901,49.426ZM192.048,48.268C190.741,48.268 189.769,47.282 189.769,45.806C189.769,43.822 191.065,41.921 192.988,41.921C194.717,41.921 195.262,43.465 195.262,44.465C195.262,46.559 193.785,48.268 192.065,48.268L192.048,48.268ZM199.465,49.221L200.168,45.404C200.569,43.201 202.172,41.981 203.266,41.981C204.397,41.981 204.753,42.685 204.753,43.62C204.753,43.946 204.695,44.347 204.644,44.649L203.777,49.221L205.252,49.221L206.138,44.589C206.213,44.162 206.281,43.594 206.281,43.265C206.281,41.251 204.937,40.763 203.972,40.763C202.636,40.763 201.399,41.483 200.63,42.696L200.596,42.696L200.833,40.968L199.497,40.968C199.402,41.659 199.289,42.405 199.122,43.23L197.99,49.221L199.465,49.221ZM207.565,48.82C207.989,49.138 208.824,49.416 209.79,49.426C211.6,49.436 213.097,48.409 213.097,46.688C213.097,45.728 212.437,45.012 211.429,44.514C210.576,44.085 210.17,43.722 210.17,43.123C210.17,42.428 210.821,41.897 211.689,41.897C212.396,41.897 212.972,42.143 213.267,42.314L213.685,41.205C213.358,40.985 212.637,40.763 211.823,40.763C210.02,40.763 208.691,41.872 208.691,43.328C208.691,44.198 209.238,44.923 210.322,45.464C211.305,45.957 211.571,46.346 211.571,46.958C211.571,47.674 210.914,48.292 209.923,48.292C209.218,48.292 208.416,47.991 207.984,47.735L207.565,48.82ZM220.983,47.64C220.436,47.931 219.603,48.245 218.508,48.245C217.593,48.245 216.863,47.882 216.481,47.121C216.279,46.699 216.196,45.981 216.276,45.583C219.591,45.662 222.259,45.185 222.259,42.962C222.259,41.705 221.286,40.763 219.594,40.763C216.837,40.763 214.793,43.404 214.793,45.97C214.793,47.877 215.865,49.426 218.21,49.426C219.449,49.426 220.569,49.085 221.201,48.728L220.983,47.64ZM220.819,42.979C220.819,44.249 218.962,44.496 216.435,44.461C216.742,43.335 217.838,41.882 219.391,41.882C220.213,41.882 220.819,42.269 220.819,42.961L220.819,42.979ZM224.628,49.221L226.203,40.968L224.728,40.968L223.153,49.221L224.628,49.221ZM225.857,39.41C226.453,39.41 226.877,38.98 226.889,38.394C226.877,37.837 226.488,37.444 225.956,37.444C225.41,37.444 224.952,37.875 224.952,38.466C224.952,39 225.33,39.41 225.84,39.41L225.857,39.41ZM228.813,49.221L231.152,37.001L229.677,37.001L227.339,49.221L228.813,49.221ZM242.737,37.001L241.986,41.041C241.576,40.868 240.911,40.763 240.333,40.763C237.238,40.763 234.822,43.27 234.822,46.245C234.822,48.008 235.782,49.426 237.553,49.426C238.866,49.426 239.995,48.754 240.863,47.474L240.897,47.474L240.638,49.221L242.014,49.221C242.067,48.417 242.196,47.537 242.352,46.697L244.207,37.001L242.737,37.001ZM241.24,44.889C240.875,46.825 239.381,48.232 238.132,48.232C236.737,48.232 236.36,47.074 236.36,46.067C236.36,43.706 238.101,41.933 240.215,41.933C240.889,41.933 241.431,42.094 241.762,42.276L241.24,44.889ZM250.783,47.64C250.237,47.931 249.404,48.245 248.309,48.245C247.394,48.245 246.664,47.882 246.281,47.121C246.08,46.699 245.996,45.981 246.077,45.583C249.392,45.662 252.06,45.185 252.06,42.962C252.06,41.705 251.086,40.763 249.395,40.763C246.638,40.763 244.594,43.404 244.594,45.97C244.594,47.877 245.666,49.426 248.011,49.426C249.25,49.426 250.37,49.085 251.002,48.728L250.783,47.64ZM250.62,42.979C250.62,44.249 248.762,44.496 246.235,44.461C246.542,43.335 247.639,41.882 249.192,41.882C250.014,41.882 250.62,42.269 250.62,42.961L250.62,42.979ZM252.616,48.82C253.039,49.138 253.874,49.416 254.841,49.426C256.651,49.436 258.148,48.409 258.148,46.688C258.148,45.728 257.488,45.012 256.48,44.514C255.626,44.085 255.22,43.722 255.22,43.123C255.22,42.428 255.872,41.897 256.739,41.897C257.446,41.897 258.022,42.143 258.318,42.314L258.736,41.205C258.407,40.985 257.687,40.763 256.872,40.763C255.071,40.763 253.742,41.872 253.742,43.328C253.742,44.198 254.289,44.923 255.373,45.464C256.355,45.957 256.622,46.346 256.622,46.958C256.622,47.674 255.965,48.292 254.974,48.292C254.269,48.292 253.466,47.991 253.034,47.735L252.616,48.82ZM270.554,49.221C270.508,48.311 270.612,46.796 270.902,45.253L271.686,41.091C271.049,40.906 270.095,40.763 269.231,40.763C265.507,40.763 263.132,43.567 263.132,46.565C263.132,48.153 264.151,49.426 265.781,49.426C267.131,49.426 268.407,48.722 269.335,46.901L269.37,46.901C269.245,47.826 269.151,48.714 269.165,49.221L270.554,49.221ZM269.603,44.345C269.168,46.722 267.604,48.232 266.301,48.232C265.042,48.232 264.675,47.23 264.675,46.346C264.675,43.887 266.656,41.933 268.89,41.933C269.467,41.933 269.81,41.998 270.021,42.068L269.603,44.345ZM274.318,49.221L274.956,45.81C275.354,43.666 276.505,42.195 277.774,42.195C277.965,42.195 278.108,42.207 278.228,42.23L278.515,40.799C278.392,40.775 278.197,40.763 278.051,40.763C276.851,40.763 275.915,41.674 275.366,42.843L275.315,42.843C275.414,42.21 275.495,41.589 275.577,40.968L274.273,40.968C274.169,41.783 274.036,42.915 273.835,43.983L272.838,49.221L274.318,49.221ZM281.189,39.399L280.894,40.968L279.65,40.968L279.421,42.129L280.665,42.129L279.892,46.111C279.774,46.689 279.704,47.199 279.704,47.731C279.704,48.585 280.189,49.426 281.56,49.426C282.019,49.426 282.486,49.365 282.726,49.264L282.785,48.098C282.587,48.151 282.331,48.175 282.061,48.175C281.469,48.175 281.211,47.839 281.211,47.317C281.211,46.817 281.297,46.377 281.389,45.908L282.109,42.129L284.219,42.129L284.453,40.968L282.343,40.968L282.715,38.974L281.189,39.399ZM284.405,48.82C284.829,49.138 285.664,49.416 286.63,49.426C288.44,49.436 289.937,48.409 289.937,46.688C289.937,45.728 289.277,45.012 288.269,44.514C287.416,44.085 287.01,43.722 287.01,43.123C287.01,42.428 287.661,41.897 288.53,41.897C289.236,41.897 289.812,42.143 290.107,42.314L290.526,41.205C290.198,40.985 289.477,40.763 288.663,40.763C286.86,40.763 285.531,41.872 285.531,43.328C285.531,44.198 286.078,44.923 287.162,45.464C288.145,45.957 288.411,46.346 288.411,46.958C288.411,47.674 287.754,48.292 286.763,48.292C286.058,48.292 285.256,47.991 284.824,47.735L284.405,48.82Z" style="fill:rgb(254,253,235);fill-rule:nonzero;"/>
        <path d="M184.231,65.003C183.684,65.295 182.851,65.609 181.756,65.609C180.841,65.609 180.111,65.246 179.729,64.485C179.528,64.062 179.444,63.344 179.524,62.947C182.839,63.025 185.507,62.548 185.507,60.325C185.507,59.068 184.534,58.126 182.842,58.126C180.086,58.126 178.041,60.768 178.041,63.333C178.041,65.24 179.113,66.789 181.459,66.789C182.697,66.789 183.817,66.448 184.449,66.091L184.231,65.003ZM184.067,60.342C184.067,61.612 182.21,61.86 179.683,61.824C179.99,60.698 181.087,59.245 182.639,59.245C183.461,59.245 184.067,59.632 184.067,60.325L184.067,60.342ZM188.613,56.762L188.318,58.331L187.074,58.331L186.845,59.493L188.089,59.493L187.316,63.475C187.198,64.052 187.128,64.562 187.128,65.094C187.128,65.948 187.613,66.789 188.984,66.789C189.443,66.789 189.91,66.728 190.15,66.627L190.209,65.462C190.011,65.515 189.755,65.538 189.485,65.538C188.893,65.538 188.635,65.202 188.635,64.68C188.635,64.18 188.721,63.74 188.813,63.271L189.533,59.493L191.644,59.493L191.878,58.331L189.767,58.331L190.139,56.337L188.613,56.762ZM203.385,54.365L202.634,58.404C202.224,58.232 201.559,58.126 200.981,58.126C197.886,58.126 195.47,60.633 195.47,63.608C195.47,65.372 196.43,66.789 198.201,66.789C199.514,66.789 200.642,66.117 201.511,64.837L201.545,64.837L201.286,66.585L202.662,66.585C202.714,65.78 202.844,64.901 203,64.061L204.854,54.365L203.385,54.365ZM201.888,62.253C201.523,64.188 200.029,65.595 198.78,65.595C197.385,65.595 197.008,64.437 197.008,63.43C197.008,61.069 198.749,59.296 200.863,59.296C201.537,59.296 202.079,59.457 202.41,59.639L201.888,62.253ZM211.431,65.003C210.885,65.295 210.052,65.609 208.956,65.609C208.042,65.609 207.312,65.246 206.929,64.485C206.728,64.062 206.644,63.344 206.724,62.947C210.039,63.025 212.708,62.548 212.708,60.325C212.708,59.068 211.734,58.126 210.043,58.126C207.286,58.126 205.241,60.768 205.241,63.333C205.241,65.24 206.314,66.789 208.659,66.789C209.897,66.789 211.018,66.448 211.65,66.091L211.431,65.003ZM211.267,60.342C211.267,61.612 209.41,61.86 206.883,61.824C207.19,60.698 208.287,59.245 209.84,59.245C210.662,59.245 211.267,59.632 211.267,60.325L211.267,60.342ZM213.264,66.183C213.687,66.501 214.522,66.779 215.489,66.789C217.299,66.8 218.796,65.772 218.796,64.052C218.796,63.092 218.136,62.375 217.128,61.877C216.274,61.449 215.868,61.085 215.868,60.487C215.868,59.791 216.52,59.261 217.388,59.261C218.095,59.261 218.67,59.506 218.966,59.677L219.384,58.568C219.056,58.348 218.336,58.126 217.521,58.126C215.718,58.126 214.39,59.235 214.39,60.692C214.39,61.561 214.937,62.286 216.021,62.827C217.003,63.32 217.27,63.709 217.27,64.321C217.27,65.038 216.613,65.655 215.622,65.655C214.917,65.655 214.114,65.354 213.682,65.098L213.264,66.183ZM225.251,66.585L227.589,54.365L226.115,54.365L223.776,66.585L225.251,66.585ZM234.161,65.003C233.614,65.295 232.781,65.609 231.686,65.609C230.771,65.609 230.041,65.246 229.659,64.485C229.458,64.062 229.374,63.344 229.454,62.947C232.769,63.025 235.437,62.548 235.437,60.325C235.437,59.068 234.464,58.126 232.772,58.126C230.016,58.126 227.971,60.768 227.971,63.333C227.971,65.24 229.043,66.789 231.389,66.789C232.627,66.789 233.747,66.448 234.379,66.091L234.161,65.003ZM233.997,60.342C233.997,61.612 232.14,61.86 229.613,61.824C229.92,60.698 231.017,59.245 232.569,59.245C233.391,59.245 233.997,59.632 233.997,60.325L233.997,60.342ZM238.543,56.762L238.248,58.331L237.004,58.331L236.775,59.493L238.019,59.493L237.246,63.475C237.128,64.052 237.058,64.562 237.058,65.094C237.058,65.948 237.543,66.789 238.914,66.789C239.373,66.789 239.84,66.728 240.08,66.627L240.139,65.462C239.941,65.515 239.685,65.538 239.415,65.538C238.823,65.538 238.566,65.202 238.566,64.68C238.566,64.18 238.651,63.74 238.743,63.271L239.463,59.493L241.574,59.493L241.808,58.331L239.697,58.331L240.069,56.337L238.543,56.762ZM244.309,56.762L244.014,58.331L242.77,58.331L242.541,59.493L243.785,59.493L243.012,63.475C242.894,64.052 242.824,64.562 242.824,65.094C242.824,65.948 243.309,66.789 244.68,66.789C245.139,66.789 245.606,66.728 245.846,66.627L245.905,65.462C245.707,65.515 245.451,65.538 245.181,65.538C244.589,65.538 244.331,65.202 244.331,64.68C244.331,64.18 244.417,63.74 244.509,63.271L245.229,59.493L247.34,59.493L247.574,58.331L245.463,58.331L245.835,56.337L244.309,56.762ZM249.338,66.585L249.976,63.174C250.373,61.029 251.525,59.558 252.794,59.558C252.985,59.558 253.128,59.57 253.248,59.594L253.535,58.162C253.412,58.138 253.217,58.126 253.07,58.126C251.87,58.126 250.935,59.037 250.385,60.206L250.334,60.206C250.433,59.573 250.515,58.952 250.597,58.331L249.293,58.331C249.189,59.146 249.056,60.279 248.855,61.346L247.858,66.585L249.338,66.585ZM259.801,65.003C259.254,65.295 258.42,65.609 257.325,65.609C256.411,65.609 255.681,65.246 255.299,64.485C255.097,64.062 255.014,63.344 255.094,62.947C258.409,63.025 261.077,62.548 261.077,60.325C261.077,59.068 260.104,58.126 258.411,58.126C255.655,58.126 253.611,60.768 253.611,63.333C253.611,65.24 254.683,66.789 257.028,66.789C258.267,66.789 259.387,66.448 260.019,66.091L259.801,65.003ZM259.637,60.342C259.637,61.612 257.78,61.86 255.253,61.824C255.56,60.698 256.656,59.245 258.209,59.245C259.031,59.245 259.637,59.632 259.637,60.325L259.637,60.342ZM261.633,66.183C262.057,66.501 262.892,66.779 263.858,66.789C265.668,66.8 267.165,65.772 267.165,64.052C267.165,63.092 266.505,62.375 265.497,61.877C264.644,61.449 264.238,61.085 264.238,60.487C264.238,59.791 264.889,59.261 265.758,59.261C266.464,59.261 267.04,59.506 267.335,59.677L267.754,58.568C267.426,58.348 266.705,58.126 265.891,58.126C264.088,58.126 262.759,59.235 262.759,60.692C262.759,61.561 263.306,62.286 264.39,62.827C265.373,63.32 265.639,63.709 265.639,64.321C265.639,65.038 264.982,65.655 263.991,65.655C263.286,65.655 262.484,65.354 262.052,65.098L261.633,66.183ZM280.065,54.365L279.314,58.404C278.904,58.232 278.239,58.126 277.661,58.126C274.566,58.126 272.15,60.633 272.15,63.608C272.15,65.372 273.109,66.789 274.88,66.789C276.194,66.789 277.322,66.117 278.191,64.837L278.225,64.837L277.966,66.585L279.341,66.585C279.394,65.78 279.524,64.901 279.679,64.061L281.534,54.365L280.065,54.365ZM278.568,62.253C278.203,64.188 276.708,65.595 275.46,65.595C274.065,65.595 273.687,64.437 273.687,63.43C273.687,61.069 275.429,59.296 277.543,59.296C278.216,59.296 278.759,59.457 279.09,59.639L278.568,62.253ZM289.031,58.331L288.256,62.387C287.891,64.317 286.424,65.549 285.32,65.549C284.194,65.549 283.797,64.889 283.797,63.918C283.797,63.591 283.848,63.193 283.935,62.736L284.778,58.331L283.303,58.331L282.452,62.75C282.337,63.332 282.286,63.791 282.286,64.168C282.286,66.372 283.641,66.789 284.728,66.789C285.919,66.789 287.109,66.032 287.877,64.938L287.911,64.938L287.662,66.585L288.998,66.585C289.082,65.893 289.207,65.147 289.362,64.322L290.505,58.331L289.031,58.331ZM305.632,66.985C304.555,66.862 303.339,66.647 302.213,66.468L302.213,66.41C303.138,66.176 304.216,65.528 304.939,64.757C306.088,63.56 306.789,61.84 306.789,59.915C306.789,57.136 305.186,54.877 301.798,54.877C300.069,54.877 298.398,55.607 297.296,56.701C295.973,58.034 295.227,59.867 295.227,61.741C295.227,65.033 297.389,66.629 299.67,66.769C299.77,66.774 299.963,66.813 300.607,67.025C301.282,67.295 303.422,67.87 305.14,68.222L305.632,66.985ZM300.343,65.574C297.793,65.574 296.786,63.741 296.786,61.645C296.786,58.813 298.811,56.104 301.612,56.104C304.551,56.104 305.236,58.299 305.236,59.973C305.236,62.889 303.322,65.574 300.36,65.574L300.343,65.574ZM314.776,58.331L314.001,62.387C313.636,64.317 312.169,65.549 311.065,65.549C309.94,65.549 309.542,64.889 309.542,63.918C309.542,63.591 309.594,63.193 309.681,62.736L310.524,58.331L309.049,58.331L308.197,62.75C308.083,63.332 308.032,63.791 308.032,64.168C308.032,66.372 309.386,66.789 310.474,66.789C311.665,66.789 312.854,66.032 313.623,64.938L313.657,64.938L313.408,66.585L314.744,66.585C314.827,65.893 314.952,65.147 315.107,64.322L316.251,58.331L314.776,58.331ZM323.116,54.801L321.355,57.293L322.541,57.293L324.927,54.801L323.116,54.801ZM323.602,65.003C323.056,65.295 322.223,65.609 321.128,65.609C320.213,65.609 319.483,65.246 319.1,64.485C318.899,64.062 318.815,63.344 318.896,62.947C322.211,63.025 324.879,62.548 324.879,60.325C324.879,59.068 323.905,58.126 322.214,58.126C319.457,58.126 317.413,60.768 317.413,63.333C317.413,65.24 318.485,66.789 320.83,66.789C322.069,66.789 323.189,66.448 323.821,66.091L323.602,65.003ZM323.439,60.342C323.439,61.612 321.581,61.86 319.054,61.824C319.361,60.698 320.458,59.245 322.011,59.245C322.833,59.245 323.439,59.632 323.439,60.325L323.439,60.342ZM327.992,54.365L326.241,63.051C326.152,63.504 326.078,64.026 326.078,64.451C326.073,66.197 327.36,66.789 328.924,66.789C332.398,66.789 334.396,63.854 334.396,61.288C334.396,59.679 333.587,58.126 331.603,58.126C330.347,58.126 329.128,58.788 328.352,59.985L328.318,59.973L329.471,54.365L327.992,54.365ZM327.767,62.831C328.231,60.706 329.665,59.332 331.052,59.332C332.335,59.332 332.858,60.383 332.858,61.432C332.858,63.382 331.427,65.631 329.133,65.631C328.135,65.631 327.598,65.167 327.587,64.28C327.577,63.807 327.633,63.452 327.697,63.161L327.767,62.831ZM341.795,65.003C341.249,65.295 340.416,65.609 339.32,65.609C338.406,65.609 337.675,65.246 337.293,64.485C337.092,64.062 337.008,63.344 337.088,62.947C340.403,63.025 343.071,62.548 343.071,60.325C343.071,59.068 342.098,58.126 340.407,58.126C337.65,58.126 335.605,60.768 335.605,63.333C335.605,65.24 336.677,66.789 339.023,66.789C340.261,66.789 341.381,66.448 342.013,66.091L341.795,65.003ZM341.631,60.342C341.631,61.612 339.774,61.86 337.247,61.824C337.554,60.698 338.651,59.245 340.203,59.245C341.026,59.245 341.631,59.632 341.631,60.325L341.631,60.342ZM350.045,65.044C349.591,65.273 348.846,65.588 347.838,65.588C346.354,65.588 345.536,64.708 345.536,63.321C345.536,61.349 347.005,59.348 349.288,59.348C350.032,59.348 350.571,59.535 350.956,59.726L351.387,58.578C351.107,58.407 350.279,58.126 349.371,58.126C346.314,58.126 343.993,60.563 343.993,63.515C343.993,65.32 345.195,66.789 347.475,66.789C348.78,66.789 349.762,66.426 350.223,66.192L350.045,65.044Z" style="fill:rgb(254,253,235);fill-rule:nonzero;"/>
        <path d="M178.025,71.808L351.461,71.808" style="fill:none;stroke:rgb(254,253,235);stroke-width:0.41px;"/>
        <path d="M5.917,27.375L36.414,9.755L116.483,9.814L148.543,65.721L58.178,117.893L5.917,27.375ZM71.614,59.163L73.843,66.608L80.906,66.608L71.88,37.613L63.3,37.613L54.452,66.608L61.23,66.608L63.277,59.163L71.614,59.163ZM64.227,54.279L65.961,48.124C66.426,46.44 66.863,44.239 67.289,42.534L67.379,42.534C67.824,44.23 68.339,46.403 68.836,48.117L70.642,54.279L64.227,54.279ZM85.208,66.608L103.3,66.608L103.3,61.113L91.763,61.113L91.763,37.613L85.208,37.613L85.208,66.608ZM131.733,66.522C129.463,66.06 126.964,65.533 124.746,64.88L124.746,64.702C128.565,63 131.604,58.352 131.604,51.769C131.604,43.851 126.757,37.14 117.91,37.14C109.227,37.14 103.728,43.66 103.728,52.365C103.728,61.831 109.843,66.665 116.399,67.081C117.07,67.132 117.759,67.264 118.402,67.532C122.3,69.126 125.737,70.402 129.869,71.589L131.733,66.522ZM117.663,61.868C113.282,61.868 110.64,57.68 110.657,52.163C110.649,46.715 113.236,42.353 117.718,42.353C122.194,42.353 124.674,46.739 124.674,52.042C124.674,57.715 122.117,61.868 117.706,61.868L117.663,61.868ZM50.654,60.667C49.354,61.209 47.183,61.604 45.173,61.604C39.336,61.604 35.909,57.953 35.909,52.139C35.909,45.695 39.963,42.542 45.136,42.542C47.478,42.542 49.339,43.061 50.643,43.631L51.98,38.447C50.841,37.826 48.252,37.161 44.843,37.161C36.089,37.161 29.005,42.633 29.005,52.52C29.005,60.785 34.18,67.059 44.22,67.059C47.712,67.059 50.458,66.39 51.632,65.809L50.654,60.667Z" style="fill:rgb(254,253,235);"/>
        <g>
            <path d="M202.022,95.272L202.022,87.85L201.966,87.85C201.702,88.092 200.727,88.112 200.313,88.112L199.596,88.112L199.596,88.172C200.425,88.681 200.312,89.433 200.312,90.368L200.312,93.51C200.312,95.079 198.77,96.181 197.527,96.181C195.889,96.181 195.209,95.018 195.209,93.142L195.209,87.85L195.152,87.85C194.889,88.092 193.907,88.112 193.494,88.112L192.782,88.112L192.782,88.173C193.611,88.681 193.498,89.434 193.498,90.368L193.498,93.498C193.498,96.364 194.741,97.726 196.962,97.726C198.28,97.726 199.634,97.258 200.312,96.14L200.312,97.495L202.738,97.495L202.738,97.433C201.91,96.964 202.022,96.21 202.022,95.272Z" style="fill:rgb(254,253,235);fill-rule:nonzero;"/>
            <path d="M205.784,91.303C206.011,90.028 206.952,89.219 208.215,89.219C209.571,89.219 210.437,89.886 210.644,91.303L205.784,91.303ZM212.623,92.486C212.698,89.867 210.946,87.89 208.384,87.89C205.577,87.89 203.676,89.927 203.676,92.752C203.676,95.598 205.878,97.766 209.081,97.766C209.967,97.766 210.871,97.625 211.681,97.263L212.623,95.352L212.566,95.352C211.699,96.089 210.607,96.437 209.476,96.437C207.348,96.437 205.747,94.984 205.709,92.486L212.623,92.486Z" style="fill:rgb(254,253,235);fill-rule:nonzero;"/>
            <path d="M214.117,83.538C214.568,83.538 215.489,83.51 215.767,83.236L215.823,83.236L215.823,96.09C216.329,96.232 216.853,96.333 217.377,96.333C219.435,96.333 220.615,94.893 220.615,92.886C220.615,90.919 219.698,89.399 217.808,89.399C217.209,89.399 216.741,89.561 216.235,89.845L217.246,88.114C217.676,87.952 218.126,87.89 218.575,87.89C220.709,87.89 222.524,89.743 222.524,92.521C222.524,95.704 220.371,97.762 216.965,97.762C215.692,97.762 214.47,97.538 213.548,97.395L213.548,97.333C214.17,97.048 214.113,96.374 214.113,95.704L214.113,86.36C214.113,85.422 214.226,84.109 213.417,83.599L213.417,83.538L214.117,83.538Z" style="fill:rgb(254,253,235);fill-rule:nonzero;"/>
            <path d="M225.868,91.303C226.095,90.028 227.036,89.219 228.299,89.219C229.655,89.219 230.521,89.886 230.729,91.303L225.868,91.303ZM232.706,92.486C232.782,89.867 231.03,87.89 228.468,87.89C225.661,87.89 223.759,89.927 223.759,92.752C223.759,95.598 225.963,97.766 229.165,97.766C230.051,97.766 230.955,97.625 231.764,97.263L232.706,95.352L232.65,95.352C231.784,96.089 230.691,96.437 229.561,96.437C227.432,96.437 225.831,94.984 225.793,92.486L232.706,92.486Z" style="fill:rgb(254,253,235);fill-rule:nonzero;"/>
            <path d="M241.131,90.218L241.076,90.218C240.529,89.545 239.624,89.219 238.777,89.219C236.949,89.219 235.632,90.606 235.632,92.543C235.632,94.887 237.458,96.437 239.549,96.437C240.51,96.437 241.565,96.029 242.3,95.438L242.356,95.438L241.377,97.363C240.585,97.685 239.719,97.766 238.889,97.766C235.989,97.766 233.722,95.724 233.722,93.073C233.722,89.566 236.253,87.89 239.097,87.89C239.775,87.89 240.472,87.97 241.131,88.131L241.131,90.218Z" style="fill:rgb(254,253,235);fill-rule:nonzero;"/>
            <path d="M210.272,86.208L210.272,84.168C209.038,84.722 207.892,85.756 207.126,86.763L207.126,87.558C208.959,86.323 210.272,86.265 210.272,86.208Z" style="fill:rgb(254,253,235);"/>
            <path d="M185.03,96.364C182.185,96.364 180.207,93.155 180.207,90.428L180.207,90.121C180.243,87.48 181.953,85.003 184.936,85.003C188.076,85.003 189.695,87.973 189.721,90.787L189.721,91.08C189.721,94.079 187.856,96.364 185.03,96.364ZM194.781,99.483C192.68,99.827 190.661,99.165 188.515,96.71C190.588,95.669 191.87,93.079 191.87,90.672C191.87,90.648 191.869,90.398 191.869,90.373C191.832,86.254 188.738,83.534 185.049,83.534C181.353,83.534 178.087,86.365 178.06,90.517C178.06,90.535 178.059,90.777 178.059,90.795C178.059,94.833 181.055,97.832 184.729,97.832C185.257,97.832 185.765,97.75 186.274,97.628C188.68,99.882 190.824,100.842 192.678,100.618C193.557,100.513 194.485,100.163 195.043,99.439L194.781,99.483Z" style="fill:rgb(254,253,235);fill-rule:nonzero;"/>
            <path d="M254.914,83.541L254.914,89.173L245.725,89.173L245.725,83.541L254.914,83.541ZM250.112,87.312L249.858,87.312C249.858,86.691 249.663,86.106 249.195,85.846C248.529,85.477 247.871,86.117 248.08,86.782C248.191,87.131 248.387,87.248 248.443,87.248C248.443,87.248 248.351,86.864 248.628,86.668C248.89,86.483 249.213,86.594 249.362,86.816C249.504,87.025 249.526,87.312 249.526,87.312L249.048,87.312L249.048,87.666L250.011,87.665C250.011,87.665 249.985,88.166 249.458,88.117C249.458,88.117 249.523,88.511 250.011,88.305C250.011,88.305 249.985,88.717 250.319,88.925C250.654,88.717 250.629,88.305 250.629,88.305C251.118,88.511 251.182,88.117 251.182,88.117C250.654,88.166 250.629,87.665 250.629,87.665L251.592,87.666L251.592,87.312L251.113,87.312C251.113,87.312 251.136,87.025 251.277,86.816C251.426,86.594 251.75,86.483 252.01,86.668C252.288,86.864 252.197,87.248 252.197,87.248C252.253,87.248 252.449,87.131 252.56,86.782C252.769,86.117 252.11,85.477 251.445,85.846C250.975,86.106 250.783,86.691 250.783,87.312L250.528,87.312C250.529,87.316 250.528,87.316 250.528,87.312C250.524,87.271 250.476,86.816 250.569,86.468C250.641,86.205 250.733,85.93 250.893,85.596C251.032,85.308 251.084,84.82 250.79,84.454C250.539,84.136 250.387,83.959 250.319,83.836C250.253,83.959 250.102,84.136 249.85,84.454C249.557,84.82 249.608,85.308 249.747,85.596C249.906,85.93 249.998,86.205 250.071,86.468C250.163,86.816 250.115,87.271 250.112,87.312L250.112,87.312C250.111,87.316 250.111,87.316 250.112,87.312Z" style="fill:rgb(254,253,235);"/>
            <path d="M266.783,83.541L266.783,89.173L257.592,89.173L257.592,83.541L266.783,83.541ZM261.978,87.312L261.723,87.312C261.723,86.691 261.53,86.106 261.06,85.846C260.394,85.477 259.738,86.117 259.946,86.782C260.056,87.131 260.252,87.248 260.308,87.248C260.308,87.248 260.217,86.864 260.495,86.668C260.755,86.483 261.078,86.594 261.227,86.816C261.37,87.025 261.392,87.312 261.392,87.312L260.914,87.312L260.914,87.666L261.875,87.665C261.875,87.665 261.849,88.166 261.323,88.117C261.323,88.117 261.388,88.511 261.875,88.305C261.875,88.305 261.849,88.717 262.187,88.925C262.519,88.717 262.494,88.305 262.494,88.305C262.982,88.511 263.048,88.117 263.048,88.117C262.519,88.166 262.494,87.665 262.494,87.665L263.458,87.666L263.458,87.312L262.976,87.312C262.976,87.312 263.001,87.025 263.142,86.816C263.292,86.594 263.615,86.483 263.877,86.668C264.153,86.864 264.065,87.248 264.065,87.248C264.119,87.248 264.314,87.131 264.422,86.782C264.632,86.117 263.974,85.477 263.309,85.846C262.841,86.106 262.648,86.691 262.648,87.312L262.394,87.312C262.395,87.316 262.395,87.316 262.394,87.312L262.394,87.312C262.391,87.271 262.342,86.816 262.435,86.468C262.505,86.205 262.599,85.93 262.758,85.596C262.896,85.308 262.948,84.82 262.655,84.454C262.404,84.136 262.251,83.959 262.187,83.836C262.118,83.959 261.968,84.136 261.714,84.454C261.42,84.82 261.473,85.308 261.613,85.596C261.773,85.93 261.864,86.205 261.937,86.468C262.028,86.816 261.981,87.271 261.978,87.312L261.979,87.312C261.978,87.316 261.978,87.316 261.978,87.312ZM266.783,91.856L266.783,97.486L257.592,97.486L257.592,91.856L266.783,91.856ZM261.978,95.625L261.723,95.625C261.723,95.005 261.53,94.419 261.06,94.159C260.394,93.789 259.738,94.431 259.946,95.094C260.056,95.443 260.252,95.562 260.308,95.562C260.308,95.562 260.217,95.178 260.495,94.981C260.755,94.797 261.078,94.909 261.227,95.127C261.37,95.338 261.392,95.625 261.392,95.625L260.914,95.625L260.914,95.979L261.875,95.979C261.875,95.979 261.849,96.478 261.323,96.431C261.323,96.431 261.388,96.824 261.875,96.617C261.875,96.617 261.849,97.03 262.187,97.238C262.519,97.03 262.494,96.617 262.494,96.617C262.982,96.824 263.048,96.431 263.048,96.431C262.519,96.478 262.494,95.979 262.494,95.979L263.458,95.979L263.458,95.625L262.976,95.625C262.976,95.625 263.001,95.338 263.142,95.127C263.292,94.909 263.615,94.797 263.877,94.981C264.153,95.178 264.065,95.562 264.065,95.562C264.119,95.562 264.314,95.443 264.422,95.094C264.632,94.431 263.974,93.789 263.309,94.159C262.841,94.419 262.648,95.005 262.648,95.625L262.394,95.625C262.395,95.629 262.395,95.629 262.394,95.625L262.394,95.625C262.39,95.584 262.342,95.129 262.435,94.782C262.505,94.518 262.599,94.243 262.758,93.909C262.896,93.621 262.948,93.132 262.655,92.767C262.404,92.451 262.251,92.274 262.187,92.15C262.118,92.274 261.968,92.451 261.714,92.767C261.42,93.132 261.473,93.621 261.613,93.909C261.773,94.243 261.864,94.518 261.937,94.782C262.028,95.129 261.981,95.584 261.978,95.625L261.979,95.625C261.978,95.629 261.978,95.629 261.978,95.625Z" style="fill:rgb(254,253,235);"/>
            <path d="M254.914,91.856L254.914,97.486L245.725,97.486L245.725,91.856L254.914,91.856ZM250.112,95.625L249.858,95.625C249.858,95.005 249.663,94.419 249.195,94.159C248.529,93.789 247.871,94.431 248.08,95.094C248.191,95.443 248.387,95.562 248.443,95.562C248.443,95.562 248.351,95.178 248.628,94.981C248.89,94.797 249.213,94.909 249.362,95.127C249.504,95.338 249.526,95.625 249.526,95.625L249.048,95.625L249.048,95.979L250.011,95.979C250.011,95.979 249.985,96.478 249.458,96.431C249.458,96.431 249.523,96.824 250.011,96.617C250.011,96.617 249.985,97.03 250.319,97.238C250.654,97.03 250.629,96.617 250.629,96.617C251.118,96.824 251.182,96.431 251.182,96.431C250.654,96.478 250.629,95.979 250.629,95.979L251.592,95.979L251.592,95.625L251.113,95.625C251.113,95.625 251.136,95.338 251.277,95.127C251.426,94.909 251.75,94.797 252.01,94.981C252.288,95.178 252.197,95.562 252.197,95.562C252.253,95.562 252.449,95.443 252.56,95.094C252.769,94.431 252.11,93.789 251.445,94.159C250.975,94.419 250.783,95.005 250.783,95.625L250.528,95.625C250.529,95.629 250.528,95.629 250.528,95.625C250.524,95.584 250.476,95.129 250.569,94.782C250.641,94.518 250.733,94.243 250.893,93.909C251.032,93.621 251.084,93.132 250.79,92.767C250.539,92.451 250.387,92.274 250.319,92.15C250.253,92.274 250.102,92.451 249.85,92.767C249.557,93.132 249.608,93.621 249.747,93.909C249.906,94.243 249.998,94.518 250.071,94.782C250.163,95.129 250.115,95.584 250.112,95.625L250.112,95.625C250.111,95.629 250.111,95.629 250.112,95.625Z" style="fill:rgb(254,253,235);"/>
        </g>
    </g>
</svg>
