<?xml version="1.0" encoding="UTF-8" standalone="no"?>
<!DOCTYPE svg PUBLIC "-//W3C//DTD SVG 1.1//EN" "http://www.w3.org/Graphics/SVG/1.1/DTD/svg11.dtd">
<svg width="100%" height="100%" viewBox="0 0 757 304" version="1.1" xmlns="http://www.w3.org/2000/svg" xmlns:xlink="http://www.w3.org/1999/xlink" xml:space="preserve" xmlns:serif="http://www.serif.com/" style="fill-rule:evenodd;clip-rule:evenodd;stroke-linejoin:round;stroke-miterlimit:2;">
    <g transform="matrix(4.73653,0,0,4.73653,407.712,46.1064)">
        <path d="M0,6.692L0,7.29C0,9.234 -0.336,11.693 -3.56,11.693C-6.484,11.693 -7.057,9.766 -7.057,7.327L-7.057,-0.891C-7.057,-3.434 -5.928,-5.001 -3.525,-5.001C-0.615,-5.001 -0.074,-3.017 -0.074,-0.819L-0.074,-0.131L-2.265,-0.131L-2.265,-1.044C-2.265,-2.209 -2.496,-3.015 -3.541,-3.015C-4.548,-3.015 -4.838,-2.267 -4.838,-1.022L-4.838,7.498C-4.838,8.797 -4.566,9.725 -3.501,9.725C-2.446,9.725 -2.209,8.849 -2.209,7.504L-2.209,6.692L0,6.692Z" style="fill:rgb(29,37,35);fill-rule:nonzero;"/>
    </g>
    <g transform="matrix(4.73653,0,0,4.73653,425.098,81.4655)">
        <path d="M0,-8.239L0,0.037C0,1.587 0.561,2.26 1.543,2.26C2.59,2.26 3.095,1.62 3.095,-0.017L3.095,-8.249C3.095,-9.719 2.617,-10.48 1.535,-10.48C0.52,-10.48 0,-9.779 0,-8.239M5.314,-8.063L5.314,-0.228C5.314,2.774 4.054,4.227 1.444,4.227C-1.143,4.227 -2.219,2.68 -2.219,-0.194L-2.219,-8.073C-2.219,-11.034 -0.783,-12.466 1.584,-12.466C4.019,-12.466 5.314,-10.952 5.314,-8.063" style="fill:rgb(29,37,35);fill-rule:nonzero;"/>
    </g>
    <g transform="matrix(4.73653,0,0,4.73653,459.559,23.5042)">
        <path d="M0,16.236L0,0L2.547,0C3.29,2.591 5.364,10.815 5.575,11.872L5.607,11.872C5.499,9.796 5.485,7.512 5.485,4.853L5.485,0L7.507,0L7.507,16.236L5.053,16.236C4.393,13.83 2.163,4.913 1.939,3.974L1.915,3.974C2.029,5.936 2.042,8.302 2.042,11.226L2.042,16.236L0,16.236Z" style="fill:rgb(29,37,35);fill-rule:nonzero;"/>
    </g>
    <g transform="matrix(4.73653,0,0,4.73653,512.67,45.6138)">
        <path d="M0,6.876L0,7.854C0,9.197 0.432,9.931 1.461,9.931C2.516,9.931 2.855,9.041 2.855,7.682C2.855,5.872 2.462,5.247 0.734,3.891C-1.009,2.52 -1.92,1.664 -1.92,-0.734C-1.92,-2.839 -1.285,-4.921 1.484,-4.913C4.237,-4.906 4.774,-2.991 4.774,-1.105L4.774,-0.285L2.612,-0.285L2.612,-1.046C2.612,-2.267 2.392,-3.031 1.442,-3.031C0.502,-3.031 0.257,-2.209 0.257,-1.05C0.257,0.249 0.51,0.815 1.963,1.894C4.318,3.651 5.05,4.655 5.05,7.364C5.05,9.658 4.308,11.797 1.4,11.797C-1.442,11.797 -2.177,9.966 -2.177,7.827L-2.177,6.876L0,6.876Z" style="fill:rgb(29,37,35);fill-rule:nonzero;"/>
    </g>
    <g transform="matrix(4.73653,0,0,4.73653,571.59,59.5146)">
        <path d="M0,1.03L-3.599,1.03L-3.599,6.632L0.523,6.632L0.241,8.633L-5.776,8.633L-5.776,-7.603L0.201,-7.603L0.201,-5.584L-3.599,-5.584L-3.599,-0.973L0,-0.973L0,1.03Z" style="fill:rgb(29,37,35);fill-rule:nonzero;"/>
    </g>
    <g transform="matrix(-4.73653,0,0,4.73653,1280.06,-2457)">
        <rect x="145.599" y="523.697" width="2.177" height="16.236" style="fill:rgb(29,37,35);"/>
    </g>
    <g transform="matrix(4.73653,0,0,4.73653,601.295,100.405)">
        <path d="M0,-16.236L2.177,-16.236L2.177,-1.95L6.26,-1.95L6.057,0L0,0L0,-16.236Z" style="fill:rgb(29,37,35);fill-rule:nonzero;"/>
    </g>
    <g transform="matrix(4.73653,0,0,4.73653,458.69,144.397)">
        <path d="M0,2.84C-0.454,-0.261 -0.831,-2.939 -1.004,-4.648L-1.085,-4.648C-1.151,-3.345 -1.679,0.205 -2.051,2.84L0,2.84ZM-2.332,4.843L-2.988,9.538L-5.199,9.538L-2.563,-6.698L0.521,-6.698L3.263,9.538L0.986,9.538L0.265,4.843L-2.332,4.843Z" style="fill:rgb(29,37,35);fill-rule:nonzero;"/>
    </g>
    <g transform="matrix(4.73653,0,0,4.73653,490.493,156.297)">
        <path d="M0,-2.184L0.78,-2.184C2.197,-2.184 2.647,-2.849 2.647,-4.601L2.647,-5.228C2.647,-6.579 2.328,-7.396 0.822,-7.396L0,-7.396L0,-2.184ZM0,-0.369L0,7.026L-2.177,7.026L-2.177,-9.21L1.026,-9.21C3.484,-9.21 4.833,-8.193 4.833,-5.372L4.833,-4.7C4.833,-2.328 3.914,-1.58 3.18,-1.301C4.161,-0.883 4.678,-0.162 4.678,2.029C4.678,3.405 4.652,6.025 4.83,7.026L2.721,7.026C2.51,6.032 2.551,3.339 2.551,2.177C2.551,0.145 2.278,-0.369 0.759,-0.369L0,-0.369Z" style="fill:rgb(29,37,35);fill-rule:nonzero;"/>
    </g>
    <g transform="matrix(4.73653,0,0,4.73653,529.982,180.013)">
        <path d="M0,-12.198L-2.615,-12.198L-2.615,-14.217L4.794,-14.217L4.794,-12.198L2.177,-12.198L2.177,2.019L0,2.019L0,-12.198Z" style="fill:rgb(29,37,35);fill-rule:nonzero;"/>
    </g>
    <g transform="matrix(4.73653,0,0,4.73653,565.526,134.784)">
        <path d="M0,6.876L0,7.854C0,9.197 0.432,9.931 1.461,9.931C2.516,9.931 2.855,9.041 2.855,7.682C2.855,5.872 2.462,5.247 0.734,3.891C-1.009,2.52 -1.92,1.664 -1.92,-0.734C-1.92,-2.839 -1.285,-4.921 1.484,-4.913C4.237,-4.906 4.774,-2.991 4.774,-1.105L4.774,-0.284L2.612,-0.284L2.612,-1.045C2.612,-2.267 2.392,-3.031 1.442,-3.031C0.502,-3.031 0.257,-2.209 0.257,-1.05C0.257,0.249 0.51,0.815 1.963,1.895C4.318,3.651 5.05,4.655 5.05,7.364C5.05,9.658 4.308,11.797 1.4,11.797C-1.442,11.797 -2.177,9.966 -2.177,7.827L-2.177,6.876L0,6.876Z" style="fill:rgb(29,37,35);fill-rule:nonzero;"/>
    </g>
    <g transform="matrix(4.73653,0,0,4.73653,384.602,223.954)">
        <path d="M0,6.876L0,7.854C0,9.197 0.432,9.931 1.461,9.931C2.516,9.931 2.855,9.041 2.855,7.682C2.855,5.872 2.462,5.247 0.734,3.891C-1.009,2.52 -1.92,1.664 -1.92,-0.734C-1.92,-2.839 -1.285,-4.921 1.484,-4.913C4.237,-4.906 4.774,-2.991 4.774,-1.105L4.774,-0.284L2.612,-0.284L2.612,-1.045C2.612,-2.267 2.392,-3.031 1.442,-3.031C0.502,-3.031 0.257,-2.209 0.257,-1.05C0.257,0.249 0.51,0.815 1.963,1.895C4.318,3.651 5.05,4.655 5.05,7.364C5.05,9.658 4.308,11.797 1.4,11.797C-1.442,11.797 -2.177,9.966 -2.177,7.827L-2.177,6.876L0,6.876Z" style="fill:rgb(29,37,35);fill-rule:nonzero;"/>
    </g>
    <g transform="matrix(4.73653,0,0,4.73653,437.463,233.568)">
        <path d="M0,2.84C-0.454,-0.261 -0.831,-2.939 -1.004,-4.648L-1.085,-4.648C-1.151,-3.345 -1.679,0.205 -2.051,2.84L0,2.84ZM-2.332,4.843L-2.988,9.538L-5.199,9.538L-2.563,-6.698L0.521,-6.698L3.263,9.538L0.986,9.538L0.265,4.843L-2.332,4.843Z" style="fill:rgb(29,37,35);fill-rule:nonzero;"/>
    </g>
    <g transform="matrix(4.73653,0,0,4.73653,493.058,201.845)">
        <path d="M0,16.236L-1.709,16.236C-1.767,15.959 -1.816,15.293 -1.832,14.938C-2.265,16.071 -3.199,16.465 -4.251,16.465C-6.58,16.465 -7.336,14.765 -7.336,12.079L-7.336,4.244C-7.336,1.589 -6.286,-0.229 -3.643,-0.229C-0.476,-0.229 -0.051,2.065 -0.051,3.944L-0.051,4.422L-2.229,4.422L-2.229,3.856C-2.229,2.881 -2.358,1.757 -3.65,1.757C-4.654,1.757 -5.117,2.422 -5.117,3.95L-5.117,12.281C-5.117,13.707 -4.724,14.53 -3.701,14.53C-2.446,14.53 -2.185,13.426 -2.185,11.587L-2.185,9.125L-3.766,9.125L-3.766,7.243L0,7.243L0,16.236Z" style="fill:rgb(29,37,35);fill-rule:nonzero;"/>
    </g>
    <g transform="matrix(4.73653,0,0,4.73653,512.481,279.83)">
        <path d="M0,-16.465L0,-4.002C0,-2.75 0.422,-1.976 1.496,-1.976C2.595,-1.976 2.959,-2.777 2.959,-3.994L2.959,-16.465L5.143,-16.465L5.143,-4.05C5.143,-1.511 3.998,0 1.455,0C-0.986,0 -2.177,-1.34 -2.177,-4.029L-2.177,-16.465L0,-16.465Z" style="fill:rgb(29,37,35);fill-rule:nonzero;"/>
    </g>
    <g transform="matrix(4.73653,0,0,4.73653,574.55,237.855)">
        <path d="M0,1.03L-3.599,1.03L-3.599,6.632L0.523,6.632L0.241,8.633L-5.776,8.633L-5.776,-7.603L0.201,-7.603L0.201,-5.584L-3.599,-5.584L-3.599,-0.973L0,-0.973L0,1.03Z" style="fill:rgb(29,37,35);fill-rule:nonzero;"/>
    </g>
    <g transform="matrix(4.73653,0,0,4.73653,583.077,201.845)">
        <path d="M0,16.236L0,0L2.547,0C3.29,2.591 5.364,10.815 5.575,11.872L5.607,11.872C5.499,9.797 5.483,7.512 5.483,4.853L5.483,0L7.507,0L7.507,16.236L5.053,16.236C4.393,13.83 2.163,4.913 1.939,3.974L1.915,3.974C2.029,5.936 2.042,8.302 2.042,11.226L2.042,16.236L0,16.236Z" style="fill:rgb(29,37,35);fill-rule:nonzero;"/>
    </g>
    <g transform="matrix(4.73653,0,0,4.73653,649.667,233.568)">
        <path d="M0,2.84C-0.454,-0.261 -0.831,-2.939 -1.004,-4.648L-1.086,-4.648C-1.151,-3.345 -1.679,0.205 -2.051,2.84L0,2.84ZM-2.332,4.843L-2.988,9.538L-5.199,9.538L-2.563,-6.698L0.521,-6.698L3.263,9.538L0.986,9.538L0.265,4.843L-2.332,4.843Z" style="fill:rgb(29,37,35);fill-rule:nonzero;"/>
    </g>
    <g transform="matrix(4.73653,0,0,4.73653,675.412,201.845)">
        <path d="M0,16.236L0,10.354C0,10.158 -0.024,10.044 -0.083,9.851L-3.092,0L-0.689,0C0.029,2.762 0.868,5.99 1.127,7.64L1.151,7.64C1.477,5.87 2.315,2.681 2.975,0L5.285,0L2.225,10.022C2.201,10.135 2.177,10.284 2.177,10.583L2.177,16.236L0,16.236Z" style="fill:rgb(29,37,35);fill-rule:nonzero;"/>
    </g>
    <g transform="matrix(4.73653,0,0,4.73653,282.213,157.481)">
        <path d="M0,-1.88L0,-8.95C0,-12.681 -0.212,-15.595 -0.644,-17.693C-1.084,-19.79 -1.964,-21.542 -3.291,-22.94C-5.161,-24.872 -7.423,-26.192 -10.094,-26.891C-12.756,-27.59 -14.029,-27.909 -17.689,-27.909L-17.689,13.94C-17.689,17.404 -16.605,20.279 -14.445,22.58C-12.277,24.882 -9.065,26.029 -4.799,26.029C1.398,26.029 5.766,23.499 8.892,18.433L8.892,16.335C7.824,17.467 6.598,18.032 5.192,18.032C1.799,18.032 0.102,15.636 0.102,10.837L0,-1.88Z" style="fill:rgb(29,37,35);fill-rule:nonzero;"/>
    </g>
    <g transform="matrix(4.73653,0,0,4.73653,166.016,239.302)">
        <path d="M0,-18.126C1.602,-19.728 2.702,-21.025 3.299,-22.03L3.299,-26.88C1.72,-23.723 -0.937,-21.199 -4.204,-19.817C-5.007,-19.415 -5.937,-19.015 -7.093,-18.629C-10.494,-17.498 -13.259,-16.398 -15.388,-15.33C-17.525,-14.261 -19.37,-12.745 -20.934,-10.782C-22.497,-8.818 -23.282,-6.336 -23.282,-3.335C-23.282,0.129 -22.198,3.004 -20.038,5.306C-17.87,7.607 -14.657,8.754 -10.392,8.754C-4.195,8.754 0.173,6.225 3.299,1.158L3.299,-0.939C3.299,-0.939 1.005,0.758 -0.401,0.758C-3.794,0.758 -5.491,-1.638 -5.491,-6.438C-5.491,-9.234 -5.027,-11.449 -4.093,-13.083C-3.166,-14.717 -1.799,-16.398 0,-18.126" style="fill:rgb(29,37,35);fill-rule:nonzero;"/>
    </g>
    <g transform="matrix(0,-4.73653,-4.73653,0,118.691,25.2903)">
        <path d="M-10.222,-10.222C-15.867,-10.222 -20.444,-5.645 -20.444,0C-20.444,5.645 -15.867,10.222 -10.222,10.222C-4.577,10.222 0,5.645 0,0C0,-5.645 -4.577,-10.222 -10.222,-10.222" style="fill:rgb(29,37,35);fill-rule:nonzero;"/>
    </g>
    <g transform="matrix(4.73653,0,0,4.73653,379.008,116.559)">
        <path d="M0,4.765L0.319,4.765C0.974,4.765 1.074,4.343 1.074,3.674L1.074,0.983C1.074,0.389 0.97,0.008 0.314,0.008L0,0.008L0,4.765ZM-0.997,-0.848L0.386,-0.848C1.756,-0.848 2.089,-0.137 2.089,1.062L2.089,3.539C2.089,4.526 1.92,5.613 0.383,5.613L-0.997,5.613L-0.997,-0.848Z" style="fill:rgb(29,37,35);fill-rule:nonzero;"/>
    </g>
    <g transform="matrix(4.73653,0,0,4.73653,403.832,126.522)">
        <path d="M0,0.559L-1.42,0.559L-1.42,2.594L0.217,2.594L0.09,3.51L-2.416,3.51L-2.416,-2.951L0.079,-2.951L0.079,-2.027L-1.42,-2.027L-1.42,-0.358L0,-0.358L0,0.559Z" style="fill:rgb(29,37,35);fill-rule:nonzero;"/>
    </g>
    <g transform="matrix(4.73653,0,0,4.73653,379.008,162.913)">
        <path d="M0,4.765L0.319,4.765C0.974,4.765 1.074,4.343 1.074,3.674L1.074,0.983C1.074,0.389 0.97,0.008 0.314,0.008L0,0.008L0,4.765ZM-0.997,-0.848L0.386,-0.848C1.756,-0.848 2.089,-0.137 2.089,1.062L2.089,3.539C2.089,4.526 1.92,5.613 0.383,5.613L-0.997,5.613L-0.997,-0.848Z" style="fill:rgb(29,37,35);fill-rule:nonzero;"/>
    </g>
    <g transform="matrix(4.73653,0,0,4.73653,403.832,172.875)">
        <path d="M0,0.559L-1.42,0.559L-1.42,2.594L0.217,2.594L0.09,3.51L-2.416,3.51L-2.416,-2.951L0.079,-2.951L0.079,-2.027L-1.42,-2.027L-1.42,-0.358L0,-0.358L0,0.559Z" style="fill:rgb(29,37,35);fill-rule:nonzero;"/>
    </g>
    <g transform="matrix(4.73653,0,0,4.73653,411.254,121.502)">
        <path d="M0,2.668L0,3.068C0,3.548 0.144,3.816 0.523,3.816C0.912,3.816 1.012,3.448 1.012,3.027C1.012,2.334 0.862,2.118 0.169,1.572C-0.526,1.022 -0.897,0.672 -0.897,-0.284C-0.897,-1.136 -0.64,-1.996 0.527,-1.994C1.72,-1.993 1.903,-1.143 1.903,-0.442L1.903,-0.097L0.916,-0.097L0.916,-0.416C0.916,-0.866 0.84,-1.138 0.508,-1.138C0.185,-1.138 0.1,-0.856 0.1,-0.428C0.1,0.028 0.186,0.252 0.754,0.668C1.721,1.383 2.017,1.798 2.017,2.879C2.017,3.795 1.696,4.664 0.49,4.664C-0.705,4.664 -0.997,3.902 -0.997,3.051L-0.997,2.668L0,2.668Z" style="fill:rgb(29,37,35);fill-rule:nonzero;"/>
    </g>
    <g transform="matrix(-4.73653,0,0,4.73653,904.616,-2279.2)">
        <rect x="102.144" y="512.529" width="9.821" height="1.034" style="fill:rgb(29,37,35);"/>
    </g>
</svg>
