<?xml version="1.0" encoding="UTF-8" standalone="no"?>
<!DOCTYPE svg PUBLIC "-//W3C//DTD SVG 1.1//EN" "http://www.w3.org/Graphics/SVG/1.1/DTD/svg11.dtd">
<svg width="100%" height="100%" viewBox="0 0 575 250" version="1.1" xmlns="http://www.w3.org/2000/svg" xmlns:xlink="http://www.w3.org/1999/xlink" xml:space="preserve" xmlns:serif="http://www.serif.com/" style="fill-rule:evenodd;clip-rule:evenodd;stroke-linejoin:round;stroke-miterlimit:2;">
    <g transform="matrix(4.16667,0,0,4.16667,0,0)">
        <path d="M64.067,52.013L68.897,52.013L68.897,52.871L64.991,52.871L64.991,55.446L68.622,55.446L68.622,56.304L64.991,56.304L64.991,59.802L64.067,59.802L64.067,52.013Z" style="fill:rgb(254,253,235);fill-rule:nonzero;"/>
        <path d="M77.158,55.908C77.158,54.115 75.904,52.673 74.078,52.673C72.251,52.673 70.997,54.115 70.997,55.908C70.997,57.701 72.251,59.142 74.078,59.142C75.904,59.142 77.158,57.701 77.158,55.908ZM70.007,55.908C70.007,53.553 71.712,51.815 74.078,51.815C76.443,51.815 78.148,53.553 78.148,55.908C78.148,58.262 76.443,60 74.078,60C71.712,60 70.007,58.262 70.007,55.908Z" style="fill:rgb(254,253,235);fill-rule:nonzero;"/>
        <path d="M85.749,56.832C85.749,58.526 84.957,60 82.811,60C80.666,60 79.874,58.526 79.874,56.832L79.874,52.013L80.797,52.013L80.797,56.7C80.797,57.955 81.26,59.142 82.811,59.142C84.362,59.142 84.825,57.955 84.825,56.7L84.825,52.013L85.749,52.013L85.749,56.832Z" style="fill:rgb(254,253,235);fill-rule:nonzero;"/>
        <path d="M87.926,52.013L89.092,52.013L93.602,58.482L93.625,58.482L93.625,52.013L94.549,52.013L94.549,59.802L93.382,59.802L88.872,53.334L88.85,53.334L88.85,59.802L87.926,59.802L87.926,52.013Z" style="fill:rgb(254,253,235);fill-rule:nonzero;"/>
        <path d="M97.54,58.945L99.299,58.945C101.083,58.945 102.437,58.042 102.437,55.908C102.437,53.773 101.083,52.871 99.299,52.871L97.54,52.871L97.54,58.945ZM96.616,52.013L99.608,52.013C101.138,52.013 103.427,53.037 103.427,55.908C103.427,58.779 101.138,59.802 99.608,59.802L96.616,59.802L96.616,52.013Z" style="fill:rgb(254,253,235);fill-rule:nonzero;"/>
        <path d="M108.134,53.201L108.111,53.201L106.494,57.03L109.673,57.03L108.134,53.201ZM107.716,52.013L108.585,52.013L111.896,59.802L110.817,59.802L110.026,57.888L106.131,57.888L105.328,59.802L104.282,59.802L107.716,52.013Z" style="fill:rgb(254,253,235);fill-rule:nonzero;"/>
        <path d="M117.42,52.871L114.846,52.871L114.846,59.802L113.921,59.802L113.921,52.871L111.347,52.871L111.347,52.013L117.42,52.013L117.42,52.871Z" style="fill:rgb(254,253,235);fill-rule:nonzero;"/>
        <rect x="118.783" y="52.013" width="0.924" height="7.789" style="fill:rgb(254,253,235);"/>
        <path d="M128.618,55.908C128.618,54.115 127.364,52.673 125.538,52.673C123.712,52.673 122.458,54.115 122.458,55.908C122.458,57.701 123.712,59.142 125.538,59.142C127.364,59.142 128.618,57.701 128.618,55.908ZM121.468,55.908C121.468,53.553 123.173,51.815 125.538,51.815C127.903,51.815 129.608,53.553 129.608,55.908C129.608,58.262 127.903,60 125.538,60C123.173,60 121.468,58.262 121.468,55.908Z" style="fill:rgb(254,253,235);fill-rule:nonzero;"/>
        <path d="M131.367,52.013L132.533,52.013L137.044,58.482L137.065,58.482L137.065,52.013L137.99,52.013L137.99,59.802L136.823,59.802L132.313,53.334L132.291,53.334L132.291,59.802L131.367,59.802L131.367,52.013Z" style="fill:rgb(254,253,235);fill-rule:nonzero;"/>
        <path d="M1.494,0.788L6.323,0.788L6.323,1.646L2.417,1.646L2.417,4.221L6.048,4.221L6.048,5.079L2.417,5.079L2.417,8.577L1.494,8.577L1.494,0.788Z" style="fill:rgb(254,253,235);fill-rule:nonzero;"/>
        <path d="M14.585,4.683C14.585,2.889 13.331,1.448 11.504,1.448C9.678,1.448 8.424,2.889 8.424,4.683C8.424,6.476 9.678,7.917 11.504,7.917C13.331,7.917 14.585,6.476 14.585,4.683ZM7.434,4.683C7.434,2.328 9.139,0.59 11.504,0.59C13.87,0.59 15.575,2.328 15.575,4.683C15.575,7.037 13.87,8.775 11.504,8.775C9.139,8.775 7.434,7.037 7.434,4.683Z" style="fill:rgb(254,253,235);fill-rule:nonzero;"/>
        <path d="M17.334,0.788L18.5,0.788L23.01,7.257L23.032,7.257L23.032,0.788L23.957,0.788L23.957,8.577L22.79,8.577L18.279,2.108L18.257,2.108L18.257,8.577L17.334,8.577L17.334,0.788Z" style="fill:rgb(254,253,235);fill-rule:nonzero;"/>
        <path d="M26.947,7.719L28.708,7.719C30.49,7.719 31.843,6.817 31.843,4.683C31.843,2.548 30.49,1.646 28.708,1.646L26.947,1.646L26.947,7.719ZM26.023,0.788L29.016,0.788C30.545,0.788 32.834,1.811 32.834,4.683C32.834,7.554 30.545,8.577 29.016,8.577L26.023,8.577L26.023,0.788Z" style="fill:rgb(254,253,235);fill-rule:nonzero;"/>
        <path d="M37.541,1.976L37.519,1.976L35.902,5.805L39.081,5.805L37.541,1.976ZM37.123,0.788L37.992,0.788L41.304,8.577L40.226,8.577L39.434,6.663L35.539,6.663L34.736,8.577L33.69,8.577L37.123,0.788Z" style="fill:rgb(254,253,235);fill-rule:nonzero;"/>
        <path d="M46.827,1.646L44.253,1.646L44.253,8.577L43.329,8.577L43.329,1.646L40.754,1.646L40.754,0.788L46.827,0.788L46.827,1.646Z" style="fill:rgb(254,253,235);fill-rule:nonzero;"/>
        <rect x="48.191" y="0.788" width="0.924" height="7.789" style="fill:rgb(254,253,235);"/>
        <path d="M58.025,4.683C58.025,2.889 56.772,1.448 54.945,1.448C53.119,1.448 51.865,2.889 51.865,4.683C51.865,6.476 53.119,7.917 54.945,7.917C56.772,7.917 58.025,6.476 58.025,4.683ZM50.875,4.683C50.875,2.328 52.58,0.59 54.945,0.59C57.311,0.59 59.016,2.328 59.016,4.683C59.016,7.037 57.311,8.775 54.945,8.775C52.58,8.775 50.875,7.037 50.875,4.683Z" style="fill:rgb(254,253,235);fill-rule:nonzero;"/>
        <path d="M60.774,0.788L61.94,0.788L66.451,7.257L66.473,7.257L66.473,0.788L67.397,0.788L67.397,8.577L66.231,8.577L61.72,2.108L61.698,2.108L61.698,8.577L60.774,8.577L60.774,0.788Z" style="fill:rgb(254,253,235);fill-rule:nonzero;"/>
        <path d="M3.135,38.507C4.485,40.57 6.828,41.523 9.091,41.523C11.592,41.523 14.689,39.935 14.689,36.839C14.689,30.366 0.833,34.376 0.833,23.417C0.833,20.123 3.612,15.558 10.361,15.558C13.418,15.558 16.356,16.193 18.46,18.772L15.363,21.591C14.411,20.123 12.544,19.132 10.361,19.132C6.153,19.132 4.883,21.671 4.883,23.417C4.883,30.525 18.738,26.276 18.738,36.402C18.738,41.839 14.371,45.095 8.972,45.095C5.359,45.095 1.905,43.865 0,41.205L3.135,38.507Z" style="fill:rgb(254,253,235);fill-rule:nonzero;"/>
        <path d="M47.087,30.326C47.087,24.173 42.918,19.132 36.486,19.132C30.055,19.132 25.886,24.173 25.886,30.326C25.886,36.48 30.055,41.523 36.486,41.523C42.918,41.523 47.087,36.48 47.087,30.326ZM21.836,30.326C21.836,21.989 27.911,15.558 36.486,15.558C45.062,15.558 51.136,21.989 51.136,30.326C51.136,38.664 45.062,45.095 36.486,45.095C27.911,45.095 21.836,38.664 21.836,30.326Z" style="fill:rgb(254,253,235);fill-rule:nonzero;"/>
        <path d="M69.519,16.155C61.247,16.155 55.468,22.081 55.468,30.564C55.468,37.265 60.764,44.498 69.32,44.498C74.906,44.498 78.015,41.57 79.113,40.283L76.863,38.588C75.011,40.902 72.443,42.123 69.4,42.123C62.98,42.123 58.321,37.261 58.321,30.564C58.321,23.594 62.98,18.533 69.4,18.533C72.033,18.533 74.617,19.667 76.283,21.525L78.513,19.823C76.492,17.517 73.183,16.155 69.519,16.155ZM69.32,45.693C60.025,45.693 54.272,37.839 54.272,30.564C54.272,21.378 60.541,14.96 69.519,14.96C73.793,14.96 77.648,16.681 79.841,19.563L80.203,20.038L76.08,23.183L75.714,22.711C74.298,20.872 71.88,19.73 69.4,19.73C63.673,19.73 59.517,24.288 59.517,30.564C59.517,36.666 63.582,40.925 69.4,40.925C72.247,40.925 74.619,39.707 76.259,37.404L76.615,36.904L80.791,40.046L80.445,40.523C79.82,41.386 76.343,45.693 69.32,45.693Z" style="fill:rgb(254,253,235);fill-rule:nonzero;"/>
        <path d="M101.008,34.099L95.767,21.194L95.691,21.194L90.369,34.099L101.008,34.099ZM94.181,16.271L97.632,16.271L109.662,44.382L105.217,44.382L102.398,37.433L89.017,37.433L86.24,44.382L81.793,44.382L94.181,16.271Z" style="fill:rgb(254,253,235);fill-rule:nonzero;"/>
        <path d="M113.318,16.271L118.32,16.271L133.805,39.379L133.883,39.379L133.883,16.271L137.695,16.271L137.695,44.382L132.854,44.382L117.207,21.275L117.131,21.275L117.131,44.382L113.318,44.382L113.318,16.271Z" style="fill:rgb(254,253,235);fill-rule:nonzero;"/>
    </g>
</svg>
