<?xml version="1.0" encoding="UTF-8" standalone="no"?>
<!DOCTYPE svg PUBLIC "-//W3C//DTD SVG 1.1//EN" "http://www.w3.org/Graphics/SVG/1.1/DTD/svg11.dtd">
<svg width="100%" height="100%" viewBox="0 0 1869 627" version="1.1" xmlns="http://www.w3.org/2000/svg" xmlns:xlink="http://www.w3.org/1999/xlink" xml:space="preserve" xmlns:serif="http://www.serif.com/" style="fill-rule:evenodd;clip-rule:evenodd;stroke-linejoin:round;stroke-miterlimit:2;">
    <g id="Hotel-Chicoutimi" serif:id="Hotel Chicoutimi" transform="matrix(4.16667,0,0,4.16667,0,0)">
        <path d="M150.443,0L150.443,150.443L0,150.443L0,0L150.443,0ZM89.521,24.562C89.521,40.358 76.716,53.161 60.922,53.161L60.922,24.562L32.323,24.564L32.323,81.762L60.922,81.76C60.922,65.966 73.725,53.161 89.521,53.161L89.521,81.76L118.12,81.758L118.12,24.562L89.521,24.562ZM58.612,129.273L59.314,134.815C68.988,134.218 72.082,132.045 75.371,123.013L83.073,100.793L76.71,100.793L72.52,114.316C71.84,116.468 71.358,118.403 70.92,120.624L70.48,120.624C70.063,118.403 69.559,116.468 68.836,114.316L64.249,100.795L57.668,100.795L67.321,126.12L67.013,127.147C66.663,128.151 65.85,128.676 62.649,128.938L58.612,129.273ZM92.599,125.88L100.233,125.88L109.118,100.795L102.736,100.795L99.137,111.617C98.084,114.794 97.425,117.183 96.767,119.979L96.329,119.979C95.67,117.183 95.012,114.794 93.937,111.641L90.273,100.795L83.67,100.795L92.599,125.88ZM111.274,92.814L111.274,97.831L118.119,97.831L118.119,92.814L111.274,92.814ZM32.324,125.882L38.707,125.882L38.707,114.223C38.707,108.583 41.122,105.119 45.179,105.119C48.185,105.119 49.676,106.793 49.676,110.041L49.676,125.882L56.059,125.882L56.059,108.369C56.059,103.113 53.208,100.341 47.965,100.343C43.139,100.343 39.893,102.635 37.983,107.39L37.523,107.199C38.378,104.522 38.707,102.54 38.707,100.174L38.707,92.433L32.324,92.433L32.324,125.882ZM111.494,100.793L111.494,125.88L117.879,125.88L117.879,100.793L111.494,100.793Z" style="fill:rgb(254,253,235);"/>
        <g transform="matrix(1,0,0,1,182.767,70.9083)">
            <path d="M0,-33.515L4.165,-33.515L4.165,-18.96L21.498,-18.96L21.498,-33.515L25.663,-33.515L25.663,0L21.498,0L21.498,-15.13L4.165,-15.13L4.165,0L0,0L0,-33.515Z" style="fill:rgb(254,253,235);fill-rule:nonzero;"/>
        </g>
        <g transform="matrix(1,0,0,1,226.577,68.6105)">
            <path d="M0,-28.919L-4.166,-24.993L-7.9,-24.993L-1.867,-31.504L1.867,-31.504L7.9,-24.993L4.117,-24.993L0,-28.919ZM8.091,-9.911C8.091,-15.13 4.836,-18.912 0,-18.912C-4.836,-18.912 -8.092,-15.13 -8.092,-9.911C-8.092,-4.692 -4.836,-0.91 0,-0.91C4.836,-0.91 8.091,-4.692 8.091,-9.911M-12.113,-9.911C-12.113,-17.332 -7.134,-22.407 0,-22.407C7.134,-22.407 12.113,-17.332 12.113,-9.911C12.113,-2.49 7.134,2.585 0,2.585C-7.134,2.585 -12.113,-2.49 -12.113,-9.911" style="fill:rgb(254,253,235);fill-rule:nonzero;"/>
        </g>
        <g transform="matrix(1,0,0,1,245.681,60.4702)">
            <path d="M0,-10.389L-4.405,-10.389L-4.405,-13.98L0,-13.98L0,-20.827L3.926,-20.827L3.926,-13.98L10.246,-13.98L10.246,-10.389L3.926,-10.389L3.926,4.023C3.926,6.081 4.644,6.847 6.751,6.847L10.629,6.847L10.629,10.438L6.368,10.438C1.676,10.438 0,8.38 0,4.07L0,-10.389Z" style="fill:rgb(254,253,235);fill-rule:nonzero;"/>
        </g>
        <g transform="matrix(1,0,0,1,278.144,61.1887)">
            <path d="M0,-4.979C-0.383,-9.192 -3.256,-11.538 -7.325,-11.538C-10.916,-11.538 -14.22,-8.953 -14.603,-4.979L0,-4.979ZM-18.96,-2.489C-18.96,-9.911 -14.268,-14.986 -7.373,-14.986C-0.479,-14.986 4.022,-10.629 4.214,-3.399C4.214,-2.872 4.166,-2.298 4.118,-1.723L-14.842,-1.723L-14.842,-1.388C-14.699,3.256 -11.778,6.512 -7.134,6.512C-3.687,6.512 -1.005,4.693 -0.191,1.533L3.783,1.533C2.825,6.416 -1.197,10.007 -6.847,10.007C-14.172,10.007 -18.96,4.98 -18.96,-2.489" style="fill:rgb(254,253,235);fill-rule:nonzero;"/>
        </g>
        <g transform="matrix(1,0,0,1,0,-42.142)">
            <rect x="287.817" y="79.535" width="3.926" height="33.515" style="fill:rgb(254,253,235);"/>
        </g>
        <g transform="matrix(1,0,0,1,181.522,96.2929)">
            <path d="M0,0C0,-10.15 6.272,-17.045 15.992,-17.045C23.413,-17.045 28.823,-12.736 30.068,-5.793L25.663,-5.793C24.37,-10.438 20.827,-13.215 15.8,-13.215C8.762,-13.215 4.261,-7.756 4.261,0C4.261,7.708 8.57,13.215 15.609,13.215C20.779,13.215 24.37,10.485 25.615,5.793L30.02,5.793C28.775,12.736 23.221,17.045 15.656,17.045C6.033,17.045 0,10.246 0,0" style="fill:rgb(254,253,235);fill-rule:nonzero;"/>
        </g>
        <g transform="matrix(1,0,0,1,238.834,93.1329)">
            <path d="M0,6.32L0,19.918L-3.926,19.918L-3.926,6.559C-3.926,1.484 -6.368,-1.197 -10.581,-1.197C-15.13,-1.197 -17.955,2.202 -17.955,7.708L-17.955,19.918L-21.881,19.918L-21.881,-13.598L-17.955,-13.598L-17.955,-0.479C-16.518,-2.777 -14.029,-4.788 -9.911,-4.788C-4.453,-4.788 0,-1.772 0,6.32" style="fill:rgb(254,253,235);fill-rule:nonzero;"/>
        </g>
        <g transform="matrix(1,0,0,1,0,42.047)">
            <path d="M244.82,46.585L248.746,46.585L248.746,71.003L244.82,71.003L244.82,46.585ZM244.293,39.93C244.293,38.446 245.395,37.393 246.831,37.393C248.267,37.393 249.369,38.446 249.369,39.93C249.369,41.414 248.267,42.468 246.831,42.468C245.395,42.468 244.293,41.414 244.293,39.93" style="fill:rgb(254,253,235);fill-rule:nonzero;"/>
        </g>
        <g transform="matrix(1,0,0,1,254.204,100.793)">
            <path d="M0,0.096C0,-7.373 4.836,-12.448 11.922,-12.448C17.907,-12.448 21.689,-9.097 22.695,-3.734L18.577,-3.734C17.859,-6.99 15.465,-8.953 11.874,-8.953C7.182,-8.953 4.022,-5.219 4.022,0.096C4.022,5.411 7.182,9.049 11.874,9.049C15.369,9.049 17.763,7.038 18.529,3.926L22.695,3.926C21.737,9.193 17.763,12.544 11.826,12.544C4.692,12.544 0,7.709 0,0.096" style="fill:rgb(254,253,235);fill-rule:nonzero;"/>
        </g>
        <g transform="matrix(1,0,0,1,301.509,100.841)">
            <path d="M0,0C0,-5.219 -3.256,-9.001 -8.092,-9.001C-12.927,-9.001 -16.183,-5.219 -16.183,0C-16.183,5.219 -12.927,9.001 -8.092,9.001C-3.256,9.001 0,5.219 0,0M-20.205,0C-20.205,-7.421 -15.225,-12.496 -8.092,-12.496C-0.958,-12.496 4.022,-7.421 4.022,0C4.022,7.421 -0.958,12.496 -8.092,12.496C-15.225,12.496 -20.205,7.421 -20.205,0" style="fill:rgb(254,253,235);fill-rule:nonzero;"/>
        </g>
        <g transform="matrix(1,0,0,1,328.082,113.337)">
            <path d="M0,-24.705L3.926,-24.705L3.926,-0.287L0.527,-0.287L0,-3.543C-1.436,-1.723 -3.782,0 -7.804,0C-13.167,0 -17.428,-3.016 -17.428,-11.107L-17.428,-24.705L-13.502,-24.705L-13.502,-11.347C-13.502,-6.272 -11.204,-3.59 -7.134,-3.59C-2.681,-3.59 0,-6.99 0,-12.496L0,-24.705Z" style="fill:rgb(254,253,235);fill-rule:nonzero;"/>
        </g>
        <g transform="matrix(1,0,0,1,340.244,102.612)">
            <path d="M0,-10.389L-4.405,-10.389L-4.405,-13.98L0,-13.98L0,-20.827L3.926,-20.827L3.926,-13.98L10.246,-13.98L10.246,-10.389L3.926,-10.389L3.926,4.023C3.926,6.081 4.644,6.847 6.751,6.847L10.629,6.847L10.629,10.438L6.368,10.438C1.676,10.438 0,8.38 0,4.07L0,-10.389Z" style="fill:rgb(254,253,235);fill-rule:nonzero;"/>
        </g>
        <g transform="matrix(1,0,0,1,0,42.047)">
            <path d="M355.231,46.585L359.157,46.585L359.157,71.003L355.231,71.003L355.231,46.585ZM354.704,39.93C354.704,38.446 355.805,37.393 357.242,37.393C358.678,37.393 359.779,38.446 359.779,39.93C359.779,41.414 358.678,42.468 357.242,42.468C355.805,42.468 354.704,41.414 354.704,39.93" style="fill:rgb(254,253,235);fill-rule:nonzero;"/>
        </g>
        <g transform="matrix(1,0,0,1,401.96,102.421)">
            <path d="M0,-3.447L0,10.629L-3.926,10.629L-3.926,-3.208C-3.926,-7.995 -6.033,-10.485 -9.719,-10.485C-13.789,-10.485 -16.279,-7.421 -16.279,-2.442L-16.279,10.629L-20.205,10.629L-20.205,-3.208C-20.205,-7.995 -22.359,-10.485 -26.094,-10.485C-30.116,-10.485 -32.557,-7.134 -32.557,-2.25L-32.557,10.629L-36.484,10.629L-36.484,-13.789L-33.084,-13.789L-32.557,-10.437C-31.265,-12.209 -29.206,-14.076 -25.424,-14.076C-22.024,-14.076 -19.103,-12.544 -17.715,-9.432C-16.231,-12.065 -13.598,-14.076 -9.241,-14.076C-4.165,-14.076 0,-11.155 0,-3.447" style="fill:rgb(254,253,235);fill-rule:nonzero;"/>
        </g>
        <g transform="matrix(1,0,0,1,0,42.047)">
            <path d="M407.946,46.585L411.872,46.585L411.872,71.003L407.946,71.003L407.946,46.585ZM407.42,39.93C407.42,38.446 408.521,37.393 409.957,37.393C411.394,37.393 412.495,38.446 412.495,39.93C412.495,41.414 411.394,42.468 409.957,42.468C408.521,42.468 407.42,41.414 407.42,39.93" style="fill:rgb(254,253,235);fill-rule:nonzero;"/>
        </g>
    </g>
</svg>
