<?xml version="1.0" encoding="UTF-8" standalone="no"?>
<!DOCTYPE svg PUBLIC "-//W3C//DTD SVG 1.1//EN" "http://www.w3.org/Graphics/SVG/1.1/DTD/svg11.dtd">
<svg width="100%" height="100%" viewBox="0 0 1334 842" version="1.1" xmlns="http://www.w3.org/2000/svg" xmlns:xlink="http://www.w3.org/1999/xlink" xml:space="preserve" xmlns:serif="http://www.serif.com/" style="fill-rule:evenodd;clip-rule:evenodd;stroke-linejoin:round;stroke-miterlimit:2;">
    <g transform="matrix(4.16667,0,0,4.16667,0,0)">
        <path d="M189.922,47.079L291.295,28.026L291.355,121.763L276.289,119.124L276.289,129.209L319.662,137.763L319.494,0.199L181.773,37.009L181.773,58.69L189.922,57.714L189.922,47.079Z" style="fill:rgb(254,253,235);fill-rule:nonzero;"/>
        <path d="M17.697,112.605C14.734,112.605 12.459,111.645 10.856,109.723C9.268,107.8 8.46,105.04 8.46,101.434C8.46,101.034 8.476,100.612 8.497,100.173C8.523,99.728 8.536,99.311 8.536,98.907L8.536,72.12C8.536,68.032 8.015,65.13 6.971,63.407C5.93,61.683 3.842,60.822 0.716,60.822L0,60.822L0,55.88L22.008,55.88L22.008,98.442C22.008,101.807 22.445,104.153 23.33,105.472C24.218,106.8 26.173,107.454 29.224,107.454L30.185,107.454L30.185,112.605L17.697,112.605Z" style="fill:rgb(254,253,235);fill-rule:nonzero;"/>
        <path d="M267.816,112.605C264.861,112.605 262.584,111.645 260.98,109.723C259.387,107.8 258.588,105.04 258.588,101.434C258.588,101.034 258.594,100.612 258.618,100.173C258.644,99.728 258.652,99.311 258.652,98.907L258.652,72.12C258.652,68.032 258.135,65.13 257.096,63.407C256.049,61.683 253.969,60.822 250.838,60.822L250.121,60.822L250.121,55.88L272.131,55.88L272.131,98.442C272.131,101.807 272.57,104.153 273.455,105.472C274.338,106.8 276.295,107.454 279.344,107.454L280.307,107.454L280.307,112.605L267.816,112.605Z" style="fill:rgb(254,253,235);fill-rule:nonzero;"/>
        <path d="M114.775,112.605C111.649,112.605 109.218,111.669 107.458,109.778C105.698,107.893 104.821,105.233 104.821,101.781L104.821,80.255C104.821,74.564 104.576,70.451 104.1,67.926C103.621,65.401 102.215,64.133 99.89,64.133C98.45,64.133 96.987,64.677 95.508,65.76C94.024,66.843 92.681,68.265 91.479,70.027C90.276,71.792 89.292,73.815 88.537,76.101C87.772,78.384 87.392,80.765 87.392,83.249L87.392,98.754C87.392,102.042 87.834,104.322 88.719,105.6C89.602,106.886 91.442,107.526 94.243,107.526L95.207,107.526L95.207,112.605L84.385,112.605C80.376,112.605 77.483,111.866 75.716,110.377C73.948,108.895 73.068,106.233 73.068,102.387L73.068,81.7C73.068,75.445 72.745,70.954 72.115,68.228C71.47,65.505 69.944,64.133 67.539,64.133C66.099,64.133 64.652,64.622 63.215,65.583C61.775,66.541 60.489,67.864 59.37,69.553C58.245,71.235 57.344,73.241 56.663,75.562C55.985,77.889 55.642,80.455 55.642,83.259L55.642,112.605L42.168,112.605L42.168,71.742C42.168,69.892 42.107,68.335 41.985,67.048C41.871,65.765 41.527,64.742 40.967,63.982C40.408,63.224 39.601,62.681 38.559,62.363C37.518,62.04 36.076,61.878 34.232,61.878L33.155,61.878L33.155,55.88L55.642,55.88L55.631,65.12C57.959,61.517 60.479,58.851 63.207,57.13C65.925,55.402 69.007,54.542 72.457,54.542C76.301,54.542 79.488,55.561 82.008,57.613C84.538,59.648 86.116,62.558 86.761,66.322C91.562,58.468 97.492,54.542 104.547,54.542C107.51,54.542 109.959,54.983 111.883,55.864C113.799,56.745 115.307,58.088 116.387,59.887C117.475,61.691 118.214,64.034 118.615,66.916C119.011,69.8 119.209,73.202 119.209,77.131L119.209,98.754C119.209,102.12 119.696,104.424 120.656,105.665C121.62,106.909 123.702,107.526 126.909,107.526L127.99,107.526L127.99,112.605L114.775,112.605Z" style="fill:rgb(254,253,235);fill-rule:nonzero;"/>
        <path d="M162.007,87.702C152.271,88.171 147.402,91.548 147.402,97.817C147.402,100.165 147.907,102.011 148.941,103.338C149.954,104.677 151.292,105.34 152.939,105.34C154.509,105.34 156.152,104.772 157.883,103.637C159.609,102.497 160.985,100.911 162.007,98.874L162.007,87.702ZM169.037,106.043C167.626,106.043 166.349,106.22 165.214,106.571C164.081,106.92 163.085,107.412 162.214,108.032C161.282,108.734 160.398,109.414 159.581,110.078C158.752,110.739 157.836,111.364 156.813,111.949C155.795,112.535 154.686,113.001 153.471,113.35C152.257,113.704 150.831,113.873 149.183,113.873C146.84,113.873 144.685,113.504 142.729,112.764C140.769,112.019 139.051,110.997 137.562,109.706C136.073,108.419 134.922,106.93 134.1,105.249C133.277,103.567 132.871,101.745 132.871,99.787C132.871,88.435 142.581,82.293 162.007,81.349L162.007,76.184C162.007,71.485 161.595,67.968 160.778,65.616C159.95,63.263 158.404,62.089 156.136,62.089C154.881,62.089 153.942,62.365 153.317,62.915C152.692,63.469 152.224,64.175 151.909,65.036C151.596,65.898 151.38,66.862 151.266,67.915C151.151,68.984 151.013,70.061 150.849,71.159C150.141,75.241 147.491,77.323 142.873,77.4L135.472,70.23C135.628,65.916 137.546,62.448 141.23,59.822C144.903,57.196 149.915,55.88 156.256,55.88C159.776,55.88 162.767,56.277 165.229,57.058C167.698,57.841 169.691,59.072 171.217,60.754C172.742,62.441 173.842,64.614 174.502,67.275C175.164,69.936 175.5,73.146 175.5,76.909L175.5,106.043L169.037,106.043Z" style="fill:rgb(254,253,235);fill-rule:nonzero;"/>
        <path d="M222.592,76.593C222.592,66.601 219.182,61.6 212.363,61.6C205.07,61.6 201.426,66.601 201.426,76.593C201.426,81.2 202.387,84.85 204.307,87.544C206.227,90.236 208.951,91.581 212.484,91.581C219.219,91.581 222.592,86.583 222.592,76.593ZM244.117,54.025C244.117,56.613 244.072,58.14 243.994,58.609C243.76,61.592 242.092,63.081 238.98,63.081C238.201,63.081 236.572,62.892 234.08,62.503C238.318,65.635 240.445,70.178 240.445,76.118C240.445,82.926 237.379,88.132 231.25,91.73C226.139,94.781 219.773,96.31 212.154,96.31L207.674,96.31C206.254,96.31 204.93,96.577 203.666,97.114C202.176,97.72 201.426,98.556 201.426,99.62C201.426,102.586 204.49,104.069 210.627,104.069C232.953,104.069 244.117,110.958 244.117,124.729C244.117,131.773 240.625,137.178 233.65,140.931C227.541,144.295 219.596,145.979 209.801,145.979C202.359,145.979 195.971,144.881 190.645,142.691C184.379,140.26 181.248,136.813 181.248,132.354C181.248,127.338 185.127,123.344 192.873,120.368L200.154,120.368C196.248,122.479 194.305,125.697 194.305,130.013C194.305,133.541 196.057,136.277 199.588,138.242C202.715,139.964 206.746,140.827 211.682,140.827C217.629,140.827 222.049,139.341 224.951,136.363C227.143,134.169 228.238,131.742 228.238,129.082C228.238,121.249 222.459,117.331 210.912,117.331C195.51,117.331 187.813,113.347 187.813,105.366C187.813,100.745 191.924,97.189 200.154,94.685C189.572,91.712 184.279,85.997 184.279,77.55C184.279,70.822 187.023,65.656 192.504,62.058C197.59,58.695 204.283,57.013 212.582,57.013C214.387,57.013 217.426,57.247 221.689,57.716C225.959,58.185 229.184,58.421 231.375,58.421C234.508,58.421 236.43,58.307 237.135,58.068C238.621,57.593 239.365,56.25 239.365,54.034L239.365,52.848L244.117,52.848L244.117,54.025Z" style="fill:rgb(254,253,235);fill-rule:nonzero;"/>
        <path d="M8.539,52.489L21.919,52.489L21.919,39.253L8.539,41.948L8.539,52.489Z" style="fill:rgb(254,253,235);fill-rule:nonzero;"/>
        <path d="M258.76,52.489L272.139,52.489L272.139,39.253L258.76,41.948L258.76,52.489Z" style="fill:rgb(254,253,235);fill-rule:nonzero;"/>
        <path d="M24.498,192.139L19.799,180.569L19.728,180.569L14.958,192.139L24.498,192.139ZM18.375,176.155L21.472,176.155L32.258,201.359L28.272,201.359L25.744,195.13L13.747,195.13L11.255,201.359L7.268,201.359L18.375,176.155Z" style="fill:rgb(254,253,235);fill-rule:nonzero;"/>
        <path d="M48.356,176.155L64.198,176.155L64.198,179.359L51.773,179.359L51.773,187.262L63.343,187.262L63.343,190.466L51.773,190.466L51.773,201.359L48.356,201.359L48.356,176.155Z" style="fill:rgb(254,253,235);fill-rule:nonzero;"/>
        <path d="M81.611,176.155L97.453,176.155L97.453,179.359L85.029,179.359L85.029,187.262L96.599,187.262L96.599,190.466L85.029,190.466L85.029,201.359L81.611,201.359L81.611,176.155Z" style="fill:rgb(254,253,235);fill-rule:nonzero;"/>
        <rect x="114.867" y="176.155" width="3.417" height="25.204" style="fill:rgb(254,253,235);fill-rule:nonzero;"/>
        <path d="M155.134,181.602C153.71,179.751 151.36,178.719 149.046,178.719C143.386,178.719 139.648,183.239 139.648,188.97C139.648,194.275 143.173,198.796 149.046,198.796C151.93,198.796 154.137,197.514 155.632,195.414L158.516,197.586C157.768,198.618 154.742,202 148.975,202C140.966,202 136.018,195.307 136.018,188.97C136.018,181.139 141.393,175.514 149.153,175.514C152.464,175.514 155.953,176.761 157.982,179.43L155.134,181.602Z" style="fill:rgb(254,253,235);fill-rule:nonzero;"/>
        <path d="M175.467,176.155L178.885,176.155L178.885,186.621L191.949,186.621L191.949,176.155L195.367,176.155L195.367,201.359L191.949,201.359L191.949,189.825L178.885,189.825L178.885,201.359L175.467,201.359L175.467,176.155Z" style="fill:rgb(254,253,235);fill-rule:nonzero;"/>
        <path d="M228.695,192.139L223.996,180.569L223.926,180.569L219.154,192.139L228.695,192.139ZM222.572,176.155L225.67,176.155L236.457,201.359L232.469,201.359L229.941,195.13L217.945,195.13L215.453,201.359L211.465,201.359L222.572,176.155Z" style="fill:rgb(254,253,235);fill-rule:nonzero;"/>
        <path d="M274.02,187.262L274.02,199.686C271.563,201.181 267.541,202 264.479,202C255.936,202 250.986,195.913 250.986,188.758C250.986,181.281 256.433,175.514 264.123,175.514C268.75,175.514 271.563,176.761 273.521,178.79L271.1,181.388C269.035,179.394 266.65,178.719 264.123,178.719C258.355,178.719 254.619,183.239 254.619,188.758C254.619,194.453 258.854,198.796 264.408,198.796C266.793,198.796 269.07,198.333 270.602,197.479L270.602,190.466L265.014,190.466L265.014,187.262L274.02,187.262Z" style="fill:rgb(254,253,235);fill-rule:nonzero;"/>
        <path d="M293.072,176.155L309.342,176.155L309.342,179.359L296.49,179.359L296.49,186.871L308.451,186.871L308.451,190.074L296.49,190.074L296.49,198.155L309.982,198.155L309.982,201.359L293.072,201.359L293.072,176.155Z" style="fill:rgb(254,253,235);fill-rule:nonzero;"/>
    </g>
</svg>
