<?xml version="1.0" encoding="UTF-8" standalone="no"?>
<!DOCTYPE svg PUBLIC "-//W3C//DTD SVG 1.1//EN" "http://www.w3.org/Graphics/SVG/1.1/DTD/svg11.dtd">
<svg width="100%" height="100%" viewBox="0 0 385 265" version="1.1" xmlns="http://www.w3.org/2000/svg" xmlns:xlink="http://www.w3.org/1999/xlink" xml:space="preserve" xmlns:serif="http://www.serif.com/" style="fill-rule:evenodd;clip-rule:evenodd;stroke-linejoin:round;stroke-miterlimit:2;">
    <g transform="matrix(0.890902,0,0,0.890902,163.693,102.694)">
        <path d="M0,-1.504C-0.217,-15.678 -7.017,-32.497 -38.22,-32.015L-71.522,-31.969L-71.524,30.993L-37.261,30.51C-6.07,29.997 0.239,12.845 0,-1.504" style="fill:rgb(254,253,235);fill-rule:nonzero;"/>
    </g>
    <g transform="matrix(0.890902,0,0,0.890902,340.592,178.248)">
        <path d="M0,-147.323L-42.755,-147.323L-90.923,-65.453L-140.5,-147.365L-166.161,-147.432C-189.659,-173.824 -220.782,-184.322 -250.025,-183.875C-311.013,-182.958 -359.69,-132.843 -358.774,-71.848C-358.259,-35.308 -342.336,-3.129 -314.689,16.514L-314.641,-147.673L-234.934,-147.673C-209.01,-148.053 -187.908,-142.803 -173.839,-130.621C-161.426,-119.806 -154.701,-104.699 -154.444,-86.956C-154.177,-68.92 -160.436,-53.512 -172.51,-42.319C-186.14,-29.786 -207.027,-22.967 -233.018,-22.531L-270.086,-22.005L-270.086,35.132C-263.091,36.439 -254.047,36.999 -246.675,36.935C-227.209,36.619 -208.992,31.275 -193.251,22.206C-167.061,7.089 -147.681,-18.447 -140.756,-48.669C-139.502,-54.161 -138.667,-59.751 -138.24,-65.52L-104.562,-8.692L-75.547,-8.692L-35.051,-82.406L-20.029,15.681L25.23,15.681L0,-147.323Z" style="fill:rgb(254,253,235);fill-rule:nonzero;"/>
    </g>
    <g transform="matrix(-0.890796,0.0137647,0.0137647,0.890796,80.6828,103.404)">
        <path d="M0.245,-33.21C-8.908,-33.219 -16.352,-25.74 -16.37,-16.606C-16.364,-7.398 -8.871,0.007 0.245,0.058C9.467,0.011 16.889,-7.425 16.886,-16.606C16.867,-25.741 9.43,-33.21 0.245,-33.21" style="fill:rgb(254,253,235);fill-rule:nonzero;"/>
    </g>
    <g transform="matrix(-0.890789,0.0142288,0.0142288,0.890789,80.5922,127.854)">
        <path d="M0.178,-22.142C-5.942,-22.152 -10.91,-17.186 -10.883,-11.064C-10.899,-4.935 -5.909,0.024 0.178,0.022C6.295,0.011 11.247,-4.966 11.258,-11.055C11.255,-17.197 6.269,-22.155 0.178,-22.142" style="fill:rgb(254,253,235);fill-rule:nonzero;"/>
    </g>
    <g transform="matrix(-0.890805,0.0131417,0.0131417,0.890805,80.493,144.687)">
        <path d="M0.066,-14.747C-3.99,-14.756 -7.292,-11.428 -7.274,-7.368C-7.312,-3.289 -3.987,0.016 0.066,0.031C4.177,0.008 7.46,-3.29 7.471,-7.357C7.487,-11.417 4.182,-14.732 0.066,-14.747" style="fill:rgb(254,253,235);fill-rule:nonzero;"/>
    </g>
    <g transform="matrix(0.38227,-0.804721,-0.804721,-0.38227,293.083,227.509)">
        <path d="M-0.491,5.732L6.715,5.732L9.069,0.777L0.996,2.602L-0.491,5.732Z" style="fill:rgb(254,253,235);fill-rule:nonzero;"/>
    </g>
    <g transform="matrix(0.890902,0,0,0.890902,40.3653,245.658)">
        <path d="M0,-16.81L0,-7.87L6.436,-7.87C9.833,-7.87 11.979,-10.015 11.979,-12.339C11.979,-14.664 9.833,-16.81 6.436,-16.81L0,-16.81ZM6.436,-20.921C13.41,-20.921 17.165,-17.167 17.165,-12.339C17.165,-7.512 13.41,-3.756 6.436,-3.756L0,-3.756L0,4.111L-5.008,4.111L-5.008,-20.921L6.436,-20.921Z" style="fill:rgb(254,253,235);fill-rule:nonzero;"/>
    </g>
    <g transform="matrix(0.890902,0,0,0.890902,65.0905,235.304)">
        <path d="M0,6.434L8.762,6.434L4.471,-3.936L4.292,-3.936L0,6.434ZM17.881,15.733L12.517,15.733L10.55,10.726L-1.787,10.726L-3.754,15.733L-9.119,15.733L1.252,-9.299L7.511,-9.299L17.881,15.733Z" style="fill:rgb(254,253,235);fill-rule:nonzero;"/>
    </g>
    <g transform="matrix(0.890902,0,0,0.890902,99.8209,234.028)">
        <path d="M0,9.298L0,-7.867L5.007,-7.867L5.007,17.165L-0.357,17.165L-12.695,0L-12.874,0L-12.874,17.165L-17.88,17.165L-17.88,-7.867L-12.516,-7.867L-0.179,9.298L0,9.298Z" style="fill:rgb(254,253,235);fill-rule:nonzero;"/>
    </g>
    <g transform="matrix(0.890902,0,0,0.890902,120.118,246.135)">
        <path d="M0,-17.881C-4.648,-17.881 -8.225,-14.305 -8.225,-8.941C-8.225,-3.576 -4.648,-0.001 0,-0.001C4.649,-0.001 8.225,-3.576 8.225,-8.941C8.225,-14.305 4.649,-17.881 0,-17.881M0,-22.172C7.867,-22.172 13.41,-16.629 13.41,-8.941C13.41,-1.252 7.867,4.291 0,4.291C-7.867,4.291 -13.41,-1.252 -13.41,-8.941C-13.41,-16.629 -7.867,-22.172 0,-22.172" style="fill:rgb(254,253,235);fill-rule:nonzero;"/>
    </g>
    <g transform="matrix(0.890902,0,0,0.890902,146.151,245.658)">
        <path d="M0,-16.81L-6.437,-16.81L-6.437,-8.584L0,-8.584C3.397,-8.584 5.186,-10.73 5.186,-12.697C5.186,-15.021 3.397,-16.81 0,-16.81M0,-20.921C6.794,-20.921 10.371,-17.346 10.371,-12.697C10.371,-7.332 5.722,-5.545 5.722,-5.545L5.722,-5.367L12.337,4.111L6.437,4.111L0.536,-4.472L-6.437,-4.472L-6.437,4.111L-11.443,4.111L-11.443,-20.921L0,-20.921Z" style="fill:rgb(254,253,235);fill-rule:nonzero;"/>
    </g>
    <g transform="matrix(0.890902,0,0,0.890902,166.003,235.304)">
        <path d="M0,6.434L8.761,6.434L4.47,-3.936L4.29,-3.936L0,6.434ZM17.879,15.733L12.516,15.733L10.549,10.726L-1.789,10.726L-3.756,15.733L-9.119,15.733L1.251,-9.299L7.509,-9.299L17.879,15.733Z" style="fill:rgb(254,253,235);fill-rule:nonzero;"/>
    </g>
    <g transform="matrix(0.890902,0,0,0.890902,196.05,230.206)">
        <path d="M0,17.878L-6.258,4.469L-6.437,4.469L-8.404,21.455L-13.589,21.455L-10.549,-3.577L-5.007,-3.577L2.146,11.978L2.325,11.978L9.477,-3.577L15.02,-3.577L18.06,21.455L12.874,21.455L10.907,4.469L10.729,4.469L4.471,17.878L0,17.878Z" style="fill:rgb(254,253,235);fill-rule:nonzero;"/>
    </g>
    <g transform="matrix(0.890902,0,0,0.890902,222.274,235.304)">
        <path d="M0,6.434L8.762,6.434L4.471,-3.936L4.292,-3.936L0,6.434ZM17.881,15.733L12.517,15.733L10.55,10.726L-1.787,10.726L-3.754,15.733L-9.118,15.733L1.252,-9.299L7.511,-9.299L17.881,15.733Z" style="fill:rgb(254,253,235);fill-rule:nonzero;"/>
    </g>
    <g transform="matrix(0.890902,0,0,0.890902,261.561,230.206)">
        <path d="M0,17.878L-6.258,4.469L-6.437,4.469L-8.403,21.455L-13.589,21.455L-10.549,-3.577L-5.006,-3.577L2.146,11.978L2.325,11.978L9.477,-3.577L15.02,-3.577L18.06,21.455L12.874,21.455L10.908,4.469L10.729,4.469L4.471,17.878L0,17.878Z" style="fill:rgb(254,253,235);fill-rule:nonzero;"/>
    </g>
    <g transform="matrix(0.890902,0,0,0.890902,281.956,249.321)">
        <path d="M0,-25.032L20.026,-25.032L20.026,-20.921L5.007,-20.921L5.007,-14.483L15.378,-14.483L15.378,-10.371L5.007,-10.371L5.007,-4.113L20.384,-4.113L20.384,0L0,0L0,-25.032Z" style="fill:rgb(254,253,235);fill-rule:nonzero;"/>
    </g>
    <g transform="matrix(0.890902,0,0,0.890902,308.02,245.658)">
        <path d="M0,-16.81L0,-0.002L4.649,-0.002C9.477,-0.002 12.874,-3.399 12.874,-8.406C12.874,-13.413 9.477,-16.81 4.649,-16.81L0,-16.81ZM4.649,-20.921C12.695,-20.921 18.059,-15.558 18.059,-8.406C18.059,-1.075 12.695,4.111 4.649,4.111L-5.007,4.111L-5.007,-20.921L4.649,-20.921Z" style="fill:rgb(254,253,235);fill-rule:nonzero;"/>
    </g>
    <g transform="matrix(-0.890902,0,0,0.890902,825.552,53.6734)">
        <rect x="553.475" y="194.574" width="5.006" height="25.032" style="fill:rgb(254,253,235);"/>
    </g>
    <g transform="matrix(0.890902,0,0,0.890902,343.452,235.304)">
        <path d="M0,6.434L8.761,6.434L4.47,-3.936L4.291,-3.936L0,6.434ZM17.88,15.733L12.516,15.733L10.55,10.726L-1.788,10.726L-3.755,15.733L-9.118,15.733L1.252,-9.299L7.51,-9.299L17.88,15.733Z" style="fill:rgb(254,253,235);fill-rule:nonzero;"/>
    </g>
</svg>
