<?xml version="1.0" encoding="UTF-8" standalone="no"?>
<!DOCTYPE svg PUBLIC "-//W3C//DTD SVG 1.1//EN" "http://www.w3.org/Graphics/SVG/1.1/DTD/svg11.dtd">
<svg width="100%" height="100%" viewBox="0 0 1471 631" version="1.1" xmlns="http://www.w3.org/2000/svg" xmlns:xlink="http://www.w3.org/1999/xlink" xml:space="preserve" xmlns:serif="http://www.serif.com/" style="fill-rule:evenodd;clip-rule:evenodd;stroke-linejoin:round;stroke-miterlimit:2;">
    <g transform="matrix(1,0,0,1,-1184.5,-763.677)">
        <path d="M2621.5,764.5C2637.67,761.328 2648.51,767.328 2654,782.5C2654.67,789.833 2654.67,797.167 2654,804.5C2648.71,880.245 2642.71,955.911 2636,1031.5C2631.65,1044.51 2623.15,1053.68 2610.5,1059C2574.2,1065.72 2537.86,1072.22 2501.5,1078.5C2507.27,999.601 2513.27,920.768 2519.5,842C2518.65,840.978 2517.65,840.145 2516.5,839.5C2507.53,841.019 2498.53,842.352 2489.5,843.5C2490.45,824.799 2491.79,806.133 2493.5,787.5C2536.37,780.246 2579.03,772.579 2621.5,764.5ZM2579.5,818.5C2584.74,818.023 2589.74,818.856 2594.5,821C2597.81,824.089 2599.48,827.922 2599.5,832.5C2595.29,887.162 2591.12,941.829 2587,996.5C2583.23,1006.1 2576.4,1012.43 2566.5,1015.5C2563.46,1013.92 2561.79,1011.42 2561.5,1008C2566.6,945.2 2571.27,882.367 2575.5,819.5C2577.1,819.768 2578.43,819.434 2579.5,818.5Z" style="fill:rgb(254,253,235);fill-opacity:0.96;"/>
    </g>
    <g transform="matrix(1,0,0,1,-1184.5,-763.677)">
        <path d="M2467.5,791.5L2473.5,791.5C2466.71,889.718 2459.38,987.884 2451.5,1086C2451.09,1086.95 2450.43,1087.61 2449.5,1088C2433.17,1090.83 2416.83,1093.67 2400.5,1096.5C2399.5,1096.17 2398.5,1095.83 2397.5,1095.5C2386.35,1044.25 2375.52,992.913 2365,941.5C2360.22,996.093 2356.05,1050.76 2352.5,1105.5C2334.15,1108.37 2315.82,1111.37 2297.5,1114.5C2304.92,1015.84 2312.42,917.169 2320,818.5C2338.08,814.851 2356.25,811.518 2374.5,808.5C2385.69,849.563 2397.19,890.563 2409,931.5C2412.69,887.845 2416.19,844.178 2419.5,800.5C2435.7,797.913 2451.7,794.913 2467.5,791.5Z" style="fill:rgb(254,253,235);fill-opacity:0.96;"/>
    </g>
    <g transform="matrix(1,0,0,1,-1184.5,-763.677)">
        <path d="M2292.5,822.5L2296.5,822.5C2295.71,841.236 2294.21,859.903 2292,878.5C2271.21,882.559 2250.37,886.559 2229.5,890.5C2227.36,910.032 2225.36,929.532 2223.5,949C2239.55,947.048 2255.55,944.548 2271.5,941.5C2270.78,959.9 2269.44,978.234 2267.5,996.5C2252.04,1000.39 2236.37,1003.39 2220.5,1005.5C2218.53,1027.47 2216.86,1049.47 2215.5,1071.5C2236.8,1067.95 2258.14,1064.62 2279.5,1061.5C2277.86,1080.14 2276.36,1098.8 2275,1117.5C2274.5,1118 2274,1118.5 2273.5,1119C2232.8,1126.06 2192.13,1133.23 2151.5,1140.5C2158.69,1041.49 2166.02,942.486 2173.5,843.5C2213.39,837.02 2253.05,830.02 2292.5,822.5Z" style="fill:rgb(254,253,235);fill-opacity:0.96;"/>
    </g>
    <g transform="matrix(1,0,0,1,-1184.5,-763.677)">
        <path d="M2116.5,853.5C2132.02,852.325 2142.18,858.991 2147,873.5C2146.51,902.217 2144.84,930.884 2142,959.5C2140.26,966.492 2136.42,971.992 2130.5,976C2123.48,979.726 2116.15,982.56 2108.5,984.5L2108.5,989.5C2115.55,988.042 2122.55,988.209 2129.5,990C2134.44,992.697 2137.27,996.864 2138,1002.5C2136.47,1038.2 2134.14,1073.86 2131,1109.5C2129.3,1128.73 2119.47,1141.9 2101.5,1149C2064.57,1156.1 2027.57,1162.43 1990.5,1168C1995.56,1090.01 2001.23,1011.84 2007.5,933.5C2007.75,930.253 2006.25,928.92 2003,929.5C1994.54,931.45 1986.04,932.117 1977.5,931.5C1979.14,913.635 1980.81,895.802 1982.5,878C2027.32,869.921 2071.99,861.755 2116.5,853.5ZM2068.5,906.5C2074.76,905.872 2080.76,906.705 2086.5,909C2088.8,911.545 2090.13,914.545 2090.5,918C2089.61,931.586 2088.11,945.086 2086,958.5C2080.8,965.038 2074.47,970.038 2067,973.5C2064.32,972.314 2062.48,970.314 2061.5,967.5C2063.24,949.547 2064.74,931.547 2066,913.5C2066.17,910.823 2067,908.49 2068.5,906.5ZM2061.5,1017.5C2072.91,1014.76 2079.91,1018.93 2082.5,1030C2080.72,1049.49 2078.88,1068.99 2077,1088.5C2074.4,1096.22 2069.24,1101.39 2061.5,1104C2059.3,1104.82 2057.47,1104.32 2056,1102.5C2055.38,1100.88 2054.38,1099.55 2053,1098.5C2054.25,1071.81 2056.08,1045.14 2058.5,1018.5C2059.79,1018.74 2060.79,1018.4 2061.5,1017.5Z" style="fill:rgb(254,253,235);fill-opacity:0.96;"/>
    </g>
    <g transform="matrix(1,0,0,1,-1184.5,-763.677)">
        <path d="M1935.5,885.5C1951.26,883.133 1961.43,889.466 1966,904.5C1965.57,930.863 1964.24,957.197 1962,983.5C1961.73,1000.17 1958.4,1016.17 1952,1031.5C1948.35,1038.14 1943.35,1043.48 1937,1047.5C1936.83,1048.5 1936.67,1049.5 1936.5,1050.5C1944.63,1091.82 1952.63,1133.15 1960.5,1174.5C1940.79,1177.58 1921.12,1180.91 1901.5,1184.5C1895.88,1144.42 1889.71,1104.42 1883,1064.5C1881.64,1065.38 1880.14,1065.71 1878.5,1065.5C1875.19,1106.81 1872.03,1148.14 1869,1189.5C1850.27,1193.54 1831.44,1197.21 1812.5,1200.5C1812.17,1198.67 1811.83,1196.83 1811.5,1195C1817.56,1117.18 1823.06,1039.35 1828,961.5C1827.59,961.043 1827.09,960.709 1826.5,960.5C1817.59,962.392 1808.59,963.725 1799.5,964.5C1800.48,947.492 1801.64,930.492 1803,913.5C1803.22,912.062 1803.72,910.729 1804.5,909.5C1848.31,901.59 1891.97,893.59 1935.5,885.5ZM1890.5,942.5C1896.11,941.908 1901.44,942.741 1906.5,945C1909.89,947.869 1911.22,951.536 1910.5,956C1909.28,975.251 1907.44,994.418 1905,1013.5C1901,1021.77 1894.5,1027.1 1885.5,1029.5C1882.09,1027.71 1880.76,1024.88 1881.5,1021C1883.34,995.137 1885.34,969.304 1887.5,943.5C1888.79,943.737 1889.79,943.404 1890.5,942.5Z" style="fill:rgb(254,253,235);fill-opacity:0.97;"/>
    </g>
    <g transform="matrix(1,0,0,1,-1184.5,-763.677)">
        <path d="M1782.5,912.5L1789.5,912.5C1788.52,931.196 1787.19,949.863 1785.5,968.5C1762.86,972.628 1740.19,976.628 1717.5,980.5C1716.3,999.756 1714.63,1018.92 1712.5,1038C1728.55,1036.05 1744.55,1033.55 1760.5,1030.5C1759.62,1049.21 1758.29,1067.88 1756.5,1086.5C1740.85,1089.27 1725.19,1091.94 1709.5,1094.5C1707.53,1116.47 1705.86,1138.47 1704.5,1160.5C1727.17,1156.83 1749.84,1153.17 1772.5,1149.5C1770.79,1169.16 1769.12,1188.83 1767.5,1208.5C1725.17,1215.83 1682.83,1223.17 1640.5,1230.5C1647.39,1131.77 1654.89,1033.11 1663,934.5C1702.94,927.211 1742.77,919.878 1782.5,912.5Z" style="fill:rgb(254,253,235);fill-opacity:0.96;"/>
    </g>
    <g transform="matrix(1,0,0,1,-1184.5,-763.677)">
        <path d="M1640.5,937.5L1644.5,937.5C1622.86,1038.53 1601.03,1139.53 1579,1240.5C1557.11,1245.73 1534.94,1249.73 1512.5,1252.5C1504.29,1156.49 1495.95,1060.49 1487.5,964.5C1506.8,961.283 1526.13,958.283 1545.5,955.5C1547.42,1019.52 1549.75,1083.52 1552.5,1147.5C1564.69,1081.03 1576.02,1014.36 1586.5,947.5C1604.69,944.527 1622.69,941.193 1640.5,937.5Z" style="fill:rgb(254,253,235);fill-opacity:0.95;"/>
    </g>
    <g transform="matrix(1,0,0,1,-1184.5,-763.677)">
        <path d="M1459.5,969.5L1465.5,969.5C1458.69,1068.18 1451.69,1166.85 1444.5,1265.5C1424.52,1268.96 1404.52,1272.3 1384.5,1275.5C1391.76,1176.8 1399.43,1078.13 1407.5,979.5C1424.95,976.15 1442.29,972.816 1459.5,969.5Z" style="fill:rgb(254,253,235);fill-opacity:0.96;"/>
    </g>
    <g transform="matrix(1,0,0,1,-1184.5,-763.677)">
        <path d="M1345.5,989.5C1361.33,987.646 1371.16,994.313 1375,1009.5C1374.09,1038.19 1372.43,1066.86 1370,1095.5C1369.49,1111.87 1364.83,1126.87 1356,1140.5C1352.61,1144.39 1348.78,1147.73 1344.5,1150.5C1353.81,1193.04 1362.48,1235.71 1370.5,1278.5C1350.85,1281.94 1331.19,1285.27 1311.5,1288.5C1304.93,1247.75 1297.93,1207.09 1290.5,1166.5C1289.26,1167.25 1287.93,1167.58 1286.5,1167.5C1283.9,1209.88 1280.74,1252.21 1277,1294.5C1257.63,1298.42 1238.13,1301.76 1218.5,1304.5C1224.82,1224.52 1230.65,1144.52 1236,1064.5C1235.44,1063.98 1234.77,1063.64 1234,1063.5C1224.9,1065.32 1215.74,1066.66 1206.5,1067.5C1208.21,1049.54 1209.54,1031.54 1210.5,1013.5C1255.72,1006.02 1300.72,998.02 1345.5,989.5ZM1304.5,1043.5C1311.09,1043.51 1315.59,1046.51 1318,1052.5C1317.13,1072.84 1315.79,1093.17 1314,1113.5C1311.36,1124.14 1304.69,1130.81 1294,1133.5C1292.13,1131.97 1290.63,1130.13 1289.5,1128C1292.03,1100.55 1294.03,1073.05 1295.5,1045.5C1298.69,1045.14 1301.69,1044.47 1304.5,1043.5Z" style="fill:rgb(254,253,235);fill-opacity:0.96;"/>
    </g>
    <g transform="matrix(1,0,0,1,-1184.5,-763.677)">
        <path d="M2627.5,1082.5L2633.5,1082.5C2632.49,1092.81 2631.66,1103.14 2631,1113.5C2148.93,1199.21 1666.77,1284.54 1184.5,1369.5C1185.17,1358.5 1185.83,1347.5 1186.5,1336.5C1667.09,1252.57 2147.42,1167.9 2627.5,1082.5Z" style="fill:rgb(254,253,235);fill-opacity:0.93;"/>
    </g>
    <g transform="matrix(1,0,0,1,-1184.5,-763.677)">
        <path d="M2234.5,1232.5L2242.5,1232.5C2241.84,1235.46 2241.51,1238.46 2241.5,1241.5C2235.78,1241.9 2230.11,1242.73 2224.5,1244C2223.57,1244.39 2222.91,1245.05 2222.5,1246C2221.61,1249.19 2221.11,1252.35 2221,1255.5C2226.36,1253.91 2231.86,1252.91 2237.5,1252.5C2237.22,1255.25 2236.55,1257.92 2235.5,1260.5C2229.9,1261.52 2224.4,1262.85 2219,1264.5C2218.54,1268.45 2217.7,1272.28 2216.5,1276C2222.82,1275.39 2229.15,1274.56 2235.5,1273.5C2235.8,1277.16 2234.8,1280.33 2232.5,1283C2223.53,1284.72 2214.53,1286.22 2205.5,1287.5C2207.65,1270.42 2210.32,1253.42 2213.5,1236.5C2220.72,1235.69 2227.72,1234.35 2234.5,1232.5Z" style="fill:rgb(254,253,235);fill-opacity:0.75;"/>
    </g>
    <g transform="matrix(1,0,0,1,-1184.5,-763.677)">
        <path d="M2189.5,1240.5L2195.5,1240.5C2193.21,1257.25 2190.38,1273.92 2187,1290.5C2183.95,1291.61 2180.78,1292.28 2177.5,1292.5C2179.65,1275.42 2182.32,1258.42 2185.5,1241.5C2187.1,1241.77 2188.43,1241.43 2189.5,1240.5Z" style="fill:rgb(254,253,235);fill-opacity:0.76;"/>
    </g>
    <g transform="matrix(1,0,0,1,-1184.5,-763.677)">
        <path d="M2149.5,1247.5C2163.21,1244.71 2168.71,1250.04 2166,1263.5C2164.07,1268.43 2160.57,1271.59 2155.5,1273C2156.67,1273.5 2157.5,1274.33 2158,1275.5C2158.95,1282.5 2160.78,1289.17 2163.5,1295.5C2159.52,1296.02 2155.52,1296.35 2151.5,1296.5C2150.76,1290.15 2149.43,1283.99 2147.5,1278C2145.83,1277.33 2144.17,1277.33 2142.5,1278C2140.5,1284.68 2139,1291.51 2138,1298.5C2135.14,1299.92 2132.14,1300.92 2129,1301.5C2128.13,1300.89 2127.63,1300.06 2127.5,1299C2130.49,1283.2 2133.33,1267.37 2136,1251.5C2140.46,1249.72 2144.96,1248.38 2149.5,1247.5ZM2149.5,1256.5C2157.64,1257.55 2158.64,1261.05 2152.5,1267C2149.64,1267.84 2146.8,1268.67 2144,1269.5C2143.67,1266.13 2144,1262.8 2145,1259.5C2146.31,1258.1 2147.81,1257.1 2149.5,1256.5Z" style="fill:rgb(254,253,235);fill-opacity:0.77;"/>
    </g>
    <g transform="matrix(1,0,0,1,-1184.5,-763.677)">
        <path d="M2115.5,1253.5C2117.29,1253.21 2118.95,1253.55 2120.5,1254.5C2119.79,1256.78 2119.29,1259.11 2119,1261.5C2112.89,1263.33 2106.72,1264.99 2100.5,1266.5C2099.62,1269.79 2098.95,1273.12 2098.5,1276.5C2103.53,1275.63 2108.53,1274.63 2113.5,1273.5C2114.65,1276.11 2114.82,1278.77 2114,1281.5C2108.64,1283.15 2103.14,1284.31 2097.5,1285C2096.39,1288.98 2095.39,1292.98 2094.5,1297C2100.82,1296.73 2107.16,1296.23 2113.5,1295.5C2112.84,1298.46 2112.51,1301.46 2112.5,1304.5C2102.53,1306.05 2092.53,1307.38 2082.5,1308.5C2085.35,1291.76 2088.51,1275.09 2092,1258.5C2099.92,1256.77 2107.75,1255.1 2115.5,1253.5Z" style="fill:rgb(254,253,235);fill-opacity:0.75;"/>
    </g>
    <g transform="matrix(1,0,0,1,-1184.5,-763.677)">
        <path d="M2053.5,1263.5C2067,1261.67 2072.67,1267.33 2070.5,1280.5C2067.98,1281.79 2065.31,1282.45 2062.5,1282.5C2063.45,1274.62 2060.12,1271.45 2052.5,1273C2048.51,1274.94 2047.85,1277.61 2050.5,1281C2054.24,1283.73 2058.24,1286.07 2062.5,1288C2070.74,1295.04 2071.41,1302.71 2064.5,1311C2057.27,1315.49 2049.6,1316.49 2041.5,1314C2035.35,1310.29 2032.68,1304.79 2033.5,1297.5C2036.79,1296.63 2040.12,1295.96 2043.5,1295.5C2042.76,1301.37 2045.1,1305.37 2050.5,1307.5C2053.37,1306.82 2055.87,1305.48 2058,1303.5C2058.67,1301.83 2058.67,1300.17 2058,1298.5C2052.33,1294.5 2046.67,1290.5 2041,1286.5C2036.88,1278.99 2038.05,1272.49 2044.5,1267C2047.57,1265.7 2050.57,1264.54 2053.5,1263.5Z" style="fill:rgb(254,253,235);fill-opacity:0.75;"/>
    </g>
    <g transform="matrix(1,0,0,1,-1184.5,-763.677)">
        <path d="M2002.5,1272.5C2016.14,1270.14 2022.47,1275.81 2021.5,1289.5C2018.5,1290.17 2015.5,1290.83 2012.5,1291.5C2013.95,1282.78 2010.62,1279.61 2002.5,1282C1997.44,1284.73 1997.44,1287.73 2002.5,1291C2006.5,1293.33 2010.5,1295.67 2014.5,1298C2021.63,1306.42 2020.96,1314.09 2012.5,1321C2003.6,1326.06 1995.1,1325.56 1987,1319.5C1984.89,1315.43 1983.72,1311.1 1983.5,1306.5C1986.79,1305.63 1990.12,1304.96 1993.5,1304.5C1992.89,1312.73 1996.56,1316.23 2004.5,1315C2009.86,1312.39 2010.53,1309.06 2006.5,1305C2000.73,1302.37 1995.56,1298.87 1991,1294.5C1986.63,1282.92 1990.46,1275.58 2002.5,1272.5Z" style="fill:rgb(254,253,235);fill-opacity:0.75;"/>
    </g>
    <g transform="matrix(1,0,0,1,-1184.5,-763.677)">
        <path d="M1961.5,1280.5L1965.5,1280.5C1967.33,1296.5 1968.83,1312.5 1970,1328.5C1967.25,1329.65 1964.42,1330.15 1961.5,1330C1960.97,1326.98 1959.97,1324.15 1958.5,1321.5C1954.54,1322.44 1950.54,1323.27 1946.5,1324C1944.64,1327.25 1942.97,1330.58 1941.5,1334C1938.96,1334.34 1936.46,1334.84 1934,1335.5C1932.72,1335.39 1931.89,1334.72 1931.5,1333.5C1938.94,1316.95 1946.11,1300.28 1953,1283.5C1955.8,1282.13 1958.64,1281.13 1961.5,1280.5ZM1956.5,1296.5C1957.12,1296.61 1957.62,1296.94 1958,1297.5C1958.32,1302.87 1958.82,1308.2 1959.5,1313.5C1956.48,1313.7 1953.48,1314.04 1950.5,1314.5C1952.5,1308.5 1954.5,1302.5 1956.5,1296.5Z" style="fill:rgb(254,253,235);fill-opacity:0.78;"/>
    </g>
    <g transform="matrix(1,0,0,1,-1184.5,-763.677)">
        <path d="M1910.5,1289.5C1924.4,1288.29 1928.9,1294.29 1924,1307.5C1921.97,1311.03 1919.14,1313.69 1915.5,1315.5C1917.34,1323.05 1919.67,1330.39 1922.5,1337.5C1918.81,1338.46 1915.14,1338.46 1911.5,1337.5C1910.18,1332.93 1909.35,1328.27 1909,1323.5C1907.6,1319.69 1905.1,1318.69 1901.5,1320.5C1900.15,1327.59 1898.49,1334.59 1896.5,1341.5C1893.83,1342.17 1891.17,1342.83 1888.5,1343.5C1888.17,1342.5 1887.83,1341.5 1887.5,1340.5C1890.56,1324.55 1893.22,1308.55 1895.5,1292.5C1900.7,1291.86 1905.7,1290.86 1910.5,1289.5ZM1909.5,1298.5C1915.59,1298.41 1917.43,1301.08 1915,1306.5C1911.48,1310.16 1907.31,1311.5 1902.5,1310.5C1903.49,1306.89 1904.16,1303.23 1904.5,1299.5C1906.41,1299.78 1908.08,1299.45 1909.5,1298.5Z" style="fill:rgb(254,253,235);fill-opacity:0.81;"/>
    </g>
    <g transform="matrix(1,0,0,1,-1184.5,-763.677)">
        <path d="M1859.5,1298.5C1874.04,1295.87 1879.21,1301.53 1875,1315.5C1873.83,1318 1872,1319.83 1869.5,1321C1874.21,1325.33 1875.37,1330.5 1873,1336.5C1870.44,1342.06 1866.27,1345.89 1860.5,1348C1852.82,1349.5 1845.15,1351 1837.5,1352.5C1837.17,1351.83 1836.83,1351.17 1836.5,1350.5C1839.33,1334.83 1842.17,1319.17 1845,1303.5C1845.5,1302.33 1846.33,1301.5 1847.5,1301C1851.7,1300.47 1855.7,1299.64 1859.5,1298.5ZM1857.5,1307.5C1867.03,1306.83 1868.7,1310 1862.5,1317C1859.32,1318.46 1855.99,1319.29 1852.5,1319.5C1852.89,1316.16 1853.39,1312.83 1854,1309.5C1855.3,1308.92 1856.47,1308.25 1857.5,1307.5ZM1855.5,1326.5C1863.38,1325.95 1865.54,1329.28 1862,1336.5C1858.1,1339.72 1853.6,1341.38 1848.5,1341.5C1849.17,1336.83 1849.83,1332.17 1850.5,1327.5C1852.41,1327.78 1854.08,1327.45 1855.5,1326.5Z" style="fill:rgb(254,253,235);fill-opacity:0.79;"/>
    </g>
    <g transform="matrix(1,0,0,1,-1184.5,-763.677)">
        <path d="M1803.5,1307.5C1817.98,1305.14 1825.31,1311.31 1825.5,1326C1825.01,1335.14 1822.51,1343.64 1818,1351.5C1811.48,1358.34 1803.65,1360.51 1794.5,1358C1787.99,1353.83 1785.32,1347.83 1786.5,1340C1786.11,1329.52 1789.11,1320.18 1795.5,1312C1798.1,1310.2 1800.77,1308.7 1803.5,1307.5ZM1804.5,1316.5C1811.45,1315.45 1815.12,1318.45 1815.5,1325.5C1814.93,1333.63 1812.6,1341.13 1808.5,1348C1801.04,1352.27 1796.71,1350.1 1795.5,1341.5C1796.47,1335.81 1797.64,1330.14 1799,1324.5C1800.27,1321.4 1802.11,1318.74 1804.5,1316.5Z" style="fill:rgb(254,253,235);fill-opacity:0.77;"/>
    </g>
    <g transform="matrix(1,0,0,1,-1184.5,-763.677)">
        <path d="M1756.5,1316.5C1772.78,1314.7 1777.61,1321.37 1771,1336.5C1768.59,1338.96 1765.76,1340.79 1762.5,1342C1763.7,1342.9 1764.53,1344.07 1765,1345.5C1765.77,1351.57 1767.61,1357.23 1770.5,1362.5C1770.29,1363.09 1769.96,1363.59 1769.5,1364C1765.89,1364.94 1762.22,1365.44 1758.5,1365.5C1757.47,1359.48 1756.31,1353.48 1755,1347.5C1751.91,1345.78 1749.58,1346.45 1748,1349.5C1747.02,1355.55 1745.86,1361.55 1744.5,1367.5C1741.52,1369 1738.35,1370 1735,1370.5C1737.01,1353.78 1739.67,1337.11 1743,1320.5C1743.5,1320 1744,1319.5 1744.5,1319C1748.7,1318.47 1752.7,1317.64 1756.5,1316.5ZM1756.5,1325.5C1762.92,1325.08 1764.75,1327.75 1762,1333.5C1758.81,1336.26 1755.15,1337.93 1751,1338.5C1750.83,1334.51 1751,1330.51 1751.5,1326.5C1753.41,1326.78 1755.08,1326.45 1756.5,1325.5Z" style="fill:rgb(254,253,235);fill-opacity:0.77;"/>
    </g>
    <g transform="matrix(1,0,0,1,-1184.5,-763.677)">
        <path d="M1706.5,1324.5C1718.81,1324.81 1724.48,1331.15 1723.5,1343.5C1720.17,1344.17 1716.83,1344.83 1713.5,1345.5C1714.7,1339.56 1712.53,1335.56 1707,1333.5C1704.12,1334.38 1701.79,1336.04 1700,1338.5C1696.04,1347.22 1695.04,1356.22 1697,1365.5C1700.94,1368.37 1704.61,1368.03 1708,1364.5C1709.62,1361.67 1710.79,1358.67 1711.5,1355.5C1714.8,1354.6 1718.13,1354.6 1721.5,1355.5C1718.44,1374.19 1708.11,1380.19 1690.5,1373.5C1686.76,1369.06 1685.1,1363.9 1685.5,1358C1685.21,1346.2 1689.21,1336.2 1697.5,1328C1700.46,1326.4 1703.46,1325.23 1706.5,1324.5Z" style="fill:rgb(254,253,235);fill-opacity:0.75;"/>
    </g>
    <g transform="matrix(1,0,0,1,-1184.5,-763.677)">
        <path d="M1670.5,1331.5L1674.5,1331.5C1671.88,1347.86 1669.05,1364.19 1666,1380.5C1665.23,1381.85 1664.06,1382.68 1662.5,1383C1660.19,1383.5 1657.86,1383.66 1655.5,1383.5C1658.27,1367.17 1661.1,1350.83 1664,1334.5C1666.05,1333.07 1668.21,1332.07 1670.5,1331.5Z" style="fill:rgb(254,253,235);fill-opacity:0.75;"/>
    </g>
    <g transform="matrix(1,0,0,1,-1184.5,-763.677)">
        <path d="M1642.5,1336.5L1646.5,1336.5C1643.88,1352.86 1641.05,1369.19 1638,1385.5C1635.01,1387.93 1631.51,1388.93 1627.5,1388.5C1629.26,1380.21 1630.43,1371.88 1631,1363.5C1627.44,1372.28 1623.61,1380.95 1619.5,1389.5C1616.81,1391.83 1614.31,1391.83 1612,1389.5C1611,1381.5 1610,1373.5 1609,1365.5C1606.42,1374.62 1604.59,1383.95 1603.5,1393.5C1600.19,1394.05 1596.86,1394.38 1593.5,1394.5C1596.22,1377.83 1599.06,1361.16 1602,1344.5C1605.68,1343.14 1609.52,1342.47 1613.5,1342.5C1615.04,1352.81 1616.54,1363.15 1618,1373.5C1623,1362.17 1628,1350.83 1633,1339.5C1636.19,1338.23 1639.35,1337.23 1642.5,1336.5Z" style="fill:rgb(254,253,235);fill-opacity:0.76;"/>
    </g>
</svg>
