<?xml version="1.0" encoding="UTF-8" standalone="no"?>
<!DOCTYPE svg PUBLIC "-//W3C//DTD SVG 1.1//EN" "http://www.w3.org/Graphics/SVG/1.1/DTD/svg11.dtd">
<svg width="100%" height="100%" viewBox="0 0 471 113" version="1.1" xmlns="http://www.w3.org/2000/svg" xmlns:xlink="http://www.w3.org/1999/xlink" xml:space="preserve" xmlns:serif="http://www.serif.com/" style="fill-rule:evenodd;clip-rule:evenodd;stroke-linejoin:round;stroke-miterlimit:2;">
    <g transform="matrix(4.16667,0,0,4.16667,0,0)">
        <path d="M92.944,1.181C92.944,0.945 92.915,0.329 92.2,0.338C91.485,0.348 86.734,0.593 86.401,0.623C86.068,0.652 85.814,0.984 86.391,1.034C86.969,1.083 89.506,1.289 89.506,5.471C89.506,5.751 89.526,21.645 89.497,19.193C89.559,24.281 87.596,26.096 85.412,26.089C81.974,26.079 80.152,21.965 80.152,18.028C80.152,13.659 82.585,10.765 85.187,10.917C88.731,11.124 89.486,14.027 89.497,19.184L89.511,10.623C89.526,11.666 89.526,11.818 89.056,11.456C88.67,11.159 86.852,10.032 84.57,10.025C80.838,10.016 76.253,12.677 76.253,18.263C76.253,24.179 80.446,26.99 84.795,26.99C86.911,26.99 88.415,26.043 88.948,25.717C89.55,25.348 89.499,25.375 89.609,25.922C89.694,26.343 89.644,27.097 90.711,26.99C91.925,26.868 94.717,26.52 95.305,26.403C95.866,26.291 95.733,25.924 95.227,25.864C94.881,25.823 92.944,26.05 92.944,20.056L92.944,1.181Z" style="fill:rgb(35,31,32);fill-rule:nonzero;"/>
        <path d="M19.177,1.341C19.471,1.445 20.381,1.795 20.668,1.114C20.956,0.433 20.77,0.9 20.867,0.674C21.011,0.338 21.685,0.055 21.815,0.841C21.946,1.628 22.408,8.425 22.429,8.789C22.476,9.589 21.395,9.669 21.335,8.878C21.257,7.831 19.159,0.932 13.429,1.049C8.322,1.153 4.958,7.062 5.155,14.701C5.34,21.842 8.783,25.776 14.43,25.661C19.869,25.55 21.382,21.413 22.184,18.882C22.516,17.833 23.491,18.125 23.263,19.083C22.258,23.305 19.065,26.88 13.294,26.998C6.982,27.126 0.175,22.357 0.003,13.929C-0.173,5.251 6.683,0.226 13.451,0.088C16.316,0.03 18.173,0.988 19.177,1.341Z" style="fill:rgb(35,31,32);fill-rule:nonzero;"/>
        <rect x="95.017" y="0.474" width="4.117" height="8.233" style="fill:rgb(237,28,36);fill-rule:nonzero;"/>
        <path d="M103.412,8.076C103.412,8.076 103.356,6.688 103.356,6.55C103.356,6.412 103.473,6.364 103.61,6.395C103.749,6.425 105.045,6.688 105.045,6.688C105.045,6.688 104.946,6.407 104.877,6.2C104.808,5.992 104.898,5.955 104.946,5.911L106.395,4.657L106.166,4.544C106.028,4.48 106.049,4.363 106.07,4.285L106.323,3.398C106.323,3.398 105.719,3.534 105.577,3.556C105.464,3.573 105.426,3.521 105.391,3.443L105.21,3.011L104.454,3.845C104.311,3.975 104.173,3.876 104.198,3.724C104.222,3.586 104.579,1.948 104.579,1.948C104.579,1.948 104.186,2.181 104.056,2.259C103.926,2.337 103.857,2.324 103.788,2.199C103.719,2.073 103.233,1.101 103.233,1.101L103.235,1.101C103.235,1.101 102.749,2.073 102.68,2.199C102.611,2.324 102.542,2.337 102.412,2.259C102.282,2.181 101.89,1.948 101.89,1.948C101.89,1.948 102.246,3.586 102.27,3.724C102.295,3.876 102.157,3.975 102.015,3.845L101.258,3.011L101.077,3.443C101.042,3.521 101.003,3.573 100.891,3.556C100.75,3.534 100.121,3.398 100.121,3.398L100.397,4.285C100.419,4.363 100.44,4.48 100.302,4.544L100.073,4.657L101.521,5.911C101.569,5.955 101.66,5.992 101.591,6.2C101.521,6.407 101.422,6.688 101.422,6.688C101.422,6.688 102.719,6.425 102.857,6.395C102.996,6.364 103.112,6.412 103.112,6.55C103.112,6.688 103.056,8.076 103.056,8.076L103.412,8.076Z" style="fill:rgb(237,28,36);fill-rule:nonzero;"/>
        <rect x="107.361" y="0.474" width="4.117" height="8.233" style="fill:rgb(237,28,36);fill-rule:nonzero;"/>
        <path d="M32.857,14.776C32.899,16.499 32.59,17.015 31.531,17.539C30.564,18.016 27.848,18.419 27.504,18.498C26.409,18.748 23.328,19.529 23.396,22.757C23.463,25.944 26.614,27.02 28.815,26.967C30.948,26.915 32.199,25.999 32.756,25.547C33.086,25.279 33.057,25.346 33.332,25.653C33.637,25.993 34.698,27.01 37.148,27C39.637,26.99 40.009,25.812 40.152,25.449C40.346,24.962 39.825,24.697 39.637,25.137C39.326,25.868 38.697,26.065 38.266,26.061C37.786,26.057 36.375,25.942 36.364,22.301C36.364,22.301 36.363,14.8 36.361,14.363C36.361,11.917 34.495,9.917 29.554,9.917C24.239,9.917 24.212,12.536 24.177,13.186C24.138,13.921 24.523,14.697 25.859,14.701C27.064,14.704 27.348,13.396 27.519,12.895C27.696,12.372 27.733,10.757 29.881,10.791C31.716,10.791 32.852,12.406 32.852,14.708L32.892,21.652C32.892,24.081 31.638,26.019 29.792,26.019C27.57,26.013 27.023,24.165 27.002,23.293C26.981,22.421 27.458,20.597 29.65,19.33C29.65,19.33 30.667,18.673 32.615,17.928C32.792,17.889 32.872,17.92 32.872,18.332L32.857,14.776Z" style="fill:rgb(35,31,32);fill-rule:nonzero;"/>
        <path d="M69.451,14.776C69.493,16.499 69.184,17.015 68.125,17.539C67.157,18.016 64.442,18.419 64.098,18.498C63.002,18.748 59.921,19.529 59.989,22.757C60.057,25.944 63.208,27.02 65.409,26.967C67.542,26.915 68.792,25.999 69.35,25.547C69.68,25.279 69.651,25.346 69.926,25.653C70.231,25.993 71.292,27.01 73.742,27C76.231,26.99 76.602,25.812 76.746,25.449C76.939,24.962 76.418,24.697 76.231,25.137C75.919,25.868 75.291,26.065 74.859,26.061C74.38,26.057 72.968,25.942 72.958,22.301C72.958,22.301 72.956,14.8 72.955,14.363C72.955,11.917 71.088,9.917 66.148,9.917C60.832,9.917 60.805,12.536 60.771,13.186C60.731,13.921 61.117,14.697 62.453,14.701C63.658,14.704 63.942,13.396 64.112,12.895C64.29,12.372 64.327,10.757 66.475,10.791C68.31,10.791 69.446,12.406 69.446,14.708L69.485,21.652C69.485,24.081 68.231,26.019 66.385,26.019C64.164,26.013 63.617,24.165 63.596,23.293C63.575,22.421 64.051,20.597 66.244,19.33C66.244,19.33 67.261,18.673 69.209,17.928C69.385,17.889 69.466,17.92 69.466,18.332L69.451,14.776Z" style="fill:rgb(35,31,32);fill-rule:nonzero;"/>
        <path d="M105.575,14.776C105.617,16.499 105.309,17.015 104.249,17.539C103.281,18.016 100.566,18.419 100.222,18.498C99.126,18.748 96.045,19.529 96.113,22.757C96.18,25.944 99.331,27.02 101.533,26.967C103.666,26.915 104.917,25.999 105.474,25.547C105.804,25.279 105.774,25.346 106.05,25.653C106.355,25.993 107.416,27.01 109.866,27C112.354,26.99 112.727,25.812 112.871,25.449C113.063,24.962 112.542,24.697 112.355,25.137C112.043,25.868 111.415,26.065 110.983,26.061C110.504,26.057 109.092,25.942 109.083,22.301C109.083,22.301 109.08,14.8 109.079,14.363C109.079,11.917 107.212,9.917 102.272,9.917C96.956,9.917 96.929,12.536 96.894,13.186C96.855,13.921 97.24,14.697 98.576,14.701C99.781,14.704 100.066,13.396 100.236,12.895C100.414,12.372 100.451,10.757 102.599,10.791C104.434,10.791 105.57,12.406 105.57,14.708L105.609,21.652C105.609,24.081 104.355,26.019 102.51,26.019C100.288,26.013 99.74,24.165 99.719,23.293C99.698,22.421 100.175,20.597 102.368,19.33C102.368,19.33 103.385,18.673 105.333,17.928C105.509,17.889 105.59,17.92 105.59,18.332L105.575,14.776Z" style="fill:rgb(35,31,32);fill-rule:nonzero;"/>
        <path d="M53.541,22.613C53.542,25.341 52.747,26.225 51.817,26.41C50.957,26.581 51.14,26.996 51.543,26.994C51.722,26.992 58.852,27 58.861,27C59.46,27 59.871,26.616 58.81,26.375C58.163,26.227 57.082,25.49 57.081,22.061L57.065,15.717C57.054,14.201 57.223,10.378 51.262,10.378C48.218,10.378 46.435,11.922 46.259,12.06C45.985,12.272 45.867,12.373 45.746,11.97C45.653,11.661 45.49,11.146 45.399,10.88C45.307,10.613 45.196,10.388 44.617,10.469C44.038,10.55 40.565,11.099 39.988,11.242C39.411,11.386 39.564,11.63 39.982,11.699C40.4,11.769 42.269,11.92 42.258,15.162C42.247,18.403 42.254,21.943 42.254,21.943C42.273,25.853 41.443,26.214 40.721,26.414C39.779,26.673 40.218,27 40.669,27C40.679,27 47.691,26.996 47.87,26.994C48.352,26.985 48.564,26.551 47.596,26.39C46.661,26.234 45.773,25.685 45.794,22.613C45.796,22.31 45.795,18.904 45.786,18.283C45.763,16.656 45.38,11.544 49.989,11.5C53.206,11.396 53.516,14.083 53.534,15.869L53.541,22.613Z" style="fill:rgb(35,31,32);fill-rule:nonzero;"/>
    </g>
</svg>
