<?xml version="1.0" encoding="UTF-8" standalone="no"?>
<!DOCTYPE svg PUBLIC "-//W3C//DTD SVG 1.1//EN" "http://www.w3.org/Graphics/SVG/1.1/DTD/svg11.dtd">
<svg width="100%" height="100%" viewBox="0 0 1254 596" version="1.1" xmlns="http://www.w3.org/2000/svg" xmlns:xlink="http://www.w3.org/1999/xlink" xml:space="preserve" xmlns:serif="http://www.serif.com/" style="fill-rule:evenodd;clip-rule:evenodd;stroke-linejoin:round;stroke-miterlimit:2;">
    <g transform="matrix(1,0,0,1,-587.139,-313.042)">
        <g transform="matrix(0.786033,0,0,0.786033,352.776,198.952)">
            <path d="M318.659,145.428L470.262,145.428C472.01,145.428 473.52,146.176 474.791,147.671C476.062,149.167 476.698,150.943 476.698,152.999L476.698,195.626C476.698,197.682 476.062,199.458 474.791,200.954C473.52,202.449 472.01,203.197 470.262,203.197L376.583,203.197L376.583,221.145L454.768,221.145C456.516,221.145 458.026,221.893 459.297,223.389C460.568,224.884 461.204,226.66 461.204,228.717L461.204,271.063C461.204,273.119 460.568,274.895 459.297,276.391C458.026,277.887 456.516,278.634 454.768,278.634L376.583,278.634L376.583,334.161C376.583,336.217 375.947,337.993 374.676,339.489C373.404,340.984 371.895,341.732 370.147,341.732L318.659,341.732C316.911,341.732 315.401,340.984 314.13,339.489C312.858,337.993 312.223,336.217 312.223,334.161L312.223,152.999C312.223,150.943 312.858,149.167 314.13,147.671C315.401,146.176 316.911,145.428 318.659,145.428Z" style="fill:rgb(77,255,89);fill-rule:nonzero;"/>
            <g transform="matrix(-1,0,0,1,1188.43,0)">
                <path d="M574.43,287.047L669.539,287.047C671.287,287.047 672.797,287.795 674.068,289.291C675.34,290.787 675.975,292.563 675.975,294.619L675.975,334.161C675.975,336.217 675.34,337.993 674.068,339.489C672.797,340.984 671.287,341.732 669.539,341.732L518.889,341.732C517.141,341.732 515.632,340.984 514.36,339.489C513.089,337.993 512.454,336.217 512.454,334.161L512.454,152.999C512.454,150.943 513.089,149.167 514.36,147.671C515.632,146.176 517.141,145.428 518.889,145.428L667.156,145.428C668.904,145.428 670.413,146.176 671.685,147.671C672.956,149.167 673.592,150.943 673.592,152.999L673.592,192.541C673.592,194.597 672.956,196.373 671.685,197.869C670.413,199.365 668.904,200.113 667.156,200.113L574.43,200.113L574.43,217.78L654.045,217.78C655.793,217.78 657.303,218.528 658.574,220.023C659.846,221.519 660.481,223.295 660.481,225.352L660.481,261.808C660.481,263.865 659.846,265.641 658.574,267.137C657.303,268.632 655.793,269.38 654.045,269.38L574.43,269.38L574.43,287.047Z" style="fill:rgb(255,253,235);fill-rule:nonzero;"/>
            </g>
            <g transform="matrix(-1,0,0,1,1588.65,0)">
                <path d="M808.032,218.52C834.094,221.95 852.647,228.314 863.691,237.612C874.736,246.91 880.258,260.857 880.258,279.454C880.258,298.05 872.233,313.126 856.183,324.681C840.133,336.235 818.838,342.013 792.3,342.013C765.761,342.013 745.142,336.317 730.443,324.926C715.743,313.535 708.394,299.503 708.394,282.832C708.394,278.757 710.221,276.72 713.876,276.72L762.742,276.72C766.079,276.72 768.781,277.869 770.846,280.168C775.296,284.941 783.003,287.328 793.968,287.328C809.065,287.328 816.613,284.71 816.613,279.476C816.613,276.224 814.23,273.651 809.462,271.755C804.695,269.859 795.24,268.009 781.096,266.203C736.124,260.066 713.638,240.476 713.638,207.435C713.638,188.838 720.868,173.808 735.329,162.344C749.79,150.879 769.138,145.147 793.372,145.147C817.607,145.147 837.193,151.312 852.131,163.643C867.068,175.973 874.537,189 874.537,202.724C874.537,204.576 874.021,206.059 872.988,207.172C871.955,208.285 870.564,208.841 868.816,208.841L817.567,208.841C814.706,208.841 812.243,207.781 810.177,205.66C806.364,201.775 800.643,199.832 793.015,199.832C782.368,199.832 777.044,202.36 777.044,207.417C777.044,210.125 779.11,212.246 783.242,213.779C787.373,215.313 795.637,216.893 808.032,218.52Z" style="fill:rgb(255,253,235);fill-rule:nonzero;"/>
            </g>
            <path d="M915.299,145.428L1079.77,145.428C1081.52,145.428 1083.03,146.176 1084.3,147.671C1085.57,149.167 1086.21,150.943 1086.21,152.999L1086.21,198.149C1086.21,200.206 1085.57,201.982 1084.3,203.478C1083.03,204.973 1081.52,205.721 1079.77,205.721L1028.52,205.721L1028.52,334.161C1028.52,336.217 1027.89,337.993 1026.62,339.489C1025.35,340.984 1023.84,341.732 1022.09,341.732L972.984,341.732C971.236,341.732 969.726,340.984 968.455,339.489C967.184,337.993 966.548,336.217 966.548,334.161L966.548,205.721L915.299,205.721C913.551,205.721 912.041,204.973 910.77,203.478C909.498,201.982 908.863,200.206 908.863,198.149L908.863,152.999C908.863,150.943 909.498,149.167 910.77,147.671C912.041,146.176 913.551,145.428 915.299,145.428Z" style="fill:rgb(255,253,235);fill-rule:nonzero;"/>
            <path d="M1275.71,202.917L1232.57,202.917L1232.57,284.243L1275.71,284.243C1277.46,284.243 1278.97,284.991 1280.24,286.487C1281.51,287.982 1282.15,289.758 1282.15,291.815L1282.15,334.161C1282.15,336.217 1281.51,337.993 1280.24,339.489C1278.97,340.984 1277.46,341.732 1275.71,341.732L1124.59,341.732C1122.84,341.732 1121.33,340.984 1120.06,339.489C1118.79,337.993 1118.15,336.217 1118.15,334.161L1118.15,291.815C1118.15,289.758 1118.79,287.982 1120.06,286.487C1121.33,284.991 1122.84,284.243 1124.59,284.243L1168.21,284.243L1168.21,202.917L1124.59,202.917C1122.84,202.917 1121.33,202.169 1120.06,200.673C1118.79,199.178 1118.15,197.402 1118.15,195.345L1118.15,152.999C1118.15,150.943 1118.79,149.167 1120.06,147.671C1121.33,146.176 1122.84,145.428 1124.59,145.428L1275.71,145.428C1277.46,145.428 1278.97,146.176 1280.24,147.671C1281.51,149.167 1282.15,150.943 1282.15,152.999L1282.15,195.345C1282.15,197.402 1281.51,199.178 1280.24,200.673C1278.97,202.169 1277.46,202.917 1275.71,202.917Z" style="fill:rgb(255,253,235);fill-rule:nonzero;"/>
            <path d="M1440.9,145.428L1491.2,145.428C1492.63,145.428 1493.86,146.035 1494.89,147.251C1495.93,148.466 1496.44,149.634 1496.44,150.756C1496.44,151.878 1496.37,152.812 1496.21,153.56L1441.38,332.478C1439.63,338.647 1436.06,341.732 1430.65,341.732L1375.11,341.732C1369.87,341.732 1366.37,338.928 1364.63,333.319L1309.32,153.56C1309.16,152.812 1309.09,151.878 1309.09,150.756C1309.09,149.634 1309.6,148.466 1310.63,147.251C1311.67,146.035 1312.9,145.428 1314.33,145.428L1364.63,145.428C1367.49,145.428 1369.83,146.409 1371.66,148.372C1373.49,150.335 1374.72,152.439 1375.35,154.682L1402.77,262.089L1430.18,154.682C1431.61,148.512 1435.18,145.428 1440.9,145.428Z" style="fill:rgb(255,253,235);fill-rule:nonzero;"/>
            <path d="M1560.33,341.732L1515.28,341.732C1513.85,341.732 1512.61,341.125 1511.58,339.909C1510.55,338.694 1510.03,337.526 1510.03,336.404C1510.03,335.282 1510.11,334.441 1510.27,333.88L1562.23,154.682C1563.66,148.512 1567.24,145.428 1572.96,145.428L1639.23,145.428C1644.95,145.428 1648.52,148.512 1649.95,154.682L1701.92,333.88C1702.08,334.441 1702.16,335.282 1702.16,336.404C1702.16,337.526 1701.64,338.694 1700.61,339.909C1699.58,341.125 1698.34,341.732 1696.91,341.732L1651.86,341.732C1646.78,341.732 1643.2,338.554 1641.13,332.197L1635.18,312.567L1577.01,312.567L1571.05,332.197C1568.99,338.554 1565.41,341.732 1560.33,341.732ZM1623.02,257.882L1606.09,199.552L1589.17,257.882L1623.02,257.882Z" style="fill:rgb(255,253,235);fill-rule:nonzero;"/>
            <g transform="matrix(-1,0,0,1,3632.2,0)">
                <path d="M1804.42,284.243L1885.7,284.243C1887.45,284.243 1888.96,284.991 1890.23,286.487C1891.5,287.982 1892.14,289.758 1892.14,291.815L1892.14,334.161C1892.14,336.217 1891.5,337.993 1890.23,339.489C1888.96,340.984 1887.45,341.732 1885.7,341.732L1746.49,341.732C1744.75,341.732 1743.24,340.984 1741.97,339.489C1740.69,337.993 1740.06,336.217 1740.06,334.161L1740.06,152.999C1740.06,150.943 1740.69,149.167 1741.97,147.671C1743.24,146.176 1744.75,145.428 1746.49,145.428L1797.98,145.428C1799.73,145.428 1801.24,146.176 1802.51,147.671C1803.78,149.167 1804.42,150.943 1804.42,152.999L1804.42,284.243Z" style="fill:rgb(255,253,235);fill-rule:nonzero;"/>
            </g>
            <path d="M431.169,425.863L474.791,425.863C476.539,425.863 478.049,426.611 479.32,428.106C480.591,429.602 481.227,431.378 481.227,433.435L481.227,614.596C481.227,616.652 480.591,618.428 479.32,619.924C478.049,621.42 476.539,622.167 474.791,622.167L431.646,622.167C429.898,622.167 428.388,621.42 427.117,619.924C425.846,618.428 425.21,616.652 425.21,614.596L425.21,527.661L407.809,568.043C406.856,570.287 405.425,572.016 403.518,573.231C401.612,574.447 399.705,575.054 397.798,575.054L381.588,575.054C378.887,575.054 376.662,574.213 374.914,572.53C373.166,570.848 372.054,569.352 371.577,568.043L354.176,527.661L354.176,614.596C354.176,616.652 353.54,618.428 352.269,619.924C350.998,621.42 349.488,622.167 347.74,622.167L304.595,622.167C302.847,622.167 301.337,621.42 300.066,619.924C298.795,618.428 298.159,616.652 298.159,614.596L298.159,433.435C298.159,431.378 298.795,429.602 300.066,428.106C301.337,426.611 302.847,425.863 304.595,425.863L348.217,425.863C352.666,425.863 356.083,428.387 358.467,433.435L389.693,500.739L420.919,433.435C423.303,428.387 426.72,425.863 431.169,425.863Z" style="fill:rgb(77,255,89);fill-rule:nonzero;"/>
            <path d="M655.833,602.235C640.18,615.71 619.005,622.448 592.307,622.448C565.61,622.448 544.435,615.71 528.782,602.235C513.129,588.759 505.302,567.716 505.302,539.106L505.302,433.338C505.302,431.308 505.938,429.554 507.209,428.078C508.481,426.601 509.99,425.863 511.738,425.863L561.558,425.863C563.306,425.863 564.815,426.598 566.087,428.067C567.358,429.536 567.994,431.282 567.994,433.303L567.994,542.944C567.994,550.475 570.179,556.261 574.549,560.301C578.919,564.341 584.838,566.361 592.307,566.361C599.776,566.361 605.696,564.341 610.066,560.301C614.436,556.261 616.621,550.475 616.621,542.944L616.621,433.303C616.621,431.282 617.257,429.536 618.528,428.067C619.799,426.598 621.309,425.863 623.057,425.863L672.876,425.863C674.624,425.863 676.134,426.601 677.405,428.078C678.677,429.554 679.312,431.308 679.312,433.338L679.312,539.106C679.312,567.716 671.486,588.759 655.833,602.235Z" style="fill:rgb(255,253,235);fill-rule:nonzero;"/>
            <g transform="matrix(-1,0,0,1,1588.65,0)">
                <path d="M808.032,498.956C834.094,502.385 852.647,508.749 863.691,518.047C874.736,527.345 880.258,541.293 880.258,559.889C880.258,578.485 872.233,593.561 856.183,605.116C840.133,616.67 818.838,622.448 792.3,622.448C765.761,622.448 745.142,616.752 730.443,605.361C715.743,593.97 708.394,579.939 708.394,563.267C708.394,559.192 710.221,557.155 713.876,557.155L762.742,557.155C766.079,557.155 768.781,558.304 770.846,560.603C775.296,565.376 783.003,567.763 793.968,567.763C809.065,567.763 816.613,565.146 816.613,559.911C816.613,556.66 814.23,554.086 809.462,552.19C804.695,550.294 795.24,548.444 781.096,546.638C736.124,540.501 713.638,520.911 713.638,487.87C713.638,469.273 720.868,454.243 735.329,442.779C749.79,431.315 769.138,425.582 793.372,425.582C817.607,425.582 837.193,431.748 852.131,444.078C867.068,456.408 874.537,469.435 874.537,483.159C874.537,485.011 874.021,486.494 872.988,487.607C871.955,488.72 870.564,489.276 868.816,489.276L817.567,489.276C814.706,489.276 812.243,488.216 810.177,486.095C806.364,482.21 800.643,480.267 793.015,480.267C782.368,480.267 777.044,482.796 777.044,487.852C777.044,490.56 779.11,492.681 783.242,494.215C787.373,495.748 795.637,497.329 808.032,498.956Z" style="fill:rgb(255,253,235);fill-rule:nonzero;"/>
            </g>
            <path d="M1073.1,483.352L1029.95,483.352L1029.95,564.678L1073.1,564.678C1074.85,564.678 1076.36,565.426 1077.63,566.922C1078.9,568.417 1079.54,570.193 1079.54,572.25L1079.54,614.596C1079.54,616.652 1078.9,618.428 1077.63,619.924C1076.36,621.42 1074.85,622.167 1073.1,622.167L921.973,622.167C920.225,622.167 918.715,621.42 917.444,619.924C916.173,618.428 915.537,616.652 915.537,614.596L915.537,572.25C915.537,570.193 916.173,568.417 917.444,566.922C918.715,565.426 920.225,564.678 921.973,564.678L965.595,564.678L965.595,483.352L921.973,483.352C920.225,483.352 918.715,482.604 917.444,481.109C916.173,479.613 915.537,477.837 915.537,475.78L915.537,433.435C915.537,431.378 916.173,429.602 917.444,428.106C918.715,426.611 920.225,425.863 921.973,425.863L1073.1,425.863C1074.85,425.863 1076.36,426.611 1077.63,428.106C1078.9,429.602 1079.54,431.378 1079.54,433.435L1079.54,475.78C1079.54,477.837 1078.9,479.613 1077.63,481.109C1076.36,482.604 1074.85,483.352 1073.1,483.352Z" style="fill:rgb(255,253,235);fill-rule:nonzero;"/>
            <g transform="matrix(-1,0,0,1,2399.82,0)">
                <path d="M1288.59,507.093L1288.59,540.35C1288.59,567.065 1280.88,587.328 1265.46,601.139L1283.1,629.174C1284.22,631.791 1284.18,633.895 1282.98,635.484C1281.79,637.073 1280.48,637.867 1279.05,637.867L1233.52,637.867C1228.44,637.867 1224.54,635.53 1221.84,630.857L1215.64,621.607C1210.56,622.167 1205.32,622.448 1199.91,622.448C1182.43,622.448 1167.26,619.805 1154.38,614.519C1141.51,609.233 1131.1,600.302 1123.16,587.724C1115.21,575.147 1111.24,559.289 1111.24,540.149L1111.24,507.881C1111.24,488.742 1115.21,472.883 1123.16,460.306C1131.1,447.729 1141.51,438.797 1154.38,433.511C1167.26,428.225 1182.43,425.582 1199.91,425.582C1217.39,425.582 1232.57,428.217 1245.44,433.487C1258.31,438.757 1268.72,447.662 1276.67,460.203C1284.61,472.744 1288.59,488.374 1288.59,507.093ZM1175.6,502.803L1175.6,545.227C1175.6,552.475 1177.78,558.043 1182.15,561.931C1186.52,565.819 1192.44,567.763 1199.91,567.763C1207.38,567.763 1213.3,565.774 1217.67,561.797C1222.04,557.82 1224.23,552.208 1224.23,544.96L1224.23,503.07C1224.23,495.823 1222.04,490.21 1217.67,486.233C1213.3,482.256 1207.38,480.267 1199.91,480.267C1192.44,480.267 1186.52,482.211 1182.15,486.099C1177.78,489.988 1175.6,495.555 1175.6,502.803Z" style="fill:rgb(255,253,235);fill-rule:nonzero;"/>
            </g>
            <path d="M1466.29,602.235C1450.64,615.71 1429.46,622.448 1402.77,622.448C1376.07,622.448 1354.89,615.71 1339.24,602.235C1323.59,588.759 1315.76,567.716 1315.76,539.106L1315.76,433.338C1315.76,431.308 1316.4,429.554 1317.67,428.078C1318.94,426.601 1320.45,425.863 1322.2,425.863L1372.02,425.863C1373.76,425.863 1375.27,426.598 1376.54,428.067C1377.82,429.536 1378.45,431.282 1378.45,433.303L1378.45,542.944C1378.45,550.475 1380.64,556.261 1385.01,560.301C1389.38,564.341 1395.3,566.361 1402.77,566.361C1410.23,566.361 1416.15,564.341 1420.52,560.301C1424.89,556.261 1427.08,550.475 1427.08,542.944L1427.08,433.303C1427.08,431.282 1427.71,429.536 1428.99,428.067C1430.26,426.598 1431.77,425.863 1433.52,425.863L1483.33,425.863C1485.08,425.863 1486.59,426.601 1487.86,428.078C1489.13,429.554 1489.77,431.308 1489.77,433.338L1489.77,539.106C1489.77,567.716 1481.94,588.759 1466.29,602.235Z" style="fill:rgb(255,253,235);fill-rule:nonzero;"/>
            <g transform="matrix(-1,0,0,1,3214.57,0)">
                <path d="M1587.5,567.483L1682.61,567.483C1684.36,567.483 1685.87,568.23 1687.14,569.726C1688.41,571.222 1689.05,572.998 1689.05,575.054L1689.05,614.596C1689.05,616.652 1688.41,618.428 1687.14,619.924C1685.87,621.42 1684.36,622.167 1682.61,622.167L1531.96,622.167C1530.21,622.167 1528.7,621.42 1527.43,619.924C1526.16,618.428 1525.53,616.652 1525.53,614.596L1525.53,433.435C1525.53,431.378 1526.16,429.602 1527.43,428.106C1528.7,426.611 1530.21,425.863 1531.96,425.863L1680.23,425.863C1681.98,425.863 1683.49,426.611 1684.76,428.106C1686.03,429.602 1686.66,431.378 1686.66,433.435L1686.66,472.976C1686.66,475.032 1686.03,476.809 1684.76,478.304C1683.49,479.8 1681.98,480.548 1680.23,480.548L1587.5,480.548L1587.5,498.215L1667.12,498.215C1668.87,498.215 1670.38,498.963 1671.65,500.459C1672.92,501.954 1673.55,503.73 1673.55,505.787L1673.55,542.243C1673.55,544.3 1672.92,546.076 1671.65,547.572C1670.38,549.067 1668.87,549.815 1667.12,549.815L1587.5,549.815L1587.5,567.483Z" style="fill:rgb(255,253,235);fill-rule:nonzero;"/>
            </g>
            <g transform="matrix(-1,0,0,1,3614.8,0)">
                <path d="M1821.1,498.956C1847.17,502.385 1865.72,508.749 1876.76,518.047C1887.81,527.345 1893.33,541.293 1893.33,559.889C1893.33,578.485 1885.31,593.561 1869.26,605.116C1853.2,616.67 1831.91,622.448 1805.37,622.448C1778.83,622.448 1758.21,616.752 1743.52,605.361C1728.82,593.97 1721.47,579.939 1721.47,563.267C1721.47,559.192 1723.29,557.155 1726.95,557.155L1775.81,557.155C1779.15,557.155 1781.85,558.304 1783.92,560.603C1788.37,565.376 1796.08,567.763 1807.04,567.763C1822.14,567.763 1829.68,565.146 1829.68,559.911C1829.68,556.66 1827.3,554.086 1822.53,552.19C1817.77,550.294 1808.31,548.444 1794.17,546.638C1749.2,540.501 1726.71,520.911 1726.71,487.87C1726.71,469.273 1733.94,454.243 1748.4,442.779C1762.86,431.315 1782.21,425.582 1806.44,425.582C1830.68,425.582 1850.27,431.748 1865.2,444.078C1880.14,456.408 1887.61,469.435 1887.61,483.159C1887.61,485.011 1887.09,486.494 1886.06,487.607C1885.03,488.72 1883.64,489.276 1881.89,489.276L1830.64,489.276C1827.78,489.276 1825.32,488.216 1823.25,486.095C1819.43,482.21 1813.72,480.267 1806.09,480.267C1795.44,480.267 1790.12,482.796 1790.12,487.852C1790.12,490.56 1792.18,492.681 1796.31,494.215C1800.44,495.748 1808.71,497.329 1821.1,498.956Z" style="fill:rgb(255,253,235);fill-rule:nonzero;"/>
            </g>
            <path d="M367.763,783.238L367.763,825.663C367.763,832.91 369.948,838.478 374.318,842.366C378.688,846.254 384.409,848.198 391.481,848.198C398.552,848.198 403.677,846.961 406.856,844.487C410.034,842.013 412.696,838.389 414.841,833.616C416.986,828.842 419.807,826.456 423.303,826.456L474.791,826.456C476.221,826.456 477.453,827.054 478.486,828.25C479.519,829.446 480.035,830.871 480.035,832.524C480.035,849.631 473.043,865.267 459.059,879.432C452.066,886.422 442.77,892.078 431.169,896.4C419.569,900.722 405.902,902.883 390.17,902.883C374.437,902.883 360.095,900.103 347.144,894.544C334.193,888.985 323.665,879.871 315.56,867.202C307.455,854.533 303.403,838.993 303.403,820.584L303.403,788.316C303.403,769.907 307.455,754.322 315.56,741.563C330.816,717.866 356.321,706.018 392.077,706.018C406.538,706.018 419.569,708.178 431.169,712.5C442.77,716.822 452.066,722.478 459.059,729.469C473.043,743.631 480.035,759.265 480.035,776.372C480.035,778.025 479.519,779.45 478.486,780.646C477.453,781.842 476.221,782.44 474.791,782.44L423.303,782.44C419.807,782.44 416.986,780.055 414.841,775.283C412.696,770.511 410.034,766.888 406.856,764.414C403.677,761.94 398.552,760.702 391.481,760.702C384.409,760.702 378.688,762.646 374.318,766.535C369.948,770.423 367.763,775.99 367.763,783.238Z" style="fill:rgb(77,255,89);fill-rule:nonzero;"/>
            <g transform="matrix(-1,0,0,1,1200.11,0)">
                <path d="M686.94,893.909C687.258,894.657 687.417,895.685 687.417,896.994C687.417,898.303 686.901,899.565 685.868,900.78C684.835,901.995 683.603,902.603 682.173,902.603L628.063,902.603C623.295,902.603 619.958,900.266 618.051,895.592L597.075,840.066L577.052,840.066L577.052,895.031C577.052,897.087 576.416,898.863 575.145,900.359C573.873,901.855 572.364,902.603 570.616,902.603L519.128,902.603C517.38,902.603 515.87,901.855 514.599,900.359C513.328,898.863 512.692,897.087 512.692,895.031L512.692,713.87C512.692,711.813 513.328,710.037 514.599,708.541C515.87,707.046 517.38,706.298 519.128,706.298L611.854,706.298C633.625,706.298 650.867,712.374 663.58,724.526C676.293,736.678 682.65,753.224 682.65,774.163C682.65,799.589 674.307,818.005 657.621,829.409L686.94,893.909ZM577.052,758.459L577.052,788.185L606.848,788.185C610.344,788.185 613.046,786.83 614.953,784.119C616.86,781.408 617.813,777.996 617.813,773.883C617.813,769.77 616.899,766.171 615.072,763.086C613.244,760.001 610.503,758.459 606.848,758.459L577.052,758.459Z" style="fill:rgb(255,253,235);fill-rule:nonzero;"/>
            </g>
            <g transform="matrix(-1,0,0,1,1598.42,0)">
                <path d="M836.875,663.111C839.894,663.111 841.404,664.981 841.404,668.72C841.404,670.028 841.007,671.15 840.212,672.085L817.567,694.52C816.137,695.828 813.912,696.483 810.893,696.483L779.189,696.483C776.647,696.483 775.375,694.987 775.375,691.996C775.375,690.5 775.773,689.285 776.567,688.35L790.393,668.439C792.618,665.261 795.557,663.485 799.212,663.111L836.875,663.111ZM779.428,847.918L874.537,847.918C876.285,847.918 877.795,848.666 879.066,850.161C880.338,851.657 880.973,853.433 880.973,855.489L880.973,895.031C880.973,897.087 880.338,898.863 879.066,900.359C877.795,901.855 876.285,902.603 874.537,902.603L723.888,902.603C722.14,902.603 720.63,901.855 719.359,900.359C718.087,898.863 717.452,897.087 717.452,895.031L717.452,713.87C717.452,711.813 718.087,710.037 719.359,708.541C720.63,707.046 722.14,706.298 723.888,706.298L872.154,706.298C873.902,706.298 875.411,707.046 876.683,708.541C877.954,710.037 878.59,711.813 878.59,713.87L878.59,753.411C878.59,755.468 877.954,757.244 876.683,758.739C875.411,760.235 873.902,760.983 872.154,760.983L779.428,760.983L779.428,778.65L859.043,778.65C860.791,778.65 862.301,779.398 863.572,780.894C864.844,782.389 865.479,784.165 865.479,786.222L865.479,822.679C865.479,824.735 864.844,826.511 863.572,828.007C862.301,829.502 860.791,830.25 859.043,830.25L779.428,830.25L779.428,847.918Z" style="fill:rgb(255,253,235);fill-rule:nonzero;"/>
            </g>
            <path d="M952.484,902.603L907.432,902.603C906.002,902.603 904.771,901.995 903.738,900.78C902.705,899.565 902.188,898.396 902.188,897.274C902.188,896.153 902.268,895.311 902.427,894.75L954.391,715.552C955.821,709.383 959.397,706.298 965.118,706.298L1031.38,706.298C1037.11,706.298 1040.68,709.383 1042.11,715.552L1094.08,894.75C1094.24,895.311 1094.31,896.153 1094.31,897.274C1094.31,898.396 1093.8,899.565 1092.77,900.78C1091.73,901.995 1090.5,902.603 1089.07,902.603L1044.02,902.603C1038.93,902.603 1035.36,899.424 1033.29,893.068L1027.33,873.437L969.17,873.437L963.211,893.068C961.145,899.424 957.57,902.603 952.484,902.603ZM1015.18,818.752L998.251,760.422L981.327,818.752L1015.18,818.752Z" style="fill:rgb(255,253,235);fill-rule:nonzero;"/>
            <path d="M1117.91,706.298L1282.39,706.298C1284.14,706.298 1285.65,707.046 1286.92,708.541C1288.19,710.037 1288.82,711.813 1288.82,713.87L1288.82,759.02C1288.82,761.076 1288.19,762.852 1286.92,764.348C1285.65,765.844 1284.14,766.592 1282.39,766.592L1231.14,766.592L1231.14,895.031C1231.14,897.087 1230.5,898.863 1229.23,900.359C1227.96,901.855 1226.45,902.603 1224.7,902.603L1175.6,902.603C1173.85,902.603 1172.34,901.855 1171.07,900.359C1169.8,898.863 1169.16,897.087 1169.16,895.031L1169.16,766.592L1117.91,766.592C1116.16,766.592 1114.65,765.844 1113.38,764.348C1112.11,762.852 1111.48,761.076 1111.48,759.02L1111.48,713.87C1111.48,711.813 1112.11,710.037 1113.38,708.541C1114.65,707.046 1116.16,706.298 1117.91,706.298Z" style="fill:rgb(255,253,235);fill-rule:nonzero;"/>
            <path d="M1478.33,763.787L1435.18,763.787L1435.18,845.113L1478.33,845.113C1480.08,845.113 1481.59,845.861 1482.86,847.357C1484.13,848.852 1484.76,850.629 1484.76,852.685L1484.76,895.031C1484.76,897.087 1484.13,898.863 1482.86,900.359C1481.59,901.855 1480.08,902.603 1478.33,902.603L1327.2,902.603C1325.45,902.603 1323.94,901.855 1322.67,900.359C1321.4,898.863 1320.77,897.087 1320.77,895.031L1320.77,852.685C1320.77,850.629 1321.4,848.852 1322.67,847.357C1323.94,845.861 1325.45,845.113 1327.2,845.113L1370.82,845.113L1370.82,763.787L1327.2,763.787C1325.45,763.787 1323.94,763.039 1322.67,761.544C1321.4,760.048 1320.77,758.272 1320.77,756.215L1320.77,713.87C1320.77,711.813 1321.4,710.037 1322.67,708.541C1323.94,707.046 1325.45,706.298 1327.2,706.298L1478.33,706.298C1480.08,706.298 1481.59,707.046 1482.86,708.541C1484.13,710.037 1484.76,711.813 1484.76,713.87L1484.76,756.215C1484.76,758.272 1484.13,760.048 1482.86,761.544C1481.59,763.039 1480.08,763.787 1478.33,763.787Z" style="fill:rgb(255,253,235);fill-rule:nonzero;"/>
            <path d="M1694.05,787.773L1694.05,821.127C1694.05,839.905 1690.08,855.582 1682.13,868.159C1674.19,880.737 1663.78,889.668 1650.91,894.954C1638.04,900.24 1622.86,902.883 1605.38,902.883C1587.9,902.883 1572.72,900.24 1559.85,894.954C1546.98,889.668 1536.57,880.737 1528.62,868.159C1520.68,855.582 1516.71,839.724 1516.71,820.584L1516.71,788.316C1516.71,760.793 1524.93,740.196 1541.38,726.524C1557.83,712.853 1579.16,706.018 1605.38,706.018C1631.6,706.018 1652.93,712.853 1669.38,726.524C1685.83,740.196 1694.05,760.612 1694.05,787.773ZM1581.07,783.238L1581.07,825.663C1581.07,832.91 1583.25,838.478 1587.62,842.366C1591.99,846.254 1597.91,848.198 1605.38,848.198C1612.85,848.198 1618.77,846.21 1623.14,842.232C1627.51,838.255 1629.69,832.643 1629.69,825.395L1629.69,783.505C1629.69,776.258 1627.51,770.645 1623.14,766.668C1618.77,762.691 1612.85,760.702 1605.38,760.702C1597.91,760.702 1591.99,762.646 1587.62,766.535C1583.25,770.423 1581.07,775.99 1581.07,783.238Z" style="fill:rgb(255,253,235);fill-rule:nonzero;"/>
            <g transform="matrix(-1,0,0,1,3614.56,0)">
                <path d="M1838.27,706.298L1882.6,706.298C1884.35,706.298 1885.86,707.046 1887.13,708.541C1888.4,710.037 1889.04,711.813 1889.04,713.87L1889.04,895.031C1889.04,897.087 1888.4,898.863 1887.13,900.359C1885.86,901.855 1884.35,902.603 1882.6,902.603L1844.23,902.603C1840.41,902.603 1837.23,900.64 1834.69,896.713L1782.73,818.752L1782.73,895.031C1782.73,897.087 1782.09,898.863 1780.82,900.359C1779.55,901.855 1778.04,902.603 1776.29,902.603L1731.95,902.603C1730.21,902.603 1728.7,901.855 1727.42,900.359C1726.15,898.863 1725.52,897.087 1725.52,895.031L1725.52,713.87C1725.52,711.813 1726.15,710.037 1727.42,708.541C1728.7,707.046 1730.21,706.298 1731.95,706.298L1770.57,706.298C1774.38,706.298 1777.48,708.168 1779.87,711.907L1831.83,796.318L1831.83,713.87C1831.83,711.813 1832.47,710.037 1833.74,708.541C1835.01,707.046 1836.52,706.298 1838.27,706.298Z" style="fill:rgb(255,253,235);fill-rule:nonzero;"/>
            </g>
        </g>
    </g>
</svg>
