<?xml version="1.0" encoding="UTF-8" standalone="no"?>
<!DOCTYPE svg PUBLIC "-//W3C//DTD SVG 1.1//EN" "http://www.w3.org/Graphics/SVG/1.1/DTD/svg11.dtd">
<svg width="100%" height="100%" viewBox="0 0 2516 806" version="1.1" xmlns="http://www.w3.org/2000/svg" xmlns:xlink="http://www.w3.org/1999/xlink" xml:space="preserve" xmlns:serif="http://www.serif.com/" style="fill-rule:evenodd;clip-rule:evenodd;stroke-linejoin:round;stroke-miterlimit:2;">
    <g transform="matrix(3.96746,0,0,3.96746,60.1254,339.072)">
        <path d="M0,112.715C23.031,97.465 56.369,84.06 93.591,75.956C184.104,18.137 260.273,34.597 272.506,38.067C146.129,0 34.443,83.629 0,112.715" style="fill:rgb(8,6,5);fill-rule:nonzero;"/>
    </g>
    <g transform="matrix(1.15299,3.79623,3.79623,-1.15299,580.494,377.151)">
        <path d="M56.357,-37.752C57.772,-26.896 59.664,-16.582 61.903,-6.838C58.774,0.938 43.868,39.096 56.357,84.204C56.357,84.204 34.637,28.164 55.223,-47.248C55.543,-44.087 55.903,-40.929 56.357,-37.752" style="fill:rgb(8,6,5);fill-rule:nonzero;"/>
    </g>
    <g transform="matrix(3.96746,0,0,3.96746,770.119,482.155)">
        <path d="M0,36.063C4.479,31.39 31.015,5.433 66.242,7.874C66.242,7.874 19.658,0 -30.512,35.676C-19.621,35.163 -9.394,35.302 0,36.063" style="fill:rgb(8,6,5);fill-rule:nonzero;"/>
    </g>
    <g transform="matrix(3.96746,0,0,3.96746,1095.43,190.964)">
        <path d="M0,50.528L-0.048,50.514L-1.432,50.292C-1.441,50.292 -2.351,50.167 -2.363,50.167L-3.015,50.018C-3.401,49.951 -3.665,49.813 -3.769,49.622C-3.872,49.483 -4.087,49.026 -4.226,47.829C-4.339,46.88 -4.39,45.489 -4.39,43.663L-4.39,12.342C-4.39,8.66 -4.728,5.744 -5.413,3.645C-6.138,1.499 -7.499,-0.463 -9.484,-2.157C-13.045,-5.216 -17.881,-6.748 -23.81,-6.748C-29.702,-6.748 -35.214,-5.27 -40.199,-2.35C-43.828,-0.149 -45.516,1.727 -45.516,3.614C-45.516,4.469 -45.208,5.24 -44.606,5.845C-43.976,6.494 -43.169,6.803 -42.201,6.803C-41.233,6.803 -40.152,6.293 -38.894,5.275C-34.584,2.13 -30.233,0.497 -26.004,0.497C-20.723,0.497 -17.496,2.427 -16.189,6.353C-15.821,7.494 -15.545,8.912 -15.426,10.639C-15.31,12.447 -15.218,16.586 -15.218,22.939C-15.218,28.823 -15.31,32.837 -15.426,35.298C-15.545,37.76 -15.795,39.657 -16.098,41.024C-16.886,43.99 -18.297,46.299 -20.431,48.057C-22.483,49.78 -25.013,50.635 -27.902,50.635C-31.093,50.635 -33.597,49.603 -35.642,47.496C-37.677,45.362 -38.682,42.721 -38.682,39.405C-38.682,35.25 -37.098,31.741 -33.819,28.661C-30.509,25.536 -25.941,23.41 -20.245,22.319C-17.792,21.808 -16.565,20.778 -16.565,19.232C-16.565,18.479 -16.818,16.053 -20.298,16.053C-21.417,16.053 -22.801,16.214 -24.493,16.543C-26.224,16.916 -27.808,17.357 -29.327,17.813C-31.025,18.367 -32.505,18.898 -33.851,19.528C-38.751,21.787 -42.574,24.688 -45.234,28.184C-47.928,31.758 -49.276,35.655 -49.276,39.866C-49.276,42.319 -48.801,44.63 -47.846,46.756C-46.88,48.882 -45.449,50.799 -43.555,52.44C-41.671,54.069 -39.503,55.302 -37.102,56.084C-34.71,56.864 -32.081,57.276 -29.291,57.276C-25.967,57.276 -22.996,56.706 -20.472,55.577C-18.658,54.817 -16.848,53.637 -15.069,52.097L-15.069,52.126C-15.069,54.648 -13.511,56.063 -10.817,56.063L-0.73,56.063C1.065,56.063 2.202,55.014 2.202,53.314C2.202,51.923 1.394,50.911 0,50.528" style="fill:rgb(8,6,5);fill-rule:nonzero;"/>
    </g>
    <g transform="matrix(3.96746,0,0,3.96746,1534.79,194.542)">
        <path d="M0,49.476C-0.022,49.476 -1.375,49.265 -1.375,49.265C-1.383,49.236 -2.375,49.096 -2.375,49.096C-3.254,48.984 -3.596,48.767 -3.716,48.624C-3.784,48.574 -4.038,48.261 -4.199,47.106C-4.331,46.083 -4.384,44.581 -4.384,42.597L-4.384,-2.218C-4.384,-3.978 -4.54,-5.205 -4.895,-5.935C-5.162,-6.505 -5.841,-7.423 -7.494,-7.423L-8.717,-7.261L-8.933,-7.218L-9.063,-7.134L-9.84,-6.712C-9.793,-6.728 -19.144,-1.992 -19.144,-1.992C-20.903,-1.123 -21.795,-0.048 -21.795,1.237C-21.795,2.063 -21.419,3.996 -18.006,4.079C-16.527,4.218 -15.958,4.405 -15.763,4.491C-15.659,4.557 -15.417,4.9 -15.263,5.819C-15.089,6.901 -14.991,8.766 -14.991,11.41L-14.991,28.949C-14.991,35.564 -15.968,40.441 -17.898,43.529C-18.958,45.318 -20.646,46.794 -22.957,47.941C-25.286,49.07 -27.683,49.667 -30.048,49.667C-34.42,49.667 -37.178,48.015 -38.399,44.667C-38.837,43.492 -39.136,42.156 -39.301,40.705C-39.511,39.08 -39.608,36.551 -39.608,33.343L-39.608,-1.001C-39.608,-3.125 -39.735,-4.326 -40.032,-5.035C-40.421,-5.951 -41.312,-6.505 -42.488,-6.505C-43.124,-6.505 -43.983,-6.296 -45.139,-5.791L-54.069,-1.779C-55.722,-1.001 -56.544,0.002 -56.544,1.213C-56.544,2.232 -56.194,2.997 -55.434,3.502C-54.845,3.889 -54.009,4.106 -52.697,4.234C-51.271,4.321 -50.812,4.645 -50.688,4.793C-50.569,4.918 -50.251,5.414 -50.251,7.046C-50.251,7.105 -50.175,9.423 -50.175,9.423L-50.175,37.869C-50.175,41.331 -49.905,44.165 -49.415,46.234C-48.857,48.467 -47.87,50.285 -46.414,51.873C-44.943,53.464 -42.917,54.73 -40.421,55.587C-37.985,56.478 -35.274,56.899 -32.369,56.899C-28.596,56.899 -25.13,56.259 -22.042,54.972C-19.761,54.029 -17.563,52.736 -15.47,51.074C-15.47,51.101 -15.479,51.19 -15.479,51.19C-15.479,52.699 -15.089,53.712 -14.266,54.314C-13.608,54.833 -12.497,55.102 -10.955,55.102L-0.659,55.102C1.152,55.102 2.229,54.029 2.229,52.316C2.229,50.802 1.433,49.775 0,49.476" style="fill:rgb(8,6,5);fill-rule:nonzero;"/>
    </g>
    <g transform="matrix(3.96746,0,0,3.96746,1742.29,231.264)">
        <path d="M0,31.055C-1.059,31.055 -2.074,31.626 -2.982,32.762C-7.596,38.173 -12.991,40.943 -18.975,40.943C-22.836,40.943 -26.052,39.92 -28.863,37.85C-31.71,35.777 -33.906,32.79 -35.444,28.91C-37,25.012 -37.779,20.345 -37.779,15.064C-37.779,10.336 -37.035,5.939 -35.571,1.981C-34.091,-1.934 -32.051,-4.951 -29.523,-7.024C-27.007,-9.076 -24.123,-10.113 -20.971,-10.113C-17.978,-10.113 -15.377,-9.019 -13.046,-6.756C-10.734,-4.543 -9.633,-2.07 -9.633,0.757C-9.633,1.946 -10.09,3.026 -11.03,4.094C-12.063,5.262 -13.867,6.647 -16.354,8.171C-16.316,8.159 -32.177,17.493 -32.177,17.493C-33.385,18.263 -34.015,18.702 -34.338,19.087C-34.769,19.589 -35,20.267 -35,21.077C-35,22.969 -33.78,24.087 -31.783,24.087C-30.889,24.087 -29.847,23.697 -28.434,22.878L-5.104,9.004C-2.672,7.557 -1.079,6.296 -0.201,5.17C0.742,3.963 1.215,2.442 1.215,0.63C1.215,-2.254 -0.125,-5.353 -2.691,-8.61C-7.065,-13.818 -12.991,-16.452 -20.319,-16.452C-24.304,-16.452 -28.146,-15.637 -31.71,-14.049C-35.269,-12.424 -38.429,-10.148 -41.021,-7.252C-43.593,-4.384 -45.653,-0.922 -47.093,3.056C-48.551,6.993 -49.256,11.202 -49.256,15.596C-49.256,21.498 -47.997,26.941 -45.51,31.853C-42.99,36.742 -39.469,40.601 -35.066,43.344C-30.66,46.091 -25.723,47.507 -20.377,47.507C-17.602,47.507 -14.787,47.09 -11.91,46.317C-9.093,45.552 -6.479,44.417 -4.223,42.976C-2.284,41.588 -0.6,40.071 0.773,38.454C2.331,36.632 3.045,35.224 3.045,34.018C3.045,33.144 2.724,32.39 2.066,31.849C1.479,31.318 0.794,31.055 0,31.055" style="fill:rgb(8,6,5);fill-rule:nonzero;"/>
    </g>
    <g transform="matrix(3.96746,0,0,3.96746,1996.94,188.311)">
        <path d="M0,51.107L-0.043,51.098L-1.432,50.877C-1.457,50.877 -2.605,50.724 -2.605,50.724C-3.484,50.574 -3.814,50.346 -3.945,50.24C-3.971,50.195 -4.246,49.889 -4.402,48.726C-4.533,47.724 -4.617,46.23 -4.617,44.272L-4.617,13.108C-4.617,9.374 -4.916,6.528 -5.598,4.413C-6.273,2.212 -7.547,0.309 -9.32,-1.214C-12.361,-4.122 -16.896,-5.625 -22.656,-5.625C-29.004,-5.625 -34.684,-3.617 -39.563,0.358L-39.563,-1.681C-39.563,-5.113 -41.39,-5.625 -42.476,-5.625C-43.27,-5.625 -44.201,-5.351 -45.28,-4.831C-45.337,-4.824 -54.033,-0.144 -54.033,-0.144C-56.011,0.784 -56.46,2.053 -56.46,2.957C-56.46,3.569 -56.247,5.523 -53.47,5.723L-52.058,5.804C-50.918,5.876 -50.714,6.319 -50.628,6.442C-50.445,6.799 -50.163,7.83 -50.163,10.85L-50.163,44.272C-50.163,48.111 -50.504,49.378 -50.628,49.753C-50.765,50.054 -51.099,50.511 -52.343,50.724C-52.357,50.724 -53.605,50.877 -53.605,50.877C-53.662,50.877 -54.949,51.098 -54.949,51.098C-56.386,51.218 -57.299,52.287 -57.299,53.858C-57.299,55.525 -56.247,56.603 -54.492,56.732L-35.464,56.732C-33.713,56.732 -32.611,55.657 -32.611,53.929C-32.611,52.443 -33.429,51.412 -34.865,51.098C-34.932,51.098 -36.274,50.877 -36.274,50.877C-36.306,50.877 -37.566,50.724 -37.566,50.724C-38.683,50.511 -38.984,50.069 -39.116,49.753C-39.27,49.302 -39.563,48.011 -39.563,44.272L-39.563,21.504C-39.563,17.557 -39.296,14.468 -38.791,12.308C-38.352,10.278 -37.542,8.506 -36.417,7.007C-35.222,5.416 -33.461,4.106 -31.189,3.12C-28.879,2.116 -26.633,1.616 -24.309,1.616C-22.34,1.616 -20.562,2.032 -19.08,2.831C-17.605,3.612 -16.664,4.606 -16.16,5.832C-15.717,6.927 -15.195,9.502 -15.195,15.644L-15.195,44.272C-15.195,48.003 -15.475,49.302 -15.645,49.753C-15.717,49.922 -15.928,50.482 -17.244,50.724C-17.285,50.724 -18.637,50.877 -18.637,50.877C-19.959,51.053 -20.752,51.263 -21.27,51.563C-21.764,51.88 -22.352,52.523 -22.352,53.858C-22.352,55.525 -21.283,56.603 -19.523,56.732L-0.717,56.732C1.096,56.732 2.215,55.657 2.215,53.929C2.215,52.507 1.398,51.481 0,51.107" style="fill:rgb(8,6,5);fill-rule:nonzero;"/>
    </g>
    <g transform="matrix(3.96746,0,0,3.96746,2208.16,190.964)">
        <path d="M0,50.528L-0.051,50.514L-1.449,50.292C-1.449,50.292 -2.336,50.167 -2.361,50.167L-3.014,50.018C-3.51,49.942 -3.682,49.76 -3.76,49.612C-3.896,49.428 -4.096,49.005 -4.242,47.853C-4.328,46.774 -4.395,45.319 -4.395,43.663L-4.395,12.342C-4.395,8.635 -4.738,5.706 -5.414,3.638C-6.107,1.521 -7.49,-0.424 -9.48,-2.157C-13.07,-5.216 -17.881,-6.748 -23.795,-6.748C-29.723,-6.748 -35.23,-5.27 -40.193,-2.35C-43.836,-0.167 -45.543,1.727 -45.543,3.614C-45.543,4.469 -45.223,5.24 -44.617,5.845C-43.996,6.494 -43.174,6.803 -42.197,6.803C-41.229,6.803 -40.178,6.316 -38.893,5.275C-34.604,2.13 -30.258,0.497 -26.008,0.497C-20.703,0.497 -17.494,2.427 -16.217,6.353C-15.82,7.447 -15.553,8.865 -15.434,10.639C-15.297,12.412 -15.213,16.454 -15.213,22.939C-15.213,28.843 -15.297,32.917 -15.434,35.298C-15.553,37.653 -15.768,39.587 -16.098,41.024C-16.891,43.99 -18.305,46.299 -20.418,48.057C-22.531,49.78 -24.963,50.635 -27.906,50.635C-31.064,50.635 -33.598,49.603 -35.646,47.496C-37.703,45.335 -38.699,42.7 -38.699,39.405C-38.699,35.257 -37.115,31.741 -33.822,28.661C-30.521,25.536 -25.951,23.41 -20.258,22.319C-17.791,21.808 -16.561,20.778 -16.561,19.232C-16.561,18.479 -16.82,16.053 -20.305,16.053C-21.455,16.053 -22.814,16.214 -24.5,16.543C-26.25,16.916 -27.818,17.357 -29.338,17.813C-30.967,18.329 -32.457,18.884 -33.859,19.528C-38.746,21.767 -42.582,24.68 -45.227,28.184C-47.92,31.741 -49.293,35.655 -49.293,39.866C-49.293,42.327 -48.805,44.665 -47.863,46.774C-46.879,48.882 -45.438,50.812 -43.553,52.44C-41.682,54.062 -39.512,55.302 -37.115,56.084C-34.703,56.864 -32.076,57.276 -29.266,57.276C-25.951,57.276 -23.002,56.706 -20.475,55.577C-18.666,54.817 -16.857,53.637 -15.084,52.097L-15.084,52.126C-15.084,54.648 -13.555,56.063 -10.82,56.063L-0.73,56.063C1.039,56.063 2.193,55.014 2.193,53.314C2.193,51.923 1.381,50.911 0,50.528" style="fill:rgb(8,6,5);fill-rule:nonzero;"/>
    </g>
    <g transform="matrix(3.96746,0,0,3.96746,845.087,210.551)">
        <path d="M0,4.27C-3.469,1.022 -8.322,-2.701 -14.443,-6.779L-21.319,-11.473C-26.341,-14.88 -29.815,-17.793 -31.596,-20.097C-33.311,-22.291 -34.145,-24.916 -34.145,-27.884C-34.145,-30.474 -33.535,-32.802 -32.307,-34.828C-31.11,-36.847 -29.387,-38.418 -27.247,-39.513C-25.054,-40.633 -22.484,-41.211 -19.584,-41.211C-16.582,-41.211 -13.621,-40.609 -10.833,-39.426C-8.023,-38.232 -5.634,-36.515 -3.683,-34.314C-2.691,-33.24 -1.195,-31.228 0.626,-28.495C1.461,-27.006 2.678,-26.664 3.534,-26.664C4.363,-26.664 5.094,-26.992 5.655,-27.619C6.16,-28.195 6.428,-28.871 6.428,-29.65L6.289,-30.378L6.371,-30.097L6.297,-30.5L6.186,-31.197C6.206,-31.141 3.616,-44.009 3.616,-44.009C3.031,-46.808 1.858,-48.216 0.19,-48.216C-0.731,-48.216 -1.518,-47.844 -2.115,-47.168C-2.079,-47.203 -2.785,-46.427 -2.785,-46.427C-3.23,-45.839 -3.71,-45.576 -4.274,-45.576C-5.048,-45.576 -5.863,-45.708 -6.723,-45.955C-6.755,-45.977 -10.813,-47.044 -10.813,-47.044C-14.438,-47.835 -17.866,-48.216 -21.042,-48.216C-25.826,-48.216 -30.128,-47.322 -33.828,-45.542C-37.564,-43.722 -40.513,-41.137 -42.563,-37.832C-44.618,-34.519 -45.639,-30.67 -45.639,-26.387C-45.639,-23.718 -45.113,-20.978 -44.063,-18.229C-43.019,-15.485 -41.51,-13.021 -39.561,-10.873C-37.841,-8.99 -36.164,-7.408 -34.605,-6.175C-33.119,-4.984 -29.774,-2.578 -24.387,1.219C-17.816,5.703 -13.301,8.971 -10.584,11.205C-4.863,16.041 -1.943,21.473 -1.943,27.369C-1.943,32.541 -3.634,36.855 -6.937,40.209C-10.229,43.552 -14.584,45.257 -19.854,45.257C-28.657,45.257 -36.291,40.731 -42.501,31.814C-43.703,30.112 -44.779,29.308 -45.89,29.308C-47.851,29.308 -49,30.554 -49,32.626C-49,33.259 -48.891,33.947 -48.679,34.713C-48.693,34.633 -45.355,48.869 -45.355,48.869L-45.326,48.939C-44.931,50.291 -44.571,51.101 -44.203,51.552C-43.693,52.163 -42.931,52.486 -41.991,52.486C-40.74,52.486 -39.746,51.877 -39.154,50.798L-38.657,49.86C-38.249,49.125 -37.841,49.125 -37.677,49.125C-37.436,49.132 -36.017,49.558 -35.409,49.728C-29.877,51.538 -24.65,52.486 -19.967,52.486C-15.555,52.486 -11.43,51.828 -7.761,50.531C-4.057,49.214 -0.918,47.374 1.654,45.035C4.203,42.713 6.223,39.853 7.656,36.475C9.065,33.153 9.781,29.441 9.781,25.43C9.781,21.308 9.008,17.529 7.549,14.229C6.061,10.934 3.534,7.582 0,4.27" style="fill:rgb(8,6,5);fill-rule:nonzero;"/>
    </g>
    <g transform="matrix(3.96746,0,0,3.96746,1269.82,301.147)">
        <path d="M0,18.318C-2.935,15.657 -6.941,12.797 -11.996,9.782C-17.242,6.747 -21.416,3.969 -24.443,1.524C-27.367,-0.838 -29.419,-3.129 -30.558,-5.282C-31.659,-7.345 -32.202,-9.825 -32.202,-12.631C-32.202,-15.203 -31.581,-17.599 -30.314,-19.786C-29.079,-21.97 -27.34,-23.683 -25.158,-24.938C-22.941,-26.139 -20.4,-26.773 -17.572,-26.773C-13.262,-26.773 -9.804,-25.484 -7.313,-22.981C-4.832,-20.481 -3.579,-16.987 -3.579,-12.705C-3.579,-6.751 -6.126,-2.664 -11.333,-0.203L-13.286,0.722C-15.001,1.581 -15.334,2.774 -15.334,3.663C-15.334,4.563 -14.952,6.685 -11.478,6.685C-8.429,6.685 -5.476,5.76 -2.691,3.884C0.051,2.015 2.283,-0.464 3.91,-3.517C5.546,-6.573 6.376,-9.755 6.376,-12.969C6.376,-15.787 5.803,-18.466 4.751,-20.882C3.819,-22.874 2.554,-24.491 1.114,-25.881C4.005,-27.941 5.546,-30.381 5.546,-33.166C5.546,-34.495 5.106,-35.679 4.246,-36.659C3.28,-37.68 2.092,-38.153 0.74,-38.153C-0.703,-38.153 -1.563,-37.573 -2.028,-37.067C-2.645,-36.393 -3.1,-35.34 -3.421,-33.78C-3.952,-31.641 -4.959,-31.641 -5.38,-31.641C-6.049,-31.641 -7.283,-31.754 -9.528,-32.371C-11.923,-33.166 -14.7,-33.553 -17.974,-33.553C-22.646,-33.553 -26.856,-32.586 -30.51,-30.683C-34.221,-28.778 -37.153,-26.044 -39.139,-22.586C-41.151,-19.136 -42.176,-15.151 -42.176,-10.782C-42.176,-6.87 -41.495,-3.334 -40.158,-0.329C-38.814,2.698 -36.542,5.682 -33.372,8.525C-30.273,11.348 -26.072,14.282 -20.885,17.347C-18.032,19.067 -15.638,20.559 -13.669,21.84L-13.675,21.84C-7.813,25.633 -6.452,28.18 -5.03,30.715C-3.593,33.27 -1.677,38.704 -4.42,43.389C-7.151,48.075 -8.982,49.057 -16.802,49.314C-22.999,49.509 -30.261,47.919 -33,47.266C-29.419,48.192 -18.002,51.446 -9.369,56.471C-9.369,56.471 7.157,54.475 7.895,36.182C7.895,36.182 8.491,25.004 0,18.318" style="fill:rgb(8,6,5);fill-rule:nonzero;"/>
    </g>
    <g transform="matrix(3.96746,0,0,3.96746,970.402,112.553)">
        <path d="M0,-15.432C0.145,-15.825 0.223,-16.237 0.223,-16.437C0.223,-16.826 -0.066,-17.089 -0.626,-17.203L-1.235,-17.307C-1.826,-17.393 -2.22,-17.75 -2.22,-18.193C-2.22,-18.881 -1.826,-19.108 -0.814,-19.108L4.556,-19.108C5.397,-19.108 5.81,-18.851 5.81,-18.243C5.81,-17.635 5.355,-17.278 4.604,-17.203C3.688,-17.168 3.422,-16.911 2.895,-15.432L-3.763,2.181C-4.185,3.356 -4.622,3.676 -5.643,3.676C-6.551,3.676 -7.02,3.379 -7.418,2.339L-14.611,-15.432C-15.213,-16.991 -15.317,-17.089 -16.438,-17.307C-17.144,-17.393 -17.464,-17.679 -17.464,-18.193C-17.464,-18.851 -17.059,-19.108 -16.179,-19.108L-8.823,-19.108C-7.839,-19.108 -7.492,-18.851 -7.492,-18.156C-7.492,-17.635 -7.839,-17.34 -8.607,-17.278C-9.585,-17.203 -9.844,-17.041 -9.844,-16.448C-9.844,-16.137 -9.758,-15.825 -9.516,-15.108L-4.831,-2.503L0,-15.432Z" style="fill:rgb(8,6,5);fill-rule:nonzero;"/>
    </g>
    <g transform="matrix(3.96746,0,0,3.96746,998.562,115.126)">
        <path d="M0,-16.686C0,-15.279 1.278,-14.111 2.792,-14.111C4.312,-14.111 5.549,-15.242 5.549,-16.686C5.549,-18.081 4.312,-19.236 2.792,-19.236C1.278,-19.236 0,-18.081 0,-16.686M5.102,-10.84C5.102,-11.571 4.855,-11.915 4.312,-11.915C4.146,-11.915 4.146,-11.915 3.392,-11.664L-0.48,-10.262C-1.398,-9.971 -1.641,-9.75 -1.641,-9.215C-1.641,-8.663 -1.296,-8.458 -0.321,-8.319C0.562,-8.202 0.727,-7.993 0.727,-6.619L0.727,-2.108C0.727,0.352 0.629,0.548 -0.232,0.73L-0.598,0.795C-1.398,0.953 -1.596,1.164 -1.596,1.651C-1.596,2.322 -1.221,2.55 -0.078,2.55L5.9,2.55C7.108,2.55 7.442,2.322 7.442,1.651C7.442,1.164 7.171,0.933 6.466,0.795L6.023,0.73C5.193,0.606 5.102,0.352 5.102,-2.108L5.102,-10.84Z" style="fill:rgb(8,6,5);fill-rule:nonzero;"/>
    </g>
    <g transform="matrix(3.96746,0,0,3.96746,1060.18,53.2181)">
        <path d="M0,13.496C0,15.956 0.098,16.152 0.937,16.334L1.327,16.399C2.092,16.537 2.347,16.767 2.347,17.255C2.347,17.937 2.011,18.154 0.804,18.154L-5.248,18.154C-6.416,18.154 -6.769,17.937 -6.769,17.255C-6.769,16.767 -6.517,16.557 -5.752,16.399L-5.322,16.334C-4.516,16.152 -4.462,15.956 -4.462,13.496L-4.462,0.256C-4.482,-0.529 -4.68,-0.775 -5.556,-0.847C-6.359,-0.912 -6.715,-1.182 -6.715,-1.71C-6.715,-2.183 -6.517,-2.438 -5.86,-2.724L-1.525,-4.444C-1.063,-4.658 -0.982,-4.658 -0.811,-4.658C-0.215,-4.658 0,-4.318 0,-3.511L0,13.496Z" style="fill:rgb(8,6,5);fill-rule:nonzero;"/>
    </g>
    <g transform="matrix(3.96746,0,0,3.96746,1101.7,53.2181)">
        <path d="M0,13.496C0,15.956 0.071,16.152 0.9,16.334L1.307,16.399C2.063,16.537 2.319,16.767 2.319,17.255C2.319,17.937 1.958,18.154 0.79,18.154L-5.263,18.154C-6.423,18.154 -6.772,17.937 -6.772,17.255C-6.772,16.767 -6.547,16.557 -5.771,16.399L-5.368,16.334C-4.536,16.152 -4.462,15.956 -4.462,13.496L-4.462,0.256C-4.495,-0.529 -4.732,-0.775 -5.591,-0.847C-6.387,-0.912 -6.741,-1.182 -6.741,-1.71C-6.741,-2.183 -6.547,-2.438 -5.883,-2.724L-1.571,-4.444C-1.094,-4.658 -1.02,-4.658 -0.839,-4.658C-0.242,-4.658 0,-4.318 0,-3.511L0,13.496Z" style="fill:rgb(8,6,5);fill-rule:nonzero;"/>
    </g>
    <g transform="matrix(3.96746,0,0,3.96746,1167.15,102.157)">
        <path d="M0,-2.461C0.988,-2.967 1.292,-3.425 1.292,-4.233C1.292,-6.62 -1.434,-8.608 -4.867,-8.608C-9.511,-8.608 -12.823,-5.496 -12.823,-1.153C-12.823,3.229 -9.696,6.147 -4.909,6.147C-1.873,6.147 1.354,4.659 1.354,3.296C1.354,2.726 0.947,2.329 0.405,2.329C0.149,2.329 -0.093,2.433 -0.622,2.691C-2.162,3.534 -3.214,3.817 -4.322,3.817C-6.741,3.817 -8.19,1.968 -8.19,-1.228C-8.19,-4.319 -6.891,-6.421 -4.999,-6.421C-3.889,-6.421 -3.004,-5.532 -3.004,-4.362C-3.004,-3.655 -3.214,-3.35 -4.382,-2.649L-6.664,-1.278C-7.002,-1.079 -7.146,-0.849 -7.146,-0.506C-7.146,0.031 -6.619,0.547 -6.022,0.547C-5.732,0.547 -5.445,0.46 -4.975,0.185L0,-2.461Z" style="fill:rgb(8,6,5);fill-rule:nonzero;"/>
    </g>
    <g transform="matrix(3.96746,0,0,3.96746,1233.06,34.9349)">
        <path d="M0,23.286C-4.069,23.286 -6.677,20.346 -6.677,15.769C-6.677,11.339 -4.069,8.376 -0.237,8.376C1.566,8.376 2.697,8.941 2.697,9.811C2.697,10.323 2.324,10.737 1.857,10.737C1.831,10.737 1.732,10.712 1.721,10.712L1.197,10.617C1.017,10.588 0.872,10.588 0.683,10.588C-1.032,10.588 -1.957,12.373 -1.957,15.665C-1.957,19.032 -0.861,20.837 1.091,20.837C2.143,20.837 3.019,20.302 3.312,19.473C3.409,19.032 3.514,18.264 3.514,16.958L3.514,5.872C3.514,4.021 3.488,4.007 2.215,3.833C1.525,3.739 1.234,3.46 1.234,2.954C1.234,2.501 1.47,2.224 2.074,1.994L6.501,0.182C6.785,0.034 7.018,0 7.136,0C7.741,0 7.976,0.415 7.976,1.408L7.976,18.104C7.976,20.564 8.023,20.761 8.874,20.942L9.246,20.987C10.032,21.165 10.273,21.376 10.273,21.863C10.273,22.546 9.902,22.753 8.737,22.753L4.787,22.753C4.372,22.753 4.072,22.443 4.072,22.081L4.072,21.645C2.783,22.862 1.773,23.286 0,23.286" style="fill:rgb(8,6,5);fill-rule:nonzero;"/>
    </g>
    <g transform="matrix(3.96746,0,0,3.96746,1310.35,91.5958)">
        <path d="M0,2.862C-0.468,3.122 -0.803,3.209 -1.059,3.209C-1.656,3.209 -2.199,2.693 -2.199,2.15C-2.199,1.813 -2.037,1.583 -1.714,1.383L0.598,0.012C1.755,-0.688 1.95,-0.982 1.95,-1.7C1.95,-2.87 1.098,-3.759 -0.053,-3.759C-1.917,-3.759 -3.226,-1.658 -3.226,1.434C-3.226,4.63 -1.786,6.479 0.657,6.479C1.755,6.479 2.803,6.196 4.348,5.353C4.869,5.094 5.114,4.991 5.356,4.991C5.908,4.991 6.294,5.387 6.294,5.958C6.294,7.321 3.103,8.809 0.025,8.809C-4.714,8.809 -7.889,5.891 -7.889,1.508C-7.889,-2.834 -4.556,-5.947 0.119,-5.947C3.532,-5.947 6.277,-3.958 6.277,-1.572C6.277,-0.763 5.94,-0.273 4.992,0.223L0,2.862Z" style="fill:rgb(8,6,5);fill-rule:nonzero;"/>
    </g>
    <g transform="matrix(3.96746,0,0,3.96746,2440.48,527.103)">
        <path d="M0,-91.891L-15.037,-91.891C-18.436,-91.891 -18.787,-89.829 -18.787,-88.943C-18.787,-87.447 -18.031,-86.846 -17.541,-86.612C-16.982,-86.329 -15.977,-86.158 -14.486,-86.076C-11.627,-85.95 -11.627,-84.656 -11.627,-83.982C-11.627,-83.183 -12.012,-81.227 -13.889,-76.419C-13.889,-76.404 -22.354,-54.126 -25.342,-46.314C-27.244,-50.87 -38.799,-78.765 -38.799,-78.765C-40.328,-82.562 -40.57,-83.939 -40.57,-84.425C-40.57,-84.823 -40.57,-85.751 -38.049,-85.902C-36.318,-86.04 -35.387,-86.186 -34.834,-86.472C-34.264,-86.755 -33.592,-87.399 -33.592,-88.857C-33.592,-89.773 -33.979,-91.891 -37.549,-91.891L-55.69,-91.891C-59.52,-91.891 -60.071,-89.994 -60.071,-88.857C-60.071,-87.544 -59.52,-86.874 -59.028,-86.54C-58.686,-86.296 -57.977,-85.988 -55.879,-85.769C-54.778,-85.663 -53.954,-85.32 -53.446,-84.734C-53.059,-84.276 -52.215,-82.944 -50.729,-79.318C-50.715,-79.302 -33.045,-37.213 -30.939,-32.16C-32.619,-28.475 -34.775,-24.203 -37.379,-19.438C-39.211,-16.037 -40.656,-13.535 -41.619,-12.036L-46.366,-5.025C-47.053,-3.981 -47.352,-3.193 -47.352,-2.512C-47.352,-1.262 -46.711,-0.69 -46.327,-0.455C-45.852,-0.157 -45.146,0 -44.084,0L-38.896,0C-37.852,0 -36.408,-0.455 -35.451,-2.598C-35.451,-2.6 -34.795,-4.144 -34.795,-4.144C-34.775,-4.178 -5.803,-79.331 -5.803,-79.331C-4.598,-82.401 -3.775,-83.712 -3.285,-84.286C-2.707,-84.995 -1.775,-85.47 -0.566,-85.706C-0.482,-85.73 1.289,-86.175 1.289,-86.175C2.777,-86.453 3.691,-87.497 3.691,-89.009C3.691,-89.887 3.334,-91.891 0,-91.891" style="fill:rgb(8,6,5);fill-rule:nonzero;"/>
    </g>
</svg>
