<svg viewBox="0 0 943 3293" xmlns="http://www.w3.org/2000/svg" xml:space="preserve" style="fill-rule:evenodd;clip-rule:evenodd;stroke-linejoin:round;stroke-miterlimit:2"><g opacity=".5"><path d="M747.26 370.966v199.635l199.635-.28-.28-53.249-146.107.281v-23.311h86.374v-48.76h-86.374v-21.068h146.387v-53.248H747.26Z" style="fill:#fefdeb;fill-rule:nonzero" transform="matrix(-.61034 -.43182 -.66376 .93819 1163.283 791.046)"/><path d="M986.752 552.385c39.238 15.134 70.638 19.057 103.468 19.057 62.82 0 96.17-28.305 96.17-66.713 0-31.982-20.18-48.253-45.97-54.425-42.91-10.099-97.9.842-97.9-15.149 0-8.977 12.63-12.063 34.23-12.063 30.02 0 63.39 6.172 86.09 15.149l12.06-53.543c-29.99-10.089-62.24-14.293-92.26-14.293-62.54 0-95.047 29.146-95.047 66.995 0 33.664 25.787 50.496 52.407 56.668 38.43 8.136 85.85-2.525 87.81 11.502 1.68 10.661-16.55 12.344-36.47 12.905-31.98.28-68.44-6.733-92.817-17.674l-11.771 51.584Z" style="fill:#fefdeb;fill-rule:nonzero" transform="scale(1.57899 -1.57899) rotate(30 4185.284 -1602.816)"/><path d="M1298.32 424.214v146.387h53.24V424.214h72.92v-53.248H1225.4v53.248h72.92Z" style="fill:#fefdeb;fill-rule:nonzero" transform="matrix(-.80314 .19452 -.19724 -.8144 1591.166 2352.196)"/><path d="M1663.13 570.601v-53.248h-73.2v-93.139h73.2v-53.248h-199.64v53.248h73.19v93.139h-73.19v53.248h199.64Z" style="fill:#fefdeb;fill-rule:nonzero" transform="rotate(105 621.27 275.42) scale(.63291)"/><path d="M1774.2 570.601h54.96l72.34-199.635h-61.97l-37.85 113.557-37.85-113.557h-61.97l72.34 199.635Z" style="fill:#fefdeb;fill-rule:nonzero" transform="scale(.45077) rotate(60 1560.117 -616.477)"/><path d="M1939.95 570.601h53.25v-40.102h93.42v40.102h53.25v-99.305c0-55.49-44.84-100.33-99.82-100.33-55.26 0-100.1 44.84-100.1 100.048v99.587Zm53.25-99.587c0-25.655 21.04-46.8 46.85-46.8 25.53 0 46.57 21.145 46.57 47.082v12.405h-93.42v-12.687Z" style="fill:#fefdeb;fill-rule:nonzero" transform="scale(-1.29686) rotate(-65.172 -535.622 1646.681)"/><path d="M2378.8 517.073h-146.39V370.966h-53.25v199.635l199.64-.28v-53.248Z" style="fill:#fefdeb;fill-rule:nonzero" transform="scale(-1.1582 1.1582) rotate(57.042 816.92 -2142.079)"/><path d="M748.382 782.74c0 55.521 44.56 100.361 99.818 100.361 54.977 0 99.817-44.84 99.817-100.08v-99.555h-53.248v99.555c0 25.8-20.759 46.832-46.569 46.832-25.81 0-46.57-21.032-46.57-47.113v-99.274h-53.248v99.274Z" style="fill:#fefdeb;fill-rule:nonzero" transform="rotate(135 487.982 337.538) scale(.62522)"/><path d="M986.752 864.885c39.238 15.134 70.638 19.057 103.468 19.057 62.82 0 96.17-28.305 96.17-66.713 0-31.982-20.18-48.253-45.97-54.425-42.91-10.099-97.9.842-97.9-15.149 0-8.977 12.63-12.063 34.23-12.063 30.02 0 63.39 6.172 86.09 15.149l12.06-53.543c-29.99-10.089-62.24-14.293-92.26-14.293-62.54 0-95.047 29.146-95.047 66.995 0 33.664 25.787 50.496 52.407 56.668 38.43 8.136 85.85-2.525 87.81 11.502 1.68 10.661-16.55 12.344-36.47 12.905-31.98.28-68.44-6.733-92.817-17.674l-11.771 51.584Z" style="fill:#fefdeb;fill-rule:nonzero" transform="scale(1.89952 -1.89952) rotate(79.097 2081.074 -987.002)"/><path d="M1424.76 883.101v-53.248h-73.2v-93.139h73.2v-53.248h-199.64v53.248h73.2v93.139h-73.2v53.248h199.64Z" style="fill:#fefdeb;fill-rule:nonzero" transform="rotate(45 338.93 135.157) scale(.933 1.01963)"/><path d="M1543.39 881.73v37.828h119.46v-42.872h-62.79c36.72-14.586 62.79-50.772 62.79-92.568 0-55.251-44.56-99.81-99.82-99.81-54.98 0-99.82 44.559-99.82 99.81 0 48.248 34.47 88.641 80.18 97.612Zm-26.65-97.612c0-25.806 20.76-46.563 46.29-46.563 25.81 0 46.57 20.757 46.57 46.563 0 25.527-20.76 46.284-46.57 46.284-25.53 0-46.29-20.757-46.29-46.284Z" style="fill:#fefdeb;fill-rule:nonzero" transform="scale(.88417 -.88417) rotate(60 3574.81 -1508.01)"/><path d="M1701.86 782.74c0 55.521 44.56 100.361 99.82 100.361 54.98 0 99.82-44.84 99.82-100.08v-99.555h-53.25v99.555c0 25.8-20.76 46.832-46.57 46.832s-46.57-21.032-46.57-47.113v-99.274h-53.25v99.274Z" style="fill:#fefdeb;fill-rule:nonzero" transform="rotate(120 677.967 914.305) scale(1.05019)"/><path d="M1939.11 683.466v199.635l199.63-.28-.28-53.249-146.1.281v-23.311h86.37v-48.76h-86.37v-21.068h146.38v-53.248h-199.63Z" style="fill:#fefdeb;fill-rule:nonzero" transform="scale(1.91166 -1.91166) rotate(52.7 3415.93 -2017.693)"/><path d="M2178.6 864.885c39.24 15.134 70.64 19.057 103.47 19.057 62.81 0 96.17-28.305 96.17-66.713 0-31.982-20.18-48.253-45.97-54.425-42.91-10.099-97.9.842-97.9-15.149 0-8.977 12.63-12.063 34.23-12.063 30.02 0 63.39 6.172 86.09 15.149l12.05-53.543c-29.98-10.089-62.23-14.293-92.25-14.293-62.54 0-95.05 29.146-95.05 66.995 0 33.664 25.79 50.496 52.41 56.668 38.43 8.136 85.85-2.525 87.81 11.502 1.68 10.661-16.55 12.344-36.47 12.905-31.98.28-68.43-6.733-92.82-17.674l-11.77 51.584Z" style="fill:#fefdeb;fill-rule:nonzero" transform="scale(.7921 -.7921) rotate(76.086 3155.338 -1934.9)"/><path d="M751.467 1195.6h52.967v-56.37h23.565l54.705 56.37h68.118l-58.019-57.77c25.231-3.08 59.14-26.9 59.14-70.09 0-44.03-31.107-71.774-82.705-71.774H751.467V1195.6Zm130.395-146.39c10.38 0 19.077 8.7 19.077 19.37 0 10.67-8.697 19.37-19.077 19.37h-77.428v-38.74h77.428Z" style="fill:#fefdeb;fill-rule:nonzero" transform="scale(-.4699 .4699) rotate(-60 -874.276 2317.818)"/><path d="M985.63 995.966V1195.6l199.64-.28-.29-53.25-146.1.28v-23.31h86.37v-48.76h-86.37v-21.07h146.39v-53.244H985.63Zm64.75-10.376 79.36-10.937-11.5-45.43-74.87 28.324 7.01 28.043Z" style="fill:#fefdeb;fill-rule:nonzero" transform="scale(.5228 -.5228) rotate(50.779 3044.82 -781.562)"/><path d="M1224.84 1195.6h53.25v-40.1h93.42v40.1h53.25v-99.3c0-55.49-44.84-100.334-99.82-100.334-55.26 0-100.1 44.844-100.1 100.044v99.59Zm53.25-99.59c0-25.65 21.04-46.8 46.85-46.8 25.53 0 46.57 21.15 46.57 47.09v12.4h-93.42v-12.69Z" style="fill:#fefdeb;fill-rule:nonzero" transform="rotate(30.97 -840.864 -899.9) scale(1.34014)"/><path d="M1536.68 1049.21v146.39h53.25v-146.39h72.92v-53.244h-199.08v53.244h72.91Z" style="fill:#fefdeb;fill-rule:nonzero" transform="scale(-.60495) rotate(-15 -10568.758 6479.333)"/><path d="M1901.5 1195.6v-53.25h-73.2v-93.14h73.2v-53.244h-199.64v53.244h73.2v93.14h-73.2v53.25h199.64Z" style="fill:#fefdeb;fill-rule:nonzero" transform="rotate(120 821.08 325.212) scale(.49738)"/><path d="M2040.05 1196.44c55.26 0 99.82-44.56 99.82-99.82 0-54.97-44.56-99.812-99.82-99.812-54.98 0-99.54 44.842-99.54 99.812 0 55.26 44.56 99.82 99.54 99.82Zm0-146.1c25.81 0 46.57 20.76 46.57 46.28 0 25.81-20.76 46.57-46.57 46.57-25.53 0-46.29-20.76-46.29-46.57 0-25.52 20.76-46.28 46.29-46.28Z" style="fill:#fefdeb;fill-rule:nonzero" transform="rotate(90 950.081 429.58) scale(.72255)"/><path d="M2231.85 1195.6v-138.79l81.36 138.79h65.03V995.966h-53.25v119.164l-70.42-119.164h-75.97V1195.6h53.25Z" style="fill:#fefdeb;fill-rule:nonzero" transform="matrix(0 -.44353 -.44353 0 772.687 2431.408)"/></g></svg>