<?xml version="1.0" encoding="UTF-8" standalone="no"?><!DOCTYPE svg PUBLIC "-//W3C//DTD SVG 1.1//EN" "http://www.w3.org/Graphics/SVG/1.1/DTD/svg11.dtd"><svg width="100%" height="100%" viewBox="0 0 4789 753" version="1.1" xmlns="http://www.w3.org/2000/svg" xmlns:xlink="http://www.w3.org/1999/xlink" xml:space="preserve" xmlns:serif="http://www.serif.com/" style="fill-rule:evenodd;clip-rule:evenodd;stroke-linejoin:round;stroke-miterlimit:2;"><g><g><path d="M384.259,387.129c0,3.402 -2.232,7.866 -6.696,13.393c-39.117,46.558 -91.096,69.837 -155.936,69.837c-66.329,-0 -120.115,-22.641 -161.357,-67.923c-40.18,-43.794 -60.27,-99.068 -60.27,-165.822c0,-64.627 19.665,-119.476 58.994,-164.545c41.03,-47.196 93.222,-70.793 156.574,-70.793c68.879,-0 122.878,21.152 161.995,63.458c4.251,4.677 6.377,8.823 6.377,12.437c0,4.039 -7.387,19.027 -22.162,44.963c-14.775,25.936 -24.076,40.499 -27.903,43.687c-1.701,1.701 -3.827,2.551 -6.378,2.551c-1.063,0 -6.377,-4.251 -15.944,-12.755c-11.48,-10.204 -22.747,-18.177 -33.802,-23.917c-16.795,-8.503 -34.227,-12.755 -52.298,-12.755c-31.251,-0 -56.23,11.692 -74.938,35.078c-17.22,21.684 -25.83,48.47 -25.83,80.359c-0,32.314 8.61,59.419 25.83,81.316c18.708,23.811 43.687,35.716 74.938,35.716c18.496,-0 36.035,-4.039 52.617,-12.118c10.842,-5.315 21.897,-12.755 33.164,-22.322c9.354,-8.079 14.563,-12.118 15.625,-12.118c2.126,0 4.252,1.17 6.378,3.508c3.402,3.827 12.649,17.114 27.743,39.861c15.52,23.598 23.279,36.566 23.279,38.904Z" style="fill:#4c6663;fill-rule:nonzero;"/><path d="M861.633,235.977c0,66.328 -21.152,121.921 -63.458,166.778c-43.156,45.494 -97.792,68.242 -163.908,68.242c-65.691,-0 -120.221,-22.96 -163.589,-68.88c-42.519,-44.857 -63.778,-100.237 -63.778,-166.14c0,-66.116 21.259,-121.709 63.778,-166.778c43.368,-46.133 97.898,-69.199 163.589,-69.199c65.265,0 119.689,23.066 163.27,69.199c42.731,45.494 64.096,101.087 64.096,166.778Zm-120.858,-0.638c0,-31.889 -9.673,-58.994 -29.019,-81.316c-20.196,-23.386 -46.026,-35.078 -77.489,-35.078c-29.976,-0 -55.38,12.118 -76.214,36.353c-20.196,23.385 -30.295,50.278 -30.295,80.679c0,32.526 9.461,59.632 28.381,81.316c19.984,22.747 46.027,34.121 78.128,34.121c29.975,-0 55.486,-12.012 76.533,-36.034c19.983,-22.96 29.975,-49.641 29.975,-80.041Z" style="fill:#4c6663;fill-rule:nonzero;"/><path d="M1335.82,21.684c-0,24.236 -1.01,60.642 -3.03,109.219c-2.019,48.577 -3.029,85.09 -3.029,109.538l0,210.147c0,5.74 -3.083,8.61 -9.248,8.61c-5.102,-0 -12.808,0.212 -23.119,0.637c-10.311,0.426 -18.017,0.638 -23.119,0.638c-5.528,0 -13.819,-0.425 -24.874,-1.275c-11.054,-0.851 -19.345,-1.276 -24.873,-1.276c-3.826,0 -8.397,-3.508 -13.712,-10.523c-15.307,-20.622 -49.746,-66.329 -103.319,-137.122c-14.669,-19.771 -36.991,-48.896 -66.967,-87.375c-0.85,-1.275 -2.445,-2.551 -4.783,-3.826c-1.701,1.488 -2.551,3.826 -2.551,7.015c-0,24.661 0.691,61.652 2.073,110.973c1.381,49.321 2.072,86.312 2.072,110.973c0,7.44 -2.87,11.161 -8.61,11.161l-110.335,-0c-6.165,-0 -9.247,-3.295 -9.247,-9.886c-0,-22.96 1.116,-57.612 3.348,-103.957c2.232,-46.345 3.348,-81.104 3.348,-104.276c0,-24.448 -1.009,-61.014 -3.029,-109.697c-2.02,-48.684 -3.03,-85.143 -3.03,-109.379c0,-4.677 4.146,-7.015 12.437,-7.015c12.33,-0 27.531,-0.851 45.601,-2.551c4.252,-0.426 12.649,-1.807 25.192,-4.146c10.63,-1.913 19.027,-2.87 25.192,-2.87c2.551,0 6.484,3.614 11.799,10.842l118.945,162.952c10.63,14.668 26.68,36.14 48.152,64.415c5.315,6.59 9.885,9.885 13.712,9.885c2.764,0 4.146,-8.291 4.146,-24.873c-0,-22.322 -1.223,-55.911 -3.668,-100.768c-2.444,-44.857 -3.667,-78.553 -3.667,-101.087c0,-7.866 2.232,-11.799 6.697,-11.799c12.755,-0 31.995,-0.532 57.718,-1.595c25.724,-1.063 44.964,-1.594 57.719,-1.594c4.039,-0 6.059,3.295 6.059,9.885Z" style="fill:#4c6663;fill-rule:nonzero;"/><path d="M1705.73,109.378c0,4.252 -2.338,6.378 -7.015,6.378c-8.079,0 -40.074,-1.594 -95.985,-4.783c-1.276,53.785 -1.914,91.308 -1.914,112.567c0,25.086 1.01,62.821 3.03,113.205c2.019,50.384 3.029,88.119 3.029,113.205c0,4.039 -0.957,6.59 -2.87,7.653c-0.638,0.425 -3.614,0.957 -8.929,1.595c-12.755,1.7 -31.463,2.551 -56.124,2.551c-27.424,-0 -46.664,-0.851 -57.719,-2.551c-5.952,-1.063 -8.928,-4.358 -8.928,-9.886c-0,-25.086 1.063,-62.714 3.189,-112.886c2.125,-50.172 3.188,-87.8 3.188,-112.886c0,-16.582 -0.85,-53.573 -2.551,-110.973c-42.518,4.252 -76.426,6.378 -101.725,6.378c-3.401,-0 -5.102,-1.063 -5.102,-3.189c0,-2.764 1.488,-10.948 4.464,-24.554c3.402,-14.882 5.315,-23.917 5.74,-27.106c0.638,-9.991 1.382,-19.983 2.233,-29.975c1.488,-15.944 4.039,-23.917 7.653,-23.917c0.425,0 1.913,0.107 4.464,0.319c34.44,4.465 85.356,6.697 152.747,6.697c19.134,-0 54.424,-2.02 105.871,-6.059c27.637,-2.126 41.562,-3.189 41.774,-3.189c4.252,0 6.697,0.266 7.335,0.797c0.637,0.532 1.063,2.605 1.275,6.219c0,5.74 -0.212,13.712 -0.638,23.916c-0.425,11.268 -0.637,19.24 -0.637,23.917c-0,5.315 0.691,13.127 2.072,23.438c1.382,10.311 2.073,18.017 2.073,23.119Z" style="fill:#4c6663;fill-rule:nonzero;"/><path d="M2119.96,456.009c-0,1.488 -2.126,2.551 -6.378,3.189c-8.078,1.275 -28.381,1.913 -60.907,1.913c-27.85,0 -46.771,-0.638 -56.762,-1.913c-4.677,-0.638 -7.335,-1.17 -7.973,-1.595c-1.275,-0.638 -2.763,-2.763 -4.464,-6.377c-3.189,-8.292 -7.866,-20.622 -14.031,-36.991c-8.291,-21.26 -21.259,-52.617 -38.904,-94.072c-3.827,-8.291 -12.65,-12.862 -26.468,-13.712c6.378,0.425 -4.571,0.637 -32.845,0.637c-3.189,0 -4.784,5.422 -4.784,16.264c0,14.456 1.329,36.034 3.986,64.734c2.658,28.7 3.987,50.278 3.987,64.734c-0,3.614 -0.957,5.74 -2.87,6.378c-2.977,0.212 -5.953,0.425 -8.929,0.637c-12.543,0.851 -32.102,1.276 -58.676,1.276c-30.4,0 -48.683,-0.638 -54.848,-1.913c-6.165,-1.276 -9.248,-4.571 -9.248,-9.886c0,-23.385 1.116,-58.675 3.348,-105.87c2.233,-47.196 3.349,-82.592 3.349,-106.19c-0,-89.926 -2.02,-160.081 -6.059,-210.465l-0.319,-4.465c-0.213,-3.614 3.136,-6.059 10.045,-7.334c6.909,-1.276 39.383,-2.551 97.42,-3.827c39.329,-0.85 70.687,-1.275 94.072,-1.275c48.471,-0 88.013,10.948 118.626,32.845c34.652,24.661 51.978,60.27 51.978,106.827c0,31.039 -4.464,55.805 -13.393,74.301c-8.929,18.495 -25.405,36.459 -49.427,53.892c-4.89,3.401 -7.335,6.59 -7.335,9.566c0,-0.212 12.968,26.468 38.904,80.041c25.937,53.573 38.905,83.123 38.905,88.651Zm-133.933,-286.042c0,-25.936 -8.504,-43.9 -25.511,-53.892c-13.181,-7.653 -33.802,-11.48 -61.864,-11.48c-20.196,0 -30.932,3.083 -32.208,9.248c-1.275,7.228 -1.913,28.062 -1.913,62.502c0,4.889 0.106,12.117 0.319,21.684c0.212,9.567 0.319,16.688 0.319,21.365c-0,1.063 3.401,2.126 10.204,3.189c12.968,1.914 26.574,2.87 40.818,2.87c46.557,0 69.836,-18.495 69.836,-55.486Z" style="fill:#4c6663;fill-rule:nonzero;"/><path d="M2482.54,360.024c-0,9.141 -1.807,25.936 -5.421,50.384c-3.827,26.574 -7.229,42.412 -10.205,47.514c-2.551,4.039 -6.059,6.059 -10.523,6.059c-1.913,0 -5.102,-0.319 -9.567,-0.957c-15.519,-2.126 -60.801,-3.189 -135.846,-3.189c-16.369,0 -40.711,-0.106 -73.025,-0.318c-32.314,-0.213 -56.549,-0.319 -72.706,-0.319c-7.016,-0 -10.524,-3.083 -10.524,-9.248c0,-23.81 1.329,-59.579 3.987,-107.306c2.657,-47.726 3.986,-83.495 3.986,-107.305c-0,-24.236 -1.276,-69.411 -3.827,-135.527c-0.638,-17.008 -1.807,-42.412 -3.508,-76.214l-0.319,-4.465c-0.425,-4.889 2.233,-7.334 7.973,-7.334c15.731,-0 39.382,0.425 70.952,1.275c31.57,0.851 55.221,1.276 70.952,1.276c15.52,-0 38.905,-0.425 70.156,-1.276c31.251,-0.85 54.636,-1.275 70.155,-1.275c11.055,-0 17.432,4.145 19.133,12.436c1.063,4.89 2.711,19.718 4.943,44.485c2.232,24.767 3.348,39.808 3.348,45.123c0,4.464 -2.126,6.696 -6.378,6.696c-1.275,0 -3.507,-0.106 -6.696,-0.318c-56.55,-4.678 -107.359,-7.016 -152.428,-7.016c-11.268,-0 -18.177,2.657 -20.728,7.972c-1.063,2.551 -1.595,10.736 -1.595,24.554c0,14.457 2.126,24.023 6.378,28.7c3.614,4.04 10.524,6.059 20.728,6.059c2.126,0 6.271,-0.159 12.436,-0.478c6.166,-0.319 11.268,-0.478 15.307,-0.478c26.787,-0 53.892,-0.745 81.316,-2.233c2.339,-0.212 8.185,-0.744 17.539,-1.594c7.228,-0.85 12.968,-1.276 17.22,-1.276c5.102,0 7.653,2.445 7.653,7.335c0,-4.465 -1.913,11.799 -5.74,48.79c-1.7,17.007 -2.551,34.014 -2.551,51.021c0,4.252 -3.082,6.378 -9.247,6.378c-0,0 -9.567,-1.063 -28.7,-3.189c-12.118,-1.275 -39.755,-1.913 -82.911,-1.913l-33.802,0c-8.716,0 -13.818,2.126 -15.307,6.378c-0.212,1.063 -0.319,7.653 -0.319,19.771c0,16.157 1.063,26.574 3.189,31.251c3.614,8.078 17.22,12.862 40.818,14.35c-0.425,-0 15.094,-0 46.557,-0c11.268,-0 28.009,-1.01 50.225,-3.03c22.216,-2.019 38.851,-3.029 49.906,-3.029c4.677,-0 7.016,3.826 7.016,11.48Z" style="fill:#4c6663;fill-rule:nonzero;"/><path d="M2513.15,84.505c-0,-3.401 2.232,-7.866 6.696,-13.393c39.117,-46.558 91.096,-69.836 155.936,-69.836c66.329,-0 120.115,22.641 161.357,67.923c40.18,43.793 60.27,99.067 60.27,165.821c-0,64.628 -19.665,119.476 -58.994,164.546c-41.03,47.195 -93.222,70.793 -156.574,70.793c-68.879,-0 -122.878,-21.153 -161.995,-63.459c-4.251,-4.677 -6.377,-8.822 -6.377,-12.436c-0,-4.04 7.387,-19.027 22.162,-44.964c14.775,-25.936 24.076,-40.498 27.903,-43.687c1.701,-1.701 3.827,-2.551 6.378,-2.551c1.063,-0 6.377,4.252 15.944,12.755c11.48,10.205 22.747,18.177 33.802,23.917c16.795,8.504 34.227,12.755 52.298,12.755c31.251,0 56.23,-11.692 74.938,-35.077c17.22,-21.685 25.83,-48.471 25.83,-80.36c0,-32.314 -8.61,-59.419 -25.83,-81.316c-18.708,-23.81 -43.687,-35.715 -74.938,-35.715c-18.496,-0 -36.035,4.039 -52.617,12.117c-10.842,5.315 -21.897,12.756 -33.164,22.322c-9.354,8.079 -14.563,12.118 -15.626,12.118c-2.125,0 -4.251,-1.169 -6.377,-3.508c-3.402,-3.826 -12.649,-17.113 -27.743,-39.861c-15.52,-23.597 -23.279,-36.565 -23.279,-38.904Z" style="fill:#4c6663;fill-rule:nonzero;"/><path d="M3359.8,449.312c-0,4.465 -0.957,7.228 -2.87,8.291c-0.851,0.638 -3.827,1.17 -8.929,1.595c-12.968,1.275 -31.251,1.913 -54.849,1.913c-33.377,0 -52.988,-0.638 -58.835,-1.913c-5.846,-1.276 -8.769,-4.146 -8.769,-8.61c-0,-16.795 2.392,-75.736 2.392,-75.736c-0,0 2.391,-58.941 2.391,-75.736c0,-8.291 -2.338,-13.074 -7.015,-14.35c-7.228,-1.7 -32.952,-2.551 -77.171,-2.551c-44.432,0 -70.368,0.851 -77.808,2.551c-4.677,1.063 -7.016,5.847 -7.016,14.35c0,16.582 0.532,41.402 1.594,74.46c1.063,33.058 1.595,57.879 1.595,74.461c-0,6.377 -2.87,10.098 -8.61,11.161c-6.803,1.275 -26.787,1.913 -59.951,1.913c-28.7,0 -46.983,-0.638 -54.848,-1.913c-6.166,-1.063 -9.248,-4.358 -9.248,-9.886c-0,-22.96 1.116,-57.612 3.348,-103.957c2.232,-46.345 3.348,-81.104 3.348,-104.276c0,-24.661 -1.063,-61.705 -3.188,-111.132c-2.126,-49.428 -3.189,-86.472 -3.189,-111.133c-0,-4.677 2.232,-7.015 6.696,-7.015c6.591,-0 16.529,0.319 29.816,0.956c13.287,0.638 23.226,0.957 29.816,0.957c6.803,0 17.061,-0.319 30.773,-0.957c13.712,-0.637 23.97,-0.956 30.772,-0.956c3.615,-0 5.422,1.913 5.422,5.74c-0,15.944 -1.17,39.808 -3.508,71.59c-2.339,31.782 -3.508,55.646 -3.508,71.59c0,7.441 2.02,11.799 6.059,13.075c5.527,1.7 32.739,2.551 81.635,2.551c45.495,-0 71.856,-0.851 79.084,-2.551c5.102,-1.276 7.653,-5.634 7.653,-13.075c0,-15.306 -0.744,-38.426 -2.232,-69.358c-1.488,-30.932 -2.232,-54.157 -2.232,-69.677c-0,-6.59 2.657,-9.885 7.972,-9.885c6.165,-0 15.572,0.319 28.222,0.956c12.649,0.638 22.162,0.957 28.54,0.957c6.165,0 15.572,-0.319 28.222,-0.957c12.649,-0.637 22.162,-0.956 28.54,-0.956c6.165,-0 9.248,2.551 9.248,7.653c-0,24.448 -1.01,61.333 -3.03,110.654c-2.019,49.321 -3.029,86.312 -3.029,110.973c-0,23.172 1.116,57.931 3.348,104.276c2.232,46.345 3.349,80.997 3.349,103.957Z" style="fill:#4c6663;fill-rule:nonzero;"/><path d="M3839.08,451.226c0,3.826 -2.657,6.484 -7.972,7.972c-6.378,1.7 -26.149,2.551 -59.313,2.551c-30.401,-0 -49.959,-0.851 -58.675,-2.551c-7.228,-1.488 -11.799,-6.272 -13.712,-14.35c-7.229,-30.613 -12.862,-46.983 -16.902,-49.109c-3.401,-1.488 -31.888,-2.232 -85.461,-2.232c-36.141,-0 -55.38,0.957 -57.719,2.87c-3.614,3.401 -7.653,14.775 -12.118,34.121c-4.039,17.645 -8.928,27.212 -14.668,28.7c-7.229,1.7 -31.464,2.551 -72.707,2.551c-32.526,-0 -48.789,-3.083 -48.789,-9.248c-0,-5.527 24.022,-73.45 72.068,-203.769c52.085,-140.948 80.36,-218.438 84.824,-232.469c2.551,-8.078 5.527,-12.117 8.929,-12.117c5.74,-0 14.616,0.531 26.627,1.594c12.011,1.063 20.993,1.594 26.946,1.594c5.74,0 14.19,-0.372 25.352,-1.116c11.161,-0.744 19.505,-1.116 25.032,-1.116c4.039,0 7.76,3.508 11.161,10.523c10.417,22.323 40.818,98.856 91.202,229.599c50.597,131.594 75.895,200.262 75.895,206.002Zm-226.091,-290.507c-4.464,9.354 -12.011,29.657 -22.641,60.908c-11.48,33.164 -17.22,52.616 -17.22,58.356c0,3.827 6.378,5.953 19.133,6.378c6.591,0.425 17.433,0.638 32.527,0.638c14.031,-0 21.791,-1.701 23.279,-5.103c0.425,-1.063 0.637,-2.551 0.637,-4.464c0,-7.016 -4.889,-26.361 -14.668,-58.038c-9.567,-30.613 -16.583,-50.171 -21.047,-58.675Z" style="fill:#4c6663;fill-rule:nonzero;"/><path d="M4347.07,449.312c-0,6.591 -3.083,9.886 -9.248,9.886l-112.886,-0c-6.165,-0 -9.248,-3.721 -9.248,-11.161c0,-21.472 0.797,-53.68 2.392,-96.623c1.594,-42.944 2.391,-75.151 2.391,-96.623c0,-6.165 -0.956,-9.46 -2.87,-9.886c-2.338,1.276 -16.582,34.121 -42.731,98.537c-15.306,37.841 -30.613,75.576 -45.919,113.205c-2.126,4.889 -4.784,7.759 -7.972,8.61c-1.063,0.212 -5.315,0.318 -12.756,0.318c-11.055,0 -17.645,-2.125 -19.771,-6.377c-11.48,-23.385 -26.574,-57.4 -45.282,-102.044c-19.984,-47.196 -34.971,-81.316 -44.963,-102.363c-0.425,-1.063 -1.382,-2.232 -2.87,-3.508c-1.488,1.914 -2.232,4.996 -2.232,9.248c-0,20.834 0.531,52.085 1.594,93.753c1.063,41.668 1.595,72.919 1.595,93.753c-0,7.44 -2.977,11.161 -8.929,11.161l-106.509,-0c-4.251,-0 -6.856,-0.691 -7.812,-2.073c-0.957,-1.382 -1.435,-3.774 -1.435,-7.175c-0,-23.173 1.116,-57.984 3.348,-104.436c2.232,-46.451 3.348,-81.263 3.348,-104.435c0,-24.661 -1.063,-70.899 -3.189,-138.716c-0.212,-17.645 -1.169,-43.9 -2.87,-78.765l-0.318,-5.421c-0.213,-4.252 4.251,-6.378 13.393,-6.378c11.692,-0 29.231,-0.372 52.616,-1.116c23.385,-0.744 40.924,-1.116 52.617,-1.116c2.338,-0 5.633,4.464 9.885,13.393l93.115,204.407c6.591,13.818 12.118,20.727 16.582,20.727c2.339,0 7.335,-7.972 14.988,-23.916c21.472,-44.644 53.254,-111.93 95.347,-201.856c3.614,-8.291 7.547,-12.436 11.799,-12.436c6.165,-0 15.466,0.318 27.903,0.956c12.436,0.638 21.844,0.957 28.221,0.957c5.315,-0 13.447,-0.532 24.395,-1.595c10.949,-1.063 19.08,-1.594 24.395,-1.594c6.378,-0 9.567,2.551 9.567,7.653c-0,25.086 -0.904,62.555 -2.711,112.408c-1.807,49.853 -2.71,87.322 -2.71,112.408c-0,23.172 0.956,57.931 2.87,104.276c1.913,46.345 2.87,80.997 2.87,103.957Z" style="fill:#4c6663;fill-rule:nonzero;"/><path d="M4788.41,182.404c-0,51.447 -13.5,93.115 -40.499,125.003c-28.912,33.802 -68.773,50.703 -119.583,50.703c-8.503,0 -21.312,-0.478 -38.426,-1.435c-17.113,-0.956 -29.922,-1.435 -38.426,-1.435c-9.141,0 -13.712,3.933 -13.712,11.799c0,9.779 0.957,24.342 2.87,43.688c1.914,19.346 2.87,33.802 2.87,43.369c0,4.889 -2.232,7.334 -6.696,7.334c-12.969,-0 -32.421,-0.372 -58.357,-1.116c-25.936,-0.744 -45.388,-1.116 -58.356,-1.116c-6.165,-0 -9.248,-3.083 -9.248,-9.248c0,-23.598 0.372,-59.047 1.116,-106.349c0.744,-47.302 1.116,-82.751 1.116,-106.349c0,-66.754 -2.87,-136.909 -8.61,-210.465l-0.319,-4.465c-0.425,-4.039 2.764,-6.484 9.567,-7.334c16.582,-2.126 53.148,-3.189 109.697,-3.189c33.377,-0 65.372,0.425 95.985,1.275c50.385,1.489 90.99,17.327 121.815,47.515c31.464,31.038 47.196,71.643 47.196,121.815Zm-127.236,5.102c-0,-49.534 -24.13,-74.301 -72.388,-74.301c-34.014,-0 -51.872,1.913 -53.573,5.74c-1.488,2.764 -2.232,27.318 -2.232,73.663c-0,6.59 0.266,16.316 0.797,29.178c0.532,12.862 0.797,22.588 0.797,29.178c0,4.252 19.134,6.378 57.4,6.378c46.132,0 69.199,-23.279 69.199,-69.836Z" style="fill:#4c6663;fill-rule:nonzero;"/></g><g><path d="M253.205,679.147c-1.972,-0 -3.23,0.596 -3.775,1.79c-0.545,1.193 -0.817,3.969 -0.817,8.328c0,6.59 0.415,11.727 1.245,15.411c0.26,1.038 0.649,1.842 1.168,2.413c0.519,0.571 1.505,1.271 2.958,2.101c3.113,1.713 4.67,3.97 4.67,6.772c-0,3.424 -2.167,5.85 -6.5,7.277c-4.332,1.427 -11.662,2.141 -21.987,2.141c-19.199,-0 -28.799,-3.633 -28.799,-10.897c0,-1.245 0.286,-2.244 0.856,-2.997c0.571,-0.752 1.868,-1.803 3.892,-3.152c2.283,-1.505 3.827,-3.282 4.631,-5.332c0.804,-2.049 1.362,-5.591 1.674,-10.624c0.259,-3.684 0.389,-16.89 0.389,-39.617c-0,-7.212 -0.363,-12.116 -1.09,-14.71c-0.726,-2.595 -2.283,-4.489 -4.67,-5.682c-2.283,-1.09 -3.814,-2.089 -4.592,-2.997c-0.778,-0.908 -1.168,-2.088 -1.168,-3.541c0,-1.92 0.74,-3.594 2.219,-5.021c1.478,-1.426 3.541,-2.477 6.187,-3.152c2.232,-0.571 5.293,-0.856 9.185,-0.856c1.712,0 5.993,0.26 12.842,0.778c1.297,0.104 3.347,0.156 6.149,0.156c4.67,0 10.897,-0.311 18.68,-0.934c4.93,-0.363 8.38,-0.545 10.352,-0.545c11.104,0 20.288,2.673 27.553,8.017c6.538,4.826 9.807,11.519 9.807,20.081c-0,4.774 -1.142,9.12 -3.425,13.037c-2.283,3.918 -5.422,6.862 -9.418,8.834c-1.66,0.83 -2.49,1.816 -2.49,2.958c-0,1.505 1.271,2.724 3.814,3.658c5.448,1.972 9.443,4.955 11.986,8.951c2.542,3.995 4.359,10.118 5.448,18.369c0.467,3.424 1.142,5.642 2.024,6.654c0.882,1.012 2.932,1.985 6.149,2.919c0.986,0.311 1.816,0.973 2.49,1.985c0.675,1.012 1.012,2.14 1.012,3.386c0,1.608 -0.622,3.23 -1.868,4.864c-1.245,1.635 -2.854,2.919 -4.825,3.853c-4.359,2.024 -10.326,3.035 -17.902,3.035c-10.118,0 -17.357,-2.672 -21.716,-8.016c-1.971,-2.387 -3.645,-5.397 -5.02,-9.029c-1.375,-3.632 -2.996,-9.288 -4.864,-16.968c-1.194,-4.929 -2.712,-8.406 -4.554,-10.429c-1.842,-2.024 -4.475,-3.114 -7.9,-3.269Zm-4.514,-39.695l-0.856,18.135l-0,0.7c-0,1.868 0.272,3.114 0.817,3.736c0.545,0.623 1.647,0.934 3.308,0.934c4.566,0 7.887,-1.18 9.963,-3.541c2.075,-2.361 3.113,-6.136 3.113,-11.325c-0,-10.014 -3.554,-15.022 -10.663,-15.022c-2.024,0 -3.451,0.467 -4.281,1.401c-0.83,0.934 -1.297,2.595 -1.401,4.982Z" style="fill:#4c6663;fill-rule:nonzero;"/><path d="M382.019,617.58l40.007,0c8.094,0 13.997,-0.168 17.707,-0.506c3.71,-0.337 7.329,-1.024 10.858,-2.062c1.089,-0.311 1.945,-0.467 2.568,-0.467c2.698,-0 5.085,1.453 7.161,4.359c3.424,4.721 5.137,10.429 5.137,17.123c-0,3.373 -0.714,6.032 -2.141,7.978c-1.427,1.946 -3.385,2.919 -5.876,2.919c-1.712,-0 -3.049,-0.351 -4.009,-1.051c-0.959,-0.701 -2.244,-2.27 -3.852,-4.709c-2.283,-3.477 -5.176,-5.799 -8.679,-6.966c-3.502,-1.168 -9.249,-1.751 -17.24,-1.751c-5.967,-0 -9.599,1.063 -10.896,3.191c-0.675,1.141 -1.077,2.672 -1.207,4.592c-0.13,1.92 -0.194,6.823 -0.194,14.71c-0,3.114 0.518,5.047 1.556,5.799c1.038,0.752 3.762,1.129 8.173,1.129c2.179,-0 3.762,-0.454 4.748,-1.363c0.985,-0.908 1.608,-2.529 1.868,-4.864c0.363,-3.01 0.739,-5.072 1.128,-6.188c0.389,-1.115 1.103,-2.088 2.141,-2.919c1.089,-0.934 2.361,-1.401 3.813,-1.401c2.128,0 3.944,1.012 5.449,3.036c1.089,1.505 2.01,4.164 2.763,7.978c0.752,3.814 1.128,7.796 1.128,11.947c0,8.199 -1.271,14.918 -3.813,20.159c-1.401,2.854 -3.529,4.281 -6.383,4.281c-1.764,-0 -2.983,-0.454 -3.658,-1.362c-0.674,-0.908 -1.193,-2.789 -1.557,-5.643c-0.778,-5.864 -4.203,-8.795 -10.274,-8.795c-2.335,-0 -3.93,0.739 -4.786,2.218c-0.857,1.479 -1.285,4.216 -1.285,8.211c0,2.439 0.169,5.591 0.506,9.457c0.338,3.866 0.688,6.421 1.051,7.667c0.415,1.556 1.699,2.633 3.853,3.23c2.153,0.597 5.747,0.895 10.78,0.895c7.783,-0 13.647,-0.999 17.59,-2.997c3.944,-1.997 7.161,-5.617 9.651,-10.857c1.453,-3.01 2.763,-5.034 3.931,-6.071c1.167,-1.038 2.685,-1.557 4.553,-1.557c2.18,-0 3.983,0.947 5.41,2.841c1.427,1.894 2.14,4.268 2.14,7.122c0,3.113 -0.804,7.005 -2.413,11.675c-1.608,4.67 -3.58,8.821 -5.915,12.453c-1.194,1.764 -2.179,2.945 -2.958,3.541c-0.778,0.597 -1.764,0.895 -2.957,0.895c-0.986,0 -2.413,-0.155 -4.281,-0.467c-3.321,-0.622 -7.758,-1.011 -13.31,-1.167l-66.002,-0c-2.647,-0 -4.696,-0.584 -6.149,-1.751c-1.453,-1.168 -2.18,-2.815 -2.18,-4.943c0,-1.505 0.312,-2.594 0.934,-3.269c0.623,-0.674 2.05,-1.53 4.281,-2.568c1.557,-0.675 2.711,-1.505 3.464,-2.491c0.752,-0.986 1.336,-2.439 1.751,-4.359c1.712,-7.835 2.569,-18.394 2.569,-31.678c-0,-20.029 -1.246,-32.664 -3.736,-37.905c-0.519,-1.037 -1.09,-1.764 -1.713,-2.179c-0.622,-0.415 -1.92,-0.908 -3.891,-1.479c-2.958,-0.882 -4.437,-2.854 -4.437,-5.915c0,-1.661 0.493,-3.139 1.479,-4.437c0.986,-1.297 2.283,-2.153 3.892,-2.568c2.023,-0.467 5.941,-0.701 11.752,-0.701Z" style="fill:#4c6663;fill-rule:nonzero;"/><path d="M558.701,621.316l38.761,33.936c3.632,3.165 6.253,4.748 7.861,4.748c2.698,-0 4.048,-2.88 4.048,-8.64c-0,-6.538 -0.39,-11 -1.168,-13.387c-0.778,-2.387 -2.413,-4.177 -4.903,-5.371c-2.024,-0.986 -3.451,-2.036 -4.281,-3.152c-0.83,-1.116 -1.246,-2.556 -1.246,-4.32c0,-4.358 2.984,-7.16 8.951,-8.406c2.439,-0.519 6.694,-0.778 12.765,-0.778c7.835,-0 13.258,0.467 16.267,1.401c4.774,1.453 7.161,4.203 7.161,8.25c-0,3.373 -1.946,5.916 -5.838,7.628c-1.556,0.674 -2.62,1.271 -3.191,1.79c-0.571,0.519 -1.064,1.297 -1.479,2.335c-1.401,3.425 -2.127,9.911 -2.179,19.458l-0,25.374c-0,3.892 0.026,9.21 0.078,15.956c0.052,9.132 -0.493,15.722 -1.635,19.77c-1.401,5.033 -3.943,7.549 -7.627,7.549c-1.609,0 -2.997,-0.337 -4.164,-1.011c-1.168,-0.675 -3.101,-2.232 -5.799,-4.67l-46.155,-41.33c-3.217,-2.906 -5.89,-4.359 -8.017,-4.359c-3.165,0 -4.748,4.385 -4.748,13.154c0,7.213 0.402,12.142 1.207,14.789c0.804,2.646 2.451,4.592 4.942,5.837c3.476,1.712 5.215,3.944 5.215,6.694c-0,7.212 -7.758,10.819 -23.272,10.819c-7.005,-0 -12.441,-0.921 -16.307,-2.764c-3.865,-1.842 -5.798,-4.449 -5.798,-7.822c-0,-1.764 0.363,-3.087 1.09,-3.969c0.726,-0.882 2.361,-2.076 4.903,-3.581c2.439,-1.452 3.918,-4.021 4.437,-7.705c0.882,-6.694 1.323,-16.319 1.323,-28.876c-0,-13.388 -0.779,-23.143 -2.335,-29.266c-0.571,-2.231 -1.297,-3.891 -2.18,-4.981c-0.882,-1.09 -2.335,-2.127 -4.358,-3.113c-2.335,-1.142 -3.957,-2.257 -4.865,-3.347c-0.908,-1.09 -1.362,-2.413 -1.362,-3.97c0,-4.981 4.281,-8.12 12.843,-9.417c2.905,-0.416 7.99,-0.623 15.255,-0.623c4.151,-0 7.174,0.324 9.068,0.973c1.893,0.648 4.138,2.114 6.732,4.397Z" style="fill:#4c6663;fill-rule:nonzero;"/><path d="M745.345,615.401c7.576,0 14.893,1.661 21.949,4.981c3.321,1.557 5.63,2.335 6.928,2.335c0.934,0 2.438,-0.233 4.514,-0.7c0.674,-0.156 1.427,-0.234 2.257,-0.234c2.698,0 5.059,1.246 7.083,3.736c4.981,6.02 7.472,13.492 7.472,22.416c-0,6.279 -2.153,10.871 -6.46,13.777c-2.335,1.557 -4.956,2.335 -7.861,2.335c-2.647,-0 -4.8,-0.571 -6.461,-1.712c-1.66,-1.142 -3.269,-3.166 -4.825,-6.071c-2.231,-4.1 -4.048,-7.044 -5.449,-8.835c-1.401,-1.79 -3.113,-3.411 -5.137,-4.864c-5.033,-3.529 -10.3,-5.293 -15.8,-5.293c-5.344,0 -9.586,1.933 -12.725,5.799c-3.14,3.866 -4.709,9.041 -4.709,15.528c-0,8.924 2.257,17.097 6.771,24.517c6.123,9.911 14.892,14.866 26.308,14.866c4.203,0 8.367,-0.7 12.492,-2.101c4.125,-1.401 7.329,-3.217 9.612,-5.449c1.972,-1.868 3.581,-2.802 4.826,-2.802c1.816,0 3.373,0.844 4.67,2.53c1.297,1.686 1.946,3.723 1.946,6.11c-0,3.009 -0.908,6.382 -2.724,10.118c-1.816,3.736 -3.996,6.668 -6.538,8.795c-1.09,0.883 -3.347,1.661 -6.772,2.335c-1.972,0.364 -4.592,1.324 -7.861,2.88c-7.679,3.684 -15.67,5.526 -23.973,5.526c-8.665,0 -17.305,-1.945 -25.918,-5.837c-10.015,-4.514 -17.928,-11.442 -23.739,-20.782c-5.708,-9.08 -8.562,-18.576 -8.562,-28.487c0,-11.519 3.58,-22.026 10.741,-31.522c6.227,-8.25 14.347,-14.555 24.362,-18.914c7.628,-3.32 15.489,-4.981 23.583,-4.981Z" style="fill:#4c6663;fill-rule:nonzero;"/><path d="M900.934,615.401c13.336,0 24.985,3.814 34.947,11.442c6.746,5.24 12.22,12.038 16.423,20.392c4.1,8.302 6.149,16.604 6.149,24.907c0,12.245 -4.047,23.194 -12.142,32.845c-6.849,8.199 -15.8,14.088 -26.852,17.668c-6.798,2.18 -13.621,3.269 -20.471,3.269c-8.976,0 -17.564,-1.868 -25.762,-5.604c-9.911,-4.514 -17.669,-11.337 -23.273,-20.47c-5.448,-8.821 -8.172,-18.55 -8.172,-29.187c-0,-12.35 3.502,-23.246 10.507,-32.69c6.227,-8.406 14.607,-14.581 25.141,-18.525c7.057,-2.698 14.892,-4.047 23.505,-4.047Zm-7.394,22.338c-4.359,0 -7.809,1.946 -10.352,5.838c-1.971,2.906 -2.957,6.356 -2.957,10.352c-0,5.863 1.193,12.647 3.58,20.353c2.387,7.705 5.396,14.542 9.029,20.509c1.608,2.543 3.593,4.566 5.954,6.071c2.361,1.505 4.761,2.257 7.199,2.257c3.944,0 7.122,-1.479 9.535,-4.436c2.413,-2.958 3.619,-6.85 3.619,-11.675c0,-6.279 -1.012,-13.05 -3.035,-20.315c-2.024,-7.264 -4.644,-13.465 -7.861,-18.602c-1.972,-3.165 -4.255,-5.656 -6.85,-7.472c-2.594,-1.816 -5.215,-2.776 -7.861,-2.88Z" style="fill:#4c6663;fill-rule:nonzero;"/><path d="M1047.88,621.316l38.761,33.936c3.632,3.165 6.252,4.748 7.861,4.748c2.698,-0 4.047,-2.88 4.047,-8.64c0,-6.538 -0.389,-11 -1.167,-13.387c-0.779,-2.387 -2.413,-4.177 -4.904,-5.371c-2.024,-0.986 -3.45,-2.036 -4.281,-3.152c-0.83,-1.116 -1.245,-2.556 -1.245,-4.32c-0,-4.358 2.984,-7.16 8.951,-8.406c2.439,-0.519 6.693,-0.778 12.764,-0.778c7.836,-0 13.258,0.467 16.268,1.401c4.773,1.453 7.16,4.203 7.16,8.25c0,3.373 -1.946,5.916 -5.837,7.628c-1.557,0.674 -2.621,1.271 -3.191,1.79c-0.571,0.519 -1.064,1.297 -1.479,2.335c-1.401,3.425 -2.128,9.911 -2.18,19.458l0,25.374c0,3.892 0.026,9.21 0.078,15.956c0.052,9.132 -0.493,15.722 -1.634,19.77c-1.401,5.033 -3.944,7.549 -7.628,7.549c-1.608,0 -2.996,-0.337 -4.164,-1.011c-1.167,-0.675 -3.1,-2.232 -5.799,-4.67l-46.155,-41.33c-3.217,-2.906 -5.889,-4.359 -8.017,-4.359c-3.165,0 -4.747,4.385 -4.747,13.154c-0,7.213 0.402,12.142 1.206,14.789c0.804,2.646 2.452,4.592 4.942,5.837c3.477,1.712 5.215,3.944 5.215,6.694c0,7.212 -7.757,10.819 -23.272,10.819c-7.005,-0 -12.44,-0.921 -16.306,-2.764c-3.866,-1.842 -5.799,-4.449 -5.799,-7.822c0,-1.764 0.364,-3.087 1.09,-3.969c0.727,-0.882 2.361,-2.076 4.904,-3.581c2.438,-1.452 3.917,-4.021 4.436,-7.705c0.882,-6.694 1.323,-16.319 1.323,-28.876c0,-13.388 -0.778,-23.143 -2.335,-29.266c-0.57,-2.231 -1.297,-3.891 -2.179,-4.981c-0.882,-1.09 -2.335,-2.127 -4.359,-3.113c-2.335,-1.142 -3.956,-2.257 -4.864,-3.347c-0.908,-1.09 -1.362,-2.413 -1.362,-3.97c-0,-4.981 4.28,-8.12 12.842,-9.417c2.906,-0.416 7.991,-0.623 15.255,-0.623c4.152,-0 7.174,0.324 9.068,0.973c1.894,0.648 4.138,2.114 6.733,4.397Z" style="fill:#4c6663;fill-rule:nonzero;"/><path d="M1210.48,617.58l41.019,0c4.41,-0.155 8.432,-0.752 12.064,-1.79c1.556,-0.415 2.932,-0.622 4.125,-0.622c4.203,-0 8.289,3.113 12.259,9.34c3.969,6.226 5.954,12.635 5.954,19.224c-0,4.515 -1.375,7.81 -4.125,9.885c-2.076,1.557 -4.566,2.335 -7.472,2.335c-2.75,0 -5.137,-0.765 -7.161,-2.296c-2.024,-1.531 -4.021,-4.06 -5.993,-7.589c-1.712,-3.217 -3.061,-5.318 -4.047,-6.304c-0.986,-0.986 -2.18,-1.479 -3.581,-1.479c-1.92,0 -3.295,0.804 -4.125,2.413c-0.83,1.608 -1.245,4.255 -1.245,7.939l-0,43.587c-0,4.462 0.467,7.705 1.401,9.729c0.934,2.023 2.698,3.58 5.292,4.67c2.802,1.193 4.709,2.322 5.721,3.385c1.012,1.064 1.518,2.53 1.518,4.398c-0,3.736 -2.53,6.512 -7.589,8.328c-5.059,1.816 -12.829,2.724 -23.311,2.724c-12.868,0 -22.416,-1.063 -28.643,-3.191c-5.24,-1.764 -7.861,-4.618 -7.861,-8.561c0,-2.128 0.934,-3.788 2.802,-4.982c0.467,-0.259 2.309,-0.882 5.526,-1.868c1.972,-0.571 3.334,-1.66 4.087,-3.269c0.752,-1.608 1.362,-4.696 1.829,-9.262c0.415,-4.047 0.804,-10.598 1.167,-19.653c0.364,-9.054 0.545,-16.903 0.545,-23.544c0,-4.67 -0.363,-7.991 -1.09,-9.963c-0.726,-1.972 -1.919,-2.958 -3.58,-2.958c-2.024,0 -3.995,1.453 -5.915,4.359c-3.477,5.293 -6.331,8.795 -8.562,10.507c-2.646,2.024 -5.215,3.036 -7.705,3.036c-2.802,-0 -5.111,-1.051 -6.928,-3.152c-1.816,-2.102 -2.724,-4.787 -2.724,-8.056c0,-3.217 0.727,-6.759 2.18,-10.624c1.453,-3.866 3.398,-7.433 5.837,-10.702c3.944,-5.293 7.835,-7.939 11.675,-7.939c1.038,-0 2.231,0.155 3.58,0.467c2.802,0.57 5.099,0.96 6.889,1.167c1.79,0.208 3.852,0.311 6.187,0.311Z" style="fill:#4c6663;fill-rule:nonzero;"/><path d="M1379.69,679.147c-1.972,-0 -3.23,0.596 -3.775,1.79c-0.545,1.193 -0.817,3.969 -0.817,8.328c-0,6.59 0.415,11.727 1.245,15.411c0.26,1.038 0.649,1.842 1.168,2.413c0.519,0.571 1.505,1.271 2.957,2.101c3.114,1.713 4.67,3.97 4.67,6.772c0,3.424 -2.166,5.85 -6.499,7.277c-4.332,1.427 -11.662,2.141 -21.988,2.141c-19.198,-0 -28.798,-3.633 -28.798,-10.897c0,-1.245 0.286,-2.244 0.856,-2.997c0.571,-0.752 1.868,-1.803 3.892,-3.152c2.283,-1.505 3.827,-3.282 4.631,-5.332c0.804,-2.049 1.362,-5.591 1.673,-10.624c0.26,-3.684 0.39,-16.89 0.39,-39.617c-0,-7.212 -0.364,-12.116 -1.09,-14.71c-0.726,-2.595 -2.283,-4.489 -4.67,-5.682c-2.283,-1.09 -3.814,-2.089 -4.592,-2.997c-0.779,-0.908 -1.168,-2.088 -1.168,-3.541c0,-1.92 0.74,-3.594 2.219,-5.021c1.478,-1.426 3.541,-2.477 6.187,-3.152c2.232,-0.571 5.293,-0.856 9.185,-0.856c1.712,0 5.993,0.26 12.842,0.778c1.297,0.104 3.347,0.156 6.149,0.156c4.67,0 10.897,-0.311 18.68,-0.934c4.929,-0.363 8.38,-0.545 10.352,-0.545c11.104,0 20.288,2.673 27.553,8.017c6.538,4.826 9.807,11.519 9.807,20.081c-0,4.774 -1.142,9.12 -3.425,13.037c-2.283,3.918 -5.422,6.862 -9.418,8.834c-1.66,0.83 -2.49,1.816 -2.49,2.958c-0,1.505 1.271,2.724 3.813,3.658c5.449,1.972 9.444,4.955 11.987,8.951c2.542,3.995 4.358,10.118 5.448,18.369c0.467,3.424 1.142,5.642 2.024,6.654c0.882,1.012 2.932,1.985 6.149,2.919c0.986,0.311 1.816,0.973 2.49,1.985c0.675,1.012 1.012,2.14 1.012,3.386c0,1.608 -0.623,3.23 -1.868,4.864c-1.245,1.635 -2.854,2.919 -4.826,3.853c-4.358,2.024 -10.325,3.035 -17.901,3.035c-10.119,0 -17.357,-2.672 -21.716,-8.016c-1.971,-2.387 -3.645,-5.397 -5.02,-9.029c-1.375,-3.632 -2.997,-9.288 -4.865,-16.968c-1.193,-4.929 -2.711,-8.406 -4.553,-10.429c-1.842,-2.024 -4.475,-3.114 -7.9,-3.269Zm-4.514,-39.695l-0.856,18.135l-0,0.7c-0,1.868 0.272,3.114 0.817,3.736c0.545,0.623 1.647,0.934 3.308,0.934c4.566,0 7.887,-1.18 9.962,-3.541c2.076,-2.361 3.114,-6.136 3.114,-11.325c-0,-10.014 -3.555,-15.022 -10.663,-15.022c-2.024,0 -3.451,0.467 -4.281,1.401c-0.83,0.934 -1.297,2.595 -1.401,4.982Z" style="fill:#4c6663;fill-rule:nonzero;"/><path d="M1508.5,617.58l40.007,0c8.094,0 13.997,-0.168 17.707,-0.506c3.71,-0.337 7.329,-1.024 10.858,-2.062c1.089,-0.311 1.945,-0.467 2.568,-0.467c2.698,-0 5.085,1.453 7.161,4.359c3.424,4.721 5.137,10.429 5.137,17.123c-0,3.373 -0.714,6.032 -2.141,7.978c-1.427,1.946 -3.385,2.919 -5.876,2.919c-1.712,-0 -3.049,-0.351 -4.009,-1.051c-0.96,-0.701 -2.244,-2.27 -3.852,-4.709c-2.283,-3.477 -5.176,-5.799 -8.679,-6.966c-3.502,-1.168 -9.249,-1.751 -17.24,-1.751c-5.967,-0 -9.599,1.063 -10.897,3.191c-0.674,1.141 -1.076,2.672 -1.206,4.592c-0.13,1.92 -0.195,6.823 -0.195,14.71c0,3.114 0.519,5.047 1.557,5.799c1.038,0.752 3.762,1.129 8.173,1.129c2.179,-0 3.762,-0.454 4.747,-1.363c0.986,-0.908 1.609,-2.529 1.868,-4.864c0.364,-3.01 0.74,-5.072 1.129,-6.188c0.389,-1.115 1.103,-2.088 2.14,-2.919c1.09,-0.934 2.361,-1.401 3.814,-1.401c2.128,0 3.944,1.012 5.449,3.036c1.089,1.505 2.01,4.164 2.763,7.978c0.752,3.814 1.128,7.796 1.128,11.947c0,8.199 -1.271,14.918 -3.813,20.159c-1.401,2.854 -3.529,4.281 -6.383,4.281c-1.764,-0 -2.983,-0.454 -3.658,-1.362c-0.675,-0.908 -1.193,-2.789 -1.557,-5.643c-0.778,-5.864 -4.203,-8.795 -10.274,-8.795c-2.335,-0 -3.93,0.739 -4.786,2.218c-0.857,1.479 -1.285,4.216 -1.285,8.211c0,2.439 0.169,5.591 0.506,9.457c0.338,3.866 0.688,6.421 1.051,7.667c0.415,1.556 1.699,2.633 3.853,3.23c2.153,0.597 5.746,0.895 10.78,0.895c7.783,-0 13.646,-0.999 17.59,-2.997c3.944,-1.997 7.161,-5.617 9.651,-10.857c1.453,-3.01 2.763,-5.034 3.931,-6.071c1.167,-1.038 2.685,-1.557 4.553,-1.557c2.18,-0 3.983,0.947 5.41,2.841c1.427,1.894 2.14,4.268 2.14,7.122c0,3.113 -0.804,7.005 -2.413,11.675c-1.608,4.67 -3.58,8.821 -5.915,12.453c-1.194,1.764 -2.179,2.945 -2.958,3.541c-0.778,0.597 -1.764,0.895 -2.957,0.895c-0.986,0 -2.413,-0.155 -4.281,-0.467c-3.321,-0.622 -7.758,-1.011 -13.31,-1.167l-66.003,-0c-2.646,-0 -4.695,-0.584 -6.148,-1.751c-1.453,-1.168 -2.18,-2.815 -2.18,-4.943c0,-1.505 0.312,-2.594 0.934,-3.269c0.623,-0.674 2.05,-1.53 4.281,-2.568c1.557,-0.675 2.711,-1.505 3.464,-2.491c0.752,-0.986 1.336,-2.439 1.751,-4.359c1.712,-7.835 2.568,-18.394 2.568,-31.678c0,-20.029 -1.245,-32.664 -3.736,-37.905c-0.518,-1.037 -1.089,-1.764 -1.712,-2.179c-0.623,-0.415 -1.92,-0.908 -3.892,-1.479c-2.957,-0.882 -4.436,-2.854 -4.436,-5.915c-0,-1.661 0.493,-3.139 1.479,-4.437c0.986,-1.297 2.283,-2.153 3.891,-2.568c2.024,-0.467 5.942,-0.701 11.753,-0.701Z" style="fill:#4c6663;fill-rule:nonzero;"/><path d="M1689.39,615.401c5.345,0 12.35,1.323 21.015,3.97c1.038,0.311 1.868,0.467 2.491,0.467c0.519,-0 2.075,-0.467 4.67,-1.401c0.83,-0.312 1.712,-0.467 2.646,-0.467c3.477,-0 7.148,2.75 11.013,8.25c3.866,5.5 5.799,10.741 5.799,15.722c0,2.906 -0.869,5.358 -2.607,7.355c-1.739,1.998 -3.853,2.997 -6.344,2.997c-2.075,0 -3.762,-0.415 -5.059,-1.245c-1.297,-0.83 -4.151,-3.295 -8.562,-7.394c-6.226,-5.812 -12.349,-8.718 -18.368,-8.718c-2.906,0 -5.228,0.701 -6.966,2.102c-1.739,1.401 -2.608,3.243 -2.608,5.526c0,4.514 3.97,7.913 11.909,10.196c10.741,3.165 17.616,5.474 20.626,6.927c13.231,6.434 19.847,15.904 19.847,28.409c0,11.053 -4.514,20.081 -13.543,27.086c-9.236,7.161 -21.3,10.741 -36.192,10.741c-6.642,0 -13.647,-0.791 -21.015,-2.374c-7.369,-1.582 -12.687,-3.437 -15.956,-5.565c-2.491,-1.66 -4.735,-5.279 -6.733,-10.857c-1.998,-5.578 -2.996,-11.014 -2.996,-16.306c-0,-2.543 0.518,-4.463 1.556,-5.76c1.297,-1.661 2.932,-2.491 4.904,-2.491c1.971,0 3.865,1.012 5.682,3.036c1.089,1.141 3.658,4.799 7.705,10.974c1.92,2.906 4.968,5.319 9.145,7.239c4.177,1.92 8.497,2.88 12.96,2.88c3.839,-0 6.953,-0.714 9.34,-2.141c2.387,-1.427 3.58,-3.256 3.58,-5.487c0,-2.076 -0.934,-3.866 -2.802,-5.371c-1.868,-1.504 -4.903,-2.905 -9.106,-4.203c-7.421,-2.335 -13.076,-4.475 -16.968,-6.421c-3.892,-1.946 -7.524,-4.397 -10.897,-7.355c-8.198,-7.265 -12.297,-15.515 -12.297,-24.751c-0,-4.566 1.063,-9.016 3.191,-13.349c2.127,-4.332 5.137,-8.081 9.028,-11.246c8.718,-7.317 19.355,-10.975 31.912,-10.975Z" style="fill:#4c6663;fill-rule:nonzero;"/><path d="M1897.36,723.823l-5.604,-0c-3.269,-0 -6.927,0.156 -10.975,0.467c-2.542,0.207 -4.307,0.311 -5.292,0.311c-3.477,0 -6.305,-0.804 -8.484,-2.413c-2.18,-1.608 -3.269,-3.71 -3.269,-6.304c-0,-1.816 0.48,-3.23 1.44,-4.242c0.96,-1.012 2.529,-1.829 4.709,-2.452c2.075,-0.519 3.476,-1.362 4.203,-2.529c0.726,-1.168 1.297,-3.438 1.712,-6.811c0.415,-3.891 0.791,-11.467 1.128,-22.727c0.338,-11.26 0.506,-22.442 0.506,-33.546c0,-4.359 -0.337,-7.265 -1.011,-8.718c-0.675,-1.452 -2.258,-2.62 -4.748,-3.502c-3.581,-1.349 -5.371,-3.658 -5.371,-6.927c0,-2.543 1.233,-4.528 3.697,-5.955c2.465,-1.426 5.903,-2.14 10.313,-2.14c1.453,0 3.165,0.026 5.137,0.078c4.359,0.156 7.524,0.233 9.496,0.233c7.42,0 15.8,-0.233 25.14,-0.7c1.972,-0.104 4.437,-0.156 7.394,-0.156c11.883,0 21.275,1.349 28.176,4.048c10.274,4.047 18.005,10.844 23.194,20.392c4.618,8.406 6.927,18.42 6.927,30.044c0,5.863 -0.856,11.739 -2.568,17.629c-1.712,5.889 -4.022,10.987 -6.927,15.294c-6.019,8.717 -14.322,14.84 -24.907,18.369c-6.227,2.075 -12.868,3.113 -19.925,3.113l-9.418,-0.311l-8.095,-0.234c-6.278,-0.207 -11.805,-0.311 -16.578,-0.311Zm16.345,-84.371l-0,60.243c-0,3.269 0.7,5.591 2.101,6.966c1.401,1.375 3.736,2.062 7.005,2.062c15.152,0 22.728,-11.519 22.728,-34.558c-0,-12.713 -1.765,-22.571 -5.293,-29.576c-3.892,-7.732 -10.482,-11.598 -19.77,-11.598c-2.49,0 -4.242,0.493 -5.254,1.479c-1.011,0.986 -1.517,2.647 -1.517,4.982Z" style="fill:#4c6663;fill-rule:nonzero;"/><path d="M2048.59,617.58l40.006,0c8.095,0 13.997,-0.168 17.707,-0.506c3.71,-0.337 7.33,-1.024 10.858,-2.062c1.09,-0.311 1.946,-0.467 2.569,-0.467c2.698,-0 5.085,1.453 7.16,4.359c3.425,4.721 5.137,10.429 5.137,17.123c0,3.373 -0.713,6.032 -2.14,7.978c-1.427,1.946 -3.386,2.919 -5.877,2.919c-1.712,-0 -3.048,-0.351 -4.008,-1.051c-0.96,-0.701 -2.244,-2.27 -3.853,-4.709c-2.283,-3.477 -5.176,-5.799 -8.678,-6.966c-3.503,-1.168 -9.249,-1.751 -17.24,-1.751c-5.968,-0 -9.6,1.063 -10.897,3.191c-0.675,1.141 -1.077,2.672 -1.206,4.592c-0.13,1.92 -0.195,6.823 -0.195,14.71c0,3.114 0.519,5.047 1.557,5.799c1.037,0.752 3.762,1.129 8.172,1.129c2.18,-0 3.762,-0.454 4.748,-1.363c0.986,-0.908 1.609,-2.529 1.868,-4.864c0.363,-3.01 0.739,-5.072 1.129,-6.188c0.389,-1.115 1.102,-2.088 2.14,-2.919c1.09,-0.934 2.361,-1.401 3.814,-1.401c2.127,0 3.943,1.012 5.448,3.036c1.09,1.505 2.011,4.164 2.763,7.978c0.753,3.814 1.129,7.796 1.129,11.947c-0,8.199 -1.271,14.918 -3.814,20.159c-1.401,2.854 -3.528,4.281 -6.382,4.281c-1.765,-0 -2.984,-0.454 -3.658,-1.362c-0.675,-0.908 -1.194,-2.789 -1.557,-5.643c-0.778,-5.864 -4.203,-8.795 -10.274,-8.795c-2.335,-0 -3.931,0.739 -4.787,2.218c-0.856,1.479 -1.284,4.216 -1.284,8.211c-0,2.439 0.169,5.591 0.506,9.457c0.337,3.866 0.687,6.421 1.051,7.667c0.415,1.556 1.699,2.633 3.852,3.23c2.154,0.597 5.747,0.895 10.78,0.895c7.784,-0 13.647,-0.999 17.591,-2.997c3.943,-1.997 7.16,-5.617 9.651,-10.857c1.453,-3.01 2.763,-5.034 3.93,-6.071c1.168,-1.038 2.686,-1.557 4.554,-1.557c2.179,-0 3.982,0.947 5.409,2.841c1.427,1.894 2.141,4.268 2.141,7.122c-0,3.113 -0.805,7.005 -2.413,11.675c-1.609,4.67 -3.581,8.821 -5.916,12.453c-1.193,1.764 -2.179,2.945 -2.957,3.541c-0.779,0.597 -1.765,0.895 -2.958,0.895c-0.986,0 -2.413,-0.155 -4.281,-0.467c-3.321,-0.622 -7.757,-1.011 -13.309,-1.167l-66.003,-0c-2.646,-0 -4.696,-0.584 -6.149,-1.751c-1.453,-1.168 -2.179,-2.815 -2.179,-4.943c-0,-1.505 0.311,-2.594 0.934,-3.269c0.623,-0.674 2.049,-1.53 4.281,-2.568c1.556,-0.675 2.711,-1.505 3.463,-2.491c0.753,-0.986 1.336,-2.439 1.752,-4.359c1.712,-7.835 2.568,-18.394 2.568,-31.678c0,-20.029 -1.245,-32.664 -3.736,-37.905c-0.519,-1.037 -1.09,-1.764 -1.712,-2.179c-0.623,-0.415 -1.92,-0.908 -3.892,-1.479c-2.958,-0.882 -4.436,-2.854 -4.436,-5.915c-0,-1.661 0.492,-3.139 1.478,-4.437c0.986,-1.297 2.283,-2.153 3.892,-2.568c2.024,-0.467 5.941,-0.701 11.753,-0.701Z" style="fill:#4c6663;fill-rule:nonzero;"/><path d="M2321.47,615.401c7.575,0 14.892,1.661 21.949,4.981c3.32,1.557 5.63,2.335 6.927,2.335c0.934,0 2.439,-0.233 4.514,-0.7c0.675,-0.156 1.427,-0.234 2.257,-0.234c2.698,0 5.059,1.246 7.083,3.736c4.981,6.02 7.472,13.492 7.472,22.416c0,6.279 -2.153,10.871 -6.46,13.777c-2.335,1.557 -4.955,2.335 -7.861,2.335c-2.647,-0 -4.8,-0.571 -6.46,-1.712c-1.661,-1.142 -3.269,-3.166 -4.826,-6.071c-2.231,-4.1 -4.047,-7.044 -5.448,-8.835c-1.401,-1.79 -3.114,-3.411 -5.137,-4.864c-5.034,-3.529 -10.3,-5.293 -15.801,-5.293c-5.344,0 -9.586,1.933 -12.725,5.799c-3.14,3.866 -4.709,9.041 -4.709,15.528c-0,8.924 2.257,17.097 6.771,24.517c6.123,9.911 14.892,14.866 26.308,14.866c4.203,0 8.367,-0.7 12.492,-2.101c4.125,-1.401 7.329,-3.217 9.613,-5.449c1.971,-1.868 3.58,-2.802 4.825,-2.802c1.816,0 3.373,0.844 4.67,2.53c1.297,1.686 1.946,3.723 1.946,6.11c0,3.009 -0.908,6.382 -2.724,10.118c-1.816,3.736 -3.996,6.668 -6.538,8.795c-1.09,0.883 -3.347,1.661 -6.772,2.335c-1.971,0.364 -4.592,1.324 -7.861,2.88c-7.679,3.684 -15.67,5.526 -23.972,5.526c-8.666,0 -17.305,-1.945 -25.919,-5.837c-10.014,-4.514 -17.928,-11.442 -23.739,-20.782c-5.708,-9.08 -8.562,-18.576 -8.562,-28.487c0,-11.519 3.581,-22.026 10.741,-31.522c6.227,-8.25 14.348,-14.555 24.362,-18.914c7.628,-3.32 15.489,-4.981 23.584,-4.981Z" style="fill:#4c6663;fill-rule:nonzero;"/><path d="M2450.05,615.946c5.916,-0 11.494,0.519 16.734,1.557c7.057,1.401 10.586,4.384 10.586,8.95c-0,1.505 -0.351,2.634 -1.051,3.386c-0.701,0.753 -2.478,1.855 -5.332,3.308c-2.386,1.194 -3.956,3.814 -4.709,7.861c-0.752,4.048 -1.128,11.935 -1.128,23.662c-0,19.821 0.493,32.093 1.479,36.815c0.363,1.505 0.921,2.659 1.673,3.463c0.753,0.805 2.063,1.674 3.931,2.608c3.424,1.556 5.137,3.814 5.137,6.771c-0,4.151 -3.165,7.005 -9.496,8.562c-6.849,1.66 -15.229,2.491 -25.14,2.491c-16.916,-0 -25.374,-3.218 -25.374,-9.652c0,-2.335 1.661,-4.514 4.982,-6.538c2.542,-1.556 4.047,-3.684 4.514,-6.382c0.986,-5.915 1.479,-18.473 1.479,-37.671c-0,-13.284 -0.675,-21.794 -2.024,-25.53c-0.726,-2.127 -2.465,-4.047 -5.215,-5.759c-2.127,-1.401 -3.554,-2.569 -4.281,-3.503c-0.726,-0.934 -1.089,-2.127 -1.089,-3.58c-0,-2.231 1.076,-4.009 3.23,-5.332c2.153,-1.323 5.954,-2.503 11.402,-3.541c6.487,-1.297 13.05,-1.946 19.692,-1.946Z" style="fill:#4c6663;fill-rule:nonzero;"/><path d="M2565.32,621.316l38.761,33.936c3.633,3.165 6.253,4.748 7.862,4.748c2.698,-0 4.047,-2.88 4.047,-8.64c-0,-6.538 -0.389,-11 -1.168,-13.387c-0.778,-2.387 -2.412,-4.177 -4.903,-5.371c-2.024,-0.986 -3.451,-2.036 -4.281,-3.152c-0.83,-1.116 -1.245,-2.556 -1.245,-4.32c-0,-4.358 2.983,-7.16 8.951,-8.406c2.438,-0.519 6.693,-0.778 12.764,-0.778c7.835,-0 13.258,0.467 16.267,1.401c4.774,1.453 7.161,4.203 7.161,8.25c0,3.373 -1.946,5.916 -5.837,7.628c-1.557,0.674 -2.621,1.271 -3.192,1.79c-0.57,0.519 -1.063,1.297 -1.478,2.335c-1.401,3.425 -2.128,9.911 -2.18,19.458l0,25.374c0,3.892 0.026,9.21 0.078,15.956c0.052,9.132 -0.493,15.722 -1.634,19.77c-1.401,5.033 -3.944,7.549 -7.628,7.549c-1.609,0 -2.997,-0.337 -4.164,-1.011c-1.168,-0.675 -3.101,-2.232 -5.799,-4.67l-46.155,-41.33c-3.217,-2.906 -5.889,-4.359 -8.017,-4.359c-3.165,0 -4.748,4.385 -4.748,13.154c0,7.213 0.403,12.142 1.207,14.789c0.804,2.646 2.452,4.592 4.942,5.837c3.477,1.712 5.215,3.944 5.215,6.694c0,7.212 -7.757,10.819 -23.272,10.819c-7.005,-0 -12.44,-0.921 -16.306,-2.764c-3.866,-1.842 -5.799,-4.449 -5.799,-7.822c0,-1.764 0.363,-3.087 1.09,-3.969c0.726,-0.882 2.361,-2.076 4.903,-3.581c2.439,-1.452 3.918,-4.021 4.437,-7.705c0.882,-6.694 1.323,-16.319 1.323,-28.876c0,-13.388 -0.778,-23.143 -2.335,-29.266c-0.571,-2.231 -1.297,-3.891 -2.179,-4.981c-0.882,-1.09 -2.335,-2.127 -4.359,-3.113c-2.335,-1.142 -3.956,-2.257 -4.865,-3.347c-0.908,-1.09 -1.362,-2.413 -1.362,-3.97c0,-4.981 4.281,-8.12 12.843,-9.417c2.906,-0.416 7.991,-0.623 15.255,-0.623c4.151,-0 7.174,0.324 9.068,0.973c1.894,0.648 4.138,2.114 6.732,4.397Z" style="fill:#4c6663;fill-rule:nonzero;"/><path d="M2710.79,617.58l40.006,0c8.095,0 13.997,-0.168 17.707,-0.506c3.71,-0.337 7.33,-1.024 10.858,-2.062c1.09,-0.311 1.946,-0.467 2.569,-0.467c2.698,-0 5.085,1.453 7.16,4.359c3.425,4.721 5.137,10.429 5.137,17.123c0,3.373 -0.713,6.032 -2.14,7.978c-1.427,1.946 -3.386,2.919 -5.877,2.919c-1.712,-0 -3.048,-0.351 -4.008,-1.051c-0.96,-0.701 -2.244,-2.27 -3.853,-4.709c-2.283,-3.477 -5.176,-5.799 -8.678,-6.966c-3.503,-1.168 -9.249,-1.751 -17.24,-1.751c-5.967,-0 -9.6,1.063 -10.897,3.191c-0.674,1.141 -1.077,2.672 -1.206,4.592c-0.13,1.92 -0.195,6.823 -0.195,14.71c0,3.114 0.519,5.047 1.557,5.799c1.038,0.752 3.762,1.129 8.172,1.129c2.18,-0 3.762,-0.454 4.748,-1.363c0.986,-0.908 1.609,-2.529 1.868,-4.864c0.363,-3.01 0.74,-5.072 1.129,-6.188c0.389,-1.115 1.102,-2.088 2.14,-2.919c1.09,-0.934 2.361,-1.401 3.814,-1.401c2.127,0 3.943,1.012 5.448,3.036c1.09,1.505 2.011,4.164 2.763,7.978c0.753,3.814 1.129,7.796 1.129,11.947c-0,8.199 -1.271,14.918 -3.814,20.159c-1.401,2.854 -3.528,4.281 -6.382,4.281c-1.764,-0 -2.984,-0.454 -3.658,-1.362c-0.675,-0.908 -1.194,-2.789 -1.557,-5.643c-0.778,-5.864 -4.203,-8.795 -10.274,-8.795c-2.335,-0 -3.931,0.739 -4.787,2.218c-0.856,1.479 -1.284,4.216 -1.284,8.211c-0,2.439 0.169,5.591 0.506,9.457c0.337,3.866 0.687,6.421 1.051,7.667c0.415,1.556 1.699,2.633 3.852,3.23c2.154,0.597 5.747,0.895 10.78,0.895c7.784,-0 13.647,-0.999 17.591,-2.997c3.943,-1.997 7.16,-5.617 9.651,-10.857c1.453,-3.01 2.763,-5.034 3.931,-6.071c1.167,-1.038 2.685,-1.557 4.553,-1.557c2.179,-0 3.982,0.947 5.409,2.841c1.427,1.894 2.141,4.268 2.141,7.122c-0,3.113 -0.805,7.005 -2.413,11.675c-1.609,4.67 -3.581,8.821 -5.916,12.453c-1.193,1.764 -2.179,2.945 -2.957,3.541c-0.779,0.597 -1.764,0.895 -2.958,0.895c-0.986,0 -2.413,-0.155 -4.281,-0.467c-3.321,-0.622 -7.757,-1.011 -13.309,-1.167l-66.003,-0c-2.646,-0 -4.696,-0.584 -6.149,-1.751c-1.453,-1.168 -2.179,-2.815 -2.179,-4.943c-0,-1.505 0.311,-2.594 0.934,-3.269c0.623,-0.674 2.05,-1.53 4.281,-2.568c1.556,-0.675 2.711,-1.505 3.463,-2.491c0.753,-0.986 1.336,-2.439 1.752,-4.359c1.712,-7.835 2.568,-18.394 2.568,-31.678c0,-20.029 -1.245,-32.664 -3.736,-37.905c-0.519,-1.037 -1.09,-1.764 -1.712,-2.179c-0.623,-0.415 -1.92,-0.908 -3.892,-1.479c-2.958,-0.882 -4.436,-2.854 -4.436,-5.915c-0,-1.661 0.493,-3.139 1.478,-4.437c0.986,-1.297 2.284,-2.153 3.892,-2.568c2.024,-0.467 5.941,-0.701 11.753,-0.701Zm41.174,-34.791c4.722,-0 8.925,0.7 12.609,2.101c1.816,0.675 3.295,1.635 4.436,2.88c1.142,1.246 1.687,2.491 1.635,3.736c-0.104,2.335 -2.309,5.163 -6.616,8.484c-7.835,6.019 -16.501,9.029 -25.996,9.029c-5.345,-0 -8.017,-1.92 -8.017,-5.76c-0,-1.349 0.272,-2.374 0.817,-3.074c0.545,-0.701 2.114,-2.063 4.709,-4.087c2.335,-1.66 3.762,-2.763 4.281,-3.308c0.519,-0.544 0.778,-1.206 0.778,-1.984c0,-0.415 -0.311,-1.168 -0.934,-2.257c-0.207,-0.364 -0.311,-0.753 -0.311,-1.168c-0,-1.349 1.167,-2.439 3.502,-3.269c2.335,-0.83 5.371,-1.271 9.107,-1.323Z" style="fill:#4c6663;fill-rule:nonzero;"/><path d="M2921.72,691.6l-9.34,20.937c-1.608,3.529 -2.906,5.902 -3.891,7.122c-0.986,1.219 -2.076,1.829 -3.269,1.829c-1.142,-0 -2.154,-0.493 -3.036,-1.479c-0.571,-0.623 -1.881,-2.906 -3.93,-6.849c-2.05,-3.944 -3.749,-7.446 -5.099,-10.508l-10.274,-23.116c-1.401,-3.217 -2.879,-4.826 -4.436,-4.826c-1.661,0 -2.569,1.375 -2.724,4.125c-0.363,6.123 -0.545,11.779 -0.545,16.968c-0,5.396 0.259,9.055 0.778,10.974c0.363,1.142 0.843,1.972 1.44,2.491c0.597,0.519 2.218,1.453 4.865,2.802c1.712,0.882 2.568,2.413 2.568,4.592c0,5.812 -7.446,8.718 -22.338,8.718c-12.557,-0 -18.836,-2.828 -18.836,-8.484c0,-1.453 0.325,-2.504 0.973,-3.153c0.649,-0.648 2.322,-1.621 5.021,-2.918c1.712,-0.779 2.866,-1.842 3.463,-3.191c0.597,-1.35 1.103,-3.97 1.518,-7.862c0.467,-4.151 0.908,-10.961 1.323,-20.431c0.415,-9.47 0.623,-17.577 0.623,-24.323c-0,-8.458 -0.649,-14.191 -1.946,-17.201c-0.467,-1.038 -0.999,-1.816 -1.596,-2.335c-0.596,-0.519 -1.725,-1.193 -3.385,-2.024c-3.685,-1.764 -5.527,-4.047 -5.527,-6.849c0,-1.816 0.688,-3.476 2.063,-4.981c1.375,-1.505 3.204,-2.569 5.487,-3.191c2.283,-0.675 5.332,-1.259 9.146,-1.752c3.814,-0.493 7.044,-0.739 9.69,-0.739c6.642,-0 11.338,0.545 14.088,1.634c1.349,0.519 2.413,1.22 3.191,2.102c0.778,0.882 1.894,2.698 3.347,5.448l16.189,29.81c1.764,3.269 2.984,5.267 3.658,5.994c0.675,0.726 1.609,1.089 2.802,1.089c1.038,0 1.959,-0.389 2.763,-1.167c0.805,-0.779 1.752,-2.231 2.841,-4.359l10.975,-21.404c1.349,-2.75 2.231,-4.54 2.646,-5.371c2.543,-5.188 5.059,-8.639 7.55,-10.351c3.165,-2.232 8.925,-3.347 17.279,-3.347c14.685,-0 22.027,3.347 22.027,10.04c-0,1.505 -0.286,2.711 -0.856,3.619c-0.571,0.909 -1.739,2.011 -3.503,3.308c-2.387,1.817 -3.892,4.437 -4.514,7.862c-1.194,7.16 -1.79,15.878 -1.79,26.152c-0,13.231 0.622,24.828 1.868,34.791c0.311,2.439 0.791,4.099 1.44,4.981c0.648,0.883 2.322,2.206 5.02,3.97c1.868,1.245 2.802,2.906 2.802,4.981c-0,3.632 -2.413,6.201 -7.239,7.706c-2.49,0.83 -5.111,1.375 -7.861,1.634c-2.75,0.26 -6.979,0.389 -12.687,0.389c-8.769,0 -15.307,-0.622 -19.614,-1.868c-4.773,-1.401 -7.16,-3.787 -7.16,-7.16c-0,-1.246 0.311,-2.27 0.934,-3.075c0.622,-0.804 2.231,-2.27 4.825,-4.397c1.349,-1.09 2.27,-3.191 2.763,-6.305c0.493,-3.113 0.74,-8.406 0.74,-15.878c-0,-4.151 -0.195,-6.875 -0.584,-8.172c-0.389,-1.297 -1.206,-1.946 -2.452,-1.946c-1.453,-0 -2.854,0.999 -4.203,2.996c-1.349,1.998 -3.373,5.981 -6.071,11.948Z" style="fill:#4c6663;fill-rule:nonzero;"/><path d="M3125.96,670.04l14.71,31.523c1.401,2.905 2.569,4.812 3.503,5.72c0.934,0.908 2.361,1.518 4.281,1.829c3.736,0.571 5.604,2.465 5.604,5.682c-0,3.788 -2.283,6.512 -6.85,8.173c-4.566,1.66 -12.038,2.49 -22.416,2.49c-11.726,0 -20.418,-0.493 -26.074,-1.478c-2.594,-0.467 -4.657,-1.414 -6.187,-2.841c-1.531,-1.427 -2.297,-3.153 -2.297,-5.176c0,-1.557 0.403,-2.763 1.207,-3.62c0.804,-0.856 2.296,-1.647 4.475,-2.373c2.439,-0.831 3.658,-2.232 3.658,-4.203c0,-3.477 -2.101,-5.527 -6.304,-6.149c-4.514,-0.623 -10.871,-0.934 -19.069,-0.934c-6.901,-0 -11.027,0.415 -12.376,1.245c-0.83,0.519 -1.556,1.453 -2.179,2.802c-0.623,1.349 -0.934,2.646 -0.934,3.892c-0,1.141 0.22,1.881 0.662,2.218c0.441,0.337 1.881,0.895 4.319,1.673c3.166,0.934 4.748,2.802 4.748,5.604c0,6.175 -7.394,9.263 -22.182,9.263c-8.406,-0 -14.581,-0.571 -18.525,-1.713c-3.632,-1.089 -5.448,-3.476 -5.448,-7.16c-0,-1.609 0.402,-2.854 1.206,-3.736c0.805,-0.883 2.245,-1.687 4.32,-2.413c3.373,-1.194 5.928,-2.867 7.667,-5.021c1.738,-2.153 4.216,-6.758 7.433,-13.815l10.974,-24.05c4.048,-8.822 6.759,-15.424 8.134,-19.809c1.375,-4.385 2.088,-8.678 2.14,-12.881c0.052,-4.463 0.325,-7.563 0.818,-9.302c0.492,-1.738 1.595,-3.437 3.307,-5.098c3.581,-3.632 8.147,-5.448 13.699,-5.448c5.241,0 10.248,2.05 15.022,6.149c6.642,5.604 16.293,21.923 28.954,48.957Zm-54.172,9.807l15.255,0c2.802,0 4.203,-0.623 4.203,-1.868c0,-1.712 -1.946,-5.915 -5.837,-12.609c-1.764,-3.061 -3.114,-5.111 -4.048,-6.149c-0.934,-1.038 -1.919,-1.556 -2.957,-1.556c-1.868,-0 -3.425,1.738 -4.67,5.214c-0.208,0.467 -0.96,2.309 -2.257,5.527c-2.18,5.292 -3.269,8.457 -3.269,9.495c-0,1.297 1.193,1.946 3.58,1.946Z" style="fill:#4c6663;fill-rule:nonzero;"/><path d="M3336.42,615.401c7.524,0 15.385,1.661 23.584,4.981c10.741,4.359 19.173,11.727 25.296,22.105c5.656,9.6 8.483,19.562 8.483,29.888c0,11.571 -3.398,22.027 -10.196,31.367c-3.113,4.359 -6.979,8.185 -11.597,11.48c-4.618,3.295 -9.34,5.617 -14.166,6.966c-1.245,0.364 -1.868,0.883 -1.868,1.557c0,1.868 2.297,3.503 6.889,4.904c4.592,1.401 9.846,2.101 15.761,2.101c3.632,0 7.083,-0.726 10.352,-2.179c0.674,-0.312 1.271,-0.467 1.79,-0.467c0.83,-0 1.66,0.648 2.491,1.946c0.83,1.297 1.245,2.594 1.245,3.891c-0,2.647 -1.66,5.449 -4.981,8.406c-3.373,3.01 -7.745,5.397 -13.115,7.161c-5.371,1.764 -10.91,2.646 -16.618,2.646c-6.693,0 -13.945,-1.271 -21.754,-3.814c-7.809,-2.542 -19.212,-7.342 -34.208,-14.399c-2.646,-1.297 -5.63,-2.374 -8.951,-3.23c-3.321,-0.856 -6.071,-1.284 -8.25,-1.284c-0.726,-0 -1.609,0.078 -2.646,0.233c-0.571,0.052 -1.064,0.078 -1.479,0.078c-0.986,0 -1.803,-0.428 -2.452,-1.284c-0.649,-0.856 -0.973,-1.933 -0.973,-3.23c0,-2.387 0.778,-4.385 2.335,-5.993c2.491,-2.491 5.552,-3.736 9.184,-3.736l4.203,0.078c1.142,-0 1.713,-0.519 1.713,-1.557c-0,-0.778 -1.064,-2.413 -3.191,-4.904c-4.826,-5.552 -8.38,-10.741 -10.664,-15.566c-3.528,-7.524 -5.292,-15.411 -5.292,-23.662c-0,-10.896 2.88,-20.651 8.639,-29.265c5.604,-8.354 13.725,-14.866 24.362,-19.536c8.717,-3.788 17.409,-5.682 26.074,-5.682Zm-7.705,22.572c-4.099,-0 -7.304,1.388 -9.613,4.164c-2.309,2.776 -3.463,6.603 -3.463,11.48c-0,5.76 0.921,12.038 2.763,18.836c1.842,6.797 4.346,13.206 7.511,19.225c4.255,8.094 9.547,12.142 15.878,12.142c4.099,-0 7.485,-1.427 10.157,-4.281c2.672,-2.854 4.008,-6.486 4.008,-10.897c0,-5.811 -1.037,-12.427 -3.113,-19.847c-2.075,-7.42 -4.722,-13.932 -7.939,-19.536c-4.151,-7.317 -9.547,-11.079 -16.189,-11.286Z" style="fill:#4c6663;fill-rule:nonzero;"/><path d="M3555.21,656.497l-0,18.991c-0,11.468 -0.856,19.588 -2.569,24.362c-3.684,10.067 -11.778,17.357 -24.284,21.871c-7.575,2.802 -16.137,4.203 -25.685,4.203c-16.656,0 -29.991,-3.969 -40.006,-11.908c-4.878,-3.892 -8.25,-8.406 -10.118,-13.543c-1.868,-5.137 -2.802,-12.557 -2.802,-22.26c-0,-3.788 0.129,-10.015 0.389,-18.68c0.155,-6.123 0.233,-10.171 0.233,-12.142c0,-4.307 -0.324,-7.291 -0.973,-8.951c-0.648,-1.661 -2.062,-3.217 -4.242,-4.67c-3.424,-2.231 -5.137,-4.722 -5.137,-7.472c0,-2.024 0.87,-3.814 2.608,-5.371c1.738,-1.556 4.034,-2.62 6.888,-3.191c5.708,-1.141 12.453,-1.712 20.237,-1.712c8.561,-0 15.67,0.648 21.326,1.946c5.552,1.245 8.328,4.073 8.328,8.483c0,2.18 -0.804,3.918 -2.413,5.215c-0.363,0.312 -1.919,1.116 -4.67,2.413c-1.66,0.727 -2.789,2.05 -3.385,3.97c-0.597,1.919 -0.895,5.085 -0.895,9.495c-0,4.515 -0.208,14.27 -0.623,29.266c-0.259,8.924 2.153,15.722 7.238,20.392c4.152,3.84 9.496,5.76 16.034,5.76c4.151,-0 7.913,-0.766 11.286,-2.297c3.373,-1.53 5.941,-3.619 7.705,-6.265c1.401,-2.024 2.361,-4.281 2.88,-6.772c0.519,-2.49 0.779,-5.889 0.779,-10.196l-0,-17.123c-0.26,-13.128 -0.636,-20.821 -1.129,-23.078c-0.493,-2.257 -2.166,-4.034 -5.02,-5.331c-2.698,-1.194 -4.54,-2.283 -5.526,-3.269c-0.986,-0.986 -1.479,-2.206 -1.479,-3.658c-0,-3.114 1.855,-5.384 5.565,-6.811c3.71,-1.427 9.664,-2.14 17.863,-2.14c8.042,-0 13.867,0.7 17.473,2.101c3.607,1.401 5.41,3.632 5.41,6.694c-0,1.505 -0.312,2.62 -0.934,3.347c-0.623,0.726 -2.258,1.842 -4.904,3.347c-2.75,1.556 -4.32,3.23 -4.709,5.02c-0.389,1.79 -0.635,8.445 -0.739,19.964Z" style="fill:#4c6663;fill-rule:nonzero;"/><path d="M3627.75,617.58l40.006,0c8.095,0 13.997,-0.168 17.707,-0.506c3.71,-0.337 7.329,-1.024 10.858,-2.062c1.089,-0.311 1.946,-0.467 2.568,-0.467c2.698,-0 5.085,1.453 7.161,4.359c3.425,4.721 5.137,10.429 5.137,17.123c-0,3.373 -0.714,6.032 -2.141,7.978c-1.427,1.946 -3.385,2.919 -5.876,2.919c-1.712,-0 -3.048,-0.351 -4.008,-1.051c-0.96,-0.701 -2.245,-2.27 -3.853,-4.709c-2.283,-3.477 -5.176,-5.799 -8.679,-6.966c-3.502,-1.168 -9.249,-1.751 -17.24,-1.751c-5.967,-0 -9.599,1.063 -10.896,3.191c-0.675,1.141 -1.077,2.672 -1.207,4.592c-0.129,1.92 -0.194,6.823 -0.194,14.71c-0,3.114 0.519,5.047 1.556,5.799c1.038,0.752 3.762,1.129 8.173,1.129c2.179,-0 3.762,-0.454 4.748,-1.363c0.986,-0.908 1.608,-2.529 1.868,-4.864c0.363,-3.01 0.739,-5.072 1.128,-6.188c0.389,-1.115 1.103,-2.088 2.141,-2.919c1.089,-0.934 2.361,-1.401 3.814,-1.401c2.127,0 3.943,1.012 5.448,3.036c1.09,1.505 2.011,4.164 2.763,7.978c0.752,3.814 1.129,7.796 1.129,11.947c-0,8.199 -1.272,14.918 -3.814,20.159c-1.401,2.854 -3.529,4.281 -6.383,4.281c-1.764,-0 -2.983,-0.454 -3.658,-1.362c-0.674,-0.908 -1.193,-2.789 -1.556,-5.643c-0.779,-5.864 -4.203,-8.795 -10.274,-8.795c-2.335,-0 -3.931,0.739 -4.787,2.218c-0.856,1.479 -1.284,4.216 -1.284,8.211c-0,2.439 0.168,5.591 0.505,9.457c0.338,3.866 0.688,6.421 1.051,7.667c0.415,1.556 1.7,2.633 3.853,3.23c2.153,0.597 5.747,0.895 10.78,0.895c7.783,-0 13.647,-0.999 17.59,-2.997c3.944,-1.997 7.161,-5.617 9.652,-10.857c1.452,-3.01 2.763,-5.034 3.93,-6.071c1.168,-1.038 2.685,-1.557 4.553,-1.557c2.18,-0 3.983,0.947 5.41,2.841c1.427,1.894 2.14,4.268 2.14,7.122c0,3.113 -0.804,7.005 -2.413,11.675c-1.608,4.67 -3.58,8.821 -5.915,12.453c-1.193,1.764 -2.179,2.945 -2.958,3.541c-0.778,0.597 -1.764,0.895 -2.957,0.895c-0.986,0 -2.413,-0.155 -4.281,-0.467c-3.321,-0.622 -7.758,-1.011 -13.31,-1.167l-66.002,-0c-2.647,-0 -4.696,-0.584 -6.149,-1.751c-1.453,-1.168 -2.179,-2.815 -2.179,-4.943c-0,-1.505 0.311,-2.594 0.934,-3.269c0.622,-0.674 2.049,-1.53 4.28,-2.568c1.557,-0.675 2.712,-1.505 3.464,-2.491c0.752,-0.986 1.336,-2.439 1.751,-4.359c1.713,-7.835 2.569,-18.394 2.569,-31.678c-0,-20.029 -1.246,-32.664 -3.736,-37.905c-0.519,-1.037 -1.09,-1.764 -1.713,-2.179c-0.622,-0.415 -1.92,-0.908 -3.891,-1.479c-2.958,-0.882 -4.437,-2.854 -4.437,-5.915c0,-1.661 0.493,-3.139 1.479,-4.437c0.986,-1.297 2.283,-2.153 3.892,-2.568c2.023,-0.467 5.941,-0.701 11.753,-0.701Zm41.173,-34.791c4.722,-0 8.925,0.7 12.609,2.101c1.816,0.675 3.295,1.635 4.437,2.88c1.141,1.246 1.686,2.491 1.634,3.736c-0.103,2.335 -2.309,5.163 -6.615,8.484c-7.836,6.019 -16.501,9.029 -25.997,9.029c-5.344,-0 -8.017,-1.92 -8.017,-5.76c0,-1.349 0.273,-2.374 0.818,-3.074c0.544,-0.701 2.114,-2.063 4.709,-4.087c2.335,-1.66 3.761,-2.763 4.28,-3.308c0.519,-0.544 0.779,-1.206 0.779,-1.984c-0,-0.415 -0.312,-1.168 -0.934,-2.257c-0.208,-0.364 -0.312,-0.753 -0.312,-1.168c0,-1.349 1.168,-2.439 3.503,-3.269c2.335,-0.83 5.37,-1.271 9.106,-1.323Z" style="fill:#4c6663;fill-rule:nonzero;"/><path d="M3803.81,723.745l-10.43,0.078c-7.316,0.104 -12.661,0.259 -16.034,0.467c-3.009,0.259 -5.163,0.389 -6.46,0.389c-3.165,0 -5.682,-0.804 -7.55,-2.413c-1.816,-1.608 -2.724,-3.528 -2.724,-5.759c0,-1.453 0.337,-2.595 1.012,-3.425c0.674,-0.83 2.309,-2.128 4.903,-3.892c1.505,-1.038 2.543,-2.659 3.114,-4.864c0.57,-2.206 1.193,-6.94 1.868,-14.205c0.986,-11.312 1.479,-25.244 1.479,-41.796c-0,-6.071 -0.403,-10.106 -1.207,-12.104c-0.804,-1.997 -2.685,-3.645 -5.643,-4.942c-3.424,-1.453 -5.137,-3.58 -5.137,-6.382c0,-2.283 1.025,-4.151 3.075,-5.604c2.049,-1.453 4.683,-2.18 7.9,-2.18c1.764,0 4.021,0.078 6.771,0.234c4.566,0.207 9.496,0.311 14.789,0.311c3.891,0 11.545,-0.155 22.96,-0.467c3.581,-0.104 6.824,-0.155 9.73,-0.155c6.901,-0 12.466,0.557 16.695,1.673c4.229,1.116 7.9,2.997 11.013,5.643c5.085,4.307 7.628,10.066 7.628,17.279c-0,3.58 -0.753,7.07 -2.257,10.468c-1.505,3.399 -3.529,6.11 -6.071,8.134c-1.816,1.453 -2.724,2.776 -2.724,3.97c-0,1.297 1.089,2.386 3.269,3.269c4.254,1.712 8.12,4.592 11.597,8.639c3.58,4.203 5.37,9.47 5.37,15.8c0,7.472 -2.724,14.296 -8.172,20.47c-7.213,8.147 -17.876,12.22 -31.99,12.22c-1.92,0 -6.642,-0.129 -14.165,-0.389c-6.85,-0.259 -11.053,-0.415 -12.609,-0.467Zm5.37,-84.449l0,16.034c0,2.542 0.324,4.332 0.973,5.37c0.649,1.038 1.777,1.557 3.386,1.557c3.839,-0 6.667,-1.181 8.484,-3.542c1.816,-2.361 2.724,-6.058 2.724,-11.091c-0,-4.877 -0.934,-8.652 -2.802,-11.325c-1.868,-2.672 -4.515,-4.008 -7.939,-4.008c-1.816,-0 -3.075,0.506 -3.775,1.518c-0.701,1.011 -1.051,2.841 -1.051,5.487Zm0,44.832l0,7.394c0,6.798 0.493,11.312 1.479,13.543c0.986,2.231 2.983,3.347 5.993,3.347c7.887,-0 11.831,-4.618 11.831,-13.854c-0,-11.52 -4.411,-17.279 -13.232,-17.279c-2.283,-0 -3.866,0.493 -4.748,1.478c-0.882,0.986 -1.323,2.776 -1.323,5.371Z" style="fill:#4c6663;fill-rule:nonzero;"/><path d="M3931.92,617.58l40.007,0c8.094,0 13.997,-0.168 17.707,-0.506c3.71,-0.337 7.329,-1.024 10.857,-2.062c1.09,-0.311 1.946,-0.467 2.569,-0.467c2.698,-0 5.085,1.453 7.161,4.359c3.424,4.721 5.137,10.429 5.137,17.123c-0,3.373 -0.714,6.032 -2.141,7.978c-1.427,1.946 -3.386,2.919 -5.876,2.919c-1.713,-0 -3.049,-0.351 -4.009,-1.051c-0.96,-0.701 -2.244,-2.27 -3.852,-4.709c-2.284,-3.477 -5.176,-5.799 -8.679,-6.966c-3.502,-1.168 -9.249,-1.751 -17.24,-1.751c-5.967,-0 -9.599,1.063 -10.897,3.191c-0.674,1.141 -1.076,2.672 -1.206,4.592c-0.13,1.92 -0.195,6.823 -0.195,14.71c0,3.114 0.519,5.047 1.557,5.799c1.038,0.752 3.762,1.129 8.173,1.129c2.179,-0 3.761,-0.454 4.747,-1.363c0.986,-0.908 1.609,-2.529 1.868,-4.864c0.364,-3.01 0.74,-5.072 1.129,-6.188c0.389,-1.115 1.103,-2.088 2.14,-2.919c1.09,-0.934 2.361,-1.401 3.814,-1.401c2.128,0 3.944,1.012 5.449,3.036c1.089,1.505 2.01,4.164 2.763,7.978c0.752,3.814 1.128,7.796 1.128,11.947c0,8.199 -1.271,14.918 -3.814,20.159c-1.401,2.854 -3.528,4.281 -6.382,4.281c-1.764,-0 -2.984,-0.454 -3.658,-1.362c-0.675,-0.908 -1.194,-2.789 -1.557,-5.643c-0.778,-5.864 -4.203,-8.795 -10.274,-8.795c-2.335,-0 -3.93,0.739 -4.787,2.218c-0.856,1.479 -1.284,4.216 -1.284,8.211c0,2.439 0.169,5.591 0.506,9.457c0.337,3.866 0.688,6.421 1.051,7.667c0.415,1.556 1.699,2.633 3.853,3.23c2.153,0.597 5.746,0.895 10.78,0.895c7.783,-0 13.646,-0.999 17.59,-2.997c3.943,-1.997 7.161,-5.617 9.651,-10.857c1.453,-3.01 2.763,-5.034 3.931,-6.071c1.167,-1.038 2.685,-1.557 4.553,-1.557c2.179,-0 3.983,0.947 5.409,2.841c1.427,1.894 2.141,4.268 2.141,7.122c-0,3.113 -0.804,7.005 -2.413,11.675c-1.609,4.67 -3.58,8.821 -5.915,12.453c-1.194,1.764 -2.18,2.945 -2.958,3.541c-0.778,0.597 -1.764,0.895 -2.958,0.895c-0.986,0 -2.412,-0.155 -4.28,-0.467c-3.321,-0.622 -7.758,-1.011 -13.31,-1.167l-66.003,-0c-2.646,-0 -4.696,-0.584 -6.148,-1.751c-1.453,-1.168 -2.18,-2.815 -2.18,-4.943c0,-1.505 0.312,-2.594 0.934,-3.269c0.623,-0.674 2.05,-1.53 4.281,-2.568c1.557,-0.675 2.711,-1.505 3.464,-2.491c0.752,-0.986 1.336,-2.439 1.751,-4.359c1.712,-7.835 2.568,-18.394 2.568,-31.678c0,-20.029 -1.245,-32.664 -3.736,-37.905c-0.519,-1.037 -1.089,-1.764 -1.712,-2.179c-0.623,-0.415 -1.92,-0.908 -3.892,-1.479c-2.957,-0.882 -4.436,-2.854 -4.436,-5.915c-0,-1.661 0.493,-3.139 1.479,-4.437c0.986,-1.297 2.283,-2.153 3.891,-2.568c2.024,-0.467 5.942,-0.701 11.753,-0.701Zm41.174,-34.791c4.722,-0 8.925,0.7 12.609,2.101c1.816,0.675 3.295,1.635 4.437,2.88c1.141,1.246 1.686,2.491 1.634,3.736c-0.104,2.335 -2.309,5.163 -6.616,8.484c-7.835,6.019 -16.5,9.029 -25.996,9.029c-5.345,-0 -8.017,-1.92 -8.017,-5.76c0,-1.349 0.272,-2.374 0.817,-3.074c0.545,-0.701 2.115,-2.063 4.709,-4.087c2.335,-1.66 3.762,-2.763 4.281,-3.308c0.519,-0.544 0.778,-1.206 0.778,-1.984c0,-0.415 -0.311,-1.168 -0.934,-2.257c-0.207,-0.364 -0.311,-0.753 -0.311,-1.168c0,-1.349 1.168,-2.439 3.503,-3.269c2.335,-0.83 5.37,-1.271 9.106,-1.323Z" style="fill:#4c6663;fill-rule:nonzero;"/><path d="M4125.1,615.401c7.575,0 14.892,1.661 21.949,4.981c3.32,1.557 5.629,2.335 6.927,2.335c0.934,0 2.438,-0.233 4.514,-0.7c0.675,-0.156 1.427,-0.234 2.257,-0.234c2.698,0 5.059,1.246 7.083,3.736c4.981,6.02 7.472,13.492 7.472,22.416c0,6.279 -2.153,10.871 -6.46,13.777c-2.335,1.557 -4.956,2.335 -7.861,2.335c-2.647,-0 -4.8,-0.571 -6.46,-1.712c-1.661,-1.142 -3.269,-3.166 -4.826,-6.071c-2.231,-4.1 -4.047,-7.044 -5.448,-8.835c-1.401,-1.79 -3.114,-3.411 -5.137,-4.864c-5.034,-3.529 -10.3,-5.293 -15.801,-5.293c-5.344,0 -9.586,1.933 -12.725,5.799c-3.14,3.866 -4.709,9.041 -4.709,15.528c-0,8.924 2.257,17.097 6.771,24.517c6.123,9.911 14.892,14.866 26.308,14.866c4.203,0 8.367,-0.7 12.492,-2.101c4.125,-1.401 7.329,-3.217 9.613,-5.449c1.971,-1.868 3.58,-2.802 4.825,-2.802c1.816,0 3.373,0.844 4.67,2.53c1.297,1.686 1.946,3.723 1.946,6.11c0,3.009 -0.908,6.382 -2.724,10.118c-1.816,3.736 -3.996,6.668 -6.538,8.795c-1.09,0.883 -3.347,1.661 -6.772,2.335c-1.971,0.364 -4.592,1.324 -7.861,2.88c-7.679,3.684 -15.67,5.526 -23.972,5.526c-8.666,0 -17.305,-1.945 -25.919,-5.837c-10.015,-4.514 -17.928,-11.442 -23.739,-20.782c-5.708,-9.08 -8.562,-18.576 -8.562,-28.487c0,-11.519 3.581,-22.026 10.741,-31.522c6.227,-8.25 14.347,-14.555 24.362,-18.914c7.628,-3.32 15.489,-4.981 23.584,-4.981Z" style="fill:#4c6663;fill-rule:nonzero;"/><path d="M4280.69,615.401c13.336,0 24.985,3.814 34.948,11.442c6.745,5.24 12.219,12.038 16.422,20.392c4.1,8.302 6.149,16.604 6.149,24.907c0,12.245 -4.047,23.194 -12.142,32.845c-6.849,8.199 -15.8,14.088 -26.852,17.668c-6.798,2.18 -13.621,3.269 -20.47,3.269c-8.977,0 -17.565,-1.868 -25.763,-5.604c-9.911,-4.514 -17.668,-11.337 -23.272,-20.47c-5.449,-8.821 -8.173,-18.55 -8.173,-29.187c0,-12.35 3.503,-23.246 10.508,-32.69c6.226,-8.406 14.606,-14.581 25.14,-18.525c7.057,-2.698 14.892,-4.047 23.505,-4.047Zm-7.394,22.338c-4.358,0 -7.809,1.946 -10.352,5.838c-1.971,2.906 -2.957,6.356 -2.957,10.352c-0,5.863 1.193,12.647 3.58,20.353c2.387,7.705 5.396,14.542 9.029,20.509c1.608,2.543 3.593,4.566 5.954,6.071c2.361,1.505 4.761,2.257 7.2,2.257c3.943,0 7.121,-1.479 9.534,-4.436c2.413,-2.958 3.619,-6.85 3.619,-11.675c0,-6.279 -1.011,-13.05 -3.035,-20.315c-2.024,-7.264 -4.644,-13.465 -7.861,-18.602c-1.972,-3.165 -4.255,-5.656 -6.85,-7.472c-2.594,-1.816 -5.214,-2.776 -7.861,-2.88Z" style="fill:#4c6663;fill-rule:nonzero;"/><path d="M4418.15,615.946c5.915,-0 11.493,0.519 16.734,1.557c7.057,1.401 10.586,4.384 10.586,8.95c-0,1.505 -0.351,2.634 -1.051,3.386c-0.701,0.753 -2.478,1.855 -5.332,3.308c-2.387,1.194 -3.956,3.814 -4.709,7.861c-0.752,4.048 -1.128,11.935 -1.128,23.662c-0,19.821 0.493,32.093 1.479,36.815c0.363,1.505 0.921,2.659 1.673,3.463c0.752,0.805 2.063,1.674 3.931,2.608c3.424,1.556 5.137,3.814 5.137,6.771c-0,4.151 -3.166,7.005 -9.496,8.562c-6.849,1.66 -15.229,2.491 -25.14,2.491c-16.916,-0 -25.374,-3.218 -25.374,-9.652c0,-2.335 1.661,-4.514 4.981,-6.538c2.543,-1.556 4.048,-3.684 4.515,-6.382c0.986,-5.915 1.479,-18.473 1.479,-37.671c-0,-13.284 -0.675,-21.794 -2.024,-25.53c-0.727,-2.127 -2.465,-4.047 -5.215,-5.759c-2.127,-1.401 -3.554,-2.569 -4.281,-3.503c-0.726,-0.934 -1.089,-2.127 -1.089,-3.58c-0,-2.231 1.076,-4.009 3.23,-5.332c2.153,-1.323 5.954,-2.503 11.402,-3.541c6.486,-1.297 13.05,-1.946 19.692,-1.946Z" style="fill:#4c6663;fill-rule:nonzero;"/><path d="M4537.62,615.401c5.345,0 12.35,1.323 21.015,3.97c1.038,0.311 1.868,0.467 2.491,0.467c0.519,-0 2.075,-0.467 4.67,-1.401c0.83,-0.312 1.712,-0.467 2.646,-0.467c3.477,-0 7.148,2.75 11.014,8.25c3.865,5.5 5.798,10.741 5.798,15.722c0,2.906 -0.869,5.358 -2.607,7.355c-1.738,1.998 -3.853,2.997 -6.344,2.997c-2.075,0 -3.762,-0.415 -5.059,-1.245c-1.297,-0.83 -4.151,-3.295 -8.561,-7.394c-6.227,-5.812 -12.35,-8.718 -18.369,-8.718c-2.906,0 -5.228,0.701 -6.966,2.102c-1.738,1.401 -2.608,3.243 -2.608,5.526c0,4.514 3.97,7.913 11.909,10.196c10.741,3.165 17.616,5.474 20.626,6.927c13.231,6.434 19.847,15.904 19.847,28.409c0,11.053 -4.514,20.081 -13.543,27.086c-9.236,7.161 -21.3,10.741 -36.192,10.741c-6.642,0 -13.647,-0.791 -21.015,-2.374c-7.368,-1.582 -12.687,-3.437 -15.956,-5.565c-2.491,-1.66 -4.735,-5.279 -6.733,-10.857c-1.997,-5.578 -2.996,-11.014 -2.996,-16.306c-0,-2.543 0.519,-4.463 1.556,-5.76c1.298,-1.661 2.932,-2.491 4.904,-2.491c1.972,0 3.866,1.012 5.682,3.036c1.089,1.141 3.658,4.799 7.705,10.974c1.92,2.906 4.969,5.319 9.146,7.239c4.177,1.92 8.496,2.88 12.959,2.88c3.84,-0 6.953,-0.714 9.34,-2.141c2.387,-1.427 3.58,-3.256 3.58,-5.487c0,-2.076 -0.934,-3.866 -2.802,-5.371c-1.868,-1.504 -4.903,-2.905 -9.106,-4.203c-7.42,-2.335 -13.076,-4.475 -16.968,-6.421c-3.892,-1.946 -7.524,-4.397 -10.897,-7.355c-8.198,-7.265 -12.297,-15.515 -12.297,-24.751c-0,-4.566 1.063,-9.016 3.191,-13.349c2.127,-4.332 5.137,-8.081 9.029,-11.246c8.717,-7.317 19.354,-10.975 31.911,-10.975Z" style="fill:#4c6663;fill-rule:nonzero;"/></g></g></svg>