<svg viewBox="0 0 1527 204" xmlns="http://www.w3.org/2000/svg" xml:space="preserve" style="fill-rule:evenodd;clip-rule:evenodd;stroke-linejoin:round;stroke-miterlimit:2"><path d="M1174.22 979.057C1123.24 1040.34 1042.08 1080 950.754 1080c-91.331 0-172.484-39.66-223.47-100.943l223.47-403.615 223.466 403.615Z" style="fill:#fffdeb" transform="matrix(0 .4553 -.50417 0 1816.42 -331.131)"/><path d="M1174.22 979.057C1123.24 1040.34 1042.08 1080 950.754 1080c-91.331 0-172.484-39.66-223.47-100.943l223.47-403.615 223.466 403.615Z" style="fill:#fffdeb;fill-opacity:.6" transform="matrix(0 .4553 -.50417 0 1307.66 -331.131)"/><path d="M1174.22 979.057C1123.24 1040.34 1042.08 1080 950.754 1080c-91.331 0-172.484-39.66-223.47-100.943l223.47-403.615 223.466 403.615Z" style="fill:#fffdeb;fill-opacity:.2" transform="matrix(0 .4553 -.50417 0 798.889 -331.131)"/><path d="M1174.22 979.057C1123.24 1040.34 1042.08 1080 950.754 1080c-91.331 0-172.484-39.66-223.47-100.943l223.47-403.615 223.466 403.615Z" style="fill:#fffdeb;fill-opacity:.8" transform="matrix(0 .4553 -.50417 0 1562.04 -331.131)"/><path d="M1174.22 979.057C1123.24 1040.34 1042.08 1080 950.754 1080c-91.331 0-172.484-39.66-223.47-100.943l223.47-403.615 223.466 403.615Z" style="fill:#fffdeb;fill-opacity:.4" transform="matrix(0 .4553 -.50417 0 1053.27 -331.131)"/><path d="M1174.22 979.057C1123.24 1040.34 1042.08 1080 950.754 1080c-91.331 0-172.484-39.66-223.47-100.943l223.47-403.615 223.466 403.615Z" style="fill:#fffdeb;fill-opacity:.1" transform="matrix(0 .4553 -.50417 0 544.505 -331.131)"/></svg>