<svg viewBox="0 0 1500 525" xmlns="http://www.w3.org/2000/svg" xml:space="preserve" style="fill-rule:evenodd;clip-rule:evenodd;stroke-miterlimit:2"><path d="M186.502 47.595c-.762.387-1.88.584-2.885.584-2.907 0-4.019-1.827-4.019-3.937 0-1.677.692-3.175 1.789-4.117.993-.873 2.346-1.364 3.685-1.364 1.246 0 2.217.268 2.708.578l.487-1.158c-.343-.277-1.408-.668-2.942-.668-1.91 0-3.488.589-4.751 1.595-1.597 1.226-2.549 3.147-2.549 5.283 0 3.291 2.163 5.035 5.233 5.035 1.512 0 2.724-.316 3.473-.647l-.229-1.184Zm5.399 1.831c2.84 0 4.911-2.28 4.911-4.984 0-1.961-1.255-3.679-3.67-3.679-2.759 0-4.889 2.183-4.889 5.077 0 1.989 1.381 3.586 3.631 3.586h.017Zm.147-1.158c-1.307 0-2.279-.986-2.279-2.462 0-1.984 1.296-3.885 3.219-3.885 1.729 0 2.274 1.544 2.274 2.544 0 2.094-1.477 3.803-3.197 3.803h-.017Zm7.417.953.703-3.817c.401-2.203 2.004-3.423 3.098-3.423 1.131 0 1.487.704 1.487 1.639 0 .326-.058.727-.109 1.029l-.867 4.572h1.475l.886-4.632c.075-.427.143-.995.143-1.324 0-2.014-1.344-2.502-2.309-2.502-1.336 0-2.573.72-3.342 1.933h-.034l.237-1.728h-1.336a35.61 35.61 0 0 1-.375 2.262l-1.132 5.991h1.475Zm8.1-.401c.424.318 1.259.596 2.225.606 1.81.01 3.307-1.017 3.307-2.738 0-.96-.66-1.676-1.668-2.174-.853-.429-1.259-.792-1.259-1.391 0-.695.651-1.226 1.519-1.226.707 0 1.283.246 1.578.417l.418-1.109c-.327-.22-1.048-.442-1.862-.442-1.803 0-3.132 1.109-3.132 2.565 0 .87.547 1.595 1.631 2.136.983.493 1.249.882 1.249 1.494 0 .716-.657 1.334-1.648 1.334-.705 0-1.507-.301-1.939-.557l-.419 1.085Zm13.418-1.18a5.225 5.225 0 0 1-2.475.605c-.915 0-1.645-.363-2.027-1.124-.202-.422-.285-1.14-.205-1.538 3.315.079 5.983-.398 5.983-2.621 0-1.257-.973-2.199-2.665-2.199-2.757 0-4.801 2.641-4.801 5.207 0 1.907 1.072 3.456 3.417 3.456 1.239 0 2.359-.341 2.991-.698l-.218-1.088Zm-.164-4.661c0 1.27-1.857 1.517-4.384 1.482.307-1.126 1.403-2.579 2.956-2.579.822 0 1.428.387 1.428 1.079v.018Zm3.809 6.242 1.575-8.253h-1.475l-1.575 8.253h1.475Zm1.229-9.811c.596 0 1.02-.43 1.032-1.016-.012-.557-.401-.95-.933-.95-.546 0-1.004.431-1.004 1.022 0 .534.378.944.888.944h.017Zm2.956 9.811 2.339-12.22h-1.475l-2.338 12.22h1.474Zm13.924-12.22-.751 4.04c-.41-.173-1.075-.278-1.653-.278a5.497 5.497 0 0 0-5.511 5.482c0 1.763.96 3.181 2.731 3.181 1.313 0 2.442-.672 3.31-1.952h.034l-.259 1.747h1.376c.053-.804.182-1.684.338-2.524l1.855-9.696h-1.47Zm-1.497 7.888c-.365 1.936-1.859 3.343-3.108 3.343-1.395 0-1.772-1.158-1.772-2.165 0-2.361 1.741-4.134 3.855-4.134.674 0 1.216.161 1.547.343l-.522 2.613Zm9.543 2.751a5.217 5.217 0 0 1-2.474.605c-.915 0-1.645-.363-2.028-1.124-.201-.422-.285-1.14-.204-1.538 3.315.079 5.983-.398 5.983-2.621 0-1.257-.974-2.199-2.665-2.199-2.757 0-4.801 2.641-4.801 5.207 0 1.907 1.072 3.456 3.417 3.456 1.239 0 2.359-.341 2.991-.698l-.219-1.088Zm-.163-4.661c0 1.27-1.858 1.517-4.385 1.482.307-1.126 1.404-2.579 2.957-2.579.822 0 1.428.387 1.428 1.079v.018Zm1.996 5.841c.423.318 1.258.596 2.225.606 1.81.01 3.307-1.017 3.307-2.738 0-.96-.66-1.676-1.668-2.174-.854-.429-1.26-.792-1.26-1.391 0-.695.652-1.226 1.519-1.226.707 0 1.283.246 1.579.417l.418-1.109c-.329-.22-1.049-.442-1.864-.442-1.801 0-3.13 1.109-3.13 2.565 0 .87.547 1.595 1.631 2.136.982.493 1.249.882 1.249 1.494 0 .716-.657 1.334-1.648 1.334-.705 0-1.508-.301-1.94-.557l-.418 1.085Zm17.938.401c-.046-.91.058-2.425.348-3.968l.784-4.162c-.637-.185-1.591-.328-2.455-.328-3.724 0-6.099 2.804-6.099 5.802 0 1.588 1.019 2.861 2.649 2.861 1.35 0 2.626-.704 3.554-2.525h.035c-.125.925-.219 1.813-.205 2.32h1.389Zm-.951-4.876c-.435 2.377-1.999 3.887-3.302 3.887-1.259 0-1.626-1.002-1.626-1.886 0-2.459 1.981-4.413 4.215-4.413.577 0 .92.065 1.131.135l-.418 2.277Zm4.715 4.876.638-3.411c.398-2.144 1.549-3.615 2.818-3.615.191 0 .334.012.454.035l.287-1.431a2.81 2.81 0 0 0-.464-.036c-1.2 0-2.136.911-2.685 2.08h-.051c.099-.633.18-1.254.262-1.875h-1.304c-.104.815-.237 1.947-.438 3.015l-.997 5.238h1.48Zm6.871-9.822-.295 1.569h-1.244l-.229 1.161h1.244l-.773 3.982c-.118.578-.188 1.088-.188 1.62 0 .854.485 1.695 1.856 1.695.459 0 .926-.061 1.166-.162l.059-1.166a2.927 2.927 0 0 1-.724.077c-.592 0-.85-.336-.85-.858 0-.5.086-.94.178-1.409l.72-3.779h2.11l.234-1.161h-2.11l.372-1.994-1.526.425Zm3.216 9.421c.424.318 1.259.596 2.225.606 1.81.01 3.307-1.017 3.307-2.738 0-.96-.66-1.676-1.668-2.174-.853-.429-1.259-.792-1.259-1.391 0-.695.651-1.226 1.52-1.226.706 0 1.282.246 1.577.417l.419-1.109c-.328-.22-1.049-.442-1.863-.442-1.803 0-3.132 1.109-3.132 2.565 0 .87.547 1.595 1.631 2.136.983.493 1.249.882 1.249 1.494 0 .716-.657 1.334-1.648 1.334-.705 0-1.507-.301-1.939-.557l-.419 1.085ZM184.231 65.003a5.212 5.212 0 0 1-2.475.606c-.915 0-1.645-.363-2.027-1.124-.201-.423-.285-1.141-.205-1.538 3.315.078 5.983-.399 5.983-2.622 0-1.257-.973-2.199-2.665-2.199-2.756 0-4.801 2.642-4.801 5.207 0 1.907 1.072 3.456 3.418 3.456 1.238 0 2.358-.341 2.99-.698l-.218-1.088Zm-.164-4.661c0 1.27-1.857 1.518-4.384 1.482.307-1.126 1.404-2.579 2.956-2.579.822 0 1.428.387 1.428 1.08v.017Zm4.546-3.58-.295 1.569h-1.244l-.229 1.162h1.244l-.773 3.982c-.118.577-.188 1.087-.188 1.619 0 .854.485 1.695 1.856 1.695.459 0 .926-.061 1.166-.162l.059-1.165a2.93 2.93 0 0 1-.724.076c-.592 0-.85-.336-.85-.858 0-.5.086-.94.178-1.409l.72-3.778h2.111l.234-1.162h-2.111l.372-1.994-1.526.425Zm14.772-2.397-.751 4.039c-.41-.172-1.075-.278-1.653-.278a5.497 5.497 0 0 0-5.511 5.482c0 1.764.96 3.181 2.731 3.181 1.313 0 2.441-.672 3.31-1.952h.034l-.259 1.748h1.376c.052-.805.182-1.684.338-2.524l1.854-9.696h-1.469Zm-1.497 7.888c-.365 1.935-1.859 3.342-3.108 3.342-1.395 0-1.772-1.158-1.772-2.165 0-2.361 1.741-4.134 3.855-4.134.674 0 1.216.161 1.547.343l-.522 2.614Zm9.543 2.75a5.205 5.205 0 0 1-2.475.606c-.914 0-1.644-.363-2.027-1.124-.201-.423-.285-1.141-.205-1.538 3.315.078 5.984-.399 5.984-2.622 0-1.257-.974-2.199-2.665-2.199-2.757 0-4.802 2.642-4.802 5.207 0 1.907 1.073 3.456 3.418 3.456 1.238 0 2.359-.341 2.991-.698l-.219-1.088Zm-.164-4.661c0 1.27-1.857 1.518-4.384 1.482.307-1.126 1.404-2.579 2.957-2.579.822 0 1.427.387 1.427 1.08v.017Zm1.997 5.841c.423.318 1.258.596 2.225.606 1.81.011 3.307-1.017 3.307-2.737 0-.96-.66-1.677-1.668-2.175-.854-.428-1.26-.792-1.26-1.39 0-.696.652-1.226 1.52-1.226.707 0 1.282.245 1.578.416l.418-1.109c-.328-.22-1.048-.442-1.863-.442-1.803 0-3.131 1.109-3.131 2.566 0 .869.547 1.594 1.631 2.135.982.493 1.249.882 1.249 1.494 0 .717-.657 1.334-1.648 1.334-.705 0-1.508-.301-1.94-.557l-.418 1.085Zm11.987.402 2.338-12.22h-1.474l-2.339 12.22h1.475Zm8.91-1.582a5.212 5.212 0 0 1-2.475.606c-.915 0-1.645-.363-2.027-1.124-.201-.423-.285-1.141-.205-1.538 3.315.078 5.983-.399 5.983-2.622 0-1.257-.973-2.199-2.665-2.199-2.756 0-4.801 2.642-4.801 5.207 0 1.907 1.072 3.456 3.418 3.456 1.238 0 2.358-.341 2.99-.698l-.218-1.088Zm-.164-4.661c0 1.27-1.857 1.518-4.384 1.482.307-1.126 1.404-2.579 2.956-2.579.822 0 1.428.387 1.428 1.08v.017Zm4.546-3.58-.295 1.569h-1.244l-.229 1.162h1.244l-.773 3.982c-.118.577-.188 1.087-.188 1.619 0 .854.485 1.695 1.856 1.695.459 0 .926-.061 1.166-.162l.059-1.165a2.93 2.93 0 0 1-.724.076c-.592 0-.849-.336-.849-.858 0-.5.085-.94.177-1.409l.72-3.778h2.111l.234-1.162h-2.111l.372-1.994-1.526.425Zm5.766 0-.295 1.569h-1.244l-.229 1.162h1.244l-.773 3.982c-.118.577-.188 1.087-.188 1.619 0 .854.485 1.695 1.856 1.695.459 0 .926-.061 1.166-.162l.059-1.165a2.93 2.93 0 0 1-.724.076c-.592 0-.85-.336-.85-.858 0-.5.086-.94.178-1.409l.72-3.778h2.111l.234-1.162h-2.111l.372-1.994-1.526.425Zm5.029 9.823.638-3.411c.397-2.145 1.549-3.616 2.818-3.616.191 0 .334.012.454.036l.287-1.432a2.814 2.814 0 0 0-.465-.036c-1.2 0-2.135.911-2.685 2.08h-.051c.099-.633.181-1.254.263-1.875h-1.304c-.104.815-.237 1.948-.438 3.015l-.997 5.239h1.48Zm10.463-1.582a5.216 5.216 0 0 1-2.476.606c-.914 0-1.644-.363-2.026-1.124-.202-.423-.285-1.141-.205-1.538 3.315.078 5.983-.399 5.983-2.622 0-1.257-.973-2.199-2.666-2.199-2.756 0-4.8 2.642-4.8 5.207 0 1.907 1.072 3.456 3.417 3.456 1.239 0 2.359-.341 2.991-.698l-.218-1.088Zm-.164-4.661c0 1.27-1.857 1.518-4.384 1.482.307-1.126 1.403-2.579 2.956-2.579.822 0 1.428.387 1.428 1.08v.017Zm1.996 5.841c.424.318 1.259.596 2.225.606 1.81.011 3.307-1.017 3.307-2.737 0-.96-.66-1.677-1.668-2.175-.853-.428-1.259-.792-1.259-1.39 0-.696.651-1.226 1.52-1.226.706 0 1.282.245 1.577.416l.419-1.109c-.328-.22-1.049-.442-1.863-.442-1.803 0-3.132 1.109-3.132 2.566 0 .869.547 1.594 1.631 2.135.983.493 1.249.882 1.249 1.494 0 .717-.657 1.334-1.648 1.334-.705 0-1.507-.301-1.939-.557l-.419 1.085Zm18.432-11.818-.751 4.039c-.41-.172-1.075-.278-1.653-.278a5.497 5.497 0 0 0-5.511 5.482c0 1.764.959 3.181 2.73 3.181 1.314 0 2.442-.672 3.311-1.952h.034l-.259 1.748h1.375c.053-.805.183-1.684.338-2.524l1.855-9.696h-1.469Zm-1.497 7.888c-.365 1.935-1.86 3.342-3.108 3.342-1.395 0-1.773-1.158-1.773-2.165 0-2.361 1.742-4.134 3.856-4.134.673 0 1.216.161 1.547.343l-.522 2.614Zm10.463-3.922-.775 4.056c-.365 1.93-1.832 3.162-2.936 3.162-1.126 0-1.523-.66-1.523-1.631 0-.327.051-.725.138-1.182l.843-4.405h-1.475l-.851 4.419c-.115.582-.166 1.041-.166 1.418 0 2.204 1.355 2.621 2.442 2.621 1.191 0 2.381-.757 3.149-1.851h.034l-.249 1.647h1.336c.084-.692.209-1.438.364-2.263l1.143-5.991h-1.474Zm16.601 8.654c-1.077-.123-2.293-.338-3.419-.517v-.058c.925-.234 2.003-.882 2.726-1.653 1.149-1.197 1.85-2.917 1.85-4.842 0-2.779-1.603-5.038-4.991-5.038-1.729 0-3.4.73-4.502 1.824a7.19 7.19 0 0 0-2.069 5.04c0 3.292 2.162 4.888 4.443 5.028.1.005.293.044.937.256.675.27 2.815.845 4.533 1.197l.492-1.237Zm-5.289-1.411c-2.55 0-3.557-1.833-3.557-3.929 0-2.832 2.025-5.541 4.826-5.541 2.939 0 3.624 2.195 3.624 3.869 0 2.916-1.914 5.601-4.876 5.601h-.017Zm14.433-7.243-.775 4.056c-.365 1.93-1.832 3.162-2.936 3.162-1.125 0-1.523-.66-1.523-1.631 0-.327.052-.725.139-1.182l.843-4.405h-1.475l-.852 4.419c-.114.582-.165 1.041-.165 1.418 0 2.204 1.354 2.621 2.442 2.621 1.191 0 2.38-.757 3.149-1.851h.034l-.249 1.647h1.336c.083-.692.208-1.438.363-2.263l1.144-5.991h-1.475Zm8.34-3.53-1.761 2.492h1.186l2.386-2.492h-1.811Zm.486 10.202a5.204 5.204 0 0 1-2.474.606c-.915 0-1.645-.363-2.028-1.124-.201-.423-.285-1.141-.204-1.538 3.315.078 5.983-.399 5.983-2.622 0-1.257-.974-2.199-2.665-2.199-2.757 0-4.801 2.642-4.801 5.207 0 1.907 1.072 3.456 3.417 3.456 1.239 0 2.359-.341 2.991-.698l-.219-1.088Zm-.163-4.661c0 1.27-1.858 1.518-4.385 1.482.307-1.126 1.404-2.579 2.957-2.579.822 0 1.428.387 1.428 1.08v.017Zm4.553-5.977-1.751 8.686c-.089.453-.163.975-.163 1.4-.005 1.746 1.282 2.338 2.846 2.338 3.474 0 5.472-2.935 5.472-5.501 0-1.609-.809-3.162-2.793-3.162-1.256 0-2.475.662-3.251 1.859l-.034-.012 1.153-5.608h-1.479Zm-.225 8.466c.464-2.125 1.898-3.499 3.285-3.499 1.283 0 1.806 1.051 1.806 2.1 0 1.95-1.431 4.199-3.725 4.199-.998 0-1.535-.464-1.546-1.351-.01-.473.046-.828.11-1.119l.07-.33Zm14.028 2.172a5.205 5.205 0 0 1-2.475.606c-.914 0-1.645-.363-2.027-1.124-.201-.423-.285-1.141-.205-1.538 3.315.078 5.983-.399 5.983-2.622 0-1.257-.973-2.199-2.664-2.199-2.757 0-4.802 2.642-4.802 5.207 0 1.907 1.072 3.456 3.418 3.456 1.238 0 2.358-.341 2.99-.698l-.218-1.088Zm-.164-4.661c0 1.27-1.857 1.518-4.384 1.482.307-1.126 1.404-2.579 2.956-2.579.823 0 1.428.387 1.428 1.08v.017Zm8.414 4.702a4.8 4.8 0 0 1-2.207.544c-1.484 0-2.302-.88-2.302-2.267 0-1.972 1.469-3.973 3.752-3.973.744 0 1.283.187 1.668.378l.431-1.148c-.28-.171-1.108-.452-2.016-.452-3.057 0-5.378 2.437-5.378 5.389 0 1.805 1.202 3.274 3.482 3.274 1.305 0 2.287-.363 2.748-.597l-.178-1.148Z" style="fill:#231f20;fill-rule:nonzero" transform="scale(4.16667)"/><path d="M178.025 71.808h173.436" style="fill:none;stroke:#231f20;stroke-width:.41px" transform="scale(4.16667)"/><path d="m5.917 27.375 30.497-17.62 80.069.059 32.06 55.907-90.365 52.172L5.917 27.375Zm65.697 31.788 2.229 7.445h7.063L71.88 37.613H63.3l-8.848 28.995h6.778l2.047-7.445h8.337Zm-7.387-4.884 1.734-6.155c.465-1.684.902-3.885 1.328-5.59h.09c.445 1.696.96 3.869 1.457 5.583l1.806 6.162h-6.415Zm20.981 12.329H103.3v-5.495H91.763v-23.5h-6.555v28.995Zm46.525-.086c-2.27-.462-4.769-.989-6.987-1.642v-.178c3.819-1.702 6.858-6.35 6.858-12.933 0-7.918-4.847-14.629-13.694-14.629-8.683 0-14.182 6.52-14.182 15.225 0 9.466 6.115 14.3 12.671 14.716.671.051 1.36.183 2.003.451 3.898 1.594 7.335 2.87 11.467 4.057l1.864-5.067Zm-14.07-4.654c-4.381 0-7.023-4.188-7.006-9.705-.008-5.448 2.579-9.81 7.061-9.81 4.476 0 6.956 4.386 6.956 9.689 0 5.673-2.557 9.826-6.968 9.826h-.043Zm-67.009-1.201c-1.3.542-3.471.937-5.481.937-5.837 0-9.264-3.651-9.264-9.465 0-6.444 4.054-9.597 9.227-9.597 2.342 0 4.203.519 5.507 1.089l1.337-5.184c-1.139-.621-3.728-1.286-7.137-1.286-8.754 0-15.838 5.472-15.838 15.359 0 8.265 5.175 14.539 15.215 14.539 3.492 0 6.238-.669 7.412-1.25l-.978-5.142Z" style="fill:#080605" transform="scale(4.16667)"/><path d="M202.022 95.272V87.85h-.056c-.264.242-1.239.262-1.653.262h-.717v.06c.829.509.716 1.261.716 2.196v3.142c0 1.569-1.542 2.671-2.785 2.671-1.638 0-2.318-1.163-2.318-3.039V87.85h-.057c-.263.242-1.245.262-1.658.262h-.712v.061c.829.508.716 1.261.716 2.195v3.13c0 2.866 1.243 4.228 3.464 4.228 1.318 0 2.672-.468 3.35-1.586v1.355h2.426v-.062c-.828-.469-.716-1.223-.716-2.161ZM205.784 91.303c.227-1.275 1.168-2.084 2.431-2.084 1.356 0 2.222.667 2.429 2.084h-4.86Zm6.839 1.183c.075-2.619-1.677-4.596-4.239-4.596-2.807 0-4.708 2.037-4.708 4.862 0 2.846 2.202 5.014 5.405 5.014.886 0 1.79-.141 2.6-.503l.942-1.911h-.057c-.867.737-1.959 1.085-3.09 1.085-2.128 0-3.729-1.453-3.767-3.951h6.914ZM214.117 83.538c.451 0 1.372-.028 1.65-.302h.056V96.09c.506.142 1.03.243 1.554.243 2.058 0 3.238-1.44 3.238-3.447 0-1.967-.917-3.487-2.807-3.487-.599 0-1.067.162-1.573.446l1.011-1.731c.43-.162.88-.224 1.329-.224 2.134 0 3.949 1.853 3.949 4.631 0 3.183-2.153 5.241-5.559 5.241-1.273 0-2.495-.224-3.417-.367v-.062c.622-.285.565-.959.565-1.629V86.36c0-.938.113-2.251-.696-2.761v-.061h.7ZM225.868 91.303c.227-1.275 1.168-2.084 2.431-2.084 1.356 0 2.222.667 2.43 2.084h-4.861Zm6.838 1.183c.076-2.619-1.676-4.596-4.238-4.596-2.807 0-4.709 2.037-4.709 4.862 0 2.846 2.204 5.014 5.406 5.014.886 0 1.79-.141 2.599-.503l.942-1.911h-.056c-.866.737-1.959 1.085-3.089 1.085-2.129 0-3.73-1.453-3.768-3.951h6.913ZM241.131 90.218h-.055c-.547-.673-1.452-.999-2.299-.999-1.828 0-3.145 1.387-3.145 3.324 0 2.344 1.826 3.894 3.917 3.894.961 0 2.016-.408 2.751-.999h.056l-.979 1.925c-.792.322-1.658.403-2.488.403-2.9 0-5.167-2.042-5.167-4.693 0-3.507 2.531-5.183 5.375-5.183.678 0 1.375.08 2.034.241v2.087Z" style="fill:#231f20;fill-rule:nonzero" transform="scale(4.16667)"/><path d="M210.272 86.208v-2.04c-1.234.554-2.38 1.588-3.146 2.595v.795c1.833-1.235 3.146-1.293 3.146-1.35Z" style="fill:#231f20" transform="scale(4.16667)"/><path d="M185.03 96.364c-2.845 0-4.823-3.209-4.823-5.936v-.307c.036-2.641 1.746-5.118 4.729-5.118 3.14 0 4.759 2.97 4.785 5.784v.293c0 2.999-1.865 5.284-4.691 5.284Zm9.751 3.119c-2.101.344-4.12-.318-6.266-2.773 2.073-1.041 3.355-3.631 3.355-6.038l-.001-.299c-.037-4.119-3.131-6.839-6.82-6.839-3.696 0-6.962 2.831-6.989 6.983l-.001.278c0 4.038 2.996 7.037 6.67 7.037.528 0 1.036-.082 1.545-.204 2.406 2.254 4.55 3.214 6.404 2.99.879-.105 1.807-.455 2.365-1.179l-.262.044Z" style="fill:#231f20;fill-rule:nonzero" transform="scale(4.16667)"/><path style="fill:#231f20" d="M245.725 83.541h9.189v5.632h-9.189z" transform="scale(4.16667)"/><path d="M250.319 83.836c-.066.123-.217.3-.469.618-.293.366-.242.854-.103 1.142.159.334.251.609.324.872.101.381.034.89.041.844h-.254c0-.621-.195-1.206-.663-1.466-.666-.369-1.324.271-1.115.936.111.349.307.466.363.466 0 0-.092-.384.185-.58.262-.185.585-.074.734.148.142.209.164.496.164.496h-.478v.354l.963-.001s-.026.501-.553.452c0 0 .065.394.553.188 0 0-.026.412.308.62.335-.208.31-.62.31-.62.489.206.553-.188.553-.188-.528.049-.553-.452-.553-.452l.963.001v-.354h-.479s.023-.287.164-.496c.149-.222.473-.333.733-.148.278.196.187.58.187.58.056 0 .252-.117.363-.466.209-.665-.45-1.305-1.115-.936-.47.26-.662.845-.662 1.466h-.255c.006.046-.061-.463.041-.844.072-.263.164-.538.324-.872.139-.288.191-.776-.103-1.142-.251-.318-.403-.495-.471-.618Z" style="fill:#fff" transform="scale(4.16667)"/><path style="fill:#231f20" d="M257.592 83.541h9.191v5.632h-9.191z" transform="scale(4.16667)"/><path d="M262.187 83.836c-.069.123-.219.3-.473.618-.294.366-.241.854-.101 1.142.16.334.251.609.324.872.1.381.034.89.042.844h-.256c0-.621-.193-1.206-.663-1.466-.666-.369-1.322.271-1.114.936.11.349.306.466.362.466 0 0-.091-.384.187-.58.26-.185.583-.074.732.148.143.209.165.496.165.496h-.478v.354l.961-.001s-.026.501-.552.452c0 0 .065.394.552.188 0 0-.026.412.312.62.332-.208.307-.62.307-.62.488.206.554-.188.554-.188-.529.049-.554-.452-.554-.452l.964.001v-.354h-.482s.025-.287.166-.496c.15-.222.473-.333.735-.148.276.196.188.58.188.58.054 0 .249-.117.357-.466.21-.665-.448-1.305-1.113-.936-.468.26-.661.845-.661 1.466h-.254c.007.046-.061-.463.041-.844.07-.263.164-.538.323-.872.138-.288.19-.776-.103-1.142-.251-.318-.404-.495-.468-.618Z" style="fill:#fff" transform="scale(4.16667)"/><path style="fill:#231f20" d="M245.725 91.856h9.189v5.63h-9.189z" transform="scale(4.16667)"/><path d="M250.319 92.15c-.066.124-.217.301-.469.617-.293.365-.242.854-.103 1.142.159.334.251.609.324.873.101.38.034.89.041.843h-.254c0-.62-.195-1.206-.663-1.466-.666-.37-1.324.272-1.115.935.111.349.307.468.363.468 0 0-.092-.384.185-.581.262-.184.585-.072.734.146.142.211.164.498.164.498h-.478v.354h.963s-.026.499-.553.452c0 0 .065.393.553.186 0 0-.026.413.308.621.335-.208.31-.621.31-.621.489.207.553-.186.553-.186-.528.047-.553-.452-.553-.452h.963v-.354h-.479s.023-.287.164-.498c.149-.218.473-.33.733-.146.278.197.187.581.187.581.056 0 .252-.119.363-.468.209-.663-.45-1.305-1.115-.935-.47.26-.662.846-.662 1.466h-.255c.006.047-.061-.463.041-.843.072-.264.164-.539.324-.873.139-.288.191-.777-.103-1.142-.251-.316-.403-.493-.471-.617Z" style="fill:#fff" transform="scale(4.16667)"/><path style="fill:#231f20" d="M257.592 91.856h9.191v5.63h-9.191z" transform="scale(4.16667)"/><path d="M262.187 92.15c-.069.124-.219.301-.473.617-.294.365-.241.854-.101 1.142.16.334.251.609.324.873.1.38.034.89.042.843h-.256c0-.62-.193-1.206-.663-1.466-.666-.37-1.322.272-1.114.935.11.349.306.468.362.468 0 0-.091-.384.187-.581.26-.184.583-.072.732.146.143.211.165.498.165.498h-.478v.354h.961s-.026.499-.552.452c0 0 .065.393.552.186 0 0-.026.413.312.621.332-.208.307-.621.307-.621.488.207.554-.186.554-.186-.529.047-.554-.452-.554-.452h.964v-.354h-.482s.025-.287.166-.498c.15-.218.473-.33.735-.146.276.197.188.581.188.581.054 0 .249-.119.357-.468.21-.663-.448-1.305-1.113-.935-.468.26-.661.846-.661 1.466h-.254c.007.047-.061-.463.041-.843.07-.264.164-.539.323-.873.138-.288.19-.777-.103-1.142-.251-.316-.404-.493-.468-.617Z" style="fill:#fff" transform="scale(4.16667)"/></svg>