<svg viewBox="0 0 3300 2550" xmlns="http://www.w3.org/2000/svg" xml:space="preserve" style="fill-rule:evenodd;clip-rule:evenodd;stroke-linejoin:round;stroke-miterlimit:2"><path d="M489.586 297.518c-1.4 1.562-3.939 3.321-8.2 3.321-6.541 0-11.487-4.589-11.487-11.585s5.045-11.584 11.487-11.584c4.195 0 6.736 1.758 7.972 2.961l-1.336 2.538c-.877-1.106-3.381-2.733-6.508-2.733-4.846 0-8.36 3.481-8.36 8.753 0 5.271 3.545 8.752 8.36 8.752 2.963 0 5.24-1.137 6.704-2.733l1.368 2.31ZM499.313 287.237c-3.123 0-5.043 2.407-5.043 5.433 0 3.059 1.92 5.468 5.043 5.468 3.091 0 5.009-2.409 5.009-5.468 0-3.026-1.918-5.433-5.009-5.433Zm0 13.568c-4.623 0-8.2-3.222-8.2-8.037 0-4.784 3.577-8.07 8.2-8.07 4.588 0 8.164 3.286 8.164 8.07 0 4.815-3.576 8.037-8.164 8.037ZM524.169 300.447h-3.125v-8.622c0-2.604-.453-4.556-3.218-4.556-2.895 0-3.972 2.44-3.972 5.401v7.777h-3.123v-15.456h3.123l-.032 2.44h.097c.813-1.528 2.474-2.733 4.722-2.733 4.39 0 5.528 2.896 5.528 6.606v9.143ZM537.153 299.438c-1.076.878-2.504 1.367-4.295 1.367-2.604 0-4.719-1.074-6.022-2.765l1.496-1.823c1.174 1.432 3.124 2.212 4.559 2.212 1.431 0 2.959-.52 2.959-2.212 0-1.692-2.44-2.213-3.482-2.57-1.041-.358-1.4-.424-2.114-.815-.977-.487-2.441-1.496-2.441-3.708 0-2.863 2.473-4.426 5.205-4.426 2.734 0 4.295.977 5.272 2.017l-1.3 1.921c-.913-.944-2.409-1.659-3.904-1.659-1.5 0-2.473.649-2.473 1.919 0 1.269 1.495 1.821 3.025 2.31.845.293 1.429.487 2.08.748.622.26 1.336.651 1.791 1.108.586.552 1.236 1.463 1.236 2.862 0 1.497-.584 2.669-1.592 3.514ZM552.963 291.369c-.031-1.725-1.334-4.426-4.459-4.426-3.087 0-4.457 2.571-4.553 4.426h9.012Zm2.863 2.082h-11.908c.163 3.059 2.113 4.914 4.978 4.914 2.895 0 4.751-1.561 5.108-1.79l1.301 1.79c-.192.161-2.178 2.44-6.801 2.44-4.586 0-7.745-3.189-7.745-8.102 0-4.881 3.55-8.005 7.845-8.005s7.321 3.058 7.321 7.386c0 .586-.099 1.367-.099 1.367ZM562.27 300.447h-3.125v-15.456h3.125v15.456Zm-1.562-18.613c-1.204 0-2.05-.813-2.05-1.919s.846-1.92 2.05-1.92c1.169 0 2.017.814 2.017 1.92 0 1.106-.848 1.919-2.017 1.919ZM566.854 277.995h3.091v22.452h-3.091zM587.94 287.237c-3.094 0-4.916 2.342-4.916 5.433 0 3.092 1.822 5.468 4.916 5.468 3.089 0 4.91-2.376 4.91-5.468 0-3.091-1.821-5.433-4.91-5.433Zm7.905 13.21h-2.995v-2.474h-.064c-1.27 1.888-3.188 2.832-5.436 2.832-4.586 0-7.514-3.514-7.514-8.102 0-4.555 2.928-8.005 7.45-8.005 2.505 0 4.327 1.107 5.404 2.701h.062v-9.404h3.093v22.452ZM611.463 291.369c-.032-1.725-1.336-4.426-4.459-4.426-3.091 0-4.457 2.571-4.557 4.426h9.016Zm2.859 2.082h-11.908c.163 3.059 2.117 4.914 4.981 4.914 2.895 0 4.75-1.561 5.109-1.79l1.3 1.79c-.196.161-2.182 2.44-6.8 2.44-4.59 0-7.745-3.189-7.745-8.102 0-4.881 3.546-8.005 7.841-8.005 4.296 0 7.322 3.058 7.322 7.386 0 .586-.1 1.367-.1 1.367ZM626.329 299.438c-1.073.878-2.507 1.367-4.295 1.367-2.602 0-4.719-1.074-6.018-2.765l1.495-1.823c1.171 1.432 3.125 2.212 4.556 2.212 1.433 0 2.96-.52 2.96-2.212 0-1.692-2.441-2.213-3.482-2.57-1.041-.358-1.399-.424-2.113-.815-.978-.487-2.442-1.496-2.442-3.708 0-2.863 2.473-4.426 5.205-4.426 2.737 0 4.297.977 5.273 2.017l-1.3 1.921c-.912-.944-2.411-1.659-3.907-1.659-1.495 0-2.473.649-2.473 1.919 0 1.269 1.496 1.821 3.027 2.31.844.293 1.434.487 2.081.748.62.26 1.335.651 1.791 1.108.585.552 1.236 1.463 1.236 2.862 0 1.497-.587 2.669-1.594 3.514ZM646.37 293.028l-3.611.227c-2.505.132-3.514 1.205-3.514 2.669s1.137 2.669 3.187 2.669c2.018 0 3.354-1.366 3.938-2.246v-3.319Zm3.089 7.419h-3.023l-.036-1.952c-.614.651-2.08 2.31-4.91 2.31-2.865 0-5.34-1.79-5.34-4.783 0-3.026 2.475-4.556 6.054-4.718l4.132-.164v-.617c0-2.343-1.591-3.515-3.838-3.515-2.244 0-4.133 1.01-4.654 1.334l-.944-2.081c1.141-.652 3.223-1.563 5.791-1.563 2.573 0 4.068.716 5.111 1.757 1.041 1.074 1.657 2.375 1.657 5.011v8.981ZM661.889 287.855h-.13c-.295-.13-.846-.326-1.691-.326-1.368 0-2.215.878-2.541 1.301-.291.424-.943 1.627-.943 3.905v7.712h-3.125v-15.456h3.125l-.029 2.375h.095c.746-1.757 2.15-2.668 3.805-2.668 1.045 0 1.629.26 1.629.26l-.195 2.897ZM671.877 300.284s-1.204.521-2.832.521c-1.627 0-2.636-.617-3.286-1.595-.65-.976-.781-2.179-.781-4.62v-7.061h-2.276v-2.505h2.276v-4.62h3.125v4.62h3.71v2.505h-3.71v6.996c0 1.301.031 2.18.392 2.831.291.487.714.782 1.593.782.912 0 1.594-.359 1.594-.359l.195 2.505ZM683.298 299.438c-1.077.878-2.507 1.367-4.296 1.367-2.605 0-4.718-1.074-6.021-2.765l1.497-1.823c1.174 1.432 3.123 2.212 4.558 2.212 1.43 0 2.957-.52 2.957-2.212 0-1.692-2.442-2.213-3.481-2.57-1.041-.358-1.399-.424-2.115-.815-.974-.487-2.438-1.496-2.438-3.708 0-2.863 2.473-4.426 5.205-4.426s4.295.977 5.273 2.017l-1.305 1.921c-.911-.944-2.407-1.659-3.903-1.659-1.498 0-2.474.649-2.474 1.919 0 1.269 1.499 1.821 3.022 2.31.85.293 1.437.487 2.086.748.618.26 1.336.651 1.791 1.108.586.552 1.237 1.463 1.237 2.862 0 1.497-.586 2.669-1.593 3.514ZM477.904 323.839c-3.091 0-4.914 2.343-4.914 5.434s1.823 5.468 4.914 5.468c3.091 0 4.913-2.377 4.913-5.468s-1.822-5.434-4.913-5.434Zm7.905 13.211h-2.992v-2.475h-.065c-1.271 1.889-3.189 2.834-5.435 2.834-4.588 0-7.515-3.515-7.515-8.104 0-4.555 2.927-8.004 7.45-8.004 2.507 0 4.329 1.106 5.402 2.699h.066v-9.399h3.089v22.449ZM503.413 337.05h-3.027l-.032-2.213c-.849 1.497-2.602 2.572-4.784 2.572-2.212 0-3.484-.75-4.298-1.791-.779-1.043-1.136-2.568-1.136-4.784v-9.271h3.091v9.142c0 2.115.457 4.1 3.22 4.1 2.735 0 3.839-2.343 3.839-4.948v-8.294h3.127v15.487ZM532.922 334.121c-1.4 1.561-3.939 3.32-8.199 3.32-6.541 0-11.489-4.588-11.489-11.584 0-6.996 5.045-11.584 11.489-11.584 4.199 0 6.733 1.755 7.971 2.959l-1.336 2.541c-.877-1.109-3.383-2.734-6.504-2.734-4.852 0-8.367 3.482-8.367 8.752 0 5.272 3.549 8.755 8.367 8.755 2.959 0 5.237-1.142 6.7-2.734l1.368 2.309ZM544.731 329.63l-3.613.227c-2.505.132-3.514 1.206-3.514 2.67s1.139 2.668 3.189 2.668c2.016 0 3.353-1.366 3.938-2.245v-3.32Zm3.091 7.42h-3.025l-.033-1.952c-.618.652-2.082 2.311-4.914 2.311-2.86 0-5.336-1.791-5.336-4.786 0-3.025 2.476-4.555 6.051-4.716l4.132-.164v-.618c0-2.343-1.593-3.514-3.839-3.514-2.245 0-4.133 1.01-4.652 1.334l-.942-2.084c1.135-.647 3.221-1.56 5.79-1.56 2.573 0 4.068.718 5.109 1.759 1.041 1.072 1.659 2.373 1.659 5.008v8.982ZM565.261 337.05h-3.125v-8.622c0-2.605-.454-4.557-3.218-4.557-2.897 0-3.973 2.442-3.973 5.402v7.777h-3.123v-15.456h3.123l-.032 2.44h.098c.811-1.529 2.472-2.733 4.72-2.733 4.391 0 5.53 2.895 5.53 6.606v9.143ZM578.336 329.63l-3.609.227c-2.504.132-3.514 1.206-3.514 2.67s1.139 2.668 3.187 2.668c2.018 0 3.352-1.366 3.936-2.245v-3.32Zm3.096 7.42h-3.028l-.032-1.952c-.62.652-2.082 2.311-4.913 2.311-2.863 0-5.337-1.791-5.337-4.786 0-3.025 2.474-4.555 6.051-4.716l4.134-.164v-.618c0-2.343-1.594-3.514-3.839-3.514s-4.134 1.01-4.655 1.334l-.945-2.084c1.141-.647 3.223-1.56 5.795-1.56 2.57 0 4.066.718 5.108 1.759 1.039 1.072 1.661 2.373 1.661 5.008v8.982ZM592.491 323.839c-3.092 0-4.912 2.343-4.912 5.434s1.82 5.468 4.912 5.468c3.091 0 4.913-2.377 4.913-5.468s-1.822-5.434-4.913-5.434Zm7.908 13.211h-2.995v-2.475h-.063c-1.271 1.889-3.192 2.834-5.437 2.834-4.588 0-7.515-3.515-7.515-8.104 0-4.555 2.927-8.004 7.452-8.004 2.507 0 4.327 1.106 5.402 2.699h.062v-9.399h3.094v22.449ZM613.771 329.63l-3.612.227c-2.509.132-3.518 1.206-3.518 2.67s1.14 2.668 3.193 2.668c2.016 0 3.352-1.366 3.937-2.245v-3.32Zm3.09 7.42h-3.027l-.032-1.952c-.616.652-2.082 2.311-4.915 2.311-2.86 0-5.332-1.791-5.332-4.786 0-3.025 2.472-4.555 6.049-4.716l4.132-.164v-.618c0-2.343-1.595-3.514-3.84-3.514-2.246 0-4.13 1.01-4.651 1.334l-.945-2.084c1.14-.647 3.222-1.56 5.793-1.56 2.57 0 4.066.718 5.107 1.759 1.043 1.072 1.661 2.373 1.661 5.008v8.982ZM247.299 297.518c-1.396 1.562-3.937 3.321-8.198 3.321-6.539 0-11.486-4.589-11.486-11.585s5.043-11.584 11.486-11.584c4.198 0 6.734 1.758 7.97 2.961l-1.332 2.538c-.877-1.106-3.384-2.733-6.509-2.733-4.847 0-8.361 3.481-8.361 8.753 0 5.271 3.546 8.752 8.361 8.752 2.964 0 5.241-1.137 6.705-2.733l1.364 2.31ZM259.109 293.028l-3.61.227c-2.505.132-3.514 1.205-3.514 2.669s1.139 2.669 3.189 2.669c2.015 0 3.352-1.366 3.935-2.246v-3.319Zm3.094 7.419h-3.027l-.034-1.952c-.616.651-2.082 2.31-4.912 2.31-2.863 0-5.336-1.79-5.336-4.783 0-3.026 2.473-4.556 6.05-4.718l4.134-.164v-.617c0-2.343-1.594-3.515-3.839-3.515s-4.134 1.01-4.654 1.334l-.943-2.081c1.139-.652 3.22-1.563 5.793-1.563 2.567 0 4.066.716 5.107 1.757 1.042 1.074 1.661 2.375 1.661 5.011v8.981ZM279.64 300.447h-3.123v-8.622c0-2.604-.455-4.556-3.223-4.556-2.895 0-3.968 2.44-3.968 5.401v7.777h-3.123v-15.456h3.123l-.032 2.44h.096c.814-1.528 2.472-2.733 4.718-2.733 4.393 0 5.532 2.896 5.532 6.606v9.143ZM292.719 293.028l-3.611.227c-2.507.132-3.514 1.205-3.514 2.669s1.137 2.669 3.187 2.669c2.018 0 3.352-1.366 3.938-2.246v-3.319Zm3.091 7.419h-3.025l-.034-1.952c-.618.651-2.082 2.31-4.912 2.31-2.863 0-5.338-1.79-5.338-4.783 0-3.026 2.475-4.556 6.052-4.718l4.132-.164v-.617c0-2.343-1.593-3.515-3.836-3.515-2.248 0-4.134 1.01-4.655 1.334l-.945-2.081c1.141-.652 3.223-1.563 5.793-1.563 2.57 0 4.066.716 5.107 1.757 1.043 1.074 1.661 2.375 1.661 5.011v8.981ZM306.872 287.237c-3.091 0-4.914 2.342-4.914 5.433 0 3.092 1.823 5.468 4.914 5.468 3.09 0 4.913-2.376 4.913-5.468 0-3.091-1.823-5.433-4.913-5.433Zm7.904 13.21h-2.991v-2.474h-.064c-1.272 1.888-3.19 2.832-5.436 2.832-4.586 0-7.515-3.514-7.515-8.102 0-4.555 2.929-8.005 7.451-8.005 2.505 0 4.328 1.107 5.401 2.701h.064v-9.404h3.09v22.452ZM328.149 293.028l-3.611.227c-2.507.132-3.514 1.205-3.514 2.669s1.139 2.669 3.188 2.669c2.018 0 3.351-1.366 3.937-2.246v-3.319Zm3.091 7.419h-3.027l-.032-1.952c-.618.651-2.082 2.31-4.914 2.31-2.863 0-5.336-1.79-5.336-4.783 0-3.026 2.473-4.556 6.054-4.718l4.132-.164v-.617c0-2.343-1.596-3.515-3.841-3.515s-4.131 1.01-4.652 1.334l-.943-2.081c1.138-.652 3.222-1.563 5.791-1.563 2.572 0 4.068.716 5.109 1.757 1.041 1.074 1.659 2.375 1.659 5.011v8.981ZM360.458 297.518c-1.4 1.562-3.937 3.321-8.2 3.321-6.541 0-11.487-4.589-11.487-11.585s5.044-11.584 11.487-11.584c4.196 0 6.736 1.758 7.972 2.961l-1.334 2.538c-.879-1.106-3.384-2.733-6.506-2.733-4.85 0-8.364 3.481-8.364 8.753 0 5.271 3.546 8.752 8.364 8.752 2.959 0 5.236-1.137 6.7-2.733l1.368 2.31ZM370.185 287.237c-3.124 0-5.045 2.407-5.045 5.433 0 3.059 1.921 5.468 5.045 5.468 3.091 0 5.009-2.409 5.009-5.468 0-3.026-1.918-5.433-5.009-5.433Zm0 13.568c-4.621 0-8.2-3.222-8.2-8.037 0-4.784 3.579-8.07 8.2-8.07 4.586 0 8.168 3.286 8.168 8.07 0 4.815-3.582 8.037-8.168 8.037ZM394.749 300.447h-3.025l-.034-2.213c-.846 1.497-2.603 2.571-4.782 2.571-2.214 0-3.482-.748-4.296-1.79-.781-1.042-1.136-2.571-1.136-4.783v-9.274h3.089v9.145c0 2.114.455 4.097 3.22 4.097 2.735 0 3.841-2.341 3.841-4.945v-8.297h3.123v15.489ZM412.48 300.447h-3.123v-8.622c0-2.604-.454-4.556-3.221-4.556-2.894 0-3.969 2.44-3.969 5.401v7.777h-3.125v-15.456h3.125l-.032 2.44h.097c.812-1.528 2.473-2.733 4.721-2.733 4.391 0 5.527 2.896 5.527 6.606v9.143ZM429.594 298.462c-.454.456-2.05 2.343-6.182 2.343-4.165 0-7.808-3.123-7.808-8.07 0-4.979 3.804-8.037 7.906-8.037 4.134 0 5.825 2.017 5.986 2.214l-1.106 2.277c-.519-.522-1.887-1.887-4.62-1.887s-5.01 2.081-5.01 5.337c0 3.252 2.049 5.499 5.041 5.499 3.025 0 4.688-1.953 4.688-1.953l1.105 2.277ZM435.352 300.447h-3.125v-15.456h3.125v15.456Zm-1.562-18.613c-1.204 0-2.05-.813-2.05-1.919s.846-1.92 2.05-1.92c1.173 0 2.016.814 2.016 1.92 0 1.106-.843 1.919-2.016 1.919ZM439.939 277.995h3.091v22.452h-3.091zM236.367 316.907s-.877-.291-1.757-.291c-2.048 0-2.375 1.528-2.375 3.284v1.725h3.677v2.507h-3.677v12.918h-3.09v-12.918h-2.214v-2.507h2.214v-1.561c0-2.016.39-3.318 1.04-4.131.684-.846 1.92-1.694 3.71-1.694s2.668.362 2.668.362l-.196 2.306ZM244.567 323.839c-3.123 0-5.046 2.407-5.046 5.434 0 3.059 1.923 5.468 5.046 5.468 3.091 0 5.011-2.409 5.011-5.468 0-3.027-1.92-5.434-5.011-5.434Zm0 13.57c-4.623 0-8.2-3.222-8.2-8.038 0-4.784 3.577-8.07 8.2-8.07 4.586 0 8.168 3.286 8.168 8.07 0 4.816-3.582 8.038-8.168 8.038ZM264.413 324.457h-.128c-.295-.13-.847-.325-1.695-.325-1.364 0-2.213.878-2.537 1.301-.293.424-.944 1.627-.944 3.906v7.711h-3.124v-15.456h3.124l-.034 2.375h.101c.746-1.755 2.145-2.668 3.806-2.668 1.041 0 1.626.262 1.626.262l-.195 2.894ZM280.876 336.887s-1.205.522-2.832.522c-1.627 0-2.634-.62-3.286-1.597-.65-.975-.779-2.178-.779-4.621v-7.059h-2.278v-2.507h2.278v-4.62h3.124v4.62h3.709v2.507h-3.709v6.996c0 1.3.032 2.181.389 2.831.293.486.716.782 1.595.782.912 0 1.594-.359 1.594-.359l.195 2.505ZM297.08 337.05h-3.122v-8.754c0-2.21-.359-4.425-3.191-4.425s-4.034 2.442-4.034 5.531v7.648h-3.093v-22.449h3.093v9.433h.066c.813-1.529 2.504-2.733 4.75-2.733 4.456 0 5.531 2.863 5.531 6.54v9.209ZM312.467 327.971c-.032-1.725-1.332-4.425-4.457-4.425-3.091 0-4.457 2.57-4.554 4.425h9.011Zm2.864 2.084h-11.909c.163 3.056 2.118 4.913 4.979 4.913 2.897 0 4.752-1.564 5.109-1.79l1.302 1.79c-.195.162-2.182 2.441-6.802 2.441-4.588 0-7.743-3.19-7.743-8.104 0-4.882 3.546-8.004 7.841-8.004s7.322 3.058 7.322 7.386c0 .586-.099 1.368-.099 1.368ZM337.26 328.559l-3.936-10.09-3.939 10.09h7.875Zm6.702 8.491h-3.513l-2.309-5.859h-9.632l-2.309 5.859h-3.321l9.143-22.518h2.766l9.175 22.518ZM354.567 324.457h-.128c-.294-.13-.847-.325-1.692-.325-1.367 0-2.214.878-2.539 1.301-.293.424-.943 1.627-.943 3.906v7.711h-3.125v-15.456h3.125l-.034 2.375h.1c.747-1.755 2.145-2.668 3.806-2.668 1.041 0 1.628.262 1.628.262l-.198 2.894ZM364.558 336.887s-1.205.522-2.832.522c-1.627 0-2.636-.62-3.287-1.597-.649-.975-.781-2.178-.781-4.621v-7.059h-2.277v-2.507h2.277v-4.62h3.125v4.62h3.709v2.507h-3.709v6.996c0 1.3.031 2.181.389 2.831.295.486.718.782 1.595.782.911 0 1.595-.359 1.595-.359l.196 2.505ZM375.976 336.041c-1.073.877-2.504 1.368-4.293 1.368-2.605 0-4.721-1.075-6.02-2.767l1.495-1.822c1.173 1.43 3.125 2.212 4.557 2.212 1.431 0 2.961-.518 2.961-2.212 0-1.692-2.441-2.213-3.482-2.57-1.041-.359-1.4-.425-2.116-.813-.974-.491-2.438-1.5-2.438-3.709 0-2.867 2.472-4.427 5.204-4.427 2.734 0 4.296.976 5.273 2.017l-1.303 1.918c-.911-.94-2.408-1.658-3.904-1.658-1.497 0-2.472.65-2.472 1.922 0 1.269 1.495 1.822 3.024 2.31.846.293 1.432.486 2.082.749.619.259 1.336.65 1.791 1.105.586.552 1.236 1.464 1.236 2.863 0 1.496-.586 2.668-1.595 3.514ZM201.964 337.913c-5.043-4.879-19.522-9.114-34.402-10.006-1.065.818-1.813 1.657-2.23 2.552 12.535.573 24.586 4.146 29.039 8.135 4.036 3.192 3.423 7.579-1.253 10.6-6.827 4.77-20.928 6.968-36.229 6.914-15.307.054-29.41-2.144-36.24-6.914-4.673-3.021-5.284-7.408-1.25-10.6 4.453-3.989 16.5-7.562 29.041-8.135-.417-.895-1.175-1.734-2.24-2.552-14.862.892-29.349 5.127-34.394 10.006-6.832 6.152-1.388 13.216 13.536 17.575 8.339 2.534 19.993 3.892 31.547 3.918 11.546-.026 23.208-1.384 31.533-3.918 14.922-4.359 20.372-11.423 13.542-17.575Z" style="fill:#080605;fill-rule:nonzero" transform="scale(4.16667)"/><path d="M181.561 293.176c-4.75-.342-7.347-2.488-10.685-5.002 4.134-3.084 6.808-5.349 10.577-5.131 5.575.324 7.11 3.262 7.021 5.397-.11 2.152-3.069 5.004-6.913 4.736Zm-3.786 12.554c-3.059-.149-4.536-1.386-8.466-4.32a11.988 11.988 0 0 1 2.901-1.84c7.903-3.556 11.691.45 11.795 2.179.148 2.191-2.221 4.175-6.23 3.981Zm-12.75-7.607a256.91 256.91 0 0 1-3.665-2.762c1.483-1.143 3.184-2.417 4.947-3.749.062.036.078.036.13.096a52.209 52.209 0 0 0 3.763 2.831c-2.104.973-3.721 2.193-5.175 3.584Zm-8.012 15.025-.11.489-.114-.489c-.955-4.105-2.233-7.705-3.956-10.374 1.434-1.078 2.73-2.077 4.07-3.074 1.344.997 2.638 1.996 4.074 3.074-1.723 2.669-3.011 6.269-3.964 10.374Zm-8.232-15.025c-1.456-1.391-3.067-2.611-5.185-3.584 1.253-.839 2.481-1.772 3.773-2.831.052-.06.068-.06.124-.096 1.76 1.332 3.469 2.606 4.953 3.749-1.276.987-2.468 1.871-3.665 2.762Zm-12.747 7.607c-4.016.194-6.379-1.79-6.245-3.981.112-1.729 3.912-5.735 11.809-2.179a12.036 12.036 0 0 1 2.896 1.84c-3.917 2.934-5.412 4.171-8.46 4.32Zm-10.7-17.29c-.086-2.135 1.439-5.073 7.023-5.397 3.765-.218 6.437 2.047 10.571 5.131-3.34 2.514-5.93 4.66-10.682 5.002-3.849.268-6.807-2.584-6.912-4.736Zm11.57-17.398c2.578.113 4.858 1.96 6.712 3.411-2.76 2.214-4.455 3.361-6.736 3.6-2.299.255-4.784-1.237-5.179-3.213-.329-1.607 1.238-4.017 5.203-3.798Zm11.231 6.845c1.515 1.132 2.903 2.223 4.211 3.191-1.94 1.487-3.585 2.71-4.951 3.741-.837-.614-1.725-1.262-2.281-1.692-.768-.593-1.291-1.017-1.95-1.507.54-.346.966-.722 1.485-1.116.975-.714 2.202-1.662 3.486-2.617Zm8.56 6.782.208-.156.209.156c1.512 1.182 3.079 2.29 4.768 3.611a95.538 95.538 0 0 0-2.522 1.892c-.722.516-1.508 1.128-2.332 1.742l-.123.096-.122-.096c-.815-.614-1.615-1.226-2.321-1.742-.722-.547-1.531-1.163-2.528-1.892 1.678-1.321 3.258-2.429 4.763-3.611Zm-5.453-24.132s1.439-1.552 5.643-1.583c4.204.031 5.643 1.583 5.643 1.583s-1.087.593-2.644 1.678c-1.954 1.353-2.947 2.151-2.999 2.208-.052-.057-1.041-.855-2.999-2.208-1.56-1.085-2.644-1.678-2.644-1.678Zm9.822 13.849c-1.305.968-2.47 1.927-4.115 3.154l-.046.023-.042-.023c-1.647-1.227-2.816-2.186-4.12-3.154a439.973 439.973 0 0 1 4.024-3.073l.138-.105.138.105a377.801 377.801 0 0 1 4.023 3.073Zm4.599 3.501c1.304.955 2.521 1.903 3.488 2.617.518.394.959.77 1.497 1.116-.666.49-1.184.914-1.954 1.507-.554.43-1.442 1.078-2.277 1.692-1.368-1.031-3.017-2.254-4.95-3.741 1.304-.968 2.677-2.059 4.196-3.191Zm11.243-6.845c3.954-.219 5.528 2.191 5.197 3.798-.385 1.976-2.884 3.468-5.183 3.213-2.272-.239-3.972-1.386-6.742-3.6 1.866-1.451 4.148-3.298 6.728-3.411ZM194 287.322c-.275-4.105-3.59-7.3-7.564-8.758 1.629-2.286 1.86-4.799.7-7.608-1.859-4.434-7.019-5.845-10.071-5.634-4.347.308-6.927 2.111-11.505 5.624-1.06-.822-3.215-2.424-4.161-3.153h-.002s3.122-2.564 6.406-4.305c3.14-1.669 5.224-1.872 5.224-1.872s-5.484-7.502-16.12-7.571h-.044c-10.634.069-16.12 7.571-16.12 7.571s2.087.203 5.226 1.872c3.284 1.741 6.405 4.305 6.405 4.305-.949.729-3.103 2.331-4.164 3.153-4.578-3.513-7.158-5.316-11.503-5.624-3.054-.211-8.214 1.2-10.077 5.634-1.156 2.809-.925 5.322.702 7.608-3.966 1.458-7.287 4.653-7.562 8.758-.281 4.102 2.134 7.905 6.399 9.749-1.19 1.537-1.769 3.28-1.769 4.775 0 3.974 3.558 9.42 11.18 9.201 5.673-.151 7.942-1.915 12.393-5.365.257.393 3.741 5.873 3.741 15.427 0 0 .477 7.269-3.139 25.08h.01c0 .952 3.718 1.717 8.304 1.717 4.578 0 8.296-.765 8.296-1.717h.016c-3.626-17.811-3.143-25.08-3.143-25.08 0-9.554 3.487-15.034 3.741-15.427 4.452 3.45 6.714 5.214 12.388 5.365 7.631.219 11.188-5.227 11.188-9.201 0-1.495-.584-3.238-1.772-4.775 4.267-1.844 6.684-5.647 6.397-9.749Z" style="fill:#080605;fill-rule:nonzero" transform="scale(4.16667)"/></svg>