<svg viewBox="0 0 1254 596" xmlns="http://www.w3.org/2000/svg" xml:space="preserve" style="fill-rule:evenodd;clip-rule:evenodd;stroke-linejoin:round;stroke-miterlimit:2"><path d="M318.659 145.428h151.603c1.748 0 3.258.748 4.529 2.243 1.271 1.496 1.907 3.272 1.907 5.328v42.627c0 2.056-.636 3.832-1.907 5.328-1.271 1.495-2.781 2.243-4.529 2.243h-93.679v17.948h78.185c1.748 0 3.258.748 4.529 2.244 1.271 1.495 1.907 3.271 1.907 5.328v42.346c0 2.056-.636 3.832-1.907 5.328-1.271 1.496-2.781 2.243-4.529 2.243h-78.185v55.527c0 2.056-.636 3.832-1.907 5.328-1.272 1.495-2.781 2.243-4.529 2.243h-51.488c-1.748 0-3.258-.748-4.529-2.243-1.272-1.496-1.907-3.272-1.907-5.328V152.999c0-2.056.635-3.832 1.907-5.328 1.271-1.495 2.781-2.243 4.529-2.243Z" style="fill:#1d2523;fill-rule:nonzero" transform="matrix(.78603 0 0 .78603 -234.363 -114.09)"/><path d="M574.43 287.047h95.109c1.748 0 3.258.748 4.529 2.244 1.272 1.496 1.907 3.272 1.907 5.328v39.542c0 2.056-.635 3.832-1.907 5.328-1.271 1.495-2.781 2.243-4.529 2.243h-150.65c-1.748 0-3.257-.748-4.529-2.243-1.271-1.496-1.906-3.272-1.906-5.328V152.999c0-2.056.635-3.832 1.906-5.328 1.272-1.495 2.781-2.243 4.529-2.243h148.267c1.748 0 3.257.748 4.529 2.243 1.271 1.496 1.907 3.272 1.907 5.328v39.542c0 2.056-.636 3.832-1.907 5.328-1.272 1.496-2.781 2.244-4.529 2.244H574.43v17.667h79.615c1.748 0 3.258.748 4.529 2.243 1.272 1.496 1.907 3.272 1.907 5.329v36.456c0 2.057-.635 3.833-1.907 5.329-1.271 1.495-2.781 2.243-4.529 2.243H574.43v17.667Z" style="fill:#4dff59;fill-rule:nonzero" transform="matrix(-.78603 0 0 .78603 699.782 -114.09)"/><path d="M808.032 218.52c26.062 3.43 44.615 9.794 55.659 19.092 11.045 9.298 16.567 23.245 16.567 41.842 0 18.596-8.025 33.672-24.075 45.227-16.05 11.554-37.345 17.332-63.883 17.332-26.539 0-47.158-5.696-61.857-17.087-14.7-11.391-22.049-25.423-22.049-42.094 0-4.075 1.827-6.112 5.482-6.112h48.866c3.337 0 6.039 1.149 8.104 3.448 4.45 4.773 12.157 7.16 23.122 7.16 15.097 0 22.645-2.618 22.645-7.852 0-3.252-2.383-5.825-7.151-7.721-4.767-1.896-14.222-3.746-28.366-5.552-44.972-6.137-67.458-25.727-67.458-58.768 0-18.597 7.23-33.627 21.691-45.091 14.461-11.465 33.809-17.197 58.043-17.197 24.235 0 43.821 6.165 58.759 18.496 14.937 12.33 22.406 25.357 22.406 39.081 0 1.852-.516 3.335-1.549 4.448-1.033 1.113-2.424 1.669-4.172 1.669h-51.249c-2.861 0-5.324-1.06-7.39-3.181-3.813-3.885-9.534-5.828-17.162-5.828-10.647 0-15.971 2.528-15.971 7.585 0 2.708 2.066 4.829 6.198 6.362 4.131 1.534 12.395 3.114 24.79 4.741Z" style="fill:#4dff59;fill-rule:nonzero" transform="matrix(-.78603 0 0 .78603 1014.368 -114.09)"/><path d="M915.299 145.428h164.471c1.75 0 3.26.748 4.53 2.243 1.27 1.496 1.91 3.272 1.91 5.328v45.15c0 2.057-.64 3.833-1.91 5.329-1.27 1.495-2.78 2.243-4.53 2.243h-51.25v128.44c0 2.056-.63 3.832-1.9 5.328-1.27 1.495-2.78 2.243-4.53 2.243h-49.106c-1.748 0-3.258-.748-4.529-2.243-1.271-1.496-1.907-3.272-1.907-5.328v-128.44h-51.249c-1.748 0-3.258-.748-4.529-2.243-1.272-1.496-1.907-3.272-1.907-5.329v-45.15c0-2.056.635-3.832 1.907-5.328 1.271-1.495 2.781-2.243 4.529-2.243ZM1275.71 202.917h-43.14v81.326h43.14c1.75 0 3.26.748 4.53 2.244 1.27 1.495 1.91 3.271 1.91 5.328v42.346c0 2.056-.64 3.832-1.91 5.328-1.27 1.495-2.78 2.243-4.53 2.243h-151.12c-1.75 0-3.26-.748-4.53-2.243-1.27-1.496-1.91-3.272-1.91-5.328v-42.346c0-2.057.64-3.833 1.91-5.328 1.27-1.496 2.78-2.244 4.53-2.244h43.62v-81.326h-43.62c-1.75 0-3.26-.748-4.53-2.244-1.27-1.495-1.91-3.271-1.91-5.328v-42.346c0-2.056.64-3.832 1.91-5.328 1.27-1.495 2.78-2.243 4.53-2.243h151.12c1.75 0 3.26.748 4.53 2.243 1.27 1.496 1.91 3.272 1.91 5.328v42.346c0 2.057-.64 3.833-1.91 5.328-1.27 1.496-2.78 2.244-4.53 2.244ZM1440.9 145.428h50.3c1.43 0 2.66.607 3.69 1.823 1.04 1.215 1.55 2.383 1.55 3.505 0 1.122-.07 2.056-.23 2.804l-54.83 178.918c-1.75 6.169-5.32 9.254-10.73 9.254h-55.54c-5.24 0-8.74-2.804-10.48-8.413l-55.31-179.759c-.16-.748-.23-1.682-.23-2.804 0-1.122.51-2.29 1.54-3.505 1.04-1.216 2.27-1.823 3.7-1.823h50.3c2.86 0 5.2.981 7.03 2.944s3.06 4.067 3.69 6.31l27.42 107.407 27.41-107.407c1.43-6.17 5-9.254 10.72-9.254ZM1560.33 341.732h-45.05c-1.43 0-2.67-.607-3.7-1.823-1.03-1.215-1.55-2.383-1.55-3.505 0-1.122.08-1.963.24-2.524l51.96-179.198c1.43-6.17 5.01-9.254 10.73-9.254h66.27c5.72 0 9.29 3.084 10.72 9.254l51.97 179.198c.16.561.24 1.402.24 2.524s-.52 2.29-1.55 3.505c-1.03 1.216-2.27 1.823-3.7 1.823h-45.05c-5.08 0-8.66-3.178-10.73-9.535l-5.95-19.63h-58.17l-5.96 19.63c-2.06 6.357-5.64 9.535-10.72 9.535Zm62.69-83.85-16.93-58.33-16.92 58.33h33.85Z" style="fill:#4dff59;fill-rule:nonzero" transform="matrix(.78603 0 0 .78603 -234.363 -114.09)"/><path d="M1804.42 284.243h81.28c1.75 0 3.26.748 4.53 2.244 1.27 1.495 1.91 3.271 1.91 5.328v42.346c0 2.056-.64 3.832-1.91 5.328-1.27 1.495-2.78 2.243-4.53 2.243h-139.21c-1.74 0-3.25-.748-4.52-2.243-1.28-1.496-1.91-3.272-1.91-5.328V152.999c0-2.056.63-3.832 1.91-5.328 1.27-1.495 2.78-2.243 4.52-2.243h51.49c1.75 0 3.26.748 4.53 2.243 1.27 1.496 1.91 3.272 1.91 5.328v131.244Z" style="fill:#4dff59;fill-rule:nonzero" transform="matrix(-.78603 0 0 .78603 2620.666 -114.09)"/><path d="M431.169 425.863h43.622c1.748 0 3.258.748 4.529 2.243 1.271 1.496 1.907 3.272 1.907 5.329v181.161c0 2.056-.636 3.832-1.907 5.328-1.271 1.496-2.781 2.243-4.529 2.243h-43.145c-1.748 0-3.258-.747-4.529-2.243s-1.907-3.272-1.907-5.328v-86.935l-17.401 40.382c-.953 2.244-2.384 3.973-4.291 5.188-1.906 1.216-3.813 1.823-5.72 1.823h-16.21c-2.701 0-4.926-.841-6.674-2.524-1.748-1.682-2.86-3.178-3.337-4.487l-17.401-40.382v86.935c0 2.056-.636 3.832-1.907 5.328-1.271 1.496-2.781 2.243-4.529 2.243h-43.145c-1.748 0-3.258-.747-4.529-2.243s-1.907-3.272-1.907-5.328V433.435c0-2.057.636-3.833 1.907-5.329 1.271-1.495 2.781-2.243 4.529-2.243h43.622c4.449 0 7.866 2.524 10.25 7.572l31.226 67.304 31.226-67.304c2.384-5.048 5.801-7.572 10.25-7.572Z" style="fill:#1d2523;fill-rule:nonzero" transform="matrix(.78603 0 0 .78603 -234.363 -114.09)"/><path d="M655.833 602.235c-15.653 13.475-36.828 20.213-63.526 20.213-26.697 0-47.872-6.738-63.525-20.213-15.653-13.476-23.48-34.519-23.48-63.129V433.338c0-2.03.636-3.784 1.907-5.26 1.272-1.477 2.781-2.215 4.529-2.215h49.82c1.748 0 3.257.735 4.529 2.204 1.271 1.469 1.907 3.215 1.907 5.236v109.641c0 7.531 2.185 13.317 6.555 17.357 4.37 4.04 10.289 6.06 17.758 6.06 7.469 0 13.389-2.02 17.759-6.06 4.37-4.04 6.555-9.826 6.555-17.357V433.303c0-2.021.636-3.767 1.907-5.236 1.271-1.469 2.781-2.204 4.529-2.204h49.819c1.748 0 3.258.738 4.529 2.215 1.272 1.476 1.907 3.23 1.907 5.26v105.768c0 28.61-7.826 49.653-23.479 63.129Z" style="fill:#4dff59;fill-rule:nonzero" transform="matrix(.78603 0 0 .78603 -234.363 -114.09)"/><path d="M808.032 498.956c26.062 3.429 44.615 9.793 55.659 19.091 11.045 9.298 16.567 23.246 16.567 41.842s-8.025 33.672-24.075 45.227c-16.05 11.554-37.345 17.332-63.883 17.332-26.539 0-47.158-5.696-61.857-17.087-14.7-11.391-22.049-25.422-22.049-42.094 0-4.075 1.827-6.112 5.482-6.112h48.866c3.337 0 6.039 1.149 8.104 3.448 4.45 4.773 12.157 7.16 23.122 7.16 15.097 0 22.645-2.617 22.645-7.852 0-3.251-2.383-5.825-7.151-7.721-4.767-1.896-14.222-3.746-28.366-5.552-44.972-6.137-67.458-25.727-67.458-58.768 0-18.597 7.23-33.627 21.691-45.091 14.461-11.464 33.809-17.197 58.043-17.197 24.235 0 43.821 6.166 58.759 18.496 14.937 12.33 22.406 25.357 22.406 39.081 0 1.852-.516 3.335-1.549 4.448-1.033 1.113-2.424 1.669-4.172 1.669h-51.249c-2.861 0-5.324-1.06-7.39-3.181-3.813-3.885-9.534-5.828-17.162-5.828-10.647 0-15.971 2.529-15.971 7.585 0 2.708 2.066 4.829 6.198 6.363 4.131 1.533 12.395 3.114 24.79 4.741Z" style="fill:#4dff59;fill-rule:nonzero" transform="matrix(-.78603 0 0 .78603 1014.368 -114.09)"/><path d="M1073.1 483.352h-43.15v81.326h43.15c1.75 0 3.26.748 4.53 2.244 1.27 1.495 1.91 3.271 1.91 5.328v42.346c0 2.056-.64 3.832-1.91 5.328-1.27 1.496-2.78 2.243-4.53 2.243H921.973c-1.748 0-3.258-.747-4.529-2.243s-1.907-3.272-1.907-5.328V572.25c0-2.057.636-3.833 1.907-5.328 1.271-1.496 2.781-2.244 4.529-2.244h43.622v-81.326h-43.622c-1.748 0-3.258-.748-4.529-2.243-1.271-1.496-1.907-3.272-1.907-5.329v-42.345c0-2.057.636-3.833 1.907-5.329 1.271-1.495 2.781-2.243 4.529-2.243H1073.1c1.75 0 3.26.748 4.53 2.243 1.27 1.496 1.91 3.272 1.91 5.329v42.345c0 2.057-.64 3.833-1.91 5.329-1.27 1.495-2.78 2.243-4.53 2.243Z" style="fill:#4dff59;fill-rule:nonzero" transform="matrix(.78603 0 0 .78603 -234.363 -114.09)"/><path d="M1288.59 507.093v33.257c0 26.715-7.71 46.978-23.13 60.789l17.64 28.035c1.12 2.617 1.08 4.721-.12 6.31-1.19 1.589-2.5 2.383-3.93 2.383h-45.53c-5.08 0-8.98-2.337-11.68-7.01l-6.2-9.25c-5.08.56-10.32.841-15.73.841-17.48 0-32.65-2.643-45.53-7.929-12.87-5.286-23.28-14.217-31.22-26.795-7.95-12.577-11.92-28.435-11.92-47.575v-32.268c0-19.139 3.97-34.998 11.92-47.575 7.94-12.577 18.35-21.509 31.22-26.795 12.88-5.286 28.05-7.929 45.53-7.929s32.66 2.635 45.53 7.905c12.87 5.27 23.28 14.175 31.23 26.716 7.94 12.541 11.92 28.171 11.92 46.89Zm-112.99-4.29v42.424c0 7.248 2.18 12.816 6.55 16.704 4.37 3.888 10.29 5.832 17.76 5.832 7.47 0 13.39-1.989 17.76-5.966 4.37-3.977 6.56-9.589 6.56-16.837v-41.89c0-7.247-2.19-12.86-6.56-16.837-4.37-3.977-10.29-5.966-17.76-5.966-7.47 0-13.39 1.944-17.76 5.832-4.37 3.889-6.55 9.456-6.55 16.704Z" style="fill:#4dff59;fill-rule:nonzero" transform="matrix(-.78603 0 0 .78603 1651.975 -114.09)"/><path d="M1466.29 602.235c-15.65 13.475-36.83 20.213-63.52 20.213-26.7 0-47.88-6.738-63.53-20.213-15.65-13.476-23.48-34.519-23.48-63.129V433.338c0-2.03.64-3.784 1.91-5.26 1.27-1.477 2.78-2.215 4.53-2.215h49.82c1.74 0 3.25.735 4.52 2.204 1.28 1.469 1.91 3.215 1.91 5.236v109.641c0 7.531 2.19 13.317 6.56 17.357 4.37 4.04 10.29 6.06 17.76 6.06 7.46 0 13.38-2.02 17.75-6.06 4.37-4.04 6.56-9.826 6.56-17.357V433.303c0-2.021.63-3.767 1.91-5.236 1.27-1.469 2.78-2.204 4.53-2.204h49.81c1.75 0 3.26.738 4.53 2.215 1.27 1.476 1.91 3.23 1.91 5.26v105.768c0 28.61-7.83 49.653-23.48 63.129Z" style="fill:#4dff59;fill-rule:nonzero" transform="matrix(.78603 0 0 .78603 -234.363 -114.09)"/><path d="M1587.5 567.483h95.11c1.75 0 3.26.747 4.53 2.243 1.27 1.496 1.91 3.272 1.91 5.328v39.542c0 2.056-.64 3.832-1.91 5.328-1.27 1.496-2.78 2.243-4.53 2.243h-150.65c-1.75 0-3.26-.747-4.53-2.243-1.27-1.496-1.9-3.272-1.9-5.328V433.435c0-2.057.63-3.833 1.9-5.329 1.27-1.495 2.78-2.243 4.53-2.243h148.27c1.75 0 3.26.748 4.53 2.243 1.27 1.496 1.9 3.272 1.9 5.329v39.541c0 2.056-.63 3.833-1.9 5.328-1.27 1.496-2.78 2.244-4.53 2.244h-92.73v17.667h79.62c1.75 0 3.26.748 4.53 2.244 1.27 1.495 1.9 3.271 1.9 5.328v36.456c0 2.057-.63 3.833-1.9 5.329-1.27 1.495-2.78 2.243-4.53 2.243h-79.62v17.668Z" style="fill:#4dff59;fill-rule:nonzero" transform="matrix(-.78603 0 0 .78603 2292.395 -114.09)"/><path d="M1821.1 498.956c26.07 3.429 44.62 9.793 55.66 19.091 11.05 9.298 16.57 23.246 16.57 41.842s-8.02 33.672-24.07 45.227c-16.06 11.554-37.35 17.332-63.89 17.332s-47.16-5.696-61.85-17.087c-14.7-11.391-22.05-25.422-22.05-42.094 0-4.075 1.82-6.112 5.48-6.112h48.86c3.34 0 6.04 1.149 8.11 3.448 4.45 4.773 12.16 7.16 23.12 7.16 15.1 0 22.64-2.617 22.64-7.852 0-3.251-2.38-5.825-7.15-7.721-4.76-1.896-14.22-3.746-28.36-5.552-44.97-6.137-67.46-25.727-67.46-58.768 0-18.597 7.23-33.627 21.69-45.091 14.46-11.464 33.81-17.197 58.04-17.197 24.24 0 43.83 6.166 58.76 18.496 14.94 12.33 22.41 25.357 22.41 39.081 0 1.852-.52 3.335-1.55 4.448-1.03 1.113-2.42 1.669-4.17 1.669h-51.25c-2.86 0-5.32-1.06-7.39-3.181-3.82-3.885-9.53-5.828-17.16-5.828-10.65 0-15.97 2.529-15.97 7.585 0 2.708 2.06 4.829 6.19 6.363 4.13 1.533 12.4 3.114 24.79 4.741Z" style="fill:#4dff59;fill-rule:nonzero" transform="matrix(-.78603 0 0 .78603 2606.99 -114.09)"/><path d="M367.763 783.238v42.425c0 7.247 2.185 12.815 6.555 16.703 4.37 3.888 10.091 5.832 17.163 5.832 7.071 0 12.196-1.237 15.375-3.711 3.178-2.474 5.84-6.098 7.985-10.871 2.145-4.774 4.966-7.16 8.462-7.16h51.488c1.43 0 2.662.598 3.695 1.794 1.033 1.196 1.549 2.621 1.549 4.274 0 17.107-6.992 32.743-20.976 46.908-6.993 6.99-16.289 12.646-27.89 16.968-11.6 4.322-25.267 6.483-40.999 6.483-15.733 0-30.075-2.78-43.026-8.339-12.951-5.559-23.479-14.673-31.584-27.342-8.105-12.669-12.157-28.209-12.157-46.618v-32.268c0-18.409 4.052-33.994 12.157-46.753 15.256-23.697 40.761-35.545 76.517-35.545 14.461 0 27.492 2.16 39.092 6.482 11.601 4.322 20.897 9.978 27.89 16.969 13.984 14.162 20.976 29.796 20.976 46.903 0 1.653-.516 3.078-1.549 4.274-1.033 1.196-2.265 1.794-3.695 1.794h-51.488c-3.496 0-6.317-2.385-8.462-7.157-2.145-4.772-4.807-8.395-7.985-10.869-3.179-2.474-8.304-3.712-15.375-3.712-7.072 0-12.793 1.944-17.163 5.833-4.37 3.888-6.555 9.455-6.555 16.703Z" style="fill:#1d2523;fill-rule:nonzero" transform="matrix(.78603 0 0 .78603 -234.363 -114.09)"/><path d="M686.94 893.909c.318.748.477 1.776.477 3.085s-.516 2.571-1.549 3.786c-1.033 1.215-2.265 1.823-3.695 1.823h-54.11c-4.768 0-8.105-2.337-10.012-7.011l-20.976-55.526h-20.023v54.965c0 2.056-.636 3.832-1.907 5.328-1.272 1.496-2.781 2.244-4.529 2.244h-51.488c-1.748 0-3.258-.748-4.529-2.244-1.271-1.496-1.907-3.272-1.907-5.328V713.87c0-2.057.636-3.833 1.907-5.329 1.271-1.495 2.781-2.243 4.529-2.243h92.726c21.771 0 39.013 6.076 51.726 18.228 12.713 12.152 19.07 28.698 19.07 49.637 0 25.426-8.343 43.842-25.029 55.246l29.319 64.5Zm-109.888-135.45v29.726h29.796c3.496 0 6.198-1.355 8.105-4.066s2.86-6.123 2.86-10.236-.914-7.712-2.741-10.797c-1.828-3.085-4.569-4.627-8.224-4.627h-29.796Z" style="fill:#4dff59;fill-rule:nonzero" transform="matrix(-.78603 0 0 .78603 708.963 -114.09)"/><path d="M836.875 663.111c3.019 0 4.529 1.87 4.529 5.609 0 1.308-.397 2.43-1.192 3.365l-22.645 22.435c-1.43 1.308-3.655 1.963-6.674 1.963h-31.704c-2.542 0-3.814-1.496-3.814-4.487 0-1.496.398-2.711 1.192-3.646l13.826-19.911c2.225-3.178 5.164-4.954 8.819-5.328h37.663Zm-57.447 184.807h95.109c1.748 0 3.258.748 4.529 2.243 1.272 1.496 1.907 3.272 1.907 5.328v39.542c0 2.056-.635 3.832-1.907 5.328-1.271 1.496-2.781 2.244-4.529 2.244H723.888c-1.748 0-3.258-.748-4.529-2.244-1.272-1.496-1.907-3.272-1.907-5.328V713.87c0-2.057.635-3.833 1.907-5.329 1.271-1.495 2.781-2.243 4.529-2.243h148.266c1.748 0 3.257.748 4.529 2.243 1.271 1.496 1.907 3.272 1.907 5.329v39.541c0 2.057-.636 3.833-1.907 5.328-1.272 1.496-2.781 2.244-4.529 2.244h-92.726v17.667h79.615c1.748 0 3.258.748 4.529 2.244 1.272 1.495 1.907 3.271 1.907 5.328v36.457c0 2.056-.635 3.832-1.907 5.328-1.271 1.495-2.781 2.243-4.529 2.243h-79.615v17.668Z" style="fill:#4dff59;fill-rule:nonzero" transform="matrix(-.78603 0 0 .78603 1022.048 -114.09)"/><path d="M952.484 902.603h-45.052c-1.43 0-2.661-.608-3.694-1.823-1.033-1.215-1.55-2.384-1.55-3.506 0-1.121.08-1.963.239-2.524l51.964-179.198c1.43-6.169 5.006-9.254 10.727-9.254h66.262c5.73 0 9.3 3.085 10.73 9.254l51.97 179.198c.16.561.23 1.403.23 2.524 0 1.122-.51 2.291-1.54 3.506-1.04 1.215-2.27 1.823-3.7 1.823h-45.05c-5.09 0-8.66-3.179-10.73-9.535l-5.96-19.631h-58.16l-5.959 19.631c-2.066 6.356-5.641 9.535-10.727 9.535Zm62.696-83.851-16.929-58.33-16.924 58.33h33.853ZM1117.91 706.298h164.48c1.75 0 3.26.748 4.53 2.243 1.27 1.496 1.9 3.272 1.9 5.329v45.15c0 2.056-.63 3.832-1.9 5.328-1.27 1.496-2.78 2.244-4.53 2.244h-51.25v128.439c0 2.056-.64 3.832-1.91 5.328-1.27 1.496-2.78 2.244-4.53 2.244h-49.1c-1.75 0-3.26-.748-4.53-2.244-1.27-1.496-1.91-3.272-1.91-5.328V766.592h-51.25c-1.75 0-3.26-.748-4.53-2.244-1.27-1.496-1.9-3.272-1.9-5.328v-45.15c0-2.057.63-3.833 1.9-5.329 1.27-1.495 2.78-2.243 4.53-2.243ZM1478.33 763.787h-43.15v81.326h43.15c1.75 0 3.26.748 4.53 2.244 1.27 1.495 1.9 3.272 1.9 5.328v42.346c0 2.056-.63 3.832-1.9 5.328-1.27 1.496-2.78 2.244-4.53 2.244H1327.2c-1.75 0-3.26-.748-4.53-2.244-1.27-1.496-1.9-3.272-1.9-5.328v-42.346c0-2.056.63-3.833 1.9-5.328 1.27-1.496 2.78-2.244 4.53-2.244h43.62v-81.326h-43.62c-1.75 0-3.26-.748-4.53-2.243-1.27-1.496-1.9-3.272-1.9-5.329V713.87c0-2.057.63-3.833 1.9-5.329 1.27-1.495 2.78-2.243 4.53-2.243h151.13c1.75 0 3.26.748 4.53 2.243 1.27 1.496 1.9 3.272 1.9 5.329v42.345c0 2.057-.63 3.833-1.9 5.329-1.27 1.495-2.78 2.243-4.53 2.243ZM1694.05 787.773v33.354c0 18.778-3.97 34.455-11.92 47.032-7.94 12.578-18.35 21.509-31.22 26.795-12.87 5.286-28.05 7.929-45.53 7.929s-32.66-2.643-45.53-7.929c-12.87-5.286-23.28-14.217-31.23-26.795-7.94-12.577-11.91-28.435-11.91-47.575v-32.268c0-27.523 8.22-48.12 24.67-61.792 16.45-13.671 37.78-20.506 64-20.506s47.55 6.835 64 20.506c16.45 13.672 24.67 34.088 24.67 61.249Zm-112.98-4.535v42.425c0 7.247 2.18 12.815 6.55 16.703 4.37 3.888 10.29 5.832 17.76 5.832 7.47 0 13.39-1.988 17.76-5.966 4.37-3.977 6.55-9.589 6.55-16.837v-41.89c0-7.247-2.18-12.86-6.55-16.837-4.37-3.977-10.29-5.966-17.76-5.966-7.47 0-13.39 1.944-17.76 5.833-4.37 3.888-6.55 9.455-6.55 16.703Z" style="fill:#4dff59;fill-rule:nonzero" transform="matrix(.78603 0 0 .78603 -234.363 -114.09)"/><path d="M1838.27 706.298h44.33c1.75 0 3.26.748 4.53 2.243 1.27 1.496 1.91 3.272 1.91 5.329v181.161c0 2.056-.64 3.832-1.91 5.328-1.27 1.496-2.78 2.244-4.53 2.244h-38.37c-3.82 0-7-1.963-9.54-5.89l-51.96-77.961v76.279c0 2.056-.64 3.832-1.91 5.328-1.27 1.496-2.78 2.244-4.53 2.244h-44.34c-1.74 0-3.25-.748-4.53-2.244-1.27-1.496-1.9-3.272-1.9-5.328V713.87c0-2.057.63-3.833 1.9-5.329 1.28-1.495 2.79-2.243 4.53-2.243h38.62c3.81 0 6.91 1.87 9.3 5.609l51.96 84.411V713.87c0-2.057.64-3.833 1.91-5.329 1.27-1.495 2.78-2.243 4.53-2.243Z" style="fill:#4dff59;fill-rule:nonzero" transform="matrix(-.78603 0 0 .78603 2606.8 -114.09)"/></svg>