<svg xmlns="http://www.w3.org/2000/svg"><defs><font id="HighTide-Bold" horiz-adv-x="677"><font-face font-family="High Tide Bold" font-weight="400" ascent="750" descent="-250" x-height="700" cap-height="701" bbox="-40 -250 993.333 945" underline-thickness="50" underline-position="-100" unicode-range="U+0020-20AC"/><glyph glyph-name=".notdef" horiz-adv-x="304"/><glyph glyph-name=".null" horiz-adv-x="0"/><glyph glyph-name="nonmarkingreturn" horiz-adv-x="333"/><glyph glyph-name="space" horiz-adv-x="304"/><glyph glyph-name="exclam" unicode="!" horiz-adv-x="242" d="M71.5 695q5.5 5 13.5 5h78q8 0 13.5-5t5.5-12l-4-526q0-17-19-17H90q-19 0-19 17l-5 526q0 7 5.5 12zm6-690Q59 22 59 49t18.5 43.5T124 109t47-16.5T190 49 171 5t-47-17T77.5 5z"/><glyph glyph-name="quotedbl" unicode="&quot;" horiz-adv-x="331" d="M140.5 694.5Q146 689 146 682l-9-212q0-16-19-16H60q-19 0-19 17v212q0 7 5.5 12t13.5 5h67q8 0 13.5-5.5zm149 0Q295 689 295 682l-9-212q0-16-19-16h-59q-19 0-19 17v212q0 7 5.5 12t13.5 5h68q8 0 13.5-5.5z"/><glyph glyph-name="dollar" unicode="$" horiz-adv-x="511" d="M209.5 782.5Q215 787 223 787h56q19 0 19-17v-60q70-6 122-36l6-3q6-2 8.5-8.5T434 650l-28-67q-5-11-17-11-5 0-11 3-28 22-80 28V400q77-35 123-82.5T470 195q1-77-43-128.5T298-2v-55q0-17-19-17h-56q-8 0-13.5 4.5T204-57l-2 48Q111-8 51 37q-8 7-7 17l19 70q1 6 6.5 10t11.5 4q5 0 9-3 59-30 114-35v223q-78 32-119 79T44 520q0 70 42.5 120T204 705v65q0 8 5.5 12.5zM204 445v142q-46-25-45-69v-1q2-41 45-72zm137.5-206Q327 260 298 280V112q26 12 42 33t16 47-14.5 47z"/><glyph glyph-name="ampersand" unicode="&amp;" horiz-adv-x="633" d="M419 557q-14 0-22 9-14 19-38.5 29.5T308 606q-43 0-73.5-20T204 524q0-44 31-63.5t90-19.5q12 0 19.5-6.5T352 417v-59q0-11-7.5-17.5T325 334h-32q-55-9-91.5-38T165 217q0-58 37.5-89.5T299 96q55 0 87.5 37T419 235v182q0 11 8.5 17.5T448 441h134q13 0 21-6.5t8-17.5v-60q0-11-8-17t-21-6h-40V234q0-113-64-180.5T299-14q-80 0-140.5 29.5T65 97.5 32 215q0 58 34 103.5t88 77.5q-39 18-59 51.5T75 524q0 62 31.5 104.5t85 64T309 714q62 0 111.5-19t78.5-55q4-8 4-12 0-12-10-20l-55-45q-7-6-19-6z"/><glyph glyph-name="quotesingle" unicode="'" horiz-adv-x="190" d="M147.5 694.5Q153 689 153 682l-9-212q0-16-19-16H62q-8 0-13.5 4.5T43 471v212q0 7 5.5 12t13.5 5h72q8 0 13.5-5.5z"/><glyph glyph-name="parenleft" unicode="(" horiz-adv-x="308" d="M301 763q0-9-7-13-67-49-101-158t-34-240q0-133 35-246T295-59q7-7 7-13 0-5-3-9l-27-45q-8-10-16-10-3 0-11 4Q148-66 95.5 65.5T43 349q0 151 52 281t150 193q6 3 12 3 9 0 15-9l27-46q2-4 2-8z"/><glyph glyph-name="parenright" unicode=")" horiz-adv-x="307" d="M58 816q6 0 10-3 98-64 150.5-192T271 342q0-152-53-285T68-142q-6-4-10-4-11 0-16 10L15-91q-2 3-2 9 0 8 6 13 64 55 99.5 168.5T154 345q0 129-34.5 237T20 740q-8 5-8 13 0 4 3 8l27 46q5 9 16 9z"/><glyph glyph-name="comma" unicode="," horiz-adv-x="218" d="M175 52q1-5-1-10l1 1q0-1-7-26l-28-90q-2-5-7.5-8.5T122-85H75q-10 0-15.5 7T57-63L74-3Q44 14 44 49q0 29 18 45t47 16q23 0 40-13.5T174 59q0-2 1-7z"/><glyph glyph-name="hyphen" unicode="-" horiz-adv-x="461" d="M56.5 377.5Q62 382 70 382h309q19 0 19-17v-64q0-7-5.5-12t-13.5-5H70q-8 0-13.5 5T51 301v64q0 8 5.5 12.5z"/><glyph glyph-name="period" unicode="." horiz-adv-x="225" d="M54.5 9Q35 27 35 53q0 30 19 46.5t48 16.5q30 0 49.5-16.5T171 53q0-26-20-44T102-9Q74-9 54.5 9z"/><glyph glyph-name="slash" unicode="/" horiz-adv-x="464" d="M367 731q7 0 10-2l58-31q6-4 8.5-10.5T442 675L102-20q-7-10-17-10-3 0-9 2L21 3Q10 7 10 17q0 6 2 9l338 696q5 9 17 9z"/><glyph glyph-name="zero" unicode="0" horiz-adv-x="631" d="M530 610.5Q593 510 593 351T529.5 90.5 320-11Q175-11 110.5 91T46 351t64.5 259T320 711q147 0 210-100.5zM208.5 525Q177 455 177 351t32-175 111-71 111 71 32 175-31.5 174T320 595t-111.5-70z"/><glyph glyph-name="one" unicode="1" horiz-adv-x="291" d="M47 584q-13 0-21 6.5T18 608v69q0 10 8 16.5t21 6.5h156q13 0 21-6.5t8-16.5V23q0-10-8-16.5T203 0h-73q-12 0-20.5 6.5T101 23v561H47z"/><glyph glyph-name="two" unicode="2" horiz-adv-x="528" d="M46 617q0 11 6 17 40 38 90.5 57.5T246 711q61 0 113.5-25t84-71.5T475 506q0-60-24.5-117T374 268.5 234 118h229q13 0 21-6t8-17V24q0-10-8.5-16.5T463 1H60Q47 1 39 7.5T31 24v56q0 4 8 15 114 94 208.5 209.5T342 495q0 40-27 69t-68 29q-56 0-120-51-8-7-19-7-14 0-23 11l-36 58q-3 6-3 13z"/><glyph glyph-name="three" unicode="3" horiz-adv-x="545" d="M458.5 374Q498 319 498 247q0-74-35.5-133T367 22 237-11q-71 0-129.5 33.5T14 116q-4 4-4 12 0 14 12 21l57 36q12 5 20 5 13 0 22-12 22-32 53.5-51t62.5-19q34 0 63.5 19t47.5 51 18 69q0 56-38.5 87.5T218 373q-5 1-11.5 5.5T196 388q-9 20-18 46h1q-2 4-2 8 0 13 8 18l132 123H75q-12 0-19.5 6.5T48 607v70q0 10 8 16.5t19 6.5h377q13 0 21-6.5t8-16.5v-95q0-13-13-26L350 454q69-25 108.5-80z"/><glyph glyph-name="four" unicode="4" horiz-adv-x="548" d="M443 6.5Q435 0 424 0h-75q-12 0-20.5 6.5T320 23v158H37q-13 0-21.5 6.5T7 205v52q0 11 1 14t7 12l291 401q1 1 5.5 6.5t8.5 7.5 8 2h96q11 0 19-6.5t8-16.5V295h56q12 0 16.5-5t4.5-17v-68q0-12-4.5-18t-16.5-6h-56V23q0-10-8-16.5zM320 525 159 295h161v230z"/><glyph glyph-name="five" unicode="5" horiz-adv-x="497" d="M55 692.5q8 6.5 19 6.5h332q11 0 19-6.5t8-16.5v-70q0-10-8-16.5t-19-6.5H169V468h1q131 0 212.5-58.5T464 238q0-82-35.5-138T333 16.5 199-11q-43 0-87 13T31 38q-10 7-10 19 0 8 4 15l33 54q8 12 21 12 7 0 17-5 27-19 50-24.5t52-5.5q57 0 96 33.5T333 237q0 121-160 121-31 0-94-7-12 0-22 7t-10 16v302q0 10 8 16.5z"/><glyph glyph-name="six" unicode="6" horiz-adv-x="590" d="M452 432.5q49-36.5 69-89.5t20-105q0-67-24.5-123.5t-75.5-91T314-11q-143 0-205 96T47 333q0 159 61 268.5T310 711q85 0 141.5-43.5T525 537q3-25-29-25h-72q-11 0-19 5t-10 12q-7 32-31 49.5T307 596q-73 0-102-60.5T173 387q25 39 66.5 60.5T322 469q81 0 130-36.5zm-87.5-308q23.5 19.5 35 50.5t9.5 63q0 46-26.5 81T312 354q-54 0-83-36.5T200 229q0-50 28-87t81-37q32 0 55.5 19.5z"/><glyph glyph-name="seven" unicode="7" horiz-adv-x="503" d="M21.5 693.5Q30 700 42 700h412q12 0 20.5-6.5T483 677v-54L207 16q-4-5-12-10.5T182 0H98Q84 0 76 6.5T68 22q0 4 2 10l253 543H42q-12 0-20.5 6.5T13 598v79q0 10 8.5 16.5z"/><glyph glyph-name="eight" unicode="8" horiz-adv-x="538" d="M471 427q-20-40-55-66 45-30 63.5-71t18.5-93q0-59-27.5-106.5T389 16 260-11q-76 0-130 27T49 90 22 197q0 48 21.5 91t62.5 73q-34 26-54.5 69.5T31 508q0 62 29.5 108t81.5 70.5T260 711q65 0 117.5-24.5t83-70.5T491 508q0-41-20-81zm-282 11.5q28-26.5 71-26.5t71.5 26.5T360 508t-28 66.5-72 23.5q-43 0-71-24t-28-66q0-43 28-69.5zm149.5-309Q369 155 369 197q0 48-30.5 76.5T260 302q-49 0-78.5-28T152 197q0-44 29.5-68.5T260 104q48 0 78.5 25.5z"/><glyph glyph-name="nine" unicode="9" horiz-adv-x="578" d="M119 274.5Q70 311 50 364T30 469q0 67 24 121.5t75 87.5 128 33q145 0 205-87.5T522 372q0-160-60.5-272T261-12q-83 0-140 44T46 161q0 10 8.5 18.5T75 188h76q11 0 19-5t10-12q8-37 29-52.5t58-15.5q56 0 92.5 53T402 315q-36-43-73-60t-80-17q-81 0-130 36.5zm68 283Q160 519 162 469q0-47 26.5-82t70.5-35q54 0 85 38t31 90q0 47-29.5 81.5T262 596q-48 0-75-38.5z"/><glyph glyph-name="question" unicode="?" horiz-adv-x="510" d="M32 558.5q-3 6.5-1 12.5 20 70 75.5 105T242 711q61 0 110-23t77-68 28-108q0-49-21-83t-62-75q-7-7-34.5-34T299 258.5 288 179q0-8-5.5-13t-13.5-5h-72q-8 0-13.5 4.5T178 178q-1 56 10.5 94t29 61 46.5 50l16 16q31 29 47 54.5t16 62.5q0 42-31.5 67.5T234 609q-36 0-65-19t-37-54q-2-8-10-11.5t-16-1.5l-65 27q-6 2-9 8.5zM184 6q-20 18-20 48t20 48 51 18 51-18 20-48-20-48-51-18-51 18z"/><glyph glyph-name="at" unicode="@" horiz-adv-x="820" d="M495 163q-26-27-61-41.5T360 107q-59 0-101 29t-63.5 78.5T174 323q0 21 1 30 8 72 44.5 127t92 85T430 595q92 0 174-57 8-6 8-15l-23-281q-2-20-2-27 0-23 8-23 31-2 52 52t26 111q2 24 2 38 0 120-66 189t-182 69q-79 0-146-38.5T171.5 505 121 350q-2-30-2-42 0-78 27.5-135.5t76-88T333 54q54 0 120 27 3 2 9 2 8 0 13.5-5.5T480 64l-4-44q0-8-12-15-66-26-138-26-84 0-149 39T75 130.5 38 303v20q0 20 2 30v-1q9 109 62.5 195t139 134.5T430 730q99 0 172.5-40t113-115T755 399v-19q0-19-2-28-7-62-31-118.5t-63.5-92T570 106q-62 0-75 57zm-67 336q-61 0-101-36.5T279 349v1q-4-62 20-102.5t75-40.5q49 0 80.5 39.5T495 344l11 142q-36 13-78 13z"/><glyph glyph-name="A" unicode="A" horiz-adv-x="675" d="M199 171 143 22q-6-9-14.5-15.5T112 0H39Q25 0 17 6.5T9 23q0 3 2 9l255 646q6 9 14.5 15.5T297 700h98q7 0 16.5-5t11.5-10L663 31l2-8q0-10-8.5-16.5T635 0h-75q-7 0-16.5 5T532 15l-55 156H199zm236 117-90 261-101-261h191z"/><glyph glyph-name="B" unicode="B" horiz-adv-x="629" d="M517 54Q444 0 322 0H95Q83 0 74.5 6.5T66 23v655q0 10 8.5 16.5T95 701h220q105 0 172.5-46.5T555 513q0-41-19.5-78T479 375q54-26 82.5-67.5T590 214q0-106-73-160zM400.5 447q22.5 24 22.5 63 0 40-33 58t-75 18H201V423h130q47 0 69.5 24zM201 117h121q54 0 95.5 23t41.5 74q0 45-24.5 66.5T377 307t-79 5h-97V117z"/><glyph glyph-name="C" unicode="C" horiz-adv-x="687" d="M465.5 129q50.5 19 78.5 52 9 14 22 14 8 0 14-6l59-46q10-7 10-18 0-9-4-14-49-62-119-91.5T374-10q-98 2-174 43T81 156 38 357q0 104 45.5 184.5t125 124.5T385 710q76 0 133.5-24T622 613q7-6 7-17 0-9-6-15l-49-49q-9-9-19-9-11 0-22 10-30 30-65.5 44.5T381 592q-70 0-117-34.5t-69.5-89T172 354q0-111 53-177.5T375 110q40 0 90.5 19z"/><glyph glyph-name="D" unicode="D" horiz-adv-x="666" d="M584 178.5Q548 100 473.5 52T289 0H96Q84 0 75.5 6.5T67 23v654q0 10 8.5 16.5T96 700h191q97 0 172.5-44t118-123T620 351q0-94-36-172.5zM287 119q61 1 106.5 33.5t69.5 85T487 351q0 100-48.5 165T287 581h-88V119h88z"/><glyph glyph-name="E" unicode="E" horiz-adv-x="602" d="M544 112q8-6 8-17V23q0-10-8-16.5T523 0H96Q83 0 75 6.5T67 23v654q0 10 8 16.5t21 6.5h419q12 0 20.5-6.5T544 677v-74q0-11-8-17t-21-6H199V441h297q12 0 20.5-6.5T525 418v-68q0-11-8.5-17.5T496 326H199V118h324q13 0 21-6z"/><glyph glyph-name="F" unicode="F" horiz-adv-x="575" d="M196 23q0-10-8.5-16.5T167 0H94Q81 0 73 6.5T65 23v654q0 10 8 16.5t21 6.5h414q12 0 20.5-6.5T537 677v-73q0-11-8-17t-21-6H196V445h294q12 0 20.5-6.5T519 422v-72q0-10-8.5-16.5T490 327H196V23z"/><glyph glyph-name="G" unicode="G" horiz-adv-x="679" d="M349 273q-11 0-19 6t-8 15v71q0 11 7.5 17t19.5 6h229q13 0 21-6t8-17V39q0-6-6-13t-14-9Q540 1 496-5t-99-6q-179 0-269.5 95T37 351q0 105 46 186.5T214.5 665 415 711q54 0 96.5-11t84.5-30q8-4 13-10t5-13q0-5-3-10l-25-67q-3-8-10-12.5t-15-4.5q-7 0-13 3-36 15-75.5 24.5T404 590q-58 0-110-30t-84-84.5T178 351q0-123 61.5-183.5T397 107q58 0 85 7v159H349z"/><glyph glyph-name="H" unicode="H" horiz-adv-x="710" d="M189 8.5Q181 2 168 2H95Q83 2 74.5 8.5T66 25v652q0 10 8.5 16.5T95 700h73q13 0 21-6.5t8-16.5V481h316v196q0 10 8 16.5t21 6.5h73q12 0 20.5-6.5T644 677V25q0-10-8.5-16.5T615 2h-73q-13 0-21 6.5T513 25v343H197V25q0-10-8-16.5z"/><glyph glyph-name="I" unicode="I" horiz-adv-x="264" d="M74 694.5q8 6.5 21 6.5h75q12 0 20.5-6.5T199 678V23q0-10-8.5-16.5T170 0H95Q82 0 74 6.5T66 23v655q0 10 8 16.5z"/><glyph glyph-name="J" unicode="J" horiz-adv-x="528" d="M239 575q-12 0-18.5 6.5T214 598v79q0 10 6.5 16.5T239 700h191q13 0 21-6.5t8-16.5V221q0-114-58.5-172.5T244-10Q28-10 28 214q0 11 8 17t21 6h75q13 0 21-6t8-17q3-47 20.5-75t63.5-28q43 0 63.5 30.5T327 223v352h-88z"/><glyph glyph-name="K" unicode="K" horiz-adv-x="573" d="M246 487q23 30 70.5 93t70.5 97q3 3 8 10t11.5 10 17.5 3h94q9 0 14-5t5-13q0-9-5-15L301 361 550 38q4-5 4-13 0-10-8-17.5T526 0h-87q-12 0-19.5 4.5T403 19L184 308V23q0-10-8.5-16.5T154 0H79Q67 0 58.5 6.5T50 23v654q0 10 8.5 16.5T79 700h75q13 0 21.5-6.5T184 677V405z"/><glyph glyph-name="L" unicode="L" horiz-adv-x="525" d="M498 6.5Q490 0 477 0H94Q83 0 75 6.5T67 23v654q0 10 6 16.5t17 6.5h85q24 0 24-23V117h278q13 0 21-6t8-17V23q0-10-8-16.5z"/><glyph glyph-name="M" unicode="M" horiz-adv-x="800" d="M198 23q0-10-8-16.5T169 0H95Q83 0 74.5 6.5T66 23v654q0 10 8.5 16.5T95 700h89q6 0 13.5-3t10.5-6l192-267 29 39 89 124q40 56 77 104 3 3 9.5 6t11.5 3h91q12 0 19.5-6.5T734 677V23q0-10-7.5-16.5T707 0h-76q-11 0-19 6.5T604 23v463L432 252q-3-3-10-6t-13-3h-17q-6 0-12.5 3t-9.5 6L198 486V23z"/><glyph glyph-name="N" unicode="N" horiz-adv-x="705" d="M189.5 6.5Q181 0 169 0H95Q82 0 74 6.5T66 23v654q0 10 8 16.5t21 6.5h86l324-270v247q0 10 8 16.5t21 6.5h75q12 0 20.5-6.5T638 677V23q0-10-8.5-16.5T609 0h-75q-13 0-21 6.5T505 23v250L198 524V23q0-10-8.5-16.5z"/><glyph glyph-name="O" unicode="O" horiz-adv-x="805" d="M597 659q80-51 120-133.5T757 350t-40-175.5T597 41 405-10q-115 0-196.5 51t-123 133.5T44 350t41.5 175.5 123 133.5T405 710q112 0 192-51zm-69.5-515q50.5 34 76.5 89t26 117-26 117-76.5 89T405 590q-75 0-128-34t-80-89-27-117 27-117 80-89 128-34q72 0 122.5 34z"/><glyph glyph-name="P" unicode="P" horiz-adv-x="569" d="M200 23q0-10-8.5-16.5T171 0H96Q83 0 75 6.5T67 23v654q0 10 8 16.5t21 6.5h173q124 0 198-55.5T541 475q0-111-71-169.5T272 247h-72V23zm178 369q35 30 35 82 0 42-30 75.5T268 583h-68V362h69q74 0 109 30z"/><glyph glyph-name="Q" unicode="Q" horiz-adv-x="797" d="M582 660q81-50 125.5-132.5T752 351q0-62-20-121.5T670 118l72-84q7-7 7-16t-8-16-19-7h-94q-6 0-12.5 2T607 3l-30 36q-86-49-181-49-116 0-198 51T74 174.5 32 350t42 175.5T198 659t198 51q105 0 186-50zm-89-526q-22 26-32 39l-49 58h1q-7 7-7 15 0 9 7.5 16.5T433 270h94q6 0 13.5-4.5t9.5-5.5q6-7 11-12t9-10l17-19q37 58 37 126 0 62-29.5 118.5T513 555t-117 35q-75 0-127.5-34T189 467t-27-117 27-117 79.5-89T396 110q54 0 97 24z"/><glyph glyph-name="R" unicode="R" horiz-adv-x="581" d="M189.5 6.5Q181 0 169 0H94Q81 0 73 6.5T65 23v654q0 10 8 16.5t21 6.5h173q124 0 198-55.5T539 475q0-76-33.5-127.5T407 271L544 34q3-6 3-12 0-9-7.5-15.5T520 0h-89q-16 0-27 17L275 247h-77V23q0-10-8.5-16.5zm187 385.5q34.5 30 34.5 82 0 42-30 75.5T266 583h-68V362h70q74 0 108.5 30z"/><glyph glyph-name="S" unicode="S" horiz-adv-x="518" d="M415 45q-66-55-189-55-109 0-172 47-11 8-11 20 0 2 2 10l17 61q3 8 10.5 12.5T89 145q8 0 12-2 66-36 133-36 50 0 82.5 24t32.5 65q-1 35-31 61.5T229 309q-85 33-135.5 85T43 516q0 56 29 100t82.5 69T277 710q51 0 91.5-12t61.5-26q10-7 14-13.5t1-16.5l-28-66q-10-18-24-18-7 0-15 5-59 35-107 30-40-2-68.5-24T176 515q1-28 22.5-50.5T267 422q62-26 107-54t76-72 31-105q0-91-66-146z"/><glyph glyph-name="T" unicode="T" horiz-adv-x="571" d="M13.5 593.5Q5 600 5 610v67q0 10 8.5 16.5T34 700h499q12 0 19.5-6.5T560 677v-67q0-10-7.5-16.5T533 587H347V23q0-10-8-16.5T320 0h-74q-12 0-20.5 6.5T217 23v564H34q-12 0-20.5 6.5z"/><glyph glyph-name="U" unicode="U" horiz-adv-x="660" d="M430 158.5Q462 205 462 294v383q0 10 7.5 16.5T490 700h79q11 0 19-6.5t8-16.5V297q0-156-72.5-231.5T325-10q-74 0-133 32T99 122.5 65 294v383q0 10 8.5 16.5T94 700h77q13 0 21-6.5t8-16.5V294q0-79 31-130.5t94-51.5q73 0 105 46.5z"/><glyph glyph-name="V" unicode="V" horiz-adv-x="676" d="M523 678q6 9 14.5 15.5T554 700h79q13 0 21.5-6.5T663 677l-2-8L413 22q-6-9-14.5-15.5T382 0h-99q-8 0-17 5t-11 10L13 669q-2 6-2 9 0 10 8.5 16t21.5 6h83q20 0 29-20l180-501q78 206 190 499z"/><glyph glyph-name="W" unicode="W" horiz-adv-x="1014" d="M483 640h49q20 0 29-21l144-446 67 239 81 265q3 11 12 17t18 6h81q16 0 24-9t4-21L784 11q-2-6-11-11.5T756-6h-96q-9 0-17.5 5T632 10L507 399 385 15q-6-9-14-15t-16-6h-96q-9 0-17.5 5.5T231 11L23 670q-4 12 3.5 21t24.5 9h80q9 0 17.5-5t11.5-11l78-258 71-255 144 448q6 21 30 21z"/><glyph glyph-name="X" unicode="X" horiz-adv-x="607" d="M438.5 697q5.5 4 15.5 4h84q12 0 19.5-7t7.5-17q0-6-3-12L382 369 586 32q2-6 2-10 0-9-7-15.5T562 0h-89q-16 0-27 18L296 283 146 18Q135 0 119 0H30Q18 0 11 6.5T4 22q0 4 2 10l204 337L30 665q-3 6-3 12 0 10 7.5 17t19.5 7h84q10 0 15.5-4t11.5-13l131-227 131 227q6 9 11.5 13z"/><glyph glyph-name="Y" unicode="Y" horiz-adv-x="608" d="M496 700h80q12 0 19.5-7.5T603 674q0-5-3-11L362 314V23q0-10-8.5-16.5T334 0h-75q-12 0-20.5 6.5T230 23v292L9 663q-3 6-3 11 0 11 7.5 18.5T33 700h81q16 0 27-15l159-247 167 245q10 17 29 17z"/><glyph glyph-name="Z" unicode="Z" horiz-adv-x="585" d="M74 584q-12 0-20.5 6.5T45 608v69q0 10 8.5 16.5T74 700h450q12 0 20.5-6.5T553 677v-47q0-8-7-20L190 116h334q12 0 20.5-6.5T553 92V23q0-10-8.5-16.5T524 0H47Q34 0 26 6.5T18 23v37q0 10 7 22l360 502H74z"/><glyph glyph-name="grave" unicode="`" horiz-adv-x="193" d="M90.5 546q-4.5 2-7.5 5L2 653v13q0 4 4 9t9 7l68 28 6 1q11 0 17-9l74-130v-11q0-7-5.5-12t-13.5-5H98q-3 0-7.5 2z"/><glyph glyph-name="a" unicode="a" horiz-adv-x="675" d="M199 171 143 22q-6-9-14.5-15.5T112 0H39Q25 0 17 6.5T9 23q0 3 2 9l255 646q6 9 14.5 15.5T297 700h98q7 0 16.5-5t11.5-10L663 31l2-8q0-10-8.5-16.5T635 0h-75q-7 0-16.5 5T532 15l-55 156H199zm236 117-90 261-101-261h191z"/><glyph glyph-name="b" unicode="b" horiz-adv-x="629" d="M517 54Q444 0 322 0H95Q83 0 74.5 6.5T66 23v655q0 10 8.5 16.5T95 701h220q105 0 172.5-46.5T555 513q0-41-19.5-78T479 375q54-26 82.5-67.5T590 214q0-106-73-160zM400.5 447q22.5 24 22.5 63 0 40-33 58t-75 18H201V423h130q47 0 69.5 24zM201 117h121q54 0 95.5 23t41.5 74q0 45-24.5 66.5T377 307t-79 5h-97V117z"/><glyph glyph-name="c" unicode="c" horiz-adv-x="687" d="M465.5 129q50.5 19 78.5 52 9 14 22 14 8 0 14-6l59-46q10-7 10-18 0-9-4-14-49-62-119-91.5T374-10q-98 2-174 43T81 156 38 357q0 104 45.5 184.5t125 124.5T385 710q76 0 133.5-24T622 613q7-6 7-17 0-9-6-15l-49-49q-9-9-19-9-11 0-22 10-30 30-65.5 44.5T381 592q-70 0-117-34.5t-69.5-89T172 354q0-111 53-177.5T375 110q40 0 90.5 19z"/><glyph glyph-name="d" unicode="d" horiz-adv-x="666" d="M584 178.5Q548 100 473.5 52T289 0H96Q84 0 75.5 6.5T67 23v654q0 10 8.5 16.5T96 700h191q97 0 172.5-44t118-123T620 351q0-94-36-172.5zM287 119q61 1 106.5 33.5t69.5 85T487 351q0 100-48.5 165T287 581h-88V119h88z"/><glyph glyph-name="e" unicode="e" horiz-adv-x="602" d="M544 112q8-6 8-17V23q0-10-8-16.5T523 0H96Q83 0 75 6.5T67 23v654q0 10 8 16.5t21 6.5h419q12 0 20.5-6.5T544 677v-74q0-11-8-17t-21-6H199V441h297q12 0 20.5-6.5T525 418v-68q0-11-8.5-17.5T496 326H199V118h324q13 0 21-6z"/><glyph glyph-name="f" unicode="f" horiz-adv-x="575" d="M196 23q0-10-8.5-16.5T167 0H94Q81 0 73 6.5T65 23v654q0 10 8 16.5t21 6.5h414q12 0 20.5-6.5T537 677v-73q0-11-8-17t-21-6H196V445h294q12 0 20.5-6.5T519 422v-72q0-10-8.5-16.5T490 327H196V23z"/><glyph glyph-name="g" unicode="g" horiz-adv-x="679" d="M349 273q-11 0-19 6t-8 15v71q0 11 7.5 17t19.5 6h229q13 0 21-6t8-17V39q0-6-6-13t-14-9Q540 1 496-5t-99-6q-179 0-269.5 95T37 351q0 105 46 186.5T214.5 665 415 711q54 0 96.5-11t84.5-30q8-4 13-10t5-13q0-5-3-10l-25-67q-3-8-10-12.5t-15-4.5q-7 0-13 3-36 15-75.5 24.5T404 590q-58 0-110-30t-84-84.5T178 351q0-123 61.5-183.5T397 107q58 0 85 7v159H349z"/><glyph glyph-name="h" unicode="h" horiz-adv-x="710" d="M189 8.5Q181 2 168 2H95Q83 2 74.5 8.5T66 25v652q0 10 8.5 16.5T95 700h73q13 0 21-6.5t8-16.5V481h316v196q0 10 8 16.5t21 6.5h73q12 0 20.5-6.5T644 677V25q0-10-8.5-16.5T615 2h-73q-13 0-21 6.5T513 25v343H197V25q0-10-8-16.5z"/><glyph glyph-name="i" unicode="i" horiz-adv-x="264" d="M74 694.5q8 6.5 21 6.5h75q12 0 20.5-6.5T199 678V23q0-10-8.5-16.5T170 0H95Q82 0 74 6.5T66 23v655q0 10 8 16.5z"/><glyph glyph-name="j" unicode="j" horiz-adv-x="528" d="M239 575q-12 0-18.5 6.5T214 598v79q0 10 6.5 16.5T239 700h191q13 0 21-6.5t8-16.5V221q0-114-58.5-172.5T244-10Q28-10 28 214q0 11 8 17t21 6h75q13 0 21-6t8-17q3-47 20.5-75t63.5-28q43 0 63.5 30.5T327 223v352h-88z"/><glyph glyph-name="k" unicode="k" horiz-adv-x="573" d="M246 487q23 30 70.5 93t70.5 97q3 3 8 10t11.5 10 17.5 3h94q9 0 14-5t5-13q0-9-5-15L301 361 550 38q4-5 4-13 0-10-8-17.5T526 0h-87q-12 0-19.5 4.5T403 19L184 308V23q0-10-8.5-16.5T154 0H79Q67 0 58.5 6.5T50 23v654q0 10 8.5 16.5T79 700h75q13 0 21.5-6.5T184 677V405z"/><glyph glyph-name="l" unicode="l" horiz-adv-x="525" d="M498 6.5Q490 0 477 0H94Q83 0 75 6.5T67 23v654q0 10 6 16.5t17 6.5h85q24 0 24-23V117h278q13 0 21-6t8-17V23q0-10-8-16.5z"/><glyph glyph-name="m" unicode="m" horiz-adv-x="800" d="M198 23q0-10-8-16.5T169 0H95Q83 0 74.5 6.5T66 23v654q0 10 8.5 16.5T95 700h89q6 0 13.5-3t10.5-6l192-267 29 39 89 124q40 56 77 104 3 3 9.5 6t11.5 3h91q12 0 19.5-6.5T734 677V23q0-10-7.5-16.5T707 0h-76q-11 0-19 6.5T604 23v463L432 252q-3-3-10-6t-13-3h-17q-6 0-12.5 3t-9.5 6L198 486V23z"/><glyph glyph-name="n" unicode="n" horiz-adv-x="705" d="M189.5 6.5Q181 0 169 0H95Q82 0 74 6.5T66 23v654q0 10 8 16.5t21 6.5h86l324-270v247q0 10 8 16.5t21 6.5h75q12 0 20.5-6.5T638 677V23q0-10-8.5-16.5T609 0h-75q-13 0-21 6.5T505 23v250L198 524V23q0-10-8.5-16.5z"/><glyph glyph-name="o" unicode="o" horiz-adv-x="805" d="M597 659q80-51 120-133.5T757 350t-40-175.5T597 41 405-10q-115 0-196.5 51t-123 133.5T44 350t41.5 175.5 123 133.5T405 710q112 0 192-51zm-69.5-515q50.5 34 76.5 89t26 117-26 117-76.5 89T405 590q-75 0-128-34t-80-89-27-117 27-117 80-89 128-34q72 0 122.5 34z"/><glyph glyph-name="p" unicode="p" horiz-adv-x="569" d="M200 23q0-10-8.5-16.5T171 0H96Q83 0 75 6.5T67 23v654q0 10 8 16.5t21 6.5h173q124 0 198-55.5T541 475q0-111-71-169.5T272 247h-72V23zm178 369q35 30 35 82 0 42-30 75.5T268 583h-68V362h69q74 0 109 30z"/><glyph glyph-name="q" unicode="q" horiz-adv-x="797" d="M582 660q81-50 125.5-132.5T752 351q0-62-20-121.5T670 118l72-84q7-7 7-16t-8-16-19-7h-94q-6 0-12.5 2T607 3l-30 36q-86-49-181-49-116 0-198 51T74 174.5 32 350t42 175.5T198 659t198 51q105 0 186-50zm-89-526q-22 26-32 39l-49 58h1q-7 7-7 15 0 9 7.5 16.5T433 270h94q6 0 13.5-4.5t9.5-5.5q6-7 11-12t9-10l17-19q37 58 37 126 0 62-29.5 118.5T513 555t-117 35q-75 0-127.5-34T189 467t-27-117 27-117 79.5-89T396 110q54 0 97 24z"/><glyph glyph-name="r" unicode="r" horiz-adv-x="581" d="M189.5 6.5Q181 0 169 0H94Q81 0 73 6.5T65 23v654q0 10 8 16.5t21 6.5h173q124 0 198-55.5T539 475q0-76-33.5-127.5T407 271L544 34q3-6 3-12 0-9-7.5-15.5T520 0h-89q-16 0-27 17L275 247h-77V23q0-10-8.5-16.5zm187 385.5q34.5 30 34.5 82 0 42-30 75.5T266 583h-68V362h70q74 0 108.5 30z"/><glyph glyph-name="s" unicode="s" horiz-adv-x="518" d="M415 45q-66-55-189-55-109 0-172 47-11 8-11 20 0 2 2 10l17 61q3 8 10.5 12.5T89 145q8 0 12-2 66-36 133-36 50 0 82.5 24t32.5 65q-1 35-31 61.5T229 309q-85 33-135.5 85T43 516q0 56 29 100t82.5 69T277 710q51 0 91.5-12t61.5-26q10-7 14-13.5t1-16.5l-28-66q-10-18-24-18-7 0-15 5-59 35-107 30-40-2-68.5-24T176 515q1-28 22.5-50.5T267 422q62-26 107-54t76-72 31-105q0-91-66-146z"/><glyph glyph-name="t" unicode="t" horiz-adv-x="571" d="M13.5 593.5Q5 600 5 610v67q0 10 8.5 16.5T34 700h499q12 0 19.5-6.5T560 677v-67q0-10-7.5-16.5T533 587H347V23q0-10-8-16.5T320 0h-74q-12 0-20.5 6.5T217 23v564H34q-12 0-20.5 6.5z"/><glyph glyph-name="u" unicode="u" horiz-adv-x="660" d="M430 158.5Q462 205 462 294v383q0 10 7.5 16.5T490 700h79q11 0 19-6.5t8-16.5V297q0-156-72.5-231.5T325-10q-74 0-133 32T99 122.5 65 294v383q0 10 8.5 16.5T94 700h77q13 0 21-6.5t8-16.5V294q0-79 31-130.5t94-51.5q73 0 105 46.5z"/><glyph glyph-name="v" unicode="v" horiz-adv-x="676" d="M523 678q6 9 14.5 15.5T554 700h79q13 0 21.5-6.5T663 677l-2-8L413 22q-6-9-14.5-15.5T382 0h-99q-8 0-17 5t-11 10L13 669q-2 6-2 9 0 10 8.5 16t21.5 6h83q20 0 29-20l180-501q78 206 190 499z"/><glyph glyph-name="w" unicode="w" horiz-adv-x="1014" d="M483 640h49q20 0 29-21l144-446 67 239 81 265q3 11 12 17t18 6h81q16 0 24-9t4-21L784 11q-2-6-11-11.5T756-6h-96q-9 0-17.5 5T632 10L507 399 385 15q-6-9-14-15t-16-6h-96q-9 0-17.5 5.5T231 11L23 670q-4 12 3.5 21t24.5 9h80q9 0 17.5-5t11.5-11l78-258 71-255 144 448q6 21 30 21z"/><glyph glyph-name="x" unicode="x" horiz-adv-x="607" d="M438.5 697q5.5 4 15.5 4h84q12 0 19.5-7t7.5-17q0-6-3-12L382 369 586 32q2-6 2-10 0-9-7-15.5T562 0h-89q-16 0-27 18L296 283 146 18Q135 0 119 0H30Q18 0 11 6.5T4 22q0 4 2 10l204 337L30 665q-3 6-3 12 0 10 7.5 17t19.5 7h84q10 0 15.5-4t11.5-13l131-227 131 227q6 9 11.5 13z"/><glyph glyph-name="y" unicode="y" horiz-adv-x="608" d="M496 700h80q12 0 19.5-7.5T603 674q0-5-3-11L362 314V23q0-10-8.5-16.5T334 0h-75q-12 0-20.5 6.5T230 23v292L9 663q-3 6-3 11 0 11 7.5 18.5T33 700h81q16 0 27-15l159-247 167 245q10 17 29 17z"/><glyph glyph-name="z" unicode="z" horiz-adv-x="585" d="M74 584q-12 0-20.5 6.5T45 608v69q0 10 8.5 16.5T74 700h450q12 0 20.5-6.5T553 677v-47q0-8-7-20L190 116h334q12 0 20.5-6.5T553 92V23q0-10-8.5-16.5T524 0H47Q34 0 26 6.5T18 23v37q0 10 7 22l360 502H74z"/><glyph glyph-name="dieresis" unicode="¨" horiz-adv-x="425" d="M68 605q-19 17-19 43 0 27 19 44t47 17 47-17 19-44-19-43.5-47-16.5-47 17zm196.5-.5Q246 621 246 648q0 28 18.5 44.5T312 709q28 0 46.5-17t18.5-44-18.5-43.5T312 588q-29 0-47.5 16.5z"/><glyph glyph-name="acute" unicode="´" horiz-adv-x="181" d="M1.5 549Q-4 554-4 561v11l75 130q3 5 9.5 7.5t12.5.5l69-28q5-2 8.5-7t3.5-9v-13L93 551q-3-3-7-5t-8-2H15q-8 0-13.5 5z"/><glyph glyph-name="cedilla" unicode="¸" horiz-adv-x="246" d="M36-114q7 0 11-2 26-16 58-16 15 0 25 7t10 20q0 17-21 26.5T78-72h-5q-9 0-14 6t-2 15l22 82q2 5 7.5 9.5T97 45h56q10 0 15-6.5t3-14.5l-11-42q38-7 58-31t20-57q0-14-5-34-14-37-46.5-55T110-213q-62 0-104 30-8 5-8 15 0 6 2 8l20 37q5 9 16 9z"/><glyph glyph-name="Agrave" unicode="À" horiz-adv-x="676" d="M315.5 751q-4.5 2-7.5 5l-80 103v12q0 11 12 16l68 28q2 1 6 1 12 0 17-9l75-130v-11q0-7-6-12t-14-5h-62q-4 0-8.5 2zM201 171 145 22q-6-9-14.5-15.5T114 0H41Q27 0 19 6.5T11 23q0 3 2 9l255 646q6 9 14.5 15.5T299 700h98q7 0 16.5-5t11.5-10L665 31l2-8q0-10-8.5-16.5T637 0h-75q-7 0-16.5 5T534 15l-55 156H201zm236 117-90 261-101-261h191z"/><glyph glyph-name="Aacute" unicode="Á" d="M310.5 755q-5.5 5-5.5 12v11l74 130q4 5 10 7.5t13 .5l68-28q13-6 13-16v-12l-81-103q-3-3-7-5t-8-2h-63q-8 0-13.5 5zM199 171 143 22q-6-9-14.5-15.5T112 0H39Q25 0 17 6.5T9 23q0 3 2 9l255 646q6 9 14.5 15.5T297 700h98q7 0 16.5-5t11.5-10L663 31l2-8q0-10-8.5-16.5T635 0h-75q-7 0-16.5 5T532 15l-55 156H199zm236 117-90 261-101-261h191z"/><glyph glyph-name="Acircumflex" unicode="Â" d="m346 821-86-76h-76q-19 0-19 17v7q0 3 1.5 6.5t3.5 6.5l132 124h88l130-125q2-3 4-6.5t2-6.5v-6q0-8-5.5-12.5T507 745h-74zM199 171 143 22q-6-9-14.5-15.5T112 0H39Q25 0 17 6.5T9 23q0 3 2 9l255 646q6 9 14.5 15.5T297 700h98q7 0 16.5-5t11.5-10L663 31l2-8q0-10-8.5-16.5T635 0h-75q-7 0-16.5 5T532 15l-55 156H199zm236 117-90 261-101-261h191z"/><glyph glyph-name="Atilde" unicode="Ã" d="M180 795q0 4 3 8 20 38 49 57.5t63 19.5q39 0 81-27 21-15 37-16 18 0 33 26 4 6 10.5 8t12.5 0l45-25q9-4 9-14 0-5-2-8-18-38-46.5-59T409 744q-34 0-73 24-24 17-43 18-20 0-35-25-4-9-17-9-6 0-9 2l-42 26q-10 5-10 15zm19-624L143 22q-6-9-14.5-15.5T112 0H39Q25 0 17 6.5T9 23q0 3 2 9l255 646q6 9 14.5 15.5T297 700h98q7 0 16.5-5t11.5-10L663 31l2-8q0-10-8.5-16.5T635 0h-75q-7 0-16.5 5T532 15l-55 156H199zm236 117-90 261-101-261h191z"/><glyph glyph-name="Adieresis" unicode="Ä" d="M203.5 756.5Q185 773 185 800t18.5 43.5T250 860q29 0 48-16.5t19-43.5-19-43.5-48-16.5q-28 0-46.5 16.5zm197 0Q382 773 382 800t18.5 43.5T447 860t47-16.5 19-43.5-19-43.5-47-16.5-46.5 16.5zM199 171 143 22q-6-9-14.5-15.5T112 0H39Q25 0 17 6.5T9 23q0 3 2 9l255 646q6 9 14.5 15.5T297 700h98q7 0 16.5-5t11.5-10L663 31l2-8q0-10-8.5-16.5T635 0h-75q-7 0-16.5 5T532 15l-55 156H199zm236 117-90 261-101-261h191z"/><glyph glyph-name="Aring" unicode="Å" horiz-adv-x="675" d="M427 674 663 31l2-8q0-10-8.5-16.5T635 0h-75q-7 0-16.5 5T532 15l-55 156H199L143 22q-6-9-14.5-15.5T112 0H39Q25 0 17 6.5T9 23q0 3 2 9l252 640q-45 32-45 92 0 54 37 85t88 31 89-31 38-85q0-57-43-90zm-112 62.5q12-9.5 28-9.5t28.5 9.5T384 764t-12.5 27.5T343 801t-28-9.5-12-27.5 12-27.5zM435 288l-90 261-101-261h191z"/><glyph glyph-name="AE" unicode="Æ" horiz-adv-x="831" d="M121 0H37Q24 0 16.5 6.5T9 23q0 4 2 10l263 642q3 13 13 19t20 6h432q13 0 21-6.5t8-16.5v-66q0-11-8-17t-21-6H497V322h223q13 0 21-6.5t8-16.5v-63q0-11-8-17t-21-6H497V112h251q13 0 21-6t8-17V23q0-10-8.5-16.5T748 0H404q-12 0-20.5 6.5T375 23v190H224L151 21q-9-21-30-21zm148 322h106v253h-16z"/><glyph glyph-name="Ccedilla" unicode="Ç" horiz-adv-x="682" d="M465.5 129q50.5 19 78.5 52 9 14 22 14 8 0 14-6l59-46q10-7 10-18 0-9-4-14Q569 13 426-6q-2-6-7-21.5T413-49q36-10 57-35t21-58q0-16-4-29-13-42-47.5-60.5T359-250q-27 0-54 8.5T258-219q-7 4-7 14 0 4 2 8l20 42q5 10 17 10 3 0 9-2 29-19 58-19 13 0 22.5 5.5T391-146q1 4 1 10 0 20-15 28.5T341-99q-9 0-13-1h-5q-9 0-13.5 6T307-79l26 72Q199 8 118.5 100.5T38 357q0 104 45.5 184.5t125 124.5T385 710q76 0 133.5-24T622 613q7-6 7-17 0-9-6-15l-49-49q-9-9-19-9-11 0-22 10-30 30-65.5 44.5T381 592q-70 0-117-34.5t-69.5-89T172 354q0-111 53-177.5T375 110q40 0 90.5 19z"/><glyph glyph-name="Egrave" unicode="È" horiz-adv-x="594" d="M289 750q-4 2-7 5l-81 102v13q0 11 12 16l69 28q2 1 6 1 10 0 17-9l74-130v-11q0-7-5.5-12t-13.5-5h-63q-4 0-8 2zm255-638q8-6 8-17V23q0-10-8-16.5T523 0H96Q83 0 75 6.5T67 23v654q0 10 8 16.5t21 6.5h419q12 0 20.5-6.5T544 677v-74q0-11-8-17t-21-6H199V441h297q12 0 20.5-6.5T525 418v-68q0-11-8.5-17.5T496 326H199V118h324q13 0 21-6z"/><glyph glyph-name="Eacute" unicode="É" horiz-adv-x="594" d="M268.5 759q-5.5 5-5.5 12v11l75 130q3 5 9.5 7t12.5 0l69-27q5-2 8.5-7t3.5-9v-13l-81-102q-3-3-7-5t-8-2h-63q-8 0-13.5 5zM544 112q8-6 8-17V23q0-10-8-16.5T523 0H96Q83 0 75 6.5T67 23v654q0 10 8 16.5t21 6.5h419q12 0 20.5-6.5T544 677v-74q0-11-8-17t-21-6H199V441h297q12 0 20.5-6.5T525 418v-68q0-11-8.5-17.5T496 326H199V118h324q13 0 21-6z"/><glyph glyph-name="Ecircumflex" unicode="Ê" horiz-adv-x="594" d="m316 829-86-76h-77q-8 0-13.5 4.5T134 770v8q0 6 6 12l131 125h89l130-126q6-6 6-12v-7q0-8-5.5-12.5T477 753h-74zm228-717q8-6 8-17V23q0-10-8-16.5T523 0H96Q83 0 75 6.5T67 23v654q0 10 8 16.5t21 6.5h419q12 0 20.5-6.5T544 677v-74q0-11-8-17t-21-6H199V441h297q12 0 20.5-6.5T525 418v-68q0-11-8.5-17.5T496 326H199V118h324q13 0 21-6z"/><glyph glyph-name="Edieresis" unicode="Ë" horiz-adv-x="594" d="M167 764q-19 17-19 43 0 27 19 44t47 17 47.5-17 19.5-44-19.5-43.5T214 747t-47 17zm207-.5Q355 780 355 807t19 44 47 17 47-17 19-44q0-26-19-43t-47-17-47 16.5zM544 112q8-6 8-17V23q0-10-8-16.5T523 0H96Q83 0 75 6.5T67 23v654q0 10 8 16.5t21 6.5h419q12 0 20.5-6.5T544 677v-74q0-11-8-17t-21-6H199V441h297q12 0 20.5-6.5T525 418v-68q0-11-8.5-17.5T496 326H199V118h324q13 0 21-6z"/><glyph glyph-name="Igrave" unicode="Ì" horiz-adv-x="256" d="M90.5 753q-4.5 2-7.5 5L2 860v13q0 4 4 9t9 7l68 28 6 1q11 0 17-9l74-130v-11q0-7-5.5-12t-13.5-5H98q-3 0-7.5 2zM74 694.5q8 6.5 21 6.5h75q12 0 20.5-6.5T199 678V23q0-10-8.5-16.5T170 0H95Q82 0 74 6.5T66 23v655q0 10 8 16.5z"/><glyph glyph-name="Iacute" unicode="Í" horiz-adv-x="256" d="M84.5 754q-5.5 5-5.5 12v11l74 130q8 12 23 8l68-28q12-5 12-16v-13l-80-102q-3-3-7.5-5t-8.5-2H98q-8 0-13.5 5zM74 694.5q8 6.5 21 6.5h75q12 0 20.5-6.5T199 678V23q0-10-8.5-16.5T170 0H95Q82 0 74 6.5T66 23v655q0 10 8 16.5z"/><glyph glyph-name="Icircumflex" unicode="Î" horiz-adv-x="256" d="M200.5 749.5Q196 751 194 753l-69 69-71-69q-2-2-6.5-3.5T40 748h-61q-8 0-13.5 5t-5.5 12v15L78 904q3 3 7 4.5t8 1.5h63q4 0 8.5-2t5.5-4l117-125v-14q0-7-5.5-12t-13.5-5h-60q-3 0-7.5 1.5zM74 694.5q8 6.5 21 6.5h75q12 0 20.5-6.5T199 678V23q0-10-8.5-16.5T170 0H95Q82 0 74 6.5T66 23v655q0 10 8 16.5z"/><glyph glyph-name="Idieresis" unicode="Ï" horiz-adv-x="256" d="M-13 761q-19 17-19 43 0 27 19 44t47 17 47-17 19-44-19-43.5T34 744t-47 17zm197-.5Q165 777 165 804t19 44 47 17 46.5-17 18.5-44-18.5-43.5T231 744t-47 16.5zm-110-66q8 6.5 21 6.5h75q12 0 20.5-6.5T199 678V23q0-10-8.5-16.5T170 0H95Q82 0 74 6.5T66 23v655q0 10 8 16.5z"/><glyph glyph-name="Ntilde" unicode="Ñ" horiz-adv-x="700" d="M173 797q0 5 3 9 20 36 47.5 55t61.5 19q39 0 85-28 23-17 36-17 19-2 34 25 5 8 15 8 5 0 8-1l45-25q9-4 9-14 0-3-2-9-18-37-46.5-57T406 742q-41 0-78 26-27 18-44 18-19 0-34-24-5-8-17-8-6 0-9 2l-42 26q-9 5-9 15zM189.5 6.5Q181 0 169 0H95Q82 0 74 6.5T66 23v654q0 10 8 16.5t21 6.5h86l324-270v247q0 10 8 16.5t21 6.5h75q12 0 20.5-6.5T638 677V23q0-10-8.5-16.5T609 0h-75q-13 0-21 6.5T505 23v250L198 524V23q0-10-8.5-16.5z"/><glyph glyph-name="Ograve" unicode="Ò" horiz-adv-x="803" d="M371.5 761.5Q367 763 364 766l-81 103v12q0 5 4 10t9 6l68 28q2 1 6 1 10 0 17-9l74-130v-10q0-17-19-17h-63q-3 0-7.5 1.5zM597 659q80-51 120-133.5T757 350t-40-175.5T597 41 405-10q-115 0-196.5 51t-123 133.5T44 350t41.5 175.5 123 133.5T405 710q112 0 192-51zm-69.5-515q50.5 34 76.5 89t26 117-26 117-76.5 89T405 590q-75 0-128-34t-80-89-27-117 27-117 80-89 128-34q72 0 122.5 34z"/><glyph glyph-name="Oacute" unicode="Ó" horiz-adv-x="805" d="M358.5 769q-5.5 5-5.5 13v10l75 130q3 5 9.5 7.5t12.5.5l69-28q12-5 12-16v-12l-81-103q-3-3-7-5t-8-2h-63q-8 0-13.5 5zM597 659q80-51 120-133.5T757 350t-40-175.5T597 41 405-10q-115 0-196.5 51t-123 133.5T44 350t41.5 175.5 123 133.5T405 710q112 0 192-51zm-69.5-515q50.5 34 76.5 89t26 117-26 117-76.5 89T405 590q-75 0-128-34t-80-89-27-117 27-117 80-89 128-34q72 0 122.5 34z"/><glyph glyph-name="Ocircumflex" unicode="Ô" horiz-adv-x="805" d="m400 835-87-76h-76q-8 0-13.5 5t-5.5 12v8q0 6 6 12l131 125h89l130-126q6-6 6-12v-7q0-7-5.5-12t-13.5-5h-75zm197-176q80-51 120-133.5T757 350t-40-175.5T597 41 405-10q-115 0-196.5 51t-123 133.5T44 350t41.5 175.5 123 133.5T405 710q112 0 192-51zm-69.5-515q50.5 34 76.5 89t26 117-26 117-76.5 89T405 590q-75 0-128-34t-80-89-27-117 27-117 80-89 128-34q72 0 122.5 34z"/><glyph glyph-name="Otilde" unicode="Õ" horiz-adv-x="805" d="M235 807q-3 7 1 13 18 39 47 59t66 20q39 0 79-23 22-16 37-16 17 0 32 28 8 12 23 8l46-23q6-3 8.5-9.5T574 851q-18-40-46-61.5T462 768q-35 0-72 22-25 16-43 16-20 0-34-26-4-9-17-9-6 0-9 2l-43 24q-6 3-9 10zm362-148q80-51 120-133.5T757 350t-40-175.5T597 41 405-10q-115 0-196.5 51t-123 133.5T44 350t41.5 175.5 123 133.5T405 710q112 0 192-51zm-69.5-515q50.5 34 76.5 89t26 117-26 117-76.5 89T405 590q-75 0-128-34t-80-89-27-117 27-117 80-89 128-34q72 0 122.5 34z"/><glyph glyph-name="Odieresis" unicode="Ö" horiz-adv-x="806" d="M242.5 770.5Q224 787 224 814t18.5 44 46.5 17 47.5-17 19.5-44-19.5-43.5T289 754t-46.5 16.5zm216.5 0Q440 787 440 814t19 44 47 17 47-17 19-44q0-26-19-43t-47-17-47 16.5zM597 659q80-51 120-133.5T757 350t-40-175.5T597 41 405-10q-115 0-196.5 51t-123 133.5T44 350t41.5 175.5 123 133.5T405 710q112 0 192-51zm-69.5-515q50.5 34 76.5 89t26 117-26 117-76.5 89T405 590q-75 0-128-34t-80-89-27-117 27-117 80-89 128-34q72 0 122.5 34z"/><glyph glyph-name="Oslash" unicode="Ø" horiz-adv-x="805" d="m553 681 45 70q8 9 18 9 6 0 8-2l55-32q11-5 11-15 0-6-4-10l-47-74q58-50 88-123t30-153q0-93-40.5-176t-120-134T405-10q-84 0-153 29l-47-74q-6-8-16-8-5 0-10 3l-52 33q-11 5-11 15 0 5 4 9l47 74q-60 50-91.5 124.5T44 351q0 93 41.5 175t123 133T405 710q82 0 148-29zM277 556q-53-34-80-89t-27-117q0-48 16.5-93t48.5-79l252 398q-40 14-82 14-75 0-128-34zm250.5-412.5q50.5 33.5 76 88.5T629 349q0 47-15 91.5T570 519L319 124q40-14 86-14 72 0 122.5 33.5z"/><glyph glyph-name="Ugrave" unicode="Ù" horiz-adv-x="661" d="M297 746q-4 2-7 5l-81 102v13q0 11 12 16l69 28q2 1 6 1 10 0 17-9l74-130v-11q0-7-5.5-12t-13.5-5h-63q-4 0-8 2zm133-587.5Q462 205 462 294v383q0 10 7.5 16.5T490 700h79q11 0 19-6.5t8-16.5V297q0-156-72.5-231.5T325-10q-74 0-133 32T99 122.5 65 294v383q0 10 8.5 16.5T94 700h77q13 0 21-6.5t8-16.5V294q0-79 31-130.5t94-51.5q73 0 105 46.5z"/><glyph glyph-name="Uacute" unicode="Ú" horiz-adv-x="661" d="M283.5 752q-5.5 5-5.5 12v11l74 130q8 11 23 8l68-28q13-6 13-16v-13l-81-102q-3-3-7.5-5t-8.5-2h-62q-8 0-13.5 5zM430 158.5Q462 205 462 294v383q0 10 7.5 16.5T490 700h79q11 0 19-6.5t8-16.5V297q0-156-72.5-231.5T325-10q-74 0-133 32T99 122.5 65 294v383q0 10 8.5 16.5T94 700h77q13 0 21-6.5t8-16.5V294q0-79 31-130.5t94-51.5q73 0 105 46.5z"/><glyph glyph-name="Ucircumflex" unicode="Û" horiz-adv-x="662" d="m326 825-87-76h-76q-8 0-13.5 5t-5.5 12v8q0 6 6 12l131 125h89l130-126q6-6 6-12v-7q0-7-6-12t-14-5h-74zm104-666.5Q462 205 462 294v383q0 10 7.5 16.5T490 700h79q11 0 19-6.5t8-16.5V297q0-156-72.5-231.5T325-10q-74 0-133 32T99 122.5 65 294v383q0 10 8.5 16.5T94 700h77q13 0 21-6.5t8-16.5V294q0-79 31-130.5t94-51.5q73 0 105 46.5z"/><glyph glyph-name="Udieresis" unicode="Ü" horiz-adv-x="663" d="M172.5 763.5Q154 780 154 807t18.5 43.5T219 867q29 0 48-16.5t19-43.5-19-43.5-48-16.5q-28 0-46.5 16.5zm217 0Q371 780 371 807t18.5 43.5T436 867t47-16.5 19-43.5-19-43.5-47-16.5-46.5 16.5zm40.5-605Q462 205 462 294v383q0 10 7.5 16.5T490 700h79q11 0 19-6.5t8-16.5V297q0-156-72.5-231.5T325-10q-74 0-133 32T99 122.5 65 294v383q0 10 8.5 16.5T94 700h77q13 0 21-6.5t8-16.5V294q0-79 31-130.5t94-51.5q73 0 105 46.5z"/><glyph glyph-name="Yacute" unicode="Ý" horiz-adv-x="610" d="M238.5 749q-5.5 5-5.5 12v11l74 130q4 5 10.5 7.5t12.5.5l69-28q12-5 12-16v-12l-81-103q-3-3-7-5t-8-2h-63q-8 0-13.5 5zM496 700h80q12 0 19.5-7.5T603 674q0-5-3-11L362 314V23q0-10-8.5-16.5T334 0h-75q-12 0-20.5 6.5T230 23v292L9 663q-3 6-3 11 0 11 7.5 18.5T33 700h81q16 0 27-15l159-247 167 245q10 17 29 17z"/><glyph glyph-name="agrave" unicode="à" horiz-adv-x="676" d="M315.5 751q-4.5 2-7.5 5l-80 103v12q0 11 12 16l68 28q2 1 6 1 12 0 17-9l75-130v-11q0-7-6-12t-14-5h-62q-4 0-8.5 2zM201 171 145 22q-6-9-14.5-15.5T114 0H41Q27 0 19 6.5T11 23q0 3 2 9l255 646q6 9 14.5 15.5T299 700h98q7 0 16.5-5t11.5-10L665 31l2-8q0-10-8.5-16.5T637 0h-75q-7 0-16.5 5T534 15l-55 156H201zm236 117-90 261-101-261h191z"/><glyph glyph-name="aacute" unicode="á" d="M310.5 755q-5.5 5-5.5 12v11l74 130q4 5 10 7.5t13 .5l68-28q13-6 13-16v-12l-81-103q-3-3-7-5t-8-2h-63q-8 0-13.5 5zM199 171 143 22q-6-9-14.5-15.5T112 0H39Q25 0 17 6.5T9 23q0 3 2 9l255 646q6 9 14.5 15.5T297 700h98q7 0 16.5-5t11.5-10L663 31l2-8q0-10-8.5-16.5T635 0h-75q-7 0-16.5 5T532 15l-55 156H199zm236 117-90 261-101-261h191z"/><glyph glyph-name="acircumflex" unicode="â" d="m346 821-86-76h-76q-19 0-19 17v7q0 3 1.5 6.5t3.5 6.5l132 124h88l130-125q2-3 4-6.5t2-6.5v-6q0-8-5.5-12.5T507 745h-74zM199 171 143 22q-6-9-14.5-15.5T112 0H39Q25 0 17 6.5T9 23q0 3 2 9l255 646q6 9 14.5 15.5T297 700h98q7 0 16.5-5t11.5-10L663 31l2-8q0-10-8.5-16.5T635 0h-75q-7 0-16.5 5T532 15l-55 156H199zm236 117-90 261-101-261h191z"/><glyph glyph-name="atilde" unicode="ã" d="M180 795q0 4 3 8 20 38 49 57.5t63 19.5q39 0 81-27 21-15 37-16 18 0 33 26 4 6 10.5 8t12.5 0l45-25q9-4 9-14 0-5-2-8-18-38-46.5-59T409 744q-34 0-73 24-24 17-43 18-20 0-35-25-4-9-17-9-6 0-9 2l-42 26q-10 5-10 15zm19-624L143 22q-6-9-14.5-15.5T112 0H39Q25 0 17 6.5T9 23q0 3 2 9l255 646q6 9 14.5 15.5T297 700h98q7 0 16.5-5t11.5-10L663 31l2-8q0-10-8.5-16.5T635 0h-75q-7 0-16.5 5T532 15l-55 156H199zm236 117-90 261-101-261h191z"/><glyph glyph-name="adieresis" unicode="ä" d="M203.5 756.5Q185 773 185 800t18.5 43.5T250 860q29 0 48-16.5t19-43.5-19-43.5-48-16.5q-28 0-46.5 16.5zm197 0Q382 773 382 800t18.5 43.5T447 860t47-16.5 19-43.5-19-43.5-47-16.5-46.5 16.5zM199 171 143 22q-6-9-14.5-15.5T112 0H39Q25 0 17 6.5T9 23q0 3 2 9l255 646q6 9 14.5 15.5T297 700h98q7 0 16.5-5t11.5-10L663 31l2-8q0-10-8.5-16.5T635 0h-75q-7 0-16.5 5T532 15l-55 156H199zm236 117-90 261-101-261h191z"/><glyph glyph-name="aring" unicode="å" horiz-adv-x="675" d="M427 674 663 31l2-8q0-10-8.5-16.5T635 0h-75q-7 0-16.5 5T532 15l-55 156H199L143 22q-6-9-14.5-15.5T112 0H39Q25 0 17 6.5T9 23q0 3 2 9l252 640q-45 32-45 92 0 54 37 85t88 31 89-31 38-85q0-57-43-90zm-112 62.5q12-9.5 28-9.5t28.5 9.5T384 764t-12.5 27.5T343 801t-28-9.5-12-27.5 12-27.5zM435 288l-90 261-101-261h191z"/><glyph glyph-name="ae" unicode="æ" horiz-adv-x="831" d="M121 0H37Q24 0 16.5 6.5T9 23q0 4 2 10l263 642q3 13 13 19t20 6h432q13 0 21-6.5t8-16.5v-66q0-11-8-17t-21-6H497V322h223q13 0 21-6.5t8-16.5v-63q0-11-8-17t-21-6H497V112h251q13 0 21-6t8-17V23q0-10-8.5-16.5T748 0H404q-12 0-20.5 6.5T375 23v190H224L151 21q-9-21-30-21zm148 322h106v253h-16z"/><glyph glyph-name="ccedilla" unicode="ç" horiz-adv-x="682" d="M465.5 129q50.5 19 78.5 52 9 14 22 14 8 0 14-6l59-46q10-7 10-18 0-9-4-14Q569 13 426-6q-2-6-7-21.5T413-49q36-10 57-35t21-58q0-16-4-29-13-42-47.5-60.5T359-250q-27 0-54 8.5T258-219q-7 4-7 14 0 4 2 8l20 42q5 10 17 10 3 0 9-2 29-19 58-19 13 0 22.5 5.5T391-146q1 4 1 10 0 20-15 28.5T341-99q-9 0-13-1h-5q-9 0-13.5 6T307-79l26 72Q199 8 118.5 100.5T38 357q0 104 45.5 184.5t125 124.5T385 710q76 0 133.5-24T622 613q7-6 7-17 0-9-6-15l-49-49q-9-9-19-9-11 0-22 10-30 30-65.5 44.5T381 592q-70 0-117-34.5t-69.5-89T172 354q0-111 53-177.5T375 110q40 0 90.5 19z"/><glyph glyph-name="egrave" unicode="è" horiz-adv-x="594" d="M289 750q-4 2-7 5l-81 102v13q0 11 12 16l69 28q2 1 6 1 10 0 17-9l74-130v-11q0-7-5.5-12t-13.5-5h-63q-4 0-8 2zm255-638q8-6 8-17V23q0-10-8-16.5T523 0H96Q83 0 75 6.5T67 23v654q0 10 8 16.5t21 6.5h419q12 0 20.5-6.5T544 677v-74q0-11-8-17t-21-6H199V441h297q12 0 20.5-6.5T525 418v-68q0-11-8.5-17.5T496 326H199V118h324q13 0 21-6z"/><glyph glyph-name="eacute" unicode="é" horiz-adv-x="594" d="M268.5 759q-5.5 5-5.5 12v11l75 130q3 5 9.5 7t12.5 0l69-27q5-2 8.5-7t3.5-9v-13l-81-102q-3-3-7-5t-8-2h-63q-8 0-13.5 5zM544 112q8-6 8-17V23q0-10-8-16.5T523 0H96Q83 0 75 6.5T67 23v654q0 10 8 16.5t21 6.5h419q12 0 20.5-6.5T544 677v-74q0-11-8-17t-21-6H199V441h297q12 0 20.5-6.5T525 418v-68q0-11-8.5-17.5T496 326H199V118h324q13 0 21-6z"/><glyph glyph-name="ecircumflex" unicode="ê" horiz-adv-x="594" d="m316 829-86-76h-77q-8 0-13.5 4.5T134 770v8q0 6 6 12l131 125h89l130-126q6-6 6-12v-7q0-8-5.5-12.5T477 753h-74zm228-717q8-6 8-17V23q0-10-8-16.5T523 0H96Q83 0 75 6.5T67 23v654q0 10 8 16.5t21 6.5h419q12 0 20.5-6.5T544 677v-74q0-11-8-17t-21-6H199V441h297q12 0 20.5-6.5T525 418v-68q0-11-8.5-17.5T496 326H199V118h324q13 0 21-6z"/><glyph glyph-name="edieresis" unicode="ë" horiz-adv-x="594" d="M167 764q-19 17-19 43 0 27 19 44t47 17 47.5-17 19.5-44-19.5-43.5T214 747t-47 17zm207-.5Q355 780 355 807t19 44 47 17 47-17 19-44q0-26-19-43t-47-17-47 16.5zM544 112q8-6 8-17V23q0-10-8-16.5T523 0H96Q83 0 75 6.5T67 23v654q0 10 8 16.5t21 6.5h419q12 0 20.5-6.5T544 677v-74q0-11-8-17t-21-6H199V441h297q12 0 20.5-6.5T525 418v-68q0-11-8.5-17.5T496 326H199V118h324q13 0 21-6z"/><glyph glyph-name="igrave" unicode="ì" horiz-adv-x="256" d="M90.5 753q-4.5 2-7.5 5L2 860v13q0 4 4 9t9 7l68 28 6 1q11 0 17-9l74-130v-11q0-7-5.5-12t-13.5-5H98q-3 0-7.5 2zM74 694.5q8 6.5 21 6.5h75q12 0 20.5-6.5T199 678V23q0-10-8.5-16.5T170 0H95Q82 0 74 6.5T66 23v655q0 10 8 16.5z"/><glyph glyph-name="iacute" unicode="í" horiz-adv-x="256" d="M84.5 754q-5.5 5-5.5 12v11l74 130q8 12 23 8l68-28q12-5 12-16v-13l-80-102q-3-3-7.5-5t-8.5-2H98q-8 0-13.5 5zM74 694.5q8 6.5 21 6.5h75q12 0 20.5-6.5T199 678V23q0-10-8.5-16.5T170 0H95Q82 0 74 6.5T66 23v655q0 10 8 16.5z"/><glyph glyph-name="icircumflex" unicode="î" horiz-adv-x="256" d="M200.5 749.5Q196 751 194 753l-69 69-71-69q-2-2-6.5-3.5T40 748h-61q-8 0-13.5 5t-5.5 12v15L78 904q3 3 7 4.5t8 1.5h63q4 0 8.5-2t5.5-4l117-125v-14q0-7-5.5-12t-13.5-5h-60q-3 0-7.5 1.5zM74 694.5q8 6.5 21 6.5h75q12 0 20.5-6.5T199 678V23q0-10-8.5-16.5T170 0H95Q82 0 74 6.5T66 23v655q0 10 8 16.5z"/><glyph glyph-name="idieresis" unicode="ï" horiz-adv-x="256" d="M-13 761q-19 17-19 43 0 27 19 44t47 17 47-17 19-44-19-43.5T34 744t-47 17zm197-.5Q165 777 165 804t19 44 47 17 46.5-17 18.5-44-18.5-43.5T231 744t-47 16.5zm-110-66q8 6.5 21 6.5h75q12 0 20.5-6.5T199 678V23q0-10-8.5-16.5T170 0H95Q82 0 74 6.5T66 23v655q0 10 8 16.5z"/><glyph glyph-name="ntilde" unicode="ñ" horiz-adv-x="700" d="M173 797q0 5 3 9 20 36 47.5 55t61.5 19q39 0 85-28 23-17 36-17 19-2 34 25 5 8 15 8 5 0 8-1l45-25q9-4 9-14 0-3-2-9-18-37-46.5-57T406 742q-41 0-78 26-27 18-44 18-19 0-34-24-5-8-17-8-6 0-9 2l-42 26q-9 5-9 15zM189.5 6.5Q181 0 169 0H95Q82 0 74 6.5T66 23v654q0 10 8 16.5t21 6.5h86l324-270v247q0 10 8 16.5t21 6.5h75q12 0 20.5-6.5T638 677V23q0-10-8.5-16.5T609 0h-75q-13 0-21 6.5T505 23v250L198 524V23q0-10-8.5-16.5z"/><glyph glyph-name="ograve" unicode="ò" horiz-adv-x="803" d="M371.5 761.5Q367 763 364 766l-81 103v12q0 5 4 10t9 6l68 28q2 1 6 1 10 0 17-9l74-130v-10q0-17-19-17h-63q-3 0-7.5 1.5zM597 659q80-51 120-133.5T757 350t-40-175.5T597 41 405-10q-115 0-196.5 51t-123 133.5T44 350t41.5 175.5 123 133.5T405 710q112 0 192-51zm-69.5-515q50.5 34 76.5 89t26 117-26 117-76.5 89T405 590q-75 0-128-34t-80-89-27-117 27-117 80-89 128-34q72 0 122.5 34z"/><glyph glyph-name="oacute" unicode="ó" horiz-adv-x="805" d="M358.5 769q-5.5 5-5.5 13v10l75 130q3 5 9.5 7.5t12.5.5l69-28q12-5 12-16v-12l-81-103q-3-3-7-5t-8-2h-63q-8 0-13.5 5zM597 659q80-51 120-133.5T757 350t-40-175.5T597 41 405-10q-115 0-196.5 51t-123 133.5T44 350t41.5 175.5 123 133.5T405 710q112 0 192-51zm-69.5-515q50.5 34 76.5 89t26 117-26 117-76.5 89T405 590q-75 0-128-34t-80-89-27-117 27-117 80-89 128-34q72 0 122.5 34z"/><glyph glyph-name="ocircumflex" unicode="ô" horiz-adv-x="805" d="m400 835-87-76h-76q-8 0-13.5 5t-5.5 12v8q0 6 6 12l131 125h89l130-126q6-6 6-12v-7q0-7-5.5-12t-13.5-5h-75zm197-176q80-51 120-133.5T757 350t-40-175.5T597 41 405-10q-115 0-196.5 51t-123 133.5T44 350t41.5 175.5 123 133.5T405 710q112 0 192-51zm-69.5-515q50.5 34 76.5 89t26 117-26 117-76.5 89T405 590q-75 0-128-34t-80-89-27-117 27-117 80-89 128-34q72 0 122.5 34z"/><glyph glyph-name="otilde" unicode="õ" horiz-adv-x="805" d="M235 807q-3 7 1 13 18 39 47 59t66 20q39 0 79-23 22-16 37-16 17 0 32 28 8 12 23 8l46-23q6-3 8.5-9.5T574 851q-18-40-46-61.5T462 768q-35 0-72 22-25 16-43 16-20 0-34-26-4-9-17-9-6 0-9 2l-43 24q-6 3-9 10zm362-148q80-51 120-133.5T757 350t-40-175.5T597 41 405-10q-115 0-196.5 51t-123 133.5T44 350t41.5 175.5 123 133.5T405 710q112 0 192-51zm-69.5-515q50.5 34 76.5 89t26 117-26 117-76.5 89T405 590q-75 0-128-34t-80-89-27-117 27-117 80-89 128-34q72 0 122.5 34z"/><glyph glyph-name="odieresis" unicode="ö" horiz-adv-x="806" d="M242.5 770.5Q224 787 224 814t18.5 44 46.5 17 47.5-17 19.5-44-19.5-43.5T289 754t-46.5 16.5zm216.5 0Q440 787 440 814t19 44 47 17 47-17 19-44q0-26-19-43t-47-17-47 16.5zM597 659q80-51 120-133.5T757 350t-40-175.5T597 41 405-10q-115 0-196.5 51t-123 133.5T44 350t41.5 175.5 123 133.5T405 710q112 0 192-51zm-69.5-515q50.5 34 76.5 89t26 117-26 117-76.5 89T405 590q-75 0-128-34t-80-89-27-117 27-117 80-89 128-34q72 0 122.5 34z"/><glyph glyph-name="oslash" unicode="ø" horiz-adv-x="805" d="m553 681 45 70q8 9 18 9 6 0 8-2l55-32q11-5 11-15 0-6-4-10l-47-74q58-50 88-123t30-153q0-93-40.5-176t-120-134T405-10q-84 0-153 29l-47-74q-6-8-16-8-5 0-10 3l-52 33q-11 5-11 15 0 5 4 9l47 74q-60 50-91.5 124.5T44 351q0 93 41.5 175t123 133T405 710q82 0 148-29zM277 556q-53-34-80-89t-27-117q0-48 16.5-93t48.5-79l252 398q-40 14-82 14-75 0-128-34zm250.5-412.5q50.5 33.5 76 88.5T629 349q0 47-15 91.5T570 519L319 124q40-14 86-14 72 0 122.5 33.5z"/><glyph glyph-name="ugrave" unicode="ù" horiz-adv-x="661" d="M297 746q-4 2-7 5l-81 102v13q0 11 12 16l69 28q2 1 6 1 10 0 17-9l74-130v-11q0-7-5.5-12t-13.5-5h-63q-4 0-8 2zm133-587.5Q462 205 462 294v383q0 10 7.5 16.5T490 700h79q11 0 19-6.5t8-16.5V297q0-156-72.5-231.5T325-10q-74 0-133 32T99 122.5 65 294v383q0 10 8.5 16.5T94 700h77q13 0 21-6.5t8-16.5V294q0-79 31-130.5t94-51.5q73 0 105 46.5z"/><glyph glyph-name="uacute" unicode="ú" horiz-adv-x="661" d="M283.5 752q-5.5 5-5.5 12v11l74 130q8 11 23 8l68-28q13-6 13-16v-13l-81-102q-3-3-7.5-5t-8.5-2h-62q-8 0-13.5 5zM430 158.5Q462 205 462 294v383q0 10 7.5 16.5T490 700h79q11 0 19-6.5t8-16.5V297q0-156-72.5-231.5T325-10q-74 0-133 32T99 122.5 65 294v383q0 10 8.5 16.5T94 700h77q13 0 21-6.5t8-16.5V294q0-79 31-130.5t94-51.5q73 0 105 46.5z"/><glyph glyph-name="ucircumflex" unicode="û" horiz-adv-x="662" d="m326 825-87-76h-76q-8 0-13.5 5t-5.5 12v8q0 6 6 12l131 125h89l130-126q6-6 6-12v-7q0-7-6-12t-14-5h-74zm104-666.5Q462 205 462 294v383q0 10 7.5 16.5T490 700h79q11 0 19-6.5t8-16.5V297q0-156-72.5-231.5T325-10q-74 0-133 32T99 122.5 65 294v383q0 10 8.5 16.5T94 700h77q13 0 21-6.5t8-16.5V294q0-79 31-130.5t94-51.5q73 0 105 46.5z"/><glyph glyph-name="udieresis" unicode="ü" horiz-adv-x="663" d="M172.5 763.5Q154 780 154 807t18.5 43.5T219 867q29 0 48-16.5t19-43.5-19-43.5-48-16.5q-28 0-46.5 16.5zm217 0Q371 780 371 807t18.5 43.5T436 867t47-16.5 19-43.5-19-43.5-47-16.5-46.5 16.5zm40.5-605Q462 205 462 294v383q0 10 7.5 16.5T490 700h79q11 0 19-6.5t8-16.5V297q0-156-72.5-231.5T325-10q-74 0-133 32T99 122.5 65 294v383q0 10 8.5 16.5T94 700h77q13 0 21-6.5t8-16.5V294q0-79 31-130.5t94-51.5q73 0 105 46.5z"/><glyph glyph-name="yacute" unicode="ý" horiz-adv-x="610" d="M238.5 749q-5.5 5-5.5 12v11l74 130q4 5 10.5 7.5t12.5.5l69-28q12-5 12-16v-12l-81-103q-3-3-7-5t-8-2h-63q-8 0-13.5 5zM496 700h80q12 0 19.5-7.5T603 674q0-5-3-11L362 314V23q0-10-8.5-16.5T334 0h-75q-12 0-20.5 6.5T230 23v292L9 663q-3 6-3 11 0 11 7.5 18.5T33 700h81q16 0 27-15l159-247 167 245q10 17 29 17z"/><glyph glyph-name="ydieresis" unicode="ÿ" horiz-adv-x="609" d="M161.5 766.5Q143 783 143 810t18.5 44 46.5 17 47.5-17 19.5-44-19.5-43.5T208 750t-46.5 16.5zm196.5 0Q339 783 339 810t19 44 47 17 47-17 19-44q0-26-19-43t-47-17-47 16.5zM496 700h80q12 0 19.5-7.5T603 674q0-5-3-11L362 314V23q0-10-8.5-16.5T334 0h-75q-12 0-20.5 6.5T230 23v292L9 663q-3 6-3 11 0 11 7.5 18.5T33 700h81q16 0 27-15l159-247 167 245q10 17 29 17z"/><glyph glyph-name="Abreve" unicode="Ă" d="M279.5 892.5Q285 888 287 882q5-23 21-35.5t36-12.5q21 0 37 12.5t20 35.5q2 6 7.5 10.5T420 897h56q8 0 14-5.5t5-13.5q-6-63-49.5-97.5T344 746t-100.5 34-50.5 98v2q0 7 5.5 12t13.5 5h56q6 0 11.5-4.5zM199 171 143 22q-6-9-14.5-15.5T112 0H39Q25 0 17 6.5T9 23q0 3 2 9l255 646q6 9 14.5 15.5T297 700h98q7 0 16.5-5t11.5-10L663 31l2-8q0-10-8.5-16.5T635 0h-75q-7 0-16.5 5T532 15l-55 156H199zm236 117-90 261-101-261h191z"/><glyph glyph-name="abreve" unicode="ă" d="M279.5 892.5Q285 888 287 882q5-23 21-35.5t36-12.5q21 0 37 12.5t20 35.5q2 6 7.5 10.5T420 897h56q8 0 14-5.5t5-13.5q-6-63-49.5-97.5T344 746t-100.5 34-50.5 98v2q0 7 5.5 12t13.5 5h56q6 0 11.5-4.5zM199 171 143 22q-6-9-14.5-15.5T112 0H39Q25 0 17 6.5T9 23q0 3 2 9l255 646q6 9 14.5 15.5T297 700h98q7 0 16.5-5t11.5-10L663 31l2-8q0-10-8.5-16.5T635 0h-75q-7 0-16.5 5T532 15l-55 156H199zm236 117-90 261-101-261h191z"/><glyph glyph-name="Aogonek" unicode="Ą" d="M488.5-25.5Q502 1 529 23l-52 148H199L143 22q-6-9-14.5-15.5T112 0H39Q25 0 17 6.5T9 23q0 3 2 9l255 646q6 9 14.5 15.5T297 700h98q7 0 16.5-5t11.5-10L663 31l2-8q0-10-8.5-16.5T635 0q-29-5-43.5-26.5T577-70q0-15 7.5-24t22.5-9q18 0 44 15 6 2 9 2 6 0 11.5-3.5T679-99l15-46q1-2 1-6 0-8-10-14-42-23-86-23-55 0-89.5 29.5T475-77q0 25 13.5 51.5zM435 288l-90 261-101-261h191z"/><glyph glyph-name="aogonek" unicode="ą" d="M488.5-25.5Q502 1 529 23l-52 148H199L143 22q-6-9-14.5-15.5T112 0H39Q25 0 17 6.5T9 23q0 3 2 9l255 646q6 9 14.5 15.5T297 700h98q7 0 16.5-5t11.5-10L663 31l2-8q0-10-8.5-16.5T635 0q-29-5-43.5-26.5T577-70q0-15 7.5-24t22.5-9q18 0 44 15 6 2 9 2 6 0 11.5-3.5T679-99l15-46q1-2 1-6 0-8-10-14-42-23-86-23-55 0-89.5 29.5T475-77q0 25 13.5 51.5zM435 288l-90 261-101-261h191z"/><glyph glyph-name="Cacute" unicode="Ć" horiz-adv-x="678" d="M326.5 769q-5.5 5-5.5 13v10l74 130q4 5 10 7.5t13 .5l68-28q13-6 13-16v-12l-81-103q-3-3-7.5-5t-7.5-2h-63q-8 0-13.5 5zm139-640q50.5 19 78.5 52 9 14 22 14 8 0 14-6l59-46q10-7 10-18 0-9-4-14-49-62-119-91.5T374-10q-98 2-174 43T81 156 38 357q0 104 45.5 184.5t125 124.5T385 710q76 0 133.5-24T622 613q7-6 7-17 0-9-6-15l-49-49q-9-9-19-9-11 0-22 10-30 30-65.5 44.5T381 592q-70 0-117-34.5t-69.5-89T172 354q0-111 53-177.5T375 110q40 0 90.5 19z"/><glyph glyph-name="cacute" unicode="ć" horiz-adv-x="678" d="M326.5 769q-5.5 5-5.5 13v10l74 130q4 5 10 7.5t13 .5l68-28q13-6 13-16v-12l-81-103q-3-3-7.5-5t-7.5-2h-63q-8 0-13.5 5zm139-640q50.5 19 78.5 52 9 14 22 14 8 0 14-6l59-46q10-7 10-18 0-9-4-14-49-62-119-91.5T374-10q-98 2-174 43T81 156 38 357q0 104 45.5 184.5t125 124.5T385 710q76 0 133.5-24T622 613q7-6 7-17 0-9-6-15l-49-49q-9-9-19-9-11 0-22 10-30 30-65.5 44.5T381 592q-70 0-117-34.5t-69.5-89T172 354q0-111 53-177.5T375 110q40 0 90.5 19z"/><glyph glyph-name="Ccaron" unicode="Č" horiz-adv-x="678" d="m384 843 86 76h76q19 0 19-17v-7q0-2-2-6.5t-3-6.5L428 758h-88L210 883q-2 3-4 6.5t-2 6.5v6q0 17 19 17h74zm81.5-714q50.5 19 78.5 52 9 14 22 14 8 0 14-6l59-46q10-7 10-18 0-9-4-14-49-62-119-91.5T374-10q-98 2-174 43T81 156 38 357q0 104 45.5 184.5t125 124.5T385 710q76 0 133.5-24T622 613q7-6 7-17 0-9-6-15l-49-49q-9-9-19-9-11 0-22 10-30 30-65.5 44.5T381 592q-70 0-117-34.5t-69.5-89T172 354q0-111 53-177.5T375 110q40 0 90.5 19z"/><glyph glyph-name="ccaron" unicode="č" horiz-adv-x="678" d="m384 843 86 76h76q19 0 19-17v-7q0-2-2-6.5t-3-6.5L428 758h-88L210 883q-2 3-4 6.5t-2 6.5v6q0 17 19 17h74zm81.5-714q50.5 19 78.5 52 9 14 22 14 8 0 14-6l59-46q10-7 10-18 0-9-4-14-49-62-119-91.5T374-10q-98 2-174 43T81 156 38 357q0 104 45.5 184.5t125 124.5T385 710q76 0 133.5-24T622 613q7-6 7-17 0-9-6-15l-49-49q-9-9-19-9-11 0-22 10-30 30-65.5 44.5T381 592q-70 0-117-34.5t-69.5-89T172 354q0-111 53-177.5T375 110q40 0 90.5 19z"/><glyph glyph-name="Dcaron" unicode="Ď" horiz-adv-x="653" d="m292 835 86 76h76q8 0 13.5-5t5.5-12v-8q0-2-2-6l-3-6-132-125h-88L118 875q-2 1-4 5t-2 7v7q0 7 5.5 12t13.5 5h74zm292-656.5Q548 100 473.5 52T289 0H96Q84 0 75.5 6.5T67 23v654q0 10 8.5 16.5T96 700h191q97 0 172.5-44t118-123T620 351q0-94-36-172.5zM287 119q61 1 106.5 33.5t69.5 85T487 351q0 100-48.5 165T287 581h-88V119h88z"/><glyph glyph-name="dcaron" unicode="ď" horiz-adv-x="653" d="m292 835 86 76h76q8 0 13.5-5t5.5-12v-8q0-2-2-6l-3-6-132-125h-88L118 875q-2 1-4 5t-2 7v7q0 7 5.5 12t13.5 5h74zm292-656.5Q548 100 473.5 52T289 0H96Q84 0 75.5 6.5T67 23v654q0 10 8.5 16.5T96 700h191q97 0 172.5-44t118-123T620 351q0-94-36-172.5zM287 119q61 1 106.5 33.5t69.5 85T487 351q0 100-48.5 165T287 581h-88V119h88z"/><glyph glyph-name="Dcroat" unicode="Đ" horiz-adv-x="651" d="M584 178.5Q548 100 473.5 52T289 0H96Q84 0 75.5 6.5T67 23v346H18q-8 0-13.5 4.5T-1 386v64q0 7 5.5 12t13.5 5h49v210q0 10 8.5 16.5T96 700h191q97 0 172.5-44t118-123T620 351q0-94-36-172.5zM327 467q8 0 13.5-5t5.5-12v-64q0-17-19-17H199V119h88q61 1 106.5 33.5t69.5 85T487 351q0 100-48.5 165T287 581h-88V467h128z"/><glyph glyph-name="dcroat" unicode="đ" horiz-adv-x="651" d="M584 178.5Q548 100 473.5 52T289 0H96Q84 0 75.5 6.5T67 23v346H18q-8 0-13.5 4.5T-1 386v64q0 7 5.5 12t13.5 5h49v210q0 10 8.5 16.5T96 700h191q97 0 172.5-44t118-123T620 351q0-94-36-172.5zM327 467q8 0 13.5-5t5.5-12v-64q0-17-19-17H199V119h88q61 1 106.5 33.5t69.5 85T487 351q0 100-48.5 165T287 581h-88V467h128z"/><glyph glyph-name="Eogonek" unicode="Ę" horiz-adv-x="594" d="M544 112q8-6 8-17V23q0-7-5-13.5T534 1q-42-16-64.5-41T447-87q0-18 20-18 17 0 45 15 4 2 11 2 13 0 17-13l15-50q1-2 1-5 0-10-9-15-47-26-88-26-51 0-82.5 25T345-105q0 25 17 55t48 50H96Q83 0 75 6.5T67 23v654q0 10 8 16.5t21 6.5h419q12 0 20.5-6.5T544 677v-74q0-11-8-17t-21-6H199V441h297q12 0 20.5-6.5T525 418v-68q0-11-8.5-17.5T496 326H199V118h324q13 0 21-6z"/><glyph glyph-name="eogonek" unicode="ę" horiz-adv-x="594" d="M544 112q8-6 8-17V23q0-7-5-13.5T534 1q-42-16-64.5-41T447-87q0-18 20-18 17 0 45 15 4 2 11 2 13 0 17-13l15-50q1-2 1-5 0-10-9-15-47-26-88-26-51 0-82.5 25T345-105q0 25 17 55t48 50H96Q83 0 75 6.5T67 23v654q0 10 8 16.5t21 6.5h419q12 0 20.5-6.5T544 677v-74q0-11-8-17t-21-6H199V441h297q12 0 20.5-6.5T525 418v-68q0-11-8.5-17.5T496 326H199V118h324q13 0 21-6z"/><glyph glyph-name="Ecaron" unicode="Ě" horiz-adv-x="594" d="m310 833 17 15 69 57h76q8 0 13.5-5t5.5-12v-7q0-5-7-12L352 750h-84L136 870q-6 6-6 12v6q0 7 5.5 12t13.5 5h75zm234-721q8-6 8-17V23q0-10-8-16.5T523 0H96Q83 0 75 6.5T67 23v654q0 10 8 16.5t21 6.5h419q12 0 20.5-6.5T544 677v-74q0-11-8-17t-21-6H199V441h297q12 0 20.5-6.5T525 418v-68q0-11-8.5-17.5T496 326H199V118h324q13 0 21-6z"/><glyph glyph-name="ecaron" unicode="ě" horiz-adv-x="594" d="m310 833 17 15 69 57h76q8 0 13.5-5t5.5-12v-7q0-5-7-12L352 750h-84L136 870q-6 6-6 12v6q0 7 5.5 12t13.5 5h75zm234-721q8-6 8-17V23q0-10-8-16.5T523 0H96Q83 0 75 6.5T67 23v654q0 10 8 16.5t21 6.5h419q12 0 20.5-6.5T544 677v-74q0-11-8-17t-21-6H199V441h297q12 0 20.5-6.5T525 418v-68q0-11-8.5-17.5T496 326H199V118h324q13 0 21-6z"/><glyph glyph-name="Gbreve" unicode="Ğ" horiz-adv-x="662" d="M304.5 916q5.5-4 7.5-10 5-26 24-40t43-14q25 0 44 14t24 40q3 14 19 14h62q9 0 14.5-5.5T547 901q-6-67-54.5-104.5T380 759t-112.5 37T211 901v2q0 7 5.5 12t13.5 5h63q6 0 11.5-4zM349 273q-11 0-19 6t-8 15v71q0 11 7.5 17t19.5 6h229q13 0 21-6t8-17V39q0-6-6-13t-14-9Q540 1 496-5t-99-6q-179 0-269.5 95T37 351q0 105 46 186.5T214.5 665 415 711q54 0 96.5-11t84.5-30q8-4 13-10t5-13q0-5-3-10l-25-67q-3-8-10-12.5t-15-4.5q-7 0-13 3-36 15-75.5 24.5T404 590q-58 0-110-30t-84-84.5T178 351q0-123 61.5-183.5T397 107q58 0 85 7v159H349z"/><glyph glyph-name="gbreve" unicode="ğ" horiz-adv-x="662" d="M304.5 916q5.5-4 7.5-10 5-26 24-40t43-14q25 0 44 14t24 40q3 14 19 14h62q9 0 14.5-5.5T547 901q-6-67-54.5-104.5T380 759t-112.5 37T211 901v2q0 7 5.5 12t13.5 5h63q6 0 11.5-4zM349 273q-11 0-19 6t-8 15v71q0 11 7.5 17t19.5 6h229q13 0 21-6t8-17V39q0-6-6-13t-14-9Q540 1 496-5t-99-6q-179 0-269.5 95T37 351q0 105 46 186.5T214.5 665 415 711q54 0 96.5-11t84.5-30q8-4 13-10t5-13q0-5-3-10l-25-67q-3-8-10-12.5t-15-4.5q-7 0-13 3-36 15-75.5 24.5T404 590q-58 0-110-30t-84-84.5T178 351q0-123 61.5-183.5T397 107q58 0 85 7v159H349z"/><glyph glyph-name="Idotaccent" unicode="İ" horiz-adv-x="260" d="M76.5 766Q53 785 53 813q0 32 23 50t57 18q35 0 57.5-18t22.5-50q0-28-23-47t-57-19q-33 0-56.5 19zM74 694.5q8 6.5 21 6.5h75q12 0 20.5-6.5T199 678V23q0-10-8.5-16.5T170 0H95Q82 0 74 6.5T66 23v655q0 10 8 16.5z"/><glyph glyph-name="dotlessi" unicode="ı" horiz-adv-x="266" d="M74 694.5q8 6.5 21 6.5h75q12 0 20.5-6.5T199 678V23q0-10-8.5-16.5T170 0H95Q82 0 74 6.5T66 23v655q0 10 8 16.5z"/><glyph glyph-name="Lacute" unicode="Ĺ" horiz-adv-x="531" d="M94.5 755q-5.5 5-5.5 12v11l75 130q3 5 9.5 7t12.5 0l69-27q5-2 8.5-7t3.5-9v-13l-81-102q-3-3-7-5t-8-2h-63q-8 0-13.5 5zM498 6.5Q490 0 477 0H94Q83 0 75 6.5T67 23v654q0 10 6 16.5t17 6.5h85q24 0 24-23V117h278q13 0 21-6t8-17V23q0-10-8-16.5z"/><glyph glyph-name="lacute" unicode="ĺ" horiz-adv-x="531" d="M94.5 755q-5.5 5-5.5 12v11l75 130q3 5 9.5 7t12.5 0l69-27q5-2 8.5-7t3.5-9v-13l-81-102q-3-3-7-5t-8-2h-63q-8 0-13.5 5zM498 6.5Q490 0 477 0H94Q83 0 75 6.5T67 23v654q0 10 6 16.5t17 6.5h85q24 0 24-23V117h278q13 0 21-6t8-17V23q0-10-8-16.5z"/><glyph glyph-name="Lcaron" unicode="Ľ" horiz-adv-x="530" d="M439 647q1-5-1-10l1 1q0-1-7-26l-28-90q-2-5-7.5-8.5T386 510h-47q-10 0-15.5 7t-2.5 15l17 60q-30 17-30 53 0 27 18.5 43.5T373 705q23 0 40-13.5t25-37.5q0-2 1-7zM498 6.5Q490 0 477 0H94Q83 0 75 6.5T67 23v654q0 10 6 16.5t17 6.5h85q24 0 24-23V117h278q13 0 21-6t8-17V23q0-10-8-16.5z"/><glyph glyph-name="lcaron" unicode="ľ" horiz-adv-x="530" d="M439 647q1-5-1-10l1 1q0-1-7-26l-28-90q-2-5-7.5-8.5T386 510h-47q-10 0-15.5 7t-2.5 15l17 60q-30 17-30 53 0 27 18.5 43.5T373 705q23 0 40-13.5t25-37.5q0-2 1-7zM498 6.5Q490 0 477 0H94Q83 0 75 6.5T67 23v654q0 10 6 16.5t17 6.5h85q24 0 24-23V117h278q13 0 21-6t8-17V23q0-10-8-16.5z"/><glyph glyph-name="Lslash" unicode="Ł" horiz-adv-x="531" d="M498 6.5Q490 0 477 0H94Q83 0 75 6.5T67 23v210l-27-15q-4-2-8-2-11 0-16 8l-26 43q-3 5-3 9 0 10 11 15l69 39v347q0 10 6 16.5t17 6.5h85q24 0 24-23V405l56 32q4 2 8 2 11 0 18-9l27-43q3-4 3-10 0-10-10-14l-102-57V117h278q13 0 21-6t8-17V23q0-10-8-16.5z"/><glyph glyph-name="lslash" unicode="ł" horiz-adv-x="531" d="M498 6.5Q490 0 477 0H94Q83 0 75 6.5T67 23v210l-27-15q-4-2-8-2-11 0-16 8l-26 43q-3 5-3 9 0 10 11 15l69 39v347q0 10 6 16.5t17 6.5h85q24 0 24-23V405l56 32q4 2 8 2 11 0 18-9l27-43q3-4 3-10 0-10-10-14l-102-57V117h278q13 0 21-6t8-17V23q0-10-8-16.5z"/><glyph glyph-name="Nacute" unicode="Ń" horiz-adv-x="705" d="M279 771v10l74 131q4 5 10 7t13 0l68-27q5-2 9-7t4-9v-13l-81-102q-3-3-7.5-5t-7.5-2h-63q-19 0-19 17zM189.5 6.5Q181 0 169 0H95Q82 0 74 6.5T66 23v654q0 10 8 16.5t21 6.5h86l324-270v247q0 10 8 16.5t21 6.5h75q12 0 20.5-6.5T638 677V23q0-10-8.5-16.5T609 0h-75q-13 0-21 6.5T505 23v250L198 524V23q0-10-8.5-16.5z"/><glyph glyph-name="nacute" unicode="ń" horiz-adv-x="705" d="M279 771v10l74 131q4 5 10 7t13 0l68-27q5-2 9-7t4-9v-13l-81-102q-3-3-7.5-5t-7.5-2h-63q-19 0-19 17zM189.5 6.5Q181 0 169 0H95Q82 0 74 6.5T66 23v654q0 10 8 16.5t21 6.5h86l324-270v247q0 10 8 16.5t21 6.5h75q12 0 20.5-6.5T638 677V23q0-10-8.5-16.5T609 0h-75q-13 0-21 6.5T505 23v250L198 524V23q0-10-8.5-16.5z"/><glyph glyph-name="Ncaron" unicode="Ň" horiz-adv-x="705" d="m346 830 86 76h77q8 0 13.5-5t5.5-12v-8q0-6-6-12L391 744h-89L172 870q-6 6-6 12v7q0 7 5.5 12t13.5 5h74zM189.5 6.5Q181 0 169 0H95Q82 0 74 6.5T66 23v654q0 10 8 16.5t21 6.5h86l324-270v247q0 10 8 16.5t21 6.5h75q12 0 20.5-6.5T638 677V23q0-10-8.5-16.5T609 0h-75q-13 0-21 6.5T505 23v250L198 524V23q0-10-8.5-16.5z"/><glyph glyph-name="ncaron" unicode="ň" horiz-adv-x="705" d="m346 830 86 76h77q8 0 13.5-5t5.5-12v-8q0-6-6-12L391 744h-89L172 870q-6 6-6 12v7q0 7 5.5 12t13.5 5h74zM189.5 6.5Q181 0 169 0H95Q82 0 74 6.5T66 23v654q0 10 8 16.5t21 6.5h86l324-270v247q0 10 8 16.5t21 6.5h75q12 0 20.5-6.5T638 677V23q0-10-8.5-16.5T609 0h-75q-13 0-21 6.5T505 23v250L198 524V23q0-10-8.5-16.5z"/><glyph glyph-name="Ohungarumlaut" unicode="Ő" horiz-adv-x="803" d="M257.5 766.5Q252 771 252 779v10l71 115q9 12 23 7l65-24q12-5 12-16v-12l-78-92q-5-5-14-5h-60q-8 0-13.5 4.5zm171 0Q423 771 423 779v10l71 115q4 5 11 7t12 0l65-24q12-3 12-16v-12l-78-92q-5-5-14-5h-60q-8 0-13.5 4.5zM597 659q80-51 120-133.5T757 350t-40-175.5T597 41 405-10q-115 0-196.5 51t-123 133.5T44 350t41.5 175.5 123 133.5T405 710q112 0 192-51zm-69.5-515q50.5 34 76.5 89t26 117-26 117-76.5 89T405 590q-75 0-128-34t-80-89-27-117 27-117 80-89 128-34q72 0 122.5 34z"/><glyph glyph-name="ohungarumlaut" unicode="ő" horiz-adv-x="803" d="M257.5 766.5Q252 771 252 779v10l71 115q9 12 23 7l65-24q12-5 12-16v-12l-78-92q-5-5-14-5h-60q-8 0-13.5 4.5zm171 0Q423 771 423 779v10l71 115q4 5 11 7t12 0l65-24q12-3 12-16v-12l-78-92q-5-5-14-5h-60q-8 0-13.5 4.5zM597 659q80-51 120-133.5T757 350t-40-175.5T597 41 405-10q-115 0-196.5 51t-123 133.5T44 350t41.5 175.5 123 133.5T405 710q112 0 192-51zm-69.5-515q50.5 34 76.5 89t26 117-26 117-76.5 89T405 590q-75 0-128-34t-80-89-27-117 27-117 80-89 128-34q72 0 122.5 34z"/><glyph glyph-name="OE" unicode="Œ" horiz-adv-x="867" d="M813 110.5q8-6.5 8-16.5V24q0-11-8-17.5T792 0H462q-39-10-85-10-102 0-178.5 46.5T80 164.5 38 350q0 102 42 184t119 129 178 47q49 0 85-10h321q12 0 21-6.5t9-16.5v-68q0-11-8.5-17.5T783 585H545V451h222q11 0 18.5-6t7.5-16v-68q0-10-7.5-16.5T767 338H545V117h247q13 0 21-6.5zm-586 418Q173 460 173 350t54-178 150-68q27 0 42 3v486q-17 4-42 4-96 0-150-68.5z"/><glyph glyph-name="oe" unicode="œ" horiz-adv-x="867" d="M813 110.5q8-6.5 8-16.5V24q0-11-8-17.5T792 0H462q-39-10-85-10-102 0-178.5 46.5T80 164.5 38 350q0 102 42 184t119 129 178 47q49 0 85-10h321q12 0 21-6.5t9-16.5v-68q0-11-8.5-17.5T783 585H545V451h222q11 0 18.5-6t7.5-16v-68q0-10-7.5-16.5T767 338H545V117h247q13 0 21-6.5zm-586 418Q173 460 173 350t54-178 150-68q27 0 42 3v486q-17 4-42 4-96 0-150-68.5z"/><glyph glyph-name="Racute" unicode="Ŕ" horiz-adv-x="583" d="M199 770v10l74 131q3 5 9.5 7t13.5 0l68-27q5-2 8.5-7t3.5-9v-13l-80-102q-3-3-7.5-5t-8.5-2h-62q-19 0-19 17zM189.5 6.5Q181 0 169 0H94Q81 0 73 6.5T65 23v654q0 10 8 16.5t21 6.5h173q124 0 198-55.5T539 475q0-76-33.5-127.5T407 271L544 34q3-6 3-12 0-9-7.5-15.5T520 0h-89q-16 0-27 17L275 247h-77V23q0-10-8.5-16.5zm187 385.5q34.5 30 34.5 82 0 42-30 75.5T266 583h-68V362h70q74 0 108.5 30z"/><glyph glyph-name="racute" unicode="ŕ" horiz-adv-x="583" d="M199 770v10l74 131q3 5 9.5 7t13.5 0l68-27q5-2 8.5-7t3.5-9v-13l-80-102q-3-3-7.5-5t-8.5-2h-62q-19 0-19 17zM189.5 6.5Q181 0 169 0H94Q81 0 73 6.5T65 23v654q0 10 8 16.5t21 6.5h173q124 0 198-55.5T539 475q0-76-33.5-127.5T407 271L544 34q3-6 3-12 0-9-7.5-15.5T520 0h-89q-16 0-27 17L275 247h-77V23q0-10-8.5-16.5zm187 385.5q34.5 30 34.5 82 0 42-30 75.5T266 583h-68V362h70q74 0 108.5 30z"/><glyph glyph-name="Rcaron" unicode="Ř" horiz-adv-x="587" d="m270 836 51 43 35 29h76q8 0 13.5-5t5.5-12v-8q0-6-6-12L312 751h-85L96 872q-7 7-7 12v7q0 7 5.5 12t13.5 5h75zM189.5 6.5Q181 0 169 0H94Q81 0 73 6.5T65 23v654q0 10 8 16.5t21 6.5h173q124 0 198-55.5T539 475q0-76-33.5-127.5T407 271L544 34q3-6 3-12 0-9-7.5-15.5T520 0h-89q-16 0-27 17L275 247h-77V23q0-10-8.5-16.5zm187 385.5q34.5 30 34.5 82 0 42-30 75.5T266 583h-68V362h70q74 0 108.5 30z"/><glyph glyph-name="rcaron" unicode="ř" horiz-adv-x="587" d="m270 836 51 43 35 29h76q8 0 13.5-5t5.5-12v-8q0-6-6-12L312 751h-85L96 872q-7 7-7 12v7q0 7 5.5 12t13.5 5h75zM189.5 6.5Q181 0 169 0H94Q81 0 73 6.5T65 23v654q0 10 8 16.5t21 6.5h173q124 0 198-55.5T539 475q0-76-33.5-127.5T407 271L544 34q3-6 3-12 0-9-7.5-15.5T520 0h-89q-16 0-27 17L275 247h-77V23q0-10-8.5-16.5zm187 385.5q34.5 30 34.5 82 0 42-30 75.5T266 583h-68V362h70q74 0 108.5 30z"/><glyph glyph-name="Sacute" unicode="Ś" horiz-adv-x="511" d="M214 770v9l72 122q4 5 10 7.5t13 .5l67-26q13-6 13-16v-13l-81-96q-2-2-6.5-3.5T293 753h-60q-19 0-19 17zM415 45q-66-55-189-55-109 0-172 47-11 8-11 20 0 2 2 10l17 61q3 8 10.5 12.5T89 145q8 0 12-2 66-36 133-36 50 0 82.5 24t32.5 65q-1 35-31 61.5T229 309q-85 33-135.5 85T43 516q0 56 29 100t82.5 69T277 710q51 0 91.5-12t61.5-26q10-7 14-13.5t1-16.5l-28-66q-10-18-24-18-7 0-15 5-59 35-107 30-40-2-68.5-24T176 515q1-28 22.5-50.5T267 422q62-26 107-54t76-72 31-105q0-91-66-146z"/><glyph glyph-name="sacute" unicode="ś" horiz-adv-x="511" d="M214 770v9l72 122q4 5 10 7.5t13 .5l67-26q13-6 13-16v-13l-81-96q-2-2-6.5-3.5T293 753h-60q-19 0-19 17zM415 45q-66-55-189-55-109 0-172 47-11 8-11 20 0 2 2 10l17 61q3 8 10.5 12.5T89 145q8 0 12-2 66-36 133-36 50 0 82.5 24t32.5 65q-1 35-31 61.5T229 309q-85 33-135.5 85T43 516q0 56 29 100t82.5 69T277 710q51 0 91.5-12t61.5-26q10-7 14-13.5t1-16.5l-28-66q-10-18-24-18-7 0-15 5-59 35-107 30-40-2-68.5-24T176 515q1-28 22.5-50.5T267 422q62-26 107-54t76-72 31-105q0-91-66-146z"/><glyph glyph-name="Scedilla" unicode="Ş" horiz-adv-x="511" d="M437 67Q393 15 308-2l-8-24q-10-28-10-30 36-8 58.5-33.5T371-148q0-13-5-31-12-36-44.5-52T246-247q-31 0-60.5 9.5T135-211q-5 4-7 10.5t1 11.5l20 38q6 10 16 10 7 0 14-5 11-10 28-16t31-6q17 0 26.5 8.5T274-139q0 15-13.5 27T223-100l-11-1h-5q-9 0-13.5 6.5T191-80l28 70q-50 1-93 12.5T54 37q-11 8-11 20 0 2 2 10l17 61q3 8 10.5 12.5T89 145q8 0 12-2 66-36 133-36 50 0 82.5 24t32.5 65q-1 35-31 61.5T229 309q-85 33-135.5 85T43 516q0 56 29 100t82.5 69T277 710q51 0 91.5-12t61.5-26q10-7 14-13.5t1-16.5l-28-66q-10-18-24-18-7 0-15 5-59 35-107 30-40-2-68.5-24T176 515q1-28 22.5-50.5T267 422q61-25 106.5-53t76.5-71.5T481 194q0-75-44-127z"/><glyph glyph-name="scedilla" unicode="ş" horiz-adv-x="511" d="M437 67Q393 15 308-2l-8-24q-10-28-10-30 36-8 58.5-33.5T371-148q0-13-5-31-12-36-44.5-52T246-247q-31 0-60.5 9.5T135-211q-5 4-7 10.5t1 11.5l20 38q6 10 16 10 7 0 14-5 11-10 28-16t31-6q17 0 26.5 8.5T274-139q0 15-13.5 27T223-100l-11-1h-5q-9 0-13.5 6.5T191-80l28 70q-50 1-93 12.5T54 37q-11 8-11 20 0 2 2 10l17 61q3 8 10.5 12.5T89 145q8 0 12-2 66-36 133-36 50 0 82.5 24t32.5 65q-1 35-31 61.5T229 309q-85 33-135.5 85T43 516q0 56 29 100t82.5 69T277 710q51 0 91.5-12t61.5-26q10-7 14-13.5t1-16.5l-28-66q-10-18-24-18-7 0-15 5-59 35-107 30-40-2-68.5-24T176 515q1-28 22.5-50.5T267 422q61-25 106.5-53t76.5-71.5T481 194q0-75-44-127z"/><glyph glyph-name="Scaron" unicode="Š" horiz-adv-x="511" d="m263 829 76 65h67q8 0 13.5-5t5.5-12v-7q0-6-6-12L303 750h-79L110 859q-5 5-5 12v6q0 7 5.5 12t13.5 5h66zM415 45q-66-55-189-55-109 0-172 47-11 8-11 20 0 2 2 10l17 61q3 8 10.5 12.5T89 145q8 0 12-2 66-36 133-36 50 0 82.5 24t32.5 65q-1 35-31 61.5T229 309q-85 33-135.5 85T43 516q0 56 29 100t82.5 69T277 710q51 0 91.5-12t61.5-26q10-7 14-13.5t1-16.5l-28-66q-10-18-24-18-7 0-15 5-59 35-107 30-40-2-68.5-24T176 515q1-28 22.5-50.5T267 422q62-26 107-54t76-72 31-105q0-91-66-146z"/><glyph glyph-name="scaron" unicode="š" horiz-adv-x="511" d="m196 901 66-63 71 67h66q8 0 13.5-4.5T418 888v-14L306 760q-3-2-6.5-3.5T293 755h-61q-3 0-6.5 1.5T219 760L107 875v13q0 8 5.5 12.5T126 905h57q1 0 13-4zM415 45q-66-55-189-55-109 0-172 47-11 8-11 20 0 2 2 10l17 61q3 8 10.5 12.5T89 145q8 0 12-2 66-36 133-36 50 0 82.5 24t32.5 65q-1 35-31 61.5T229 309q-85 33-135.5 85T43 516q0 56 29 100t82.5 69T277 710q51 0 91.5-12t61.5-26q10-7 14-13.5t1-16.5l-28-66q-10-18-24-18-7 0-15 5-59 35-107 30-40-2-68.5-24T176 515q1-28 22.5-50.5T267 422q62-26 107-54t76-72 31-105q0-91-66-146z"/><glyph glyph-name="uni0162" unicode="Ţ" horiz-adv-x="569" d="M13.5 593.5Q5 600 5 610v67q0 10 8.5 16.5T34 700h499q12 0 19.5-6.5T560 677v-67q0-10-7.5-16.5T533 587H347V23q0-10-8-16.5T320 0h-74q-12 0-20.5 6.5T217 23v564H34q-12 0-20.5 6.5zM335-68q17-18 17-45 0-16-6-31l-28-90q-2-5-7-8t-11-3h-47q-10 0-15.5 6.5T235-223l17 60q-30 17-30 52 0 27 18.5 44T287-50q31 0 48-18z"/><glyph glyph-name="uni0163" unicode="ţ" horiz-adv-x="569" d="M13.5 593.5Q5 600 5 610v67q0 10 8.5 16.5T34 700h499q12 0 19.5-6.5T560 677v-67q0-10-7.5-16.5T533 587H347V23q0-10-8-16.5T320 0h-74q-12 0-20.5 6.5T217 23v564H34q-12 0-20.5 6.5zM335-68q17-18 17-45 0-16-6-31l-28-90q-2-5-7-8t-11-3h-47q-10 0-15.5 6.5T235-223l17 60q-30 17-30 52 0 27 18.5 44T287-50q31 0 48-18z"/><glyph glyph-name="Tcaron" unicode="Ť" horiz-adv-x="569" d="m279 835 87 76h76q8 0 13.5-5t5.5-12v-8q0-6-6-12L324 749h-89L105 875q-6 6-6 12v7q0 7 5.5 12t13.5 5h75zM13.5 593.5Q5 600 5 610v67q0 10 8.5 16.5T34 700h499q12 0 19.5-6.5T560 677v-67q0-10-7.5-16.5T533 587H347V23q0-10-8-16.5T320 0h-74q-12 0-20.5 6.5T217 23v564H34q-12 0-20.5 6.5z"/><glyph glyph-name="tcaron" unicode="ť" horiz-adv-x="569" d="m279 835 87 76h76q8 0 13.5-5t5.5-12v-8q0-6-6-12L324 749h-89L105 875q-6 6-6 12v7q0 7 5.5 12t13.5 5h75zM13.5 593.5Q5 600 5 610v67q0 10 8.5 16.5T34 700h499q12 0 19.5-6.5T560 677v-67q0-10-7.5-16.5T533 587H347V23q0-10-8-16.5T320 0h-74q-12 0-20.5 6.5T217 23v564H34q-12 0-20.5 6.5z"/><glyph glyph-name="Uring" unicode="Ů" horiz-adv-x="661" d="M412.5 757Q376 729 325 729q-50 0-86.5 28T202 837q0 50 36.5 79t86.5 29 87-29 37-79q0-52-36.5-80zM298 812q11-9 27-9t27.5 9 11.5 25q0 15-12 23.5t-27 8.5-26.5-8.5T287 837q0-16 11-25zm132-653.5Q462 205 462 294v383q0 10 7.5 16.5T490 700h79q11 0 19-6.5t8-16.5V297q0-156-72.5-231.5T325-10q-74 0-133 32T99 122.5 65 294v383q0 10 8.5 16.5T94 700h77q13 0 21-6.5t8-16.5V294q0-79 31-130.5t94-51.5q73 0 105 46.5z"/><glyph glyph-name="uring" unicode="ů" horiz-adv-x="661" d="M412.5 757Q376 729 325 729q-50 0-86.5 28T202 837q0 50 36.5 79t86.5 29 87-29 37-79q0-52-36.5-80zM298 812q11-9 27-9t27.5 9 11.5 25q0 15-12 23.5t-27 8.5-26.5-8.5T287 837q0-16 11-25zm132-653.5Q462 205 462 294v383q0 10 7.5 16.5T490 700h79q11 0 19-6.5t8-16.5V297q0-156-72.5-231.5T325-10q-74 0-133 32T99 122.5 65 294v383q0 10 8.5 16.5T94 700h77q13 0 21-6.5t8-16.5V294q0-79 31-130.5t94-51.5q73 0 105 46.5z"/><glyph glyph-name="Uhungarumlaut" unicode="Ű" horiz-adv-x="663" d="M185.5 759.5Q180 764 180 772v11l75 118q4 5 11.5 7t12.5 0l69-25q13-3 13-16v-12l-83-95q-5-5-14-5h-64q-9 0-14.5 4.5zm181 0Q361 764 361 772v11l76 118q3 5 10.5 7t12.5 0l69-25q13-3 13-16v-12l-83-95q-5-5-14-5h-64q-9 0-14.5 4.5zm63.5-601Q462 205 462 294v383q0 10 7.5 16.5T490 700h79q11 0 19-6.5t8-16.5V297q0-156-72.5-231.5T325-10q-74 0-133 32T99 122.5 65 294v383q0 10 8.5 16.5T94 700h77q13 0 21-6.5t8-16.5V294q0-79 31-130.5t94-51.5q73 0 105 46.5z"/><glyph glyph-name="uhungarumlaut" unicode="ű" horiz-adv-x="663" d="M185.5 759.5Q180 764 180 772v11l75 118q4 5 11.5 7t12.5 0l69-25q13-3 13-16v-12l-83-95q-5-5-14-5h-64q-9 0-14.5 4.5zm181 0Q361 764 361 772v11l76 118q3 5 10.5 7t12.5 0l69-25q13-3 13-16v-12l-83-95q-5-5-14-5h-64q-9 0-14.5 4.5zm63.5-601Q462 205 462 294v383q0 10 7.5 16.5T490 700h79q11 0 19-6.5t8-16.5V297q0-156-72.5-231.5T325-10q-74 0-133 32T99 122.5 65 294v383q0 10 8.5 16.5T94 700h77q13 0 21-6.5t8-16.5V294q0-79 31-130.5t94-51.5q73 0 105 46.5z"/><glyph glyph-name="Ydieresis" unicode="Ÿ" horiz-adv-x="609" d="M161.5 766.5Q143 783 143 810t18.5 44 46.5 17 47.5-17 19.5-44-19.5-43.5T208 750t-46.5 16.5zm196.5 0Q339 783 339 810t19 44 47 17 47-17 19-44q0-26-19-43t-47-17-47 16.5zM496 700h80q12 0 19.5-7.5T603 674q0-5-3-11L362 314V23q0-10-8.5-16.5T334 0h-75q-12 0-20.5 6.5T230 23v292L9 663q-3 6-3 11 0 11 7.5 18.5T33 700h81q16 0 27-15l159-247 167 245q10 17 29 17z"/><glyph glyph-name="Zacute" unicode="Ź" horiz-adv-x="575" d="M242 774v10l74 131q4 5 10 7t13 0l68-27q5-2 8.5-7t3.5-9v-13l-80-102q-3-3-7.5-5t-8.5-2h-62q-19 0-19 17zM74 584q-12 0-20.5 6.5T45 608v69q0 10 8.5 16.5T74 700h450q12 0 20.5-6.5T553 677v-47q0-8-7-20L190 116h334q12 0 20.5-6.5T553 92V23q0-10-8.5-16.5T524 0H47Q34 0 26 6.5T18 23v37q0 10 7 22l360 502H74z"/><glyph glyph-name="zacute" unicode="ź" horiz-adv-x="575" d="M242 774v10l74 131q4 5 10 7t13 0l68-27q5-2 8.5-7t3.5-9v-13l-80-102q-3-3-7.5-5t-8.5-2h-62q-19 0-19 17zM74 584q-12 0-20.5 6.5T45 608v69q0 10 8.5 16.5T74 700h450q12 0 20.5-6.5T553 677v-47q0-8-7-20L190 116h334q12 0 20.5-6.5T553 92V23q0-10-8.5-16.5T524 0H47Q34 0 26 6.5T18 23v37q0 10 7 22l360 502H74z"/><glyph glyph-name="Zdotaccent" unicode="Ż" horiz-adv-x="568" d="M252 774.5Q232 793 232 821q0 31 19.5 48t49.5 17q31 0 51.5-17t20.5-48q0-28-21-46.5T301 756q-29 0-49 18.5zM74 584q-12 0-20.5 6.5T45 608v69q0 10 8.5 16.5T74 700h450q12 0 20.5-6.5T553 677v-47q0-8-7-20L190 116h334q12 0 20.5-6.5T553 92V23q0-10-8.5-16.5T524 0H47Q34 0 26 6.5T18 23v37q0 10 7 22l360 502H74z"/><glyph glyph-name="zdotaccent" unicode="ż" horiz-adv-x="568" d="M252 774.5Q232 793 232 821q0 31 19.5 48t49.5 17q31 0 51.5-17t20.5-48q0-28-21-46.5T301 756q-29 0-49 18.5zM74 584q-12 0-20.5 6.5T45 608v69q0 10 8.5 16.5T74 700h450q12 0 20.5-6.5T553 677v-47q0-8-7-20L190 116h334q12 0 20.5-6.5T553 92V23q0-10-8.5-16.5T524 0H47Q34 0 26 6.5T18 23v37q0 10 7 22l360 502H74z"/><glyph glyph-name="Zcaron" unicode="Ž" horiz-adv-x="568" d="m301 837 87 76h76q8 0 13.5-5t5.5-12v-8q0-3-2-7t-4-5L346 751h-89L127 877q-2 1-4 5t-2 7v7q0 7 5.5 12t13.5 5h75zM74 584q-12 0-20.5 6.5T45 608v69q0 10 8.5 16.5T74 700h450q12 0 20.5-6.5T553 677v-47q0-8-7-20L190 116h334q12 0 20.5-6.5T553 92V23q0-10-8.5-16.5T524 0H47Q34 0 26 6.5T18 23v37q0 10 7 22l360 502H74z"/><glyph glyph-name="zcaron" unicode="ž" horiz-adv-x="568" d="m297 835 85 75h75q8 0 13-5t5-12v-8q0-7-5-12L341 751h-87L127 874q-6 6-6 12v7q0 7 5.5 12t13.5 5h72zM74 584q-12 0-20.5 6.5T45 608v69q0 10 8.5 16.5T74 700h450q12 0 20.5-6.5T553 677v-47q0-8-7-20L190 116h334q12 0 20.5-6.5T553 92V23q0-10-8.5-16.5T524 0H47Q34 0 26 6.5T18 23v37q0 10 7 22l360 502H74z"/><glyph glyph-name="circumflex" unicode="ˆ" horiz-adv-x="400" d="m201 615-87-76H38q-8 0-13.5 5T19 556v8q0 6 6 12l131 125h89l130-126q2-1 4-5t2-7v-7q0-7-5.5-12t-13.5-5h-75z"/><glyph glyph-name="caron" unicode="ˇ" horiz-adv-x="401" d="m199 625 87 76h76q8 0 13.5-5t5.5-12v-8q0-6-6-12L244 539h-89L25 665q-6 6-6 12v7q0 7 5.5 12t13.5 5h74z"/><glyph glyph-name="breve" unicode="˘" horiz-adv-x="370" d="M108.5 698q5.5-4 7.5-10 5-27 23.5-41t43.5-14 44 14.5 24 40.5q2 6 7.5 10t11.5 4h63q8 0 14-5.5t5-13.5q-8-68-56-105.5T184 540q-63 0-112 37.5T15 683v2q0 7 5.5 12t13.5 5h63q6 0 11.5-4z"/><glyph glyph-name="ogonek" unicode="˛" horiz-adv-x="234" d="M148 33q5-5 5-11 0-9-9-14-22-14-34-34.5T98-68q0-16 8-26t23-10q22 0 47 16 6 2 9 2 6 0 11.5-3.5T204-99l15-46q1-1 1-4 0-5-3-9.5t-7-6.5q-41-24-86-24-52 0-84 32.5T8-77q0 31 17.5 62.5T80 45l54-6q9-1 14-6z"/><glyph glyph-name="tilde" unicode="˜" horiz-adv-x="379" d="M15 611.5q-3 6.5 1 13.5 19 39 48 59.5t65 20.5q38 0 79-24 21-15 37-15 18 0 33 27 3 6 9.5 8t12.5 0l46-23q13-6 9-22-17-39-46-60.5T242 574q-34 0-72 21-25 17-43 17-17 0-34-27-6-9-17-9-3 0-9 2l-42 24q-7 3-10 9.5z"/><glyph glyph-name="Euro" unicode="€" horiz-adv-x="514" d="M-7.5 324q5.5 5 13.5 5h30v41H6q-8 0-13.5 5t-5.5 13v56q0 7 5.5 12T6 461h37q37 251 262 251 98 0 166-61 7-7 7-14 0-5-4-9l-42-56q-6-7-15-7-8 0-14 6-32 35-98 35t-100.5-38T157 461h178q11 0 16.5-7t1.5-16l-20-56q-2-5-7.5-8.5T315 370H150v-41h149q10 0 15.5-7t2.5-15l-18-56q-4-13-18-13H158q13-69 47-106t100-37q39 0 66 10.5t48 33.5q6 6 15 6t13-6l43-52q5-4 5-11t-5-12q-69-75-185-75-118 0-181.5 67.5T43 238H6q-8 0-13.5 5t-5.5 12v56q0 8 5.5 13z"/></font>
</defs>
</svg>
