<?xml version="1.0" encoding="UTF-8" standalone="no"?>
<!DOCTYPE svg PUBLIC "-//W3C//DTD SVG 1.1//EN" "http://www.w3.org/Graphics/SVG/1.1/DTD/svg11.dtd">
<svg width="100%" height="100%" viewBox="0 0 283 283" version="1.1" xmlns="http://www.w3.org/2000/svg" xmlns:xlink="http://www.w3.org/1999/xlink" xml:space="preserve" xmlns:serif="http://www.serif.com/" style="fill-rule:evenodd;clip-rule:evenodd;stroke-linejoin:round;stroke-miterlimit:2;">
    <g transform="matrix(1,0,0,1,-2.098,-2.651)">
        <path d="M257.842,70.018L263.459,88.957L268.924,107.953C270.766,114.276 272.515,120.629 274.27,126.982C276.023,133.339 277.817,139.677 279.492,146.061C280.893,151.288 282.277,156.524 283.643,161.765C284.313,155.956 284.688,150.028 284.688,143.946C284.688,109.999 274.245,80.393 253.389,55.111L257.842,70.018Z" style="fill:rgb(249,243,232);fill-rule:nonzero;"/>
    </g>
    <g transform="matrix(1,0,0,1,-2.098,-2.651)">
        <path d="M3.657,165.934C7.96,195.636 21.222,221.619 43.468,243.87C71.045,271.446 104.357,285.241 143.393,285.241C182.425,285.241 215.733,271.446 243.315,243.87C263.903,223.279 276.8,199.492 282.022,172.516C278.6,164.574 275.255,156.601 271.956,148.618C269.398,142.535 266.966,136.413 264.487,130.304C262.017,124.193 259.535,118.085 257.152,111.944L249.927,93.551L245.963,83.203C245.843,88.836 245.718,94.462 245.545,100.089C245.323,107.261 245.176,114.435 244.896,121.603L244.117,143.117L243.199,164.626L241.037,207.628L241.019,207.918C240.752,213.289 236.175,217.425 230.8,217.157C226.768,216.952 223.435,214.321 222.133,210.753L209.2,175.174L196.348,139.559C192.054,127.697 187.932,115.763 183.815,103.827L179.381,90.699L177.811,100.882L175.278,118.09C174.442,123.823 173.585,129.56 172.845,135.306C171.292,146.793 169.748,158.278 168.363,169.786C166.996,181.294 165.674,192.806 164.507,204.337C164.34,206.006 162.849,207.224 161.181,207.055C160.127,206.949 159.253,206.317 158.793,205.444L158.75,205.358C154.184,196.51 149.547,187.695 144.808,178.932C140.108,170.153 135.214,161.466 130.425,152.731C124.693,142.443 118.904,132.181 113.151,121.907C113.148,121.931 113.146,121.951 113.144,121.971C112.31,129.915 111.455,137.852 110.491,145.78C108.628,161.638 106.42,177.453 104.247,193.276L104.221,193.463C103.582,198.122 99.29,201.377 94.63,200.741C92.022,200.381 89.835,198.844 88.542,196.772L79.087,181.423L69.702,166.027C66.099,160.1 62.524,154.158 58.963,148.209C57.867,151.528 56.77,154.852 55.67,158.172L47.234,182.992L47.099,183.399C46.251,185.892 43.538,187.226 41.04,186.378" style="fill:rgb(249,243,232);fill-rule:nonzero;"/>
    </g>
    <g transform="matrix(1,0,0,1,-2.098,-2.651)">
        <path d="M50.341,129.375C51.293,125.669 55.069,123.439 58.772,124.392C60.466,124.826 61.851,125.849 62.767,127.187L63.017,127.561C69.792,137.496 76.504,147.468 83.148,157.482L90.073,167.939C91.074,159.805 92.116,151.676 93.249,143.563C94.321,135.654 95.503,127.752 96.705,119.857C97.907,111.962 99.221,104.084 100.548,96.202L100.641,95.646C101.321,91.615 105.138,88.898 109.171,89.573C111.671,89.995 113.684,91.664 114.678,93.805C122.946,111.937 130.899,130.221 139.029,148.419C143.159,157.489 147.18,166.609 151.397,175.631C154.123,181.526 156.901,187.393 159.701,193.251C160.663,185.208 161.583,177.163 162.462,169.11C163.705,157.59 164.786,146.052 165.857,134.509C166.429,128.74 166.884,122.961 167.362,117.186L168.766,99.85L171.339,65.154C171.581,61.922 174.39,59.502 177.62,59.741C179.874,59.91 181.735,61.331 182.573,63.274L182.757,63.71L197.655,98.541C202.545,110.181 207.428,121.82 212.143,133.529L222.666,159.603L223.215,142.339L224.036,120.827C224.288,113.656 224.671,106.491 224.987,99.324C225.3,92.155 225.657,84.987 226.048,77.821L229.174,31.528C204.565,12.3 175.982,2.651 143.393,2.651C104.357,2.651 71.045,16.44 43.469,44.025C15.893,71.601 2.098,104.906 2.098,143.946C2.098,150.148 2.487,156.19 3.183,162.105L40.023,174.097L50.341,129.375Z" style="fill:rgb(249,243,232);fill-rule:nonzero;"/>
    </g>
</svg>
