<?xml version="1.0" encoding="UTF-8" standalone="no"?><!DOCTYPE svg PUBLIC "-//W3C//DTD SVG 1.1//EN" "http://www.w3.org/Graphics/SVG/1.1/DTD/svg11.dtd"><svg width="100%" height="100%" viewBox="0 0 2332 972" version="1.1" xmlns="http://www.w3.org/2000/svg" xmlns:xlink="http://www.w3.org/1999/xlink" xml:space="preserve" xmlns:serif="http://www.serif.com/" style="fill-rule:evenodd;clip-rule:evenodd;stroke-linejoin:round;stroke-miterlimit:2;"><path d="M0,848.202l89.459,-136.507c36.667,30.04 75.764,51.577 117.29,64.609c41.527,13.032 80.624,19.548 117.291,19.548c50.362,0 90.232,-10.933 119.61,-32.801c29.377,-21.868 44.066,-52.461 44.066,-91.778c0,-36.667 -15.02,-65.272 -45.06,-85.815c-30.041,-20.542 -76.427,-30.813 -139.159,-30.813l-90.121,-0l-0,-164.339l71.567,-0c51.687,-0 91.778,-10.382 120.272,-31.145c28.495,-20.764 42.742,-48.374 42.742,-82.833c-0,-33.574 -12.812,-58.976 -38.434,-76.205c-25.623,-17.229 -57.872,-25.844 -96.748,-25.844c-38.435,0 -75.433,7.621 -110.996,22.862c-35.562,15.241 -66.818,35.673 -93.766,61.296l-88.133,-135.183c45.06,-39.759 95.643,-70.241 151.748,-91.446c56.106,-21.205 114.419,-31.808 174.942,-31.808c62.29,-0 116.407,10.713 162.351,32.139c45.945,21.426 81.507,50.362 106.688,86.808c25.181,36.446 37.772,77.421 37.772,122.923c-0,49.037 -14.358,92.551 -43.073,130.544c-28.715,37.992 -67.591,66.045 -116.628,84.157c63.615,15.462 112.652,44.73 147.11,87.803c34.459,43.072 51.688,93.324 51.688,150.754c-0,54.78 -14.91,102.823 -44.73,144.129c-29.819,41.305 -71.346,73.665 -124.579,97.079c-53.234,23.414 -114.972,35.121 -185.213,35.121c-65.383,-0 -126.789,-10.603 -184.219,-31.808c-57.431,-21.205 -108.676,-51.687 -153.737,-91.447Z" style="fill:#4c6663;fill-rule:nonzero;"/><g><path d="M991.685,159.696l-51.06,0l-0,-131.162l51.06,-0c22.235,-0 39.473,5.73 51.715,17.191c12.242,11.461 18.363,27.591 18.363,48.39c-0,20.799 -6.121,36.928 -18.363,48.389c-12.242,11.462 -29.48,17.192 -51.715,17.192Zm-0,-106.054l-21.83,-0l0,80.946l21.83,-0c12.866,-0 22.828,-3.56 29.886,-10.68c7.058,-7.121 10.587,-17.052 10.587,-29.793c-0,-12.742 -3.529,-22.672 -10.587,-29.793c-7.058,-7.12 -17.02,-10.68 -29.886,-10.68Z" style="fill:#4c6663;fill-rule:nonzero;"/><path d="M1109.92,36.216c0,4.435 -1.483,8.073 -4.45,10.915c-2.967,2.842 -6.792,4.262 -11.477,4.262c-4.684,0 -8.51,-1.42 -11.476,-4.262c-2.967,-2.842 -4.451,-6.48 -4.451,-10.915c0,-4.434 1.484,-8.073 4.451,-10.914c2.966,-2.842 6.792,-4.263 11.476,-4.263c4.685,-0 8.51,1.421 11.477,4.263c2.967,2.841 4.45,6.48 4.45,10.914Zm-2.061,123.48l-27.731,0l-0,-95.186l27.731,-0l0,95.186Z" style="fill:#4c6663;fill-rule:nonzero;"/><path d="M1125.28,150.421l10.399,-20.33c9.806,5.746 20.549,8.619 32.229,8.619c9.306,0 13.959,-1.936 13.959,-5.808c0,-1.375 -0.5,-2.514 -1.499,-3.42c-0.999,-0.906 -2.951,-1.843 -5.855,-2.811c-2.905,-0.968 -7.261,-2.139 -13.07,-3.513c-12.117,-2.873 -20.908,-6.808 -26.373,-11.805c-5.465,-4.996 -8.197,-11.679 -8.197,-20.049c-0,-8.869 3.482,-15.973 10.446,-21.314c6.964,-5.34 16.692,-8.01 29.183,-8.01c6.808,0 13.866,1.046 21.174,3.139c7.307,2.092 13.647,4.887 19.018,8.385l-10.399,20.33c-3.997,-2.498 -8.822,-4.544 -14.475,-6.137c-5.652,-1.592 -10.789,-2.389 -15.411,-2.389c-3.685,0 -6.637,0.484 -8.854,1.452c-2.217,0.969 -3.326,2.233 -3.326,3.795c0,1.374 0.531,2.529 1.593,3.466c1.062,0.937 3.076,1.874 6.043,2.811c2.967,0.937 7.292,2.092 12.976,3.466c12.116,2.873 20.907,6.824 26.373,11.852c5.465,5.028 8.197,11.726 8.197,20.096c0,9.181 -3.544,16.473 -10.633,21.876c-7.089,5.402 -17.067,8.104 -29.933,8.104c-8.12,-0 -15.974,-1.062 -23.563,-3.186c-7.589,-2.123 -14.256,-4.996 -20.002,-8.619Z" style="fill:#4c6663;fill-rule:nonzero;"/><path d="M1297.67,128.873l11.992,19.768c-4.747,3.997 -10.524,7.261 -17.332,9.79c-6.808,2.53 -14.022,3.795 -21.642,3.795c-9.806,-0 -18.519,-2.124 -26.139,-6.371c-7.62,-4.247 -13.6,-10.134 -17.941,-17.66c-4.341,-7.526 -6.511,-16.224 -6.511,-26.092c-0,-9.868 2.17,-18.566 6.511,-26.092c4.341,-7.526 10.321,-13.413 17.941,-17.66c7.62,-4.247 16.333,-6.371 26.139,-6.371c7.183,0 13.99,1.14 20.424,3.42c6.433,2.279 11.898,5.137 16.395,8.572l-11.992,19.768c-3.06,-2.186 -6.496,-3.95 -10.306,-5.293c-3.81,-1.343 -7.682,-2.014 -11.617,-2.014c-7.807,-0 -13.928,2.373 -18.363,7.12c-4.434,4.747 -6.651,10.93 -6.651,18.55c-0,7.62 2.232,13.803 6.698,18.55c4.466,4.747 10.603,7.12 18.41,7.12c4.247,0 8.432,-0.796 12.554,-2.389c4.122,-1.592 7.932,-3.763 11.43,-6.511Z" style="fill:#4c6663;fill-rule:nonzero;"/><path d="M1415.9,159.696l-25.202,0l-0.468,-11.43c-3.56,4.372 -8.073,7.792 -13.538,10.259c-5.465,2.467 -11.414,3.701 -17.847,3.701c-10.806,-0 -19.425,-3.467 -25.858,-10.4c-6.433,-6.932 -9.65,-16.364 -9.65,-28.293l0,-59.023l27.732,-0l-0,54.807c-0,5.808 1.499,10.415 4.497,13.819c2.998,3.404 7.026,5.106 12.085,5.106c6.121,-0 11.071,-2.093 14.85,-6.277c3.778,-4.185 5.668,-9.619 5.668,-16.302l-0,-51.153l27.731,-0l0,95.186Z" style="fill:#4c6663;fill-rule:nonzero;"/><path d="M1433.33,150.421l10.399,-20.33c9.806,5.746 20.549,8.619 32.229,8.619c9.306,0 13.959,-1.936 13.959,-5.808c0,-1.375 -0.499,-2.514 -1.499,-3.42c-0.999,-0.906 -2.951,-1.843 -5.855,-2.811c-2.904,-0.968 -7.261,-2.139 -13.069,-3.513c-12.117,-2.873 -20.908,-6.808 -26.373,-11.805c-5.466,-4.996 -8.198,-11.679 -8.198,-20.049c-0,-8.869 3.482,-15.973 10.446,-21.314c6.964,-5.34 16.692,-8.01 29.184,-8.01c6.808,0 13.865,1.046 21.173,3.139c7.308,2.092 13.647,4.887 19.019,8.385l-10.4,20.33c-3.997,-2.498 -8.822,-4.544 -14.474,-6.137c-5.653,-1.592 -10.79,-2.389 -15.412,-2.389c-3.685,0 -6.636,0.484 -8.853,1.452c-2.218,0.969 -3.326,2.233 -3.326,3.795c-0,1.374 0.53,2.529 1.592,3.466c1.062,0.937 3.076,1.874 6.043,2.811c2.967,0.937 7.292,2.092 12.976,3.466c12.117,2.873 20.908,6.824 26.373,11.852c5.465,5.028 8.197,11.726 8.197,20.096c0,9.181 -3.544,16.473 -10.633,21.876c-7.089,5.402 -17.067,8.104 -29.933,8.104c-8.12,-0 -15.974,-1.062 -23.563,-3.186c-7.588,-2.123 -14.256,-4.996 -20.002,-8.619Z" style="fill:#4c6663;fill-rule:nonzero;"/><path d="M1527.2,150.421l10.399,-20.33c9.806,5.746 20.549,8.619 32.229,8.619c9.306,0 13.959,-1.936 13.959,-5.808c0,-1.375 -0.499,-2.514 -1.499,-3.42c-0.999,-0.906 -2.951,-1.843 -5.855,-2.811c-2.905,-0.968 -7.261,-2.139 -13.07,-3.513c-12.117,-2.873 -20.908,-6.808 -26.373,-11.805c-5.465,-4.996 -8.197,-11.679 -8.197,-20.049c-0,-8.869 3.482,-15.973 10.446,-21.314c6.964,-5.34 16.692,-8.01 29.183,-8.01c6.808,0 13.866,1.046 21.174,3.139c7.307,2.092 13.647,4.887 19.018,8.385l-10.399,20.33c-3.997,-2.498 -8.822,-4.544 -14.475,-6.137c-5.652,-1.592 -10.789,-2.389 -15.411,-2.389c-3.685,0 -6.636,0.484 -8.854,1.452c-2.217,0.969 -3.326,2.233 -3.326,3.795c0,1.374 0.531,2.529 1.593,3.466c1.062,0.937 3.076,1.874 6.043,2.811c2.967,0.937 7.292,2.092 12.976,3.466c12.117,2.873 20.908,6.824 26.373,11.852c5.465,5.028 8.197,11.726 8.197,20.096c0,9.181 -3.544,16.473 -10.633,21.876c-7.089,5.402 -17.067,8.104 -29.933,8.104c-8.12,-0 -15.974,-1.062 -23.563,-3.186c-7.588,-2.123 -14.256,-4.996 -20.002,-8.619Z" style="fill:#4c6663;fill-rule:nonzero;"/><path d="M1658.55,36.216c-0,4.435 -1.484,8.073 -4.45,10.915c-2.967,2.842 -6.793,4.262 -11.477,4.262c-4.684,0 -8.51,-1.42 -11.477,-4.262c-2.967,-2.842 -4.45,-6.48 -4.45,-10.915c0,-4.434 1.483,-8.073 4.45,-10.914c2.967,-2.842 6.793,-4.263 11.477,-4.263c4.684,-0 8.51,1.421 11.477,4.263c2.966,2.841 4.45,6.48 4.45,10.914Zm-2.061,123.48l-27.732,0l0,-95.186l27.732,-0l-0,95.186Z" style="fill:#4c6663;fill-rule:nonzero;"/><path d="M1726.38,162.226c-10.18,-0 -19.127,-2.124 -26.841,-6.371c-7.714,-4.247 -13.756,-10.134 -18.128,-17.66c-4.373,-7.526 -6.559,-16.224 -6.559,-26.092c0,-9.868 2.186,-18.566 6.559,-26.092c4.372,-7.526 10.414,-13.413 18.128,-17.66c7.714,-4.247 16.661,-6.371 26.841,-6.371c10.119,0 19.05,2.124 26.795,6.371c7.745,4.247 13.803,10.134 18.175,17.66c4.373,7.526 6.559,16.224 6.559,26.092c-0,9.868 -2.186,18.566 -6.559,26.092c-4.372,7.526 -10.43,13.413 -18.175,17.66c-7.745,4.247 -16.676,6.371 -26.795,6.371Zm0,-23.984c6.996,-0 12.648,-2.405 16.958,-7.214c4.31,-4.81 6.464,-11.118 6.464,-18.925c0,-7.807 -2.154,-14.116 -6.464,-18.925c-4.31,-4.809 -9.962,-7.214 -16.958,-7.214c-6.995,0 -12.647,2.405 -16.957,7.214c-4.31,4.809 -6.464,11.118 -6.464,18.925c-0,7.807 2.154,14.115 6.464,18.925c4.31,4.809 9.962,7.214 16.957,7.214Z" style="fill:#4c6663;fill-rule:nonzero;"/><path d="M1889.87,159.696l-27.731,0l-0,-54.807c-0,-5.871 -1.515,-10.493 -4.544,-13.866c-3.03,-3.373 -7.23,-5.059 -12.601,-5.059c-6.371,0 -11.461,2.077 -15.271,6.23c-3.81,4.154 -5.715,9.572 -5.715,16.255l-0,51.247l-27.732,0l0,-95.186l25.202,-0l0.469,11.43c3.56,-4.31 8.104,-7.714 13.631,-10.212c5.528,-2.499 11.602,-3.748 18.222,-3.748c11.118,0 19.909,3.467 26.373,10.399c6.465,6.933 9.697,16.365 9.697,28.294l0,59.023Z" style="fill:#4c6663;fill-rule:nonzero;"/><path d="M984.19,349.601c-10.181,-0 -19.128,-2.124 -26.842,-6.371c-7.713,-4.247 -13.756,-10.134 -18.128,-17.66c-4.372,-7.526 -6.558,-16.224 -6.558,-26.092c-0,-9.869 2.186,-18.566 6.558,-26.092c4.372,-7.526 10.415,-13.413 18.128,-17.66c7.714,-4.247 16.661,-6.371 26.842,-6.371c10.118,0 19.049,2.124 26.794,6.371c7.745,4.247 13.804,10.134 18.176,17.66c4.372,7.526 6.558,16.223 6.558,26.092c-0,9.868 -2.186,18.566 -6.558,26.092c-4.372,7.526 -10.431,13.413 -18.176,17.66c-7.745,4.247 -16.676,6.371 -26.794,6.371Zm-0,-23.984c6.995,-0 12.647,-2.405 16.957,-7.214c4.31,-4.81 6.464,-11.118 6.464,-18.925c0,-7.808 -2.154,-14.116 -6.464,-18.925c-4.31,-4.809 -9.962,-7.214 -16.957,-7.214c-6.996,-0 -12.648,2.405 -16.958,7.214c-4.309,4.809 -6.464,11.117 -6.464,18.925c-0,7.807 2.155,14.115 6.464,18.925c4.31,4.809 9.962,7.214 16.958,7.214Z" style="fill:#4c6663;fill-rule:nonzero;"/><path d="M1145.71,347.071l-25.202,-0l-0.469,-11.43c-3.56,4.372 -8.072,7.792 -13.537,10.259c-5.466,2.467 -11.415,3.701 -17.848,3.701c-10.805,-0 -19.424,-3.467 -25.858,-10.4c-6.433,-6.933 -9.649,-16.364 -9.649,-28.293l-0,-59.023l27.731,-0l0,54.807c0,5.808 1.499,10.415 4.497,13.819c2.998,3.404 7.027,5.106 12.086,5.106c6.121,-0 11.07,-2.093 14.849,-6.277c3.779,-4.185 5.668,-9.619 5.668,-16.302l0,-51.153l27.732,-0l-0,95.186Z" style="fill:#4c6663;fill-rule:nonzero;"/><path d="M1225.06,347.071l-26.045,-0l-39.911,-95.186l30.448,-0l23.235,62.958l23.141,-62.958l29.043,-0l-39.911,95.186Z" style="fill:#4c6663;fill-rule:nonzero;"/><path d="M1354.82,317.841l10.68,18.924c-5.308,3.998 -11.71,7.136 -19.205,9.416c-7.495,2.28 -15.178,3.42 -23.048,3.42c-10.368,-0 -19.502,-2.077 -27.403,-6.231c-7.901,-4.153 -14.069,-9.993 -18.503,-17.519c-4.435,-7.526 -6.652,-16.317 -6.652,-26.373c-0,-9.931 2.108,-18.66 6.324,-26.186c4.216,-7.526 10.055,-13.397 17.519,-17.613c7.464,-4.216 16.005,-6.324 25.624,-6.324c14.428,0 25.655,4.372 33.68,13.116c8.026,8.744 12.039,20.955 12.039,36.632l0,10.306l-68.485,-0c1.811,5.746 5.184,10.196 10.118,13.35c4.934,3.154 10.993,4.731 18.175,4.731c9.806,0 19.519,-3.216 29.137,-9.649Zm-34.664,-47.594c-6.184,0 -11.305,1.734 -15.365,5.2c-4.06,3.466 -6.745,8.447 -8.057,14.943l43.471,0l-0,-0.749c-0,-5.871 -1.827,-10.571 -5.481,-14.1c-3.654,-3.529 -8.51,-5.294 -14.568,-5.294Z" style="fill:#4c6663;fill-rule:nonzero;"/><path d="M1414.03,347.071l-27.732,-0l0,-95.186l25.202,-0l0.656,15.083c3.248,-4.872 7.667,-8.869 13.257,-11.992c5.59,-3.123 11.632,-4.684 18.128,-4.684c1.562,-0 3.232,0.094 5.012,0.281c1.78,0.187 3.108,0.375 3.982,0.562l0,25.015c-1.062,-0.188 -2.295,-0.328 -3.701,-0.422c-1.405,-0.094 -2.732,-0.141 -3.981,-0.141c-9.994,0 -17.629,3.108 -22.907,9.322c-5.278,6.215 -7.916,14.35 -7.916,24.406l-0,37.756Z" style="fill:#4c6663;fill-rule:nonzero;"/><path d="M1532.64,323.181l-0,23.328c-2.436,0.375 -5.262,0.687 -8.479,0.937c-3.216,0.25 -6.261,0.374 -9.134,0.374c-13.179,0 -22.688,-3.247 -28.528,-9.743c-5.84,-6.496 -8.76,-16.083 -8.76,-28.762l0,-33.821l-17.145,-0l0,-23.609l17.145,-0l0,-27.638l27.732,-0l-0,27.638l27.544,-0l-3.092,23.609l-24.452,-0l-0,31.666c-0,6.121 1.358,10.431 4.075,12.929c2.717,2.498 7.292,3.748 13.725,3.748c3.623,-0 6.746,-0.219 9.369,-0.656Z" style="fill:#4c6663;fill-rule:nonzero;"/><path d="M1626.42,317.841l10.68,18.924c-5.309,3.998 -11.711,7.136 -19.206,9.416c-7.495,2.28 -15.177,3.42 -23.047,3.42c-10.368,-0 -19.502,-2.077 -27.403,-6.231c-7.901,-4.153 -14.069,-9.993 -18.504,-17.519c-4.434,-7.526 -6.651,-16.317 -6.651,-26.373c-0,-9.931 2.108,-18.66 6.324,-26.186c4.216,-7.526 10.055,-13.397 17.519,-17.613c7.464,-4.216 16.005,-6.324 25.624,-6.324c14.427,0 25.654,4.372 33.68,13.116c8.026,8.744 12.039,20.955 12.039,36.632l0,10.306l-68.485,-0c1.811,5.746 5.184,10.196 10.118,13.35c4.934,3.154 10.992,4.731 18.175,4.731c9.806,0 19.518,-3.216 29.137,-9.649Zm-34.664,-47.594c-6.184,0 -11.305,1.734 -15.365,5.2c-4.06,3.466 -6.746,8.447 -8.057,14.943l43.471,0l-0,-0.749c-0,-5.871 -1.827,-10.571 -5.481,-14.1c-3.654,-3.529 -8.51,-5.294 -14.568,-5.294Z" style="fill:#4c6663;fill-rule:nonzero;"/><path d="M1784.47,317.841l10.68,18.924c-5.309,3.998 -11.711,7.136 -19.206,9.416c-7.495,2.28 -15.177,3.42 -23.047,3.42c-10.368,-0 -19.503,-2.077 -27.404,-6.231c-7.901,-4.153 -14.068,-9.993 -18.503,-17.519c-4.434,-7.526 -6.652,-16.317 -6.652,-26.373c0,-9.931 2.108,-18.66 6.324,-26.186c4.216,-7.526 10.056,-13.397 17.52,-17.613c7.464,-4.216 16.005,-6.324 25.623,-6.324c14.428,0 25.655,4.372 33.681,13.116c8.026,8.744 12.039,20.955 12.039,36.632l-0,10.306l-68.486,-0c1.812,5.746 5.184,10.196 10.119,13.35c4.934,3.154 10.992,4.731 18.175,4.731c9.806,0 19.518,-3.216 29.137,-9.649Zm-34.665,-47.594c-6.183,0 -11.305,1.734 -15.364,5.2c-4.06,3.466 -6.746,8.447 -8.058,14.943l43.471,0l0,-0.749c0,-5.871 -1.826,-10.571 -5.48,-14.1c-3.654,-3.529 -8.51,-5.294 -14.569,-5.294Z" style="fill:#4c6663;fill-rule:nonzero;"/><path d="M1909.54,347.071l-27.731,-0l-0,-54.807c-0,-5.871 -1.515,-10.493 -4.544,-13.866c-3.029,-3.373 -7.229,-5.059 -12.601,-5.059c-6.371,-0 -11.461,2.077 -15.271,6.23c-3.81,4.154 -5.715,9.572 -5.715,16.255l0,51.247l-27.731,-0l-0,-95.186l25.202,-0l0.468,11.429c3.56,-4.309 8.104,-7.713 13.632,-10.211c5.527,-2.499 11.601,-3.748 18.222,-3.748c11.117,0 19.908,3.466 26.373,10.399c6.464,6.933 9.696,16.364 9.696,28.294l0,59.023Z" style="fill:#4c6663;fill-rule:nonzero;"/><path d="M1991.89,323.181l-0,23.328c-2.436,0.375 -5.262,0.687 -8.479,0.937c-3.217,0.25 -6.262,0.374 -9.135,0.374c-13.178,0 -22.688,-3.247 -28.527,-9.743c-5.84,-6.496 -8.76,-16.083 -8.76,-28.762l-0,-33.821l-17.145,-0l0,-23.609l17.145,-0l-0,-27.638l27.731,-0l0,27.638l27.544,-0l-3.091,23.609l-24.453,-0l0,31.666c0,6.121 1.359,10.431 4.076,12.929c2.717,2.498 7.292,3.748 13.725,3.748c3.622,-0 6.745,-0.219 9.369,-0.656Z" style="fill:#4c6663;fill-rule:nonzero;"/><path d="M2036.96,347.071l-27.731,-0l-0,-95.186l25.202,-0l0.656,15.083c3.247,-4.872 7.666,-8.869 13.256,-11.992c5.59,-3.123 11.633,-4.684 18.129,-4.684c1.561,-0 3.232,0.094 5.012,0.281c1.78,0.187 3.107,0.375 3.982,0.562l-0,25.015c-1.062,-0.188 -2.296,-0.328 -3.701,-0.422c-1.405,-0.094 -2.732,-0.141 -3.982,-0.141c-9.993,0 -17.628,3.108 -22.906,9.322c-5.278,6.215 -7.917,14.35 -7.917,24.406l0,37.756Z" style="fill:#4c6663;fill-rule:nonzero;"/><path d="M2168.02,317.841l10.68,18.924c-5.309,3.998 -11.711,7.136 -19.206,9.416c-7.495,2.28 -15.177,3.42 -23.047,3.42c-10.368,-0 -19.502,-2.077 -27.403,-6.231c-7.901,-4.153 -14.069,-9.993 -18.503,-17.519c-4.435,-7.526 -6.652,-16.317 -6.652,-26.373c-0,-9.931 2.108,-18.66 6.324,-26.186c4.216,-7.526 10.055,-13.397 17.519,-17.613c7.464,-4.216 16.005,-6.324 25.624,-6.324c14.428,0 25.654,4.372 33.68,13.116c8.026,8.744 12.039,20.955 12.039,36.632l0,10.306l-68.485,-0c1.811,5.746 5.184,10.196 10.118,13.35c4.934,3.154 10.993,4.731 18.175,4.731c9.806,0 19.518,-3.216 29.137,-9.649Zm-34.664,-47.594c-6.184,0 -11.305,1.734 -15.365,5.2c-4.06,3.466 -6.746,8.447 -8.057,14.943l43.471,0l-0,-0.749c-0,-5.871 -1.827,-10.571 -5.481,-14.1c-3.654,-3.529 -8.51,-5.294 -14.568,-5.294Z" style="fill:#4c6663;fill-rule:nonzero;"/><path d="M965.265,534.446l-27.732,-0l0,-139.126l27.732,-2.623l-0,141.749Z" style="fill:#4c6663;fill-rule:nonzero;"/><path d="M1067.76,505.215l10.68,18.925c-5.309,3.998 -11.711,7.136 -19.206,9.416c-7.495,2.28 -15.177,3.419 -23.047,3.419c-10.368,0 -19.502,-2.076 -27.403,-6.23c-7.901,-4.153 -14.069,-9.993 -18.504,-17.519c-4.434,-7.527 -6.651,-16.318 -6.651,-26.373c-0,-9.931 2.107,-18.66 6.323,-26.186c4.216,-7.526 10.056,-13.397 17.52,-17.613c7.464,-4.216 16.005,-6.324 25.623,-6.324c14.428,-0 25.655,4.372 33.681,13.116c8.026,8.744 12.039,20.955 12.039,36.632l-0,10.306l-68.486,-0c1.812,5.746 5.184,10.196 10.119,13.35c4.934,3.154 10.992,4.731 18.175,4.731c9.806,0 19.518,-3.216 29.137,-9.65Zm-34.665,-47.593c-6.183,0 -11.304,1.733 -15.364,5.2c-4.06,3.466 -6.746,8.447 -8.057,14.943l43.471,-0l-0,-0.75c-0,-5.871 -1.827,-10.571 -5.481,-14.099c-3.654,-3.529 -8.51,-5.294 -14.569,-5.294Z" style="fill:#4c6663;fill-rule:nonzero;"/><path d="M1090.62,525.171l10.399,-20.33c9.806,5.746 20.549,8.619 32.228,8.619c9.307,-0 13.96,-1.936 13.96,-5.809c-0,-1.374 -0.5,-2.514 -1.499,-3.419c-1,-0.906 -2.951,-1.843 -5.856,-2.811c-2.904,-0.968 -7.26,-2.139 -13.069,-3.513c-12.117,-2.873 -20.908,-6.808 -26.373,-11.805c-5.465,-4.997 -8.198,-11.68 -8.198,-20.049c0,-8.869 3.482,-15.974 10.446,-21.314c6.964,-5.34 16.692,-8.01 29.184,-8.01c6.808,-0 13.866,1.046 21.173,3.138c7.308,2.093 13.648,4.888 19.019,8.385l-10.399,20.331c-3.998,-2.499 -8.823,-4.544 -14.475,-6.137c-5.653,-1.593 -10.79,-2.389 -15.412,-2.389c-3.685,0 -6.636,0.484 -8.853,1.452c-2.217,0.968 -3.326,2.233 -3.326,3.795c-0,1.374 0.531,2.529 1.593,3.466c1.061,0.937 3.076,1.874 6.042,2.811c2.967,0.936 7.293,2.092 12.976,3.466c12.117,2.873 20.908,6.824 26.373,11.851c5.465,5.028 8.198,11.727 8.198,20.096c-0,9.182 -3.545,16.474 -10.634,21.876c-7.089,5.403 -17.066,8.104 -29.933,8.104c-8.119,0 -15.973,-1.061 -23.562,-3.185c-7.589,-2.124 -14.256,-4.997 -20.002,-8.619Z" style="fill:#4c6663;fill-rule:nonzero;"/><path d="M1312.19,503.623l11.992,19.768c-4.747,3.997 -10.524,7.261 -17.332,9.79c-6.808,2.53 -14.022,3.794 -21.642,3.794c-9.806,0 -18.519,-2.123 -26.138,-6.37c-7.62,-4.247 -13.601,-10.134 -17.942,-17.66c-4.34,-7.527 -6.511,-16.224 -6.511,-26.092c0,-9.869 2.171,-18.566 6.511,-26.092c4.341,-7.527 10.322,-13.413 17.942,-17.66c7.619,-4.248 16.332,-6.371 26.138,-6.371c7.183,-0 13.991,1.14 20.424,3.419c6.433,2.28 11.899,5.138 16.396,8.573l-11.992,19.768c-3.061,-2.186 -6.496,-3.951 -10.306,-5.293c-3.81,-1.343 -7.682,-2.015 -11.617,-2.015c-7.808,0 -13.929,2.374 -18.363,7.121c-4.435,4.746 -6.652,10.93 -6.652,18.55c0,7.62 2.233,13.803 6.699,18.55c4.466,4.747 10.602,7.12 18.409,7.12c4.248,0 8.432,-0.796 12.554,-2.389c4.123,-1.593 7.933,-3.763 11.43,-6.511Z" style="fill:#4c6663;fill-rule:nonzero;"/><path d="M1370.46,410.966c-0,4.434 -1.483,8.073 -4.45,10.914c-2.967,2.842 -6.793,4.263 -11.477,4.263c-4.684,0 -8.51,-1.421 -11.477,-4.263c-2.966,-2.841 -4.45,-6.48 -4.45,-10.914c0,-4.435 1.484,-8.073 4.45,-10.915c2.967,-2.842 6.793,-4.263 11.477,-4.263c4.684,0 8.51,1.421 11.477,4.263c2.967,2.842 4.45,6.48 4.45,10.915Zm-2.061,123.48l-27.732,-0l0,-95.187l27.732,0l-0,95.187Z" style="fill:#4c6663;fill-rule:nonzero;"/><path d="M1485.23,534.446l-27.731,-0l-0,-54.807c-0,-5.871 -1.515,-10.493 -4.544,-13.866c-3.03,-3.373 -7.23,-5.059 -12.601,-5.059c-6.371,-0 -11.461,2.077 -15.271,6.23c-3.81,4.154 -5.715,9.572 -5.715,16.255l-0,51.247l-27.732,-0l0,-95.187l25.202,0l0.469,11.43c3.56,-4.309 8.104,-7.713 13.631,-10.212c5.528,-2.498 11.602,-3.747 18.222,-3.747c11.118,-0 19.909,3.466 26.373,10.399c6.465,6.933 9.697,16.364 9.697,28.294l0,59.023Z" style="fill:#4c6663;fill-rule:nonzero;"/><path d="M1586.79,505.215l10.681,18.925c-5.309,3.998 -11.711,7.136 -19.206,9.416c-7.495,2.28 -15.178,3.419 -23.047,3.419c-10.369,0 -19.503,-2.076 -27.404,-6.23c-7.901,-4.153 -14.069,-9.993 -18.503,-17.519c-4.435,-7.527 -6.652,-16.318 -6.652,-26.373c-0,-9.931 2.108,-18.66 6.324,-26.186c4.216,-7.526 10.056,-13.397 17.519,-17.613c7.464,-4.216 16.005,-6.324 25.624,-6.324c14.428,-0 25.655,4.372 33.68,13.116c8.026,8.744 12.039,20.955 12.039,36.632l0,10.306l-68.485,-0c1.811,5.746 5.184,10.196 10.118,13.35c4.934,3.154 10.993,4.731 18.175,4.731c9.806,0 19.519,-3.216 29.137,-9.65Zm-34.664,-47.593c-6.184,0 -11.305,1.733 -15.365,5.2c-4.06,3.466 -6.745,8.447 -8.057,14.943l43.471,-0l-0,-0.75c-0,-5.871 -1.827,-10.571 -5.481,-14.099c-3.654,-3.529 -8.51,-5.294 -14.568,-5.294Zm36.913,-63.614l-31.76,31.573l-25.109,0l25.858,-31.573l31.011,0Z" style="fill:#4c6663;fill-rule:nonzero;"/><path d="M1713.64,534.446l-25.202,-0l-0.468,-11.43c-3.561,4.372 -8.073,7.792 -13.538,10.259c-5.465,2.467 -11.477,3.7 -18.035,3.7c-8.682,0 -16.395,-2.17 -23.141,-6.511c-6.745,-4.341 -12.054,-10.29 -15.927,-17.847c-3.872,-7.558 -5.808,-16.146 -5.808,-25.764c-0,-9.619 1.936,-18.207 5.808,-25.764c3.873,-7.558 9.182,-13.507 15.927,-17.848c6.746,-4.341 14.459,-6.511 23.141,-6.511c6.558,-0 12.57,1.233 18.035,3.701c5.465,2.467 9.977,5.886 13.538,10.258l0.468,-11.43l25.202,0l-0,95.187Zm-50.591,-21.455c6.995,0 12.648,-2.404 16.957,-7.213c4.31,-4.81 6.465,-11.118 6.465,-18.925c-0,-7.808 -2.155,-14.116 -6.465,-18.925c-4.309,-4.81 -9.962,-7.214 -16.957,-7.214c-6.996,-0 -12.648,2.404 -16.958,7.214c-4.309,4.809 -6.464,11.117 -6.464,18.925c-0,7.807 2.155,14.115 6.464,18.925c4.31,4.809 9.962,7.213 16.958,7.213Z" style="fill:#4c6663;fill-rule:nonzero;"/><path d="M1731.07,525.171l10.399,-20.33c9.806,5.746 20.549,8.619 32.229,8.619c9.306,-0 13.959,-1.936 13.959,-5.809c0,-1.374 -0.5,-2.514 -1.499,-3.419c-0.999,-0.906 -2.951,-1.843 -5.855,-2.811c-2.905,-0.968 -7.261,-2.139 -13.07,-3.513c-12.117,-2.873 -20.908,-6.808 -26.373,-11.805c-5.465,-4.997 -8.197,-11.68 -8.197,-20.049c-0,-8.869 3.482,-15.974 10.446,-21.314c6.964,-5.34 16.692,-8.01 29.183,-8.01c6.808,-0 13.866,1.046 21.174,3.138c7.307,2.093 13.647,4.888 19.018,8.385l-10.399,20.331c-3.997,-2.499 -8.822,-4.544 -14.475,-6.137c-5.652,-1.593 -10.789,-2.389 -15.411,-2.389c-3.685,0 -6.637,0.484 -8.854,1.452c-2.217,0.968 -3.326,2.233 -3.326,3.795c0,1.374 0.531,2.529 1.593,3.466c1.062,0.937 3.076,1.874 6.043,2.811c2.967,0.936 7.292,2.092 12.975,3.466c12.117,2.873 20.908,6.824 26.374,11.851c5.465,5.028 8.197,11.727 8.197,20.096c0,9.182 -3.544,16.474 -10.633,21.876c-7.089,5.403 -17.067,8.104 -29.934,8.104c-8.119,0 -15.973,-1.061 -23.562,-3.185c-7.589,-2.124 -14.256,-4.997 -20.002,-8.619Z" style="fill:#4c6663;fill-rule:nonzero;"/><path d="M1894.55,510.556l0,23.328c-2.435,0.374 -5.262,0.687 -8.478,0.937c-3.217,0.249 -6.262,0.374 -9.135,0.374c-13.179,0 -22.688,-3.247 -28.528,-9.743c-5.84,-6.496 -8.759,-16.083 -8.759,-28.762l-0,-33.821l-17.145,-0l-0,-23.61l17.145,0l-0,-27.637l27.731,-0l0,27.637l27.544,0l-3.092,23.61l-24.452,-0l0,31.666c0,6.121 1.359,10.431 4.075,12.929c2.717,2.498 7.292,3.747 13.726,3.747c3.622,0 6.745,-0.218 9.368,-0.655Z" style="fill:#4c6663;fill-rule:nonzero;"/><path d="M1988.33,505.215l10.68,18.925c-5.309,3.998 -11.711,7.136 -19.206,9.416c-7.495,2.28 -15.177,3.419 -23.047,3.419c-10.368,0 -19.503,-2.076 -27.404,-6.23c-7.901,-4.153 -14.068,-9.993 -18.503,-17.519c-4.435,-7.527 -6.652,-16.318 -6.652,-26.373c0,-9.931 2.108,-18.66 6.324,-26.186c4.216,-7.526 10.056,-13.397 17.52,-17.613c7.463,-4.216 16.005,-6.324 25.623,-6.324c14.428,-0 25.655,4.372 33.681,13.116c8.026,8.744 12.039,20.955 12.039,36.632l-0,10.306l-68.486,-0c1.811,5.746 5.184,10.196 10.118,13.35c4.935,3.154 10.993,4.731 18.176,4.731c9.806,0 19.518,-3.216 29.137,-9.65Zm-34.665,-47.593c-6.183,0 -11.305,1.733 -15.365,5.2c-4.059,3.466 -6.745,8.447 -8.057,14.943l43.471,-0l0,-0.75c0,-5.871 -1.827,-10.571 -5.48,-14.099c-3.654,-3.529 -8.51,-5.294 -14.569,-5.294Z" style="fill:#4c6663;fill-rule:nonzero;"/><path d="M2011.19,525.171l10.4,-20.33c9.806,5.746 20.548,8.619 32.228,8.619c9.306,-0 13.959,-1.936 13.959,-5.809c0,-1.374 -0.499,-2.514 -1.499,-3.419c-0.999,-0.906 -2.951,-1.843 -5.855,-2.811c-2.904,-0.968 -7.261,-2.139 -13.069,-3.513c-12.117,-2.873 -20.908,-6.808 -26.373,-11.805c-5.466,-4.997 -8.198,-11.68 -8.198,-20.049c-0,-8.869 3.482,-15.974 10.446,-21.314c6.964,-5.34 16.692,-8.01 29.184,-8.01c6.808,-0 13.865,1.046 21.173,3.138c7.308,2.093 13.647,4.888 19.019,8.385l-10.4,20.331c-3.997,-2.499 -8.822,-4.544 -14.474,-6.137c-5.653,-1.593 -10.79,-2.389 -15.412,-2.389c-3.685,0 -6.636,0.484 -8.853,1.452c-2.218,0.968 -3.326,2.233 -3.326,3.795c-0,1.374 0.531,2.529 1.592,3.466c1.062,0.937 3.076,1.874 6.043,2.811c2.967,0.936 7.292,2.092 12.976,3.466c12.117,2.873 20.908,6.824 26.373,11.851c5.465,5.028 8.198,11.727 8.198,20.096c-0,9.182 -3.545,16.474 -10.634,21.876c-7.089,5.403 -17.067,8.104 -29.933,8.104c-8.12,0 -15.974,-1.061 -23.562,-3.185c-7.589,-2.124 -14.257,-4.997 -20.003,-8.619Z" style="fill:#4c6663;fill-rule:nonzero;"/><path d="M2124.65,562.177l-23.047,0c3.123,-8.494 5.824,-16.863 8.104,-25.108c2.279,-8.244 4.137,-16.333 5.574,-24.265l28.106,0c-2.061,8.057 -4.59,16.192 -7.588,24.406c-2.998,8.213 -6.715,16.535 -11.149,24.967Z" style="fill:#4c6663;fill-rule:nonzero;"/><path d="M965.265,721.821l-27.732,-0l0,-139.126l27.732,-2.623l-0,141.749Z" style="fill:#4c6663;fill-rule:nonzero;"/><path d="M1067.76,692.59l10.68,18.925c-5.309,3.997 -11.711,7.136 -19.206,9.416c-7.495,2.279 -15.177,3.419 -23.047,3.419c-10.368,0 -19.502,-2.076 -27.403,-6.23c-7.901,-4.153 -14.069,-9.993 -18.504,-17.519c-4.434,-7.527 -6.651,-16.318 -6.651,-26.373c-0,-9.931 2.107,-18.66 6.323,-26.186c4.216,-7.526 10.056,-13.397 17.52,-17.613c7.464,-4.216 16.005,-6.324 25.623,-6.324c14.428,-0 25.655,4.372 33.681,13.116c8.026,8.744 12.039,20.955 12.039,36.632l-0,10.305l-68.486,0c1.812,5.747 5.184,10.197 10.119,13.351c4.934,3.154 10.992,4.731 18.175,4.731c9.806,0 19.518,-3.217 29.137,-9.65Zm-34.665,-47.593c-6.183,0 -11.304,1.733 -15.364,5.2c-4.06,3.466 -6.746,8.447 -8.057,14.943l43.471,-0l-0,-0.75c-0,-5.871 -1.827,-10.571 -5.481,-14.1c-3.654,-3.529 -8.51,-5.293 -14.569,-5.293Z" style="fill:#4c6663;fill-rule:nonzero;"/><path d="M1090.62,712.546l10.399,-20.331c9.806,5.747 20.549,8.62 32.228,8.62c9.307,-0 13.96,-1.936 13.96,-5.809c-0,-1.374 -0.5,-2.514 -1.499,-3.419c-1,-0.906 -2.951,-1.843 -5.856,-2.811c-2.904,-0.968 -7.26,-2.139 -13.069,-3.513c-12.117,-2.873 -20.908,-6.808 -26.373,-11.805c-5.465,-4.997 -8.198,-11.68 -8.198,-20.049c0,-8.869 3.482,-15.974 10.446,-21.314c6.964,-5.34 16.692,-8.01 29.184,-8.01c6.808,-0 13.866,1.046 21.173,3.138c7.308,2.093 13.648,4.888 19.019,8.385l-10.399,20.33c-3.998,-2.498 -8.823,-4.543 -14.475,-6.136c-5.653,-1.593 -10.79,-2.389 -15.412,-2.389c-3.685,-0 -6.636,0.484 -8.853,1.452c-2.217,0.968 -3.326,2.233 -3.326,3.794c-0,1.374 0.531,2.53 1.593,3.467c1.061,0.937 3.076,1.874 6.042,2.81c2.967,0.937 7.293,2.093 12.976,3.467c12.117,2.873 20.908,6.823 26.373,11.851c5.465,5.028 8.198,11.727 8.198,20.096c-0,9.182 -3.545,16.474 -10.634,21.876c-7.089,5.403 -17.066,8.104 -29.933,8.104c-8.119,0 -15.973,-1.062 -23.562,-3.185c-7.589,-2.124 -14.256,-4.997 -20.002,-8.619Z" style="fill:#4c6663;fill-rule:nonzero;"/><path d="M1336.74,721.821l-25.201,-0l-0.469,-11.43c-3.56,4.372 -8.073,7.792 -13.538,10.259c-5.465,2.467 -11.476,3.7 -18.035,3.7c-8.681,0 -16.395,-2.17 -23.14,-6.511c-6.746,-4.341 -12.055,-10.29 -15.927,-17.847c-3.873,-7.558 -5.809,-16.146 -5.809,-25.764c0,-9.619 1.936,-18.207 5.809,-25.765c3.872,-7.557 9.181,-13.506 15.927,-17.847c6.745,-4.341 14.459,-6.511 23.14,-6.511c6.559,-0 12.57,1.233 18.035,3.7c5.465,2.467 9.978,5.887 13.538,10.259l0.469,-11.43l25.201,0l0,95.187Zm-50.591,-21.455c6.996,0 12.648,-2.404 16.958,-7.214c4.309,-4.809 6.464,-11.117 6.464,-18.924c0,-7.808 -2.155,-14.116 -6.464,-18.925c-4.31,-4.81 -9.962,-7.214 -16.958,-7.214c-6.995,-0 -12.648,2.404 -16.957,7.214c-4.31,4.809 -6.465,11.117 -6.465,18.925c0,7.807 2.155,14.115 6.465,18.924c4.309,4.81 9.962,7.214 16.957,7.214Z" style="fill:#4c6663;fill-rule:nonzero;"/><path d="M1453.56,721.821l-27.732,-0l0,-54.807c0,-5.871 -1.514,-10.493 -4.544,-13.866c-3.029,-3.373 -7.229,-5.059 -12.601,-5.059c-6.37,-0 -11.461,2.076 -15.271,6.23c-3.81,4.153 -5.715,9.572 -5.715,16.255l0,51.247l-27.731,-0l-0,-95.187l25.202,0l0.468,11.43c3.56,-4.309 8.104,-7.713 13.632,-10.212c5.527,-2.498 11.601,-3.747 18.222,-3.747c11.118,-0 19.909,3.466 26.373,10.399c6.464,6.933 9.697,16.364 9.697,28.294l-0,59.023Z" style="fill:#4c6663;fill-rule:nonzero;"/><path d="M1505.65,598.341c-0,4.434 -1.484,8.072 -4.45,10.914c-2.967,2.842 -6.793,4.263 -11.477,4.263c-4.684,0 -8.51,-1.421 -11.477,-4.263c-2.966,-2.842 -4.45,-6.48 -4.45,-10.914c0,-4.435 1.484,-8.073 4.45,-10.915c2.967,-2.842 6.793,-4.263 11.477,-4.263c4.684,0 8.51,1.421 11.477,4.263c2.966,2.842 4.45,6.48 4.45,10.915Zm-2.061,123.48l-27.732,-0l0,-95.187l27.732,0l-0,95.187Z" style="fill:#4c6663;fill-rule:nonzero;"/><path d="M1678.79,721.821l-27.731,-0l-0,-54.807c-0,-5.996 -1.39,-10.65 -4.169,-13.96c-2.78,-3.31 -6.699,-4.965 -11.758,-4.965c-5.621,-0 -10.103,1.873 -13.444,5.621c-3.342,3.747 -5.013,9.369 -5.013,16.864l0,51.247l-27.731,-0l0,-54.807c0,-5.996 -1.39,-10.65 -4.169,-13.96c-2.779,-3.31 -6.699,-4.965 -11.758,-4.965c-5.621,-0 -10.102,1.873 -13.444,5.621c-3.342,3.747 -5.012,9.369 -5.012,16.864l-0,51.247l-27.732,-0l0,-95.187l25.202,0l0.469,10.962c3.31,-4.185 7.432,-7.48 12.366,-9.884c4.935,-2.405 10.337,-3.607 16.208,-3.607c6.433,-0 12.008,1.436 16.723,4.309c4.716,2.873 8.385,6.902 11.009,12.086c3.622,-4.997 8.463,-8.978 14.521,-11.945c6.059,-2.967 12.679,-4.45 19.862,-4.45c10.93,-0 19.596,3.466 25.998,10.399c6.402,6.933 9.603,16.364 9.603,28.294l0,59.023Z" style="fill:#4c6663;fill-rule:nonzero;"/><path d="M1798.33,721.821l-25.202,-0l-0.468,-11.43c-3.56,4.372 -8.073,7.792 -13.538,10.259c-5.465,2.467 -11.476,3.7 -18.035,3.7c-8.681,0 -16.395,-2.17 -23.14,-6.511c-6.746,-4.341 -12.055,-10.29 -15.927,-17.847c-3.873,-7.558 -5.809,-16.146 -5.809,-25.764c0,-9.619 1.936,-18.207 5.809,-25.765c3.872,-7.557 9.181,-13.506 15.927,-17.847c6.745,-4.341 14.459,-6.511 23.14,-6.511c6.559,-0 12.57,1.233 18.035,3.7c5.465,2.467 9.978,5.887 13.538,10.259l0.468,-11.43l25.202,0l0,95.187Zm-50.591,-21.455c6.996,0 12.648,-2.404 16.958,-7.214c4.309,-4.809 6.464,-11.117 6.464,-18.924c0,-7.808 -2.155,-14.116 -6.464,-18.925c-4.31,-4.81 -9.962,-7.214 -16.958,-7.214c-6.995,-0 -12.648,2.404 -16.957,7.214c-4.31,4.809 -6.465,11.117 -6.465,18.925c0,7.807 2.155,14.115 6.465,18.924c4.309,4.81 9.962,7.214 16.957,7.214Z" style="fill:#4c6663;fill-rule:nonzero;"/><path d="M1883.5,697.93l0,23.329c-2.436,0.374 -5.262,0.687 -8.478,0.936c-3.217,0.25 -6.262,0.375 -9.135,0.375c-13.179,0 -22.688,-3.248 -28.528,-9.743c-5.84,-6.496 -8.76,-16.083 -8.76,-28.762l0,-33.821l-17.144,-0l-0,-23.61l17.144,0l0,-27.637l27.732,-0l-0,27.637l27.544,0l-3.092,23.61l-24.452,-0l-0,31.666c-0,6.121 1.358,10.43 4.075,12.929c2.717,2.498 7.292,3.747 13.726,3.747c3.622,0 6.745,-0.218 9.368,-0.656Z" style="fill:#4c6663;fill-rule:nonzero;"/><path d="M1977.28,692.59l10.681,18.925c-5.309,3.997 -11.711,7.136 -19.206,9.416c-7.495,2.279 -15.178,3.419 -23.047,3.419c-10.368,0 -19.503,-2.076 -27.404,-6.23c-7.901,-4.153 -14.069,-9.993 -18.503,-17.519c-4.435,-7.527 -6.652,-16.318 -6.652,-26.373c0,-9.931 2.108,-18.66 6.324,-26.186c4.216,-7.526 10.056,-13.397 17.52,-17.613c7.463,-4.216 16.004,-6.324 25.623,-6.324c14.428,-0 25.655,4.372 33.681,13.116c8.026,8.744 12.039,20.955 12.039,36.632l-0,10.305l-68.486,0c1.811,5.747 5.184,10.197 10.118,13.351c4.934,3.154 10.993,4.731 18.176,4.731c9.806,0 19.518,-3.217 29.136,-9.65Zm-34.664,-47.593c-6.183,0 -11.305,1.733 -15.365,5.2c-4.059,3.466 -6.745,8.447 -8.057,14.943l43.471,-0l0,-0.75c0,-5.871 -1.827,-10.571 -5.481,-14.1c-3.653,-3.529 -8.509,-5.293 -14.568,-5.293Z" style="fill:#4c6663;fill-rule:nonzero;"/><path d="M2100.38,721.821l-25.202,-0l-0.469,-11.43c-3.56,4.372 -8.072,7.792 -13.537,10.259c-5.466,2.467 -11.415,3.7 -17.848,3.7c-10.805,0 -19.424,-3.466 -25.858,-10.399c-6.433,-6.933 -9.649,-16.364 -9.649,-28.294l-0,-59.023l27.731,0l-0,54.807c-0,5.809 1.499,10.415 4.497,13.819c2.998,3.404 7.027,5.106 12.086,5.106c6.121,0 11.07,-2.092 14.849,-6.277c3.779,-4.184 5.668,-9.618 5.668,-16.301l0,-51.154l27.732,0l-0,95.187Z" style="fill:#4c6663;fill-rule:nonzero;"/><path d="M2151.35,721.821l-27.732,-0l0,-95.187l25.202,0l0.656,15.084c3.248,-4.872 7.667,-8.869 13.257,-11.992c5.59,-3.123 11.633,-4.684 18.128,-4.684c1.562,-0 3.232,0.093 5.012,0.281c1.781,0.187 3.108,0.374 3.982,0.562l0,25.014c-1.062,-0.187 -2.295,-0.328 -3.7,-0.421c-1.406,-0.094 -2.733,-0.141 -3.982,-0.141c-9.994,0 -17.629,3.108 -22.907,9.322c-5.277,6.215 -7.916,14.35 -7.916,24.406l-0,37.756Z" style="fill:#4c6663;fill-rule:nonzero;"/><path d="M2199.41,712.546l10.4,-20.331c9.806,5.747 20.548,8.62 32.228,8.62c9.306,-0 13.96,-1.936 13.96,-5.809c-0,-1.374 -0.5,-2.514 -1.499,-3.419c-1,-0.906 -2.952,-1.843 -5.856,-2.811c-2.904,-0.968 -7.261,-2.139 -13.069,-3.513c-12.117,-2.873 -20.908,-6.808 -26.373,-11.805c-5.465,-4.997 -8.198,-11.68 -8.198,-20.049c-0,-8.869 3.482,-15.974 10.446,-21.314c6.964,-5.34 16.692,-8.01 29.184,-8.01c6.808,-0 13.866,1.046 21.173,3.138c7.308,2.093 13.647,4.888 19.019,8.385l-10.4,20.33c-3.997,-2.498 -8.822,-4.543 -14.474,-6.136c-5.653,-1.593 -10.79,-2.389 -15.412,-2.389c-3.685,-0 -6.636,0.484 -8.853,1.452c-2.218,0.968 -3.326,2.233 -3.326,3.794c-0,1.374 0.531,2.53 1.592,3.467c1.062,0.937 3.076,1.874 6.043,2.81c2.967,0.937 7.292,2.093 12.976,3.467c12.117,2.873 20.908,6.823 26.373,11.851c5.465,5.028 8.198,11.727 8.198,20.096c-0,9.182 -3.545,16.474 -10.634,21.876c-7.089,5.403 -17.067,8.104 -29.933,8.104c-8.12,0 -15.974,-1.062 -23.562,-3.185c-7.589,-2.124 -14.257,-4.997 -20.003,-8.619Z" style="fill:#4c6663;fill-rule:nonzero;"/><path d="M2312.87,749.552l-23.047,0c3.123,-8.494 5.824,-16.864 8.104,-25.108c2.279,-8.245 4.138,-16.333 5.574,-24.265l28.106,-0c-2.061,8.057 -4.59,16.192 -7.588,24.406c-2.998,8.213 -6.715,16.535 -11.149,24.967Z" style="fill:#4c6663;fill-rule:nonzero;"/><path d="M1016.79,879.965l10.68,18.925c-5.309,3.997 -11.711,7.136 -19.206,9.416c-7.495,2.279 -15.177,3.419 -23.047,3.419c-10.368,0 -19.502,-2.077 -27.403,-6.23c-7.901,-4.154 -14.069,-9.993 -18.504,-17.52c-4.434,-7.526 -6.651,-16.317 -6.651,-26.373c-0,-9.93 2.108,-18.659 6.323,-26.185c4.216,-7.526 10.056,-13.398 17.52,-17.613c7.464,-4.216 16.005,-6.324 25.624,-6.324c14.427,-0 25.654,4.372 33.68,13.116c8.026,8.744 12.039,20.955 12.039,36.632l-0,10.305l-68.486,0c1.812,5.746 5.185,10.197 10.119,13.351c4.934,3.154 10.992,4.731 18.175,4.731c9.806,-0 19.518,-3.217 29.137,-9.65Zm-34.664,-47.593c-6.184,-0 -11.305,1.733 -15.365,5.2c-4.06,3.466 -6.746,8.447 -8.057,14.943l43.471,-0l-0,-0.75c-0,-5.871 -1.827,-10.571 -5.481,-14.1c-3.654,-3.529 -8.51,-5.293 -14.568,-5.293Z" style="fill:#4c6663;fill-rule:nonzero;"/><path d="M1108.33,885.305l0,23.328c-2.435,0.375 -5.262,0.688 -8.478,0.937c-3.217,0.25 -6.262,0.375 -9.135,0.375c-13.178,0 -22.688,-3.248 -28.528,-9.743c-5.839,-6.496 -8.759,-16.083 -8.759,-28.762l-0,-33.822l-17.145,0l-0,-23.609l17.145,0l-0,-27.638l27.731,0l0,27.638l27.544,0l-3.091,23.609l-24.453,0l0,31.667c0,6.121 1.359,10.43 4.076,12.929c2.716,2.498 7.292,3.747 13.725,3.747c3.622,0 6.745,-0.218 9.368,-0.656Z" style="fill:#4c6663;fill-rule:nonzero;"/><path d="M1200.7,909.196l-27.731,-0l-0,-139.126l27.731,-2.623l0,141.749Z" style="fill:#4c6663;fill-rule:nonzero;"/><path d="M1303.19,879.965l10.681,18.925c-5.309,3.997 -11.711,7.136 -19.206,9.416c-7.495,2.279 -15.178,3.419 -23.047,3.419c-10.368,0 -19.503,-2.077 -27.404,-6.23c-7.901,-4.154 -14.069,-9.993 -18.503,-17.52c-4.435,-7.526 -6.652,-16.317 -6.652,-26.373c0,-9.93 2.108,-18.659 6.324,-26.185c4.216,-7.526 10.056,-13.398 17.519,-17.613c7.464,-4.216 16.005,-6.324 25.624,-6.324c14.428,-0 25.655,4.372 33.681,13.116c8.026,8.744 12.038,20.955 12.038,36.632l0,10.305l-68.485,0c1.811,5.746 5.184,10.197 10.118,13.351c4.934,3.154 10.993,4.731 18.176,4.731c9.805,-0 19.518,-3.217 29.136,-9.65Zm-34.664,-47.593c-6.183,-0 -11.305,1.733 -15.365,5.2c-4.06,3.466 -6.745,8.447 -8.057,14.943l43.471,-0l0,-0.75c0,-5.871 -1.827,-10.571 -5.481,-14.1c-3.653,-3.529 -8.51,-5.293 -14.568,-5.293Z" style="fill:#4c6663;fill-rule:nonzero;"/><path d="M1409.72,950.418l-27.732,0l0,-136.409l25.202,0l0.469,11.43c3.56,-4.372 8.073,-7.792 13.538,-10.259c5.465,-2.467 11.476,-3.7 18.034,-3.7c8.682,-0 16.396,2.17 23.141,6.511c6.746,4.341 12.055,10.29 15.927,17.847c3.873,7.558 5.809,16.146 5.809,25.764c-0,9.619 -1.936,18.207 -5.809,25.764c-3.872,7.558 -9.181,13.507 -15.927,17.848c-6.745,4.341 -14.459,6.511 -23.141,6.511c-6.12,0 -11.71,-1.077 -16.77,-3.232c-5.059,-2.155 -9.306,-5.137 -12.741,-8.947l-0,50.872Zm22.86,-62.677c6.995,0 12.647,-2.404 16.957,-7.214c4.31,-4.809 6.465,-11.117 6.465,-18.925c-0,-7.807 -2.155,-14.115 -6.465,-18.924c-4.31,-4.81 -9.962,-7.214 -16.957,-7.214c-6.996,-0 -12.648,2.404 -16.958,7.214c-4.309,4.809 -6.464,11.117 -6.464,18.924c-0,7.808 2.155,14.116 6.464,18.925c4.31,4.81 9.962,7.214 16.958,7.214Z" style="fill:#4c6663;fill-rule:nonzero;"/><path d="M1594.1,909.196l-25.202,-0l-0.469,-11.43c-3.56,4.372 -8.072,7.791 -13.537,10.258c-5.465,2.468 -11.415,3.701 -17.848,3.701c-10.805,0 -19.424,-3.466 -25.858,-10.399c-6.433,-6.933 -9.649,-16.364 -9.649,-28.294l-0,-59.023l27.731,0l0,54.807c0,5.809 1.499,10.415 4.497,13.819c2.998,3.404 7.027,5.106 12.086,5.106c6.121,0 11.071,-2.092 14.849,-6.277c3.779,-4.185 5.668,-9.618 5.668,-16.302l0,-51.153l27.732,0l-0,95.187Z" style="fill:#4c6663;fill-rule:nonzero;"/><path d="M1642.53,909.196l-25.202,-0l0,-139.126l27.732,-2.623l-0,56.212c3.435,-3.81 7.682,-6.792 12.741,-8.947c5.059,-2.155 10.649,-3.232 16.77,-3.232c8.682,-0 16.396,2.17 23.141,6.511c6.746,4.341 12.055,10.29 15.927,17.847c3.872,7.558 5.809,16.146 5.809,25.764c-0,9.619 -1.937,18.207 -5.809,25.764c-3.872,7.558 -9.181,13.507 -15.927,17.848c-6.745,4.341 -14.459,6.511 -23.141,6.511c-6.558,0 -12.569,-1.233 -18.035,-3.701c-5.465,-2.467 -9.977,-5.886 -13.537,-10.258l-0.469,11.43Zm25.39,-21.455c6.995,0 12.647,-2.404 16.957,-7.214c4.31,-4.809 6.464,-11.117 6.464,-18.925c0,-7.807 -2.154,-14.115 -6.464,-18.924c-4.31,-4.81 -9.962,-7.214 -16.957,-7.214c-6.996,-0 -12.648,2.404 -16.958,7.214c-4.31,4.809 -6.464,11.117 -6.464,18.924c-0,7.808 2.154,14.116 6.464,18.925c4.31,4.81 9.962,7.214 16.958,7.214Z" style="fill:#4c6663;fill-rule:nonzero;"/><path d="M1765.54,909.196l-27.732,-0l0,-139.126l27.732,-2.623l-0,141.749Z" style="fill:#4c6663;fill-rule:nonzero;"/><path d="M1818.57,785.716c-0,4.434 -1.483,8.072 -4.45,10.914c-2.967,2.842 -6.793,4.263 -11.477,4.263c-4.684,-0 -8.51,-1.421 -11.477,-4.263c-2.966,-2.842 -4.45,-6.48 -4.45,-10.914c0,-4.435 1.484,-8.073 4.45,-10.915c2.967,-2.842 6.793,-4.263 11.477,-4.263c4.684,0 8.51,1.421 11.477,4.263c2.967,2.842 4.45,6.48 4.45,10.915Zm-2.061,123.48l-27.732,-0l0,-95.187l27.732,0l-0,95.187Z" style="fill:#4c6663;fill-rule:nonzero;"/><path d="M1912.44,878.372l11.992,19.768c-4.747,3.998 -10.525,7.261 -17.332,9.791c-6.808,2.529 -14.022,3.794 -21.642,3.794c-9.806,0 -18.519,-2.123 -26.139,-6.371c-7.62,-4.247 -13.6,-10.133 -17.941,-17.66c-4.341,-7.526 -6.511,-16.223 -6.511,-26.092c-0,-9.868 2.17,-18.565 6.511,-26.092c4.341,-7.526 10.321,-13.412 17.941,-17.66c7.62,-4.247 16.333,-6.37 26.139,-6.37c7.182,-0 13.99,1.139 20.424,3.419c6.433,2.28 11.898,5.137 16.395,8.573l-11.992,19.768c-3.061,-2.186 -6.496,-3.951 -10.306,-5.294c-3.81,-1.343 -7.682,-2.014 -11.617,-2.014c-7.807,0 -13.928,2.373 -18.363,7.12c-4.434,4.747 -6.652,10.93 -6.652,18.55c0,7.62 2.233,13.804 6.699,18.55c4.466,4.747 10.602,7.121 18.41,7.121c4.247,-0 8.432,-0.797 12.554,-2.389c4.122,-1.593 7.932,-3.763 11.43,-6.512Z" style="fill:#4c6663;fill-rule:nonzero;"/><path d="M1970.62,895.33c-0,4.497 -1.515,8.198 -4.544,11.102c-3.029,2.904 -6.917,4.356 -11.664,4.356c-4.747,0 -8.635,-1.452 -11.664,-4.356c-3.03,-2.904 -4.544,-6.605 -4.544,-11.102c-0,-4.497 1.514,-8.198 4.544,-11.102c3.029,-2.904 6.917,-4.357 11.664,-4.357c4.747,0 8.635,1.453 11.664,4.357c3.029,2.904 4.544,6.605 4.544,11.102Z" style="fill:#4c6663;fill-rule:nonzero;"/></g></svg>