<?xml version="1.0" encoding="UTF-8" standalone="no"?><!DOCTYPE svg PUBLIC "-//W3C//DTD SVG 1.1//EN" "http://www.w3.org/Graphics/SVG/1.1/DTD/svg11.dtd"><svg width="100%" height="100%" viewBox="0 0 2018 928" version="1.1" xmlns="http://www.w3.org/2000/svg" xmlns:xlink="http://www.w3.org/1999/xlink" xml:space="preserve" xmlns:serif="http://www.serif.com/" style="fill-rule:evenodd;clip-rule:evenodd;stroke-linejoin:round;stroke-miterlimit:2;"><path d="M379.04,927.721l-202.11,0l-0,-754.767l-176.93,-0l22.53,-172.954l356.51,-0l0,927.721Z" style="fill:#4c6663;fill-rule:nonzero;"/><g><path d="M680.186,158.44l-28.949,-0l-0,-131.163l54.339,0c15.677,0 28.059,4.185 37.147,12.554c9.087,8.37 13.631,19.831 13.631,34.384c0,14.552 -4.544,26.014 -13.631,34.383c-9.088,8.369 -21.47,12.554 -37.147,12.554l-25.39,0l0,37.288Zm21.923,-106.336l-21.923,0l0,44.221l21.923,-0c7.995,-0 14.147,-1.905 18.457,-5.715c4.309,-3.81 6.464,-9.275 6.464,-16.395c0,-7.121 -2.155,-12.586 -6.464,-16.396c-4.31,-3.81 -10.462,-5.715 -18.457,-5.715Z" style="fill:#4c6663;fill-rule:nonzero;"/><path d="M801.512,158.44l-27.732,-0l0,-95.187l25.202,0l0.656,15.084c3.248,-4.872 7.667,-8.869 13.257,-11.992c5.59,-3.123 11.632,-4.684 18.128,-4.684c1.562,-0 3.232,0.093 5.012,0.281c1.78,0.187 3.108,0.374 3.982,0.562l0,25.014c-1.062,-0.187 -2.295,-0.328 -3.701,-0.421c-1.405,-0.094 -2.732,-0.141 -3.981,-0.141c-9.994,0 -17.629,3.107 -22.907,9.322c-5.278,6.215 -7.916,14.35 -7.916,24.406l-0,37.756Z" style="fill:#4c6663;fill-rule:nonzero;"/><path d="M899.977,160.969c-10.181,0 -19.128,-2.123 -26.841,-6.371c-7.714,-4.247 -13.757,-10.133 -18.129,-17.66c-4.372,-7.526 -6.558,-16.223 -6.558,-26.092c0,-9.868 2.186,-18.565 6.558,-26.092c4.372,-7.526 10.415,-13.412 18.129,-17.66c7.713,-4.247 16.66,-6.37 26.841,-6.37c10.118,-0 19.05,2.123 26.795,6.37c7.745,4.248 13.803,10.134 18.175,17.66c4.372,7.527 6.558,16.224 6.558,26.092c0,9.869 -2.186,18.566 -6.558,26.092c-4.372,7.527 -10.43,13.413 -18.175,17.66c-7.745,4.248 -16.677,6.371 -26.795,6.371Zm0,-23.984c6.995,0 12.648,-2.404 16.958,-7.214c4.309,-4.809 6.464,-11.117 6.464,-18.925c-0,-7.807 -2.155,-14.115 -6.464,-18.924c-4.31,-4.81 -9.963,-7.214 -16.958,-7.214c-6.995,-0 -12.648,2.404 -16.957,7.214c-4.31,4.809 -6.465,11.117 -6.465,18.924c0,7.808 2.155,14.116 6.465,18.925c4.309,4.81 9.962,7.214 16.957,7.214Z" style="fill:#4c6663;fill-rule:nonzero;"/><path d="M999.661,34.96c-0,4.434 -1.484,8.072 -4.451,10.914c-2.966,2.842 -6.792,4.263 -11.476,4.263c-4.685,-0 -8.51,-1.421 -11.477,-4.263c-2.967,-2.842 -4.45,-6.48 -4.45,-10.914c-0,-4.435 1.483,-8.073 4.45,-10.915c2.967,-2.842 6.792,-4.263 11.477,-4.263c4.684,0 8.51,1.421 11.476,4.263c2.967,2.842 4.451,6.48 4.451,10.915Zm-54.152,164.327l0,-23.328c1.249,0.125 2.436,0.234 3.56,0.328c1.125,0.094 2.311,0.141 3.56,0.141c6.121,-0 10.525,-1.25 13.21,-3.748c2.686,-2.498 4.029,-6.808 4.029,-12.929l-0,-96.498l27.731,0l0,98.653c0,12.679 -2.935,22.266 -8.806,28.762c-5.871,6.496 -15.365,9.744 -28.481,9.744c-2.499,-0 -5.059,-0.094 -7.683,-0.281c-2.623,-0.188 -4.996,-0.469 -7.12,-0.844Z" style="fill:#4c6663;fill-rule:nonzero;"/><path d="M1100.09,129.209l10.681,18.925c-5.309,3.997 -11.711,7.136 -19.206,9.416c-7.495,2.279 -15.177,3.419 -23.047,3.419c-10.368,0 -19.503,-2.077 -27.404,-6.23c-7.901,-4.153 -14.069,-9.993 -18.503,-17.52c-4.435,-7.526 -6.652,-16.317 -6.652,-26.373c0,-9.93 2.108,-18.659 6.324,-26.185c4.216,-7.526 10.056,-13.398 17.52,-17.613c7.463,-4.216 16.005,-6.324 25.623,-6.324c14.428,-0 25.655,4.372 33.681,13.116c8.026,8.744 12.039,20.955 12.039,36.632l-0,10.305l-68.486,0c1.811,5.746 5.184,10.197 10.118,13.351c4.935,3.154 10.993,4.731 18.176,4.731c9.806,-0 19.518,-3.217 29.136,-9.65Zm-34.664,-47.593c-6.183,-0 -11.305,1.733 -15.365,5.2c-4.059,3.466 -6.745,8.447 -8.057,14.943l43.471,-0l0,-0.75c0,-5.871 -1.827,-10.571 -5.48,-14.1c-3.654,-3.529 -8.51,-5.293 -14.569,-5.293Z" style="fill:#4c6663;fill-rule:nonzero;"/><path d="M1202.4,127.616l11.992,19.769c-4.747,3.997 -10.524,7.26 -17.332,9.79c-6.808,2.529 -14.022,3.794 -21.642,3.794c-9.806,0 -18.519,-2.123 -26.139,-6.371c-7.62,-4.247 -13.6,-10.133 -17.941,-17.66c-4.341,-7.526 -6.511,-16.223 -6.511,-26.092c-0,-9.868 2.17,-18.565 6.511,-26.092c4.341,-7.526 10.321,-13.412 17.941,-17.66c7.62,-4.247 16.333,-6.37 26.139,-6.37c7.183,-0 13.991,1.14 20.424,3.419c6.433,2.28 11.898,5.137 16.395,8.573l-11.992,19.768c-3.06,-2.186 -6.495,-3.951 -10.305,-5.294c-3.81,-1.342 -7.683,-2.014 -11.618,-2.014c-7.807,0 -13.928,2.373 -18.362,7.12c-4.435,4.747 -6.652,10.931 -6.652,18.55c-0,7.62 2.233,13.804 6.699,18.551c4.465,4.746 10.602,7.12 18.409,7.12c4.247,-0 8.432,-0.797 12.554,-2.389c4.123,-1.593 7.932,-3.763 11.43,-6.512Z" style="fill:#4c6663;fill-rule:nonzero;"/><path d="M1292.81,134.549l-0,23.329c-2.436,0.374 -5.263,0.687 -8.479,0.936c-3.217,0.25 -6.262,0.375 -9.135,0.375c-13.178,0 -22.688,-3.248 -28.528,-9.743c-5.839,-6.496 -8.759,-16.083 -8.759,-28.762l-0,-33.822l-17.145,0l-0,-23.609l17.145,0l-0,-27.638l27.731,0l0,27.638l27.544,0l-3.091,23.609l-24.453,0l0,31.667c0,6.121 1.359,10.43 4.076,12.929c2.716,2.498 7.292,3.747 13.725,3.747c3.622,0 6.745,-0.218 9.369,-0.656Z" style="fill:#4c6663;fill-rule:nonzero;"/><path d="M1339.93,34.96c0,4.434 -1.483,8.072 -4.45,10.914c-2.967,2.842 -6.792,4.263 -11.477,4.263c-4.684,-0 -8.51,-1.421 -11.476,-4.263c-2.967,-2.842 -4.45,-6.48 -4.45,-10.914c-0,-4.435 1.483,-8.073 4.45,-10.915c2.966,-2.842 6.792,-4.263 11.476,-4.263c4.685,0 8.51,1.421 11.477,4.263c2.967,2.842 4.45,6.48 4.45,10.915Zm-2.061,123.48l-27.731,-0l-0,-95.187l27.731,0l0,95.187Z" style="fill:#4c6663;fill-rule:nonzero;"/><path d="M1407.76,160.969c-10.181,0 -19.128,-2.123 -26.841,-6.371c-7.714,-4.247 -13.757,-10.133 -18.129,-17.66c-4.372,-7.526 -6.558,-16.223 -6.558,-26.092c-0,-9.868 2.186,-18.565 6.558,-26.092c4.372,-7.526 10.415,-13.412 18.129,-17.66c7.713,-4.247 16.66,-6.37 26.841,-6.37c10.118,-0 19.05,2.123 26.795,6.37c7.744,4.248 13.803,10.134 18.175,17.66c4.372,7.527 6.558,16.224 6.558,26.092c0,9.869 -2.186,18.566 -6.558,26.092c-4.372,7.527 -10.431,13.413 -18.175,17.66c-7.745,4.248 -16.677,6.371 -26.795,6.371Zm-0,-23.984c6.995,0 12.648,-2.404 16.957,-7.214c4.31,-4.809 6.465,-11.117 6.465,-18.925c-0,-7.807 -2.155,-14.115 -6.465,-18.924c-4.309,-4.81 -9.962,-7.214 -16.957,-7.214c-6.995,-0 -12.648,2.404 -16.957,7.214c-4.31,4.809 -6.465,11.117 -6.465,18.924c0,7.808 2.155,14.116 6.465,18.925c4.309,4.81 9.962,7.214 16.957,7.214Z" style="fill:#4c6663;fill-rule:nonzero;"/><path d="M1571.25,158.44l-27.732,-0l0,-54.807c0,-5.872 -1.515,-10.493 -4.544,-13.866c-3.029,-3.373 -7.229,-5.059 -12.601,-5.059c-6.37,-0 -11.461,2.076 -15.271,6.23c-3.81,4.153 -5.715,9.572 -5.715,16.255l0,51.247l-27.731,-0l-0,-95.187l25.202,0l0.468,11.43c3.56,-4.31 8.104,-7.714 13.632,-10.212c5.527,-2.498 11.601,-3.747 18.222,-3.747c11.117,-0 19.908,3.466 26.373,10.399c6.464,6.933 9.697,16.364 9.697,28.294l-0,59.023Z" style="fill:#4c6663;fill-rule:nonzero;"/><path d="M1738.11,158.44l-25.202,-0l-0.468,-11.43c-3.561,4.372 -8.073,7.791 -13.538,10.259c-5.465,2.467 -11.477,3.7 -18.035,3.7c-8.682,0 -16.395,-2.17 -23.141,-6.511c-6.745,-4.341 -12.054,-10.29 -15.927,-17.848c-3.872,-7.557 -5.808,-16.145 -5.808,-25.764c-0,-9.618 1.936,-18.206 5.808,-25.764c3.873,-7.557 9.182,-13.506 15.927,-17.847c6.746,-4.341 14.459,-6.511 23.141,-6.511c6.121,-0 11.711,1.077 16.77,3.232c5.059,2.155 9.306,5.137 12.741,8.947l0,-53.589l27.732,-2.623l-0,141.749Zm-50.591,-21.455c6.995,0 12.647,-2.404 16.957,-7.214c4.31,-4.809 6.465,-11.117 6.465,-18.925c-0,-7.807 -2.155,-14.115 -6.465,-18.924c-4.31,-4.81 -9.962,-7.214 -16.957,-7.214c-6.996,-0 -12.648,2.404 -16.958,7.214c-4.309,4.809 -6.464,11.117 -6.464,18.924c-0,7.808 2.155,14.116 6.464,18.925c4.31,4.81 9.962,7.214 16.958,7.214Z" style="fill:#4c6663;fill-rule:nonzero;"/><path d="M1776.33,64.471l-22.485,0c2.749,-7.807 5.153,-15.474 7.214,-23c2.061,-7.526 3.873,-15.38 5.434,-23.562l27.076,-0c-1.811,7.557 -4.122,15.161 -6.933,22.812c-2.811,7.652 -6.246,15.568 -10.306,23.75Z" style="fill:#4c6663;fill-rule:nonzero;"/><path d="M1900.93,158.44l-25.202,-0l-0.469,-11.43c-3.56,4.372 -8.072,7.791 -13.538,10.259c-5.465,2.467 -11.414,3.7 -17.847,3.7c-10.805,0 -19.425,-3.466 -25.858,-10.399c-6.433,-6.933 -9.65,-16.364 -9.65,-28.294l0,-59.023l27.732,0l-0,54.807c-0,5.809 1.499,10.415 4.497,13.819c2.998,3.404 7.026,5.106 12.086,5.106c6.121,0 11.07,-2.092 14.849,-6.277c3.779,-4.185 5.668,-9.618 5.668,-16.301l0,-51.154l27.732,0l-0,95.187Z" style="fill:#4c6663;fill-rule:nonzero;"/><path d="M2017.76,158.44l-27.732,-0l0,-54.807c0,-5.872 -1.514,-10.493 -4.543,-13.866c-3.03,-3.373 -7.23,-5.059 -12.601,-5.059c-6.371,-0 -11.462,2.076 -15.271,6.23c-3.81,4.153 -5.715,9.572 -5.715,16.255l-0,51.247l-27.732,-0l0,-95.187l25.202,0l0.468,11.43c3.561,-4.31 8.104,-7.714 13.632,-10.212c5.528,-2.498 11.602,-3.747 18.222,-3.747c11.118,-0 19.909,3.466 26.373,10.399c6.465,6.933 9.697,16.364 9.697,28.294l-0,59.023Z" style="fill:#4c6663;fill-rule:nonzero;"/><path d="M720.847,314.991l11.992,19.768c-4.747,3.998 -10.524,7.261 -17.332,9.791c-6.808,2.529 -14.022,3.794 -21.642,3.794c-9.806,0 -18.519,-2.124 -26.139,-6.371c-7.62,-4.247 -13.6,-10.134 -17.941,-17.66c-4.341,-7.526 -6.511,-16.223 -6.511,-26.092c-0,-9.868 2.17,-18.565 6.511,-26.092c4.341,-7.526 10.321,-13.413 17.941,-17.66c7.62,-4.247 16.333,-6.37 26.139,-6.37c7.182,-0 13.99,1.139 20.424,3.419c6.433,2.28 11.898,5.137 16.395,8.573l-11.992,19.768c-3.061,-2.186 -6.496,-3.951 -10.306,-5.294c-3.81,-1.343 -7.682,-2.014 -11.617,-2.014c-7.807,-0 -13.928,2.373 -18.363,7.12c-4.434,4.747 -6.651,10.93 -6.651,18.55c-0,7.62 2.232,13.804 6.698,18.55c4.466,4.747 10.602,7.121 18.41,7.121c4.247,-0 8.432,-0.797 12.554,-2.389c4.122,-1.593 7.932,-3.763 11.43,-6.512Z" style="fill:#4c6663;fill-rule:nonzero;"/><path d="M794.11,348.344c-10.18,0 -19.128,-2.124 -26.841,-6.371c-7.714,-4.247 -13.757,-10.134 -18.129,-17.66c-4.372,-7.526 -6.558,-16.223 -6.558,-26.092c0,-9.868 2.186,-18.565 6.558,-26.092c4.372,-7.526 10.415,-13.413 18.129,-17.66c7.713,-4.247 16.661,-6.37 26.841,-6.37c10.119,-0 19.05,2.123 26.795,6.37c7.745,4.247 13.803,10.134 18.175,17.66c4.372,7.527 6.558,16.224 6.558,26.092c0,9.869 -2.186,18.566 -6.558,26.092c-4.372,7.526 -10.43,13.413 -18.175,17.66c-7.745,4.247 -16.676,6.371 -26.795,6.371Zm0,-23.984c6.996,0 12.648,-2.405 16.958,-7.214c4.309,-4.809 6.464,-11.117 6.464,-18.925c0,-7.807 -2.155,-14.115 -6.464,-18.925c-4.31,-4.809 -9.962,-7.213 -16.958,-7.213c-6.995,-0 -12.647,2.404 -16.957,7.213c-4.31,4.81 -6.465,11.118 -6.465,18.925c0,7.808 2.155,14.116 6.465,18.925c4.31,4.809 9.962,7.214 16.957,7.214Z" style="fill:#4c6663;fill-rule:nonzero;"/><path d="M955.627,345.815l-25.201,-0l-0.469,-11.43c-3.56,4.372 -8.073,7.791 -13.538,10.258c-5.465,2.468 -11.414,3.701 -17.847,3.701c-10.805,0 -19.425,-3.466 -25.858,-10.399c-6.433,-6.933 -9.65,-16.364 -9.65,-28.294l0,-59.023l27.732,0l-0,54.807c-0,5.809 1.499,10.415 4.497,13.819c2.998,3.404 7.026,5.106 12.085,5.106c6.121,0 11.071,-2.092 14.85,-6.277c3.779,-4.185 5.668,-9.619 5.668,-16.302l-0,-51.153l27.731,0l0,95.187Z" style="fill:#4c6663;fill-rule:nonzero;"/><path d="M1006.59,345.815l-27.731,-0l-0,-95.187l25.202,0l0.656,15.084c-0,-0 7.666,-8.869 13.256,-11.992c5.59,-3.123 11.633,-4.685 18.129,-4.685c1.561,0 3.232,0.094 5.012,0.281c1.78,0.188 3.108,0.375 3.982,0.563l-0,25.014c-1.062,-0.187 -2.295,-0.328 -3.701,-0.421c-1.405,-0.094 -2.732,-0.141 -3.981,-0.141c-9.994,0 -17.629,3.107 -22.907,9.322c-5.278,6.215 -7.917,14.35 -7.917,24.405l0,37.757Z" style="fill:#4c6663;fill-rule:nonzero;"/><path d="M1125.2,321.924l-0,23.328c-2.436,0.375 -5.262,0.687 -8.479,0.937c-3.217,0.25 -6.261,0.375 -9.135,0.375c-13.178,0 -22.688,-3.248 -28.527,-9.743c-5.84,-6.496 -8.76,-16.083 -8.76,-28.763l-0,-33.821l-17.145,0l0,-23.609l17.145,0l-0,-27.638l27.731,0l0,27.638l27.544,0l-3.091,23.609l-24.453,0l0,31.667c0,6.121 1.359,10.43 4.076,12.929c2.717,2.498 7.292,3.747 13.725,3.747c3.623,0 6.745,-0.219 9.369,-0.656Z" style="fill:#4c6663;fill-rule:nonzero;"/><path d="M1341.81,345.815l-27.731,-0l-0,-54.808c-0,-5.996 -1.39,-10.649 -4.17,-13.959c-2.779,-3.31 -6.698,-4.965 -11.757,-4.965c-5.622,-0 -10.103,1.873 -13.444,5.621c-3.342,3.747 -5.013,9.368 -5.013,16.863l0,51.248l-27.731,-0l-0,-54.808c-0,-5.996 -1.39,-10.649 -4.169,-13.959c-2.78,-3.31 -6.699,-4.965 -11.758,-4.965c-5.621,-0 -10.103,1.873 -13.444,5.621c-3.342,3.747 -5.013,9.368 -5.013,16.863l0,51.248l-27.731,-0l0,-95.187l25.202,0l0.468,10.962c3.311,-4.185 7.433,-7.48 12.367,-9.885c4.934,-2.404 10.337,-3.606 16.208,-3.606c6.433,-0 12.008,1.436 16.723,4.309c4.716,2.873 8.385,6.902 11.009,12.086c3.622,-4.997 8.463,-8.979 14.521,-11.945c6.059,-2.967 12.679,-4.45 19.862,-4.45c10.93,-0 19.596,3.466 25.998,10.399c6.402,6.933 9.603,16.364 9.603,28.293l0,59.024Z" style="fill:#4c6663;fill-rule:nonzero;"/><path d="M1443.36,316.584l10.681,18.925c-5.309,3.997 -11.711,7.136 -19.206,9.415c-7.495,2.28 -15.178,3.42 -23.047,3.42c-10.369,0 -19.503,-2.077 -27.404,-6.23c-7.901,-4.154 -14.069,-9.993 -18.503,-17.52c-4.435,-7.526 -6.652,-16.317 -6.652,-26.373c-0,-9.931 2.108,-18.659 6.324,-26.185c4.216,-7.527 10.056,-13.398 17.519,-17.614c7.464,-4.216 16.005,-6.323 25.624,-6.323c14.428,-0 25.655,4.372 33.68,13.116c8.026,8.744 12.039,20.955 12.039,36.632l0,10.305l-68.485,0c1.811,5.746 5.184,10.196 10.118,13.351c4.934,3.154 10.993,4.731 18.175,4.731c9.806,-0 19.519,-3.217 29.137,-9.65Zm-34.664,-47.593c-6.184,-0 -11.305,1.733 -15.365,5.199c-4.06,3.467 -6.745,8.448 -8.057,14.944l43.471,-0l-0,-0.75c-0,-5.871 -1.827,-10.571 -5.481,-14.1c-3.654,-3.529 -8.51,-5.293 -14.568,-5.293Zm36.913,-63.614l-31.76,31.573l-25.109,-0l25.858,-31.573l31.011,0Z" style="fill:#4c6663;fill-rule:nonzero;"/><path d="M1534.9,321.924l-0,23.328c-2.436,0.375 -5.262,0.687 -8.479,0.937c-3.216,0.25 -6.261,0.375 -9.134,0.375c-13.179,0 -22.688,-3.248 -28.528,-9.743c-5.84,-6.496 -8.76,-16.083 -8.76,-28.763l-0,-33.821l-17.145,0l0,-23.609l17.145,0l-0,-27.638l27.731,0l0,27.638l27.545,0l-3.092,23.609l-24.453,0l0,31.667c0,6.121 1.359,10.43 4.076,12.929c2.717,2.498 7.292,3.747 13.725,3.747c3.623,0 6.746,-0.219 9.369,-0.656Z" style="fill:#4c6663;fill-rule:nonzero;"/><path d="M1579.96,345.815l-27.731,-0l0,-95.187l25.202,0l0.656,15.084c3.248,-4.872 7.666,-8.869 13.257,-11.992c5.59,-3.123 11.632,-4.685 18.128,-4.685c1.561,0 3.232,0.094 5.012,0.281c1.78,0.188 3.108,0.375 3.982,0.563l0,25.014c-1.062,-0.187 -2.295,-0.328 -3.701,-0.421c-1.405,-0.094 -2.732,-0.141 -3.981,-0.141c-9.994,0 -17.629,3.107 -22.907,9.322c-5.278,6.215 -7.917,14.35 -7.917,24.405l0,37.757Z" style="fill:#4c6663;fill-rule:nonzero;"/><path d="M1729.02,345.815l-25.202,-0l-0.468,-11.43c-3.56,4.372 -8.073,7.791 -13.538,10.258c-5.465,2.468 -11.477,3.701 -18.035,3.701c-8.682,0 -16.395,-2.17 -23.141,-6.511c-6.745,-4.341 -12.054,-10.29 -15.926,-17.848c-3.873,-7.557 -5.809,-16.145 -5.809,-25.764c-0,-9.618 1.936,-18.206 5.809,-25.764c3.872,-7.557 9.181,-13.506 15.926,-17.847c6.746,-4.341 14.459,-6.511 23.141,-6.511c6.558,-0 12.57,1.233 18.035,3.7c5.465,2.467 9.978,5.887 13.538,10.259l0.468,-11.43l25.202,0l0,95.187Zm-50.591,-21.455c6.995,0 12.648,-2.405 16.957,-7.214c4.31,-4.809 6.465,-11.117 6.465,-18.925c-0,-7.807 -2.155,-14.115 -6.465,-18.925c-4.309,-4.809 -9.962,-7.213 -16.957,-7.213c-6.995,-0 -12.648,2.404 -16.957,7.213c-4.31,4.81 -6.465,11.118 -6.465,18.925c0,7.808 2.155,14.116 6.465,18.925c4.309,4.809 9.962,7.214 16.957,7.214Z" style="fill:#4c6663;fill-rule:nonzero;"/><path d="M1822.33,342.723l-0,-10.399c-3.435,3.997 -7.729,7.135 -12.882,9.415c-5.153,2.28 -10.79,3.42 -16.911,3.42c-8.681,-0 -16.426,-2.139 -23.234,-6.418c-6.808,-4.278 -12.164,-10.071 -16.068,-17.379c-3.903,-7.308 -5.855,-15.552 -5.855,-24.733c-0,-9.182 1.952,-17.426 5.855,-24.734c3.904,-7.307 9.26,-13.1 16.068,-17.379c6.808,-4.278 14.553,-6.417 23.234,-6.417c6.433,-0 12.367,1.233 17.801,3.7c5.434,2.467 9.931,5.887 13.491,10.259l0.468,-11.43l25.202,0l0,92.095c0,15.302 -4.669,26.935 -14.006,34.898c-9.338,7.964 -22.251,11.946 -38.74,11.946c-7.182,-0 -14.615,-0.953 -22.297,-2.858c-7.683,-1.905 -14.616,-4.794 -20.799,-8.666l9.462,-20.611c4.997,2.81 10.197,4.934 15.599,6.371c5.403,1.436 10.447,2.154 15.131,2.154c8.557,0 15.443,-1.92 20.658,-5.761c5.215,-3.842 7.823,-9.666 7.823,-17.473Zm-23.422,-20.611c6.808,-0 12.46,-2.358 16.957,-7.074c4.497,-4.715 6.746,-10.852 6.746,-18.409c-0,-7.558 -2.249,-13.694 -6.746,-18.41c-4.497,-4.716 -10.149,-7.073 -16.957,-7.073c-6.745,-0 -12.382,2.357 -16.911,7.073c-4.528,4.716 -6.792,10.852 -6.792,18.41c0,7.557 2.249,13.694 6.746,18.409c4.497,4.716 10.149,7.074 16.957,7.074Z" style="fill:#4c6663;fill-rule:nonzero;"/><path d="M1951.99,316.584l10.681,18.925c-5.309,3.997 -11.711,7.136 -19.206,9.415c-7.495,2.28 -15.178,3.42 -23.047,3.42c-10.368,0 -19.503,-2.077 -27.404,-6.23c-7.901,-4.154 -14.069,-9.993 -18.503,-17.52c-4.435,-7.526 -6.652,-16.317 -6.652,-26.373c-0,-9.931 2.108,-18.659 6.324,-26.185c4.216,-7.527 10.056,-13.398 17.519,-17.614c7.464,-4.216 16.005,-6.323 25.624,-6.323c14.428,-0 25.655,4.372 33.681,13.116c8.025,8.744 12.038,20.955 12.038,36.632l0,10.305l-68.485,0c1.811,5.746 5.184,10.196 10.118,13.351c4.934,3.154 10.993,4.731 18.175,4.731c9.806,-0 19.519,-3.217 29.137,-9.65Zm-34.664,-47.593c-6.183,-0 -11.305,1.733 -15.365,5.199c-4.06,3.467 -6.745,8.448 -8.057,14.944l43.471,-0l0,-0.75c0,-5.871 -1.827,-10.571 -5.481,-14.1c-3.653,-3.529 -8.51,-5.293 -14.568,-5.293Z" style="fill:#4c6663;fill-rule:nonzero;"/><path d="M745.393,574.412l-27.732,-0l0,-50.872c-3.435,3.81 -7.682,6.792 -12.741,8.947c-5.059,2.155 -10.649,3.232 -16.77,3.232c-8.682,-0 -16.395,-2.17 -23.141,-6.511c-6.745,-4.341 -12.054,-10.29 -15.927,-17.848c-3.872,-7.557 -5.808,-16.145 -5.808,-25.764c-0,-9.618 1.936,-18.206 5.808,-25.764c3.873,-7.557 9.182,-13.506 15.927,-17.847c6.746,-4.341 14.459,-6.512 23.141,-6.512c6.558,0 12.57,1.234 18.035,3.701c5.465,2.467 9.977,5.887 13.537,10.259l0.469,-11.43l25.202,-0l-0,136.409Zm-50.591,-62.677c6.995,-0 12.647,-2.405 16.957,-7.214c4.31,-4.809 6.464,-11.118 6.464,-18.925c0,-7.807 -2.154,-14.115 -6.464,-18.925c-4.31,-4.809 -9.962,-7.214 -16.957,-7.214c-6.996,0 -12.648,2.405 -16.958,7.214c-4.309,4.81 -6.464,11.118 -6.464,18.925c-0,7.807 2.155,14.116 6.464,18.925c4.31,4.809 9.962,7.214 16.958,7.214Z" style="fill:#4c6663;fill-rule:nonzero;"/><path d="M860.254,533.189l-25.202,0l-0.469,-11.429c-3.56,4.372 -8.072,7.791 -13.538,10.258c-5.465,2.467 -11.414,3.701 -17.847,3.701c-10.805,-0 -19.425,-3.466 -25.858,-10.399c-6.433,-6.933 -9.65,-16.364 -9.65,-28.294l0,-59.023l27.732,-0l-0,54.807c-0,5.809 1.499,10.415 4.497,13.819c2.998,3.404 7.026,5.106 12.086,5.106c6.121,-0 11.07,-2.092 14.849,-6.277c3.779,-4.185 5.668,-9.619 5.668,-16.302l0,-51.153l27.732,-0l-0,95.186Z" style="fill:#4c6663;fill-rule:nonzero;"/><path d="M962.748,503.959l10.68,18.925c-5.309,3.997 -11.711,7.136 -19.206,9.415c-7.495,2.28 -15.177,3.42 -23.047,3.42c-10.368,-0 -19.503,-2.077 -27.404,-6.23c-7.901,-4.154 -14.068,-9.994 -18.503,-17.52c-4.434,-7.526 -6.652,-16.317 -6.652,-26.373c0,-9.931 2.108,-18.659 6.324,-26.185c4.216,-7.527 10.056,-13.398 17.52,-17.614c7.464,-4.216 16.005,-6.324 25.623,-6.324c14.428,0 25.655,4.372 33.681,13.117c8.026,8.744 12.039,20.954 12.039,36.631l-0,10.306l-68.486,0c1.812,5.746 5.184,10.196 10.119,13.35c4.934,3.155 10.992,4.732 18.175,4.732c9.806,-0 19.518,-3.217 29.137,-9.65Zm-34.665,-47.593c-6.183,-0 -11.305,1.733 -15.364,5.199c-4.06,3.467 -6.746,8.448 -8.058,14.943l43.471,0l0,-0.749c0,-5.871 -1.826,-10.571 -5.48,-14.1c-3.654,-3.529 -8.51,-5.293 -14.569,-5.293Zm36.913,-63.614l-31.76,31.573l-25.108,-0l25.858,-31.573l31.01,-0Z" style="fill:#4c6663;fill-rule:nonzero;"/><path d="M1019.43,533.189l-25.202,0l-0,-139.125l27.731,-2.624l0,56.213c3.435,-3.81 7.683,-6.793 12.742,-8.947c5.059,-2.155 10.649,-3.233 16.77,-3.233c8.681,0 16.395,2.171 23.14,6.512c6.746,4.341 12.055,10.29 15.927,17.847c3.873,7.558 5.809,16.146 5.809,25.764c-0,9.619 -1.936,18.207 -5.809,25.764c-3.872,7.558 -9.181,13.507 -15.927,17.848c-6.745,4.341 -14.459,6.511 -23.14,6.511c-6.558,-0 -12.57,-1.234 -18.035,-3.701c-5.465,-2.467 -9.978,-5.886 -13.538,-10.258l-0.468,11.429Zm25.389,-21.454c6.995,-0 12.648,-2.405 16.957,-7.214c4.31,-4.809 6.465,-11.118 6.465,-18.925c-0,-7.807 -2.155,-14.115 -6.465,-18.925c-4.309,-4.809 -9.962,-7.214 -16.957,-7.214c-6.995,0 -12.648,2.405 -16.958,7.214c-4.309,4.81 -6.464,11.118 -6.464,18.925c0,7.807 2.155,14.116 6.464,18.925c4.31,4.809 9.963,7.214 16.958,7.214Z" style="fill:#4c6663;fill-rule:nonzero;"/><path d="M1193.97,503.959l10.681,18.925c-5.309,3.997 -11.711,7.136 -19.206,9.415c-7.495,2.28 -15.178,3.42 -23.047,3.42c-10.368,-0 -19.503,-2.077 -27.404,-6.23c-7.901,-4.154 -14.069,-9.994 -18.503,-17.52c-4.435,-7.526 -6.652,-16.317 -6.652,-26.373c-0,-9.931 2.108,-18.659 6.324,-26.185c4.216,-7.527 10.056,-13.398 17.519,-17.614c7.464,-4.216 16.005,-6.324 25.624,-6.324c14.428,0 25.655,4.372 33.681,13.117c8.025,8.744 12.038,20.954 12.038,36.631l0,10.306l-68.485,0c1.811,5.746 5.184,10.196 10.118,13.35c4.934,3.155 10.993,4.732 18.175,4.732c9.806,-0 19.519,-3.217 29.137,-9.65Zm-34.664,-47.593c-6.183,-0 -11.305,1.733 -15.365,5.199c-4.06,3.467 -6.745,8.448 -8.057,14.943l43.471,0l0,-0.749c0,-5.871 -1.827,-10.571 -5.481,-14.1c-3.653,-3.529 -8.51,-5.293 -14.568,-5.293Zm36.913,-63.614l-31.76,31.573l-25.109,-0l25.858,-31.573l31.011,-0Z" style="fill:#4c6663;fill-rule:nonzero;"/><path d="M1296.28,502.366l11.992,19.768c-4.747,3.998 -10.524,7.261 -17.332,9.791c-6.808,2.529 -14.022,3.794 -21.642,3.794c-9.806,-0 -18.519,-2.124 -26.139,-6.371c-7.62,-4.247 -13.6,-10.134 -17.941,-17.66c-4.341,-7.526 -6.511,-16.223 -6.511,-26.092c-0,-9.868 2.17,-18.566 6.511,-26.092c4.341,-7.526 10.321,-13.413 17.941,-17.66c7.62,-4.247 16.333,-6.371 26.139,-6.371c7.183,0 13.991,1.14 20.424,3.42c6.433,2.28 11.898,5.137 16.395,8.572l-11.992,19.768c-3.06,-2.186 -6.496,-3.95 -10.305,-5.293c-3.81,-1.343 -7.683,-2.014 -11.618,-2.014c-7.807,-0 -13.928,2.373 -18.362,7.12c-4.435,4.747 -6.652,10.93 -6.652,18.55c-0,7.62 2.233,13.803 6.698,18.55c4.466,4.747 10.603,7.121 18.41,7.121c4.247,-0 8.432,-0.797 12.554,-2.39c4.122,-1.592 7.932,-3.763 11.43,-6.511Z" style="fill:#4c6663;fill-rule:nonzero;"/><path d="M1369.54,535.719c-10.181,-0 -19.128,-2.124 -26.842,-6.371c-7.714,-4.247 -13.756,-10.134 -18.128,-17.66c-4.373,-7.526 -6.559,-16.223 -6.559,-26.092c0,-9.868 2.186,-18.566 6.559,-26.092c4.372,-7.526 10.414,-13.413 18.128,-17.66c7.714,-4.247 16.661,-6.371 26.842,-6.371c10.118,0 19.049,2.124 26.794,6.371c7.745,4.247 13.803,10.134 18.175,17.66c4.373,7.526 6.559,16.224 6.559,26.092c-0,9.869 -2.186,18.566 -6.559,26.092c-4.372,7.526 -10.43,13.413 -18.175,17.66c-7.745,4.247 -16.676,6.371 -26.794,6.371Zm-0,-23.984c6.995,-0 12.647,-2.405 16.957,-7.214c4.31,-4.809 6.464,-11.118 6.464,-18.925c0,-7.807 -2.154,-14.115 -6.464,-18.925c-4.31,-4.809 -9.962,-7.214 -16.957,-7.214c-6.996,0 -12.648,2.405 -16.958,7.214c-4.31,4.81 -6.464,11.118 -6.464,18.925c-0,7.807 2.154,14.116 6.464,18.925c4.31,4.809 9.962,7.214 16.958,7.214Z" style="fill:#4c6663;fill-rule:nonzero;"/><path d="M1469.22,409.709c-0,4.435 -1.483,8.073 -4.45,10.915c-2.967,2.842 -6.793,4.263 -11.477,4.263c-4.684,-0 -8.51,-1.421 -11.477,-4.263c-2.966,-2.842 -4.45,-6.48 -4.45,-10.915c0,-4.434 1.484,-8.072 4.45,-10.914c2.967,-2.842 6.793,-4.263 11.477,-4.263c4.684,-0 8.51,1.421 11.477,4.263c2.967,2.842 4.45,6.48 4.45,10.914Zm-2.061,123.48l-27.732,0l0,-95.186l27.732,-0l-0,95.186Z" style="fill:#4c6663;fill-rule:nonzero;"/><path d="M1484.59,523.914l10.399,-20.33c9.806,5.746 20.549,8.619 32.228,8.619c9.307,0 13.96,-1.936 13.96,-5.808c-0,-1.374 -0.5,-2.514 -1.499,-3.42c-0.999,-0.905 -2.951,-1.842 -5.856,-2.81c-2.904,-0.969 -7.26,-2.14 -13.069,-3.514c-12.117,-2.873 -20.908,-6.808 -26.373,-11.804c-5.465,-4.997 -8.198,-11.68 -8.198,-20.049c0,-8.87 3.482,-15.974 10.447,-21.314c6.964,-5.341 16.691,-8.011 29.183,-8.011c6.808,0 13.866,1.047 21.174,3.139c7.307,2.092 13.647,4.887 19.018,8.385l-10.399,20.33c-3.998,-2.498 -8.822,-4.544 -14.475,-6.136c-5.652,-1.593 -10.79,-2.389 -15.412,-2.389c-3.685,-0 -6.636,0.484 -8.853,1.452c-2.217,0.968 -3.326,2.233 -3.326,3.794c0,1.374 0.531,2.53 1.593,3.466c1.062,0.937 3.076,1.874 6.043,2.811c2.966,0.937 7.292,2.092 12.975,3.467c12.117,2.873 20.908,6.823 26.373,11.851c5.465,5.028 8.198,11.727 8.198,20.096c-0,9.181 -3.545,16.473 -10.634,21.876c-7.089,5.403 -17.066,8.104 -29.933,8.104c-8.119,-0 -15.973,-1.062 -23.562,-3.185c-7.589,-2.124 -14.256,-4.997 -20.002,-8.62Z" style="fill:#4c6663;fill-rule:nonzero;"/><path d="M675.877,761.787l-27.732,-0l0,-136.409l25.202,-0l0.469,11.43c3.56,-4.372 8.072,-7.792 13.537,-10.259c5.466,-2.467 11.477,-3.701 18.035,-3.701c8.682,0 16.396,2.171 23.141,6.512c6.746,4.34 12.055,10.29 15.927,17.847c3.872,7.557 5.809,16.145 5.809,25.764c-0,9.619 -1.937,18.207 -5.809,25.764c-3.872,7.558 -9.181,13.507 -15.927,17.848c-6.745,4.34 -14.459,6.511 -23.141,6.511c-6.121,-0 -11.711,-1.078 -16.77,-3.232c-5.059,-2.155 -9.306,-5.138 -12.741,-8.948l-0,50.873Zm22.86,-62.677c6.995,-0 12.647,-2.405 16.957,-7.214c4.31,-4.809 6.464,-11.118 6.464,-18.925c0,-7.807 -2.154,-14.116 -6.464,-18.925c-4.31,-4.809 -9.962,-7.214 -16.957,-7.214c-6.996,0 -12.648,2.405 -16.958,7.214c-4.31,4.809 -6.464,11.118 -6.464,18.925c-0,7.807 2.154,14.116 6.464,18.925c4.31,4.809 9.962,7.214 16.958,7.214Z" style="fill:#4c6663;fill-rule:nonzero;"/><path d="M796.359,720.564l-27.732,0l0,-95.186l25.202,-0l0.656,15.083c3.248,-4.871 7.667,-8.869 13.257,-11.992c5.59,-3.122 11.633,-4.684 18.128,-4.684c1.562,0 3.233,0.094 5.013,0.281c1.78,0.188 3.107,0.375 3.981,0.562l0,25.015c-1.061,-0.188 -2.295,-0.328 -3.7,-0.422c-1.406,-0.093 -2.733,-0.14 -3.982,-0.14c-9.993,-0 -17.629,3.107 -22.907,9.322c-5.277,6.214 -7.916,14.349 -7.916,24.405l-0,37.756Z" style="fill:#4c6663;fill-rule:nonzero;"/><path d="M927.428,691.334l10.68,18.925c-5.309,3.997 -11.711,7.135 -19.206,9.415c-7.495,2.28 -15.177,3.42 -23.047,3.42c-10.368,-0 -19.503,-2.077 -27.404,-6.23c-7.901,-4.154 -14.068,-9.994 -18.503,-17.52c-4.435,-7.526 -6.652,-16.317 -6.652,-26.373c0,-9.931 2.108,-18.659 6.324,-26.186c4.216,-7.526 10.056,-13.397 17.52,-17.613c7.463,-4.216 16.005,-6.324 25.623,-6.324c14.428,0 25.655,4.372 33.681,13.116c8.026,8.745 12.039,20.955 12.039,36.632l-0,10.306l-68.486,-0c1.811,5.746 5.184,10.196 10.118,13.35c4.935,3.154 10.993,4.732 18.176,4.732c9.806,-0 19.518,-3.217 29.137,-9.65Zm-34.665,-47.593c-6.183,-0 -11.305,1.733 -15.365,5.199c-4.059,3.467 -6.745,8.448 -8.057,14.943l43.471,0l0,-0.749c0,-5.871 -1.827,-10.571 -5.48,-14.1c-3.654,-3.529 -8.51,-5.293 -14.569,-5.293Zm36.913,-63.614l-31.76,31.572l-25.108,0l25.857,-31.572l31.011,-0Z" style="fill:#4c6663;fill-rule:nonzero;"/><path d="M950.287,711.289l10.4,-20.33c9.806,5.746 20.548,8.619 32.228,8.619c9.306,0 13.959,-1.936 13.959,-5.808c0,-1.374 -0.499,-2.514 -1.499,-3.42c-0.999,-0.906 -2.951,-1.842 -5.855,-2.811c-2.904,-0.968 -7.261,-2.139 -13.069,-3.513c-12.117,-2.873 -20.908,-6.808 -26.373,-11.804c-5.466,-4.997 -8.198,-11.68 -8.198,-20.05c-0,-8.869 3.482,-15.973 10.446,-21.313c6.964,-5.341 16.692,-8.011 29.184,-8.011c6.808,0 13.865,1.046 21.173,3.139c7.308,2.092 13.647,4.887 19.019,8.385l-10.4,20.33c-3.997,-2.498 -8.822,-4.544 -14.474,-6.137c-5.653,-1.592 -10.79,-2.389 -15.412,-2.389c-3.685,0 -6.636,0.484 -8.853,1.453c-2.218,0.968 -3.326,2.232 -3.326,3.794c-0,1.374 0.531,2.529 1.592,3.466c1.062,0.937 3.076,1.874 6.043,2.811c2.967,0.937 7.292,2.092 12.976,3.466c12.117,2.873 20.908,6.824 26.373,11.852c5.465,5.028 8.198,11.726 8.198,20.096c-0,9.181 -3.545,16.473 -10.634,21.876c-7.089,5.402 -17.067,8.104 -29.933,8.104c-8.12,-0 -15.974,-1.062 -23.562,-3.186c-7.589,-2.123 -14.257,-4.996 -20.003,-8.619Z" style="fill:#4c6663;fill-rule:nonzero;"/><path d="M1129.23,691.334l10.681,18.925c-5.309,3.997 -11.711,7.135 -19.206,9.415c-7.495,2.28 -15.178,3.42 -23.047,3.42c-10.368,-0 -19.503,-2.077 -27.404,-6.23c-7.901,-4.154 -14.069,-9.994 -18.503,-17.52c-4.435,-7.526 -6.652,-16.317 -6.652,-26.373c-0,-9.931 2.108,-18.659 6.324,-26.186c4.216,-7.526 10.056,-13.397 17.519,-17.613c7.464,-4.216 16.005,-6.324 25.624,-6.324c14.428,0 25.655,4.372 33.681,13.116c8.025,8.745 12.038,20.955 12.038,36.632l0,10.306l-68.485,-0c1.811,5.746 5.184,10.196 10.118,13.35c4.934,3.154 10.993,4.732 18.175,4.732c9.806,-0 19.519,-3.217 29.137,-9.65Zm-34.664,-47.593c-6.183,-0 -11.305,1.733 -15.365,5.199c-4.06,3.467 -6.745,8.448 -8.057,14.943l43.471,0l0,-0.749c0,-5.871 -1.827,-10.571 -5.481,-14.1c-3.654,-3.529 -8.51,-5.293 -14.568,-5.293Z" style="fill:#4c6663;fill-rule:nonzero;"/><path d="M1254.3,720.564l-27.732,0l0,-54.807c0,-5.871 -1.514,-10.493 -4.543,-13.866c-3.03,-3.372 -7.23,-5.059 -12.601,-5.059c-6.371,0 -11.461,2.077 -15.271,6.23c-3.81,4.154 -5.715,9.572 -5.715,16.255l-0,51.247l-27.732,0l0,-95.186l25.202,-0l0.469,11.43c3.56,-4.31 8.104,-7.714 13.631,-10.212c5.528,-2.499 11.602,-3.748 18.222,-3.748c11.118,0 19.909,3.467 26.373,10.4c6.465,6.932 9.697,16.364 9.697,28.293l-0,59.023Z" style="fill:#4c6663;fill-rule:nonzero;"/><path d="M1336.65,696.674l0,23.328c-2.436,0.375 -5.262,0.687 -8.478,0.937c-3.217,0.25 -6.262,0.375 -9.135,0.375c-13.179,-0 -22.688,-3.248 -28.528,-9.744c-5.84,-6.495 -8.76,-16.083 -8.76,-28.762l0,-33.821l-17.144,0l-0,-23.609l17.144,-0l0,-27.638l27.732,0l-0,27.638l27.544,-0l-3.092,23.609l-24.452,0l-0,31.666c-0,6.121 1.358,10.431 4.075,12.929c2.717,2.499 7.292,3.748 13.725,3.748c3.623,-0 6.746,-0.219 9.369,-0.656Z" style="fill:#4c6663;fill-rule:nonzero;"/><path d="M1430.43,691.334l10.681,18.925c-5.309,3.997 -11.711,7.135 -19.206,9.415c-7.495,2.28 -15.178,3.42 -23.047,3.42c-10.368,-0 -19.503,-2.077 -27.404,-6.23c-7.901,-4.154 -14.069,-9.994 -18.503,-17.52c-4.435,-7.526 -6.652,-16.317 -6.652,-26.373c0,-9.931 2.108,-18.659 6.324,-26.186c4.216,-7.526 10.056,-13.397 17.519,-17.613c7.464,-4.216 16.005,-6.324 25.624,-6.324c14.428,0 25.655,4.372 33.681,13.116c8.026,8.745 12.038,20.955 12.038,36.632l0,10.306l-68.485,-0c1.811,5.746 5.184,10.196 10.118,13.35c4.934,3.154 10.993,4.732 18.176,4.732c9.806,-0 19.518,-3.217 29.136,-9.65Zm-34.664,-47.593c-6.183,-0 -11.305,1.733 -15.365,5.199c-4.06,3.467 -6.745,8.448 -8.057,14.943l43.471,0l0,-0.749c0,-5.871 -1.827,-10.571 -5.481,-14.1c-3.653,-3.529 -8.51,-5.293 -14.568,-5.293Zm36.913,-63.614l-31.76,31.572l-25.108,0l25.857,-31.572l31.011,-0Z" style="fill:#4c6663;fill-rule:nonzero;"/><path d="M1536.96,761.787l-27.732,-0l0,-136.409l25.202,-0l0.469,11.43c3.56,-4.372 8.073,-7.792 13.538,-10.259c5.465,-2.467 11.476,-3.701 18.034,-3.701c8.682,0 16.396,2.171 23.141,6.512c6.746,4.34 12.055,10.29 15.927,17.847c3.873,7.557 5.809,16.145 5.809,25.764c-0,9.619 -1.936,18.207 -5.809,25.764c-3.872,7.558 -9.181,13.507 -15.927,17.848c-6.745,4.34 -14.459,6.511 -23.141,6.511c-6.12,-0 -11.71,-1.078 -16.77,-3.232c-5.059,-2.155 -9.306,-5.138 -12.741,-8.948l-0,50.873Zm22.86,-62.677c6.995,-0 12.647,-2.405 16.957,-7.214c4.31,-4.809 6.465,-11.118 6.465,-18.925c-0,-7.807 -2.155,-14.116 -6.465,-18.925c-4.31,-4.809 -9.962,-7.214 -16.957,-7.214c-6.996,0 -12.648,2.405 -16.958,7.214c-4.309,4.809 -6.464,11.118 -6.464,18.925c-0,7.807 2.155,14.116 6.464,18.925c4.31,4.809 9.962,7.214 16.958,7.214Z" style="fill:#4c6663;fill-rule:nonzero;"/><path d="M1726.96,720.564l-25.202,0l-0.468,-11.43c-3.56,4.372 -8.073,7.792 -13.538,10.259c-5.465,2.467 -11.477,3.701 -18.035,3.701c-8.682,-0 -16.395,-2.171 -23.141,-6.511c-6.745,-4.341 -12.054,-10.29 -15.927,-17.848c-3.872,-7.557 -5.808,-16.145 -5.808,-25.764c-0,-9.619 1.936,-18.207 5.808,-25.764c3.873,-7.557 9.182,-13.507 15.927,-17.847c6.746,-4.341 14.459,-6.512 23.141,-6.512c6.558,0 12.57,1.234 18.035,3.701c5.465,2.467 9.978,5.887 13.538,10.259l0.468,-11.43l25.202,-0l0,95.186Zm-50.591,-21.454c6.995,-0 12.648,-2.405 16.957,-7.214c4.31,-4.809 6.465,-11.118 6.465,-18.925c-0,-7.807 -2.155,-14.116 -6.465,-18.925c-4.309,-4.809 -9.962,-7.214 -16.957,-7.214c-6.995,0 -12.648,2.405 -16.958,7.214c-4.309,4.809 -6.464,11.118 -6.464,18.925c-0,7.807 2.155,14.116 6.464,18.925c4.31,4.809 9.963,7.214 16.958,7.214Z" style="fill:#4c6663;fill-rule:nonzero;"/><path d="M1777.92,720.564l-27.731,0l-0,-95.186l25.201,-0l0.656,15.083c3.248,-4.871 7.667,-8.869 13.257,-11.992c5.59,-3.122 11.633,-4.684 18.129,-4.684c1.561,0 3.232,0.094 5.012,0.281c1.78,0.188 3.107,0.375 3.982,0.562l-0,25.015c-1.062,-0.188 -2.296,-0.328 -3.701,-0.422c-1.405,-0.093 -2.733,-0.14 -3.982,-0.14c-9.993,-0 -17.629,3.107 -22.906,9.322c-5.278,6.214 -7.917,14.349 -7.917,24.405l0,37.756Z" style="fill:#4c6663;fill-rule:nonzero;"/><path d="M680.186,907.939l-28.949,0l-0,-131.162l56.962,-0c15.052,-0 26.716,3.966 34.992,11.898c8.276,7.932 12.414,18.394 12.414,31.385c-0,9.119 -2.046,17.005 -6.137,23.656c-4.091,6.652 -9.977,11.633 -17.66,14.944l33.54,49.279l-33.352,0l-29.98,-44.876l-21.83,-0l0,44.876Zm24.64,-106.335l-24.64,-0l0,37.1l24.64,0c6.746,0 12.008,-1.53 15.787,-4.591c3.778,-3.06 5.668,-7.744 5.668,-14.053c-0,-6.246 -1.89,-10.883 -5.668,-13.912c-3.779,-3.03 -9.041,-4.544 -15.787,-4.544Z" style="fill:#4c6663;fill-rule:nonzero;"/><path d="M883.02,907.939l-97.248,0l0,-131.162l95.374,-0l-0,24.827l-66.424,-0l-0,27.731l57.055,0l0,24.828l-57.055,-0l-0,28.949l68.298,-0l-0,24.827Z" style="fill:#4c6663;fill-rule:nonzero;"/><path d="M1018.87,894.635c-4.184,3.373 -9.275,6.293 -15.271,8.76c-5.996,2.467 -12.366,4.357 -19.112,5.668c-6.745,1.312 -13.303,1.968 -19.674,1.968c-13.928,-0 -26.03,-2.905 -36.304,-8.713c-10.274,-5.809 -18.222,-13.866 -23.844,-24.171c-5.621,-10.306 -8.431,-22.236 -8.431,-35.789c-0,-13.491 2.826,-25.405 8.478,-35.742c5.653,-10.337 13.616,-18.409 23.891,-24.218c10.274,-5.809 22.344,-8.713 36.21,-8.713c9.618,0 18.909,1.546 27.872,4.638c8.963,3.091 16.942,7.292 23.937,12.601l-12.46,20.423c-5.247,-3.872 -11.102,-6.839 -17.567,-8.9c-6.464,-2.061 -12.788,-3.092 -18.972,-3.092c-8.119,0 -15.302,1.796 -21.548,5.387c-6.246,3.592 -11.148,8.604 -14.709,15.037c-3.56,6.433 -5.34,13.96 -5.34,22.579c0,8.619 1.749,16.239 5.247,22.86c3.497,6.62 8.463,11.804 14.896,15.552c6.433,3.747 13.991,5.621 22.672,5.621c7.62,-0 14.647,-1.312 21.08,-3.935l0,-23.796l-27.263,-0l-0,-24.828l56.212,0l0,60.803Z" style="fill:#4c6663;fill-rule:nonzero;"/><path d="M1138.69,907.939l-11.243,-29.605l-53.495,-0l-11.243,29.605l-30.448,0l53.964,-131.162l29.886,-0l53.964,131.162l-31.385,0Zm-37.944,-99.964l-18.175,47.78l36.257,0l-18.082,-47.78Z" style="fill:#4c6663;fill-rule:nonzero;"/><path d="M1215.52,907.939l-28.949,0l-0,-131.162l56.962,-0c15.052,-0 26.716,3.966 34.992,11.898c8.276,7.932 12.414,18.394 12.414,31.385c-0,9.119 -2.046,17.005 -6.137,23.656c-4.091,6.652 -9.977,11.633 -17.66,14.944l33.54,49.279l-33.352,0l-29.98,-44.876l-21.83,-0l0,44.876Zm24.64,-106.335l-24.64,-0l0,37.1l24.64,0c6.746,0 12.008,-1.53 15.787,-4.591c3.778,-3.06 5.668,-7.744 5.668,-14.053c-0,-6.246 -1.89,-10.883 -5.668,-13.912c-3.779,-3.03 -9.041,-4.544 -15.787,-4.544Z" style="fill:#4c6663;fill-rule:nonzero;"/><path d="M1372.16,907.939l-51.06,0l0,-131.162l51.06,-0c22.235,-0 39.473,5.73 51.715,17.191c12.242,11.461 18.363,27.591 18.363,48.39c-0,20.799 -6.121,36.928 -18.363,48.389c-12.242,11.462 -29.48,17.192 -51.715,17.192Zm-0,-106.054l-21.829,-0l-0,80.946l21.829,-0c12.866,-0 22.828,-3.56 29.886,-10.68c7.058,-7.121 10.587,-17.052 10.587,-29.793c-0,-12.742 -3.529,-22.672 -10.587,-29.793c-7.058,-7.12 -17.02,-10.68 -29.886,-10.68Z" style="fill:#4c6663;fill-rule:nonzero;"/><path d="M1487.49,894.073c-0,4.497 -1.515,8.198 -4.544,11.102c-3.029,2.905 -6.917,4.357 -11.664,4.357c-4.747,-0 -8.635,-1.452 -11.664,-4.357c-3.029,-2.904 -4.544,-6.605 -4.544,-11.102c0,-4.497 1.515,-8.197 4.544,-11.102c3.029,-2.904 6.917,-4.356 11.664,-4.356c4.747,-0 8.635,1.452 11.664,4.356c3.029,2.905 4.544,6.605 4.544,11.102Z" style="fill:#4c6663;fill-rule:nonzero;"/></g></svg>