<?xml version="1.0" encoding="UTF-8" standalone="no"?><!DOCTYPE svg PUBLIC "-//W3C//DTD SVG 1.1//EN" "http://www.w3.org/Graphics/SVG/1.1/DTD/svg11.dtd"><svg width="100%" height="100%" viewBox="0 0 10637 1671" version="1.1" xmlns="http://www.w3.org/2000/svg" xmlns:xlink="http://www.w3.org/1999/xlink" xml:space="preserve" xmlns:serif="http://www.serif.com/" style="fill-rule:evenodd;clip-rule:evenodd;stroke-linejoin:round;stroke-miterlimit:2;"><g><g><path d="M853.552,859.927c0,7.556 -4.958,17.473 -14.875,29.751c-86.89,103.418 -202.35,155.127 -346.379,155.127c-147.335,-0 -266.809,-50.293 -358.421,-150.877c-89.251,-97.279 -133.877,-220.058 -133.877,-368.338c0,-143.557 43.681,-265.392 131.043,-365.505c91.14,-104.834 207.072,-157.252 347.796,-157.252c153.002,0 272.948,46.987 359.838,140.96c9.445,10.389 14.167,19.598 14.167,27.626c-0,8.972 -16.41,42.264 -49.23,99.876c-32.82,57.612 -53.48,89.96 -61.98,97.043c-3.778,3.778 -8.5,5.667 -14.167,5.667c-2.361,-0 -14.166,-9.445 -35.417,-28.334c-25.5,-22.667 -50.528,-40.376 -75.084,-53.126c-37.306,-18.889 -76.029,-28.333 -116.168,-28.333c-69.418,-0 -124.904,25.972 -166.46,77.917c-38.251,48.168 -57.376,107.668 -57.376,178.502c-0,71.779 19.125,131.988 57.376,180.628c41.556,52.889 97.042,79.334 166.46,79.334c41.084,0 80.043,-8.972 116.876,-26.917c24.084,-11.806 48.64,-28.334 73.668,-49.584c20.778,-17.945 32.348,-26.917 34.709,-26.917c4.722,0 9.444,2.597 14.167,7.792c7.555,8.5 28.097,38.014 61.625,88.543c34.473,52.417 51.709,81.223 51.709,86.417Z" style="fill:#f9f3e8;fill-rule:nonzero;"/><path d="M1913.94,524.173c-0,147.335 -46.987,270.823 -140.961,370.463c-95.862,101.057 -217.224,151.585 -364.087,151.585c-145.919,0 -267.045,-51 -363.38,-153.002c-94.446,-99.64 -141.668,-222.655 -141.668,-369.046c-0,-146.863 47.222,-270.35 141.668,-370.463c96.335,-102.473 217.461,-153.71 363.38,-153.71c144.974,0 265.864,51.237 362.671,153.71c94.918,101.057 142.377,224.545 142.377,370.463Zm-268.462,-1.416c-0,-70.835 -21.487,-131.044 -64.459,-180.628c-44.862,-51.945 -102.238,-77.917 -172.127,-77.917c-66.585,-0 -123.016,26.917 -169.294,80.751c-44.862,51.945 -67.293,111.682 -67.293,179.21c0,72.251 21.014,132.46 63.043,180.627c44.389,50.529 102.237,75.793 173.544,75.793c66.584,0 123.251,-26.681 170.002,-80.043c44.389,-51 66.584,-110.265 66.584,-177.793Z" style="fill:#f9f3e8;fill-rule:nonzero;"/><path d="M2967.24,48.167c0,53.834 -2.243,134.703 -6.729,242.607c-4.486,107.905 -6.729,189.01 -6.729,243.316l-0,466.797c-0,12.751 -6.847,19.126 -20.542,19.126c-11.334,-0 -28.452,0.472 -51.355,1.416c-22.903,0.945 -40.021,1.417 -51.355,1.417c-12.278,0 -30.695,-0.944 -55.25,-2.833c-24.556,-1.889 -42.973,-2.834 -55.251,-2.834c-8.5,0 -18.653,-7.791 -30.459,-23.375c-34,-45.806 -110.501,-147.335 -229.503,-304.587c-32.583,-43.917 -82.167,-108.613 -148.751,-194.086c-1.889,-2.833 -5.431,-5.667 -10.626,-8.5c-3.777,3.306 -5.666,8.5 -5.666,15.584c-0,54.778 1.534,136.946 4.604,246.503c3.069,109.557 4.604,191.724 4.604,246.503c0,16.528 -6.375,24.792 -19.125,24.792l-245.087,-0c-13.694,-0 -20.541,-7.32 -20.541,-21.959c-0,-51.001 2.479,-127.974 7.437,-230.919c4.959,-102.946 7.438,-180.155 7.438,-231.628c-0,-54.307 -2.243,-135.53 -6.73,-243.67c-4.486,-108.14 -6.729,-189.127 -6.729,-242.961c0,-10.389 9.209,-15.584 27.626,-15.584c27.389,0 61.153,-1.889 101.292,-5.667c9.445,-0.944 28.098,-4.014 55.96,-9.208c23.611,-4.25 42.264,-6.375 55.959,-6.375c5.666,-0 14.403,8.028 26.208,24.083l264.212,361.963c23.611,32.584 59.264,80.279 106.96,143.085c11.805,14.639 21.958,21.959 30.458,21.959c6.139,0 9.209,-18.417 9.209,-55.251c-0,-49.584 -2.716,-124.196 -8.146,-223.836c-5.431,-99.64 -8.146,-174.488 -8.146,-224.544c-0,-17.473 4.958,-26.209 14.875,-26.209c28.334,0 71.07,-1.18 128.21,-3.542c57.14,-2.361 99.876,-3.541 128.21,-3.541c8.972,-0 13.458,7.319 13.458,21.958Z" style="fill:#f9f3e8;fill-rule:nonzero;"/><path d="M3788.92,242.961c0,9.445 -5.194,14.167 -15.583,14.167c-17.945,0 -89.015,-3.542 -213.211,-10.625c-2.834,119.474 -4.25,202.822 -4.25,250.045c-0,55.723 2.243,139.543 6.729,251.461c4.486,111.918 6.729,195.739 6.729,251.462c0,8.972 -2.125,14.639 -6.375,17c-1.417,0.944 -8.028,2.125 -19.833,3.542c-28.334,3.778 -69.89,5.666 -124.669,5.666c-60.917,0 -103.654,-1.888 -128.21,-5.666c-13.222,-2.361 -19.833,-9.681 -19.833,-21.959c-0,-55.723 2.361,-139.307 7.083,-250.753c4.723,-111.446 7.084,-195.03 7.084,-250.753c-0,-36.834 -1.889,-119.002 -5.667,-246.503c-94.446,9.444 -169.766,14.167 -225.961,14.167c-7.556,-0 -11.334,-2.362 -11.334,-7.084c0,-6.139 3.306,-24.32 9.917,-54.542c7.556,-33.056 11.806,-53.126 12.75,-60.209c1.417,-22.195 3.07,-44.39 4.959,-66.584c3.305,-35.417 8.972,-53.126 17,-53.126c0.944,-0 4.25,0.236 9.917,0.708c76.501,9.917 189.599,14.875 339.296,14.875c42.5,0 120.89,-4.486 235.169,-13.458c61.39,-4.722 92.321,-7.083 92.793,-7.083c9.445,-0 14.875,0.59 16.292,1.77c1.417,1.181 2.361,5.785 2.833,13.813c0,12.75 -0.472,30.459 -1.416,53.126c-0.945,25.028 -1.417,42.736 -1.417,53.125c-0,11.806 1.535,29.16 4.604,52.064c3.07,22.903 4.604,40.021 4.604,51.354Z" style="fill:#f9f3e8;fill-rule:nonzero;"/><path d="M4709.06,1012.93c-0,3.306 -4.723,5.667 -14.167,7.084c-17.945,2.833 -63.043,4.25 -135.293,4.25c-61.862,-0 -103.891,-1.417 -126.085,-4.25c-10.389,-1.417 -16.292,-2.598 -17.709,-3.542c-2.833,-1.417 -6.139,-6.139 -9.917,-14.167c-7.083,-18.417 -17.472,-45.806 -31.167,-82.168c-18.417,-47.222 -47.223,-116.876 -86.417,-208.96c-8.501,-18.417 -28.098,-28.57 -58.793,-30.459c14.167,0.944 -10.153,1.417 -72.959,1.417c-7.084,-0 -10.625,12.041 -10.625,36.125c-0,32.111 2.951,80.043 8.854,143.793c5.903,63.751 8.854,111.682 8.854,143.794c0,8.028 -2.125,12.75 -6.375,14.167c-6.611,0.472 -13.222,0.944 -19.833,1.416c-27.862,1.889 -71.307,2.834 -130.335,2.834c-67.529,-0 -108.141,-1.417 -121.835,-4.25c-13.695,-2.834 -20.542,-10.153 -20.542,-21.959c-0,-51.945 2.479,-130.335 7.437,-235.169c4.959,-104.835 7.438,-183.461 7.438,-235.878c0,-199.753 -4.486,-355.588 -13.458,-467.506l-0.709,-9.917c-0.472,-8.028 6.966,-13.459 22.313,-16.292c15.347,-2.833 87.48,-5.667 216.399,-8.5c87.362,-1.889 157.015,-2.833 208.96,-2.833c107.668,-0 195.503,24.319 263.504,72.959c76.973,54.778 115.46,133.877 115.46,237.294c-0,68.946 -9.917,123.96 -29.751,165.044c-19.833,41.084 -56.431,80.987 -109.793,119.71c-10.861,7.556 -16.292,14.639 -16.292,21.25c0,-0.472 28.806,58.793 86.418,177.794c57.612,119.002 86.418,184.641 86.418,196.919Zm-297.504,-635.383c0,-57.611 -18.889,-97.515 -56.667,-119.709c-29.278,-17.001 -75.085,-25.501 -137.419,-25.501c-44.861,0 -68.709,6.848 -71.542,20.542c-2.834,16.056 -4.25,62.334 -4.25,138.835c-0,10.861 0.236,26.917 0.708,48.167c0.472,21.251 0.708,37.07 0.708,47.459c0,2.362 7.556,4.723 22.667,7.084c28.806,4.25 59.029,6.375 90.668,6.375c103.418,-0 155.127,-41.084 155.127,-123.252Z" style="fill:#f9f3e8;fill-rule:nonzero;"/><path d="M5514.44,799.718c-0,20.306 -4.014,57.612 -12.042,111.918c-8.5,59.029 -16.056,94.21 -22.667,105.543c-5.667,8.973 -13.458,13.459 -23.375,13.459c-4.25,-0 -11.334,-0.708 -21.251,-2.125c-34.472,-4.722 -135.057,-7.084 -301.753,-7.084c-36.362,0 -90.432,-0.236 -162.211,-0.708c-71.778,-0.472 -125.612,-0.708 -161.502,-0.708c-15.583,-0 -23.375,-6.848 -23.375,-20.542c0,-52.89 2.951,-132.342 8.854,-238.357c5.903,-106.016 8.855,-185.468 8.855,-238.357c-0,-53.834 -2.834,-154.183 -8.501,-301.046c-1.416,-37.778 -4.013,-94.209 -7.791,-169.294l-0.709,-9.916c-0.944,-10.862 4.959,-16.292 17.709,-16.292c34.945,-0 87.48,0.944 157.606,2.833c70.126,1.889 122.661,2.833 157.606,2.833c34.473,0 86.418,-0.944 155.835,-2.833c69.418,-1.889 121.363,-2.833 155.836,-2.833c24.556,-0 38.722,9.208 42.5,27.625c2.361,10.861 6.021,43.799 10.98,98.814c4.958,55.014 7.437,88.424 7.437,100.23c0,9.917 -4.722,14.875 -14.167,14.875c-2.833,0 -7.791,-0.236 -14.875,-0.708c-125.613,-10.389 -238.475,-15.584 -338.587,-15.584c-25.028,0 -40.376,5.903 -46.043,17.709c-2.361,5.667 -3.541,23.848 -3.541,54.542c-0,32.112 4.722,53.362 14.166,63.751c8.028,8.973 23.376,13.459 46.043,13.459c4.722,-0 13.93,-0.355 27.625,-1.063c13.695,-0.708 25.028,-1.062 34.001,-1.062c59.5,-0 119.709,-1.653 180.627,-4.959c5.194,-0.472 18.181,-1.653 38.959,-3.541c16.055,-1.889 28.805,-2.834 38.25,-2.834c11.334,0 17,5.431 17,16.292c0,-9.917 -4.25,26.209 -12.75,108.376c-3.778,37.779 -5.667,75.557 -5.667,113.335c0,9.445 -6.847,14.167 -20.542,14.167c0,-0 -21.25,-2.361 -63.75,-7.083c-26.917,-2.834 -88.307,-4.25 -184.169,-4.25l-75.085,-0c-19.361,-0 -30.694,4.722 -34,14.166c-0.472,2.361 -0.708,17.001 -0.708,43.918c-0,35.889 2.361,59.028 7.083,69.417c8.028,17.945 38.251,28.57 90.668,31.875c-0.945,0 33.528,0 103.418,0c25.028,0 62.216,-2.243 111.564,-6.729c49.348,-4.486 86.299,-6.729 110.855,-6.729c10.389,-0 15.584,8.5 15.584,25.5Z" style="fill:#f9f3e8;fill-rule:nonzero;"/><path d="M5582.44,187.711c-0,-7.556 4.958,-17.473 14.875,-29.751c86.89,-103.418 202.35,-155.127 346.379,-155.127c147.335,0 266.809,50.293 358.421,150.877c89.251,97.279 133.877,220.059 133.877,368.338c-0,143.558 -43.681,265.392 -131.043,365.505c-91.14,104.834 -207.072,157.252 -347.796,157.252c-153.002,-0 -272.948,-46.987 -359.838,-140.96c-9.445,-10.389 -14.167,-19.598 -14.167,-27.626c-0,-8.972 16.41,-42.264 49.23,-99.876c32.82,-57.612 53.48,-89.959 61.98,-97.043c3.778,-3.778 8.5,-5.667 14.167,-5.667c2.361,0 14.166,9.445 35.417,28.334c25.5,22.667 50.528,40.376 75.084,53.126c37.306,18.889 76.029,28.333 116.168,28.333c69.418,0 124.904,-25.972 166.46,-77.917c38.251,-48.167 57.376,-107.668 57.376,-178.502c0,-71.779 -19.125,-131.988 -57.376,-180.628c-41.556,-52.889 -97.042,-79.334 -166.46,-79.334c-41.084,-0 -80.043,8.972 -116.876,26.917c-24.084,11.806 -48.64,28.334 -73.668,49.584c-20.778,17.945 -32.348,26.917 -34.709,26.917c-4.722,-0 -9.444,-2.597 -14.167,-7.792c-7.555,-8.5 -28.097,-38.014 -61.625,-88.543c-34.473,-52.417 -51.709,-81.223 -51.709,-86.417Z" style="fill:#f9f3e8;fill-rule:nonzero;"/><path d="M7463.09,998.054c0,9.917 -2.125,16.056 -6.375,18.417c-1.889,1.417 -8.5,2.597 -19.834,3.542c-28.805,2.833 -69.417,4.25 -121.834,4.25c-74.14,-0 -117.703,-1.417 -130.69,-4.25c-12.986,-2.834 -19.479,-9.209 -19.479,-19.126c0,-37.306 5.313,-168.231 5.313,-168.231c-0,0 5.312,-130.925 5.312,-168.231c0,-18.417 -5.194,-29.042 -15.583,-31.875c-16.056,-3.778 -73.196,-5.667 -171.419,-5.667c-98.696,-0 -156.308,1.889 -172.836,5.667c-10.389,2.361 -15.583,12.986 -15.583,31.875c-0,36.834 1.18,91.966 3.542,165.398c2.361,73.431 3.541,128.564 3.541,165.398c0,14.167 -6.375,22.431 -19.125,24.792c-15.111,2.833 -59.501,4.25 -133.168,4.25c-63.751,-0 -104.363,-1.417 -121.835,-4.25c-13.695,-2.361 -20.542,-9.681 -20.542,-21.959c-0,-51.001 2.479,-127.974 7.438,-230.919c4.958,-102.946 7.437,-180.155 7.437,-231.628c0,-54.779 -2.361,-137.065 -7.083,-246.858c-4.723,-109.793 -7.084,-192.078 -7.084,-246.857c0,-10.389 4.959,-15.583 14.875,-15.583c14.64,-0 36.716,0.708 66.23,2.125c29.515,1.416 51.591,2.125 66.23,2.125c15.112,-0 37.897,-0.709 68.355,-2.125c30.459,-1.417 53.244,-2.125 68.355,-2.125c8.028,-0 12.042,4.25 12.042,12.75c0,35.417 -2.597,88.425 -7.791,159.023c-5.195,70.598 -7.792,123.605 -7.792,159.022c-0,16.528 4.486,26.209 13.458,29.042c12.278,3.778 72.723,5.667 181.336,5.667c101.057,0 159.613,-1.889 175.669,-5.667c11.333,-2.833 17,-12.514 17,-29.042c-0,-34 -1.653,-85.355 -4.958,-154.064c-3.306,-68.709 -4.959,-120.3 -4.959,-154.773c0,-14.639 5.903,-21.958 17.709,-21.958c13.694,-0 34.59,0.708 62.688,2.125c28.098,1.416 49.23,2.125 63.397,2.125c13.694,-0 34.59,-0.709 62.688,-2.125c28.097,-1.417 49.23,-2.125 63.397,-2.125c13.694,-0 20.541,5.666 20.541,17c0,54.306 -2.243,136.238 -6.729,245.795c-4.486,109.557 -6.729,191.724 -6.729,246.503c-0,51.473 2.479,128.682 7.438,231.628c4.958,102.945 7.437,179.918 7.437,230.919Z" style="fill:#f9f3e8;fill-rule:nonzero;"/><path d="M8527.73,1002.3c0,8.5 -5.902,14.403 -17.708,17.709c-14.167,3.778 -58.084,5.666 -131.752,5.666c-67.528,0 -110.973,-1.888 -130.335,-5.666c-16.056,-3.306 -26.208,-13.931 -30.458,-31.876c-16.056,-68.001 -28.57,-104.362 -37.543,-109.084c-7.555,-3.306 -70.834,-4.959 -189.835,-4.959c-80.279,0 -123.016,2.125 -128.21,6.375c-8.028,7.556 -17,32.82 -26.917,75.793c-8.973,39.195 -19.834,60.445 -32.584,63.751c-16.056,3.778 -69.89,5.666 -161.502,5.666c-72.251,0 -108.376,-6.847 -108.376,-20.541c-0,-12.278 53.361,-163.155 160.085,-452.631c115.696,-313.087 178.502,-485.214 188.419,-516.382c5.667,-17.944 12.278,-26.917 19.834,-26.917c12.75,0 32.465,1.181 59.146,3.542c26.681,2.361 46.633,3.542 59.855,3.542c12.75,-0 31.521,-0.827 56.313,-2.479c24.792,-1.653 43.327,-2.48 55.605,-2.48c8.972,0 17.236,7.792 24.792,23.376c23.139,49.584 90.668,219.586 202.586,510.006c112.39,292.309 168.585,444.839 168.585,457.589Zm-502.214,-645.3c-9.917,20.778 -26.681,65.876 -50.293,135.294c-25.5,73.667 -38.25,116.876 -38.25,129.626c0,8.501 14.167,13.223 42.501,14.167c14.639,0.945 38.722,1.417 72.25,1.417c31.168,-0 48.404,-3.778 51.709,-11.334c0.945,-2.361 1.417,-5.666 1.417,-9.916c0,-15.584 -10.861,-58.557 -32.584,-128.919c-21.25,-68 -36.833,-111.445 -46.75,-130.335Z" style="fill:#f9f3e8;fill-rule:nonzero;"/><path d="M9656.12,998.054c0,14.639 -6.847,21.959 -20.541,21.959l-250.754,-0c-13.694,-0 -20.542,-8.264 -20.542,-24.792c0,-47.695 1.771,-119.238 5.313,-214.628c3.542,-95.39 5.313,-166.933 5.313,-214.628c-0,-13.694 -2.125,-21.014 -6.375,-21.958c-5.195,2.833 -36.834,75.792 -94.918,218.878c-34.001,84.056 -68.001,167.877 -102.002,251.461c-4.722,10.861 -10.625,17.236 -17.708,19.125c-2.361,0.472 -11.806,0.709 -28.334,0.709c-24.556,-0 -39.195,-4.723 -43.917,-14.167c-25.5,-51.945 -59.029,-127.502 -100.585,-226.67c-44.389,-104.834 -77.681,-180.627 -99.876,-227.378c-0.944,-2.361 -3.069,-4.958 -6.375,-7.791c-3.306,4.25 -4.958,11.097 -4.958,20.542c-0,46.278 1.18,115.695 3.541,208.252c2.362,92.557 3.542,161.974 3.542,208.253c0,16.528 -6.611,24.792 -19.833,24.792l-236.587,-0c-9.444,-0 -15.229,-1.535 -17.354,-4.604c-2.125,-3.07 -3.188,-8.383 -3.188,-15.938c0,-51.473 2.479,-128.8 7.438,-231.982c4.958,-103.182 7.437,-180.509 7.437,-231.982c0,-54.779 -2.361,-157.488 -7.083,-308.129c-0.472,-39.195 -2.597,-97.515 -6.375,-174.961l-0.708,-12.041c-0.473,-9.445 9.444,-14.167 29.75,-14.167c25.973,-0 64.931,-0.827 116.876,-2.48c51.946,-1.652 90.904,-2.479 116.877,-2.479c5.194,0 12.514,9.917 21.959,29.751l206.835,454.047c14.64,30.695 26.917,46.042 36.834,46.042c5.195,0 16.292,-17.708 33.292,-53.125c47.695,-99.168 118.293,-248.629 211.795,-448.381c8.028,-18.417 16.764,-27.625 26.208,-27.625c13.695,-0 34.355,0.708 61.98,2.125c27.626,1.416 48.522,2.125 62.689,2.125c11.805,-0 29.868,-1.181 54.188,-3.542c24.319,-2.361 42.382,-3.542 54.188,-3.542c14.167,0 21.25,5.667 21.25,17c0,55.723 -2.007,138.954 -6.021,249.691c-4.014,110.738 -6.021,193.968 -6.021,249.691c0,51.473 2.125,128.682 6.375,231.628c4.25,102.945 6.375,179.918 6.375,230.919Z" style="fill:#f9f3e8;fill-rule:nonzero;"/><path d="M10636.5,405.172c0,114.279 -29.986,206.836 -89.959,277.67c-64.223,75.084 -152.766,112.626 -265.629,112.626c-18.889,0 -47.341,-1.062 -85.355,-3.187c-38.014,-2.125 -66.466,-3.188 -85.355,-3.188c-20.306,0 -30.459,8.736 -30.459,26.209c0,21.722 2.125,54.07 6.375,97.043c4.25,42.972 6.375,75.084 6.375,96.334c0,10.861 -4.958,16.292 -14.875,16.292c-28.806,0 -72.015,-0.826 -129.627,-2.479c-57.611,-1.653 -100.82,-2.479 -129.626,-2.479c-13.695,-0 -20.542,-6.848 -20.542,-20.542c-0,-52.418 0.826,-131.162 2.479,-236.232c1.653,-105.071 2.479,-183.815 2.479,-236.232c0,-148.28 -6.375,-304.115 -19.125,-467.506l-0.708,-9.917c-0.945,-8.972 6.139,-14.403 21.25,-16.292c36.834,-4.722 118.057,-7.083 243.67,-7.083c74.14,-0 145.21,0.944 213.211,2.833c111.918,3.306 202.113,38.487 270.586,105.543c69.89,68.945 104.835,159.141 104.835,270.587Zm-282.628,11.333c-0,-110.029 -53.598,-165.044 -160.794,-165.044c-75.557,0 -115.224,4.251 -119.002,12.751c-3.305,6.139 -4.958,60.681 -4.958,163.627c-0,14.639 0.59,36.243 1.771,64.813c1.18,28.57 1.771,50.174 1.771,64.813c-0,9.445 42.5,14.167 127.501,14.167c102.474,0 153.711,-51.709 153.711,-155.127Z" style="fill:#f9f3e8;fill-rule:nonzero;"/></g><g><path d="M562.443,1508.58c-4.38,-0 -7.175,1.325 -8.385,3.976c-1.21,2.651 -1.816,8.818 -1.816,18.499c0,14.639 0.923,26.049 2.767,34.233c0.576,2.305 1.44,4.092 2.593,5.359c1.153,1.268 3.343,2.824 6.57,4.668c6.916,3.804 10.373,8.818 10.373,15.042c0,7.607 -4.812,12.996 -14.436,16.165c-9.624,3.17 -25.905,4.755 -48.842,4.755c-42.646,-0 -63.969,-8.069 -63.969,-24.205c-0,-2.766 0.634,-4.985 1.902,-6.656c1.268,-1.672 4.149,-4.006 8.644,-7.002c5.072,-3.343 8.501,-7.291 10.287,-11.843c1.787,-4.553 3.026,-12.42 3.717,-23.6c0.577,-8.183 0.865,-37.517 0.865,-88.001c-0,-16.021 -0.807,-26.914 -2.421,-32.677c-1.613,-5.763 -5.071,-9.97 -10.373,-12.621c-5.072,-2.42 -8.472,-4.639 -10.201,-6.656c-1.729,-2.017 -2.593,-4.639 -2.593,-7.866c-0,-4.265 1.642,-7.982 4.927,-11.152c3.285,-3.17 7.867,-5.504 13.745,-7.002c4.956,-1.268 11.757,-1.902 20.401,-1.902c3.804,0 13.313,0.577 28.527,1.729c2.882,0.231 7.435,0.346 13.659,0.346c10.373,-0 24.204,-0.692 41.493,-2.075c10.95,-0.807 18.615,-1.21 22.995,-1.21c24.666,-0 45.067,5.936 61.203,17.808c14.523,10.719 21.784,25.588 21.784,44.606c0,10.603 -2.535,20.257 -7.607,28.959c-5.071,8.702 -12.045,15.243 -20.92,19.623c-3.688,1.844 -5.532,4.034 -5.532,6.57c-0,3.342 2.824,6.051 8.471,8.126c12.103,4.379 20.978,11.007 26.626,19.882c5.647,8.875 9.682,22.476 12.102,40.802c1.037,7.607 2.536,12.535 4.495,14.782c1.96,2.248 6.512,4.409 13.659,6.484c2.189,0.691 4.034,2.161 5.532,4.408c1.498,2.248 2.248,4.755 2.248,7.521c-0,3.573 -1.384,7.175 -4.15,10.806c-2.766,3.631 -6.339,6.483 -10.719,8.558c-9.682,4.495 -22.937,6.743 -39.765,6.743c-22.476,-0 -38.554,-5.936 -48.236,-17.808c-4.38,-5.302 -8.097,-11.987 -11.152,-20.055c-3.054,-8.069 -6.656,-20.632 -10.805,-37.691c-2.651,-10.949 -6.023,-18.672 -10.115,-23.167c-4.091,-4.495 -9.941,-6.916 -17.548,-7.261Zm-10.028,-88.175l-1.901,40.284l-0,1.556c-0,4.149 0.605,6.916 1.815,8.299c1.21,1.383 3.659,2.074 7.348,2.074c10.143,0 17.519,-2.622 22.13,-7.866c4.61,-5.244 6.915,-13.63 6.915,-25.156c0,-22.245 -7.895,-33.368 -23.686,-33.368c-4.495,0 -7.664,1.038 -9.509,3.112c-1.844,2.075 -2.881,5.763 -3.112,11.065Z" style="fill:#f9f3e8;fill-rule:nonzero;"/><path d="M848.577,1371.83l88.866,0c17.981,0 31.091,-0.374 39.333,-1.124c8.241,-0.749 16.28,-2.276 24.118,-4.581c2.42,-0.692 4.322,-1.038 5.705,-1.038c5.994,0 11.296,3.228 15.906,9.682c7.607,10.489 11.411,23.168 11.411,38.036c-0,7.492 -1.585,13.399 -4.755,17.722c-3.169,4.322 -7.52,6.483 -13.053,6.483c-3.803,-0 -6.771,-0.778 -8.904,-2.334c-2.132,-1.556 -4.985,-5.043 -8.558,-10.46c-5.071,-7.722 -11.497,-12.88 -19.277,-15.474c-7.78,-2.593 -20.545,-3.89 -38.295,-3.89c-13.255,0 -21.324,2.363 -24.205,7.089c-1.498,2.535 -2.392,5.936 -2.68,10.2c-0.288,4.265 -0.432,15.157 -0.432,32.677c-0,6.915 1.152,11.209 3.458,12.88c2.305,1.671 8.356,2.507 18.153,2.507c4.841,-0 8.357,-1.009 10.547,-3.026c2.189,-2.017 3.573,-5.619 4.149,-10.805c0.807,-6.685 1.642,-11.267 2.507,-13.745c0.864,-2.478 2.449,-4.639 4.754,-6.484c2.421,-2.074 5.245,-3.112 8.472,-3.112c4.726,0 8.76,2.248 12.102,6.743c2.421,3.343 4.467,9.25 6.138,17.721c1.671,8.472 2.507,17.318 2.507,26.539c-0,18.211 -2.824,33.138 -8.472,44.779c-3.112,6.339 -7.838,9.509 -14.177,9.509c-3.919,-0 -6.627,-1.009 -8.126,-3.026c-1.498,-2.017 -2.651,-6.195 -3.458,-12.534c-1.728,-13.025 -9.336,-19.537 -22.821,-19.537c-5.187,0 -8.731,1.642 -10.633,4.927c-1.902,3.285 -2.853,9.365 -2.853,18.24c0,5.418 0.375,12.42 1.124,21.007c0.749,8.587 1.527,14.263 2.334,17.029c0.922,3.458 3.775,5.85 8.558,7.175c4.784,1.326 12.765,1.989 23.946,1.989c17.289,-0 30.313,-2.219 39.073,-6.657c8.76,-4.437 15.906,-12.477 21.438,-24.118c3.228,-6.685 6.138,-11.18 8.731,-13.485c2.594,-2.306 5.965,-3.458 10.115,-3.458c4.84,-0 8.846,2.103 12.015,6.31c3.17,4.207 4.755,9.48 4.755,15.82c-0,6.915 -1.787,15.56 -5.36,25.933c-3.573,10.374 -7.953,19.595 -13.139,27.663c-2.651,3.919 -4.841,6.541 -6.57,7.866c-1.729,1.326 -3.919,1.989 -6.57,1.989c-2.19,-0 -5.36,-0.346 -9.509,-1.038c-7.377,-1.383 -17.231,-2.247 -29.564,-2.593l-146.612,-0c-5.878,-0 -10.431,-1.297 -13.658,-3.89c-3.227,-2.594 -4.841,-6.253 -4.841,-10.979c0,-3.342 0.692,-5.763 2.075,-7.261c1.383,-1.499 4.553,-3.4 9.509,-5.706c3.458,-1.498 6.022,-3.342 7.693,-5.532c1.672,-2.19 2.968,-5.417 3.89,-9.682c3.804,-17.404 5.706,-40.86 5.706,-70.366c-0,-44.491 -2.766,-72.557 -8.299,-84.198c-1.153,-2.305 -2.42,-3.919 -3.804,-4.841c-1.383,-0.922 -4.264,-2.017 -8.644,-3.285c-6.57,-1.959 -9.855,-6.339 -9.855,-13.14c0,-3.688 1.095,-6.973 3.285,-9.854c2.19,-2.882 5.072,-4.784 8.645,-5.706c4.495,-1.037 13.197,-1.556 26.106,-1.556Z" style="fill:#f9f3e8;fill-rule:nonzero;"/><path d="M1241.04,1380.13l86.099,75.38c8.069,7.031 13.889,10.547 17.462,10.547c5.994,-0 8.991,-6.397 8.991,-19.191c-0,-14.523 -0.865,-24.436 -2.594,-29.738c-1.729,-5.301 -5.359,-9.278 -10.892,-11.929c-4.495,-2.19 -7.665,-4.524 -9.509,-7.002c-1.844,-2.478 -2.766,-5.677 -2.766,-9.595c0,-9.682 6.627,-15.906 19.882,-18.673c5.418,-1.152 14.869,-1.729 28.355,-1.729c17.404,0 29.449,1.038 36.134,3.112c10.604,3.228 15.906,9.337 15.906,18.327c-0,7.492 -4.323,13.14 -12.967,16.943c-3.458,1.499 -5.821,2.824 -7.089,3.977c-1.268,1.152 -2.363,2.881 -3.285,5.186c-3.112,7.608 -4.725,22.015 -4.841,43.223l0,56.362c0,8.645 0.058,20.459 0.173,35.443c0.116,20.286 -1.095,34.924 -3.63,43.914c-3.112,11.18 -8.76,16.771 -16.944,16.771c-3.573,-0 -6.656,-0.75 -9.249,-2.248c-2.594,-1.498 -6.887,-4.956 -12.881,-10.373l-102.524,-91.805c-7.146,-6.455 -13.082,-9.682 -17.808,-9.682c-7.03,-0 -10.546,9.739 -10.546,29.218c0,16.021 0.893,26.971 2.68,32.85c1.786,5.878 5.446,10.2 10.978,12.966c7.723,3.804 11.584,8.76 11.584,14.869c0,16.021 -17.231,24.032 -51.694,24.032c-15.56,-0 -27.634,-2.046 -36.221,-6.138c-8.587,-4.092 -12.88,-9.883 -12.88,-17.375c-0,-3.919 0.807,-6.858 2.42,-8.818c1.614,-1.959 5.245,-4.61 10.892,-7.953c5.418,-3.227 8.703,-8.933 9.855,-17.116c1.96,-14.869 2.939,-36.249 2.939,-64.142c0,-29.738 -1.729,-51.407 -5.186,-65.007c-1.268,-4.957 -2.882,-8.645 -4.841,-11.065c-1.96,-2.421 -5.187,-4.726 -9.682,-6.916c-5.187,-2.536 -8.789,-5.014 -10.806,-7.434c-2.017,-2.421 -3.025,-5.36 -3.025,-8.818c-0,-11.065 9.509,-18.038 28.527,-20.919c6.454,-0.923 17.75,-1.384 33.886,-1.384c9.221,0 15.935,0.721 20.142,2.162c4.207,1.44 9.192,4.696 14.955,9.768Z" style="fill:#f9f3e8;fill-rule:nonzero;"/><path d="M1655.63,1366.99c16.828,0 33.079,3.689 48.755,11.065c7.377,3.458 12.506,5.187 15.387,5.187c2.075,-0 5.417,-0.519 10.028,-1.556c1.498,-0.346 3.169,-0.519 5.014,-0.519c5.993,0 11.238,2.766 15.733,8.299c11.065,13.37 16.597,29.968 16.597,49.792c0,13.947 -4.783,24.148 -14.35,30.602c-5.186,3.458 -11.007,5.187 -17.462,5.187c-5.878,-0 -10.661,-1.268 -14.35,-3.804c-3.688,-2.535 -7.261,-7.031 -10.719,-13.485c-4.956,-9.106 -8.99,-15.647 -12.102,-19.623c-3.112,-3.977 -6.916,-7.579 -11.411,-10.806c-11.18,-7.838 -22.879,-11.757 -35.097,-11.757c-11.872,0 -21.294,4.294 -28.267,12.881c-6.974,8.587 -10.46,20.084 -10.46,34.492c-0,19.824 5.014,37.978 15.041,54.46c13.601,22.015 33.08,33.022 58.437,33.022c9.336,0 18.586,-1.556 27.749,-4.668c9.163,-3.112 16.281,-7.146 21.352,-12.102c4.38,-4.15 7.953,-6.224 10.719,-6.224c4.035,-0 7.492,1.873 10.374,5.619c2.881,3.746 4.322,8.27 4.322,13.572c0,6.685 -2.017,14.177 -6.051,22.475c-4.034,8.299 -8.875,14.811 -14.523,19.537c-2.42,1.959 -7.434,3.688 -15.041,5.187c-4.38,0.807 -10.201,2.939 -17.462,6.397c-17.059,8.183 -34.809,12.275 -53.251,12.275c-19.248,-0 -38.439,-4.322 -57.572,-12.967c-22.245,-10.028 -39.823,-25.415 -52.732,-46.162c-12.679,-20.17 -19.018,-41.263 -19.018,-63.278c0,-25.587 7.953,-48.928 23.859,-70.02c13.831,-18.327 31.87,-32.331 54.115,-42.013c16.943,-7.376 34.405,-11.065 52.386,-11.065Z" style="fill:#f9f3e8;fill-rule:nonzero;"/><path d="M2001.24,1366.99c29.622,0 55.498,8.472 77.628,25.415c14.984,11.641 27.144,26.741 36.48,45.297c9.106,18.442 13.658,36.884 13.658,55.325c0,27.202 -8.99,51.522 -26.971,72.96c-15.214,18.211 -35.096,31.294 -59.647,39.247c-15.099,4.84 -30.256,7.261 -45.47,7.261c-19.94,-0 -39.016,-4.149 -57.227,-12.448c-22.015,-10.028 -39.246,-25.185 -51.694,-45.47c-12.103,-19.595 -18.154,-41.206 -18.154,-64.834c0,-27.432 7.78,-51.637 23.34,-72.615c13.832,-18.672 32.446,-32.388 55.844,-41.147c15.676,-5.994 33.08,-8.991 52.213,-8.991Zm-16.424,49.62c-9.682,-0 -17.347,4.322 -22.995,12.967c-4.38,6.454 -6.57,14.119 -6.57,22.994c0,13.025 2.651,28.095 7.953,45.211c5.302,17.116 11.987,32.302 20.056,45.557c3.573,5.647 7.981,10.143 13.226,13.485c5.244,3.343 10.575,5.014 15.992,5.014c8.76,-0 15.82,-3.285 21.179,-9.855c5.36,-6.57 8.04,-15.214 8.04,-25.933c-0,-13.947 -2.248,-28.988 -6.743,-45.125c-4.495,-16.136 -10.316,-29.91 -17.462,-41.321c-4.38,-7.031 -9.451,-12.563 -15.214,-16.597c-5.764,-4.034 -11.584,-6.167 -17.462,-6.397Z" style="fill:#f9f3e8;fill-rule:nonzero;"/><path d="M2327.66,1380.13l86.099,75.38c8.069,7.031 13.889,10.547 17.462,10.547c5.994,-0 8.991,-6.397 8.991,-19.191c-0,-14.523 -0.865,-24.436 -2.594,-29.738c-1.729,-5.301 -5.359,-9.278 -10.892,-11.929c-4.495,-2.19 -7.665,-4.524 -9.509,-7.002c-1.844,-2.478 -2.766,-5.677 -2.766,-9.595c-0,-9.682 6.627,-15.906 19.882,-18.673c5.418,-1.152 14.869,-1.729 28.354,-1.729c17.405,0 29.449,1.038 36.134,3.112c10.604,3.228 15.906,9.337 15.906,18.327c0,7.492 -4.322,13.14 -12.966,16.943c-3.458,1.499 -5.821,2.824 -7.089,3.977c-1.268,1.152 -2.363,2.881 -3.285,5.186c-3.112,7.608 -4.725,22.015 -4.841,43.223l0,56.362c0,8.645 0.058,20.459 0.173,35.443c0.115,20.286 -1.095,34.924 -3.631,43.914c-3.112,11.18 -8.759,16.771 -16.943,16.771c-3.573,-0 -6.656,-0.75 -9.249,-2.248c-2.594,-1.498 -6.887,-4.956 -12.881,-10.373l-102.524,-91.805c-7.146,-6.455 -13.082,-9.682 -17.808,-9.682c-7.031,-0 -10.546,9.739 -10.546,29.218c-0,16.021 0.893,26.971 2.68,32.85c1.786,5.878 5.446,10.2 10.978,12.966c7.723,3.804 11.584,8.76 11.584,14.869c-0,16.021 -17.231,24.032 -51.694,24.032c-15.561,-0 -27.634,-2.046 -36.221,-6.138c-8.587,-4.092 -12.88,-9.883 -12.88,-17.375c-0,-3.919 0.807,-6.858 2.42,-8.818c1.614,-1.959 5.245,-4.61 10.892,-7.953c5.418,-3.227 8.702,-8.933 9.855,-17.116c1.959,-14.869 2.939,-36.249 2.939,-64.142c0,-29.738 -1.729,-51.407 -5.187,-65.007c-1.267,-4.957 -2.881,-8.645 -4.84,-11.065c-1.96,-2.421 -5.187,-4.726 -9.682,-6.916c-5.187,-2.536 -8.789,-5.014 -10.806,-7.434c-2.017,-2.421 -3.026,-5.36 -3.026,-8.818c0,-11.065 9.509,-18.038 28.527,-20.919c6.455,-0.923 17.75,-1.384 33.887,-1.384c9.221,0 15.935,0.721 20.142,2.162c4.207,1.44 9.192,4.696 14.955,9.768Z" style="fill:#f9f3e8;fill-rule:nonzero;"/><path d="M2688.83,1371.83l91.114,0c9.797,-0.346 18.73,-1.671 26.798,-3.976c3.458,-0.922 6.512,-1.383 9.163,-1.383c9.336,-0 18.413,6.915 27.23,20.746c8.818,13.832 13.226,28.066 13.226,42.704c0,10.028 -3.054,17.347 -9.163,21.958c-4.61,3.457 -10.143,5.186 -16.597,5.186c-6.109,0 -11.411,-1.7 -15.906,-5.1c-4.495,-3.4 -8.933,-9.019 -13.313,-16.857c-3.803,-7.146 -6.8,-11.814 -8.99,-14.004c-2.19,-2.19 -4.841,-3.285 -7.953,-3.285c-4.265,0 -7.319,1.787 -9.163,5.36c-1.845,3.573 -2.767,9.451 -2.767,17.635l0,96.818c0,9.913 1.038,17.116 3.112,21.612c2.075,4.495 5.994,7.953 11.757,10.373c6.224,2.651 10.46,5.158 12.707,7.521c2.248,2.363 3.372,5.619 3.372,9.768c-0,8.299 -5.619,14.465 -16.857,18.499c-11.238,4.035 -28.498,6.052 -51.781,6.052c-28.584,-0 -49.792,-2.363 -63.624,-7.089c-11.641,-3.919 -17.461,-10.258 -17.461,-19.018c-0,-4.726 2.074,-8.414 6.224,-11.065c1.037,-0.576 5.129,-1.959 12.275,-4.149c4.38,-1.268 7.405,-3.689 9.077,-7.262c1.671,-3.573 3.025,-10.431 4.063,-20.574c0.922,-8.99 1.786,-23.542 2.593,-43.655c0.807,-20.113 1.21,-37.546 1.21,-52.299c0,-10.373 -0.807,-17.75 -2.42,-22.13c-1.614,-4.38 -4.265,-6.57 -7.953,-6.57c-4.495,0 -8.875,3.227 -13.14,9.682c-7.722,11.757 -14.062,19.537 -19.018,23.34c-5.878,4.495 -11.584,6.743 -17.116,6.743c-6.224,0 -11.353,-2.334 -15.387,-7.002c-4.035,-4.668 -6.052,-10.633 -6.052,-17.894c0,-7.146 1.614,-15.013 4.841,-23.6c3.228,-8.587 7.55,-16.511 12.967,-23.772c8.76,-11.757 17.404,-17.635 25.934,-17.635c2.305,-0 4.956,0.346 7.953,1.037c6.224,1.268 11.324,2.133 15.301,2.594c3.976,0.461 8.558,0.691 13.744,0.691Z" style="fill:#f9f3e8;fill-rule:nonzero;"/><path d="M3064.69,1508.58c-4.38,-0 -7.175,1.325 -8.386,3.976c-1.21,2.651 -1.815,8.818 -1.815,18.499c0,14.639 0.922,26.049 2.766,34.233c0.577,2.305 1.441,4.092 2.594,5.359c1.152,1.268 3.342,2.824 6.57,4.668c6.915,3.804 10.373,8.818 10.373,15.042c-0,7.607 -4.812,12.996 -14.436,16.165c-9.625,3.17 -25.905,4.755 -48.842,4.755c-42.646,-0 -63.97,-8.069 -63.97,-24.205c0,-2.766 0.634,-4.985 1.902,-6.656c1.268,-1.672 4.15,-4.006 8.645,-7.002c5.071,-3.343 8.5,-7.291 10.287,-11.843c1.786,-4.553 3.025,-12.42 3.717,-23.6c0.576,-8.183 0.864,-37.517 0.864,-88.001c0,-16.021 -0.806,-26.914 -2.42,-32.677c-1.614,-5.763 -5.072,-9.97 -10.374,-12.621c-5.071,-2.42 -8.471,-4.639 -10.2,-6.656c-1.729,-2.017 -2.593,-4.639 -2.593,-7.866c-0,-4.265 1.642,-7.982 4.927,-11.152c3.285,-3.17 7.866,-5.504 13.745,-7.002c4.956,-1.268 11.756,-1.902 20.401,-1.902c3.803,0 13.312,0.577 28.527,1.729c2.881,0.231 7.434,0.346 13.658,0.346c10.374,-0 24.205,-0.692 41.494,-2.075c10.95,-0.807 18.614,-1.21 22.994,-1.21c24.666,-0 45.067,5.936 61.204,17.808c14.523,10.719 21.784,25.588 21.784,44.606c-0,10.603 -2.536,20.257 -7.607,28.959c-5.072,8.702 -12.045,15.243 -20.92,19.623c-3.688,1.844 -5.533,4.034 -5.533,6.57c0,3.342 2.824,6.051 8.472,8.126c12.102,4.379 20.977,11.007 26.625,19.882c5.648,8.875 9.682,22.476 12.103,40.802c1.037,7.607 2.535,12.535 4.495,14.782c1.959,2.248 6.512,4.409 13.658,6.484c2.19,0.691 4.034,2.161 5.533,4.408c1.498,2.248 2.247,4.755 2.247,7.521c0,3.573 -1.383,7.175 -4.149,10.806c-2.766,3.631 -6.339,6.483 -10.719,8.558c-9.682,4.495 -22.937,6.743 -39.765,6.743c-22.476,-0 -38.555,-5.936 -48.237,-17.808c-4.38,-5.302 -8.097,-11.987 -11.151,-20.055c-3.055,-8.069 -6.656,-20.632 -10.806,-37.691c-2.651,-10.949 -6.022,-18.672 -10.114,-23.167c-4.092,-4.495 -9.941,-6.916 -17.548,-7.261Zm-10.028,-88.175l-1.902,40.284l0,1.556c0,4.149 0.605,6.916 1.816,8.299c1.21,1.383 3.659,2.074 7.347,2.074c10.143,0 17.52,-2.622 22.13,-7.866c4.611,-5.244 6.916,-13.63 6.916,-25.156c0,-22.245 -7.895,-33.368 -23.686,-33.368c-4.495,0 -7.665,1.038 -9.509,3.112c-1.844,2.075 -2.881,5.763 -3.112,11.065Z" style="fill:#f9f3e8;fill-rule:nonzero;"/><path d="M3350.82,1371.83l88.865,0c17.981,0 31.092,-0.374 39.333,-1.124c8.241,-0.749 16.281,-2.276 24.118,-4.581c2.421,-0.692 4.323,-1.038 5.706,-1.038c5.993,0 11.295,3.228 15.906,9.682c7.607,10.489 11.41,23.168 11.41,38.036c0,7.492 -1.584,13.399 -4.754,17.722c-3.17,4.322 -7.521,6.483 -13.053,6.483c-3.804,-0 -6.772,-0.778 -8.904,-2.334c-2.132,-1.556 -4.985,-5.043 -8.558,-10.46c-5.072,-7.722 -11.497,-12.88 -19.278,-15.474c-7.78,-2.593 -20.545,-3.89 -38.295,-3.89c-13.255,0 -21.323,2.363 -24.204,7.089c-1.499,2.535 -2.392,5.936 -2.68,10.2c-0.288,4.265 -0.433,15.157 -0.433,32.677c0,6.915 1.153,11.209 3.458,12.88c2.305,1.671 8.357,2.507 18.154,2.507c4.841,-0 8.356,-1.009 10.546,-3.026c2.19,-2.017 3.573,-5.619 4.15,-10.805c0.806,-6.685 1.642,-11.267 2.506,-13.745c0.865,-2.478 2.45,-4.639 4.755,-6.484c2.42,-2.074 5.244,-3.112 8.472,-3.112c4.725,0 8.759,2.248 12.102,6.743c2.42,3.343 4.466,9.25 6.138,17.721c1.671,8.472 2.506,17.318 2.506,26.539c0,18.211 -2.823,33.138 -8.471,44.779c-3.112,6.339 -7.838,9.509 -14.177,9.509c-3.919,-0 -6.628,-1.009 -8.126,-3.026c-1.498,-2.017 -2.651,-6.195 -3.458,-12.534c-1.729,-13.025 -9.336,-19.537 -22.821,-19.537c-5.187,0 -8.731,1.642 -10.633,4.927c-1.902,3.285 -2.853,9.365 -2.853,18.24c0,5.418 0.375,12.42 1.124,21.007c0.749,8.587 1.527,14.263 2.334,17.029c0.922,3.458 3.775,5.85 8.558,7.175c4.783,1.326 12.765,1.989 23.945,1.989c17.289,-0 30.314,-2.219 39.074,-6.657c8.759,-4.437 15.906,-12.477 21.438,-24.118c3.227,-6.685 6.138,-11.18 8.731,-13.485c2.593,-2.306 5.965,-3.458 10.114,-3.458c4.841,-0 8.846,2.103 12.016,6.31c3.17,4.207 4.755,9.48 4.755,15.82c-0,6.915 -1.787,15.56 -5.36,25.933c-3.573,10.374 -7.953,19.595 -13.14,27.663c-2.651,3.919 -4.841,6.541 -6.57,7.866c-1.729,1.326 -3.918,1.989 -6.569,1.989c-2.19,-0 -5.36,-0.346 -9.509,-1.038c-7.377,-1.383 -17.232,-2.247 -29.565,-2.593l-146.611,-0c-5.878,-0 -10.431,-1.297 -13.658,-3.89c-3.228,-2.594 -4.841,-6.253 -4.841,-10.979c-0,-3.342 0.691,-5.763 2.074,-7.261c1.383,-1.499 4.553,-3.4 9.509,-5.706c3.458,-1.498 6.023,-3.342 7.694,-5.532c1.671,-2.19 2.968,-5.417 3.89,-9.682c3.804,-17.404 5.705,-40.86 5.705,-70.366c0,-44.491 -2.766,-72.557 -8.298,-84.198c-1.153,-2.305 -2.421,-3.919 -3.804,-4.841c-1.383,-0.922 -4.265,-2.017 -8.644,-3.285c-6.57,-1.959 -9.855,-6.339 -9.855,-13.14c-0,-3.688 1.095,-6.973 3.285,-9.854c2.19,-2.882 5.071,-4.784 8.644,-5.706c4.495,-1.037 13.198,-1.556 26.107,-1.556Z" style="fill:#f9f3e8;fill-rule:nonzero;"/><path d="M3752.62,1366.99c11.871,0 27.432,2.939 46.68,8.818c2.305,0.691 4.149,1.037 5.533,1.037c1.152,-0 4.61,-1.037 10.373,-3.112c1.844,-0.692 3.804,-1.037 5.878,-1.037c7.723,-0 15.877,6.108 24.464,18.326c8.587,12.218 12.881,23.859 12.881,34.924c-0,6.454 -1.931,11.901 -5.792,16.338c-3.861,4.438 -8.558,6.656 -14.091,6.656c-4.61,0 -8.356,-0.922 -11.238,-2.766c-2.881,-1.844 -9.22,-7.319 -19.018,-16.424c-13.831,-12.91 -27.432,-19.364 -40.802,-19.364c-6.454,-0 -11.612,1.556 -15.474,4.668c-3.861,3.112 -5.791,7.204 -5.791,12.275c-0,10.028 8.817,17.577 26.452,22.649c23.859,7.031 39.131,12.16 45.816,15.387c29.391,14.292 44.087,35.327 44.087,63.105c0,24.551 -10.028,44.606 -30.083,60.166c-20.516,15.906 -47.314,23.859 -80.394,23.859c-14.753,-0 -30.314,-1.758 -46.681,-5.273c-16.367,-3.516 -28.181,-7.636 -35.442,-12.362c-5.533,-3.688 -10.518,-11.728 -14.955,-24.118c-4.438,-12.391 -6.656,-24.464 -6.656,-36.221c-0,-5.648 1.152,-9.912 3.457,-12.794c2.882,-3.688 6.513,-5.532 10.892,-5.532c4.38,-0 8.587,2.247 12.621,6.743c2.421,2.535 8.126,10.661 17.117,24.377c4.264,6.455 11.036,11.814 20.314,16.079c9.279,4.265 18.874,6.397 28.787,6.397c8.529,-0 15.444,-1.585 20.746,-4.755c5.302,-3.169 7.953,-7.232 7.953,-12.188c0,-4.611 -2.074,-8.587 -6.224,-11.93c-4.149,-3.342 -10.892,-6.454 -20.228,-9.336c-16.482,-5.187 -29.045,-9.941 -37.69,-14.263c-8.645,-4.323 -16.713,-9.769 -24.205,-16.339c-18.211,-16.136 -27.316,-34.462 -27.316,-54.979c-0,-10.143 2.362,-20.026 7.088,-29.651c4.726,-9.624 11.411,-17.951 20.055,-24.982c19.364,-16.252 42.993,-24.378 70.886,-24.378Z" style="fill:#f9f3e8;fill-rule:nonzero;"/><path d="M4214.59,1607.82l-12.448,-0c-7.261,-0 -15.387,0.346 -24.377,1.037c-5.648,0.461 -9.567,0.692 -11.757,0.692c-7.722,-0 -14.004,-1.787 -18.845,-5.36c-4.841,-3.573 -7.261,-8.241 -7.261,-14.004c-0,-4.034 1.066,-7.175 3.198,-9.422c2.132,-2.248 5.619,-4.063 10.46,-5.447c4.61,-1.152 7.722,-3.025 9.336,-5.619c1.614,-2.593 2.882,-7.636 3.804,-15.127c0.922,-8.645 1.757,-25.473 2.507,-50.485c0.749,-25.011 1.123,-49.85 1.123,-74.515c0,-9.682 -0.749,-16.137 -2.247,-19.364c-1.499,-3.227 -5.014,-5.821 -10.546,-7.78c-7.953,-2.997 -11.93,-8.126 -11.93,-15.387c0,-5.648 2.738,-10.057 8.212,-13.227c5.475,-3.169 13.111,-4.754 22.908,-4.754c3.228,-0 7.031,0.058 11.411,0.173c9.682,0.346 16.713,0.518 21.093,0.518c16.482,0 35.097,-0.518 55.844,-1.556c4.379,-0.23 9.854,-0.345 16.424,-0.345c26.395,-0 47.257,2.996 62.587,8.99c22.821,8.99 39.995,24.089 51.521,45.297c10.258,18.673 15.387,40.918 15.387,66.736c0,13.025 -1.902,26.078 -5.705,39.16c-3.804,13.082 -8.933,24.406 -15.387,33.973c-13.371,19.364 -31.812,32.964 -55.325,40.802c-13.832,4.61 -28.585,6.916 -44.26,6.916l-20.92,-0.692l-17.981,-0.519c-13.946,-0.461 -26.222,-0.691 -36.826,-0.691Zm36.307,-187.414l0,133.818c0,7.261 1.557,12.419 4.669,15.473c3.112,3.055 8.298,4.582 15.56,4.582c33.656,0 50.484,-25.588 50.484,-76.763c-0,-28.239 -3.919,-50.139 -11.757,-65.699c-8.644,-17.174 -23.282,-25.761 -43.914,-25.761c-5.533,0 -9.423,1.095 -11.67,3.285c-2.248,2.19 -3.372,5.879 -3.372,11.065Z" style="fill:#f9f3e8;fill-rule:nonzero;"/><path d="M4550.51,1371.83l88.866,0c17.98,0 31.091,-0.374 39.332,-1.124c8.242,-0.749 16.281,-2.276 24.119,-4.581c2.42,-0.692 4.322,-1.038 5.705,-1.038c5.994,0 11.296,3.228 15.906,9.682c7.607,10.489 11.411,23.168 11.411,38.036c-0,7.492 -1.585,13.399 -4.755,17.722c-3.169,4.322 -7.52,6.483 -13.053,6.483c-3.804,-0 -6.771,-0.778 -8.904,-2.334c-2.132,-1.556 -4.985,-5.043 -8.558,-10.46c-5.071,-7.722 -11.497,-12.88 -19.277,-15.474c-7.78,-2.593 -20.545,-3.89 -38.295,-3.89c-13.255,0 -21.324,2.363 -24.205,7.089c-1.499,2.535 -2.392,5.936 -2.68,10.2c-0.288,4.265 -0.432,15.157 -0.432,32.677c-0,6.915 1.152,11.209 3.458,12.88c2.305,1.671 8.356,2.507 18.153,2.507c4.841,-0 8.357,-1.009 10.546,-3.026c2.19,-2.017 3.574,-5.619 4.15,-10.805c0.807,-6.685 1.642,-11.267 2.507,-13.745c0.864,-2.478 2.449,-4.639 4.754,-6.484c2.421,-2.074 5.245,-3.112 8.472,-3.112c4.726,0 8.76,2.248 12.102,6.743c2.421,3.343 4.467,9.25 6.138,17.721c1.671,8.472 2.507,17.318 2.507,26.539c-0,18.211 -2.824,33.138 -8.472,44.779c-3.112,6.339 -7.838,9.509 -14.177,9.509c-3.919,-0 -6.627,-1.009 -8.126,-3.026c-1.498,-2.017 -2.651,-6.195 -3.458,-12.534c-1.728,-13.025 -9.336,-19.537 -22.821,-19.537c-5.187,0 -8.731,1.642 -10.633,4.927c-1.902,3.285 -2.853,9.365 -2.853,18.24c0,5.418 0.375,12.42 1.124,21.007c0.749,8.587 1.527,14.263 2.334,17.029c0.922,3.458 3.775,5.85 8.558,7.175c4.784,1.326 12.765,1.989 23.946,1.989c17.289,-0 30.313,-2.219 39.073,-6.657c8.76,-4.437 15.906,-12.477 21.438,-24.118c3.228,-6.685 6.138,-11.18 8.731,-13.485c2.594,-2.306 5.965,-3.458 10.114,-3.458c4.841,-0 8.847,2.103 12.016,6.31c3.17,4.207 4.755,9.48 4.755,15.82c-0,6.915 -1.787,15.56 -5.36,25.933c-3.573,10.374 -7.953,19.595 -13.139,27.663c-2.651,3.919 -4.841,6.541 -6.57,7.866c-1.729,1.326 -3.919,1.989 -6.57,1.989c-2.19,-0 -5.36,-0.346 -9.509,-1.038c-7.377,-1.383 -17.232,-2.247 -29.564,-2.593l-146.612,-0c-5.878,-0 -10.431,-1.297 -13.658,-3.89c-3.227,-2.594 -4.841,-6.253 -4.841,-10.979c-0,-3.342 0.692,-5.763 2.075,-7.261c1.383,-1.499 4.552,-3.4 9.509,-5.706c3.457,-1.498 6.022,-3.342 7.693,-5.532c1.672,-2.19 2.968,-5.417 3.89,-9.682c3.804,-17.404 5.706,-40.86 5.706,-70.366c-0,-44.491 -2.767,-72.557 -8.299,-84.198c-1.153,-2.305 -2.421,-3.919 -3.804,-4.841c-1.383,-0.922 -4.264,-2.017 -8.644,-3.285c-6.57,-1.959 -9.855,-6.339 -9.855,-13.14c0,-3.688 1.095,-6.973 3.285,-9.854c2.19,-2.882 5.071,-4.784 8.645,-5.706c4.495,-1.037 13.197,-1.556 26.106,-1.556Z" style="fill:#f9f3e8;fill-rule:nonzero;"/><path d="M5156.67,1366.99c16.828,0 33.079,3.689 48.755,11.065c7.377,3.458 12.506,5.187 15.387,5.187c2.075,-0 5.417,-0.519 10.028,-1.556c1.498,-0.346 3.169,-0.519 5.014,-0.519c5.993,0 11.238,2.766 15.733,8.299c11.065,13.37 16.597,29.968 16.597,49.792c0,13.947 -4.783,24.148 -14.35,30.602c-5.186,3.458 -11.007,5.187 -17.462,5.187c-5.878,-0 -10.661,-1.268 -14.35,-3.804c-3.688,-2.535 -7.261,-7.031 -10.719,-13.485c-4.956,-9.106 -8.99,-15.647 -12.102,-19.623c-3.112,-3.977 -6.916,-7.579 -11.411,-10.806c-11.18,-7.838 -22.879,-11.757 -35.097,-11.757c-11.872,0 -21.294,4.294 -28.267,12.881c-6.974,8.587 -10.46,20.084 -10.46,34.492c-0,19.824 5.014,37.978 15.041,54.46c13.601,22.015 33.08,33.022 58.437,33.022c9.336,0 18.586,-1.556 27.749,-4.668c9.163,-3.112 16.281,-7.146 21.352,-12.102c4.38,-4.15 7.953,-6.224 10.719,-6.224c4.035,-0 7.492,1.873 10.374,5.619c2.881,3.746 4.322,8.27 4.322,13.572c0,6.685 -2.017,14.177 -6.051,22.475c-4.034,8.299 -8.875,14.811 -14.523,19.537c-2.42,1.959 -7.434,3.688 -15.041,5.187c-4.38,0.807 -10.201,2.939 -17.462,6.397c-17.059,8.183 -34.809,12.275 -53.251,12.275c-19.248,-0 -38.439,-4.322 -57.572,-12.967c-22.246,-10.028 -39.823,-25.415 -52.732,-46.162c-12.679,-20.17 -19.018,-41.263 -19.018,-63.278c0,-25.587 7.953,-48.928 23.859,-70.02c13.831,-18.327 31.87,-32.331 54.115,-42.013c16.943,-7.376 34.405,-11.065 52.386,-11.065Z" style="fill:#f9f3e8;fill-rule:nonzero;"/><path d="M5442.28,1368.2c13.14,0 25.53,1.153 37.172,3.458c15.675,3.112 23.513,9.74 23.513,19.883c-0,3.342 -0.778,5.849 -2.334,7.52c-1.556,1.672 -5.504,4.121 -11.843,7.348c-5.302,2.651 -8.789,8.472 -10.46,17.462c-1.672,8.991 -2.507,26.51 -2.507,52.559c-0,44.029 1.095,71.289 3.285,81.777c0.807,3.343 2.046,5.907 3.717,7.694c1.671,1.786 4.582,3.717 8.731,5.792c7.607,3.458 11.411,8.471 11.411,15.041c-0,9.221 -7.031,15.56 -21.093,19.018c-15.214,3.689 -33.829,5.533 -55.844,5.533c-37.575,-0 -56.362,-7.146 -56.362,-21.439c-0,-5.186 3.688,-10.027 11.065,-14.523c5.648,-3.457 8.99,-8.183 10.028,-14.177c2.19,-13.139 3.285,-41.032 3.285,-83.679c-0,-29.506 -1.499,-48.409 -4.496,-56.708c-1.613,-4.725 -5.474,-8.99 -11.583,-12.794c-4.726,-3.112 -7.896,-5.705 -9.509,-7.78c-1.614,-2.074 -2.421,-4.725 -2.421,-7.953c0,-4.956 2.392,-8.904 7.175,-11.843c4.784,-2.939 13.226,-5.561 25.329,-7.866c14.407,-2.882 28.988,-4.323 43.741,-4.323Z" style="fill:#f9f3e8;fill-rule:nonzero;"/><path d="M5698.33,1380.13l86.1,75.38c8.068,7.031 13.889,10.547 17.462,10.547c5.993,-0 8.99,-6.397 8.99,-19.191c-0,-14.523 -0.864,-24.436 -2.593,-29.738c-1.729,-5.301 -5.36,-9.278 -10.893,-11.929c-4.495,-2.19 -7.664,-4.524 -9.508,-7.002c-1.845,-2.478 -2.767,-5.677 -2.767,-9.595c0,-9.682 6.628,-15.906 19.883,-18.673c5.417,-1.152 14.868,-1.729 28.354,-1.729c17.404,0 29.449,1.038 36.134,3.112c10.604,3.228 15.906,9.337 15.906,18.327c-0,7.492 -4.322,13.14 -12.967,16.943c-3.458,1.499 -5.821,2.824 -7.088,3.977c-1.268,1.152 -2.363,2.881 -3.285,5.186c-3.112,7.608 -4.726,22.015 -4.841,43.223l-0,56.362c-0,8.645 0.057,20.459 0.173,35.443c0.115,20.286 -1.095,34.924 -3.631,43.914c-3.112,11.18 -8.76,16.771 -16.943,16.771c-3.574,-0 -6.657,-0.75 -9.25,-2.248c-2.593,-1.498 -6.887,-4.956 -12.88,-10.373l-102.525,-91.805c-7.146,-6.455 -13.082,-9.682 -17.807,-9.682c-7.031,-0 -10.547,9.739 -10.547,29.218c0,16.021 0.894,26.971 2.68,32.85c1.787,5.878 5.446,10.2 10.979,12.966c7.722,3.804 11.583,8.76 11.583,14.869c0,16.021 -17.231,24.032 -51.694,24.032c-15.56,-0 -27.634,-2.046 -36.221,-6.138c-8.586,-4.092 -12.88,-9.883 -12.88,-17.375c0,-3.919 0.807,-6.858 2.421,-8.818c1.613,-1.959 5.244,-4.61 10.892,-7.953c5.417,-3.227 8.702,-8.933 9.854,-17.116c1.96,-14.869 2.94,-36.249 2.94,-64.142c-0,-29.738 -1.729,-51.407 -5.187,-65.007c-1.268,-4.957 -2.882,-8.645 -4.841,-11.065c-1.959,-2.421 -5.187,-4.726 -9.682,-6.916c-5.187,-2.536 -8.789,-5.014 -10.806,-7.434c-2.017,-2.421 -3.025,-5.36 -3.025,-8.818c-0,-11.065 9.509,-18.038 28.527,-20.919c6.454,-0.923 17.75,-1.384 33.886,-1.384c9.221,0 15.935,0.721 20.142,2.162c4.207,1.44 9.192,4.696 14.955,9.768Z" style="fill:#f9f3e8;fill-rule:nonzero;"/><path d="M6021.47,1371.83l88.866,0c17.98,0 31.091,-0.374 39.332,-1.124c8.241,-0.749 16.281,-2.276 24.118,-4.581c2.421,-0.692 4.323,-1.038 5.706,-1.038c5.993,0 11.295,3.228 15.906,9.682c7.607,10.489 11.411,23.168 11.411,38.036c-0,7.492 -1.585,13.399 -4.755,17.722c-3.17,4.322 -7.521,6.483 -13.053,6.483c-3.804,-0 -6.772,-0.778 -8.904,-2.334c-2.132,-1.556 -4.985,-5.043 -8.558,-10.46c-5.072,-7.722 -11.497,-12.88 -19.277,-15.474c-7.78,-2.593 -20.546,-3.89 -38.296,-3.89c-13.255,0 -21.323,2.363 -24.204,7.089c-1.499,2.535 -2.392,5.936 -2.68,10.2c-0.288,4.265 -0.432,15.157 -0.432,32.677c-0,6.915 1.152,11.209 3.457,12.88c2.306,1.671 8.357,2.507 18.154,2.507c4.841,-0 8.356,-1.009 10.546,-3.026c2.19,-2.017 3.573,-5.619 4.15,-10.805c0.806,-6.685 1.642,-11.267 2.507,-13.745c0.864,-2.478 2.449,-4.639 4.754,-6.484c2.42,-2.074 5.244,-3.112 8.472,-3.112c4.725,0 8.759,2.248 12.102,6.743c2.42,3.343 4.466,9.25 6.138,17.721c1.671,8.472 2.507,17.318 2.507,26.539c-0,18.211 -2.824,33.138 -8.472,44.779c-3.112,6.339 -7.838,9.509 -14.177,9.509c-3.919,-0 -6.628,-1.009 -8.126,-3.026c-1.498,-2.017 -2.651,-6.195 -3.458,-12.534c-1.729,-13.025 -9.336,-19.537 -22.821,-19.537c-5.187,0 -8.731,1.642 -10.633,4.927c-1.902,3.285 -2.853,9.365 -2.853,18.24c0,5.418 0.375,12.42 1.124,21.007c0.749,8.587 1.527,14.263 2.334,17.029c0.922,3.458 3.775,5.85 8.558,7.175c4.783,1.326 12.765,1.989 23.945,1.989c17.289,-0 30.314,-2.219 39.074,-6.657c8.76,-4.437 15.906,-12.477 21.438,-24.118c3.227,-6.685 6.138,-11.18 8.731,-13.485c2.593,-2.306 5.965,-3.458 10.114,-3.458c4.841,-0 8.846,2.103 12.016,6.31c3.17,4.207 4.755,9.48 4.755,15.82c-0,6.915 -1.787,15.56 -5.36,25.933c-3.573,10.374 -7.953,19.595 -13.14,27.663c-2.651,3.919 -4.841,6.541 -6.57,7.866c-1.728,1.326 -3.918,1.989 -6.569,1.989c-2.19,-0 -5.36,-0.346 -9.509,-1.038c-7.377,-1.383 -17.232,-2.247 -29.565,-2.593l-146.611,-0c-5.878,-0 -10.431,-1.297 -13.658,-3.89c-3.228,-2.594 -4.841,-6.253 -4.841,-10.979c-0,-3.342 0.691,-5.763 2.074,-7.261c1.384,-1.499 4.553,-3.4 9.509,-5.706c3.458,-1.498 6.023,-3.342 7.694,-5.532c1.671,-2.19 2.968,-5.417 3.89,-9.682c3.804,-17.404 5.706,-40.86 5.706,-70.366c-0,-44.491 -2.767,-72.557 -8.299,-84.198c-1.153,-2.305 -2.421,-3.919 -3.804,-4.841c-1.383,-0.922 -4.264,-2.017 -8.644,-3.285c-6.57,-1.959 -9.855,-6.339 -9.855,-13.14c-0,-3.688 1.095,-6.973 3.285,-9.854c2.19,-2.882 5.071,-4.784 8.644,-5.706c4.495,-1.037 13.198,-1.556 26.107,-1.556Zm91.459,-77.282c10.489,0 19.825,1.556 28.008,4.668c4.034,1.498 7.319,3.631 9.855,6.397c2.536,2.766 3.746,5.533 3.631,8.299c-0.231,5.186 -5.129,11.468 -14.696,18.845c-17.404,13.37 -36.653,20.055 -57.745,20.055c-11.872,0 -17.808,-4.264 -17.808,-12.794c-0,-2.997 0.605,-5.273 1.815,-6.829c1.21,-1.556 4.697,-4.582 10.46,-9.077c5.187,-3.688 8.356,-6.137 9.509,-7.348c1.153,-1.21 1.729,-2.679 1.729,-4.408c-0,-0.922 -0.692,-2.594 -2.075,-5.014c-0.461,-0.807 -0.691,-1.671 -0.691,-2.593c-0,-2.997 2.593,-5.418 7.78,-7.262c5.186,-1.844 11.929,-2.824 20.228,-2.939Z" style="fill:#f9f3e8;fill-rule:nonzero;"/><path d="M6490,1536.25l-20.747,46.508c-3.573,7.837 -6.455,13.111 -8.645,15.819c-2.19,2.709 -4.61,4.063 -7.261,4.063c-2.536,0 -4.784,-1.095 -6.743,-3.285c-1.268,-1.383 -4.178,-6.454 -8.731,-15.214c-4.553,-8.76 -8.328,-16.54 -11.324,-23.34l-22.822,-51.349c-3.112,-7.146 -6.397,-10.719 -9.855,-10.719c-3.688,-0 -5.705,3.054 -6.051,9.163c-0.807,13.601 -1.21,26.164 -1.21,37.69c-0,11.987 0.576,20.113 1.729,24.378c0.807,2.536 1.873,4.38 3.198,5.532c1.326,1.153 4.928,3.228 10.806,6.224c3.804,1.96 5.705,5.36 5.705,10.201c0,12.909 -16.54,19.364 -49.619,19.364c-27.893,-0 -41.84,-6.282 -41.84,-18.845c0,-3.228 0.721,-5.562 2.161,-7.002c1.441,-1.441 5.158,-3.602 11.152,-6.484c3.803,-1.729 6.368,-4.092 7.693,-7.088c1.326,-2.997 2.45,-8.818 3.372,-17.462c1.037,-9.221 2.017,-24.349 2.939,-45.384c0.922,-21.035 1.383,-39.045 1.383,-54.028c0,-18.788 -1.441,-31.524 -4.322,-38.209c-1.038,-2.306 -2.219,-4.034 -3.545,-5.187c-1.325,-1.153 -3.832,-2.651 -7.52,-4.495c-8.184,-3.919 -12.275,-8.99 -12.275,-15.215c-0,-4.034 1.527,-7.722 4.581,-11.065c3.055,-3.342 7.117,-5.705 12.189,-7.088c5.071,-1.498 11.843,-2.795 20.315,-3.89c8.471,-1.095 15.646,-1.643 21.524,-1.643c14.754,0 25.185,1.211 31.294,3.631c2.996,1.153 5.359,2.709 7.088,4.668c1.729,1.96 4.207,5.994 7.434,12.103l35.962,66.217c3.919,7.261 6.627,11.699 8.126,13.312c1.498,1.614 3.573,2.421 6.224,2.421c2.305,-0 4.351,-0.865 6.137,-2.594c1.787,-1.729 3.89,-4.956 6.311,-9.682l24.377,-47.544c2.997,-6.109 4.957,-10.086 5.879,-11.93c5.647,-11.526 11.238,-19.191 16.77,-22.994c7.031,-4.957 19.825,-7.435 38.382,-7.435c32.618,0 48.928,7.435 48.928,22.303c-0,3.343 -0.634,6.023 -1.902,8.04c-1.268,2.017 -3.861,4.466 -7.78,7.347c-5.302,4.035 -8.645,9.855 -10.028,17.462c-2.651,15.906 -3.976,35.27 -3.976,58.092c-0,29.391 1.383,55.152 4.149,77.282c0.692,5.417 1.758,9.105 3.199,11.065c1.44,1.959 5.158,4.898 11.151,8.817c4.149,2.767 6.224,6.455 6.224,11.065c0,8.068 -5.359,13.774 -16.079,17.116c-5.532,1.845 -11.353,3.055 -17.462,3.631c-6.108,0.576 -15.502,0.865 -28.181,0.865c-19.479,-0 -34.002,-1.384 -43.568,-4.15c-10.604,-3.112 -15.906,-8.414 -15.906,-15.906c-0,-2.766 0.691,-5.042 2.075,-6.829c1.383,-1.786 4.956,-5.043 10.719,-9.768c2.996,-2.421 5.042,-7.089 6.137,-14.004c1.095,-6.916 1.643,-18.673 1.643,-35.27c-0,-9.221 -0.432,-15.272 -1.297,-18.154c-0.864,-2.881 -2.68,-4.322 -5.446,-4.322c-3.227,0 -6.339,2.219 -9.336,6.656c-2.997,4.438 -7.492,13.284 -13.485,26.539Z" style="fill:#f9f3e8;fill-rule:nonzero;"/><path d="M6943.66,1488.36l32.676,70.021c3.112,6.455 5.705,10.691 7.78,12.708c2.075,2.017 5.244,3.371 9.509,4.063c8.299,1.267 12.448,5.474 12.448,12.621c0,8.414 -5.071,14.465 -15.214,18.153c-10.143,3.688 -26.741,5.533 -49.793,5.533c-26.049,-0 -45.355,-1.095 -57.918,-3.285c-5.763,-1.038 -10.345,-3.141 -13.745,-6.311c-3.4,-3.17 -5.1,-7.002 -5.1,-11.497c-0,-3.458 0.893,-6.138 2.68,-8.039c1.786,-1.902 5.1,-3.66 9.941,-5.274c5.417,-1.844 8.126,-4.956 8.126,-9.336c-0,-7.722 -4.668,-12.275 -14.004,-13.658c-10.028,-1.383 -24.148,-2.075 -42.359,-2.075c-15.329,0 -24.493,0.922 -27.489,2.766c-1.844,1.153 -3.458,3.228 -4.841,6.225c-1.383,2.996 -2.075,5.878 -2.075,8.644c0,2.536 0.49,4.178 1.47,4.927c0.979,0.75 4.178,1.989 9.595,3.718c7.031,2.074 10.546,6.224 10.546,12.448c0,13.716 -16.424,20.574 -49.273,20.574c-18.673,-0 -32.389,-1.268 -41.148,-3.804c-8.069,-2.42 -12.103,-7.722 -12.103,-15.906c0,-3.573 0.894,-6.339 2.68,-8.299c1.787,-1.959 4.985,-3.746 9.595,-5.359c7.492,-2.651 13.169,-6.368 17.03,-11.152c3.861,-4.783 9.365,-15.012 16.511,-30.688l24.378,-53.423c8.99,-19.594 15.013,-34.261 18.067,-44.001c3.054,-9.739 4.639,-19.277 4.754,-28.613c0.116,-9.912 0.721,-16.799 1.816,-20.66c1.095,-3.862 3.544,-7.636 7.348,-11.325c7.953,-8.068 18.096,-12.102 30.428,-12.102c11.642,-0 22.764,4.553 33.368,13.658c14.754,12.448 36.192,48.698 64.316,108.748Zm-120.332,21.785l33.886,-0c6.224,-0 9.336,-1.383 9.336,-4.15c0,-3.803 -4.322,-13.139 -12.966,-28.008c-3.919,-6.8 -6.916,-11.353 -8.991,-13.658c-2.074,-2.306 -4.264,-3.458 -6.57,-3.458c-4.149,-0 -7.607,3.861 -10.373,11.583c-0.461,1.038 -2.132,5.13 -5.014,12.276c-4.841,11.756 -7.261,18.787 -7.261,21.092c-0,2.882 2.651,4.323 7.953,4.323Z" style="fill:#f9f3e8;fill-rule:nonzero;"/><path d="M7411.16,1366.99c16.713,0 34.175,3.689 52.386,11.065c23.859,9.682 42.589,26.049 56.189,49.101c12.564,21.323 18.845,43.453 18.845,66.39c0,25.703 -7.549,48.928 -22.648,69.675c-6.916,9.682 -15.503,18.182 -25.761,25.501c-10.258,7.32 -20.747,12.477 -31.466,15.474c-2.766,0.807 -4.149,1.96 -4.149,3.458c-0,4.149 5.1,7.78 15.3,10.892c10.201,3.112 21.871,4.668 35.011,4.668c8.068,0 15.733,-1.613 22.994,-4.841c1.499,-0.691 2.824,-1.037 3.977,-1.037c1.844,-0 3.688,1.441 5.532,4.322c1.844,2.882 2.766,5.763 2.766,8.645c0,5.878 -3.688,12.102 -11.065,18.672c-7.492,6.685 -17.202,11.987 -29.132,15.906c-11.929,3.919 -24.233,5.878 -36.912,5.878c-14.868,0 -30.976,-2.824 -48.323,-8.472c-17.346,-5.647 -42.675,-16.309 -75.985,-31.984c-5.879,-2.882 -12.506,-5.273 -19.883,-7.175c-7.376,-1.902 -13.485,-2.853 -18.326,-2.853c-1.614,0 -3.573,0.173 -5.878,0.519c-1.268,0.115 -2.363,0.173 -3.285,0.173c-2.19,-0 -4.006,-0.951 -5.446,-2.853c-1.441,-1.902 -2.161,-4.294 -2.161,-7.175c-0,-5.302 1.728,-9.74 5.186,-13.313c5.533,-5.532 12.333,-8.298 20.401,-8.298l9.336,0.172c2.536,0 3.804,-1.152 3.804,-3.457c0,-1.729 -2.363,-5.36 -7.088,-10.892c-10.72,-12.333 -18.615,-23.859 -23.686,-34.579c-7.838,-16.712 -11.757,-34.232 -11.757,-52.558c-0,-24.205 6.397,-45.874 19.191,-65.007c12.448,-18.557 30.486,-33.022 54.115,-43.396c19.363,-8.414 38.669,-12.621 57.918,-12.621Zm-17.116,50.138c-9.106,0 -16.223,3.084 -21.352,9.25c-5.129,6.167 -7.694,14.667 -7.694,25.502c0,12.793 2.046,26.74 6.138,41.839c4.092,15.099 9.653,29.334 16.684,42.704c9.451,17.981 21.208,26.971 35.269,26.971c9.106,-0 16.627,-3.17 22.563,-9.509c5.936,-6.339 8.904,-14.408 8.904,-24.205c-0,-12.909 -2.306,-27.605 -6.916,-44.087c-4.611,-16.482 -10.489,-30.947 -17.635,-43.395c-9.221,-16.252 -21.208,-24.608 -35.961,-25.07Z" style="fill:#f9f3e8;fill-rule:nonzero;"/><path d="M7897.16,1458.27l-0,42.186c-0,25.472 -1.902,43.511 -5.706,54.115c-8.183,22.36 -26.164,38.554 -53.942,48.582c-16.828,6.224 -35.846,9.336 -57.054,9.336c-36.998,-0 -66.62,-8.817 -88.865,-26.452c-10.835,-8.645 -18.327,-18.673 -22.476,-30.083c-4.15,-11.411 -6.224,-27.893 -6.224,-49.447c-0,-8.414 0.288,-22.245 0.864,-41.494c0.346,-13.601 0.519,-22.591 0.519,-26.971c-0,-9.566 -0.72,-16.194 -2.161,-19.882c-1.441,-3.689 -4.582,-7.146 -9.423,-10.374c-7.607,-4.956 -11.411,-10.488 -11.411,-16.597c0,-4.495 1.931,-8.472 5.792,-11.93c3.862,-3.457 8.962,-5.82 15.301,-7.088c12.679,-2.536 27.663,-3.804 44.952,-3.804c19.018,0 34.808,1.441 47.372,4.323c12.333,2.766 18.499,9.048 18.499,18.845c0,4.841 -1.787,8.702 -5.36,11.583c-0.806,0.692 -4.264,2.478 -10.373,5.36c-3.688,1.614 -6.195,4.553 -7.521,8.817c-1.325,4.265 -1.988,11.296 -1.988,21.093c-0,10.028 -0.461,31.697 -1.383,65.007c-0.576,19.825 4.783,34.924 16.079,45.297c9.221,8.53 21.092,12.794 35.615,12.794c9.221,0 17.577,-1.7 25.069,-5.1c7.492,-3.4 13.198,-8.039 17.116,-13.918c3.113,-4.495 5.245,-9.509 6.397,-15.041c1.153,-5.533 1.729,-13.082 1.729,-22.649l0,-38.036c-0.576,-29.161 -1.412,-46.248 -2.507,-51.262c-1.095,-5.014 -4.812,-8.961 -11.151,-11.843c-5.994,-2.651 -10.085,-5.071 -12.275,-7.261c-2.19,-2.19 -3.285,-4.899 -3.285,-8.126c-0,-6.916 4.12,-11.959 12.362,-15.128c8.241,-3.17 21.467,-4.755 39.678,-4.755c17.865,0 30.803,1.556 38.814,4.668c8.01,3.112 12.016,8.069 12.016,14.869c-0,3.343 -0.692,5.821 -2.075,7.434c-1.383,1.614 -5.014,4.092 -10.892,7.435c-6.109,3.457 -9.595,7.175 -10.46,11.151c-0.864,3.976 -1.412,18.759 -1.642,44.346Z" style="fill:#f9f3e8;fill-rule:nonzero;"/><path d="M8058.29,1371.83l88.866,0c17.98,0 31.091,-0.374 39.332,-1.124c8.241,-0.749 16.281,-2.276 24.118,-4.581c2.421,-0.692 4.323,-1.038 5.706,-1.038c5.993,0 11.295,3.228 15.906,9.682c7.607,10.489 11.411,23.168 11.411,38.036c-0,7.492 -1.585,13.399 -4.755,17.722c-3.17,4.322 -7.521,6.483 -13.053,6.483c-3.804,-0 -6.772,-0.778 -8.904,-2.334c-2.132,-1.556 -4.985,-5.043 -8.558,-10.46c-5.072,-7.722 -11.497,-12.88 -19.277,-15.474c-7.781,-2.593 -20.546,-3.89 -38.296,-3.89c-13.255,0 -21.323,2.363 -24.204,7.089c-1.499,2.535 -2.392,5.936 -2.68,10.2c-0.288,4.265 -0.432,15.157 -0.432,32.677c-0,6.915 1.152,11.209 3.457,12.88c2.306,1.671 8.357,2.507 18.154,2.507c4.841,-0 8.356,-1.009 10.546,-3.026c2.19,-2.017 3.573,-5.619 4.15,-10.805c0.806,-6.685 1.642,-11.267 2.506,-13.745c0.865,-2.478 2.45,-4.639 4.755,-6.484c2.42,-2.074 5.244,-3.112 8.472,-3.112c4.725,0 8.759,2.248 12.102,6.743c2.42,3.343 4.466,9.25 6.138,17.721c1.671,8.472 2.506,17.318 2.506,26.539c0,18.211 -2.823,33.138 -8.471,44.779c-3.112,6.339 -7.838,9.509 -14.177,9.509c-3.919,-0 -6.628,-1.009 -8.126,-3.026c-1.498,-2.017 -2.651,-6.195 -3.458,-12.534c-1.729,-13.025 -9.336,-19.537 -22.821,-19.537c-5.187,0 -8.731,1.642 -10.633,4.927c-1.902,3.285 -2.853,9.365 -2.853,18.24c0,5.418 0.375,12.42 1.124,21.007c0.749,8.587 1.527,14.263 2.334,17.029c0.922,3.458 3.775,5.85 8.558,7.175c4.783,1.326 12.765,1.989 23.945,1.989c17.289,-0 30.314,-2.219 39.074,-6.657c8.759,-4.437 15.906,-12.477 21.438,-24.118c3.227,-6.685 6.138,-11.18 8.731,-13.485c2.593,-2.306 5.965,-3.458 10.114,-3.458c4.841,-0 8.846,2.103 12.016,6.31c3.17,4.207 4.755,9.48 4.755,15.82c-0,6.915 -1.787,15.56 -5.36,25.933c-3.573,10.374 -7.953,19.595 -13.14,27.663c-2.651,3.919 -4.841,6.541 -6.57,7.866c-1.728,1.326 -3.918,1.989 -6.569,1.989c-2.19,-0 -5.36,-0.346 -9.509,-1.038c-7.377,-1.383 -17.232,-2.247 -29.565,-2.593l-146.611,-0c-5.878,-0 -10.431,-1.297 -13.658,-3.89c-3.228,-2.594 -4.841,-6.253 -4.841,-10.979c-0,-3.342 0.691,-5.763 2.074,-7.261c1.384,-1.499 4.553,-3.4 9.509,-5.706c3.458,-1.498 6.023,-3.342 7.694,-5.532c1.671,-2.19 2.968,-5.417 3.89,-9.682c3.804,-17.404 5.705,-40.86 5.705,-70.366c0,-44.491 -2.766,-72.557 -8.298,-84.198c-1.153,-2.305 -2.421,-3.919 -3.804,-4.841c-1.383,-0.922 -4.265,-2.017 -8.644,-3.285c-6.57,-1.959 -9.855,-6.339 -9.855,-13.14c-0,-3.688 1.095,-6.973 3.285,-9.854c2.19,-2.882 5.071,-4.784 8.644,-5.706c4.495,-1.037 13.198,-1.556 26.107,-1.556Zm91.459,-77.282c10.489,0 19.825,1.556 28.008,4.668c4.034,1.498 7.319,3.631 9.855,6.397c2.536,2.766 3.746,5.533 3.631,8.299c-0.231,5.186 -5.129,11.468 -14.696,18.845c-17.404,13.37 -36.653,20.055 -57.746,20.055c-11.871,0 -17.807,-4.264 -17.807,-12.794c-0,-2.997 0.605,-5.273 1.815,-6.829c1.21,-1.556 4.697,-4.582 10.46,-9.077c5.187,-3.688 8.356,-6.137 9.509,-7.348c1.153,-1.21 1.729,-2.679 1.729,-4.408c-0,-0.922 -0.692,-2.594 -2.075,-5.014c-0.461,-0.807 -0.691,-1.671 -0.691,-2.593c-0,-2.997 2.593,-5.418 7.78,-7.262c5.186,-1.844 11.929,-2.824 20.228,-2.939Z" style="fill:#f9f3e8;fill-rule:nonzero;"/><path d="M8449.37,1607.65l-23.167,0.173c-16.252,0.23 -28.123,0.576 -35.615,1.037c-6.686,0.577 -11.469,0.865 -14.35,0.865c-7.031,-0 -12.621,-1.787 -16.771,-5.36c-4.034,-3.573 -6.051,-7.838 -6.051,-12.794c0,-3.227 0.749,-5.763 2.248,-7.607c1.498,-1.844 5.129,-4.726 10.892,-8.645c3.342,-2.305 5.648,-5.907 6.915,-10.805c1.268,-4.899 2.651,-15.416 4.15,-31.553c2.19,-25.127 3.285,-56.074 3.285,-92.842c-0,-13.486 -0.894,-22.447 -2.68,-26.885c-1.787,-4.437 -5.965,-8.097 -12.535,-10.978c-7.607,-3.227 -11.41,-7.953 -11.41,-14.177c-0,-5.072 2.276,-9.221 6.829,-12.448c4.553,-3.228 10.402,-4.841 17.548,-4.841c3.919,-0 8.933,0.173 15.042,0.518c10.143,0.462 21.092,0.692 32.849,0.692c8.644,0 25.645,-0.346 51.003,-1.037c7.953,-0.231 15.156,-0.346 21.611,-0.346c15.33,-0 27.691,1.239 37.085,3.717c9.394,2.478 17.548,6.656 24.464,12.535c11.296,9.566 16.943,22.36 16.943,38.381c0,7.953 -1.671,15.705 -5.014,23.254c-3.342,7.55 -7.837,13.572 -13.485,18.067c-4.034,3.228 -6.051,6.167 -6.051,8.818c-0,2.881 2.42,5.302 7.261,7.261c9.452,3.804 18.038,10.201 25.761,19.191c7.953,9.336 11.929,21.035 11.929,35.097c0,16.597 -6.051,31.754 -18.153,45.47c-16.021,18.096 -39.707,27.144 -71.058,27.144c-4.265,-0 -14.754,-0.288 -31.466,-0.865c-15.215,-0.576 -24.551,-0.922 -28.009,-1.037Zm11.93,-187.586l-0,35.615c-0,5.648 0.72,9.624 2.161,11.93c1.441,2.305 3.948,3.457 7.521,3.457c8.529,0 14.811,-2.622 18.845,-7.866c4.034,-5.245 6.051,-13.457 6.051,-24.637c0,-10.835 -2.075,-19.22 -6.224,-25.156c-4.149,-5.936 -10.028,-8.904 -17.635,-8.904c-4.034,0 -6.829,1.124 -8.385,3.372c-1.556,2.247 -2.334,6.31 -2.334,12.189Zm-0,99.585l-0,16.424c-0,15.099 1.095,25.127 3.285,30.083c2.19,4.956 6.627,7.435 13.312,7.435c17.52,-0 26.28,-10.259 26.28,-30.775c-0,-25.588 -9.797,-38.382 -29.392,-38.382c-5.071,0 -8.587,1.095 -10.546,3.285c-1.959,2.19 -2.939,6.167 -2.939,11.93Z" style="fill:#f9f3e8;fill-rule:nonzero;"/><path d="M8733.95,1371.83l88.866,0c17.981,0 31.092,-0.374 39.333,-1.124c8.241,-0.749 16.28,-2.276 24.118,-4.581c2.421,-0.692 4.322,-1.038 5.706,-1.038c5.993,0 11.295,3.228 15.905,9.682c7.608,10.489 11.411,23.168 11.411,38.036c0,7.492 -1.585,13.399 -4.754,17.722c-3.17,4.322 -7.521,6.483 -13.053,6.483c-3.804,-0 -6.772,-0.778 -8.904,-2.334c-2.133,-1.556 -4.985,-5.043 -8.558,-10.46c-5.072,-7.722 -11.498,-12.88 -19.278,-15.474c-7.78,-2.593 -20.545,-3.89 -38.295,-3.89c-13.255,0 -21.323,2.363 -24.205,7.089c-1.498,2.535 -2.391,5.936 -2.68,10.2c-0.288,4.265 -0.432,15.157 -0.432,32.677c0,6.915 1.153,11.209 3.458,12.88c2.305,1.671 8.356,2.507 18.154,2.507c4.841,-0 8.356,-1.009 10.546,-3.026c2.19,-2.017 3.573,-5.619 4.149,-10.805c0.807,-6.685 1.643,-11.267 2.507,-13.745c0.865,-2.478 2.449,-4.639 4.755,-6.484c2.42,-2.074 5.244,-3.112 8.471,-3.112c4.726,0 8.76,2.248 12.103,6.743c2.42,3.343 4.466,9.25 6.137,17.721c1.672,8.472 2.507,17.318 2.507,26.539c0,18.211 -2.824,33.138 -8.471,44.779c-3.112,6.339 -7.838,9.509 -14.177,9.509c-3.919,-0 -6.628,-1.009 -8.126,-3.026c-1.499,-2.017 -2.651,-6.195 -3.458,-12.534c-1.729,-13.025 -9.336,-19.537 -22.822,-19.537c-5.186,0 -8.731,1.642 -10.632,4.927c-1.902,3.285 -2.853,9.365 -2.853,18.24c-0,5.418 0.374,12.42 1.124,21.007c0.749,8.587 1.527,14.263 2.334,17.029c0.922,3.458 3.774,5.85 8.558,7.175c4.783,1.326 12.765,1.989 23.945,1.989c17.289,-0 30.314,-2.219 39.073,-6.657c8.76,-4.437 15.906,-12.477 21.439,-24.118c3.227,-6.685 6.137,-11.18 8.731,-13.485c2.593,-2.306 5.965,-3.458 10.114,-3.458c4.841,-0 8.846,2.103 12.016,6.31c3.169,4.207 4.754,9.48 4.754,15.82c0,6.915 -1.786,15.56 -5.359,25.933c-3.573,10.374 -7.953,19.595 -13.14,27.663c-2.651,3.919 -4.841,6.541 -6.57,7.866c-1.729,1.326 -3.919,1.989 -6.57,1.989c-2.19,-0 -5.359,-0.346 -9.509,-1.038c-7.376,-1.383 -17.231,-2.247 -29.564,-2.593l-146.611,-0c-5.879,-0 -10.431,-1.297 -13.659,-3.89c-3.227,-2.594 -4.841,-6.253 -4.841,-10.979c0,-3.342 0.692,-5.763 2.075,-7.261c1.383,-1.499 4.553,-3.4 9.509,-5.706c3.458,-1.498 6.022,-3.342 7.694,-5.532c1.671,-2.19 2.968,-5.417 3.89,-9.682c3.803,-17.404 5.705,-40.86 5.705,-70.366c0,-44.491 -2.766,-72.557 -8.299,-84.198c-1.152,-2.305 -2.42,-3.919 -3.803,-4.841c-1.383,-0.922 -4.265,-2.017 -8.645,-3.285c-6.57,-1.959 -9.854,-6.339 -9.854,-13.14c-0,-3.688 1.094,-6.973 3.284,-9.854c2.19,-2.882 5.072,-4.784 8.645,-5.706c4.495,-1.037 13.197,-1.556 26.106,-1.556Zm91.46,-77.282c10.488,0 19.824,1.556 28.008,4.668c4.034,1.498 7.319,3.631 9.855,6.397c2.535,2.766 3.746,5.533 3.63,8.299c-0.23,5.186 -5.129,11.468 -14.695,18.845c-17.405,13.37 -36.653,20.055 -57.746,20.055c-11.872,0 -17.808,-4.264 -17.808,-12.794c0,-2.997 0.606,-5.273 1.816,-6.829c1.21,-1.556 4.697,-4.582 10.46,-9.077c5.186,-3.688 8.356,-6.137 9.509,-7.348c1.152,-1.21 1.729,-2.679 1.729,-4.408c-0,-0.922 -0.692,-2.594 -2.075,-5.014c-0.461,-0.807 -0.692,-1.671 -0.692,-2.593c0,-2.997 2.594,-5.418 7.78,-7.262c5.187,-1.844 11.93,-2.824 20.229,-2.939Z" style="fill:#f9f3e8;fill-rule:nonzero;"/><path d="M9163.06,1366.99c16.828,0 33.08,3.689 48.755,11.065c7.377,3.458 12.506,5.187 15.388,5.187c2.074,-0 5.417,-0.519 10.027,-1.556c1.499,-0.346 3.17,-0.519 5.014,-0.519c5.994,0 11.238,2.766 15.733,8.299c11.065,13.37 16.598,29.968 16.598,49.792c-0,13.947 -4.784,24.148 -14.35,30.602c-5.187,3.458 -11.008,5.187 -17.462,5.187c-5.879,-0 -10.662,-1.268 -14.35,-3.804c-3.689,-2.535 -7.262,-7.031 -10.719,-13.485c-4.957,-9.106 -8.991,-15.647 -12.103,-19.623c-3.112,-3.977 -6.915,-7.579 -11.411,-10.806c-11.18,-7.838 -22.879,-11.757 -35.096,-11.757c-11.872,0 -21.295,4.294 -28.268,12.881c-6.973,8.587 -10.46,20.084 -10.46,34.492c0,19.824 5.014,37.978 15.042,54.46c13.6,22.015 33.079,33.022 58.437,33.022c9.336,0 18.585,-1.556 27.749,-4.668c9.163,-3.112 16.28,-7.146 21.352,-12.102c4.379,-4.15 7.953,-6.224 10.719,-6.224c4.034,-0 7.492,1.873 10.373,5.619c2.882,3.746 4.322,8.27 4.322,13.572c0,6.685 -2.017,14.177 -6.051,22.475c-4.034,8.299 -8.875,14.811 -14.522,19.537c-2.421,1.959 -7.435,3.688 -15.042,5.187c-4.38,0.807 -10.201,2.939 -17.462,6.397c-17.058,8.183 -34.809,12.275 -53.25,12.275c-19.249,-0 -38.44,-4.322 -57.573,-12.967c-22.245,-10.028 -39.822,-25.415 -52.732,-46.162c-12.678,-20.17 -19.017,-41.263 -19.017,-63.278c-0,-25.587 7.952,-48.928 23.858,-70.02c13.832,-18.327 31.87,-32.331 54.115,-42.013c16.943,-7.376 34.405,-11.065 52.386,-11.065Z" style="fill:#f9f3e8;fill-rule:nonzero;"/><path d="M9508.67,1366.99c29.621,0 55.497,8.472 77.627,25.415c14.984,11.641 27.144,26.741 36.48,45.297c9.106,18.442 13.659,36.884 13.659,55.325c-0,27.202 -8.991,51.522 -26.971,72.96c-15.215,18.211 -35.097,31.294 -59.648,39.247c-15.099,4.84 -30.255,7.261 -45.47,7.261c-19.94,-0 -39.015,-4.149 -57.227,-12.448c-22.014,-10.028 -39.246,-25.185 -51.694,-45.47c-12.102,-19.595 -18.153,-41.206 -18.153,-64.834c-0,-27.432 7.78,-51.637 23.34,-72.615c13.831,-18.672 32.446,-32.388 55.844,-41.147c15.675,-5.994 33.079,-8.991 52.213,-8.991Zm-16.425,49.62c-9.682,-0 -17.347,4.322 -22.995,12.967c-4.379,6.454 -6.569,14.119 -6.569,22.994c-0,13.025 2.651,28.095 7.953,45.211c5.302,17.116 11.987,32.302 20.055,45.557c3.573,5.647 7.982,10.143 13.226,13.485c5.244,3.343 10.575,5.014 15.992,5.014c8.76,-0 15.82,-3.285 21.18,-9.855c5.359,-6.57 8.039,-15.214 8.039,-25.933c-0,-13.947 -2.248,-28.988 -6.743,-45.125c-4.495,-16.136 -10.316,-29.91 -17.462,-41.321c-4.38,-7.031 -9.451,-12.563 -15.214,-16.597c-5.763,-4.034 -11.584,-6.167 -17.462,-6.397Z" style="fill:#f9f3e8;fill-rule:nonzero;"/><path d="M9814,1368.2c13.14,0 25.531,1.153 37.172,3.458c15.675,3.112 23.513,9.74 23.513,19.883c0,3.342 -0.778,5.849 -2.334,7.52c-1.556,1.672 -5.504,4.121 -11.843,7.348c-5.302,2.651 -8.789,8.472 -10.46,17.462c-1.671,8.991 -2.507,26.51 -2.507,52.559c0,44.029 1.095,71.289 3.285,81.777c0.807,3.343 2.046,5.907 3.717,7.694c1.672,1.786 4.582,3.717 8.731,5.792c7.607,3.458 11.411,8.471 11.411,15.041c0,9.221 -7.031,15.56 -21.093,19.018c-15.214,3.689 -33.829,5.533 -55.843,5.533c-37.575,-0 -56.363,-7.146 -56.363,-21.439c0,-5.186 3.689,-10.027 11.065,-14.523c5.648,-3.457 8.991,-8.183 10.028,-14.177c2.19,-13.139 3.285,-41.032 3.285,-83.679c-0,-29.506 -1.498,-48.409 -4.495,-56.708c-1.614,-4.725 -5.475,-8.99 -11.584,-12.794c-4.726,-3.112 -7.895,-5.705 -9.509,-7.78c-1.614,-2.074 -2.42,-4.725 -2.42,-7.953c-0,-4.956 2.391,-8.904 7.175,-11.843c4.783,-2.939 13.226,-5.561 25.328,-7.866c14.408,-2.882 28.988,-4.323 43.741,-4.323Z" style="fill:#f9f3e8;fill-rule:nonzero;"/><path d="M10079.4,1366.99c11.871,0 27.432,2.939 46.68,8.818c2.305,0.691 4.149,1.037 5.533,1.037c1.152,-0 4.61,-1.037 10.373,-3.112c1.844,-0.692 3.804,-1.037 5.878,-1.037c7.723,-0 15.877,6.108 24.464,18.326c8.587,12.218 12.881,23.859 12.881,34.924c-0,6.454 -1.931,11.901 -5.792,16.338c-3.861,4.438 -8.558,6.656 -14.091,6.656c-4.61,0 -8.356,-0.922 -11.238,-2.766c-2.881,-1.844 -9.22,-7.319 -19.018,-16.424c-13.831,-12.91 -27.432,-19.364 -40.802,-19.364c-6.454,-0 -11.612,1.556 -15.474,4.668c-3.861,3.112 -5.791,7.204 -5.791,12.275c-0,10.028 8.817,17.577 26.452,22.649c23.859,7.031 39.131,12.16 45.816,15.387c29.391,14.292 44.087,35.327 44.087,63.105c0,24.551 -10.028,44.606 -30.083,60.166c-20.516,15.906 -47.314,23.859 -80.394,23.859c-14.753,-0 -30.314,-1.758 -46.681,-5.273c-16.367,-3.516 -28.181,-7.636 -35.442,-12.362c-5.533,-3.688 -10.518,-11.728 -14.955,-24.118c-4.438,-12.391 -6.656,-24.464 -6.656,-36.221c-0,-5.648 1.152,-9.912 3.457,-12.794c2.882,-3.688 6.513,-5.532 10.892,-5.532c4.38,-0 8.587,2.247 12.621,6.743c2.421,2.535 8.126,10.661 17.117,24.377c4.264,6.455 11.036,11.814 20.314,16.079c9.279,4.265 18.874,6.397 28.787,6.397c8.529,-0 15.445,-1.585 20.746,-4.755c5.302,-3.169 7.953,-7.232 7.953,-12.188c0,-4.611 -2.074,-8.587 -6.224,-11.93c-4.149,-3.342 -10.892,-6.454 -20.228,-9.336c-16.482,-5.187 -29.045,-9.941 -37.69,-14.263c-8.645,-4.323 -16.713,-9.769 -24.205,-16.339c-18.211,-16.136 -27.316,-34.462 -27.316,-54.979c-0,-10.143 2.362,-20.026 7.088,-29.651c4.726,-9.624 11.411,-17.951 20.055,-24.982c19.364,-16.252 42.993,-24.378 70.886,-24.378Z" style="fill:#f9f3e8;fill-rule:nonzero;"/></g></g></svg>