<?xml version="1.0" encoding="UTF-8" standalone="no"?><!DOCTYPE svg PUBLIC "-//W3C//DTD SVG 1.1//EN" "http://www.w3.org/Graphics/SVG/1.1/DTD/svg11.dtd"><svg width="100%" height="100%" viewBox="0 0 2384 950" version="1.1" xmlns="http://www.w3.org/2000/svg" xmlns:xlink="http://www.w3.org/1999/xlink" xml:space="preserve" xmlns:serif="http://www.serif.com/" style="fill-rule:evenodd;clip-rule:evenodd;stroke-linejoin:round;stroke-miterlimit:2;"><path d="M702.418,949.589l-671.273,0l-0,-159.701l276.328,-258.436c52.571,-49.92 89.017,-91.447 109.339,-124.58c20.321,-33.133 30.482,-66.045 30.482,-98.736c0,-40.643 -12.811,-72.451 -38.434,-95.423c-25.623,-22.972 -60.302,-34.458 -104.037,-34.458c-70.242,0 -137.833,32.249 -202.774,96.748l-102.049,-134.519c45.503,-46.387 97.411,-81.397 155.725,-105.032c58.314,-23.635 117.953,-35.452 178.917,-35.452c64.057,-0 120.052,12.149 167.984,36.446c47.932,24.298 85.262,58.314 111.989,102.05c26.728,43.735 40.091,94.76 40.091,153.074c0,37.55 -6.074,73.776 -18.223,108.676c-12.149,34.899 -32.801,71.235 -61.958,109.007c-29.157,37.771 -68.696,79.408 -118.616,124.911l-157.05,142.471l403.559,0l-0,172.954Z" style="fill:#4c6663;fill-rule:nonzero;"/><g><path d="M981.869,243.996l-28.949,-0l-0,-131.163l54.338,0c15.677,0 28.06,4.185 37.147,12.554c9.088,8.37 13.632,19.831 13.632,34.384c-0,14.552 -4.544,26.013 -13.632,34.383c-9.087,8.369 -21.47,12.554 -37.147,12.554l-25.389,-0l0,37.288Zm21.923,-106.336l-21.923,0l0,44.221l21.923,-0c7.995,-0 14.147,-1.905 18.456,-5.715c4.31,-3.81 6.465,-9.275 6.465,-16.395c-0,-7.121 -2.155,-12.586 -6.465,-16.396c-4.309,-3.81 -10.461,-5.715 -18.456,-5.715Z" style="fill:#4c6663;fill-rule:nonzero;"/><path d="M1103.19,243.996l-27.731,-0l-0,-95.187l25.202,0l0.656,15.084c3.247,-4.872 7.666,-8.869 13.256,-11.992c5.59,-3.123 11.633,-4.685 18.129,-4.685c1.561,0 3.232,0.094 5.012,0.281c1.78,0.188 3.107,0.375 3.982,0.563l-0,25.014c-1.062,-0.187 -2.296,-0.328 -3.701,-0.421c-1.405,-0.094 -2.732,-0.141 -3.982,-0.141c-9.993,0 -17.628,3.107 -22.906,9.322c-5.278,6.215 -7.917,14.35 -7.917,24.406l0,37.756Z" style="fill:#4c6663;fill-rule:nonzero;"/><path d="M1201.66,246.525c-10.181,0 -19.128,-2.123 -26.842,-6.371c-7.713,-4.247 -13.756,-10.133 -18.128,-17.66c-4.372,-7.526 -6.558,-16.223 -6.558,-26.092c-0,-9.868 2.186,-18.565 6.558,-26.092c4.372,-7.526 10.415,-13.413 18.128,-17.66c7.714,-4.247 16.661,-6.37 26.842,-6.37c10.118,-0 19.05,2.123 26.794,6.37c7.745,4.247 13.804,10.134 18.176,17.66c4.372,7.527 6.558,16.224 6.558,26.092c-0,9.869 -2.186,18.566 -6.558,26.092c-4.372,7.527 -10.431,13.413 -18.176,17.66c-7.744,4.248 -16.676,6.371 -26.794,6.371Zm-0,-23.984c6.995,0 12.648,-2.405 16.957,-7.214c4.31,-4.809 6.465,-11.117 6.465,-18.925c-0,-7.807 -2.155,-14.115 -6.465,-18.925c-4.309,-4.809 -9.962,-7.213 -16.957,-7.213c-6.996,-0 -12.648,2.404 -16.958,7.213c-4.309,4.81 -6.464,11.118 -6.464,18.925c-0,7.808 2.155,14.116 6.464,18.925c4.31,4.809 9.962,7.214 16.958,7.214Z" style="fill:#4c6663;fill-rule:nonzero;"/><path d="M1301.34,120.516c0,4.434 -1.483,8.072 -4.45,10.914c-2.967,2.842 -6.792,4.263 -11.477,4.263c-4.684,-0 -8.51,-1.421 -11.476,-4.263c-2.967,-2.842 -4.451,-6.48 -4.451,-10.914c0,-4.435 1.484,-8.073 4.451,-10.915c2.966,-2.842 6.792,-4.263 11.476,-4.263c4.685,0 8.51,1.421 11.477,4.263c2.967,2.842 4.45,6.48 4.45,10.915Zm-54.151,164.327l-0,-23.328c1.249,0.125 2.436,0.234 3.56,0.328c1.124,0.094 2.311,0.141 3.56,0.141c6.121,-0 10.524,-1.25 13.21,-3.748c2.686,-2.498 4.029,-6.808 4.029,-12.929l-0,-96.498l27.731,0l0,98.653c0,12.679 -2.935,22.266 -8.807,28.762c-5.871,6.496 -15.364,9.744 -28.481,9.744c-2.498,-0 -5.059,-0.094 -7.682,-0.282c-2.623,-0.187 -4.997,-0.468 -7.12,-0.843Z" style="fill:#4c6663;fill-rule:nonzero;"/><path d="M1401.78,214.765l10.68,18.925c-5.308,3.997 -11.71,7.136 -19.205,9.416c-7.495,2.279 -15.178,3.419 -23.048,3.419c-10.368,0 -19.502,-2.077 -27.403,-6.23c-7.901,-4.154 -14.069,-9.993 -18.503,-17.52c-4.435,-7.526 -6.652,-16.317 -6.652,-26.373c-0,-9.931 2.108,-18.659 6.324,-26.185c4.216,-7.527 10.055,-13.398 17.519,-17.614c7.464,-4.215 16.005,-6.323 25.624,-6.323c14.428,-0 25.655,4.372 33.68,13.116c8.026,8.744 12.039,20.955 12.039,36.632l0,10.305l-68.485,0c1.811,5.746 5.184,10.197 10.118,13.351c4.934,3.154 10.993,4.731 18.175,4.731c9.806,-0 19.519,-3.217 29.137,-9.65Zm-34.664,-47.593c-6.184,-0 -11.305,1.733 -15.365,5.2c-4.06,3.466 -6.745,8.447 -8.057,14.943l43.471,-0l-0,-0.75c-0,-5.871 -1.827,-10.571 -5.481,-14.1c-3.654,-3.529 -8.51,-5.293 -14.568,-5.293Z" style="fill:#4c6663;fill-rule:nonzero;"/><path d="M1504.08,213.172l11.992,19.768c-4.747,3.998 -10.524,7.261 -17.332,9.791c-6.808,2.529 -14.022,3.794 -21.642,3.794c-9.806,0 -18.519,-2.123 -26.139,-6.371c-7.62,-4.247 -13.6,-10.133 -17.941,-17.66c-4.341,-7.526 -6.511,-16.223 -6.511,-26.092c-0,-9.868 2.17,-18.565 6.511,-26.092c4.341,-7.526 10.321,-13.413 17.941,-17.66c7.62,-4.247 16.333,-6.37 26.139,-6.37c7.183,-0 13.99,1.139 20.424,3.419c6.433,2.28 11.898,5.137 16.395,8.573l-11.992,19.768c-3.06,-2.186 -6.496,-3.951 -10.306,-5.294c-3.81,-1.343 -7.682,-2.014 -11.617,-2.014c-7.807,-0 -13.928,2.373 -18.363,7.12c-4.434,4.747 -6.651,10.93 -6.651,18.55c-0,7.62 2.232,13.804 6.698,18.55c4.466,4.747 10.603,7.121 18.41,7.121c4.247,-0 8.432,-0.797 12.554,-2.389c4.122,-1.593 7.932,-3.763 11.43,-6.512Z" style="fill:#4c6663;fill-rule:nonzero;"/><path d="M1594.49,220.105l0,23.328c-2.436,0.375 -5.262,0.687 -8.479,0.937c-3.216,0.25 -6.261,0.375 -9.134,0.375c-13.179,0 -22.688,-3.248 -28.528,-9.743c-5.84,-6.496 -8.76,-16.083 -8.76,-28.762l0,-33.822l-17.144,0l-0,-23.609l17.144,0l0,-27.638l27.732,0l-0,27.638l27.544,0l-3.092,23.609l-24.452,0l-0,31.667c-0,6.121 1.358,10.43 4.075,12.929c2.717,2.498 7.292,3.747 13.725,3.747c3.623,0 6.746,-0.219 9.369,-0.656Z" style="fill:#4c6663;fill-rule:nonzero;"/><path d="M1641.62,120.516c-0,4.434 -1.483,8.072 -4.45,10.914c-2.967,2.842 -6.793,4.263 -11.477,4.263c-4.684,-0 -8.51,-1.421 -11.477,-4.263c-2.966,-2.842 -4.45,-6.48 -4.45,-10.914c0,-4.435 1.484,-8.073 4.45,-10.915c2.967,-2.842 6.793,-4.263 11.477,-4.263c4.684,0 8.51,1.421 11.477,4.263c2.967,2.842 4.45,6.48 4.45,10.915Zm-2.061,123.48l-27.732,-0l0,-95.187l27.732,0l-0,95.187Z" style="fill:#4c6663;fill-rule:nonzero;"/><path d="M1709.45,246.525c-10.181,0 -19.128,-2.123 -26.842,-6.371c-7.713,-4.247 -13.756,-10.133 -18.128,-17.66c-4.372,-7.526 -6.558,-16.223 -6.558,-26.092c-0,-9.868 2.186,-18.565 6.558,-26.092c4.372,-7.526 10.415,-13.413 18.128,-17.66c7.714,-4.247 16.661,-6.37 26.842,-6.37c10.118,-0 19.049,2.123 26.794,6.37c7.745,4.247 13.804,10.134 18.176,17.66c4.372,7.527 6.558,16.224 6.558,26.092c-0,9.869 -2.186,18.566 -6.558,26.092c-4.372,7.527 -10.431,13.413 -18.176,17.66c-7.745,4.248 -16.676,6.371 -26.794,6.371Zm-0,-23.984c6.995,0 12.647,-2.405 16.957,-7.214c4.31,-4.809 6.465,-11.117 6.465,-18.925c-0,-7.807 -2.155,-14.115 -6.465,-18.925c-4.31,-4.809 -9.962,-7.213 -16.957,-7.213c-6.996,-0 -12.648,2.404 -16.958,7.213c-4.309,4.81 -6.464,11.118 -6.464,18.925c-0,7.808 2.155,14.116 6.464,18.925c4.31,4.809 9.962,7.214 16.958,7.214Z" style="fill:#4c6663;fill-rule:nonzero;"/><path d="M1872.93,243.996l-27.731,-0l-0,-54.808c-0,-5.871 -1.515,-10.493 -4.544,-13.865c-3.029,-3.373 -7.23,-5.059 -12.601,-5.059c-6.371,-0 -11.461,2.076 -15.271,6.23c-3.81,4.153 -5.715,9.571 -5.715,16.255l-0,51.247l-27.732,-0l0,-95.187l25.202,0l0.469,11.43c3.56,-4.31 8.104,-7.714 13.631,-10.212c5.528,-2.498 11.602,-3.747 18.223,-3.747c11.117,-0 19.908,3.466 26.373,10.399c6.464,6.933 9.696,16.364 9.696,28.293l0,59.024Z" style="fill:#4c6663;fill-rule:nonzero;"/><path d="M2039.79,243.996l-25.202,-0l-0.469,-11.43c-3.56,4.372 -8.073,7.791 -13.538,10.258c-5.465,2.468 -11.476,3.701 -18.034,3.701c-8.682,0 -16.396,-2.17 -23.141,-6.511c-6.746,-4.341 -12.055,-10.29 -15.927,-17.848c-3.873,-7.557 -5.809,-16.145 -5.809,-25.764c0,-9.618 1.936,-18.206 5.809,-25.764c3.872,-7.557 9.181,-13.506 15.927,-17.847c6.745,-4.341 14.459,-6.511 23.141,-6.511c6.12,-0 11.71,1.077 16.77,3.232c5.059,2.155 9.306,5.137 12.741,8.947l0,-53.589l27.732,-2.624l-0,141.75Zm-50.592,-21.455c6.996,0 12.648,-2.405 16.958,-7.214c4.309,-4.809 6.464,-11.117 6.464,-18.925c0,-7.807 -2.155,-14.115 -6.464,-18.925c-4.31,-4.809 -9.962,-7.213 -16.958,-7.213c-6.995,-0 -12.647,2.404 -16.957,7.213c-4.31,4.81 -6.465,11.118 -6.465,18.925c0,7.808 2.155,14.116 6.465,18.925c4.31,4.809 9.962,7.214 16.957,7.214Z" style="fill:#4c6663;fill-rule:nonzero;"/><path d="M2154.65,243.996l-25.202,-0l-0.468,-11.43c-3.56,4.372 -8.073,7.791 -13.538,10.258c-5.465,2.468 -11.414,3.701 -17.847,3.701c-10.806,0 -19.425,-3.466 -25.858,-10.399c-6.433,-6.933 -9.65,-16.364 -9.65,-28.294l0,-59.023l27.732,0l-0,54.807c-0,5.809 1.499,10.415 4.497,13.819c2.998,3.404 7.026,5.106 12.085,5.106c6.121,0 11.071,-2.092 14.85,-6.277c3.778,-4.185 5.668,-9.619 5.668,-16.302l-0,-51.153l27.731,0l0,95.187Z" style="fill:#4c6663;fill-rule:nonzero;"/><path d="M985.523,431.37l-27.732,0l0,-71.577l-17.144,0l-0,-23.609l17.144,-0l0,-7.589c0,-12.679 2.92,-22.266 8.76,-28.762c5.84,-6.495 15.256,-9.743 28.247,-9.743c2.373,-0 5.262,0.14 8.666,0.421c3.404,0.281 6.168,0.578 8.291,0.89l0,23.329c-0.999,-0.125 -2.482,-0.266 -4.45,-0.422c-1.967,-0.156 -3.482,-0.234 -4.544,-0.234c-6.121,-0 -10.524,1.249 -13.21,3.747c-2.685,2.499 -4.028,6.808 -4.028,12.929l-0,5.434l25.67,-0l-3.091,23.609l-22.579,0l-0,71.577Z" style="fill:#4c6663;fill-rule:nonzero;"/><path d="M1055.79,307.89c0,4.435 -1.483,8.073 -4.45,10.915c-2.966,2.842 -6.792,4.263 -11.476,4.263c-4.685,-0 -8.51,-1.421 -11.477,-4.263c-2.967,-2.842 -4.45,-6.48 -4.45,-10.915c-0,-4.434 1.483,-8.072 4.45,-10.914c2.967,-2.842 6.792,-4.263 11.477,-4.263c4.684,0 8.51,1.421 11.476,4.263c2.967,2.842 4.45,6.48 4.45,10.914Zm-2.061,123.48l-27.731,0l-0,-95.186l27.731,-0l0,95.186Z" style="fill:#4c6663;fill-rule:nonzero;"/><path d="M1104.69,431.37l-27.731,0l-0,-139.125l27.731,-2.624l0,141.749Z" style="fill:#4c6663;fill-rule:nonzero;"/><path d="M1279.89,431.37l-27.732,0l0,-54.807c0,-5.996 -1.389,-10.649 -4.169,-13.959c-2.779,-3.31 -6.698,-4.966 -11.758,-4.966c-5.621,0 -10.102,1.874 -13.444,5.622c-3.341,3.747 -5.012,9.368 -5.012,16.863l0,51.247l-27.731,0l-0,-54.807c-0,-5.996 -1.39,-10.649 -4.17,-13.959c-2.779,-3.31 -6.698,-4.966 -11.757,-4.966c-5.622,0 -10.103,1.874 -13.444,5.622c-3.342,3.747 -5.013,9.368 -5.013,16.863l0,51.247l-27.731,0l-0,-95.186l25.202,-0l0.468,10.961c3.31,-4.184 7.433,-7.479 12.367,-9.884c4.934,-2.404 10.337,-3.607 16.208,-3.607c6.433,0 12.007,1.437 16.723,4.31c4.716,2.873 8.385,6.902 11.008,12.086c3.623,-4.997 8.463,-8.979 14.522,-11.945c6.058,-2.967 12.679,-4.451 19.862,-4.451c10.93,0 19.596,3.467 25.998,10.4c6.402,6.933 9.603,16.364 9.603,28.293l-0,59.023Z" style="fill:#4c6663;fill-rule:nonzero;"/><path d="M1343.69,422.095l10.399,-20.33c9.806,5.746 20.549,8.619 32.229,8.619c9.306,0 13.959,-1.936 13.959,-5.808c0,-1.374 -0.5,-2.514 -1.499,-3.42c-0.999,-0.905 -2.951,-1.842 -5.855,-2.81c-2.905,-0.969 -7.261,-2.14 -13.07,-3.514c-12.117,-2.873 -20.908,-6.808 -26.373,-11.804c-5.465,-4.997 -8.197,-11.68 -8.197,-20.049c-0,-8.869 3.482,-15.974 10.446,-21.314c6.964,-5.34 16.692,-8.011 29.183,-8.011c6.808,0 13.866,1.047 21.174,3.139c7.307,2.092 13.647,4.887 19.018,8.385l-10.399,20.33c-3.997,-2.498 -8.822,-4.544 -14.475,-6.136c-5.652,-1.593 -10.789,-2.389 -15.411,-2.389c-3.685,-0 -6.636,0.484 -8.854,1.452c-2.217,0.968 -3.326,2.233 -3.326,3.794c0,1.374 0.531,2.53 1.593,3.467c1.062,0.936 3.076,1.873 6.043,2.81c2.967,0.937 7.292,2.093 12.976,3.467c12.116,2.873 20.907,6.823 26.373,11.851c5.465,5.028 8.197,11.727 8.197,20.096c0,9.181 -3.544,16.473 -10.633,21.876c-7.089,5.403 -17.067,8.104 -29.933,8.104c-8.12,-0 -15.974,-1.062 -23.563,-3.185c-7.589,-2.124 -14.256,-4.997 -20.002,-8.62Z" style="fill:#4c6663;fill-rule:nonzero;"/><path d="M1522.63,402.14l10.68,18.925c-5.309,3.997 -11.711,7.136 -19.206,9.415c-7.495,2.28 -15.177,3.42 -23.047,3.42c-10.368,-0 -19.502,-2.077 -27.403,-6.23c-7.901,-4.154 -14.069,-9.994 -18.504,-17.52c-4.434,-7.526 -6.651,-16.317 -6.651,-26.373c-0,-9.931 2.108,-18.659 6.323,-26.185c4.216,-7.527 10.056,-13.398 17.52,-17.614c7.464,-4.216 16.005,-6.324 25.624,-6.324c14.427,0 25.654,4.373 33.68,13.117c8.026,8.744 12.039,20.954 12.039,36.631l0,10.306l-68.485,0c1.811,5.746 5.184,10.196 10.118,13.351c4.934,3.154 10.992,4.731 18.175,4.731c9.806,-0 19.518,-3.217 29.137,-9.65Zm-34.664,-47.593c-6.184,-0 -11.305,1.733 -15.365,5.199c-4.06,3.467 -6.746,8.448 -8.057,14.944l43.471,-0l-0,-0.75c-0,-5.871 -1.827,-10.571 -5.481,-14.1c-3.654,-3.529 -8.51,-5.293 -14.568,-5.293Zm36.912,-63.614l-31.76,31.573l-25.108,-0l25.858,-31.573l31.01,-0Z" style="fill:#4c6663;fill-rule:nonzero;"/><path d="M1581.84,431.37l-27.731,0l-0,-139.125l27.731,-2.624l0,141.749Z" style="fill:#4c6663;fill-rule:nonzero;"/><path d="M1684.34,402.14l10.681,18.925c-5.309,3.997 -11.711,7.136 -19.206,9.415c-7.495,2.28 -15.178,3.42 -23.047,3.42c-10.368,-0 -19.503,-2.077 -27.404,-6.23c-7.901,-4.154 -14.069,-9.994 -18.503,-17.52c-4.435,-7.526 -6.652,-16.317 -6.652,-26.373c0,-9.931 2.108,-18.659 6.324,-26.185c4.216,-7.527 10.056,-13.398 17.52,-17.614c7.463,-4.216 16.004,-6.324 25.623,-6.324c14.428,0 25.655,4.373 33.681,13.117c8.026,8.744 12.039,20.954 12.039,36.631l-0,10.306l-68.486,0c1.811,5.746 5.184,10.196 10.118,13.351c4.934,3.154 10.993,4.731 18.176,4.731c9.806,-0 19.518,-3.217 29.136,-9.65Zm-34.664,-47.593c-6.183,-0 -11.305,1.733 -15.365,5.199c-4.059,3.467 -6.745,8.448 -8.057,14.944l43.471,-0l0,-0.75c0,-5.871 -1.827,-10.571 -5.481,-14.1c-3.653,-3.529 -8.509,-5.293 -14.568,-5.293Z" style="fill:#4c6663;fill-rule:nonzero;"/><path d="M1786.64,400.547l11.992,19.768c-4.747,3.998 -10.524,7.261 -17.332,9.791c-6.808,2.529 -14.022,3.794 -21.642,3.794c-9.806,-0 -18.519,-2.124 -26.139,-6.371c-7.62,-4.247 -13.6,-10.134 -17.941,-17.66c-4.341,-7.526 -6.511,-16.223 -6.511,-26.092c-0,-9.868 2.17,-18.566 6.511,-26.092c4.341,-7.526 10.321,-13.413 17.941,-17.66c7.62,-4.247 16.333,-6.371 26.139,-6.371c7.183,0 13.991,1.14 20.424,3.42c6.433,2.28 11.898,5.137 16.395,8.572l-11.992,19.768c-3.06,-2.186 -6.495,-3.95 -10.305,-5.293c-3.81,-1.343 -7.683,-2.014 -11.618,-2.014c-7.807,-0 -13.928,2.373 -18.362,7.12c-4.435,4.747 -6.652,10.93 -6.652,18.55c-0,7.62 2.233,13.803 6.699,18.55c4.465,4.747 10.602,7.121 18.409,7.121c4.247,-0 8.432,-0.797 12.554,-2.389c4.122,-1.593 7.932,-3.764 11.43,-6.512Z" style="fill:#4c6663;fill-rule:nonzero;"/><path d="M1877.05,407.48l0,23.328c-2.435,0.375 -5.262,0.687 -8.478,0.937c-3.217,0.25 -6.262,0.375 -9.135,0.375c-13.178,-0 -22.688,-3.248 -28.528,-9.744c-5.839,-6.495 -8.759,-16.083 -8.759,-28.762l-0,-33.821l-17.145,0l-0,-23.609l17.145,-0l-0,-27.638l27.731,0l0,27.638l27.544,-0l-3.091,23.609l-24.453,0l0,31.667c0,6.12 1.359,10.43 4.076,12.928c2.716,2.499 7.292,3.748 13.725,3.748c3.622,-0 6.745,-0.219 9.368,-0.656Z" style="fill:#4c6663;fill-rule:nonzero;"/><path d="M1924.18,307.89c0,4.435 -1.483,8.073 -4.45,10.915c-2.967,2.842 -6.792,4.263 -11.477,4.263c-4.684,-0 -8.51,-1.421 -11.476,-4.263c-2.967,-2.842 -4.45,-6.48 -4.45,-10.915c-0,-4.434 1.483,-8.072 4.45,-10.914c2.966,-2.842 6.792,-4.263 11.476,-4.263c4.685,0 8.51,1.421 11.477,4.263c2.967,2.842 4.45,6.48 4.45,10.914Zm-2.061,123.48l-27.731,0l-0,-95.186l27.731,-0l0,95.186Z" style="fill:#4c6663;fill-rule:nonzero;"/><path d="M1992.01,433.9c-10.181,-0 -19.128,-2.124 -26.842,-6.371c-7.713,-4.247 -13.756,-10.134 -18.128,-17.66c-4.372,-7.526 -6.558,-16.223 -6.558,-26.092c-0,-9.868 2.186,-18.566 6.558,-26.092c4.372,-7.526 10.415,-13.413 18.128,-17.66c7.714,-4.247 16.661,-6.371 26.842,-6.371c10.118,0 19.05,2.124 26.795,6.371c7.744,4.247 13.803,10.134 18.175,17.66c4.372,7.526 6.558,16.224 6.558,26.092c0,9.869 -2.186,18.566 -6.558,26.092c-4.372,7.526 -10.431,13.413 -18.175,17.66c-7.745,4.247 -16.677,6.371 -26.795,6.371Zm-0,-23.984c6.995,-0 12.648,-2.405 16.957,-7.214c4.31,-4.809 6.465,-11.118 6.465,-18.925c-0,-7.807 -2.155,-14.115 -6.465,-18.925c-4.309,-4.809 -9.962,-7.214 -16.957,-7.214c-6.995,0 -12.648,2.405 -16.957,7.214c-4.31,4.81 -6.465,11.118 -6.465,18.925c0,7.807 2.155,14.116 6.465,18.925c4.309,4.809 9.962,7.214 16.957,7.214Z" style="fill:#4c6663;fill-rule:nonzero;"/><path d="M2155.49,431.37l-27.732,0l0,-54.807c0,-5.871 -1.515,-10.493 -4.544,-13.865c-3.029,-3.373 -7.229,-5.06 -12.601,-5.06c-6.371,0 -11.461,2.077 -15.271,6.231c-3.81,4.153 -5.715,9.571 -5.715,16.254l0,51.247l-27.731,0l-0,-95.186l25.202,-0l0.468,11.43c3.56,-4.31 8.104,-7.714 13.632,-10.212c5.527,-2.498 11.601,-3.748 18.222,-3.748c11.117,0 19.908,3.467 26.373,10.4c6.464,6.933 9.697,16.364 9.697,28.293l-0,59.023Z" style="fill:#4c6663;fill-rule:nonzero;"/><path d="M2271.38,431.37l-27.732,0l0,-54.807c0,-5.871 -1.514,-10.493 -4.543,-13.865c-3.03,-3.373 -7.23,-5.06 -12.601,-5.06c-6.371,0 -11.462,2.077 -15.271,6.231c-3.81,4.153 -5.715,9.571 -5.715,16.254l-0,51.247l-27.732,0l0,-95.186l25.202,-0l0.468,11.43c3.561,-4.31 8.104,-7.714 13.632,-10.212c5.528,-2.498 11.602,-3.748 18.222,-3.748c11.118,0 19.909,3.467 26.373,10.4c6.465,6.933 9.697,16.364 9.697,28.293l-0,59.023Z" style="fill:#4c6663;fill-rule:nonzero;"/><path d="M2372.94,402.14l10.68,18.925c-5.309,3.997 -11.711,7.136 -19.206,9.415c-7.495,2.28 -15.177,3.42 -23.047,3.42c-10.368,-0 -19.502,-2.077 -27.403,-6.23c-7.901,-4.154 -14.069,-9.994 -18.503,-17.52c-4.435,-7.526 -6.652,-16.317 -6.652,-26.373c-0,-9.931 2.108,-18.659 6.324,-26.185c4.216,-7.527 10.055,-13.398 17.519,-17.614c7.464,-4.216 16.005,-6.324 25.624,-6.324c14.428,0 25.654,4.373 33.68,13.117c8.026,8.744 12.039,20.954 12.039,36.631l0,10.306l-68.485,0c1.811,5.746 5.184,10.196 10.118,13.351c4.934,3.154 10.993,4.731 18.175,4.731c9.806,-0 19.518,-3.217 29.137,-9.65Zm-34.664,-47.593c-6.184,-0 -11.305,1.733 -15.365,5.199c-4.06,3.467 -6.746,8.448 -8.057,14.944l43.471,-0l-0,-0.75c-0,-5.871 -1.827,-10.571 -5.481,-14.1c-3.654,-3.529 -8.51,-5.293 -14.568,-5.293Zm36.913,-63.614l-31.761,31.573l-25.108,-0l25.858,-31.573l31.011,-0Z" style="fill:#4c6663;fill-rule:nonzero;"/><path d="M977.559,659.968l-27.731,-0l-0,-136.409l25.202,-0l0.468,11.43c3.56,-4.372 8.073,-7.792 13.538,-10.259c5.465,-2.467 11.477,-3.701 18.035,-3.701c8.682,0 16.395,2.171 23.141,6.512c6.745,4.34 12.054,10.29 15.927,17.847c3.872,7.557 5.808,16.145 5.808,25.764c0,9.619 -1.936,18.207 -5.808,25.764c-3.873,7.558 -9.182,13.507 -15.927,17.848c-6.746,4.34 -14.459,6.511 -23.141,6.511c-6.121,-0 -11.711,-1.078 -16.77,-3.232c-5.059,-2.155 -9.306,-5.138 -12.742,-8.948l0,50.873Zm22.86,-62.677c6.995,-0 12.648,-2.405 16.958,-7.214c4.309,-4.809 6.464,-11.118 6.464,-18.925c0,-7.807 -2.155,-14.116 -6.464,-18.925c-4.31,-4.809 -9.963,-7.214 -16.958,-7.214c-6.995,0 -12.648,2.405 -16.957,7.214c-4.31,4.809 -6.465,11.118 -6.465,18.925c0,7.807 2.155,14.116 6.465,18.925c4.309,4.809 9.962,7.214 16.957,7.214Z" style="fill:#4c6663;fill-rule:nonzero;"/><path d="M1167.56,618.745l-25.202,0l-0.469,-11.43c-3.56,4.372 -8.073,7.792 -13.538,10.259c-5.465,2.467 -11.476,3.701 -18.034,3.701c-8.682,-0 -16.396,-2.171 -23.141,-6.511c-6.746,-4.341 -12.055,-10.29 -15.927,-17.848c-3.873,-7.557 -5.809,-16.145 -5.809,-25.764c0,-9.619 1.936,-18.207 5.809,-25.764c3.872,-7.557 9.181,-13.507 15.927,-17.847c6.745,-4.341 14.459,-6.512 23.141,-6.512c6.558,0 12.569,1.234 18.034,3.701c5.465,2.467 9.978,5.887 13.538,10.259l0.469,-11.43l25.202,-0l-0,95.186Zm-50.592,-21.454c6.996,-0 12.648,-2.405 16.958,-7.214c4.309,-4.809 6.464,-11.118 6.464,-18.925c0,-7.807 -2.155,-14.116 -6.464,-18.925c-4.31,-4.809 -9.962,-7.214 -16.958,-7.214c-6.995,0 -12.647,2.405 -16.957,7.214c-4.31,4.809 -6.465,11.118 -6.465,18.925c0,7.807 2.155,14.116 6.465,18.925c4.31,4.809 9.962,7.214 16.957,7.214Z" style="fill:#4c6663;fill-rule:nonzero;"/><path d="M1218.52,618.745l-27.732,0l0,-95.186l25.202,-0l0.656,15.084c3.248,-4.872 7.667,-8.87 13.257,-11.992c5.59,-3.123 11.632,-4.685 18.128,-4.685c1.562,0 3.232,0.094 5.012,0.281c1.78,0.188 3.108,0.375 3.982,0.562l0,25.015c-1.062,-0.187 -2.295,-0.328 -3.701,-0.422c-1.405,-0.093 -2.732,-0.14 -3.981,-0.14c-9.994,-0 -17.629,3.107 -22.907,9.322c-5.278,6.214 -7.916,14.349 -7.916,24.405l-0,37.756Z" style="fill:#4c6663;fill-rule:nonzero;"/><path d="M1347.44,618.745l-27.731,0l-0,-139.126l27.731,-2.623l0,141.749Z" style="fill:#4c6663;fill-rule:nonzero;"/><path d="M1385.66,524.777l-22.485,-0c2.748,-7.808 5.153,-15.474 7.214,-23c2.061,-7.527 3.872,-15.381 5.434,-23.563l27.075,0c-1.811,7.558 -4.122,15.162 -6.933,22.813c-2.81,7.651 -6.245,15.568 -10.305,23.75Z" style="fill:#4c6663;fill-rule:nonzero;"/><path d="M1489.47,589.515l10.68,18.925c-5.309,3.997 -11.711,7.136 -19.206,9.415c-7.495,2.28 -15.177,3.42 -23.047,3.42c-10.368,-0 -19.503,-2.077 -27.404,-6.23c-7.901,-4.154 -14.068,-9.994 -18.503,-17.52c-4.434,-7.526 -6.652,-16.317 -6.652,-26.373c0,-9.931 2.108,-18.659 6.324,-26.186c4.216,-7.526 10.056,-13.397 17.52,-17.613c7.463,-4.216 16.005,-6.324 25.623,-6.324c14.428,0 25.655,4.372 33.681,13.117c8.026,8.744 12.039,20.954 12.039,36.631l-0,10.306l-68.486,-0c1.811,5.746 5.184,10.196 10.118,13.35c4.935,3.155 10.993,4.732 18.176,4.732c9.806,-0 19.518,-3.217 29.137,-9.65Zm-34.665,-47.593c-6.183,-0 -11.305,1.733 -15.365,5.199c-4.059,3.467 -6.745,8.448 -8.057,14.943l43.471,0l0,-0.749c0,-5.871 -1.827,-10.571 -5.48,-14.1c-3.654,-3.529 -8.51,-5.293 -14.569,-5.293Zm36.913,-63.614l-31.76,31.572l-25.108,0l25.858,-31.572l31.01,-0Z" style="fill:#4c6663;fill-rule:nonzero;"/><path d="M1616.32,659.968l-27.731,-0l-0,-50.873c-3.435,3.81 -7.683,6.793 -12.742,8.948c-5.059,2.154 -10.649,3.232 -16.77,3.232c-8.681,-0 -16.395,-2.171 -23.14,-6.511c-6.746,-4.341 -12.055,-10.29 -15.927,-17.848c-3.873,-7.557 -5.809,-16.145 -5.809,-25.764c0,-9.619 1.936,-18.207 5.809,-25.764c3.872,-7.557 9.181,-13.507 15.927,-17.847c6.745,-4.341 14.459,-6.512 23.14,-6.512c6.558,0 12.57,1.234 18.035,3.701c5.465,2.467 9.978,5.887 13.538,10.259l0.468,-11.43l25.202,-0l0,136.409Zm-50.591,-62.677c6.995,-0 12.648,-2.405 16.958,-7.214c4.309,-4.809 6.464,-11.118 6.464,-18.925c-0,-7.807 -2.155,-14.116 -6.464,-18.925c-4.31,-4.809 -9.963,-7.214 -16.958,-7.214c-6.995,0 -12.648,2.405 -16.957,7.214c-4.31,4.809 -6.465,11.118 -6.465,18.925c0,7.807 2.155,14.116 6.465,18.925c4.309,4.809 9.962,7.214 16.957,7.214Z" style="fill:#4c6663;fill-rule:nonzero;"/><path d="M1731.18,618.745l-25.202,0l-0.468,-11.43c-3.56,4.372 -8.073,7.792 -13.538,10.259c-5.465,2.467 -11.414,3.701 -17.848,3.701c-10.805,-0 -19.424,-3.467 -25.857,-10.399c-6.433,-6.933 -9.65,-16.365 -9.65,-28.294l-0,-59.023l27.731,-0l0,54.807c0,5.809 1.499,10.415 4.497,13.819c2.998,3.404 7.027,5.106 12.086,5.106c6.121,-0 11.071,-2.092 14.85,-6.277c3.778,-4.185 5.668,-9.619 5.668,-16.302l-0,-51.153l27.731,-0l0,95.186Z" style="fill:#4c6663;fill-rule:nonzero;"/><path d="M1784.21,495.265c0,4.435 -1.483,8.073 -4.45,10.915c-2.967,2.842 -6.792,4.263 -11.477,4.263c-4.684,-0 -8.51,-1.421 -11.476,-4.263c-2.967,-2.842 -4.451,-6.48 -4.451,-10.915c0,-4.434 1.484,-8.072 4.451,-10.914c2.966,-2.842 6.792,-4.263 11.476,-4.263c4.685,-0 8.51,1.421 11.477,4.263c2.967,2.842 4.45,6.48 4.45,10.914Zm-2.061,123.48l-27.731,0l-0,-95.186l27.731,-0l0,95.186Z" style="fill:#4c6663;fill-rule:nonzero;"/><path d="M1833.11,659.968l-27.731,-0l-0,-136.409l25.201,-0l0.469,11.43c3.56,-4.372 8.073,-7.792 13.538,-10.259c5.465,-2.467 11.476,-3.701 18.035,-3.701c8.681,0 16.395,2.171 23.14,6.512c6.746,4.34 12.055,10.29 15.927,17.847c3.873,7.557 5.809,16.145 5.809,25.764c-0,9.619 -1.936,18.207 -5.809,25.764c-3.872,7.558 -9.181,13.507 -15.927,17.848c-6.745,4.34 -14.459,6.511 -23.14,6.511c-6.121,-0 -11.711,-1.078 -16.77,-3.232c-5.06,-2.155 -9.307,-5.138 -12.742,-8.948l0,50.873Zm22.86,-62.677c6.995,-0 12.648,-2.405 16.957,-7.214c4.31,-4.809 6.465,-11.118 6.465,-18.925c-0,-7.807 -2.155,-14.116 -6.465,-18.925c-4.309,-4.809 -9.962,-7.214 -16.957,-7.214c-6.996,0 -12.648,2.405 -16.958,7.214c-4.309,4.809 -6.464,11.118 -6.464,18.925c-0,7.807 2.155,14.116 6.464,18.925c4.31,4.809 9.962,7.214 16.958,7.214Z" style="fill:#4c6663;fill-rule:nonzero;"/><path d="M2005.12,589.515l10.681,18.925c-5.309,3.997 -11.711,7.136 -19.206,9.415c-7.495,2.28 -15.178,3.42 -23.047,3.42c-10.369,-0 -19.503,-2.077 -27.404,-6.23c-7.901,-4.154 -14.069,-9.994 -18.503,-17.52c-4.435,-7.526 -6.652,-16.317 -6.652,-26.373c-0,-9.931 2.108,-18.659 6.324,-26.186c4.216,-7.526 10.056,-13.397 17.519,-17.613c7.464,-4.216 16.005,-6.324 25.624,-6.324c14.428,0 25.655,4.372 33.68,13.117c8.026,8.744 12.039,20.954 12.039,36.631l0,10.306l-68.485,-0c1.811,5.746 5.184,10.196 10.118,13.35c4.934,3.155 10.993,4.732 18.175,4.732c9.806,-0 19.519,-3.217 29.137,-9.65Zm-34.664,-47.593c-6.184,-0 -11.305,1.733 -15.365,5.199c-4.06,3.467 -6.745,8.448 -8.057,14.943l43.471,0l-0,-0.749c-0,-5.871 -1.827,-10.571 -5.481,-14.1c-3.654,-3.529 -8.51,-5.293 -14.568,-5.293Z" style="fill:#4c6663;fill-rule:nonzero;"/><path d="M2181.16,618.745l-25.202,0l-0.468,-11.43c-3.561,4.372 -8.073,7.792 -13.538,10.259c-5.465,2.467 -11.477,3.701 -18.035,3.701c-8.682,-0 -16.395,-2.171 -23.141,-6.511c-6.745,-4.341 -12.054,-10.29 -15.927,-17.848c-3.872,-7.557 -5.808,-16.145 -5.808,-25.764c-0,-9.619 1.936,-18.207 5.808,-25.764c3.873,-7.557 9.182,-13.507 15.927,-17.847c6.746,-4.341 14.459,-6.512 23.141,-6.512c6.121,0 11.711,1.078 16.77,3.233c5.059,2.154 9.306,5.137 12.741,8.947l0,-53.59l27.732,-2.623l-0,141.749Zm-50.591,-21.454c6.995,-0 12.647,-2.405 16.957,-7.214c4.31,-4.809 6.465,-11.118 6.465,-18.925c-0,-7.807 -2.155,-14.116 -6.465,-18.925c-4.31,-4.809 -9.962,-7.214 -16.957,-7.214c-6.996,0 -12.648,2.405 -16.958,7.214c-4.309,4.809 -6.464,11.118 -6.464,18.925c-0,7.807 2.155,14.116 6.464,18.925c4.31,4.809 9.962,7.214 16.958,7.214Z" style="fill:#4c6663;fill-rule:nonzero;"/><path d="M2283.66,589.515l10.68,18.925c-5.309,3.997 -11.711,7.136 -19.206,9.415c-7.495,2.28 -15.177,3.42 -23.047,3.42c-10.368,-0 -19.502,-2.077 -27.403,-6.23c-7.901,-4.154 -14.069,-9.994 -18.504,-17.52c-4.434,-7.526 -6.651,-16.317 -6.651,-26.373c-0,-9.931 2.108,-18.659 6.324,-26.186c4.215,-7.526 10.055,-13.397 17.519,-17.613c7.464,-4.216 16.005,-6.324 25.624,-6.324c14.427,0 25.654,4.372 33.68,13.117c8.026,8.744 12.039,20.954 12.039,36.631l0,10.306l-68.485,-0c1.811,5.746 5.184,10.196 10.118,13.35c4.934,3.155 10.992,4.732 18.175,4.732c9.806,-0 19.518,-3.217 29.137,-9.65Zm-34.664,-47.593c-6.184,-0 -11.305,1.733 -15.365,5.199c-4.06,3.467 -6.746,8.448 -8.057,14.943l43.471,0l-0,-0.749c-0,-5.871 -1.827,-10.571 -5.481,-14.1c-3.654,-3.529 -8.51,-5.293 -14.568,-5.293Z" style="fill:#4c6663;fill-rule:nonzero;"/><path d="M1052.88,769.863l12.742,20.892c-6.621,5.684 -14.459,10.181 -23.516,13.491c-9.056,3.311 -18.769,4.966 -29.137,4.966c-13.741,-0 -25.701,-2.904 -35.882,-8.713c-10.181,-5.809 -18.082,-13.866 -23.703,-24.171c-5.621,-10.306 -8.432,-22.236 -8.432,-35.789c0,-13.491 2.811,-25.405 8.432,-35.742c5.621,-10.337 13.522,-18.409 23.703,-24.218c10.181,-5.809 22.141,-8.713 35.882,-8.713c9.869,0 19.097,1.468 27.685,4.403c8.588,2.936 16.223,7.058 22.906,12.367l-12.741,20.892c-10.306,-7.744 -21.767,-11.617 -34.383,-11.617c-8.307,0 -15.552,1.796 -21.736,5.387c-6.183,3.592 -10.992,8.604 -14.428,15.037c-3.435,6.433 -5.152,13.835 -5.152,22.204c-0,8.369 1.717,15.771 5.152,22.204c3.436,6.433 8.245,11.445 14.428,15.037c6.184,3.591 13.429,5.387 21.736,5.387c13.491,-0 25.639,-4.435 36.444,-13.304Z" style="fill:#4c6663;fill-rule:nonzero;"/><path d="M1126.71,808.65c-10.181,-0 -19.128,-2.124 -26.842,-6.371c-7.713,-4.247 -13.756,-10.134 -18.128,-17.66c-4.372,-7.526 -6.558,-16.224 -6.558,-26.092c-0,-9.868 2.186,-18.566 6.558,-26.092c4.372,-7.526 10.415,-13.413 18.128,-17.66c7.714,-4.247 16.661,-6.371 26.842,-6.371c10.118,0 19.05,2.124 26.794,6.371c7.745,4.247 13.804,10.134 18.176,17.66c4.372,7.526 6.558,16.224 6.558,26.092c-0,9.868 -2.186,18.566 -6.558,26.092c-4.372,7.526 -10.431,13.413 -18.176,17.66c-7.744,4.247 -16.676,6.371 -26.794,6.371Zm-0,-23.984c6.995,-0 12.648,-2.405 16.957,-7.214c4.31,-4.809 6.465,-11.118 6.465,-18.925c-0,-7.807 -2.155,-14.116 -6.465,-18.925c-4.309,-4.809 -9.962,-7.214 -16.957,-7.214c-6.996,0 -12.648,2.405 -16.958,7.214c-4.309,4.809 -6.464,11.118 -6.464,18.925c-0,7.807 2.155,14.116 6.464,18.925c4.31,4.809 9.962,7.214 16.958,7.214Z" style="fill:#4c6663;fill-rule:nonzero;"/><path d="M1290.19,806.12l-27.731,0l-0,-54.807c-0,-5.871 -1.515,-10.493 -4.544,-13.866c-3.029,-3.372 -7.229,-5.059 -12.601,-5.059c-6.371,0 -11.461,2.077 -15.271,6.23c-3.81,4.154 -5.715,9.572 -5.715,16.255l0,51.247l-27.731,0l-0,-95.186l25.202,-0l0.468,11.43c3.56,-4.31 8.104,-7.714 13.632,-10.212c5.527,-2.499 11.601,-3.748 18.222,-3.748c11.117,0 19.908,3.467 26.373,10.399c6.464,6.933 9.696,16.365 9.696,28.294l0,59.023Z" style="fill:#4c6663;fill-rule:nonzero;"/><path d="M1372.55,782.23l-0,23.328c-2.436,0.375 -5.262,0.687 -8.479,0.937c-3.217,0.25 -6.262,0.375 -9.135,0.375c-13.178,-0 -22.688,-3.248 -28.527,-9.744c-5.84,-6.496 -8.76,-16.083 -8.76,-28.762l-0,-33.821l-17.145,-0l0,-23.609l17.145,-0l-0,-27.638l27.731,-0l0,27.638l27.544,-0l-3.091,23.609l-24.453,-0l0,31.666c0,6.121 1.359,10.431 4.076,12.929c2.717,2.498 7.292,3.748 13.725,3.748c3.622,-0 6.745,-0.219 9.369,-0.656Z" style="fill:#4c6663;fill-rule:nonzero;"/><path d="M1417.61,806.12l-27.731,0l-0,-95.186l25.202,-0l0.656,15.083c3.247,-4.871 7.666,-8.869 13.256,-11.992c5.59,-3.123 11.633,-4.684 18.129,-4.684c1.561,0 3.232,0.094 5.012,0.281c1.78,0.187 3.107,0.375 3.982,0.562l-0,25.015c-1.062,-0.188 -2.296,-0.328 -3.701,-0.422c-1.405,-0.094 -2.732,-0.14 -3.982,-0.14c-9.993,-0 -17.628,3.107 -22.906,9.322c-5.278,6.214 -7.917,14.349 -7.917,24.405l0,37.756Z" style="fill:#4c6663;fill-rule:nonzero;"/><path d="M1548.68,776.89l10.68,18.925c-5.309,3.997 -11.711,7.135 -19.206,9.415c-7.495,2.28 -15.177,3.42 -23.047,3.42c-10.368,-0 -19.502,-2.077 -27.403,-6.231c-7.901,-4.153 -14.069,-9.993 -18.503,-17.519c-4.435,-7.526 -6.652,-16.317 -6.652,-26.373c-0,-9.931 2.108,-18.659 6.324,-26.186c4.216,-7.526 10.055,-13.397 17.519,-17.613c7.464,-4.216 16.005,-6.324 25.624,-6.324c14.428,0 25.654,4.372 33.68,13.116c8.026,8.745 12.039,20.955 12.039,36.632l0,10.306l-68.485,-0c1.811,5.746 5.184,10.196 10.118,13.35c4.934,3.154 10.993,4.731 18.175,4.731c9.806,0 19.518,-3.216 29.137,-9.649Zm-34.664,-47.594c-6.184,0 -11.305,1.734 -15.365,5.2c-4.06,3.467 -6.746,8.448 -8.057,14.943l43.471,0l-0,-0.749c-0,-5.871 -1.827,-10.571 -5.481,-14.1c-3.654,-3.529 -8.51,-5.294 -14.568,-5.294Z" style="fill:#4c6663;fill-rule:nonzero;"/><path d="M1650.99,775.297l11.992,19.768c-4.747,3.997 -10.525,7.261 -17.332,9.79c-6.808,2.53 -14.022,3.795 -21.642,3.795c-9.806,-0 -18.519,-2.124 -26.139,-6.371c-7.62,-4.247 -13.6,-10.134 -17.941,-17.66c-4.341,-7.526 -6.512,-16.224 -6.512,-26.092c0,-9.868 2.171,-18.566 6.512,-26.092c4.341,-7.526 10.321,-13.413 17.941,-17.66c7.62,-4.247 16.333,-6.371 26.139,-6.371c7.182,0 13.99,1.14 20.424,3.42c6.433,2.279 11.898,5.137 16.395,8.572l-11.992,19.768c-3.061,-2.186 -6.496,-3.95 -10.306,-5.293c-3.81,-1.343 -7.682,-2.014 -11.617,-2.014c-7.807,-0 -13.928,2.373 -18.363,7.12c-4.434,4.747 -6.652,10.93 -6.652,18.55c0,7.62 2.233,13.803 6.699,18.55c4.466,4.747 10.602,7.12 18.41,7.12c4.247,0 8.432,-0.796 12.554,-2.389c4.122,-1.592 7.932,-3.763 11.43,-6.511Z" style="fill:#4c6663;fill-rule:nonzero;"/><path d="M1773.06,806.12l-27.731,0l-0,-54.807c-0,-5.871 -1.515,-10.493 -4.544,-13.866c-3.029,-3.372 -7.229,-5.059 -12.601,-5.059c-6.371,0 -11.461,2.077 -15.271,6.23c-3.81,4.154 -5.715,9.572 -5.715,16.255l0,51.247l-27.731,0l-0,-139.126l27.731,-2.623l0,56.213c3.498,-3.81 7.792,-6.793 12.882,-8.948c5.091,-2.154 10.727,-3.232 16.911,-3.232c11.117,0 19.908,3.467 26.373,10.399c6.464,6.933 9.696,16.365 9.696,28.294l0,59.023Z" style="fill:#4c6663;fill-rule:nonzero;"/><path d="M1892.61,806.12l-25.202,0l-0.469,-11.43c-3.56,4.372 -8.073,7.792 -13.538,10.259c-5.465,2.467 -11.476,3.701 -18.034,3.701c-8.682,-0 -16.396,-2.171 -23.141,-6.512c-6.746,-4.34 -12.055,-10.29 -15.927,-17.847c-3.873,-7.557 -5.809,-16.145 -5.809,-25.764c0,-9.619 1.936,-18.207 5.809,-25.764c3.872,-7.558 9.181,-13.507 15.927,-17.848c6.745,-4.34 14.459,-6.511 23.141,-6.511c6.558,0 12.569,1.234 18.034,3.701c5.465,2.467 9.978,5.886 13.538,10.259l0.469,-11.43l25.202,-0l-0,95.186Zm-50.592,-21.454c6.996,-0 12.648,-2.405 16.958,-7.214c4.309,-4.809 6.464,-11.118 6.464,-18.925c0,-7.807 -2.155,-14.116 -6.464,-18.925c-4.31,-4.809 -9.962,-7.214 -16.958,-7.214c-6.995,0 -12.647,2.405 -16.957,7.214c-4.31,4.809 -6.464,11.118 -6.464,18.925c-0,7.807 2.154,14.116 6.464,18.925c4.31,4.809 9.962,7.214 16.957,7.214Z" style="fill:#4c6663;fill-rule:nonzero;"/><path d="M2067.8,806.12l-27.731,0l-0,-54.807c-0,-5.996 -1.39,-10.649 -4.169,-13.959c-2.78,-3.311 -6.699,-4.966 -11.758,-4.966c-5.622,0 -10.103,1.874 -13.444,5.621c-3.342,3.748 -5.013,9.369 -5.013,16.864l0,51.247l-27.731,0l-0,-54.807c-0,-5.996 -1.39,-10.649 -4.169,-13.959c-2.78,-3.311 -6.699,-4.966 -11.758,-4.966c-5.621,0 -10.103,1.874 -13.444,5.621c-3.342,3.748 -5.012,9.369 -5.012,16.864l-0,51.247l-27.732,0l0,-95.186l25.202,-0l0.468,10.961c3.311,-4.185 7.433,-7.479 12.367,-9.884c4.934,-2.405 10.337,-3.607 16.208,-3.607c6.433,0 12.008,1.437 16.723,4.31c4.716,2.873 8.385,6.901 11.009,12.085c3.622,-4.996 8.463,-8.978 14.521,-11.945c6.059,-2.966 12.679,-4.45 19.862,-4.45c10.93,0 19.596,3.467 25.998,10.399c6.402,6.933 9.603,16.365 9.603,28.294l0,59.023Z" style="fill:#4c6663;fill-rule:nonzero;"/><path d="M2117.83,847.343l-27.731,-0l-0,-136.409l25.202,-0l0.468,11.43c3.56,-4.373 8.073,-7.792 13.538,-10.259c5.465,-2.467 11.477,-3.701 18.035,-3.701c8.681,0 16.395,2.171 23.14,6.511c6.746,4.341 12.055,10.29 15.927,17.848c3.873,7.557 5.809,16.145 5.809,25.764c-0,9.619 -1.936,18.207 -5.809,25.764c-3.872,7.557 -9.181,13.507 -15.927,17.847c-6.745,4.341 -14.459,6.512 -23.14,6.512c-6.121,-0 -11.711,-1.078 -16.77,-3.233c-5.059,-2.154 -9.307,-5.137 -12.742,-8.947l0,50.873Zm22.86,-62.677c6.995,-0 12.648,-2.405 16.957,-7.214c4.31,-4.809 6.465,-11.118 6.465,-18.925c-0,-7.807 -2.155,-14.116 -6.465,-18.925c-4.309,-4.809 -9.962,-7.214 -16.957,-7.214c-6.995,0 -12.648,2.405 -16.958,7.214c-4.309,4.809 -6.464,11.118 -6.464,18.925c0,7.807 2.155,14.116 6.464,18.925c4.31,4.809 9.963,7.214 16.958,7.214Z" style="fill:#4c6663;fill-rule:nonzero;"/><path d="M2237.47,792.254c0,4.497 -1.515,8.198 -4.544,11.102c-3.029,2.905 -6.917,4.357 -11.664,4.357c-4.747,-0 -8.635,-1.452 -11.664,-4.357c-3.029,-2.904 -4.544,-6.605 -4.544,-11.102c0,-4.497 1.515,-8.197 4.544,-11.102c3.029,-2.904 6.917,-4.356 11.664,-4.356c4.747,-0 8.635,1.452 11.664,4.356c3.029,2.905 4.544,6.605 4.544,11.102Z" style="fill:#4c6663;fill-rule:nonzero;"/></g></svg>