<?xml version="1.0" encoding="UTF-8" standalone="no"?><!DOCTYPE svg PUBLIC "-//W3C//DTD SVG 1.1//EN" "http://www.w3.org/Graphics/SVG/1.1/DTD/svg11.dtd"><svg width="100%" height="100%" viewBox="0 0 2264 2763" version="1.1" xmlns="http://www.w3.org/2000/svg" xmlns:xlink="http://www.w3.org/1999/xlink" xml:space="preserve" xmlns:serif="http://www.serif.com/" style="fill-rule:evenodd;clip-rule:evenodd;stroke-linejoin:round;stroke-miterlimit:2;"><g><path d="M1022.63,1100.79c-0,-6.307 4.139,-14.584 12.416,-24.832c72.526,-86.321 168.898,-129.482 289.117,-129.482c122.978,-0 222.701,41.978 299.168,125.934c74.497,81.198 111.745,183.68 111.745,307.446c0,81.01 -16.665,153.733 -49.994,218.168c-15.97,30.874 -35.765,59.844 -59.386,86.913c-76.073,87.504 -172.839,131.255 -290.299,131.255c-127.708,0 -227.825,-39.219 -300.351,-117.657c-7.883,-8.671 -11.825,-16.357 -11.825,-23.058c0,-7.489 13.697,-35.278 41.091,-83.365c27.395,-48.088 44.639,-75.088 51.734,-81c3.153,-3.154 7.095,-4.73 11.825,-4.73c1.971,-0 11.825,7.883 29.562,23.649c21.285,18.92 42.175,33.701 62.672,44.344c31.138,15.766 63.46,23.649 96.963,23.649c57.942,0 104.256,-21.679 138.942,-65.036c31.927,-40.205 47.891,-89.869 47.891,-148.993c-0,-59.913 -15.964,-110.168 -47.891,-150.767c-34.686,-44.146 -81,-66.219 -138.942,-66.219c-34.292,0 -66.81,7.489 -97.555,22.467c-20.102,9.854 -40.598,23.65 -61.489,41.387c-17.343,14.978 -27,22.467 -28.971,22.467c-3.941,0 -7.883,-2.167 -11.824,-6.503c-6.307,-7.095 -23.453,-31.73 -51.438,-73.905c-28.774,-43.752 -43.161,-67.796 -43.161,-72.132Z" style="fill:#f9f3e8;fill-rule:nonzero;"/><path d="M2263.09,490.18c-0,-20.032 -13.147,-46.326 -39.44,-78.879c-230.379,-274.201 -536.507,-411.301 -918.384,-411.301c-390.642,0 -707.413,133.344 -950.312,400.032c-236.639,257.924 -354.958,583.459 -354.958,976.605c-0,380.625 115.815,703.656 347.446,969.092c241.647,277.957 549.027,416.935 922.14,416.935c405.667,0 723.689,-124.579 954.068,-373.739c25.041,-27.545 37.561,-51.96 37.561,-73.245c0,-23.789 -43.509,-112.059 -130.527,-264.81c-87.017,-152.751 -141.795,-238.517 -164.332,-257.298c-10.016,-10.016 -22.537,-15.025 -37.562,-15.025c-6.26,0 -37.561,25.042 -93.904,75.124c-67.611,60.099 -133.97,107.051 -199.077,140.856c-98.913,50.083 -201.581,75.124 -308.006,75.124c-184.053,-0 -331.169,-68.863 -441.35,-206.59c-101.417,-127.71 -152.125,-285.469 -152.125,-473.277c-0,-190.313 50.708,-349.95 152.125,-478.912c110.181,-140.231 257.297,-210.346 441.35,-210.346c108.929,0 212.223,23.789 309.884,71.367c63.855,31.302 128.962,75.124 195.321,131.466c55.09,47.579 85.766,71.368 92.026,71.368c12.521,-0 25.041,-6.887 37.562,-20.659c20.033,-22.537 74.497,-100.791 163.393,-234.761c91.4,-138.978 137.101,-215.354 137.101,-229.127Z" style="fill:#f9f3e8;fill-rule:nonzero;"/></g></svg>