<?xml version="1.0" encoding="UTF-8" standalone="no"?>
<!DOCTYPE svg PUBLIC "-//W3C//DTD SVG 1.1//EN" "http://www.w3.org/Graphics/SVG/1.1/DTD/svg11.dtd">
<svg width="100%" height="100%" viewBox="0 0 1243 196" version="1.1" xmlns="http://www.w3.org/2000/svg" xmlns:xlink="http://www.w3.org/1999/xlink" xml:space="preserve" xmlns:serif="http://www.serif.com/" style="fill-rule:evenodd;clip-rule:evenodd;stroke-linejoin:round;stroke-miterlimit:2;">
    <g transform="matrix(1.11552,-2.41564e-32,2.41564e-32,1.11552,1482.72,-454.766)">
        <g transform="matrix(0.564114,0,0,0.564114,-1671.71,-232.423)">
            <path d="M765.641,1294.3C765.641,1295.7 764.721,1297.54 762.88,1299.82C746.753,1319.02 725.323,1328.61 698.59,1328.61C671.243,1328.61 649.068,1319.28 632.064,1300.61C615.498,1282.55 607.216,1259.77 607.216,1232.24C607.216,1205.6 615.323,1182.98 631.538,1164.4C648.454,1144.94 669.972,1135.21 696.092,1135.21C724.49,1135.21 746.753,1143.94 762.88,1161.38C764.633,1163.31 765.51,1165.02 765.51,1166.51C765.51,1168.17 762.464,1174.35 756.372,1185.04C750.281,1195.74 746.446,1201.74 744.869,1203.06C744.167,1203.76 743.291,1204.11 742.239,1204.11C741.801,1204.11 739.61,1202.35 735.665,1198.85C730.932,1194.64 726.287,1191.35 721.729,1188.99C714.805,1185.48 707.618,1183.73 700.167,1183.73C687.283,1183.73 676.984,1188.55 669.271,1198.19C662.172,1207.13 658.622,1218.17 658.622,1231.32C658.622,1244.64 662.172,1255.82 669.271,1264.85C676.984,1274.66 687.283,1279.57 700.167,1279.57C707.793,1279.57 715.024,1277.91 721.861,1274.58C726.331,1272.39 730.889,1269.32 735.534,1265.37C739.39,1262.04 741.538,1260.38 741.976,1260.38C742.853,1260.38 743.729,1260.86 744.606,1261.82C746.008,1263.4 749.821,1268.88 756.044,1278.26C762.442,1287.99 765.641,1293.33 765.641,1294.3Z" style="fill:rgb(249,243,232);fill-rule:nonzero;"/>
            <path d="M962.458,1231.98C962.458,1259.33 953.736,1282.25 936.294,1300.74C918.502,1319.5 895.976,1328.88 868.717,1328.88C841.633,1328.88 819.151,1319.41 801.271,1300.48C783.741,1281.98 774.976,1259.15 774.976,1231.98C774.976,1204.72 783.741,1181.8 801.271,1163.22C819.151,1144.2 841.633,1134.69 868.717,1134.69C895.625,1134.69 918.063,1144.2 936.031,1163.22C953.649,1181.98 962.458,1204.9 962.458,1231.98ZM912.629,1231.72C912.629,1218.57 908.641,1207.39 900.665,1198.19C892.338,1188.55 881.689,1183.73 868.717,1183.73C856.358,1183.73 845.884,1188.73 837.295,1198.72C828.968,1208.36 824.805,1219.45 824.805,1231.98C824.805,1245.39 828.705,1256.57 836.506,1265.51C844.745,1274.88 855.482,1279.57 868.717,1279.57C881.075,1279.57 891.593,1274.62 900.271,1264.72C908.51,1255.25 912.629,1244.25 912.629,1231.72Z" style="fill:rgb(249,243,232);fill-rule:nonzero;"/>
            <path d="M1157.96,1143.63C1157.96,1153.62 1157.54,1168.63 1156.71,1188.66C1155.88,1208.69 1155.46,1223.74 1155.46,1233.82L1155.46,1320.46C1155.46,1322.83 1154.19,1324.01 1151.65,1324.01C1149.55,1324.01 1146.37,1324.1 1142.12,1324.27C1137.87,1324.45 1134.69,1324.54 1132.59,1324.54C1130.31,1324.54 1126.89,1324.36 1122.33,1324.01C1117.77,1323.66 1114.35,1323.49 1112.08,1323.49C1110.5,1323.49 1108.61,1322.04 1106.42,1319.15C1100.11,1310.64 1085.91,1291.8 1063.82,1262.61C1057.78,1254.46 1048.57,1242.45 1036.21,1226.59C1035.86,1226.06 1035.21,1225.54 1034.24,1225.01C1033.54,1225.62 1033.19,1226.59 1033.19,1227.9C1033.19,1238.07 1033.47,1253.32 1034.05,1273.66C1034.62,1293.99 1034.9,1309.24 1034.9,1319.41C1034.9,1322.48 1033.72,1324.01 1031.35,1324.01L985.86,1324.01C983.318,1324.01 982.047,1322.65 982.047,1319.94C982.047,1310.47 982.507,1296.18 983.428,1277.08C984.348,1257.97 984.808,1243.64 984.808,1234.08C984.808,1224 984.392,1208.93 983.559,1188.86C982.726,1168.79 982.31,1153.75 982.31,1143.76C982.31,1141.83 984.019,1140.87 987.438,1140.87C992.521,1140.87 998.788,1140.52 1006.24,1139.82C1007.99,1139.64 1011.45,1139.07 1016.62,1138.11C1021.01,1137.32 1024.47,1136.92 1027.01,1136.92C1028.06,1136.92 1029.68,1138.41 1031.88,1141.39L1080.91,1208.58C1085.3,1214.62 1091.91,1223.48 1100.77,1235.13C1102.96,1237.85 1104.84,1239.21 1106.42,1239.21C1107.56,1239.21 1108.13,1235.79 1108.13,1228.96C1108.13,1219.75 1107.63,1205.9 1106.62,1187.41C1105.61,1168.92 1105.11,1155.02 1105.11,1145.73C1105.11,1142.49 1106.03,1140.87 1107.87,1140.87C1113.13,1140.87 1121.06,1140.65 1131.66,1140.21C1142.27,1139.77 1150.2,1139.55 1155.46,1139.55C1157.13,1139.55 1157.96,1140.91 1157.96,1143.63Z" style="fill:rgb(249,243,232);fill-rule:nonzero;"/>
            <path d="M1310.47,1179.79C1310.47,1181.54 1309.5,1182.41 1307.58,1182.41C1304.25,1182.41 1291.05,1181.76 1268,1180.44C1267.48,1202.62 1267.21,1218.09 1267.21,1226.85C1267.21,1237.19 1267.63,1252.75 1268.46,1273.53C1269.3,1294.3 1269.71,1309.86 1269.71,1320.2C1269.71,1321.86 1269.32,1322.92 1268.53,1323.35C1268.27,1323.53 1267.04,1323.75 1264.85,1324.01C1259.59,1324.71 1251.88,1325.06 1241.71,1325.06C1230.4,1325.06 1222.47,1324.71 1217.91,1324.01C1215.46,1323.57 1214.23,1322.21 1214.23,1319.94C1214.23,1309.59 1214.67,1294.08 1215.55,1273.39C1216.42,1252.71 1216.86,1237.19 1216.86,1226.85C1216.86,1220.02 1216.51,1204.77 1215.81,1181.1C1198.28,1182.85 1184.3,1183.73 1173.87,1183.73C1172.46,1183.73 1171.76,1183.29 1171.76,1182.41C1171.76,1181.28 1172.38,1177.9 1173.6,1172.29C1175.01,1166.15 1175.8,1162.43 1175.97,1161.12C1176.23,1157 1176.54,1152.88 1176.89,1148.76C1177.51,1142.18 1178.56,1138.9 1180.05,1138.9C1180.22,1138.9 1180.84,1138.94 1181.89,1139.03C1196.09,1140.87 1217.08,1141.79 1244.86,1141.79C1252.75,1141.79 1267.3,1140.96 1288.51,1139.29C1299.91,1138.41 1305.65,1137.98 1305.74,1137.98C1307.49,1137.98 1308.5,1138.09 1308.76,1138.31C1309.02,1138.52 1309.2,1139.38 1309.29,1140.87C1309.29,1143.24 1309.2,1146.52 1309.02,1150.73C1308.85,1155.37 1308.76,1158.66 1308.76,1160.59C1308.76,1162.78 1309.04,1166 1309.61,1170.25C1310.18,1174.5 1310.47,1177.68 1310.47,1179.79Z" style="fill:rgb(249,243,232);fill-rule:nonzero;"/>
            <path d="M1481.25,1322.7C1481.25,1323.31 1480.38,1323.75 1478.62,1324.01C1475.29,1324.54 1466.92,1324.8 1453.51,1324.8C1442.03,1324.8 1434.23,1324.54 1430.11,1324.01C1428.18,1323.75 1427.09,1323.53 1426.82,1323.35C1426.3,1323.09 1425.68,1322.21 1424.98,1320.73C1423.67,1317.31 1421.74,1312.22 1419.2,1305.47C1415.78,1296.71 1410.43,1283.78 1403.16,1266.69C1401.58,1263.27 1397.94,1261.39 1392.25,1261.04C1394.88,1261.21 1390.36,1261.3 1378.7,1261.3C1377.39,1261.3 1376.73,1263.53 1376.73,1268C1376.73,1273.96 1377.28,1282.86 1378.38,1294.69C1379.47,1306.53 1380.02,1315.42 1380.02,1321.38C1380.02,1322.87 1379.62,1323.75 1378.84,1324.01C1377.61,1324.1 1376.38,1324.19 1375.15,1324.27C1369.98,1324.62 1361.92,1324.8 1350.96,1324.8C1338.43,1324.8 1330.89,1324.54 1328.35,1324.01C1325.81,1323.49 1324.54,1322.13 1324.54,1319.94C1324.54,1310.29 1325,1295.75 1325.92,1276.29C1326.84,1256.83 1327.3,1242.24 1327.3,1232.51C1327.3,1195.43 1326.46,1166.51 1324.8,1145.73L1324.67,1143.89C1324.58,1142.4 1325.96,1141.39 1328.81,1140.87C1331.66,1140.34 1345.05,1139.82 1368.97,1139.29C1385.19,1138.94 1398.12,1138.77 1407.76,1138.77C1427.74,1138.77 1444.05,1143.28 1456.67,1152.31C1470.95,1162.47 1478.1,1177.15 1478.1,1196.35C1478.1,1209.15 1476.26,1219.36 1472.58,1226.98C1468.89,1234.61 1462.1,1242.02 1452.2,1249.2C1450.18,1250.61 1449.17,1251.92 1449.17,1253.15C1449.17,1253.06 1454.52,1264.06 1465.21,1286.15C1475.91,1308.24 1481.25,1320.42 1481.25,1322.7ZM1426.03,1204.77C1426.03,1194.07 1422.53,1186.66 1415.52,1182.55C1410.08,1179.39 1401.58,1177.81 1390.01,1177.81C1381.68,1177.81 1377.26,1179.08 1376.73,1181.62C1376.2,1184.61 1375.94,1193.19 1375.94,1207.39C1375.94,1209.41 1375.99,1212.39 1376.07,1216.33C1376.16,1220.28 1376.2,1223.21 1376.2,1225.14C1376.2,1225.58 1377.61,1226.02 1380.41,1226.46C1385.76,1227.25 1391.37,1227.64 1397.24,1227.64C1416.44,1227.64 1426.03,1220.02 1426.03,1204.77Z" style="fill:rgb(249,243,232);fill-rule:nonzero;"/>
            <path d="M1630.74,1283.12C1630.74,1286.89 1629.99,1293.82 1628.5,1303.9C1626.93,1314.85 1625.52,1321.38 1624.3,1323.49C1623.25,1325.15 1621.8,1325.98 1619.96,1325.98C1619.17,1325.98 1617.85,1325.85 1616.01,1325.59C1609.62,1324.71 1590.95,1324.27 1560.01,1324.27C1553.26,1324.27 1543.22,1324.23 1529.9,1324.14C1516.58,1324.06 1506.58,1324.01 1499.92,1324.01C1497.03,1324.01 1495.58,1322.74 1495.58,1320.2C1495.58,1310.38 1496.13,1295.63 1497.23,1275.96C1498.32,1256.28 1498.87,1241.53 1498.87,1231.72C1498.87,1221.73 1498.35,1203.1 1497.29,1175.84C1497.03,1168.83 1496.55,1158.36 1495.85,1144.42L1495.71,1142.58C1495.54,1140.56 1496.63,1139.55 1499,1139.55C1505.49,1139.55 1515.24,1139.73 1528.26,1140.08C1541.27,1140.43 1551.02,1140.61 1557.51,1140.61C1563.91,1140.61 1573.55,1140.43 1586.43,1140.08C1599.32,1139.73 1608.96,1139.55 1615.36,1139.55C1619.91,1139.55 1622.54,1141.26 1623.25,1144.68C1623.68,1146.7 1624.36,1152.81 1625.28,1163.02C1626.2,1173.23 1626.66,1179.43 1626.66,1181.62C1626.66,1183.47 1625.79,1184.39 1624.03,1184.39C1623.51,1184.39 1622.59,1184.34 1621.27,1184.26C1597.96,1182.33 1577.01,1181.36 1558.43,1181.36C1553.78,1181.36 1550.93,1182.46 1549.88,1184.65C1549.44,1185.7 1549.23,1189.08 1549.23,1194.77C1549.23,1200.73 1550.1,1204.68 1551.85,1206.61C1553.34,1208.27 1556.19,1209.1 1560.4,1209.1C1561.28,1209.1 1562.99,1209.04 1565.53,1208.91C1568.07,1208.78 1570.17,1208.71 1571.84,1208.71C1582.88,1208.71 1594.06,1208.4 1605.36,1207.79C1606.33,1207.7 1608.74,1207.48 1612.6,1207.13C1615.58,1206.78 1617.94,1206.61 1619.69,1206.61C1621.8,1206.61 1622.85,1207.61 1622.85,1209.63C1622.85,1207.79 1622.06,1214.49 1620.48,1229.75C1619.78,1236.76 1619.43,1243.77 1619.43,1250.78C1619.43,1252.53 1618.16,1253.41 1615.62,1253.41C1615.62,1253.41 1611.67,1252.97 1603.79,1252.1C1598.79,1251.57 1587.4,1251.31 1569.6,1251.31L1555.67,1251.31C1552.07,1251.31 1549.97,1252.18 1549.36,1253.94C1549.27,1254.37 1549.23,1257.09 1549.23,1262.09C1549.23,1268.75 1549.66,1273.04 1550.54,1274.97C1552.03,1278.3 1557.64,1280.28 1567.37,1280.89C1567.19,1280.89 1573.59,1280.89 1586.56,1280.89C1591.21,1280.89 1598.11,1280.47 1607.27,1279.64C1616.43,1278.81 1623.29,1278.39 1627.85,1278.39C1629.77,1278.39 1630.74,1279.97 1630.74,1283.12Z" style="fill:rgb(249,243,232);fill-rule:nonzero;"/>
            <g transform="matrix(-1,-1.22465e-16,1.22465e-16,-1,3445.15,2463.83)">
                <path d="M1801.79,1294.3C1801.79,1295.7 1800.87,1297.54 1799.03,1299.82C1782.9,1319.02 1761.47,1328.61 1734.73,1328.61C1707.39,1328.61 1685.21,1319.28 1668.21,1300.61C1651.64,1282.55 1643.36,1259.77 1643.36,1232.24C1643.36,1205.6 1651.47,1182.98 1667.68,1164.4C1684.6,1144.94 1706.12,1135.21 1732.24,1135.21C1760.63,1135.21 1782.9,1143.94 1799.03,1161.38C1800.78,1163.31 1801.65,1165.02 1801.65,1166.51C1801.65,1168.17 1798.61,1174.35 1792.52,1185.04C1786.42,1195.74 1782.59,1201.74 1781.01,1203.06C1780.31,1203.76 1779.43,1204.11 1778.38,1204.11C1777.94,1204.11 1775.75,1202.35 1771.81,1198.85C1767.08,1194.64 1762.43,1191.35 1757.87,1188.99C1750.95,1185.48 1743.76,1183.73 1736.31,1183.73C1723.43,1183.73 1713.13,1188.55 1705.42,1198.19C1698.32,1207.13 1694.77,1218.17 1694.77,1231.32C1694.77,1244.64 1698.32,1255.82 1705.42,1264.85C1713.13,1274.66 1723.43,1279.57 1736.31,1279.57C1743.94,1279.57 1751.17,1277.91 1758.01,1274.58C1762.48,1272.39 1767.03,1269.32 1771.68,1265.37C1775.54,1262.04 1777.68,1260.38 1778.12,1260.38C1779,1260.38 1779.87,1260.86 1780.75,1261.82C1782.15,1263.4 1785.97,1268.88 1792.19,1278.26C1798.59,1287.99 1801.79,1293.33 1801.79,1294.3Z" style="fill:rgb(249,243,232);fill-rule:nonzero;"/>
            </g>
            <path d="M1992.42,1319.94C1992.42,1321.78 1992.03,1322.92 1991.24,1323.35C1990.89,1323.62 1989.66,1323.84 1987.56,1324.01C1982.21,1324.54 1974.67,1324.8 1964.94,1324.8C1951.18,1324.8 1943.1,1324.54 1940.69,1324.01C1938.28,1323.49 1937.07,1322.3 1937.07,1320.46C1937.07,1313.54 1938.06,1289.24 1938.06,1289.24C1938.06,1289.24 1939.05,1264.94 1939.05,1258.01C1939.05,1254.59 1938.08,1252.62 1936.15,1252.1C1933.17,1251.39 1922.57,1251.04 1904.34,1251.04C1886.02,1251.04 1875.32,1251.39 1872.26,1252.1C1870.33,1252.53 1869.36,1254.51 1869.36,1258.01C1869.36,1264.85 1869.58,1275.08 1870.02,1288.71C1870.46,1302.34 1870.68,1312.57 1870.68,1319.41C1870.68,1322.04 1869.5,1323.57 1867.13,1324.01C1864.32,1324.54 1856.09,1324.8 1842.41,1324.8C1830.58,1324.8 1823.04,1324.54 1819.8,1324.01C1817.26,1323.57 1815.99,1322.21 1815.99,1319.94C1815.99,1310.47 1816.44,1296.18 1817.37,1277.08C1818.29,1257.97 1818.75,1243.64 1818.75,1234.08C1818.75,1223.92 1818.31,1208.64 1817.43,1188.27C1816.56,1167.89 1816.12,1152.61 1816.12,1142.45C1816.12,1140.52 1817.04,1139.55 1818.88,1139.55C1821.6,1139.55 1825.69,1139.68 1831.17,1139.95C1836.65,1140.21 1840.75,1140.34 1843.46,1140.34C1846.27,1140.34 1850.5,1140.21 1856.15,1139.95C1861.8,1139.68 1866.03,1139.55 1868.84,1139.55C1870.33,1139.55 1871.07,1140.34 1871.07,1141.92C1871.07,1148.49 1870.59,1158.33 1869.63,1171.44C1868.66,1184.54 1868.18,1194.38 1868.18,1200.95C1868.18,1204.02 1869.01,1205.82 1870.68,1206.34C1872.96,1207.04 1884.18,1207.39 1904.34,1207.39C1923.09,1207.39 1933.96,1207.04 1936.94,1206.34C1939.05,1205.82 1940.1,1204.02 1940.1,1200.95C1940.1,1194.64 1939.79,1185.11 1939.18,1172.36C1938.56,1159.6 1938.26,1150.03 1938.26,1143.63C1938.26,1140.91 1939.35,1139.55 1941.54,1139.55C1944.08,1139.55 1947.96,1139.68 1953.18,1139.95C1958.39,1140.21 1962.32,1140.34 1964.94,1140.34C1967.49,1140.34 1971.37,1140.21 1976.58,1139.95C1981.8,1139.68 1985.72,1139.55 1988.35,1139.55C1990.89,1139.55 1992.16,1140.61 1992.16,1142.71C1992.16,1152.79 1991.74,1168 1990.91,1188.33C1990.08,1208.66 1989.66,1223.92 1989.66,1234.08C1989.66,1243.64 1990.12,1257.97 1991.04,1277.08C1991.96,1296.18 1992.42,1310.47 1992.42,1319.94Z" style="fill:rgb(249,243,232);fill-rule:nonzero;"/>
            <path d="M2190.03,1320.73C2190.03,1322.3 2188.93,1323.4 2186.74,1324.01C2184.11,1324.71 2175.96,1325.06 2162.29,1325.06C2149.75,1325.06 2141.69,1324.71 2138.1,1324.01C2135.12,1323.4 2133.23,1321.43 2132.44,1318.1C2129.46,1305.47 2127.14,1298.73 2125.47,1297.85C2124.07,1297.24 2112.33,1296.93 2090.24,1296.93C2075.34,1296.93 2067.41,1297.32 2066.44,1298.11C2064.95,1299.51 2063.29,1304.2 2061.45,1312.18C2059.78,1319.45 2057.76,1323.4 2055.4,1324.01C2052.42,1324.71 2042.43,1325.06 2025.42,1325.06C2012.01,1325.06 2005.31,1323.79 2005.31,1321.25C2005.31,1318.97 2015.21,1290.97 2035.02,1237.24C2056.49,1179.13 2068.15,1147.18 2069.99,1141.39C2071.04,1138.06 2072.27,1136.4 2073.67,1136.4C2076.04,1136.4 2079.7,1136.62 2084.65,1137.06C2089.6,1137.49 2093.31,1137.71 2095.76,1137.71C2098.13,1137.71 2101.61,1137.56 2106.21,1137.25C2110.82,1136.95 2114.26,1136.79 2116.53,1136.79C2118.2,1136.79 2119.73,1138.24 2121.14,1141.13C2125.43,1150.34 2137.96,1181.89 2158.74,1235.79C2179.6,1290.05 2190.03,1318.36 2190.03,1320.73ZM2096.81,1200.95C2094.97,1204.81 2091.86,1213.18 2087.48,1226.06C2082.74,1239.74 2080.38,1247.76 2080.38,1250.12C2080.38,1251.7 2083.01,1252.58 2088.27,1252.75C2090.98,1252.93 2095.45,1253.02 2101.68,1253.02C2107.46,1253.02 2110.66,1252.31 2111.28,1250.91C2111.45,1250.47 2111.54,1249.86 2111.54,1249.07C2111.54,1246.18 2109.52,1238.2 2105.49,1225.14C2101.55,1212.52 2098.65,1204.46 2096.81,1200.95Z" style="fill:rgb(249,243,232);fill-rule:nonzero;"/>
            <path d="M2399.47,1319.94C2399.47,1322.65 2398.2,1324.01 2395.65,1324.01L2349.11,1324.01C2346.57,1324.01 2345.3,1322.48 2345.3,1319.41C2345.3,1310.56 2345.63,1297.28 2346.28,1279.57C2346.94,1261.87 2347.27,1248.59 2347.27,1239.74C2347.27,1237.19 2346.88,1235.84 2346.09,1235.66C2345.12,1236.19 2339.25,1249.73 2328.47,1276.29C2322.16,1291.89 2315.85,1307.45 2309.54,1322.96C2308.66,1324.98 2307.57,1326.16 2306.25,1326.51C2305.81,1326.6 2304.06,1326.64 2300.99,1326.64C2296.43,1326.64 2293.72,1325.76 2292.84,1324.01C2288.11,1314.37 2281.88,1300.35 2274.17,1281.94C2265.93,1262.48 2259.75,1248.41 2255.63,1239.74C2255.46,1239.3 2255.06,1238.82 2254.45,1238.29C2253.84,1239.08 2253.53,1240.35 2253.53,1242.1C2253.53,1250.69 2253.75,1263.58 2254.19,1280.76C2254.62,1297.94 2254.84,1310.82 2254.84,1319.41C2254.84,1322.48 2253.62,1324.01 2251.16,1324.01L2207.25,1324.01C2205.5,1324.01 2204.42,1323.73 2204.03,1323.16C2203.64,1322.59 2203.44,1321.6 2203.44,1320.2C2203.44,1310.64 2203.9,1296.29 2204.82,1277.14C2205.74,1257.99 2206.2,1243.64 2206.2,1234.08C2206.2,1223.92 2205.76,1204.85 2204.88,1176.89C2204.8,1169.62 2204.4,1158.79 2203.7,1144.42L2203.57,1142.18C2203.48,1140.43 2205.32,1139.55 2209.09,1139.55C2213.91,1139.55 2221.14,1139.4 2230.78,1139.09C2240.43,1138.79 2247.66,1138.63 2252.48,1138.63C2253.44,1138.63 2254.8,1140.47 2256.55,1144.15L2294.94,1228.43C2297.66,1234.13 2299.94,1236.98 2301.78,1236.98C2302.74,1236.98 2304.8,1233.69 2307.96,1227.12C2316.81,1208.71 2329.92,1180.97 2347.27,1143.89C2348.76,1140.47 2350.38,1138.77 2352.14,1138.77C2354.68,1138.77 2358.51,1138.9 2363.64,1139.16C2368.77,1139.42 2372.64,1139.55 2375.27,1139.55C2377.47,1139.55 2380.82,1139.34 2385.33,1138.9C2389.85,1138.46 2393.2,1138.24 2395.39,1138.24C2398.02,1138.24 2399.33,1139.29 2399.33,1141.39C2399.33,1151.74 2398.96,1167.18 2398.22,1187.74C2397.47,1208.29 2397.1,1223.74 2397.1,1234.08C2397.1,1243.64 2397.49,1257.97 2398.28,1277.08C2399.07,1296.18 2399.47,1310.47 2399.47,1319.94Z" style="fill:rgb(249,243,232);fill-rule:nonzero;"/>
            <path d="M2581.43,1209.89C2581.43,1231.1 2575.86,1248.28 2564.73,1261.43C2552.81,1275.37 2536.37,1282.33 2515.43,1282.33C2511.92,1282.33 2506.64,1282.14 2499.58,1281.74C2492.53,1281.35 2487.25,1281.15 2483.74,1281.15C2479.97,1281.15 2478.09,1282.77 2478.09,1286.02C2478.09,1290.05 2478.48,1296.05 2479.27,1304.03C2480.06,1312 2480.45,1317.96 2480.45,1321.91C2480.45,1323.92 2479.53,1324.93 2477.69,1324.93C2472.35,1324.93 2464.33,1324.78 2453.63,1324.47C2442.94,1324.16 2434.92,1324.01 2429.57,1324.01C2427.03,1324.01 2425.76,1322.74 2425.76,1320.2C2425.76,1310.47 2425.91,1295.85 2426.22,1276.35C2426.53,1256.85 2426.68,1242.24 2426.68,1232.51C2426.68,1204.98 2425.5,1176.06 2423.13,1145.73L2423,1143.89C2422.82,1142.23 2424.14,1141.22 2426.94,1140.87C2433.78,1139.99 2448.86,1139.55 2472.17,1139.55C2485.93,1139.55 2499.12,1139.73 2511.74,1140.08C2532.52,1140.69 2549.26,1147.22 2561.97,1159.67C2574.94,1172.47 2581.43,1189.21 2581.43,1209.89ZM2528.97,1212C2528.97,1191.57 2519.02,1181.36 2499.12,1181.36C2485.1,1181.36 2477.74,1182.15 2477.03,1183.73C2476.42,1184.87 2476.12,1194.99 2476.12,1214.1C2476.12,1216.82 2476.22,1220.83 2476.44,1226.13C2476.66,1231.43 2476.77,1235.44 2476.77,1238.16C2476.77,1239.91 2484.66,1240.79 2500.44,1240.79C2519.46,1240.79 2528.97,1231.19 2528.97,1212Z" style="fill:rgb(249,243,232);fill-rule:nonzero;"/>
        </g>
        <g transform="matrix(0.196015,0,0,0.196015,-1606.31,383.293)">
            <path d="M1714.33,930.192C1711.99,930.192 1710.49,930.9 1709.85,932.316C1709.2,933.732 1708.88,937.026 1708.88,942.198C1708.88,950.017 1709.37,956.112 1710.36,960.483C1710.66,961.715 1711.12,962.669 1711.74,963.346C1712.36,964.024 1713.53,964.855 1715.25,965.84C1718.94,967.872 1720.79,970.55 1720.79,973.874C1720.79,977.938 1718.22,980.816 1713.08,982.509C1707.94,984.202 1699.24,985.049 1686.99,985.049C1664.21,985.049 1652.82,980.739 1652.82,972.12C1652.82,970.642 1653.16,969.457 1653.84,968.564C1654.51,967.671 1656.05,966.425 1658.45,964.824C1661.16,963.039 1662.99,960.93 1663.95,958.498C1664.9,956.066 1665.57,951.864 1665.93,945.892C1666.24,941.521 1666.4,925.852 1666.4,898.885C1666.4,890.327 1665.97,884.509 1665.1,881.43C1664.24,878.352 1662.39,876.105 1659.56,874.689C1656.85,873.396 1655.04,872.211 1654.11,871.133C1653.19,870.056 1652.73,868.655 1652.73,866.931C1652.73,864.653 1653.61,862.668 1655.36,860.975C1657.12,859.281 1659.56,858.035 1662.7,857.234C1665.35,856.557 1668.98,856.218 1673.6,856.218C1675.63,856.218 1680.71,856.526 1688.84,857.142C1690.38,857.265 1692.81,857.327 1696.13,857.327C1701.67,857.327 1709.06,856.957 1718.3,856.218C1724.15,855.788 1728.24,855.572 1730.58,855.572C1743.76,855.572 1754.65,858.743 1763.27,865.084C1771.03,870.81 1774.91,878.752 1774.91,888.911C1774.91,894.575 1773.56,899.731 1770.85,904.38C1768.14,909.028 1764.41,912.522 1759.67,914.862C1757.7,915.847 1756.72,917.017 1756.72,918.371C1756.72,920.157 1758.22,921.603 1761.24,922.712C1767.71,925.051 1772.45,928.591 1775.46,933.332C1778.48,938.073 1780.63,945.338 1781.93,955.127C1782.48,959.191 1783.28,961.823 1784.33,963.023C1785.38,964.224 1787.81,965.378 1791.62,966.486C1792.8,966.856 1793.78,967.641 1794.58,968.841C1795.38,970.042 1795.78,971.381 1795.78,972.859C1795.78,974.767 1795.04,976.691 1793.56,978.631C1792.09,980.57 1790.18,982.094 1787.84,983.202C1782.67,985.603 1775.59,986.804 1766.6,986.804C1754.59,986.804 1746,983.633 1740.83,977.291C1738.49,974.459 1736.51,970.888 1734.88,966.579C1733.24,962.269 1731.32,955.558 1729.1,946.446C1727.69,940.597 1725.89,936.472 1723.7,934.071C1721.52,931.67 1718.39,930.377 1714.33,930.192ZM1708.97,883.093L1707.95,904.611L1707.95,905.442C1707.95,907.658 1708.28,909.136 1708.92,909.875C1709.57,910.614 1710.88,910.983 1712.85,910.983C1718.27,910.983 1722.21,909.582 1724.67,906.781C1727.13,903.98 1728.36,899.501 1728.36,893.344C1728.36,881.461 1724.15,875.52 1715.71,875.52C1713.31,875.52 1711.62,876.074 1710.63,877.182C1709.65,878.291 1709.09,880.261 1708.97,883.093Z" style="fill:rgb(249,243,232);fill-rule:nonzero;"/>
            <path d="M1867.17,857.142L1914.64,857.142C1924.24,857.142 1931.25,856.942 1935.65,856.542C1940.05,856.142 1944.34,855.326 1948.53,854.094C1949.82,853.725 1950.84,853.54 1951.58,853.54C1954.78,853.54 1957.61,855.264 1960.07,858.712C1964.14,864.315 1966.17,871.087 1966.17,879.029C1966.17,883.031 1965.32,886.187 1963.63,888.495C1961.94,890.804 1959.61,891.959 1956.66,891.959C1954.62,891.959 1953.04,891.543 1951.9,890.712C1950.76,889.881 1949.24,888.018 1947.33,885.125C1944.62,881 1941.19,878.244 1937.03,876.859C1932.88,875.474 1926.06,874.781 1916.58,874.781C1909.5,874.781 1905.19,876.043 1903.65,878.568C1902.85,879.922 1902.37,881.738 1902.22,884.016C1902.06,886.294 1901.99,892.112 1901.99,901.471C1901.99,905.165 1902.6,907.458 1903.83,908.351C1905.06,909.244 1908.3,909.69 1913.53,909.69C1916.12,909.69 1917.99,909.151 1919.16,908.074C1920.33,906.996 1921.07,905.072 1921.38,902.302C1921.81,898.731 1922.26,896.284 1922.72,894.96C1923.18,893.636 1924.03,892.482 1925.26,891.497C1926.55,890.389 1928.06,889.834 1929.78,889.834C1932.31,889.834 1934.46,891.035 1936.25,893.436C1937.54,895.222 1938.63,898.377 1939.53,902.902C1940.42,907.427 1940.87,912.153 1940.87,917.078C1940.87,926.806 1939.36,934.779 1936.34,940.997C1934.68,944.383 1932.15,946.077 1928.77,946.077C1926.67,946.077 1925.23,945.538 1924.43,944.46C1923.63,943.383 1923.01,941.151 1922.58,937.765C1921.66,930.808 1917.59,927.329 1910.39,927.329C1907.62,927.329 1905.73,928.207 1904.71,929.961C1903.69,931.716 1903.19,934.964 1903.19,939.704C1903.19,942.598 1903.39,946.338 1903.79,950.925C1904.19,955.512 1904.6,958.544 1905.03,960.022C1905.53,961.869 1907.05,963.146 1909.6,963.854C1912.16,964.562 1916.42,964.916 1922.39,964.916C1931.63,964.916 1938.59,963.731 1943.27,961.361C1947.94,958.99 1951.76,954.696 1954.72,948.478C1956.44,944.907 1958,942.506 1959.38,941.274C1960.77,940.043 1962.57,939.427 1964.78,939.427C1967.37,939.427 1969.51,940.551 1971.2,942.798C1972.9,945.045 1973.74,947.862 1973.74,951.248C1973.74,954.942 1972.79,959.56 1970.88,965.101C1968.97,970.642 1966.63,975.568 1963.86,979.877C1962.44,981.971 1961.28,983.371 1960.35,984.079C1959.43,984.787 1958.26,985.141 1956.84,985.141C1955.67,985.141 1953.98,984.957 1951.76,984.587C1947.82,983.848 1942.56,983.387 1935.97,983.202L1857.66,983.202C1854.52,983.202 1852.08,982.509 1850.36,981.124C1848.64,979.739 1847.78,977.784 1847.78,975.26C1847.78,973.474 1848.14,972.181 1848.88,971.381C1849.62,970.581 1851.32,969.565 1853.96,968.333C1855.81,967.533 1857.18,966.548 1858.07,965.378C1858.97,964.208 1859.66,962.484 1860.15,960.206C1862.18,950.91 1863.2,938.381 1863.2,922.619C1863.2,898.854 1861.72,883.862 1858.76,877.644C1858.15,876.413 1857.47,875.551 1856.73,875.058C1855.99,874.566 1854.45,873.981 1852.12,873.304C1848.61,872.257 1846.85,869.917 1846.85,866.285C1846.85,864.315 1847.44,862.56 1848.61,861.021C1849.78,859.482 1851.32,858.466 1853.22,857.973C1855.62,857.419 1860.27,857.142 1867.17,857.142Z" style="fill:rgb(249,243,232);fill-rule:nonzero;"/>
            <path d="M2076.81,861.575L2122.8,901.84C2127.11,905.596 2130.22,907.474 2132.12,907.474C2135.33,907.474 2136.93,904.057 2136.93,897.223C2136.93,889.465 2136.47,884.17 2135.54,881.338C2134.62,878.506 2132.68,876.382 2129.72,874.966C2127.32,873.796 2125.63,872.549 2124.64,871.226C2123.66,869.902 2123.17,868.193 2123.17,866.1C2123.17,860.928 2126.71,857.604 2133.79,856.126C2136.68,855.51 2141.73,855.203 2148.93,855.203C2158.23,855.203 2164.66,855.757 2168.24,856.865C2173.9,858.589 2176.73,861.852 2176.73,866.654C2176.73,870.656 2174.42,873.673 2169.8,875.705C2167.96,876.505 2166.7,877.213 2166.02,877.829C2165.34,878.444 2164.76,879.368 2164.26,880.599C2162.6,884.663 2161.74,892.359 2161.68,903.687L2161.68,933.794C2161.68,938.411 2161.71,944.722 2161.77,952.726C2161.83,963.562 2161.18,971.381 2159.83,976.183C2158.17,982.155 2155.15,985.141 2150.78,985.141C2148.87,985.141 2147.22,984.741 2145.84,983.941C2144.45,983.14 2142.16,981.293 2138.96,978.4L2084.2,929.361C2080.38,925.913 2077.21,924.189 2074.68,924.189C2070.93,924.189 2069.05,929.392 2069.05,939.797C2069.05,948.355 2069.53,954.204 2070.48,957.344C2071.43,960.483 2073.39,962.792 2076.35,964.27C2080.47,966.302 2082.53,968.949 2082.53,972.212C2082.53,980.77 2073.33,985.049 2054.92,985.049C2046.61,985.049 2040.16,983.956 2035.57,981.771C2030.99,979.585 2028.69,976.491 2028.69,972.489C2028.69,970.396 2029.12,968.826 2029.98,967.779C2030.85,966.733 2032.79,965.317 2035.8,963.531C2038.7,961.807 2040.45,958.76 2041.07,954.388C2042.11,946.446 2042.64,935.025 2042.64,920.126C2042.64,904.241 2041.71,892.667 2039.87,885.402C2039.19,882.754 2038.33,880.784 2037.28,879.491C2036.23,878.198 2034.51,876.967 2032.11,875.797C2029.34,874.443 2027.41,873.119 2026.34,871.826C2025.26,870.533 2024.72,868.963 2024.72,867.116C2024.72,861.205 2029.8,857.481 2039.96,855.941C2043.41,855.449 2049.44,855.203 2058.06,855.203C2062.99,855.203 2066.57,855.587 2068.82,856.357C2071.07,857.127 2073.73,858.866 2076.81,861.575Z" style="fill:rgb(249,243,232);fill-rule:nonzero;"/>
            <path d="M2298.27,854.556C2307.26,854.556 2315.94,856.526 2324.31,860.467C2328.25,862.314 2330.99,863.237 2332.53,863.237C2333.64,863.237 2335.42,862.96 2337.89,862.406C2338.68,862.221 2339.58,862.129 2340.56,862.129C2343.76,862.129 2346.57,863.607 2348.97,866.562C2354.88,873.704 2357.83,882.569 2357.83,893.159C2357.83,900.609 2355.28,906.058 2350.17,909.505C2347.4,911.352 2344.29,912.276 2340.84,912.276C2337.7,912.276 2335.14,911.599 2333.18,910.244C2331.2,908.89 2329.3,906.489 2327.45,903.041C2324.8,898.177 2322.65,894.683 2320.98,892.559C2319.32,890.435 2317.29,888.511 2314.89,886.787C2308.92,882.6 2302.67,880.507 2296.14,880.507C2289.8,880.507 2284.77,882.8 2281.04,887.387C2277.32,891.974 2275.45,898.115 2275.45,905.811C2275.45,916.401 2278.13,926.098 2283.49,934.902C2290.76,946.662 2301.16,952.541 2314.7,952.541C2319.69,952.541 2324.63,951.71 2329.53,950.048C2334.42,948.385 2338.22,946.231 2340.93,943.583C2343.27,941.367 2345.18,940.258 2346.66,940.258C2348.81,940.258 2350.66,941.259 2352.2,943.26C2353.74,945.261 2354.51,947.677 2354.51,950.509C2354.51,954.08 2353.43,958.082 2351.28,962.515C2349.12,966.948 2346.53,970.427 2343.52,972.951C2342.22,973.998 2339.55,974.921 2335.48,975.721C2333.14,976.152 2330.03,977.291 2326.16,979.138C2317.04,983.51 2307.56,985.695 2297.71,985.695C2287.43,985.695 2277.18,983.387 2266.96,978.769C2255.08,973.413 2245.69,965.193 2238.79,954.111C2232.02,943.337 2228.63,932.07 2228.63,920.311C2228.63,906.642 2232.88,894.175 2241.38,882.908C2248.76,873.119 2258.4,865.638 2270.28,860.467C2279.33,856.526 2288.66,854.556 2298.27,854.556Z" style="fill:rgb(249,243,232);fill-rule:nonzero;"/>
            <path d="M2482.88,854.556C2498.7,854.556 2512.52,859.081 2524.34,868.132C2532.35,874.35 2538.84,882.416 2543.83,892.328C2548.69,902.179 2551.12,912.03 2551.12,921.88C2551.12,936.41 2546.32,949.401 2536.72,960.853C2528.59,970.581 2517.97,977.569 2504.86,981.817C2496.79,984.403 2488.7,985.695 2480.57,985.695C2469.92,985.695 2459.73,983.479 2450,979.046C2438.24,973.69 2429.04,965.594 2422.39,954.758C2415.92,944.291 2412.69,932.747 2412.69,920.126C2412.69,905.473 2416.85,892.543 2425.16,881.338C2432.55,871.364 2442.49,864.038 2454.99,859.358C2463.36,856.157 2472.66,854.556 2482.88,854.556ZM2474.1,881.061C2468.93,881.061 2464.84,883.37 2461.82,887.987C2459.48,891.435 2458.31,895.529 2458.31,900.27C2458.31,907.227 2459.73,915.277 2462.56,924.42C2465.39,933.563 2468.96,941.675 2473.27,948.755C2475.18,951.772 2477.54,954.173 2480.34,955.958C2483.14,957.744 2485.99,958.636 2488.88,958.636C2493.56,958.636 2497.33,956.882 2500.19,953.372C2503.05,949.863 2504.49,945.245 2504.49,939.52C2504.49,932.07 2503.29,924.035 2500.89,915.416C2498.48,906.796 2495.38,899.439 2491.56,893.344C2489.22,889.588 2486.51,886.633 2483.43,884.478C2480.35,882.323 2477.24,881.184 2474.1,881.061Z" style="fill:rgb(249,243,232);fill-rule:nonzero;"/>
            <path d="M2657.24,861.575L2703.23,901.84C2707.54,905.596 2710.65,907.474 2712.55,907.474C2715.76,907.474 2717.36,904.057 2717.36,897.223C2717.36,889.465 2716.9,884.17 2715.97,881.338C2715.05,878.506 2713.11,876.382 2710.15,874.966C2707.75,873.796 2706.06,872.549 2705.08,871.226C2704.09,869.902 2703.6,868.193 2703.6,866.1C2703.6,860.928 2707.14,857.604 2714.22,856.126C2717.11,855.51 2722.16,855.203 2729.36,855.203C2738.66,855.203 2745.09,855.757 2748.66,856.865C2754.33,858.589 2757.16,861.852 2757.16,866.654C2757.16,870.656 2754.85,873.673 2750.24,875.705C2748.39,876.505 2747.12,877.213 2746.45,877.829C2745.77,878.444 2745.19,879.368 2744.69,880.599C2743.03,884.663 2742.17,892.359 2742.11,903.687L2742.11,933.794C2742.11,938.411 2742.14,944.722 2742.2,952.726C2742.26,963.562 2741.62,971.381 2740.26,976.183C2738.6,982.155 2735.58,985.141 2731.21,985.141C2729.3,985.141 2727.66,984.741 2726.27,983.941C2724.88,983.14 2722.59,981.293 2719.39,978.4L2664.62,929.361C2660.81,925.913 2657.64,924.189 2655.11,924.189C2651.36,924.189 2649.48,929.392 2649.48,939.797C2649.48,948.355 2649.96,954.204 2650.91,957.344C2651.87,960.483 2653.82,962.792 2656.78,964.27C2660.9,966.302 2662.96,968.949 2662.96,972.212C2662.96,980.77 2653.76,985.049 2635.35,985.049C2627.04,985.049 2620.59,983.956 2616,981.771C2611.41,979.585 2609.12,976.491 2609.12,972.489C2609.12,970.396 2609.55,968.826 2610.41,967.779C2611.28,966.733 2613.22,965.317 2616.23,963.531C2619.13,961.807 2620.88,958.76 2621.5,954.388C2622.54,946.446 2623.07,935.025 2623.07,920.126C2623.07,904.241 2622.14,892.667 2620.3,885.402C2619.62,882.754 2618.76,880.784 2617.71,879.491C2616.66,878.198 2614.94,876.967 2612.54,875.797C2609.77,874.443 2607.84,873.119 2606.77,871.826C2605.69,870.533 2605.15,868.963 2605.15,867.116C2605.15,861.205 2610.23,857.481 2620.39,855.941C2623.84,855.449 2629.87,855.203 2638.49,855.203C2643.41,855.203 2647,855.587 2649.25,856.357C2651.49,857.127 2654.16,858.866 2657.24,861.575Z" style="fill:rgb(249,243,232);fill-rule:nonzero;"/>
            <path d="M2850.16,857.142L2898.83,857.142C2904.06,856.957 2908.83,856.249 2913.14,855.018C2914.99,854.525 2916.62,854.279 2918.04,854.279C2923.02,854.279 2927.87,857.973 2932.58,865.361C2937.29,872.749 2939.65,880.353 2939.65,888.172C2939.65,893.529 2938.02,897.438 2934.75,899.901C2932.29,901.748 2929.34,902.671 2925.89,902.671C2922.62,902.671 2919.79,901.763 2917.39,899.947C2914.99,898.131 2912.62,895.129 2910.28,890.943C2908.25,887.126 2906.65,884.632 2905.48,883.462C2904.31,882.292 2902.89,881.708 2901.23,881.708C2898.95,881.708 2897.32,882.662 2896.34,884.57C2895.35,886.479 2894.86,889.619 2894.86,893.99L2894.86,945.707C2894.86,951.002 2895.41,954.85 2896.52,957.251C2897.63,959.652 2899.72,961.499 2902.8,962.792C2906.12,964.208 2908.39,965.547 2909.59,966.81C2910.79,968.072 2911.39,969.811 2911.39,972.027C2911.39,976.46 2908.39,979.754 2902.38,981.909C2896.38,984.064 2887.16,985.141 2874.72,985.141C2859.46,985.141 2848.13,983.879 2840.74,981.355C2834.52,979.262 2831.41,975.875 2831.41,971.196C2831.41,968.672 2832.52,966.702 2834.74,965.286C2835.29,964.978 2837.48,964.239 2841.29,963.069C2843.63,962.392 2845.25,961.099 2846.14,959.191C2847.03,957.282 2847.76,953.619 2848.31,948.201C2848.8,943.398 2849.27,935.625 2849.7,924.882C2850.13,914.138 2850.34,904.826 2850.34,896.946C2850.34,891.404 2849.91,887.464 2849.05,885.125C2848.19,882.785 2846.77,881.615 2844.8,881.615C2842.4,881.615 2840.06,883.339 2837.78,886.787C2833.66,893.067 2830.27,897.223 2827.62,899.254C2824.49,901.655 2821.44,902.856 2818.48,902.856C2815.16,902.856 2812.42,901.609 2810.26,899.116C2808.11,896.622 2807.03,893.436 2807.03,889.557C2807.03,885.74 2807.89,881.538 2809.62,876.951C2811.34,872.365 2813.65,868.132 2816.54,864.253C2821.22,857.973 2825.84,854.833 2830.4,854.833C2831.63,854.833 2833.04,855.018 2834.64,855.387C2837.97,856.065 2840.69,856.526 2842.82,856.773C2844.94,857.019 2847.39,857.142 2850.16,857.142Z" style="fill:rgb(249,243,232);fill-rule:nonzero;"/>
            <path d="M3050.93,930.192C3048.59,930.192 3047.1,930.9 3046.45,932.316C3045.81,933.732 3045.48,937.026 3045.48,942.198C3045.48,950.017 3045.97,956.112 3046.96,960.483C3047.27,961.715 3047.73,962.669 3048.35,963.346C3048.96,964.024 3050.13,964.855 3051.86,965.84C3055.55,967.872 3057.4,970.55 3057.4,973.874C3057.4,977.938 3054.83,980.816 3049.68,982.509C3044.54,984.202 3035.85,985.049 3023.6,985.049C3000.82,985.049 2989.43,980.739 2989.43,972.12C2989.43,970.642 2989.76,969.457 2990.44,968.564C2991.12,967.671 2992.66,966.425 2995.06,964.824C2997.77,963.039 2999.6,960.93 3000.55,958.498C3001.51,956.066 3002.17,951.864 3002.54,945.892C3002.85,941.521 3003,925.852 3003,898.885C3003,890.327 3002.57,884.509 3001.71,881.43C3000.85,878.352 2999,876.105 2996.17,874.689C2993.46,873.396 2991.64,872.211 2990.72,871.133C2989.8,870.056 2989.33,868.655 2989.33,866.931C2989.33,864.653 2990.21,862.668 2991.97,860.975C2993.72,859.281 2996.17,858.035 2999.31,857.234C3001.95,856.557 3005.59,856.218 3010.2,856.218C3012.24,856.218 3017.32,856.526 3025.44,857.142C3026.98,857.265 3029.41,857.327 3032.74,857.327C3038.28,857.327 3045.67,856.957 3054.9,856.218C3060.75,855.788 3064.85,855.572 3067.18,855.572C3080.36,855.572 3091.26,858.743 3099.88,865.084C3107.64,870.81 3111.51,878.752 3111.51,888.911C3111.51,894.575 3110.16,899.731 3107.45,904.38C3104.74,909.028 3101.02,912.522 3096.28,914.862C3094.31,915.847 3093.32,917.017 3093.32,918.371C3093.32,920.157 3094.83,921.603 3097.85,922.712C3104.31,925.051 3109.05,928.591 3112.07,933.332C3115.09,938.073 3117.24,945.338 3118.53,955.127C3119.09,959.191 3119.89,961.823 3120.93,963.023C3121.98,964.224 3124.41,965.378 3128.23,966.486C3129.4,966.856 3130.39,967.641 3131.18,968.841C3131.99,970.042 3132.39,971.381 3132.39,972.859C3132.39,974.767 3131.65,976.691 3130.17,978.631C3128.69,980.57 3126.78,982.094 3124.44,983.202C3119.27,985.603 3112.19,986.804 3103.2,986.804C3091.2,986.804 3082.61,983.633 3077.44,977.291C3075.1,974.459 3073.11,970.888 3071.48,966.579C3069.85,962.269 3067.92,955.558 3065.71,946.446C3064.29,940.597 3062.49,936.472 3060.31,934.071C3058.12,931.67 3054.99,930.377 3050.93,930.192ZM3045.58,883.093L3044.56,904.611L3044.56,905.442C3044.56,907.658 3044.88,909.136 3045.53,909.875C3046.18,910.614 3047.48,910.983 3049.45,910.983C3054.87,910.983 3058.81,909.582 3061.28,906.781C3063.74,903.98 3064.97,899.501 3064.97,893.344C3064.97,881.461 3060.75,875.52 3052.32,875.52C3049.91,875.52 3048.22,876.074 3047.24,877.182C3046.25,878.291 3045.7,880.261 3045.58,883.093Z" style="fill:rgb(249,243,232);fill-rule:nonzero;"/>
            <path d="M3203.77,857.142L3251.24,857.142C3260.85,857.142 3267.85,856.942 3272.25,856.542C3276.65,856.142 3280.95,855.326 3285.14,854.094C3286.43,853.725 3287.44,853.54 3288.18,853.54C3291.38,853.54 3294.22,855.264 3296.68,858.712C3300.74,864.315 3302.77,871.087 3302.77,879.029C3302.77,883.031 3301.93,886.187 3300.24,888.495C3298.54,890.804 3296.22,891.959 3293.26,891.959C3291.23,891.959 3289.64,891.543 3288.51,890.712C3287.37,889.881 3285.84,888.018 3283.93,885.125C3281.22,881 3277.79,878.244 3273.64,876.859C3269.48,875.474 3262.66,874.781 3253.18,874.781C3246.1,874.781 3241.79,876.043 3240.25,878.568C3239.45,879.922 3238.97,881.738 3238.82,884.016C3238.67,886.294 3238.59,892.112 3238.59,901.471C3238.59,905.165 3239.2,907.458 3240.44,908.351C3241.67,909.244 3244.9,909.69 3250.13,909.69C3252.72,909.69 3254.6,909.151 3255.77,908.074C3256.94,906.996 3257.68,905.072 3257.98,902.302C3258.41,898.731 3258.86,896.284 3259.32,894.96C3259.78,893.636 3260.63,892.482 3261.86,891.497C3263.16,890.389 3264.66,889.834 3266.39,889.834C3268.91,889.834 3271.07,891.035 3272.85,893.436C3274.14,895.222 3275.24,898.377 3276.13,902.902C3277.02,907.427 3277.47,912.153 3277.47,917.078C3277.47,926.806 3275.96,934.779 3272.95,940.997C3271.28,944.383 3268.76,946.077 3265.37,946.077C3263.28,946.077 3261.83,945.538 3261.03,944.46C3260.23,943.383 3259.62,941.151 3259.18,937.765C3258.26,930.808 3254.2,927.329 3246.99,927.329C3244.22,927.329 3242.33,928.207 3241.31,929.961C3240.3,931.716 3239.79,934.964 3239.79,939.704C3239.79,942.598 3239.99,946.338 3240.39,950.925C3240.79,955.512 3241.21,958.544 3241.64,960.022C3242.13,961.869 3243.65,963.146 3246.21,963.854C3248.76,964.562 3253.03,964.916 3259,964.916C3268.24,964.916 3275.19,963.731 3279.87,961.361C3284.55,958.99 3288.37,954.696 3291.32,948.478C3293.05,944.907 3294.6,942.506 3295.99,941.274C3297.37,940.043 3299.17,939.427 3301.39,939.427C3303.97,939.427 3306.11,940.551 3307.81,942.798C3309.5,945.045 3310.35,947.862 3310.35,951.248C3310.35,954.942 3309.39,959.56 3307.48,965.101C3305.58,970.642 3303.24,975.568 3300.47,979.877C3299.05,981.971 3297.88,983.371 3296.96,984.079C3296.03,984.787 3294.86,985.141 3293.45,985.141C3292.28,985.141 3290.58,984.957 3288.37,984.587C3284.43,983.848 3279.16,983.387 3272.58,983.202L3194.26,983.202C3191.12,983.202 3188.69,982.509 3186.97,981.124C3185.24,979.739 3184.38,977.784 3184.38,975.26C3184.38,973.474 3184.75,972.181 3185.49,971.381C3186.23,970.581 3187.92,969.565 3190.57,968.333C3192.41,967.533 3193.78,966.548 3194.68,965.378C3195.57,964.208 3196.26,962.484 3196.76,960.206C3198.79,950.91 3199.8,938.381 3199.8,922.619C3199.8,898.854 3198.33,883.862 3195.37,877.644C3194.75,876.413 3194.08,875.551 3193.34,875.058C3192.6,874.566 3191.06,873.981 3188.72,873.304C3185.21,872.257 3183.46,869.917 3183.46,866.285C3183.46,864.315 3184.04,862.56 3185.21,861.021C3186.38,859.482 3187.92,858.466 3189.83,857.973C3192.23,857.419 3196.88,857.142 3203.77,857.142Z" style="fill:rgb(249,243,232);fill-rule:nonzero;"/>
            <path d="M3418.4,854.556C3424.74,854.556 3433.05,856.126 3443.33,859.266C3444.57,859.636 3445.55,859.82 3446.29,859.82C3446.9,859.82 3448.75,859.266 3451.83,858.158C3452.82,857.788 3453.86,857.604 3454.97,857.604C3459.1,857.604 3463.45,860.867 3468.04,867.393C3472.62,873.919 3474.92,880.138 3474.92,886.048C3474.92,889.496 3473.89,892.405 3471.82,894.775C3469.76,897.146 3467.25,898.331 3464.3,898.331C3461.83,898.331 3459.83,897.838 3458.29,896.853C3456.76,895.868 3453.37,892.944 3448.14,888.08C3440.75,881.184 3433.48,877.736 3426.34,877.736C3422.89,877.736 3420.14,878.568 3418.08,880.23C3416.01,881.892 3414.98,884.078 3414.98,886.787C3414.98,892.143 3419.69,896.176 3429.11,898.885C3441.86,902.641 3450.01,905.38 3453.58,907.104C3469.28,914.739 3477.13,925.975 3477.13,940.813C3477.13,953.926 3471.78,964.639 3461.07,972.951C3450.11,981.447 3435.79,985.695 3418.12,985.695C3410.24,985.695 3401.93,984.757 3393.19,982.879C3384.44,981.001 3378.13,978.8 3374.25,976.276C3371.3,974.305 3368.64,970.011 3366.27,963.393C3363.9,956.774 3362.71,950.325 3362.71,944.045C3362.71,941.028 3363.33,938.75 3364.56,937.211C3366.1,935.241 3368.04,934.256 3370.38,934.256C3372.72,934.256 3374.96,935.456 3377.12,937.857C3378.41,939.212 3381.46,943.552 3386.26,950.879C3388.54,954.327 3392.16,957.19 3397.11,959.468C3402.07,961.746 3407.19,962.885 3412.49,962.885C3417.04,962.885 3420.74,962.038 3423.57,960.345C3426.4,958.652 3427.82,956.482 3427.82,953.834C3427.82,951.371 3426.71,949.247 3424.49,947.462C3422.28,945.676 3418.68,944.014 3413.69,942.475C3404.88,939.704 3398.17,937.165 3393.56,934.856C3388.94,932.547 3384.63,929.638 3380.63,926.129C3370.9,917.509 3366.03,907.72 3366.03,896.761C3366.03,891.343 3367.3,886.063 3369.82,880.923C3372.35,875.782 3375.92,871.333 3380.53,867.578C3390.88,858.897 3403.5,854.556 3418.4,854.556Z" style="fill:rgb(249,243,232);fill-rule:nonzero;"/>
            <path d="M3665.16,983.202L3658.51,983.202C3654.63,983.202 3650.29,983.387 3645.49,983.756C3642.47,984.002 3640.38,984.125 3639.21,984.125C3635.09,984.125 3631.73,983.171 3629.14,981.263C3626.56,979.354 3625.27,976.86 3625.27,973.782C3625.27,971.627 3625.84,969.95 3626.97,968.749C3628.11,967.548 3629.98,966.579 3632.56,965.84C3635.02,965.224 3636.69,964.224 3637.55,962.838C3638.41,961.453 3639.09,958.76 3639.58,954.758C3640.07,950.14 3640.52,941.151 3640.92,927.791C3641.32,914.431 3641.52,901.163 3641.52,887.987C3641.52,882.816 3641.12,879.368 3640.32,877.644C3639.52,875.92 3637.64,874.535 3634.69,873.488C3630.44,871.887 3628.31,869.148 3628.31,865.269C3628.31,862.252 3629.78,859.897 3632.7,858.204C3635.62,856.511 3639.7,855.664 3644.94,855.664C3646.66,855.664 3648.69,855.695 3651.03,855.757C3656.2,855.941 3659.96,856.034 3662.3,856.034C3671.1,856.034 3681.05,855.757 3692.13,855.203C3694.47,855.079 3697.39,855.018 3700.9,855.018C3715,855.018 3726.14,856.619 3734.33,859.82C3746.52,864.622 3755.7,872.688 3761.85,884.016C3767.33,893.99 3770.07,905.873 3770.07,919.664C3770.07,926.621 3769.06,933.594 3767.03,940.582C3764.99,947.57 3762.25,953.619 3758.81,958.729C3751.66,969.072 3741.81,976.337 3729.25,980.524C3721.87,982.986 3713.99,984.218 3705.61,984.218L3694.44,983.848L3684.83,983.571C3677.38,983.325 3670.83,983.202 3665.16,983.202ZM3684.56,883.093L3684.56,954.573C3684.56,958.452 3685.39,961.207 3687.05,962.838C3688.71,964.47 3691.48,965.286 3695.36,965.286C3713.34,965.286 3722.33,951.618 3722.33,924.282C3722.33,909.198 3720.23,897.5 3716.05,889.188C3711.43,880.014 3703.61,875.428 3692.59,875.428C3689.64,875.428 3687.56,876.013 3686.36,877.182C3685.16,878.352 3684.56,880.322 3684.56,883.093Z" style="fill:rgb(249,243,232);fill-rule:nonzero;"/>
            <path d="M3844.6,857.142L3892.07,857.142C3901.67,857.142 3908.68,856.942 3913.08,856.542C3917.48,856.142 3921.78,855.326 3925.96,854.094C3927.26,853.725 3928.27,853.54 3929.01,853.54C3932.21,853.54 3935.04,855.264 3937.51,858.712C3941.57,864.315 3943.6,871.087 3943.6,879.029C3943.6,883.031 3942.76,886.187 3941.06,888.495C3939.37,890.804 3937.05,891.959 3934.09,891.959C3932.06,891.959 3930.47,891.543 3929.33,890.712C3928.2,889.881 3926.67,888.018 3924.76,885.125C3922.05,881 3918.62,878.244 3914.47,876.859C3910.31,875.474 3903.49,874.781 3894.01,874.781C3886.93,874.781 3882.62,876.043 3881.08,878.568C3880.28,879.922 3879.8,881.738 3879.65,884.016C3879.49,886.294 3879.42,892.112 3879.42,901.471C3879.42,905.165 3880.03,907.458 3881.26,908.351C3882.5,909.244 3885.73,909.69 3890.96,909.69C3893.55,909.69 3895.43,909.151 3896.6,908.074C3897.76,906.996 3898.5,905.072 3898.81,902.302C3899.24,898.731 3899.69,896.284 3900.15,894.96C3900.61,893.636 3901.46,892.482 3902.69,891.497C3903.98,890.389 3905.49,889.834 3907.22,889.834C3909.74,889.834 3911.89,891.035 3913.68,893.436C3914.97,895.222 3916.07,898.377 3916.96,902.902C3917.85,907.427 3918.3,912.153 3918.3,917.078C3918.3,926.806 3916.79,934.779 3913.77,940.997C3912.11,944.383 3909.59,946.077 3906.2,946.077C3904.11,946.077 3902.66,945.538 3901.86,944.46C3901.06,943.383 3900.44,941.151 3900.01,937.765C3899.09,930.808 3895.03,927.329 3887.82,927.329C3885.05,927.329 3883.16,928.207 3882.14,929.961C3881.13,931.716 3880.62,934.964 3880.62,939.704C3880.62,942.598 3880.82,946.338 3881.22,950.925C3881.62,955.512 3882.03,958.544 3882.47,960.022C3882.96,961.869 3884.48,963.146 3887.04,963.854C3889.59,964.562 3893.86,964.916 3899.83,964.916C3909.06,964.916 3916.02,963.731 3920.7,961.361C3925.38,958.99 3929.2,954.696 3932.15,948.478C3933.87,944.907 3935.43,942.506 3936.81,941.274C3938.2,940.043 3940,939.427 3942.22,939.427C3944.8,939.427 3946.94,940.551 3948.64,942.798C3950.33,945.045 3951.18,947.862 3951.18,951.248C3951.18,954.942 3950.22,959.56 3948.31,965.101C3946.4,970.642 3944.06,975.568 3941.29,979.877C3939.88,981.971 3938.71,983.371 3937.78,984.079C3936.86,984.787 3935.69,985.141 3934.27,985.141C3933.11,985.141 3931.41,984.957 3929.2,984.587C3925.26,983.848 3919.99,983.387 3913.4,983.202L3835.09,983.202C3831.95,983.202 3829.52,982.509 3827.79,981.124C3826.07,979.739 3825.21,977.784 3825.21,975.26C3825.21,973.474 3825.58,972.181 3826.32,971.381C3827.05,970.581 3828.75,969.565 3831.39,968.333C3833.24,967.533 3834.61,966.548 3835.5,965.378C3836.4,964.208 3837.09,962.484 3837.58,960.206C3839.61,950.91 3840.63,938.381 3840.63,922.619C3840.63,898.854 3839.15,883.862 3836.2,877.644C3835.58,876.413 3834.9,875.551 3834.16,875.058C3833.43,874.566 3831.89,873.981 3829.55,873.304C3826.04,872.257 3824.28,869.917 3824.28,866.285C3824.28,864.315 3824.87,862.56 3826.04,861.021C3827.21,859.482 3828.75,858.466 3830.66,857.973C3833.06,857.419 3837.7,857.142 3844.6,857.142Z" style="fill:rgb(249,243,232);fill-rule:nonzero;"/>
            <path d="M4168.39,854.556C4177.38,854.556 4186.06,856.526 4194.43,860.467C4198.37,862.314 4201.11,863.237 4202.65,863.237C4203.76,863.237 4205.54,862.96 4208.01,862.406C4208.81,862.221 4209.7,862.129 4210.68,862.129C4213.88,862.129 4216.69,863.607 4219.09,866.562C4225,873.704 4227.95,882.569 4227.95,893.159C4227.95,900.609 4225.4,906.058 4220.29,909.505C4217.52,911.352 4214.41,912.276 4210.96,912.276C4207.82,912.276 4205.27,911.599 4203.3,910.244C4201.32,908.89 4199.42,906.489 4197.57,903.041C4194.92,898.177 4192.77,894.683 4191.1,892.559C4189.44,890.435 4187.41,888.511 4185.01,886.787C4179.04,882.6 4172.79,880.507 4166.26,880.507C4159.92,880.507 4154.89,882.8 4151.16,887.387C4147.44,891.974 4145.57,898.115 4145.57,905.811C4145.57,916.401 4148.25,926.098 4153.61,934.902C4160.88,946.662 4171.28,952.541 4184.82,952.541C4189.81,952.541 4194.75,951.71 4199.65,950.048C4204.54,948.385 4208.34,946.231 4211.05,943.583C4213.39,941.367 4215.3,940.258 4216.78,940.258C4218.93,940.258 4220.78,941.259 4222.32,943.26C4223.86,945.261 4224.63,947.677 4224.63,950.509C4224.63,954.08 4223.55,958.082 4221.4,962.515C4219.24,966.948 4216.65,970.427 4213.64,972.951C4212.35,973.998 4209.67,974.921 4205.6,975.721C4203.26,976.152 4200.15,977.291 4196.28,979.138C4187.16,983.51 4177.68,985.695 4167.83,985.695C4157.55,985.695 4147.3,983.387 4137.08,978.769C4125.2,973.413 4115.81,965.193 4108.91,954.111C4102.14,943.337 4098.75,932.07 4098.75,920.311C4098.75,906.642 4103,894.175 4111.5,882.908C4118.89,873.119 4128.52,865.638 4140.4,860.467C4149.45,856.526 4158.78,854.556 4168.39,854.556Z" style="fill:rgb(249,243,232);fill-rule:nonzero;"/>
            <path d="M4320.95,855.203C4327.97,855.203 4334.59,855.818 4340.81,857.05C4349.18,858.712 4353.37,862.252 4353.37,867.67C4353.37,869.456 4352.95,870.795 4352.12,871.687C4351.29,872.58 4349.18,873.888 4345.79,875.612C4342.96,877.028 4341.1,880.138 4340.21,884.94C4339.31,889.742 4338.87,899.1 4338.87,913.015C4338.87,936.534 4339.45,951.094 4340.62,956.697C4341.05,958.483 4341.71,959.852 4342.61,960.807C4343.5,961.761 4345.05,962.792 4347.27,963.9C4351.33,965.748 4353.37,968.426 4353.37,971.935C4353.37,976.86 4349.61,980.247 4342.1,982.094C4333.97,984.064 4324.03,985.049 4312.27,985.049C4292.2,985.049 4282.16,981.232 4282.16,973.597C4282.16,970.827 4284.13,968.241 4288.07,965.84C4291.09,963.993 4292.88,961.469 4293.43,958.267C4294.6,951.248 4295.19,936.349 4295.19,913.569C4295.19,897.808 4294.38,887.71 4292.78,883.278C4291.92,880.753 4289.86,878.475 4286.6,876.444C4284.07,874.781 4282.38,873.396 4281.52,872.288C4280.65,871.179 4280.22,869.763 4280.22,868.04C4280.22,865.392 4281.5,863.283 4284.06,861.713C4286.61,860.143 4291.12,858.743 4297.59,857.511C4305.28,855.972 4313.07,855.203 4320.95,855.203Z" style="fill:rgb(249,243,232);fill-rule:nonzero;"/>
            <path d="M4457.72,861.575L4503.71,901.84C4508.02,905.596 4511.13,907.474 4513.04,907.474C4516.24,907.474 4517.84,904.057 4517.84,897.223C4517.84,889.465 4517.38,884.17 4516.46,881.338C4515.53,878.506 4513.6,876.382 4510.64,874.966C4508.24,873.796 4506.55,872.549 4505.56,871.226C4504.58,869.902 4504.08,868.193 4504.08,866.1C4504.08,860.928 4507.62,857.604 4514.7,856.126C4517.6,855.51 4522.65,855.203 4529.85,855.203C4539.15,855.203 4545.58,855.757 4549.15,856.865C4554.82,858.589 4557.65,861.852 4557.65,866.654C4557.65,870.656 4555.34,873.673 4550.72,875.705C4548.87,876.505 4547.61,877.213 4546.94,877.829C4546.26,878.444 4545.67,879.368 4545.18,880.599C4543.52,884.663 4542.66,892.359 4542.6,903.687L4542.6,933.794C4542.6,938.411 4542.62,944.722 4542.69,952.726C4542.75,963.562 4542.1,971.381 4540.75,976.183C4539.09,982.155 4536.07,985.141 4531.7,985.141C4529.79,985.141 4528.14,984.741 4526.76,983.941C4525.37,983.14 4523.08,981.293 4519.88,978.4L4465.11,929.361C4461.29,925.913 4458.12,924.189 4455.6,924.189C4451.84,924.189 4449.97,929.392 4449.97,939.797C4449.97,948.355 4450.44,954.204 4451.4,957.344C4452.35,960.483 4454.31,962.792 4457.26,964.27C4461.39,966.302 4463.45,968.949 4463.45,972.212C4463.45,980.77 4454.24,985.049 4435.84,985.049C4427.52,985.049 4421.07,983.956 4416.49,981.771C4411.9,979.585 4409.61,976.491 4409.61,972.489C4409.61,970.396 4410.04,968.826 4410.9,967.779C4411.76,966.733 4413.7,965.317 4416.72,963.531C4419.61,961.807 4421.37,958.76 4421.98,954.388C4423.03,946.446 4423.55,935.025 4423.55,920.126C4423.55,904.241 4422.63,892.667 4420.78,885.402C4420.11,882.754 4419.24,880.784 4418.2,879.491C4417.15,878.198 4415.43,876.967 4413.03,875.797C4410.26,874.443 4408.33,873.119 4407.25,871.826C4406.18,870.533 4405.64,868.963 4405.64,867.116C4405.64,861.205 4410.72,857.481 4420.88,855.941C4424.32,855.449 4430.36,855.203 4438.98,855.203C4443.9,855.203 4447.49,855.587 4449.73,856.357C4451.98,857.127 4454.65,858.866 4457.72,861.575Z" style="fill:rgb(249,243,232);fill-rule:nonzero;"/>
            <path d="M4630.33,857.142L4677.8,857.142C4687.4,857.142 4694.4,856.942 4698.81,856.542C4703.21,856.142 4707.5,855.326 4711.69,854.094C4712.98,853.725 4714,853.54 4714.74,853.54C4717.94,853.54 4720.77,855.264 4723.23,858.712C4727.3,864.315 4729.33,871.087 4729.33,879.029C4729.33,883.031 4728.48,886.187 4726.79,888.495C4725.1,890.804 4722.77,891.959 4719.82,891.959C4717.78,891.959 4716.2,891.543 4715.06,890.712C4713.92,889.881 4712.4,888.018 4710.49,885.125C4707.78,881 4704.35,878.244 4700.19,876.859C4696.04,875.474 4689.22,874.781 4679.74,874.781C4672.66,874.781 4668.35,876.043 4666.81,878.568C4666.01,879.922 4665.53,881.738 4665.38,884.016C4665.22,886.294 4665.15,892.112 4665.15,901.471C4665.15,905.165 4665.76,907.458 4666.99,908.351C4668.22,909.244 4671.46,909.69 4676.69,909.69C4679.28,909.69 4681.15,909.151 4682.32,908.074C4683.49,906.996 4684.23,905.072 4684.54,902.302C4684.97,898.731 4685.42,896.284 4685.88,894.96C4686.34,893.636 4687.19,892.482 4688.42,891.497C4689.71,890.389 4691.22,889.834 4692.94,889.834C4695.47,889.834 4697.62,891.035 4699.41,893.436C4700.7,895.222 4701.79,898.377 4702.69,902.902C4703.58,907.427 4704.03,912.153 4704.03,917.078C4704.03,926.806 4702.52,934.779 4699.5,940.997C4697.84,944.383 4695.31,946.077 4691.93,946.077C4689.83,946.077 4688.39,945.538 4687.59,944.46C4686.79,943.383 4686.17,941.151 4685.74,937.765C4684.82,930.808 4680.75,927.329 4673.55,927.329C4670.78,927.329 4668.89,928.207 4667.87,929.961C4666.85,931.716 4666.35,934.964 4666.35,939.704C4666.35,942.598 4666.55,946.338 4666.95,950.925C4667.35,955.512 4667.76,958.544 4668.19,960.022C4668.69,961.869 4670.21,963.146 4672.76,963.854C4675.32,964.562 4679.58,964.916 4685.56,964.916C4694.79,964.916 4701.75,963.731 4706.43,961.361C4711.11,958.99 4714.92,954.696 4717.88,948.478C4719.6,944.907 4721.16,942.506 4722.54,941.274C4723.93,940.043 4725.73,939.427 4727.94,939.427C4730.53,939.427 4732.67,940.551 4734.36,942.798C4736.06,945.045 4736.9,947.862 4736.9,951.248C4736.9,954.942 4735.95,959.56 4734.04,965.101C4732.13,970.642 4729.79,975.568 4727.02,979.877C4725.61,981.971 4724.44,983.371 4723.51,984.079C4722.59,984.787 4721.42,985.141 4720,985.141C4718.83,985.141 4717.14,984.957 4714.92,984.587C4710.98,983.848 4705.72,983.387 4699.13,983.202L4620.82,983.202C4617.68,983.202 4615.24,982.509 4613.52,981.124C4611.8,979.739 4610.94,977.784 4610.94,975.26C4610.94,973.474 4611.3,972.181 4612.04,971.381C4612.78,970.581 4614.48,969.565 4617.12,968.333C4618.97,967.533 4620.34,966.548 4621.23,965.378C4622.12,964.208 4622.82,962.484 4623.31,960.206C4625.34,950.91 4626.36,938.381 4626.36,922.619C4626.36,898.854 4624.88,883.862 4621.93,877.644C4621.31,876.413 4620.63,875.551 4619.89,875.058C4619.15,874.566 4617.61,873.981 4615.28,873.304C4611.77,872.257 4610.01,869.917 4610.01,866.285C4610.01,864.315 4610.6,862.56 4611.77,861.021C4612.94,859.482 4614.48,858.466 4616.38,857.973C4618.78,857.419 4623.43,857.142 4630.33,857.142ZM4679.18,815.861C4684.78,815.861 4689.77,816.692 4694.14,818.354C4696.3,819.155 4698.05,820.294 4699.41,821.771C4700.76,823.249 4701.41,824.727 4701.35,826.204C4701.22,828.975 4698.61,832.33 4693.5,836.271C4684.2,843.412 4673.92,846.983 4662.65,846.983C4656.31,846.983 4653.14,844.705 4653.14,840.149C4653.14,838.549 4653.46,837.333 4654.11,836.501C4654.76,835.67 4656.62,834.054 4659.7,831.653C4662.47,829.683 4664.16,828.374 4664.78,827.728C4665.39,827.082 4665.7,826.297 4665.7,825.373C4665.7,824.881 4665.33,823.988 4664.59,822.695C4664.35,822.264 4664.22,821.802 4664.22,821.31C4664.22,819.709 4665.61,818.416 4668.38,817.431C4671.15,816.446 4674.75,815.922 4679.18,815.861Z" style="fill:rgb(249,243,232);fill-rule:nonzero;"/>
            <path d="M4880.6,944.968L4869.52,969.811C4867.61,973.998 4866.07,976.814 4864.9,978.261C4863.73,979.708 4862.44,980.431 4861.02,980.431C4859.67,980.431 4858.47,979.847 4857.42,978.677C4856.74,977.938 4855.19,975.229 4852.76,970.55C4850.32,965.871 4848.31,961.715 4846.71,958.082L4834.52,930.654C4832.86,926.837 4831.1,924.928 4829.25,924.928C4827.28,924.928 4826.21,926.56 4826.02,929.823C4825.59,937.088 4825.38,943.799 4825.38,949.955C4825.38,956.358 4825.68,960.699 4826.3,962.977C4826.73,964.331 4827.3,965.317 4828.01,965.932C4828.72,966.548 4830.64,967.656 4833.78,969.257C4835.81,970.304 4836.83,972.12 4836.83,974.706C4836.83,981.601 4827.99,985.049 4810.32,985.049C4795.42,985.049 4787.97,981.694 4787.97,974.983C4787.97,973.259 4788.36,972.012 4789.13,971.242C4789.9,970.473 4791.88,969.318 4795.08,967.779C4797.12,966.856 4798.48,965.594 4799.19,963.993C4799.9,962.392 4800.5,959.283 4800.99,954.665C4801.55,949.74 4802.07,941.659 4802.56,930.423C4803.06,919.187 4803.3,909.567 4803.3,901.563C4803.3,891.528 4802.53,884.724 4800.99,881.153C4800.44,879.922 4799.81,878.999 4799.1,878.383C4798.39,877.767 4797.05,876.967 4795.08,875.982C4790.71,873.888 4788.53,871.179 4788.53,867.855C4788.53,865.7 4789.34,863.73 4790.97,861.944C4792.61,860.159 4794.78,858.897 4797.48,858.158C4800.19,857.358 4803.81,856.665 4808.34,856.08C4812.86,855.495 4816.69,855.203 4819.83,855.203C4827.72,855.203 4833.29,855.849 4836.55,857.142C4838.15,857.758 4839.41,858.589 4840.34,859.636C4841.26,860.682 4842.58,862.837 4844.31,866.1L4863.52,901.471C4865.61,905.35 4867.06,907.72 4867.86,908.582C4868.66,909.444 4869.77,909.875 4871.18,909.875C4872.41,909.875 4873.51,909.413 4874.46,908.49C4875.41,907.566 4876.54,905.842 4877.83,903.318L4890.85,877.921C4892.45,874.658 4893.5,872.534 4893.99,871.549C4897.01,865.392 4899.99,861.298 4902.95,859.266C4906.71,856.619 4913.54,855.295 4923.45,855.295C4940.88,855.295 4949.59,859.266 4949.59,867.208C4949.59,868.994 4949.25,870.425 4948.57,871.503C4947.9,872.58 4946.51,873.888 4944.42,875.428C4941.58,877.583 4939.8,880.692 4939.06,884.755C4937.64,893.251 4936.94,903.595 4936.94,915.785C4936.94,931.485 4937.68,945.245 4939.15,957.066C4939.52,959.96 4940.09,961.93 4940.86,962.977C4941.63,964.024 4943.62,965.594 4946.82,967.687C4949.03,969.165 4950.14,971.135 4950.14,973.597C4950.14,977.907 4947.28,980.955 4941.55,982.74C4938.6,983.725 4935.49,984.372 4932.23,984.68C4928.96,984.987 4923.94,985.141 4917.17,985.141C4906.77,985.141 4899.01,984.403 4893.9,982.925C4888.24,981.263 4885.4,978.43 4885.4,974.429C4885.4,972.951 4885.77,971.735 4886.51,970.781C4887.25,969.826 4889.16,968.087 4892.24,965.563C4893.84,964.27 4894.93,961.776 4895.52,958.082C4896.1,954.388 4896.39,948.108 4896.39,939.243C4896.39,934.317 4896.16,931.085 4895.7,929.546C4895.24,928.006 4894.27,927.237 4892.79,927.237C4891.07,927.237 4889.41,928.422 4887.81,930.792C4886.2,933.163 4883.8,937.888 4880.6,944.968Z" style="fill:rgb(249,243,232);fill-rule:nonzero;"/>
            <path d="M5122.93,919.387L5140.39,956.789C5142.05,960.237 5143.43,962.5 5144.54,963.577C5145.65,964.655 5147.34,965.378 5149.62,965.748C5154.05,966.425 5156.27,968.672 5156.27,972.489C5156.27,976.984 5153.56,980.216 5148.14,982.186C5142.73,984.156 5133.86,985.141 5121.55,985.141C5107.63,985.141 5097.32,984.556 5090.61,983.387C5087.53,982.833 5085.08,981.709 5083.27,980.016C5081.45,978.323 5080.54,976.276 5080.54,973.874C5080.54,972.027 5081.02,970.596 5081.97,969.58C5082.93,968.564 5084.7,967.625 5087.28,966.763C5090.18,965.778 5091.62,964.116 5091.62,961.776C5091.62,957.651 5089.13,955.219 5084.14,954.481C5078.79,953.742 5071.25,953.372 5061.52,953.372C5053.33,953.372 5048.44,953.865 5046.83,954.85C5045.85,955.466 5044.99,956.574 5044.25,958.175C5043.51,959.775 5043.14,961.315 5043.14,962.792C5043.14,964.147 5043.4,965.024 5043.93,965.424C5044.45,965.824 5046.16,966.486 5049.05,967.41C5052.81,968.518 5054.68,970.734 5054.68,974.059C5054.68,981.386 5045.91,985.049 5028.36,985.049C5018.39,985.049 5011.06,984.372 5006.38,983.017C5002.07,981.724 4999.92,978.892 4999.92,974.521C4999.92,972.612 5000.4,971.135 5001.35,970.088C5002.31,969.041 5004.01,968.087 5006.48,967.225C5010.48,965.809 5013.51,963.824 5015.57,961.268C5017.64,958.713 5020.58,953.249 5024.39,944.876L5037.41,916.339C5042.22,905.873 5045.43,898.038 5047.07,892.836C5048.7,887.633 5049.54,882.539 5049.61,877.552C5049.67,872.257 5049.99,868.578 5050.57,866.516C5051.16,864.453 5052.47,862.437 5054.5,860.467C5058.75,856.157 5064.17,854.002 5070.75,854.002C5076.97,854.002 5082.91,856.434 5088.58,861.298C5096.46,867.947 5107.91,887.31 5122.93,919.387ZM5058.65,931.023L5076.76,931.023C5080.08,931.023 5081.74,930.284 5081.74,928.807C5081.74,926.775 5079.43,921.788 5074.82,913.846C5072.72,910.213 5071.12,907.781 5070.02,906.55C5068.91,905.319 5067.74,904.703 5066.51,904.703C5064.29,904.703 5062.44,906.766 5060.96,910.891C5060.72,911.445 5059.82,913.63 5058.29,917.448C5055.7,923.728 5054.41,927.483 5054.41,928.715C5054.41,930.254 5055.82,931.023 5058.65,931.023Z" style="fill:rgb(249,243,232);fill-rule:nonzero;"/>
            <path d="M5372.65,854.556C5381.58,854.556 5390.91,856.526 5400.63,860.467C5413.38,865.638 5423.38,874.381 5430.65,886.695C5437.36,898.085 5440.71,909.906 5440.71,922.158C5440.71,935.887 5436.68,948.293 5428.62,959.375C5424.92,964.547 5420.34,969.088 5414.86,972.997C5409.38,976.907 5403.77,979.662 5398.05,981.263C5396.57,981.694 5395.83,982.309 5395.83,983.11C5395.83,985.326 5398.56,987.265 5404,988.928C5409.45,990.59 5415.69,991.421 5422.7,991.421C5427.02,991.421 5431.11,990.559 5434.99,988.835C5435.79,988.466 5436.5,988.281 5437.11,988.281C5438.1,988.281 5439.08,989.051 5440.07,990.59C5441.05,992.129 5441.55,993.668 5441.55,995.208C5441.55,998.348 5439.57,1001.67 5435.64,1005.18C5431.63,1008.75 5426.45,1011.59 5420.07,1013.68C5413.7,1015.77 5407.13,1016.82 5400.36,1016.82C5392.41,1016.82 5383.81,1015.31 5374.54,1012.29C5365.28,1009.28 5351.75,1003.58 5333.95,995.208C5330.82,993.668 5327.28,992.391 5323.34,991.375C5319.4,990.359 5316.13,989.851 5313.55,989.851C5312.68,989.851 5311.64,989.944 5310.41,990.128C5309.73,990.19 5309.14,990.221 5308.65,990.221C5307.48,990.221 5306.51,989.713 5305.74,988.697C5304.97,987.681 5304.59,986.403 5304.59,984.864C5304.59,982.032 5305.51,979.662 5307.36,977.753C5310.31,974.798 5313.95,973.32 5318.26,973.32L5323.24,973.413C5324.6,973.413 5325.27,972.797 5325.27,971.566C5325.27,970.642 5324.01,968.703 5321.49,965.748C5315.76,959.16 5311.55,953.003 5308.84,947.277C5304.65,938.35 5302.56,928.992 5302.56,919.202C5302.56,906.273 5305.97,894.698 5312.81,884.478C5319.46,874.566 5329.09,866.839 5341.71,861.298C5352.06,856.803 5362.37,854.556 5372.65,854.556ZM5363.51,881.338C5358.64,881.338 5354.84,882.985 5352.1,886.279C5349.36,889.573 5347.99,894.113 5347.99,899.901C5347.99,906.735 5349.09,914.185 5351.27,922.25C5353.46,930.315 5356.43,937.919 5360.18,945.061C5365.23,954.665 5371.51,959.468 5379.02,959.468C5383.89,959.468 5387.9,957.774 5391.07,954.388C5394.25,951.002 5395.83,946.692 5395.83,941.459C5395.83,934.563 5394.6,926.714 5392.14,917.909C5389.67,909.105 5386.53,901.378 5382.72,894.729C5377.79,886.048 5371.39,881.584 5363.51,881.338Z" style="fill:rgb(249,243,232);fill-rule:nonzero;"/>
            <path d="M5632.25,903.318L5632.25,925.852C5632.25,939.458 5631.23,949.093 5629.2,954.758C5624.83,966.702 5615.23,975.352 5600.39,980.708C5591.4,984.033 5581.24,985.695 5569.91,985.695C5550.15,985.695 5534.33,980.986 5522.44,971.566C5516.66,966.948 5512.66,961.592 5510.44,955.496C5508.22,949.401 5507.11,940.597 5507.11,929.084C5507.11,924.589 5507.27,917.201 5507.58,906.92C5507.76,899.655 5507.85,894.852 5507.85,892.513C5507.85,887.403 5507.47,883.862 5506.7,881.892C5505.93,879.922 5504.25,878.075 5501.67,876.351C5497.6,873.704 5495.57,870.748 5495.57,867.485C5495.57,865.084 5496.6,862.96 5498.66,861.113C5500.73,859.266 5503.45,858.004 5506.84,857.327C5513.61,855.972 5521.61,855.295 5530.85,855.295C5541.01,855.295 5549.44,856.065 5556.15,857.604C5562.74,859.081 5566.03,862.437 5566.03,867.67C5566.03,870.256 5565.08,872.318 5563.17,873.858C5562.74,874.227 5560.89,875.181 5557.63,876.721C5555.66,877.583 5554.32,879.152 5553.61,881.43C5552.91,883.708 5552.55,887.464 5552.55,892.697C5552.55,898.054 5552.31,909.629 5551.81,927.422C5551.51,938.011 5554.37,946.077 5560.4,951.618C5565.33,956.174 5571.67,958.452 5579.43,958.452C5584.35,958.452 5588.82,957.544 5592.82,955.727C5596.82,953.911 5599.87,951.433 5601.96,948.293C5603.62,945.892 5604.76,943.214 5605.38,940.258C5605.99,937.303 5606.3,933.271 5606.3,928.16L5606.3,907.843C5605.99,892.266 5605.55,883.139 5604.96,880.461C5604.38,877.783 5602.39,875.674 5599.01,874.135C5595.8,872.719 5593.62,871.426 5592.45,870.256C5591.28,869.086 5590.69,867.639 5590.69,865.915C5590.69,862.221 5592.89,859.528 5597.3,857.835C5601.7,856.142 5608.76,855.295 5618.49,855.295C5628.03,855.295 5634.94,856.126 5639.22,857.788C5643.5,859.451 5645.64,862.098 5645.64,865.731C5645.64,867.516 5645.27,868.84 5644.53,869.702C5643.8,870.564 5641.86,871.887 5638.72,873.673C5635.45,875.52 5633.59,877.506 5633.13,879.63C5632.67,881.754 5632.37,889.65 5632.25,903.318Z" style="fill:rgb(249,243,232);fill-rule:nonzero;"/>
            <path d="M5718.32,857.142L5765.79,857.142C5775.4,857.142 5782.4,856.942 5786.8,856.542C5791.2,856.142 5795.5,855.326 5799.69,854.094C5800.98,853.725 5801.99,853.54 5802.73,853.54C5805.93,853.54 5808.77,855.264 5811.23,858.712C5815.29,864.315 5817.32,871.087 5817.32,879.029C5817.32,883.031 5816.48,886.187 5814.78,888.495C5813.09,890.804 5810.77,891.959 5807.81,891.959C5805.78,891.959 5804.19,891.543 5803.06,890.712C5801.92,889.881 5800.39,888.018 5798.48,885.125C5795.78,881 5792.34,878.244 5788.19,876.859C5784.03,875.474 5777.21,874.781 5767.73,874.781C5760.65,874.781 5756.34,876.043 5754.8,878.568C5754,879.922 5753.52,881.738 5753.37,884.016C5753.22,886.294 5753.14,892.112 5753.14,901.471C5753.14,905.165 5753.76,907.458 5754.99,908.351C5756.22,909.244 5759.45,909.69 5764.68,909.69C5767.27,909.69 5769.15,909.151 5770.32,908.074C5771.49,906.996 5772.23,905.072 5772.53,902.302C5772.96,898.731 5773.41,896.284 5773.87,894.96C5774.33,893.636 5775.18,892.482 5776.41,891.497C5777.7,890.389 5779.21,889.834 5780.94,889.834C5783.46,889.834 5785.62,891.035 5787.4,893.436C5788.69,895.222 5789.79,898.377 5790.68,902.902C5791.57,907.427 5792.02,912.153 5792.02,917.078C5792.02,926.806 5790.51,934.779 5787.49,940.997C5785.83,944.383 5783.31,946.077 5779.92,946.077C5777.83,946.077 5776.38,945.538 5775.58,944.46C5774.78,943.383 5774.16,941.151 5773.73,937.765C5772.81,930.808 5768.75,927.329 5761.54,927.329C5758.77,927.329 5756.88,928.207 5755.86,929.961C5754.85,931.716 5754.34,934.964 5754.34,939.704C5754.34,942.598 5754.54,946.338 5754.94,950.925C5755.34,955.512 5755.76,958.544 5756.19,960.022C5756.68,961.869 5758.2,963.146 5760.76,963.854C5763.31,964.562 5767.58,964.916 5773.55,964.916C5782.78,964.916 5789.74,963.731 5794.42,961.361C5799.1,958.99 5802.92,954.696 5805.87,948.478C5807.6,944.907 5809.15,942.506 5810.54,941.274C5811.92,940.043 5813.72,939.427 5815.94,939.427C5818.52,939.427 5820.66,940.551 5822.36,942.798C5824.05,945.045 5824.9,947.862 5824.9,951.248C5824.9,954.942 5823.94,959.56 5822.03,965.101C5820.12,970.642 5817.78,975.568 5815.02,979.877C5813.6,981.971 5812.43,983.371 5811.51,984.079C5810.58,984.787 5809.41,985.141 5808,985.141C5806.83,985.141 5805.13,984.957 5802.92,984.587C5798.98,983.848 5793.71,983.387 5787.12,983.202L5708.81,983.202C5705.67,983.202 5703.24,982.509 5701.52,981.124C5699.79,979.739 5698.93,977.784 5698.93,975.26C5698.93,973.474 5699.3,972.181 5700.04,971.381C5700.78,970.581 5702.47,969.565 5705.12,968.333C5706.96,967.533 5708.33,966.548 5709.23,965.378C5710.12,964.208 5710.81,962.484 5711.3,960.206C5713.34,950.91 5714.35,938.381 5714.35,922.619C5714.35,898.854 5712.87,883.862 5709.92,877.644C5709.3,876.413 5708.63,875.551 5707.89,875.058C5707.15,874.566 5705.61,873.981 5703.27,873.304C5699.76,872.257 5698.01,869.917 5698.01,866.285C5698.01,864.315 5698.59,862.56 5699.76,861.021C5700.93,859.482 5702.47,858.466 5704.38,857.973C5706.78,857.419 5711.43,857.142 5718.32,857.142ZM5767.18,815.861C5772.78,815.861 5777.77,816.692 5782.14,818.354C5784.29,819.155 5786.05,820.294 5787.4,821.771C5788.76,823.249 5789.4,824.727 5789.34,826.204C5789.22,828.975 5786.6,832.33 5781.49,836.271C5772.19,843.412 5761.91,846.983 5750.65,846.983C5744.3,846.983 5741.13,844.705 5741.13,840.149C5741.13,838.549 5741.46,837.333 5742.1,836.501C5742.75,835.67 5744.61,834.054 5747.69,831.653C5750.46,829.683 5752.15,828.374 5752.77,827.728C5753.39,827.082 5753.69,826.297 5753.69,825.373C5753.69,824.881 5753.32,823.988 5752.59,822.695C5752.34,822.264 5752.22,821.802 5752.22,821.31C5752.22,819.709 5753.6,818.416 5756.37,817.431C5759.14,816.446 5762.74,815.922 5767.18,815.861Z" style="fill:rgb(249,243,232);fill-rule:nonzero;"/>
            <path d="M5927.22,983.11L5914.85,983.202C5906.17,983.325 5899.82,983.51 5895.82,983.756C5892.25,984.064 5889.7,984.218 5888.16,984.218C5884.4,984.218 5881.42,983.264 5879.2,981.355C5877.04,979.446 5875.97,977.168 5875.97,974.521C5875.97,972.797 5876.37,971.443 5877.17,970.457C5877.97,969.472 5879.91,967.933 5882.99,965.84C5884.77,964.609 5886,962.685 5886.68,960.068C5887.36,957.451 5888.1,951.833 5888.9,943.214C5890.07,929.792 5890.65,913.261 5890.65,893.621C5890.65,886.417 5890.17,881.631 5889.22,879.26C5888.27,876.89 5886.03,874.935 5882.52,873.396C5878.46,871.672 5876.43,869.148 5876.43,865.823C5876.43,863.114 5877.65,860.898 5880.08,859.174C5882.51,857.45 5885.63,856.588 5889.45,856.588C5891.54,856.588 5894.22,856.68 5897.48,856.865C5902.9,857.111 5908.75,857.234 5915.03,857.234C5919.65,857.234 5928.73,857.05 5942.28,856.68C5946.52,856.557 5950.37,856.496 5953.82,856.496C5962.01,856.496 5968.61,857.157 5973.63,858.481C5978.65,859.805 5983,862.037 5986.7,865.177C5992.73,870.287 5995.75,877.121 5995.75,885.679C5995.75,889.927 5994.85,894.067 5993.07,898.1C5991.28,902.133 5988.88,905.35 5985.86,907.751C5983.71,909.475 5982.63,911.045 5982.63,912.461C5982.63,914 5983.93,915.293 5986.51,916.339C5991.56,918.371 5996.15,921.788 6000.27,926.59C6004.52,931.577 6006.65,937.827 6006.65,945.338C6006.65,954.204 6003.41,962.3 5996.95,969.626C5988.39,979.292 5975.74,984.125 5958.99,984.125C5956.71,984.125 5951.11,983.972 5942.18,983.664C5934.06,983.356 5929.07,983.171 5927.22,983.11ZM5933.59,882.908L5933.59,901.933C5933.59,904.949 5933.98,907.073 5934.75,908.305C5935.52,909.536 5936.86,910.152 5938.77,910.152C5943.32,910.152 5946.68,908.751 5948.83,905.95C5950.99,903.149 5952.07,898.762 5952.07,892.79C5952.07,887.002 5950.96,882.523 5948.74,879.353C5946.52,876.182 5943.38,874.596 5939.32,874.596C5937.16,874.596 5935.67,875.197 5934.84,876.397C5934.01,877.598 5933.59,879.768 5933.59,882.908ZM5933.59,936.103L5933.59,944.876C5933.59,952.941 5934.18,958.298 5935.35,960.945C5936.52,963.593 5938.89,964.916 5942.46,964.916C5951.82,964.916 5956.5,959.437 5956.5,948.478C5956.5,934.81 5951.26,927.976 5940.8,927.976C5938.09,927.976 5936.21,928.561 5935.16,929.73C5934.12,930.9 5933.59,933.024 5933.59,936.103Z" style="fill:rgb(249,243,232);fill-rule:nonzero;"/>
            <path d="M6079.23,857.142L6126.7,857.142C6136.31,857.142 6143.31,856.942 6147.71,856.542C6152.11,856.142 6156.41,855.326 6160.6,854.094C6161.89,853.725 6162.9,853.54 6163.64,853.54C6166.84,853.54 6169.68,855.264 6172.14,858.712C6176.2,864.315 6178.23,871.087 6178.23,879.029C6178.23,883.031 6177.39,886.187 6175.69,888.495C6174,890.804 6171.68,891.959 6168.72,891.959C6166.69,891.959 6165.1,891.543 6163.97,890.712C6162.83,889.881 6161.3,888.018 6159.39,885.125C6156.69,881 6153.25,878.244 6149.1,876.859C6144.94,875.474 6138.12,874.781 6128.64,874.781C6121.56,874.781 6117.25,876.043 6115.71,878.568C6114.91,879.922 6114.43,881.738 6114.28,884.016C6114.13,886.294 6114.05,892.112 6114.05,901.471C6114.05,905.165 6114.66,907.458 6115.9,908.351C6117.13,909.244 6120.36,909.69 6125.59,909.69C6128.18,909.69 6130.06,909.151 6131.23,908.074C6132.4,906.996 6133.14,905.072 6133.44,902.302C6133.87,898.731 6134.32,896.284 6134.78,894.96C6135.24,893.636 6136.09,892.482 6137.32,891.497C6138.61,890.389 6140.12,889.834 6141.85,889.834C6144.37,889.834 6146.53,891.035 6148.31,893.436C6149.61,895.222 6150.7,898.377 6151.59,902.902C6152.48,907.427 6152.93,912.153 6152.93,917.078C6152.93,926.806 6151.42,934.779 6148.4,940.997C6146.74,944.383 6144.22,946.077 6140.83,946.077C6138.74,946.077 6137.29,945.538 6136.49,944.46C6135.69,943.383 6135.07,941.151 6134.64,937.765C6133.72,930.808 6129.66,927.329 6122.45,927.329C6119.68,927.329 6117.79,928.207 6116.77,929.961C6115.76,931.716 6115.25,934.964 6115.25,939.704C6115.25,942.598 6115.45,946.338 6115.85,950.925C6116.25,955.512 6116.67,958.544 6117.1,960.022C6117.59,961.869 6119.11,963.146 6121.67,963.854C6124.22,964.562 6128.49,964.916 6134.46,964.916C6143.69,964.916 6150.65,963.731 6155.33,961.361C6160.01,958.99 6163.83,954.696 6166.78,948.478C6168.51,944.907 6170.06,942.506 6171.45,941.274C6172.83,940.043 6174.63,939.427 6176.85,939.427C6179.43,939.427 6181.57,940.551 6183.27,942.798C6184.96,945.045 6185.81,947.862 6185.81,951.248C6185.81,954.942 6184.85,959.56 6182.94,965.101C6181.03,970.642 6178.7,975.568 6175.93,979.877C6174.51,981.971 6173.34,983.371 6172.42,984.079C6171.49,984.787 6170.32,985.141 6168.91,985.141C6167.74,985.141 6166.04,984.957 6163.83,984.587C6159.89,983.848 6154.62,983.387 6148.03,983.202L6069.72,983.202C6066.58,983.202 6064.15,982.509 6062.43,981.124C6060.7,979.739 6059.84,977.784 6059.84,975.26C6059.84,973.474 6060.21,972.181 6060.95,971.381C6061.69,970.581 6063.38,969.565 6066.03,968.333C6067.87,967.533 6069.24,966.548 6070.14,965.378C6071.03,964.208 6071.72,962.484 6072.21,960.206C6074.25,950.91 6075.26,938.381 6075.26,922.619C6075.26,898.854 6073.78,883.862 6070.83,877.644C6070.21,876.413 6069.54,875.551 6068.8,875.058C6068.06,874.566 6066.52,873.981 6064.18,873.304C6060.67,872.257 6058.92,869.917 6058.92,866.285C6058.92,864.315 6059.5,862.56 6060.67,861.021C6061.84,859.482 6063.38,858.466 6065.29,857.973C6067.69,857.419 6072.34,857.142 6079.23,857.142ZM6128.09,815.861C6133.69,815.861 6138.68,816.692 6143.05,818.354C6145.2,819.155 6146.96,820.294 6148.31,821.771C6149.67,823.249 6150.31,824.727 6150.25,826.204C6150.13,828.975 6147.51,832.33 6142.4,836.271C6133.11,843.412 6122.82,846.983 6111.56,846.983C6105.21,846.983 6102.04,844.705 6102.04,840.149C6102.04,838.549 6102.37,837.333 6103.01,836.501C6103.66,835.67 6105.52,834.054 6108.6,831.653C6111.37,829.683 6113.06,828.374 6113.68,827.728C6114.3,827.082 6114.6,826.297 6114.6,825.373C6114.6,824.881 6114.23,823.988 6113.49,822.695C6113.25,822.264 6113.13,821.802 6113.13,821.31C6113.13,819.709 6114.51,818.416 6117.28,817.431C6120.05,816.446 6123.65,815.922 6128.09,815.861Z" style="fill:rgb(249,243,232);fill-rule:nonzero;"/>
            <path d="M6308.45,854.556C6317.44,854.556 6326.12,856.526 6334.49,860.467C6338.43,862.314 6341.17,863.237 6342.71,863.237C6343.82,863.237 6345.61,862.96 6348.07,862.406C6348.87,862.221 6349.76,862.129 6350.75,862.129C6353.95,862.129 6356.75,863.607 6359.15,866.562C6365.06,873.704 6368.02,882.569 6368.02,893.159C6368.02,900.609 6365.46,906.058 6360.35,909.505C6357.58,911.352 6354.47,912.276 6351.02,912.276C6347.88,912.276 6345.33,911.599 6343.36,910.244C6341.39,908.89 6339.48,906.489 6337.63,903.041C6334.99,898.177 6332.83,894.683 6331.17,892.559C6329.51,890.435 6327.47,888.511 6325.07,886.787C6319.1,882.6 6312.85,880.507 6306.32,880.507C6299.98,880.507 6294.95,882.8 6291.23,887.387C6287.5,891.974 6285.64,898.115 6285.64,905.811C6285.64,916.401 6288.32,926.098 6293.67,934.902C6300.94,946.662 6311.34,952.541 6324.89,952.541C6329.88,952.541 6334.82,951.71 6339.71,950.048C6344.61,948.385 6348.41,946.231 6351.12,943.583C6353.46,941.367 6355.36,940.258 6356.84,940.258C6359,940.258 6360.84,941.259 6362.38,943.26C6363.92,945.261 6364.69,947.677 6364.69,950.509C6364.69,954.08 6363.61,958.082 6361.46,962.515C6359.31,966.948 6356.72,970.427 6353.7,972.951C6352.41,973.998 6349.73,974.921 6345.67,975.721C6343.33,976.152 6340.22,977.291 6336.34,979.138C6327.23,983.51 6317.75,985.695 6307.9,985.695C6297.61,985.695 6287.36,983.387 6277.14,978.769C6265.26,973.413 6255.87,965.193 6248.98,954.111C6242.2,943.337 6238.82,932.07 6238.82,920.311C6238.82,906.642 6243.07,894.175 6251.56,882.908C6258.95,873.119 6268.58,865.638 6280.47,860.467C6289.52,856.526 6298.85,854.556 6308.45,854.556Z" style="fill:rgb(249,243,232);fill-rule:nonzero;"/>
            <path d="M6493.06,854.556C6508.88,854.556 6522.7,859.081 6534.53,868.132C6542.53,874.35 6549.03,882.416 6554.01,892.328C6558.88,902.179 6561.31,912.03 6561.31,921.88C6561.31,936.41 6556.51,949.401 6546.9,960.853C6538.77,970.581 6528.15,977.569 6515.04,981.817C6506.98,984.403 6498.88,985.695 6490.75,985.695C6480.1,985.695 6469.91,983.479 6460.18,979.046C6448.42,973.69 6439.22,965.594 6432.57,954.758C6426.11,944.291 6422.87,932.747 6422.87,920.126C6422.87,905.473 6427.03,892.543 6435.34,881.338C6442.73,871.364 6452.67,864.038 6465.17,859.358C6473.54,856.157 6482.84,854.556 6493.06,854.556ZM6484.29,881.061C6479.11,881.061 6475.02,883.37 6472,887.987C6469.66,891.435 6468.49,895.529 6468.49,900.27C6468.49,907.227 6469.91,915.277 6472.74,924.42C6475.57,933.563 6479.15,941.675 6483.46,948.755C6485.36,951.772 6487.72,954.173 6490.52,955.958C6493.32,957.744 6496.17,958.636 6499.06,958.636C6503.74,958.636 6507.51,956.882 6510.38,953.372C6513.24,949.863 6514.67,945.245 6514.67,939.52C6514.67,932.07 6513.47,924.035 6511.07,915.416C6508.67,906.796 6505.56,899.439 6501.74,893.344C6499.4,889.588 6496.69,886.633 6493.61,884.478C6490.54,882.323 6487.43,881.184 6484.29,881.061Z" style="fill:rgb(249,243,232);fill-rule:nonzero;"/>
            <path d="M6656.15,855.203C6663.17,855.203 6669.79,855.818 6676.01,857.05C6684.38,858.712 6688.57,862.252 6688.57,867.67C6688.57,869.456 6688.15,870.795 6687.32,871.687C6686.49,872.58 6684.38,873.888 6681,875.612C6678.16,877.028 6676.3,880.138 6675.41,884.94C6674.52,889.742 6674.07,899.1 6674.07,913.015C6674.07,936.534 6674.65,951.094 6675.82,956.697C6676.26,958.483 6676.92,959.852 6677.81,960.807C6678.7,961.761 6680.26,962.792 6682.47,963.9C6686.54,965.748 6688.57,968.426 6688.57,971.935C6688.57,976.86 6684.81,980.247 6677.3,982.094C6669.18,984.064 6659.23,985.049 6647.47,985.049C6627.4,985.049 6617.37,981.232 6617.37,973.597C6617.37,970.827 6619.34,968.241 6623.28,965.84C6626.29,963.993 6628.08,961.469 6628.63,958.267C6629.8,951.248 6630.39,936.349 6630.39,913.569C6630.39,897.808 6629.59,887.71 6627.99,883.278C6627.12,880.753 6625.06,878.475 6621.8,876.444C6619.27,874.781 6617.58,873.396 6616.72,872.288C6615.86,871.179 6615.43,869.763 6615.43,868.04C6615.43,865.392 6616.7,863.283 6619.26,861.713C6621.81,860.143 6626.32,858.743 6632.79,857.511C6640.48,855.972 6648.27,855.203 6656.15,855.203Z" style="fill:rgb(249,243,232);fill-rule:nonzero;"/>
            <path d="M6797.91,854.556C6804.26,854.556 6812.57,856.126 6822.85,859.266C6824.08,859.636 6825.06,859.82 6825.8,859.82C6826.42,859.82 6828.27,859.266 6831.34,858.158C6832.33,857.788 6833.38,857.604 6834.48,857.604C6838.61,857.604 6842.97,860.867 6847.55,867.393C6852.14,873.919 6854.43,880.138 6854.43,886.048C6854.43,889.496 6853.4,892.405 6851.34,894.775C6849.28,897.146 6846.77,898.331 6843.81,898.331C6841.35,898.331 6839.35,897.838 6837.81,896.853C6836.27,895.868 6832.88,892.944 6827.65,888.08C6820.26,881.184 6813,877.736 6805.86,877.736C6802.41,877.736 6799.65,878.568 6797.59,880.23C6795.53,881.892 6794.5,884.078 6794.5,886.787C6794.5,892.143 6799.21,896.176 6808.63,898.885C6821.37,902.641 6829.53,905.38 6833.1,907.104C6848.8,914.739 6856.65,925.975 6856.65,940.813C6856.65,953.926 6851.29,964.639 6840.58,972.951C6829.62,981.447 6815.31,985.695 6797.64,985.695C6789.76,985.695 6781.44,984.757 6772.7,982.879C6763.96,981.001 6757.65,978.8 6753.77,976.276C6750.81,974.305 6748.15,970.011 6745.78,963.393C6743.41,956.774 6742.23,950.325 6742.23,944.045C6742.23,941.028 6742.84,938.75 6744.07,937.211C6745.61,935.241 6747.55,934.256 6749.89,934.256C6752.23,934.256 6754.48,935.456 6756.63,937.857C6757.93,939.212 6760.97,943.552 6765.78,950.879C6768.05,954.327 6771.67,957.19 6776.63,959.468C6781.58,961.746 6786.71,962.885 6792,962.885C6796.56,962.885 6800.25,962.038 6803.09,960.345C6805.92,958.652 6807.33,956.482 6807.33,953.834C6807.33,951.371 6806.23,949.247 6804.01,947.462C6801.79,945.676 6798.19,944.014 6793.2,942.475C6784.4,939.704 6777.69,937.165 6773.07,934.856C6768.45,932.547 6764.14,929.638 6760.14,926.129C6750.41,917.509 6745.55,907.72 6745.55,896.761C6745.55,891.343 6746.81,886.063 6749.34,880.923C6751.86,875.782 6755.43,871.333 6760.05,867.578C6770.39,858.897 6783.01,854.556 6797.91,854.556Z" style="fill:rgb(249,243,232);fill-rule:nonzero;"/>
        </g>
    </g>
</svg>
