<svg viewBox="0 0 1855 1873" xmlns="http://www.w3.org/2000/svg" xml:space="preserve" style="fill-rule:evenodd;clip-rule:evenodd;stroke-linejoin:round;stroke-miterlimit:2"><path d="M.162-.412.05-.368v.148l.032.007v-.065l.06-.002v-.047l-.06.01v-.025l.08-.021v-.049Z" style="fill:#fffdeb;fill-rule:nonzero" transform="rotate(-20.15 3442.138 -1164.078) scale(557.47928)"/><path d="M-.138-.282-.25-.464l-.091.036-.019.236.082.017.01-.119.07.136.132.028.094-.171.021.195.197.041-.063-.572-.188.075-.133.28Z" style="fill:#fffdeb;fill-rule:nonzero" transform="rotate(-20.15 3290.783 -2015.927) scale(557.47928)"/><path d="M.052.052c.33.069.52-.046.559-.069L.333-.232C.19-.135-.075-.16-.201-.244c-.046-.033-.093-.079-.094-.141-.001-.064.046-.12.089-.159.13-.113.391-.177.529-.111L.59-.916c-.261-.105-.727.059-.981.303-.065.062-.141.151-.14.25.002.097.079.172.148.225.123.093.286.159.435.19Z" style="fill:#fffdeb;fill-rule:nonzero" transform="rotate(-20.15 3079.503 -3205.042) scale(557.47928)"/><g id="Oiseauuuuuu"><path d="m595.315 2836.24-77.489-116.02 111.438 87.79 82.103-83.76-47.646 110.92c-5.624-3.64-13.05-6.41-21.755-7.77-17.7-2.77-35.784 1.03-46.651 8.84Z" style="fill:#4dff59" transform="matrix(.46769 1.30444 -2.23152 .80008 6387.055 -2044.06)"/><ellipse cx="958.893" cy="2941.41" rx="62.091" ry="65.972" style="fill:#fefdeb" transform="rotate(-4.724 -145909.281 41709.128) scale(3.1494 4.6144)"/><ellipse cx="958.893" cy="2941.41" rx="62.091" ry="65.972" style="fill:#fefdeb" transform="matrix(2.32165 -.8324 .71394 1.99128 -4073.612 -3959.126)"/><circle cx="634.742" cy="2817" r="32.839" style="fill:#4dff59" transform="rotate(-19.725 -6855.44 4075.435) scale(1.2861)"/><path d="M781.419 3028.13c-20.737-11.39-35.747-44.36-35.747-83.2 0-38.85 15.01-71.82 35.747-83.21 20.738 11.39 35.747 44.36 35.747 83.21 0 38.84-15.009 71.81-35.747 83.2Z" style="fill:#1d2523" transform="matrix(3.80543 -.7648 .57247 2.8484 -4470.645 -6360.757)"/><path d="M781.419 3028.13c-20.737-11.39-35.747-44.36-35.747-83.2 0-38.85 15.01-71.82 35.747-83.21 20.738 11.39 35.747 44.36 35.747 83.21 0 38.84-15.009 71.81-35.747 83.2Z" style="fill:#4dff59" transform="rotate(-7.882 -49025.023 20362.44) scale(2.90535)"/></g></svg>