<svg viewBox="0 0 1102 787" xmlns="http://www.w3.org/2000/svg" xml:space="preserve" style="fill-rule:evenodd;clip-rule:evenodd;stroke-linejoin:round;stroke-miterlimit:2"><path d="M511.695 370.966v199.635h53.247V505.82h105.724v-53.247H564.942v-28.359h145.827v-53.248H511.695Z" style="fill:#4dff59;fill-rule:nonzero" transform="rotate(30 1476.019 -905.507) scale(1.61558)"/><path d="M562.138 883.101V764.218l28.334 65.61h38.715l28.334-65.61v118.883h52.126V683.466H641.25l-31.701 79.07-34.226-79.07h-65.031l-.28 199.635h52.126Z" style="fill:#4dff59;fill-rule:nonzero" transform="rotate(-30 -1017.804 2244.332) scale(1.95124)"/><path d="M611.775 1196.44c43.187.28 82.168-26.06 97.031-65.03l-49.637-19.07c-7.292 18.51-26.081 30.85-47.113 30.85-26.081 0-49.638-19.91-49.638-46.85 0-25.81 22.435-46.85 49.918-46.56 20.191 0 38.42 11.5 45.991 28.89l48.796-21.32c-15.985-36.72-53.283-60.823-94.507-60.823-56.923-.28-103.445 44.563-103.445 99.533-.561 56.38 47.362 100.38 102.604 100.38Z" style="fill:#4dff59;fill-rule:nonzero" transform="scale(2.11666) rotate(45 1716.535 365.595)"/></svg>